<svg width="171" height="36" viewBox="0 0 171 36" fill="none" xmlns="http://www.w3.org/2000/svg">
<path d="M34.9434 17.6871C34.9434 27.2173 27.2179 34.9429 17.6871 34.9429C8.15719 34.9429 0.431641 27.2173 0.431641 17.6871C0.431641 8.1572 8.15719 0.430717 17.6871 0.430717C27.2179 0.430717 34.9434 8.1572 34.9434 17.6871Z" fill="#FAB80A"/>
<path d="M31.3373 17.6874C31.3373 25.2253 25.2262 31.3364 17.6878 31.3364C10.1494 31.3364 4.03827 25.2253 4.03827 17.6874C4.03827 10.1489 10.1494 4.03784 17.6878 4.03784C25.2262 4.03784 31.3373 10.1489 31.3373 17.6874Z" fill="#F79011"/>
<path d="M16.2509 24.2686C16.0126 24.2686 15.8193 24.462 15.8193 24.7002V26.5586C15.8193 26.7969 16.0126 26.9902 16.2509 26.9902C16.4891 26.9902 16.6825 26.7969 16.6825 26.5586V24.7002C16.6825 24.462 16.4891 24.2686 16.2509 24.2686Z" fill="#F79011"/>
<path d="M19.1253 24.2686C18.887 24.2686 18.6937 24.462 18.6937 24.7002V26.5586C18.6937 26.7969 18.887 26.9902 19.1253 26.9902C19.3635 26.9902 19.5569 26.7969 19.5569 26.5586V24.7002C19.5569 24.462 19.3635 24.2686 19.1253 24.2686Z" fill="#F79011"/>
<path d="M18.8136 22.2227H16.5624V21.2723C16.5624 20.6508 17.0665 20.1467 17.688 20.1467C18.3095 20.1467 18.8136 20.6508 18.8136 21.2723V22.2227Z" fill="#F79011"/>
<path d="M5.8079 5.17259C5.59895 5.37025 5.3947 5.57355 5.19611 5.78156C5.19611 5.7825 5.19704 5.78345 5.19704 5.78345L6.36322 6.94868C6.44699 7.03339 6.55712 7.07574 6.66818 7.07574C6.7783 7.07574 6.88937 7.03339 6.97408 6.94868C7.14161 6.7802 7.14161 6.50725 6.97408 6.33877L5.8079 5.17259ZM6.36322 28.3775L5.19704 29.5428C5.18951 29.5514 5.18293 29.5609 5.1754 29.5695C5.37117 29.7767 5.57354 29.9787 5.77966 30.1763C5.78908 30.1678 5.79849 30.1616 5.8079 30.153L6.97408 28.9878C7.14161 28.8185 7.14161 28.5458 6.97408 28.3775C6.80466 28.2083 6.5317 28.2083 6.36322 28.3775ZM17.6871 32.8151C17.4489 32.8151 17.256 33.0085 17.256 33.2467V34.8945C17.256 34.9092 17.2588 34.923 17.2597 34.9377C17.4019 34.9411 17.544 34.9429 17.6871 34.9429C17.8301 34.9429 17.9722 34.9411 18.1144 34.9377C18.1163 34.923 18.1191 34.9092 18.1191 34.8945V33.2467C18.1191 33.0085 17.9261 32.8151 17.6871 32.8151ZM29.0118 28.3775C28.8434 28.2083 28.5695 28.2083 28.401 28.3775C28.2334 28.5458 28.2334 28.8185 28.401 28.9878L29.5662 30.153C29.5766 30.1616 29.586 30.1678 29.5954 30.1763C29.8015 29.9787 30.0029 29.7767 30.1997 29.5695C30.1912 29.5609 30.1855 29.5514 30.1771 29.5428L29.0118 28.3775ZM34.9378 17.2334C34.9312 17.2334 34.9255 17.2315 34.9189 17.2315H33.2718C33.0327 17.2315 32.8398 17.4245 32.8398 17.6626C32.8398 17.9017 33.0327 18.0946 33.2718 18.0946H34.9189C34.9265 18.0946 34.9321 18.0927 34.9378 18.0927C34.9415 17.9581 34.9434 17.8226 34.9434 17.6871C34.9434 17.5355 34.9415 17.384 34.9378 17.2334ZM2.10326 17.2315H0.456118C0.449529 17.2315 0.443882 17.2334 0.437293 17.2334C0.433529 17.384 0.431641 17.5355 0.431641 17.6871C0.431641 17.8226 0.433523 17.9581 0.436347 18.0927C0.442935 18.0927 0.448588 18.0946 0.456118 18.0946H2.10326C2.34138 18.0946 2.53527 17.9017 2.53527 17.6626C2.53527 17.4245 2.34138 17.2315 2.10326 17.2315ZM17.256 0.436359V2.07974C17.256 2.31787 17.4489 2.51081 17.6871 2.51081C17.9261 2.51081 18.1191 2.31787 18.1191 2.07974V0.436359C17.976 0.433537 17.832 0.430717 17.6871 0.430717C17.543 0.430717 17.399 0.433537 17.256 0.436359ZM28.7069 7.07574C28.817 7.07574 28.9281 7.03339 29.0118 6.94868L30.1771 5.78345C30.178 5.78251 30.178 5.7825 30.1789 5.78156C29.9804 5.57355 29.7761 5.37025 29.5672 5.17259C29.5672 5.17259 29.5672 5.17259 29.5662 5.17259L28.401 6.33877C28.2334 6.50725 28.2334 6.7802 28.401 6.94868C28.4857 7.03339 28.5968 7.07574 28.7069 7.07574Z" fill="#F79011"/>
<path d="M34.0395 23.3374C33.8121 23.2576 33.5579 23.3673 33.4738 23.5824C33.3917 23.7912 33.3037 24.0017 33.213 24.2078C33.1184 24.4193 33.2244 24.6626 33.448 24.7512C33.5035 24.7732 33.5618 24.7837 33.6181 24.7837C33.7901 24.7837 33.9535 24.6878 34.0233 24.5288C34.1207 24.3119 34.2125 24.0907 34.2994 23.871C34.3835 23.6561 34.2669 23.4171 34.0395 23.3374Z" fill="#3A1F16"/>
<path d="M30.186 5.1828C30.1822 5.17997 30.1803 5.17619 30.1784 5.17336C30.1737 5.16959 30.1699 5.16676 30.1652 5.16298C26.9645 1.97364 22.5529 7.62939e-06 17.6882 7.62939e-06C12.8225 7.62939e-06 8.41084 1.97364 5.21017 5.16298C5.2064 5.16676 5.20168 5.16959 5.1979 5.17336C5.19507 5.17619 5.19225 5.17997 5.18941 5.1828C1.98591 8.3863 0 12.8093 0 17.6872C0 27.44 7.93419 35.3745 17.6882 35.3745C23.6336 35.3745 29.1477 32.4128 32.438 27.4518C32.5702 27.2533 32.5154 26.9854 32.3172 26.8537C32.119 26.7218 31.85 26.7761 31.7188 26.9747C31.1733 27.7974 30.5626 28.5604 29.8971 29.2622L29.0118 28.3775C28.8438 28.2083 28.571 28.2083 28.4021 28.3775C28.2331 28.5458 28.2331 28.8186 28.4021 28.9877L29.2883 29.8742C26.2953 32.7262 22.3339 34.3973 18.1195 34.5044V33.2467C18.1195 33.0085 17.926 32.8151 17.6882 32.8151C17.4494 32.8151 17.2559 33.0085 17.2559 33.2467V34.5061C12.9367 34.3965 9.01587 32.6512 6.09364 29.8673L6.97427 28.9877C7.14228 28.8186 7.14228 28.5458 6.97427 28.3775C6.80438 28.2083 6.5316 28.2083 6.36359 28.3775L5.4839 29.2562C2.70891 26.3306 0.971244 22.4115 0.868362 18.095H2.10389C2.34175 18.095 2.53525 17.9015 2.53525 17.6627C2.53525 17.4248 2.34175 17.2313 2.10389 17.2313H0.869312C0.985408 12.9216 2.72873 9.0102 5.50749 6.0927L6.36359 6.94878C6.44759 7.03278 6.55802 7.07526 6.66846 7.07526C6.77889 7.07526 6.88933 7.03278 6.97427 6.94878C7.14228 6.78077 7.14228 6.50706 6.97427 6.3381L6.11818 5.48295C9.03852 2.71363 12.949 0.97691 17.2559 0.868366V2.07935C17.2559 2.31721 17.4494 2.5107 17.6882 2.5107C17.926 2.5107 18.1195 2.31721 18.1195 2.07935V0.868366C22.4264 0.97691 26.3369 2.71363 29.2572 5.48295L28.4021 6.3381C28.2331 6.50706 28.2331 6.78077 28.4021 6.94878C28.4861 7.03278 28.5965 7.07526 28.7069 7.07526C28.8174 7.07526 28.9278 7.03278 29.0118 6.94878L29.8679 6.0927C32.6466 9.0102 34.3909 12.9216 34.5061 17.2313H33.2715C33.0327 17.2313 32.8401 17.4248 32.8401 17.6627C32.8401 17.9015 33.0327 18.095 33.2715 18.095H34.507C34.4853 19.0181 34.3881 19.9402 34.2172 20.8402C34.1729 21.0743 34.3267 21.3003 34.5608 21.3445C34.7949 21.3889 35.0205 21.2351 35.0658 21.001C35.2706 19.9158 35.3754 18.801 35.3754 17.6872C35.3754 12.8093 33.3904 8.3863 30.186 5.1828Z" fill="#3A1F16"/>
<path d="M17.6876 30.9049C10.3994 30.9049 4.46975 24.9754 4.46975 17.6867C4.46975 10.3984 10.3994 4.46976 17.6876 4.46976C24.9759 4.46976 30.9064 10.3984 30.9064 17.6867C30.9064 24.9754 24.9759 30.9049 17.6876 30.9049ZM17.6876 3.60609C9.92373 3.60609 3.60699 9.92282 3.60699 17.6867C3.60699 25.4514 9.92373 31.7681 17.6876 31.7681C25.4524 31.7681 31.7692 25.4514 31.7692 17.6867C31.7692 9.92282 25.4524 3.60609 17.6876 3.60609Z" fill="#3A1F16"/>
<path d="M34.9367 17.801C34.9367 27.2618 27.2104 34.9364 17.6732 34.9364C8.1361 34.9364 0.409814 27.2618 0.409814 17.801C0.409814 8.34024 8.1361 0.665674 17.6732 0.665674C27.2104 0.665674 34.9367 8.34024 34.9367 17.801Z" stroke="#3A1F16" stroke-width="0.819628"/>
<path d="M14.3626 15.2765C14.7109 15.2765 15.0448 15.1381 15.2911 14.8919C15.5373 14.6457 15.6757 14.3117 15.6757 13.9634C15.6757 13.6152 15.5373 13.2812 15.2911 13.035C15.0448 12.7887 14.7109 12.6504 14.3626 12.6504C14.0144 12.6504 13.6804 12.7887 13.4341 13.035C13.1879 13.2812 13.0496 13.6152 13.0496 13.9634C13.0496 14.3117 13.1879 14.6457 13.4341 14.8919C13.6804 15.1381 14.0144 15.2765 14.3626 15.2765ZM22.5789 13.9634C22.5789 14.3117 22.4406 14.6457 22.1943 14.8919C21.9481 15.1381 21.6141 15.2765 21.2659 15.2765C20.9176 15.2765 20.5836 15.1381 20.3374 14.8919C20.0912 14.6457 19.9528 14.3117 19.9528 13.9634C19.9528 13.6152 20.0912 13.2812 20.3374 13.035C20.5836 12.7887 20.9176 12.6504 21.2659 12.6504C21.6141 12.6504 21.9481 12.7887 22.1943 13.035C22.4406 13.2812 22.5789 13.6152 22.5789 13.9634Z" fill="#F79011"/>
<mask id="path-12-outside-1_760_10337" maskUnits="userSpaceOnUse" x="9.50146" y="7.96436" width="17" height="21" fill="black">
<rect fill="white" x="9.50146" y="7.96436" width="17" height="21"/>
<path d="M24.789 8.96436C24.789 9.73138 24.503 10.4204 24.035 10.9534C24.62 11.6295 24.9775 12.507 24.9775 13.4625C24.9775 14.4785 24.7578 15.2663 24.3632 15.8761C24.7292 16.7406 24.932 17.6909 24.932 18.6887C24.932 21.3454 23.4961 23.6666 21.3588 24.9185C21.6773 25.4295 21.8905 26.0132 21.9679 26.6385C22.0283 27.1267 21.624 27.49 21.1879 27.49H14.3431C13.9069 27.49 13.5026 27.1267 13.5631 26.6385C13.6385 26.0301 13.8426 25.462 14.1481 24.9614C13.0403 24.3313 12.1192 23.4189 11.4786 22.317C10.838 21.2151 10.5009 19.9632 10.5015 18.6887C10.5015 17.6552 10.7186 16.6723 11.1105 15.7831C10.7517 15.187 10.5535 14.4278 10.5535 13.4625C10.5535 12.507 10.911 11.6295 11.496 10.9534C11.0107 10.4044 10.7426 9.6971 10.742 8.96436H14.4081C15.1166 8.96436 15.7667 9.21136 16.2802 9.62088H19.2443C19.7578 9.21136 20.4078 8.96436 21.1164 8.96436H24.789ZM14.7286 25.2579C14.4556 25.6921 14.2736 26.1874 14.2086 26.7185C14.2065 26.7326 14.2077 26.747 14.2122 26.7606C14.2168 26.7741 14.2244 26.7864 14.2346 26.7965C14.2488 26.8106 14.2657 26.8218 14.2844 26.8293C14.303 26.8368 14.323 26.8404 14.3431 26.84H21.1879C21.2078 26.8403 21.2277 26.8366 21.2462 26.8292C21.2648 26.8217 21.2816 26.8106 21.2958 26.7965C21.3061 26.7865 21.314 26.7743 21.3188 26.7607C21.3235 26.7472 21.325 26.7327 21.3231 26.7185C21.2573 26.1855 21.0722 25.6743 20.7816 25.2228C20.2616 25.4672 19.7071 25.6511 19.1286 25.7662C18.6771 25.9455 18.196 26.0386 17.7102 26.0405C17.2156 26.0405 16.7352 25.941 16.2782 25.761C15.7374 25.6511 15.2187 25.4815 14.7286 25.2579ZM17.5217 17.91C15.4839 17.91 13.645 17.7397 12.3677 16.9869C12.1903 17.5081 12.1 18.055 12.1005 18.6055C12.1005 21.5241 14.6096 25.215 17.7102 25.215C20.8108 25.215 23.3199 21.5241 23.3199 18.6055C23.3199 18.0608 23.2328 17.5349 23.071 17.0403C21.7989 17.7475 19.9983 17.91 18.0092 17.91H17.5217ZM14.3626 16.0951C14.9281 16.0951 15.4704 15.8705 15.8702 15.4706C16.2701 15.0708 16.4947 14.5285 16.4947 13.963C16.4947 13.3976 16.2701 12.8553 15.8702 12.4554C15.4704 12.0556 14.9281 11.831 14.3626 11.831C13.7971 11.831 13.2548 12.0556 12.855 12.4554C12.4552 12.8553 12.2305 13.3976 12.2305 13.963C12.2305 14.5285 12.4552 15.0708 12.855 15.4706C13.2548 15.8705 13.7971 16.0951 14.3626 16.0951ZM21.2659 16.0951C21.8313 16.0951 22.3736 15.8705 22.7735 15.4706C23.1733 15.0708 23.3979 14.5285 23.3979 13.963C23.3979 13.3976 23.1733 12.8553 22.7735 12.4554C22.3736 12.0556 21.8313 11.831 21.2659 11.831C20.7004 11.831 20.1581 12.0556 19.7583 12.4554C19.3584 12.8553 19.1338 13.3976 19.1338 13.963C19.1338 14.5285 19.3584 15.0708 19.7583 15.4706C20.1581 15.8705 20.7004 16.0951 21.2659 16.0951ZM15.418 15.8156H18.8283C18.8283 15.2566 18.3798 14.8081 17.8207 14.8016C17.2617 14.8016 16.8067 15.2566 16.8067 15.8156H15.418Z"/>
</mask>
<path d="M24.789 8.96436C24.789 9.73138 24.503 10.4204 24.035 10.9534C24.62 11.6295 24.9775 12.507 24.9775 13.4625C24.9775 14.4785 24.7578 15.2663 24.3632 15.8761C24.7292 16.7406 24.932 17.6909 24.932 18.6887C24.932 21.3454 23.4961 23.6666 21.3588 24.9185C21.6773 25.4295 21.8905 26.0132 21.9679 26.6385C22.0283 27.1267 21.624 27.49 21.1879 27.49H14.3431C13.9069 27.49 13.5026 27.1267 13.5631 26.6385C13.6385 26.0301 13.8426 25.462 14.1481 24.9614C13.0403 24.3313 12.1192 23.4189 11.4786 22.317C10.838 21.2151 10.5009 19.9632 10.5015 18.6887C10.5015 17.6552 10.7186 16.6723 11.1105 15.7831C10.7517 15.187 10.5535 14.4278 10.5535 13.4625C10.5535 12.507 10.911 11.6295 11.496 10.9534C11.0107 10.4044 10.7426 9.6971 10.742 8.96436H14.4081C15.1166 8.96436 15.7667 9.21136 16.2802 9.62088H19.2443C19.7578 9.21136 20.4078 8.96436 21.1164 8.96436H24.789ZM14.7286 25.2579C14.4556 25.6921 14.2736 26.1874 14.2086 26.7185C14.2065 26.7326 14.2077 26.747 14.2122 26.7606C14.2168 26.7741 14.2244 26.7864 14.2346 26.7965C14.2488 26.8106 14.2657 26.8218 14.2844 26.8293C14.303 26.8368 14.323 26.8404 14.3431 26.84H21.1879C21.2078 26.8403 21.2277 26.8366 21.2462 26.8292C21.2648 26.8217 21.2816 26.8106 21.2958 26.7965C21.3061 26.7865 21.314 26.7743 21.3188 26.7607C21.3235 26.7472 21.325 26.7327 21.3231 26.7185C21.2573 26.1855 21.0722 25.6743 20.7816 25.2228C20.2616 25.4672 19.7071 25.6511 19.1286 25.7662C18.6771 25.9455 18.196 26.0386 17.7102 26.0405C17.2156 26.0405 16.7352 25.941 16.2782 25.761C15.7374 25.6511 15.2187 25.4815 14.7286 25.2579ZM17.5217 17.91C15.4839 17.91 13.645 17.7397 12.3677 16.9869C12.1903 17.5081 12.1 18.055 12.1005 18.6055C12.1005 21.5241 14.6096 25.215 17.7102 25.215C20.8108 25.215 23.3199 21.5241 23.3199 18.6055C23.3199 18.0608 23.2328 17.5349 23.071 17.0403C21.7989 17.7475 19.9983 17.91 18.0092 17.91H17.5217ZM14.3626 16.0951C14.9281 16.0951 15.4704 15.8705 15.8702 15.4706C16.2701 15.0708 16.4947 14.5285 16.4947 13.963C16.4947 13.3976 16.2701 12.8553 15.8702 12.4554C15.4704 12.0556 14.9281 11.831 14.3626 11.831C13.7971 11.831 13.2548 12.0556 12.855 12.4554C12.4552 12.8553 12.2305 13.3976 12.2305 13.963C12.2305 14.5285 12.4552 15.0708 12.855 15.4706C13.2548 15.8705 13.7971 16.0951 14.3626 16.0951ZM21.2659 16.0951C21.8313 16.0951 22.3736 15.8705 22.7735 15.4706C23.1733 15.0708 23.3979 14.5285 23.3979 13.963C23.3979 13.3976 23.1733 12.8553 22.7735 12.4554C22.3736 12.0556 21.8313 11.831 21.2659 11.831C20.7004 11.831 20.1581 12.0556 19.7583 12.4554C19.3584 12.8553 19.1338 13.3976 19.1338 13.963C19.1338 14.5285 19.3584 15.0708 19.7583 15.4706C20.1581 15.8705 20.7004 16.0951 21.2659 16.0951ZM15.418 15.8156H18.8283C18.8283 15.2566 18.3798 14.8081 17.8207 14.8016C17.2617 14.8016 16.8067 15.2566 16.8067 15.8156H15.418Z" fill="#FCF3C5"/>
<path d="M24.789 8.96436H25.471V8.28236H24.789V8.96436ZM24.035 10.9534L23.5225 10.5034L23.1302 10.9502L23.5193 11.3997L24.035 10.9534ZM24.3632 15.8761L23.7907 15.5055L23.5943 15.809L23.7352 16.1419L24.3632 15.8761ZM21.3588 24.9185L21.0141 24.3301L20.4092 24.6844L20.7801 25.2793L21.3588 24.9185ZM21.9679 26.6385L21.2911 26.7222L21.2911 26.7223L21.9679 26.6385ZM13.5631 26.6385L12.8863 26.5546L12.8863 26.5547L13.5631 26.6385ZM14.1481 24.9614L14.7302 25.3168L15.0967 24.7164L14.4853 24.3686L14.1481 24.9614ZM10.5015 18.6887L11.1835 18.689V18.6887H10.5015ZM11.1105 15.7831L11.7346 16.0582L11.8773 15.7345L11.6948 15.4314L11.1105 15.7831ZM11.496 10.9534L12.0117 11.3997L12.402 10.9487L12.007 10.5017L11.496 10.9534ZM10.742 8.96436V8.28236H10.0594L10.06 8.96491L10.742 8.96436ZM16.2802 9.62088L15.855 10.1541L16.0415 10.3029H16.2802V9.62088ZM19.2443 9.62088V10.3029H19.4829L19.6695 10.1541L19.2443 9.62088ZM14.7286 25.2579L15.0116 24.6374L14.4688 24.3897L14.1512 24.8948L14.7286 25.2579ZM14.2086 26.7185L14.8832 26.8183L14.8844 26.8098L14.8855 26.8013L14.2086 26.7185ZM14.2346 26.7965L14.7159 26.3133L14.7143 26.3118L14.2346 26.7965ZM14.3431 26.84V26.1579L14.3292 26.1582L14.3431 26.84ZM21.1879 26.84L21.1988 26.158H21.1879V26.84ZM21.2958 26.7965L20.8244 26.3033L20.8145 26.3132L21.2958 26.7965ZM21.3231 26.7185L20.6462 26.802L20.6472 26.81L21.3231 26.7185ZM20.7816 25.2228L21.3551 24.8536L21.0319 24.3515L20.4915 24.6055L20.7816 25.2228ZM19.1286 25.7662L18.9956 25.0973L18.9346 25.1094L18.8768 25.1324L19.1286 25.7662ZM17.7102 26.0405V26.7225L17.7129 26.7225L17.7102 26.0405ZM16.2782 25.761L16.5282 25.1265L16.4726 25.1045L16.414 25.0926L16.2782 25.761ZM12.3677 16.9869L12.7139 16.3994L11.992 15.974L11.7221 16.7672L12.3677 16.9869ZM12.1005 18.6055H12.7825L12.7825 18.6049L12.1005 18.6055ZM23.071 17.0403L23.7192 16.8282L23.4621 16.0425L22.7396 16.4442L23.071 17.0403ZM14.3626 16.0951V16.7771V16.0951ZM12.2305 13.963H11.5485H12.2305ZM21.2659 16.0951V16.7771V16.0951ZM23.3979 13.963H24.0799H23.3979ZM19.1338 13.963H18.4518H19.1338ZM18.8283 15.8156V16.4976H19.5103V15.8156H18.8283ZM17.8207 14.8016L17.8287 14.1196H17.8207V14.8016ZM16.8067 15.8156V16.4976H17.4887V15.8156H16.8067ZM24.107 8.96436C24.107 9.55606 23.8878 10.0874 23.5225 10.5034L24.5474 11.4034C25.1181 10.7535 25.471 9.90671 25.471 8.96436H24.107ZM23.5193 11.3997C24.0034 11.9591 24.2955 12.6803 24.2955 13.4625H25.6595C25.6595 12.3336 25.2366 11.2998 24.5507 10.5071L23.5193 11.3997ZM24.2955 13.4625C24.2955 14.3794 24.0981 15.0305 23.7907 15.5055L24.9358 16.2466C25.4175 15.5022 25.6595 14.5777 25.6595 13.4625H24.2955ZM23.7352 16.1419C24.0663 16.9241 24.25 17.7841 24.25 18.6887H25.614C25.614 17.5977 25.3921 16.5571 24.9913 15.6102L23.7352 16.1419ZM24.25 18.6887C24.25 21.0934 22.9511 23.1955 21.0141 24.3301L21.7035 25.507C24.0411 24.1377 25.614 21.5973 25.614 18.6887H24.25ZM20.7801 25.2793C21.0474 25.7082 21.2262 26.1977 21.2911 26.7222L22.6447 26.5548C22.5549 25.8287 22.3072 25.1507 21.9376 24.5577L20.7801 25.2793ZM21.2911 26.7223C21.2932 26.7399 21.2907 26.7478 21.2897 26.7507C21.2882 26.7549 21.2846 26.7622 21.2758 26.7713C21.2546 26.7929 21.22 26.808 21.1879 26.808V28.172C21.9654 28.172 22.7636 27.5148 22.6447 26.5547L21.2911 26.7223ZM21.1879 26.808H14.3431V28.172H21.1879V26.808ZM14.3431 26.808C14.311 26.808 14.2763 26.7929 14.2552 26.7713C14.2463 26.7622 14.2428 26.7549 14.2413 26.7507C14.2403 26.7478 14.2377 26.7399 14.2399 26.7223L12.8863 26.5547C12.7674 27.5148 13.5656 28.172 14.3431 28.172V26.808ZM14.2399 26.7224C14.3031 26.2123 14.4741 25.7364 14.7302 25.3168L13.566 24.6061C13.2111 25.1875 12.9739 25.8479 12.8863 26.5546L14.2399 26.7224ZM14.4853 24.3686C13.4822 23.7981 12.6482 22.9719 12.0682 21.9742L10.889 22.6598C11.5901 23.8658 12.5983 24.8645 13.8109 25.5543L14.4853 24.3686ZM12.0682 21.9742C11.4882 20.9766 11.1829 19.843 11.1835 18.689L9.81947 18.6884C9.81884 20.0834 10.1879 21.4537 10.889 22.6598L12.0682 21.9742ZM11.1835 18.6887C11.1835 17.7515 11.3802 16.8623 11.7346 16.0582L10.4865 15.508C10.057 16.4824 9.81947 17.5588 9.81947 18.6887H11.1835ZM11.6948 15.4314C11.4139 14.9647 11.2355 14.3341 11.2355 13.4625H9.87148C9.87148 14.5215 10.0895 15.4093 10.5262 16.1348L11.6948 15.4314ZM11.2355 13.4625C11.2355 12.6803 11.5276 11.9591 12.0117 11.3997L10.9803 10.5071C10.2944 11.2998 9.87148 12.3336 9.87148 13.4625H11.2355ZM12.007 10.5017C11.6317 10.0773 11.4244 9.53036 11.424 8.9638L10.06 8.96491C10.0607 9.86385 10.3897 10.7316 10.985 11.4051L12.007 10.5017ZM10.742 9.64635H14.4081V8.28236H10.742V9.64635ZM14.4081 9.64635C14.9551 9.64635 15.4566 9.8364 15.855 10.1541L16.7054 9.08768C16.0767 8.58633 15.2782 8.28236 14.4081 8.28236V9.64635ZM16.2802 10.3029H19.2443V8.93889H16.2802V10.3029ZM19.6695 10.1541C20.0679 9.8364 20.5694 9.64635 21.1164 9.64635V8.28236C20.2463 8.28236 19.4477 8.58633 18.8191 9.08768L19.6695 10.1541ZM21.1164 9.64635H24.789V8.28236H21.1164V9.64635ZM14.1512 24.8948C13.8263 25.4116 13.6091 26.0021 13.5316 26.6356L14.8855 26.8013C14.938 26.3726 15.0848 25.9726 15.3059 25.6209L14.1512 24.8948ZM13.5339 26.6186C13.5161 26.7386 13.5269 26.8611 13.5652 26.9762L14.8592 26.5449C14.8886 26.6329 14.8968 26.7266 14.8832 26.8183L13.5339 26.6186ZM13.5652 26.9762C13.6036 27.0913 13.6685 27.1958 13.7548 27.2811L14.7143 26.3118C14.7803 26.377 14.8299 26.4569 14.8592 26.5449L13.5652 26.9762ZM13.7533 27.2796C13.8325 27.3585 13.9267 27.4206 14.0305 27.4622L14.5383 26.1963C14.6048 26.223 14.6651 26.2628 14.7159 26.3133L13.7533 27.2796ZM14.0305 27.4622C14.1342 27.5039 14.2452 27.5241 14.357 27.5219L14.3292 26.1582C14.4008 26.1567 14.4719 26.1697 14.5383 26.1963L14.0305 27.4622ZM14.3431 27.522H21.1879V26.158H14.3431V27.522ZM21.1769 27.5219C21.288 27.5237 21.3984 27.5032 21.5015 27.4616L20.991 26.1967C21.057 26.1701 21.1277 26.157 21.1988 26.1581L21.1769 27.5219ZM21.5015 27.4616C21.6045 27.42 21.6982 27.3581 21.777 27.2797L20.8145 26.3132C20.865 26.263 20.925 26.2234 20.991 26.1967L21.5015 27.4616ZM21.767 27.2895C21.8552 27.2051 21.9222 27.1011 21.9625 26.986L20.6751 26.5354C20.7059 26.4474 20.7571 26.3679 20.8245 26.3034L21.767 27.2895ZM21.9625 26.986C22.0028 26.8709 22.0153 26.7478 21.9989 26.6269L20.6472 26.81C20.6347 26.7175 20.6443 26.6235 20.6751 26.5354L21.9625 26.986ZM21.9999 26.6349C21.9216 26.0002 21.7012 25.3914 21.3551 24.8536L20.2081 25.5919C20.4433 25.9572 20.593 26.3708 20.6462 26.802L21.9999 26.6349ZM20.4915 24.6055C20.0212 24.8266 19.5194 24.9931 18.9956 25.0973L19.2616 26.4351C19.8948 26.3091 20.502 26.1077 21.0717 25.84L20.4915 24.6055ZM18.8768 25.1324C18.5046 25.2802 18.108 25.3569 17.7075 25.3585L17.7129 26.7225C18.284 26.7202 18.8496 26.6108 19.3803 26.4L18.8768 25.1324ZM17.7102 25.3585C17.3084 25.3585 16.9126 25.2779 16.5282 25.1265L16.0282 26.3955C16.5578 26.6042 17.1228 26.7225 17.7102 26.7225V25.3585ZM16.414 25.0926C15.9242 24.9931 15.4549 24.8396 15.0116 24.6374L14.4455 25.8783C14.9825 26.1233 15.5507 26.3091 16.1425 26.4293L16.414 25.0926ZM17.5217 17.228C15.4798 17.228 13.8146 17.048 12.7139 16.3994L12.0214 17.5745C13.4754 18.4313 15.488 18.592 17.5217 18.592V17.228ZM11.7221 16.7672C11.5205 17.3593 11.418 17.9806 11.4185 18.6061L12.7825 18.6049C12.7821 18.1293 12.8601 17.6569 13.0133 17.2067L11.7221 16.7672ZM11.4185 18.6055C11.4185 20.2412 12.1128 22.0387 13.207 23.4269C14.2996 24.813 15.8799 25.8969 17.7102 25.8969V24.533C16.44 24.533 15.2154 23.7714 14.2783 22.5825C13.3428 21.3957 12.7825 19.8884 12.7825 18.6055H11.4185ZM17.7102 25.8969C19.5406 25.8969 21.1208 24.813 22.2134 23.4269C23.3076 22.0387 24.0019 20.2412 24.0019 18.6055H22.6379C22.6379 19.8884 22.0777 21.3957 21.1422 22.5825C20.2051 23.7714 18.9805 24.533 17.7102 24.533V25.8969ZM24.0019 18.6055C24.0019 17.9876 23.9031 17.3902 23.7192 16.8282L22.4228 17.2523C22.5626 17.6796 22.6379 18.134 22.6379 18.6055H24.0019ZM22.7396 16.4442C21.6372 17.0571 20 17.228 18.0092 17.228V18.592C19.9967 18.592 21.9606 18.4379 23.4024 17.6363L22.7396 16.4442ZM18.0092 17.228H17.5217V18.592H18.0092V17.228ZM14.3626 16.7771C15.1089 16.7771 15.8247 16.4806 16.3525 15.9529L15.388 14.9884C15.116 15.2603 14.7472 15.4131 14.3626 15.4131V16.7771ZM16.3525 15.9529C16.8802 15.4251 17.1767 14.7094 17.1767 13.963H15.8127C15.8127 14.3476 15.6599 14.7165 15.388 14.9884L16.3525 15.9529ZM17.1767 13.963C17.1767 13.2167 16.8802 12.5009 16.3525 11.9732L15.388 12.9377C15.6599 13.2096 15.8127 13.5785 15.8127 13.963H17.1767ZM16.3525 11.9732C15.8247 11.4455 15.1089 11.149 14.3626 11.149V12.513C14.7472 12.513 15.116 12.6657 15.388 12.9377L16.3525 11.9732ZM14.3626 11.149C13.6163 11.149 12.9005 11.4455 12.3728 11.9732L13.3372 12.9377C13.6092 12.6657 13.978 12.513 14.3626 12.513V11.149ZM12.3728 11.9732C11.845 12.5009 11.5485 13.2167 11.5485 13.963H12.9125C12.9125 13.5785 13.0653 13.2096 13.3372 12.9377L12.3728 11.9732ZM11.5485 13.963C11.5485 14.7094 11.845 15.4251 12.3728 15.9529L13.3372 14.9884C13.0653 14.7165 12.9125 14.3476 12.9125 13.963H11.5485ZM12.3728 15.9529C12.9005 16.4806 13.6163 16.7771 14.3626 16.7771V15.4131C13.978 15.4131 13.6092 15.2603 13.3372 14.9884L12.3728 15.9529ZM21.2659 16.7771C22.0122 16.7771 22.728 16.4806 23.2557 15.9529L22.2912 14.9884C22.0193 15.2603 21.6504 15.4131 21.2659 15.4131V16.7771ZM23.2557 15.9529C23.7835 15.4251 24.0799 14.7094 24.0799 13.963H22.7159C22.7159 14.3476 22.5632 14.7165 22.2912 14.9884L23.2557 15.9529ZM24.0799 13.963C24.0799 13.2167 23.7835 12.5009 23.2557 11.9732L22.2912 12.9377C22.5632 13.2096 22.7159 13.5785 22.7159 13.963H24.0799ZM23.2557 11.9732C22.728 11.4455 22.0122 11.149 21.2659 11.149V12.513C21.6504 12.513 22.0193 12.6657 22.2912 12.9377L23.2557 11.9732ZM21.2659 11.149C20.5195 11.149 19.8038 11.4455 19.276 11.9732L20.2405 12.9377C20.5124 12.6657 20.8813 12.513 21.2659 12.513V11.149ZM19.276 11.9732C18.7483 12.5009 18.4518 13.2167 18.4518 13.963H19.8158C19.8158 13.5785 19.9686 13.2096 20.2405 12.9377L19.276 11.9732ZM18.4518 13.963C18.4518 14.7094 18.7483 15.4251 19.276 15.9529L20.2405 14.9884C19.9686 14.7165 19.8158 14.3476 19.8158 13.963H18.4518ZM19.276 15.9529C19.8038 16.4806 20.5195 16.7771 21.2659 16.7771V15.4131C20.8813 15.4131 20.5124 15.2603 20.2405 14.9884L19.276 15.9529ZM15.418 16.4976H18.8283V15.1336H15.418V16.4976ZM19.5103 15.8156C19.5103 14.8784 18.7566 14.1304 17.8287 14.1196L17.8128 15.4835C18.0029 15.4857 18.1463 15.6347 18.1463 15.8156H19.5103ZM17.8207 14.1196C16.8851 14.1196 16.1247 14.8799 16.1247 15.8156H17.4887C17.4887 15.6332 17.6384 15.4836 17.8207 15.4836V14.1196ZM16.8067 15.1336H15.418V16.4976H16.8067V15.1336Z" fill="#3A1F16" mask="url(#path-12-outside-1_760_10337)"/>
<path d="M20.2346 26.2537L20.6188 25.9976L15.24 26.2537L14.9838 25.9976" stroke="#3A1F16" stroke-width="0.256134"/>
<path d="M49.1129 11.864C48.4763 11.864 47.9003 12.0004 47.3849 12.2733C46.8695 12.5461 46.4299 12.9402 46.0661 13.4556C45.7175 13.971 45.4522 14.5925 45.2703 15.3201C45.0884 16.0477 44.9974 16.8663 44.9974 17.7758C44.9974 19.0036 45.149 20.0571 45.4522 20.9363C45.7554 21.8003 46.2177 22.4673 46.8392 22.9372C47.4607 23.4071 48.2413 23.6421 49.1811 23.6421C49.833 23.6421 50.4696 23.5739 51.0911 23.4374C51.7126 23.2858 52.3417 23.0888 52.9783 22.8462V25.3246C52.3568 25.5975 51.7126 25.7946 51.0456 25.9158C50.3938 26.0371 49.6586 26.0977 48.8401 26.0977C47.2485 26.0977 45.9373 25.7567 44.9065 25.0745C43.8757 24.3772 43.1026 23.4071 42.5873 22.1641C42.087 20.906 41.8369 19.4356 41.8369 17.753C41.8369 16.5252 41.9961 15.4035 42.3144 14.3879C42.6327 13.3723 43.1026 12.4931 43.7241 11.7503C44.3456 11.0076 45.1111 10.4315 46.0206 10.0223C46.9301 9.61299 47.9685 9.40835 49.1357 9.40835C49.9087 9.40835 50.6894 9.50688 51.4776 9.70394C52.281 9.88584 52.9859 10.1435 53.5922 10.477L52.569 12.8645C52.0385 12.6068 51.4852 12.3794 50.9092 12.1823C50.3483 11.9701 49.7496 11.864 49.1129 11.864Z" fill="#181818"/>
<path d="M62.006 13.3192C62.2182 13.3192 62.438 13.3268 62.6654 13.3419C62.8928 13.3571 63.0822 13.3874 63.2338 13.4329L62.961 16.0932C62.8094 16.0629 62.6275 16.0401 62.4153 16.025C62.2182 15.9947 62.006 15.9795 61.7786 15.9795C61.3997 15.9795 61.0283 16.0553 60.6645 16.2069C60.3007 16.3433 59.9748 16.5555 59.6868 16.8435C59.3988 17.1164 59.1638 17.4726 58.9819 17.9122C58.8152 18.3518 58.7318 18.8748 58.7318 19.4811V25.8703H55.7077V13.5466H58.0269L58.4362 15.6839H58.5954C58.8227 15.2443 59.1032 14.8502 59.4367 14.5016C59.7853 14.1378 60.1718 13.8498 60.5963 13.6375C61.0359 13.4253 61.5058 13.3192 62.006 13.3192Z" fill="#181818"/>
<path d="M63.3793 13.5466H66.608L68.8136 20.5043C68.9197 20.7923 69.003 21.0803 69.0637 21.3683C69.1395 21.6563 69.2001 21.9443 69.2456 22.2323C69.3062 22.5203 69.3517 22.8084 69.382 23.0964H69.4502C69.5108 22.7174 69.5866 22.3005 69.6776 21.8458C69.7837 21.391 69.905 20.9439 70.0414 20.5043L72.2015 13.5466H75.3847L70.4961 27.4847C70.2081 28.3033 69.8443 29.0005 69.4047 29.5766C68.9803 30.1526 68.4573 30.5846 67.8358 30.8726C67.2295 31.1758 66.5019 31.3274 65.653 31.3274C65.3044 31.3274 64.9937 31.3046 64.7208 31.2591C64.4631 31.2288 64.2357 31.1909 64.0387 31.1455V28.8717C64.1903 28.902 64.3797 28.9323 64.6071 28.9627C64.8345 28.993 65.0694 29.0081 65.312 29.0081C65.7516 29.0081 66.1229 28.9096 66.4261 28.7125C66.7444 28.5306 67.0097 28.2729 67.2219 27.9395C67.4341 27.6211 67.5933 27.2498 67.6994 26.8253L68.0177 25.8249L63.3793 13.5466Z" fill="#181818"/>
<path d="M83.2007 13.3192C84.5347 13.3192 85.6033 13.8573 86.4067 14.9336C87.2253 15.9947 87.6346 17.5787 87.6346 19.6857C87.6346 21.0803 87.4451 22.2551 87.0661 23.21C86.6872 24.165 86.1566 24.885 85.4745 25.3701C84.7924 25.8552 84.0041 26.0977 83.1098 26.0977C82.5489 26.0977 82.0563 26.0219 81.6318 25.8703C81.2226 25.7036 80.8739 25.499 80.5859 25.2564C80.2979 24.9987 80.0554 24.7259 79.8583 24.4379H79.6991C79.7446 24.7107 79.7825 25.0215 79.8128 25.3701C79.8432 25.7036 79.8583 26.0219 79.8583 26.3251V31.3274H76.8342V13.5466H79.2899L79.6991 15.1837H79.8583C80.0705 14.835 80.3206 14.5243 80.6086 14.2514C80.9118 13.9634 81.2756 13.7361 81.7001 13.5693C82.1245 13.4026 82.6247 13.3192 83.2007 13.3192ZM82.2458 15.6384C81.6697 15.6384 81.1998 15.7749 80.836 16.0477C80.4874 16.3054 80.2373 16.7071 80.0857 17.2528C79.9341 17.7985 79.8583 18.4806 79.8583 19.2992V19.663C79.8583 20.5422 79.9265 21.2849 80.0629 21.8913C80.2145 22.4976 80.4646 22.9599 80.8133 23.2783C81.1771 23.5966 81.6697 23.7558 82.2912 23.7558C82.8066 23.7558 83.231 23.589 83.5645 23.2555C83.898 22.922 84.1481 22.4521 84.3149 21.8458C84.4816 21.2243 84.565 20.4891 84.565 19.6403C84.565 18.3669 84.3679 17.3817 83.9738 16.6844C83.5948 15.9871 83.0188 15.6384 82.2458 15.6384Z" fill="#181818"/>
<path d="M94.9157 23.8012C95.2492 23.8012 95.5675 23.7709 95.8707 23.7103C96.189 23.6345 96.4846 23.5511 96.7574 23.4602V25.5975C96.4391 25.7339 96.0526 25.8476 95.5978 25.9386C95.1431 26.0447 94.6353 26.0977 94.0744 26.0977C93.3771 26.0977 92.7556 25.984 92.2099 25.7567C91.6642 25.5141 91.2322 25.1048 90.9139 24.5288C90.6107 23.9528 90.4591 23.1494 90.4591 22.1186V15.7067H88.913V14.4561L90.641 13.4556L91.5505 10.8408H93.4605V13.5466H96.6438V15.7067H93.4605V22.0959C93.4605 22.6719 93.5893 23.1039 93.847 23.3919C94.1199 23.6648 94.4761 23.8012 94.9157 23.8012Z" fill="#181818"/>
<path d="M101.829 13.5466V25.8703H98.8272V13.5466H101.829ZM100.351 8.79443C100.79 8.79443 101.169 8.90812 101.488 9.1355C101.806 9.34771 101.965 9.73425 101.965 10.2951C101.965 10.8408 101.806 11.2349 101.488 11.4775C101.169 11.7048 100.79 11.8185 100.351 11.8185C99.8808 11.8185 99.4866 11.7048 99.1683 11.4775C98.85 11.2349 98.6908 10.8408 98.6908 10.2951C98.6908 9.73425 98.85 9.34771 99.1683 9.1355C99.4866 8.90812 99.8808 8.79443 100.351 8.79443Z" fill="#181818"/>
<path d="M109.827 26.0977C108.69 26.0977 107.705 25.8779 106.871 25.4383C106.053 24.9836 105.416 24.2939 104.961 23.3692C104.522 22.4294 104.302 21.2319 104.302 19.7767C104.302 18.2608 104.544 17.033 105.029 16.0932C105.53 15.1382 106.212 14.4409 107.076 14.0013C107.955 13.5466 108.948 13.3192 110.054 13.3192C110.752 13.3192 111.404 13.395 112.01 13.5466C112.631 13.6982 113.147 13.8801 113.556 14.0923L112.647 16.2978C112.237 16.1311 111.828 15.9871 111.419 15.8658C111.009 15.7445 110.6 15.6839 110.191 15.6839C109.569 15.6839 109.054 15.8355 108.645 16.1387C108.235 16.4418 107.917 16.8966 107.69 17.5029C107.478 18.0941 107.371 18.8444 107.371 19.7539C107.371 20.6331 107.478 21.3683 107.69 21.9595C107.917 22.5507 108.235 22.9978 108.645 23.301C109.054 23.589 109.554 23.733 110.145 23.733C110.737 23.733 111.282 23.6496 111.782 23.4829C112.298 23.3162 112.783 23.0888 113.238 22.8008V25.2792C112.768 25.5672 112.268 25.7718 111.737 25.8931C111.206 26.0295 110.57 26.0977 109.827 26.0977Z" fill="#181818"/>
<path d="M133.667 25.8703H130.597V18.6625H124.321V25.8703H121.275V9.63572H124.321V16.1841H130.597V9.63572H133.667V25.8703Z" fill="#181818"/>
<path d="M147.567 13.5466V25.8703H145.247L144.861 24.2787H144.702C144.459 24.7031 144.148 25.0518 143.769 25.3246C143.39 25.5823 142.974 25.7718 142.519 25.8931C142.064 26.0295 141.594 26.0977 141.109 26.0977C140.26 26.0977 139.525 25.9386 138.904 25.6202C138.282 25.3019 137.797 24.8168 137.448 24.165C137.115 23.4981 136.948 22.6416 136.948 21.5957V13.5466H139.972V21.0272C139.972 21.9367 140.124 22.6265 140.427 23.0964C140.745 23.5511 141.245 23.7785 141.928 23.7785C142.61 23.7785 143.14 23.6193 143.519 23.301C143.913 22.9675 144.186 22.49 144.338 21.8685C144.489 21.247 144.565 20.4815 144.565 19.572V13.5466H147.567Z" fill="#181818"/>
<path d="M157.157 13.3192C158.446 13.3192 159.461 13.6754 160.204 14.3879C160.947 15.1003 161.318 16.2524 161.318 17.844V25.8703H158.294V18.4124C158.294 17.4878 158.135 16.7981 157.817 16.3433C157.498 15.8734 156.998 15.6384 156.316 15.6384C155.3 15.6384 154.611 16.0022 154.247 16.7298C153.883 17.4423 153.701 18.4806 153.701 19.8449V25.8703H150.677V13.5466H152.996L153.428 15.161H153.542C153.815 14.7365 154.133 14.3879 154.497 14.115C154.861 13.8422 155.27 13.6451 155.725 13.5238C156.18 13.3874 156.657 13.3192 157.157 13.3192Z" fill="#181818"/>
<path d="M169.158 23.8012C169.492 23.8012 169.81 23.7709 170.113 23.7103C170.432 23.6345 170.727 23.5511 171 23.4602V25.5975C170.682 25.7339 170.295 25.8476 169.84 25.9386C169.386 26.0447 168.878 26.0977 168.317 26.0977C167.62 26.0977 166.998 25.984 166.453 25.7567C165.907 25.5141 165.475 25.1048 165.156 24.5288C164.853 23.9528 164.702 23.1494 164.702 22.1186V15.7067H163.156V14.4561L164.884 13.4556L165.793 10.8408H167.703V13.5466H170.886V15.7067H167.703V22.0959C167.703 22.6719 167.832 23.1039 168.09 23.3919C168.362 23.6648 168.719 23.8012 169.158 23.8012Z" fill="#181818"/>
</svg>
