<svg width="171" height="36" viewBox="0 0 171 36" fill="none" xmlns="http://www.w3.org/2000/svg">
<path d="M34.9434 17.6876C34.9434 27.2178 27.2179 34.9434 17.6871 34.9434C8.15719 34.9434 0.431641 27.2178 0.431641 17.6876C0.431641 8.15769 8.15719 0.431206 17.6871 0.431206C27.2179 0.431206 34.9434 8.15769 34.9434 17.6876Z" fill="#FAB80A"/>
<path d="M31.3373 17.6878C31.3373 25.2258 25.2262 31.3369 17.6877 31.3369C10.1493 31.3369 4.03821 25.2258 4.03821 17.6878C4.03821 10.1494 10.1493 4.03833 17.6877 4.03833C25.2262 4.03833 31.3373 10.1494 31.3373 17.6878Z" fill="#F79011"/>
<path d="M16.2508 24.2686C16.0126 24.2686 15.8192 24.462 15.8192 24.7002V26.5586C15.8192 26.7969 16.0126 26.9902 16.2508 26.9902C16.489 26.9902 16.6824 26.7969 16.6824 26.5586V24.7002C16.6824 24.462 16.489 24.2686 16.2508 24.2686Z" fill="#F79011"/>
<path d="M19.1252 24.2686C18.887 24.2686 18.6936 24.462 18.6936 24.7002V26.5586C18.6936 26.7969 18.887 26.9902 19.1252 26.9902C19.3634 26.9902 19.5568 26.7969 19.5568 26.5586V24.7002C19.5568 24.462 19.3634 24.2686 19.1252 24.2686Z" fill="#F79011"/>
<path d="M18.8136 22.2227H16.5624V21.2723C16.5624 20.6508 17.0665 20.1467 17.688 20.1467C18.3095 20.1467 18.8136 20.6508 18.8136 21.2723V22.2227Z" fill="#F79011"/>
<path d="M5.8079 5.17308C5.59895 5.37074 5.3947 5.57404 5.19611 5.78205C5.19611 5.78299 5.19704 5.78393 5.19704 5.78393L6.36322 6.94917C6.44699 7.03387 6.55712 7.07623 6.66818 7.07623C6.7783 7.07623 6.88937 7.03387 6.97408 6.94917C7.14161 6.78069 7.14161 6.50773 6.97408 6.33925L5.8079 5.17308ZM6.36322 28.378L5.19704 29.5433C5.18951 29.5518 5.18293 29.5614 5.1754 29.57C5.37117 29.7772 5.57354 29.9792 5.77966 30.1768C5.78908 30.1683 5.79849 30.1621 5.8079 30.1535L6.97408 28.9882C7.14161 28.819 7.14161 28.5463 6.97408 28.378C6.80466 28.2088 6.5317 28.2088 6.36322 28.378ZM17.6871 32.8156C17.4489 32.8156 17.256 33.009 17.256 33.2472V34.895C17.256 34.9097 17.2588 34.9235 17.2597 34.9382C17.4019 34.9416 17.544 34.9434 17.6871 34.9434C17.8301 34.9434 17.9722 34.9416 18.1144 34.9382C18.1163 34.9235 18.1191 34.9097 18.1191 34.895V33.2472C18.1191 33.009 17.9261 32.8156 17.6871 32.8156ZM29.0118 28.378C28.8434 28.2088 28.5695 28.2088 28.401 28.378C28.2334 28.5463 28.2334 28.819 28.401 28.9882L29.5662 30.1535C29.5766 30.1621 29.586 30.1683 29.5954 30.1768C29.8015 29.9792 30.0029 29.7772 30.1997 29.57C30.1912 29.5614 30.1855 29.5518 30.1771 29.5433L29.0118 28.378ZM34.9378 17.2339C34.9312 17.2339 34.9255 17.232 34.9189 17.232H33.2718C33.0327 17.232 32.8398 17.425 32.8398 17.6631C32.8398 17.9022 33.0327 18.0951 33.2718 18.0951H34.9189C34.9265 18.0951 34.9321 18.0932 34.9378 18.0932C34.9415 17.9586 34.9434 17.8231 34.9434 17.6876C34.9434 17.536 34.9415 17.3845 34.9378 17.2339ZM2.10326 17.232H0.456118C0.449529 17.232 0.443882 17.2339 0.437293 17.2339C0.433529 17.3845 0.431641 17.536 0.431641 17.6876C0.431641 17.8231 0.433523 17.9586 0.436347 18.0932C0.442935 18.0932 0.448588 18.0951 0.456118 18.0951H2.10326C2.34138 18.0951 2.53527 17.9022 2.53527 17.6631C2.53527 17.425 2.34138 17.232 2.10326 17.232ZM17.256 0.436848V2.08023C17.256 2.31836 17.4489 2.5113 17.6871 2.5113C17.9261 2.5113 18.1191 2.31836 18.1191 2.08023V0.436848C17.976 0.434025 17.832 0.431206 17.6871 0.431206C17.543 0.431206 17.399 0.434025 17.256 0.436848ZM28.7069 7.07623C28.817 7.07623 28.9281 7.03387 29.0118 6.94917L30.1771 5.78393C30.178 5.78299 30.178 5.78299 30.1789 5.78205C29.9804 5.57404 29.7761 5.37074 29.5672 5.17308C29.5672 5.17308 29.5672 5.17308 29.5662 5.17308L28.401 6.33925C28.2334 6.50773 28.2334 6.78069 28.401 6.94917C28.4857 7.03387 28.5968 7.07623 28.7069 7.07623Z" fill="#F79011"/>
<path d="M34.0395 23.3369C33.8121 23.2571 33.5579 23.3668 33.4738 23.5819C33.3917 23.7907 33.3037 24.0012 33.213 24.2073C33.1184 24.4189 33.2244 24.6621 33.448 24.7507C33.5035 24.7727 33.5618 24.7832 33.6181 24.7832C33.7901 24.7832 33.9535 24.6873 34.0233 24.5283C34.1207 24.3114 34.2125 24.0902 34.2994 23.8706C34.3835 23.6556 34.2669 23.4166 34.0395 23.3369Z" fill="#3A1F16"/>
<path d="M30.186 5.18329C30.1822 5.18046 30.1803 5.17668 30.1784 5.17385C30.1737 5.17007 30.1699 5.16725 30.1652 5.16347C26.9645 1.97413 22.5529 0.000495911 17.6882 0.000495911C12.8225 0.000495911 8.41084 1.97413 5.21017 5.16347C5.2064 5.16725 5.20168 5.17007 5.1979 5.17385C5.19507 5.17668 5.19225 5.18046 5.18941 5.18329C1.98591 8.38679 0 12.8098 0 17.6877C0 27.4405 7.93419 35.375 17.6882 35.375C23.6336 35.375 29.1477 32.4133 32.438 27.4523C32.5702 27.2537 32.5154 26.9859 32.3172 26.8542C32.119 26.7222 31.85 26.7766 31.7188 26.9752C31.1733 27.7979 30.5626 28.5609 29.8971 29.2627L29.0118 28.378C28.8438 28.2088 28.571 28.2088 28.4021 28.378C28.2331 28.5463 28.2331 28.8191 28.4021 28.9882L29.2883 29.8747C26.2953 32.7267 22.3339 34.3978 18.1195 34.5048V33.2472C18.1195 33.009 17.926 32.8156 17.6882 32.8156C17.4494 32.8156 17.2559 33.009 17.2559 33.2472V34.5065C12.9367 34.397 9.01587 32.6517 6.09364 29.8678L6.97427 28.9882C7.14228 28.8191 7.14228 28.5463 6.97427 28.378C6.80438 28.2088 6.5316 28.2088 6.36359 28.378L5.4839 29.2567C2.70891 26.3311 0.971244 22.412 0.868362 18.0954H2.10389C2.34175 18.0954 2.53525 17.902 2.53525 17.6632C2.53525 17.4253 2.34175 17.2318 2.10389 17.2318H0.869312C0.985408 12.9221 2.72873 9.01069 5.50749 6.09318L6.36359 6.94927C6.44759 7.03327 6.55802 7.07575 6.66846 7.07575C6.77889 7.07575 6.88933 7.03327 6.97427 6.94927C7.14228 6.78126 7.14228 6.50754 6.97427 6.33859L6.11818 5.48344C9.03852 2.71412 12.949 0.977398 17.2559 0.868855V2.07984C17.2559 2.3177 17.4494 2.51119 17.6882 2.51119C17.926 2.51119 18.1195 2.3177 18.1195 2.07984V0.868855C22.4264 0.977398 26.3369 2.71412 29.2572 5.48344L28.4021 6.33859C28.2331 6.50754 28.2331 6.78126 28.4021 6.94927C28.4861 7.03327 28.5965 7.07575 28.7069 7.07575C28.8174 7.07575 28.9278 7.03327 29.0118 6.94927L29.8679 6.09318C32.6466 9.01069 34.3909 12.9221 34.5061 17.2318H33.2715C33.0327 17.2318 32.8401 17.4253 32.8401 17.6632C32.8401 17.902 33.0327 18.0954 33.2715 18.0954H34.507C34.4853 19.0186 34.3881 19.9407 34.2172 20.8407C34.1729 21.0748 34.3267 21.3007 34.5608 21.345C34.7949 21.3894 35.0205 21.2356 35.0658 21.0014C35.2706 19.9163 35.3754 18.8015 35.3754 17.6877C35.3754 12.8098 33.3904 8.38679 30.186 5.18329Z" fill="#3A1F16"/>
<path d="M17.6877 30.9045C10.3994 30.9045 4.46981 24.9749 4.46981 17.6862C4.46981 10.398 10.3994 4.46927 17.6877 4.46927C24.9759 4.46927 30.9065 10.398 30.9065 17.6862C30.9065 24.9749 24.9759 30.9045 17.6877 30.9045ZM17.6877 3.6056C9.92379 3.6056 3.60706 9.92233 3.60706 17.6862C3.60706 25.4509 9.92379 31.7676 17.6877 31.7676C25.4525 31.7676 31.7692 25.4509 31.7692 17.6862C31.7692 9.92233 25.4525 3.6056 17.6877 3.6056Z" fill="#3A1F16"/>
<path d="M34.9367 17.801C34.9367 27.2618 27.2104 34.9364 17.6732 34.9364C8.1361 34.9364 0.409814 27.2618 0.409814 17.801C0.409814 8.34024 8.1361 0.665674 17.6732 0.665674C27.2104 0.665674 34.9367 8.34024 34.9367 17.801Z" stroke="#3A1F16" stroke-width="0.819628"/>
<path d="M14.3626 15.2765C14.7109 15.2765 15.0448 15.1381 15.2911 14.8919C15.5373 14.6457 15.6757 14.3117 15.6757 13.9634C15.6757 13.6152 15.5373 13.2812 15.2911 13.035C15.0448 12.7887 14.7109 12.6504 14.3626 12.6504C14.0144 12.6504 13.6804 12.7887 13.4341 13.035C13.1879 13.2812 13.0496 13.6152 13.0496 13.9634C13.0496 14.3117 13.1879 14.6457 13.4341 14.8919C13.6804 15.1381 14.0144 15.2765 14.3626 15.2765ZM22.5789 13.9634C22.5789 14.3117 22.4406 14.6457 22.1943 14.8919C21.9481 15.1381 21.6141 15.2765 21.2659 15.2765C20.9176 15.2765 20.5836 15.1381 20.3374 14.8919C20.0912 14.6457 19.9528 14.3117 19.9528 13.9634C19.9528 13.6152 20.0912 13.2812 20.3374 13.035C20.5836 12.7887 20.9176 12.6504 21.2659 12.6504C21.6141 12.6504 21.9481 12.7887 22.1943 13.035C22.4406 13.2812 22.5789 13.6152 22.5789 13.9634Z" fill="#F79011"/>
<mask id="path-12-outside-1_760_10364" maskUnits="userSpaceOnUse" x="9.50146" y="7.96484" width="17" height="21" fill="black">
<rect fill="white" x="9.50146" y="7.96484" width="17" height="21"/>
<path d="M24.789 8.96484C24.789 9.73187 24.503 10.4209 24.035 10.9539C24.62 11.6299 24.9775 12.5075 24.9775 13.463C24.9775 14.479 24.7578 15.2668 24.3632 15.8765C24.7292 16.7411 24.932 17.6914 24.932 18.6892C24.932 21.3458 23.4961 23.6671 21.3588 24.919C21.6773 25.4299 21.8905 26.0137 21.9679 26.639C22.0283 27.1272 21.624 27.4905 21.1879 27.4905H14.3431C13.9069 27.4905 13.5026 27.1272 13.5631 26.639C13.6385 26.0306 13.8426 25.4625 14.1481 24.9619C13.0403 24.3318 12.1192 23.4193 11.4786 22.3175C10.838 21.2156 10.5009 19.9637 10.5015 18.6892C10.5015 17.6557 10.7186 16.6728 11.1105 15.7836C10.7517 15.1875 10.5535 14.4283 10.5535 13.463C10.5535 12.5075 10.911 11.6299 11.496 10.9539C11.0107 10.4049 10.7426 9.69759 10.742 8.96484H14.4081C15.1166 8.96484 15.7667 9.21185 16.2802 9.62137H19.2443C19.7578 9.21185 20.4078 8.96484 21.1164 8.96484H24.789ZM14.7286 25.2583C14.4556 25.6926 14.2736 26.1879 14.2086 26.7189C14.2065 26.7331 14.2077 26.7475 14.2122 26.7611C14.2168 26.7746 14.2244 26.7869 14.2346 26.7969C14.2488 26.8111 14.2657 26.8223 14.2844 26.8298C14.303 26.8373 14.323 26.8409 14.3431 26.8405H21.1879C21.2078 26.8408 21.2277 26.8371 21.2462 26.8297C21.2648 26.8222 21.2816 26.8111 21.2958 26.7969C21.3061 26.787 21.314 26.7748 21.3188 26.7612C21.3235 26.7477 21.325 26.7332 21.3231 26.7189C21.2573 26.186 21.0722 25.6748 20.7816 25.2232C20.2616 25.4676 19.7071 25.6516 19.1286 25.7667C18.6771 25.946 18.196 26.039 17.7102 26.041C17.2156 26.041 16.7352 25.9415 16.2782 25.7615C15.7374 25.6516 15.2187 25.482 14.7286 25.2583ZM17.5217 17.9105C15.4839 17.9105 13.645 17.7402 12.3677 16.9874C12.1903 17.5086 12.1 18.0555 12.1005 18.606C12.1005 21.5246 14.6096 25.2154 17.7102 25.2154C20.8108 25.2154 23.3199 21.5246 23.3199 18.606C23.3199 18.0613 23.2328 17.5354 23.071 17.0407C21.7989 17.748 19.9983 17.9105 18.0092 17.9105H17.5217ZM14.3626 16.0956C14.9281 16.0956 15.4704 15.871 15.8702 15.4711C16.2701 15.0713 16.4947 14.529 16.4947 13.9635C16.4947 13.3981 16.2701 12.8558 15.8702 12.4559C15.4704 12.0561 14.9281 11.8314 14.3626 11.8314C13.7971 11.8314 13.2548 12.0561 12.855 12.4559C12.4552 12.8558 12.2305 13.3981 12.2305 13.9635C12.2305 14.529 12.4552 15.0713 12.855 15.4711C13.2548 15.871 13.7971 16.0956 14.3626 16.0956ZM21.2659 16.0956C21.8313 16.0956 22.3736 15.871 22.7735 15.4711C23.1733 15.0713 23.3979 14.529 23.3979 13.9635C23.3979 13.3981 23.1733 12.8558 22.7735 12.4559C22.3736 12.0561 21.8313 11.8314 21.2659 11.8314C20.7004 11.8314 20.1581 12.0561 19.7583 12.4559C19.3584 12.8558 19.1338 13.3981 19.1338 13.9635C19.1338 14.529 19.3584 15.0713 19.7583 15.4711C20.1581 15.871 20.7004 16.0956 21.2659 16.0956ZM15.418 15.8161H18.8283C18.8283 15.2571 18.3798 14.8086 17.8207 14.8021C17.2617 14.8021 16.8067 15.2571 16.8067 15.8161H15.418Z"/>
</mask>
<path d="M24.789 8.96484C24.789 9.73187 24.503 10.4209 24.035 10.9539C24.62 11.6299 24.9775 12.5075 24.9775 13.463C24.9775 14.479 24.7578 15.2668 24.3632 15.8765C24.7292 16.7411 24.932 17.6914 24.932 18.6892C24.932 21.3458 23.4961 23.6671 21.3588 24.919C21.6773 25.4299 21.8905 26.0137 21.9679 26.639C22.0283 27.1272 21.624 27.4905 21.1879 27.4905H14.3431C13.9069 27.4905 13.5026 27.1272 13.5631 26.639C13.6385 26.0306 13.8426 25.4625 14.1481 24.9619C13.0403 24.3318 12.1192 23.4193 11.4786 22.3175C10.838 21.2156 10.5009 19.9637 10.5015 18.6892C10.5015 17.6557 10.7186 16.6728 11.1105 15.7836C10.7517 15.1875 10.5535 14.4283 10.5535 13.463C10.5535 12.5075 10.911 11.6299 11.496 10.9539C11.0107 10.4049 10.7426 9.69759 10.742 8.96484H14.4081C15.1166 8.96484 15.7667 9.21185 16.2802 9.62137H19.2443C19.7578 9.21185 20.4078 8.96484 21.1164 8.96484H24.789ZM14.7286 25.2583C14.4556 25.6926 14.2736 26.1879 14.2086 26.7189C14.2065 26.7331 14.2077 26.7475 14.2122 26.7611C14.2168 26.7746 14.2244 26.7869 14.2346 26.7969C14.2488 26.8111 14.2657 26.8223 14.2844 26.8298C14.303 26.8373 14.323 26.8409 14.3431 26.8405H21.1879C21.2078 26.8408 21.2277 26.8371 21.2462 26.8297C21.2648 26.8222 21.2816 26.8111 21.2958 26.7969C21.3061 26.787 21.314 26.7748 21.3188 26.7612C21.3235 26.7477 21.325 26.7332 21.3231 26.7189C21.2573 26.186 21.0722 25.6748 20.7816 25.2232C20.2616 25.4676 19.7071 25.6516 19.1286 25.7667C18.6771 25.946 18.196 26.039 17.7102 26.041C17.2156 26.041 16.7352 25.9415 16.2782 25.7615C15.7374 25.6516 15.2187 25.482 14.7286 25.2583ZM17.5217 17.9105C15.4839 17.9105 13.645 17.7402 12.3677 16.9874C12.1903 17.5086 12.1 18.0555 12.1005 18.606C12.1005 21.5246 14.6096 25.2154 17.7102 25.2154C20.8108 25.2154 23.3199 21.5246 23.3199 18.606C23.3199 18.0613 23.2328 17.5354 23.071 17.0407C21.7989 17.748 19.9983 17.9105 18.0092 17.9105H17.5217ZM14.3626 16.0956C14.9281 16.0956 15.4704 15.871 15.8702 15.4711C16.2701 15.0713 16.4947 14.529 16.4947 13.9635C16.4947 13.3981 16.2701 12.8558 15.8702 12.4559C15.4704 12.0561 14.9281 11.8314 14.3626 11.8314C13.7971 11.8314 13.2548 12.0561 12.855 12.4559C12.4552 12.8558 12.2305 13.3981 12.2305 13.9635C12.2305 14.529 12.4552 15.0713 12.855 15.4711C13.2548 15.871 13.7971 16.0956 14.3626 16.0956ZM21.2659 16.0956C21.8313 16.0956 22.3736 15.871 22.7735 15.4711C23.1733 15.0713 23.3979 14.529 23.3979 13.9635C23.3979 13.3981 23.1733 12.8558 22.7735 12.4559C22.3736 12.0561 21.8313 11.8314 21.2659 11.8314C20.7004 11.8314 20.1581 12.0561 19.7583 12.4559C19.3584 12.8558 19.1338 13.3981 19.1338 13.9635C19.1338 14.529 19.3584 15.0713 19.7583 15.4711C20.1581 15.871 20.7004 16.0956 21.2659 16.0956ZM15.418 15.8161H18.8283C18.8283 15.2571 18.3798 14.8086 17.8207 14.8021C17.2617 14.8021 16.8067 15.2571 16.8067 15.8161H15.418Z" fill="#FCF3C5"/>
<path d="M24.789 8.96484H25.471V8.28285H24.789V8.96484ZM24.035 10.9539L23.5225 10.5039L23.1302 10.9507L23.5193 11.4002L24.035 10.9539ZM24.3632 15.8765L23.7907 15.506L23.5943 15.8095L23.7352 16.1424L24.3632 15.8765ZM21.3588 24.919L21.0141 24.3306L20.4092 24.6849L20.7801 25.2798L21.3588 24.919ZM21.9679 26.639L21.2911 26.7227L21.2911 26.7228L21.9679 26.639ZM13.5631 26.639L12.8863 26.5551L12.8863 26.5552L13.5631 26.639ZM14.1481 24.9619L14.7302 25.3173L15.0967 24.7169L14.4853 24.3691L14.1481 24.9619ZM10.5015 18.6892L11.1835 18.6895V18.6892H10.5015ZM11.1105 15.7836L11.7346 16.0587L11.8773 15.735L11.6948 15.4319L11.1105 15.7836ZM11.496 10.9539L12.0117 11.4002L12.402 10.9492L12.007 10.5022L11.496 10.9539ZM10.742 8.96484V8.28285H10.0594L10.06 8.9654L10.742 8.96484ZM16.2802 9.62137L15.855 10.1546L16.0415 10.3034H16.2802V9.62137ZM19.2443 9.62137V10.3034H19.4829L19.6695 10.1546L19.2443 9.62137ZM14.7286 25.2583L15.0116 24.6379L14.4688 24.3902L14.1512 24.8953L14.7286 25.2583ZM14.2086 26.7189L14.8832 26.8188L14.8844 26.8103L14.8855 26.8018L14.2086 26.7189ZM14.2346 26.7969L14.7159 26.3138L14.7143 26.3123L14.2346 26.7969ZM14.3431 26.8405V26.1584L14.3292 26.1587L14.3431 26.8405ZM21.1879 26.8405L21.1988 26.1585H21.1879V26.8405ZM21.2958 26.7969L20.8244 26.3038L20.8145 26.3137L21.2958 26.7969ZM21.3231 26.7189L20.6462 26.8025L20.6472 26.8105L21.3231 26.7189ZM20.7816 25.2232L21.3551 24.8541L21.0319 24.352L20.4915 24.606L20.7816 25.2232ZM19.1286 25.7667L18.9956 25.0978L18.9346 25.1099L18.8768 25.1328L19.1286 25.7667ZM17.7102 26.041V26.723L17.7129 26.723L17.7102 26.041ZM16.2782 25.7615L16.5282 25.1269L16.4726 25.105L16.414 25.0931L16.2782 25.7615ZM12.3677 16.9874L12.7139 16.3999L11.992 15.9745L11.7221 16.7677L12.3677 16.9874ZM12.1005 18.606H12.7825L12.7825 18.6054L12.1005 18.606ZM23.071 17.0407L23.7192 16.8287L23.4621 16.043L22.7396 16.4447L23.071 17.0407ZM14.3626 16.0956V16.7776V16.0956ZM12.2305 13.9635H11.5485H12.2305ZM21.2659 16.0956V16.7776V16.0956ZM23.3979 13.9635H24.0799H23.3979ZM19.1338 13.9635H18.4518H19.1338ZM18.8283 15.8161V16.4981H19.5103V15.8161H18.8283ZM17.8207 14.8021L17.8287 14.1201H17.8207V14.8021ZM16.8067 15.8161V16.4981H17.4887V15.8161H16.8067ZM24.107 8.96484C24.107 9.55655 23.8878 10.0878 23.5225 10.5039L24.5474 11.4039C25.1181 10.7539 25.471 9.9072 25.471 8.96484H24.107ZM23.5193 11.4002C24.0034 11.9596 24.2955 12.6808 24.2955 13.463H25.6595C25.6595 12.3341 25.2366 11.3003 24.5507 10.5076L23.5193 11.4002ZM24.2955 13.463C24.2955 14.3799 24.0981 15.031 23.7907 15.506L24.9358 16.2471C25.4175 15.5026 25.6595 14.5781 25.6595 13.463H24.2955ZM23.7352 16.1424C24.0663 16.9246 24.25 17.7846 24.25 18.6892H25.614C25.614 17.5982 25.3921 16.5576 24.9913 15.6107L23.7352 16.1424ZM24.25 18.6892C24.25 21.0939 22.9511 23.1959 21.0141 24.3306L21.7035 25.5075C24.0411 24.1382 25.614 21.5978 25.614 18.6892H24.25ZM20.7801 25.2798C21.0474 25.7087 21.2262 26.1982 21.2911 26.7227L22.6447 26.5553C22.5549 25.8292 22.3072 25.1512 21.9376 24.5582L20.7801 25.2798ZM21.2911 26.7228C21.2932 26.7403 21.2907 26.7482 21.2897 26.7512C21.2882 26.7554 21.2846 26.7627 21.2758 26.7718C21.2546 26.7934 21.22 26.8085 21.1879 26.8085V28.1725C21.9654 28.1725 22.7636 27.5153 22.6447 26.5552L21.2911 26.7228ZM21.1879 26.8085H14.3431V28.1725H21.1879V26.8085ZM14.3431 26.8085C14.311 26.8085 14.2763 26.7934 14.2552 26.7718C14.2463 26.7627 14.2428 26.7554 14.2413 26.7512C14.2403 26.7482 14.2377 26.7403 14.2399 26.7228L12.8863 26.5552C12.7674 27.5153 13.5656 28.1725 14.3431 28.1725V26.8085ZM14.2399 26.7229C14.3031 26.2128 14.4741 25.7369 14.7302 25.3173L13.566 24.6066C13.2111 25.188 12.9739 25.8484 12.8863 26.5551L14.2399 26.7229ZM14.4853 24.3691C13.4822 23.7986 12.6482 22.9724 12.0682 21.9747L10.889 22.6603C11.5901 23.8663 12.5983 24.865 13.8109 25.5547L14.4853 24.3691ZM12.0682 21.9747C11.4882 20.9771 11.1829 19.8435 11.1835 18.6895L9.81947 18.6889C9.81884 20.0839 10.1879 21.4542 10.889 22.6603L12.0682 21.9747ZM11.1835 18.6892C11.1835 17.752 11.3802 16.8627 11.7346 16.0587L10.4865 15.5085C10.057 16.4829 9.81947 17.5593 9.81947 18.6892H11.1835ZM11.6948 15.4319C11.4139 14.9652 11.2355 14.3346 11.2355 13.463H9.87148C9.87148 14.522 10.0895 15.4098 10.5262 16.1353L11.6948 15.4319ZM11.2355 13.463C11.2355 12.6808 11.5276 11.9596 12.0117 11.4002L10.9803 10.5076C10.2944 11.3003 9.87148 12.3341 9.87148 13.463H11.2355ZM12.007 10.5022C11.6317 10.0777 11.4244 9.53085 11.424 8.96429L10.06 8.9654C10.0607 9.86434 10.3897 10.7321 10.985 11.4056L12.007 10.5022ZM10.742 9.64684H14.4081V8.28285H10.742V9.64684ZM14.4081 9.64684C14.9551 9.64684 15.4566 9.83689 15.855 10.1546L16.7054 9.08816C16.0767 8.58682 15.2782 8.28285 14.4081 8.28285V9.64684ZM16.2802 10.3034H19.2443V8.93938H16.2802V10.3034ZM19.6695 10.1546C20.0679 9.83689 20.5694 9.64684 21.1164 9.64684V8.28285C20.2463 8.28285 19.4477 8.58682 18.8191 9.08816L19.6695 10.1546ZM21.1164 9.64684H24.789V8.28285H21.1164V9.64684ZM14.1512 24.8953C13.8263 25.412 13.6091 26.0026 13.5316 26.6361L14.8855 26.8018C14.938 26.3731 15.0848 25.9731 15.3059 25.6214L14.1512 24.8953ZM13.5339 26.6191C13.5161 26.7391 13.5269 26.8616 13.5652 26.9767L14.8592 26.5454C14.8886 26.6334 14.8968 26.7271 14.8832 26.8188L13.5339 26.6191ZM13.5652 26.9767C13.6036 27.0918 13.6685 27.1963 13.7548 27.2816L14.7143 26.3123C14.7803 26.3775 14.8299 26.4574 14.8592 26.5454L13.5652 26.9767ZM13.7533 27.2801C13.8325 27.359 13.9267 27.4211 14.0305 27.4627L14.5383 26.1968C14.6048 26.2235 14.6651 26.2632 14.7159 26.3138L13.7533 27.2801ZM14.0305 27.4627C14.1342 27.5043 14.2452 27.5246 14.357 27.5224L14.3292 26.1587C14.4008 26.1572 14.4719 26.1702 14.5383 26.1968L14.0305 27.4627ZM14.3431 27.5225H21.1879V26.1585H14.3431V27.5225ZM21.1769 27.5224C21.288 27.5242 21.3984 27.5037 21.5015 27.4621L20.991 26.1972C21.057 26.1706 21.1277 26.1575 21.1988 26.1586L21.1769 27.5224ZM21.5015 27.4621C21.6045 27.4205 21.6982 27.3586 21.777 27.2802L20.8145 26.3137C20.865 26.2635 20.925 26.2239 20.991 26.1972L21.5015 27.4621ZM21.767 27.29C21.8552 27.2056 21.9222 27.1016 21.9625 26.9865L20.6751 26.5359C20.7059 26.4479 20.7571 26.3684 20.8245 26.3039L21.767 27.29ZM21.9625 26.9865C22.0028 26.8714 22.0153 26.7483 21.9989 26.6274L20.6472 26.8105C20.6347 26.718 20.6443 26.6239 20.6751 26.5359L21.9625 26.9865ZM21.9999 26.6354C21.9216 26.0007 21.7012 25.3919 21.3551 24.8541L20.2081 25.5924C20.4433 25.9577 20.593 26.3713 20.6462 26.8025L21.9999 26.6354ZM20.4915 24.606C20.0212 24.8271 19.5194 24.9936 18.9956 25.0978L19.2616 26.4356C19.8948 26.3096 20.502 26.1082 21.0717 25.8405L20.4915 24.606ZM18.8768 25.1328C18.5046 25.2807 18.108 25.3574 17.7075 25.359L17.7129 26.723C18.284 26.7207 18.8496 26.6113 19.3803 26.4005L18.8768 25.1328ZM17.7102 25.359C17.3084 25.359 16.9126 25.2784 16.5282 25.1269L16.0282 26.396C16.5578 26.6046 17.1228 26.723 17.7102 26.723V25.359ZM16.414 25.0931C15.9242 24.9936 15.4549 24.8401 15.0116 24.6379L14.4455 25.8788C14.9825 26.1238 15.5507 26.3096 16.1425 26.4298L16.414 25.0931ZM17.5217 17.2285C15.4798 17.2285 13.8146 17.0485 12.7139 16.3999L12.0214 17.575C13.4754 18.4318 15.488 18.5925 17.5217 18.5925V17.2285ZM11.7221 16.7677C11.5205 17.3598 11.418 17.9811 11.4185 18.6066L12.7825 18.6054C12.7821 18.1298 12.8601 17.6574 13.0133 17.2072L11.7221 16.7677ZM11.4185 18.606C11.4185 20.2417 12.1128 22.0391 13.207 23.4274C14.2996 24.8135 15.8799 25.8974 17.7102 25.8974V24.5334C16.44 24.5334 15.2154 23.7719 14.2783 22.583C13.3428 21.3962 12.7825 19.8889 12.7825 18.606H11.4185ZM17.7102 25.8974C19.5406 25.8974 21.1208 24.8135 22.2134 23.4274C23.3076 22.0391 24.0019 20.2417 24.0019 18.606H22.6379C22.6379 19.8889 22.0777 21.3962 21.1422 22.583C20.2051 23.7719 18.9805 24.5334 17.7102 24.5334V25.8974ZM24.0019 18.606C24.0019 17.9881 23.9031 17.3907 23.7192 16.8287L22.4228 17.2528C22.5626 17.6801 22.6379 18.1344 22.6379 18.606H24.0019ZM22.7396 16.4447C21.6372 17.0576 20 17.2285 18.0092 17.2285V18.5925C19.9967 18.5925 21.9606 18.4384 23.4024 17.6368L22.7396 16.4447ZM18.0092 17.2285H17.5217V18.5925H18.0092V17.2285ZM14.3626 16.7776C15.1089 16.7776 15.8247 16.4811 16.3525 15.9534L15.388 14.9889C15.116 15.2608 14.7472 15.4136 14.3626 15.4136V16.7776ZM16.3525 15.9534C16.8802 15.4256 17.1767 14.7099 17.1767 13.9635H15.8127C15.8127 14.3481 15.6599 14.7169 15.388 14.9889L16.3525 15.9534ZM17.1767 13.9635C17.1767 13.2172 16.8802 12.5014 16.3525 11.9737L15.388 12.9382C15.6599 13.2101 15.8127 13.5789 15.8127 13.9635H17.1767ZM16.3525 11.9737C15.8247 11.4459 15.1089 11.1495 14.3626 11.1495V12.5134C14.7472 12.5134 15.116 12.6662 15.388 12.9382L16.3525 11.9737ZM14.3626 11.1495C13.6163 11.1495 12.9005 11.4459 12.3728 11.9737L13.3372 12.9382C13.6092 12.6662 13.978 12.5134 14.3626 12.5134V11.1495ZM12.3728 11.9737C11.845 12.5014 11.5485 13.2172 11.5485 13.9635H12.9125C12.9125 13.5789 13.0653 13.2101 13.3372 12.9382L12.3728 11.9737ZM11.5485 13.9635C11.5485 14.7099 11.845 15.4256 12.3728 15.9534L13.3372 14.9889C13.0653 14.7169 12.9125 14.3481 12.9125 13.9635H11.5485ZM12.3728 15.9534C12.9005 16.4811 13.6163 16.7776 14.3626 16.7776V15.4136C13.978 15.4136 13.6092 15.2608 13.3372 14.9889L12.3728 15.9534ZM21.2659 16.7776C22.0122 16.7776 22.728 16.4811 23.2557 15.9534L22.2912 14.9889C22.0193 15.2608 21.6504 15.4136 21.2659 15.4136V16.7776ZM23.2557 15.9534C23.7835 15.4256 24.0799 14.7099 24.0799 13.9635H22.7159C22.7159 14.3481 22.5632 14.7169 22.2912 14.9889L23.2557 15.9534ZM24.0799 13.9635C24.0799 13.2172 23.7835 12.5014 23.2557 11.9737L22.2912 12.9382C22.5632 13.2101 22.7159 13.5789 22.7159 13.9635H24.0799ZM23.2557 11.9737C22.728 11.4459 22.0122 11.1495 21.2659 11.1495V12.5134C21.6504 12.5134 22.0193 12.6662 22.2912 12.9382L23.2557 11.9737ZM21.2659 11.1495C20.5195 11.1495 19.8038 11.4459 19.276 11.9737L20.2405 12.9382C20.5124 12.6662 20.8813 12.5134 21.2659 12.5134V11.1495ZM19.276 11.9737C18.7483 12.5014 18.4518 13.2172 18.4518 13.9635H19.8158C19.8158 13.5789 19.9686 13.2101 20.2405 12.9382L19.276 11.9737ZM18.4518 13.9635C18.4518 14.7099 18.7483 15.4256 19.276 15.9534L20.2405 14.9889C19.9686 14.7169 19.8158 14.3481 19.8158 13.9635H18.4518ZM19.276 15.9534C19.8038 16.4811 20.5195 16.7776 21.2659 16.7776V15.4136C20.8813 15.4136 20.5124 15.2608 20.2405 14.9889L19.276 15.9534ZM15.418 16.4981H18.8283V15.1341H15.418V16.4981ZM19.5103 15.8161C19.5103 14.8789 18.7566 14.1309 17.8287 14.1201L17.8128 15.484C18.0029 15.4862 18.1463 15.6352 18.1463 15.8161H19.5103ZM17.8207 14.1201C16.8851 14.1201 16.1247 14.8804 16.1247 15.8161H17.4887C17.4887 15.6337 17.6384 15.4841 17.8207 15.4841V14.1201ZM16.8067 15.1341H15.418V16.4981H16.8067V15.1341Z" fill="#3A1F16" mask="url(#path-12-outside-1_760_10364)"/>
<path d="M20.2346 26.2542L20.6188 25.998L15.24 26.2542L14.9839 25.998" stroke="#3A1F16" stroke-width="0.256134"/>
<path d="M49.1129 11.8645C48.4763 11.8645 47.9003 12.0009 47.3849 12.2738C46.8695 12.5466 46.4299 12.9407 46.0661 13.4561C45.7175 13.9715 45.4522 14.593 45.2703 15.3206C45.0884 16.0482 44.9974 16.8668 44.9974 17.7763C44.9974 19.0041 45.149 20.0576 45.4522 20.9368C45.7554 21.8008 46.2177 22.4678 46.8392 22.9377C47.4607 23.4076 48.2413 23.6426 49.1811 23.6426C49.833 23.6426 50.4696 23.5743 51.0911 23.4379C51.7126 23.2863 52.3417 23.0893 52.9783 22.8467V25.3251C52.3568 25.598 51.7126 25.795 51.0456 25.9163C50.3938 26.0376 49.6586 26.0982 48.8401 26.0982C47.2485 26.0982 45.9373 25.7571 44.9065 25.075C43.8757 24.3777 43.1026 23.4076 42.5873 22.1646C42.087 20.9065 41.8369 19.4361 41.8369 17.7535C41.8369 16.5257 41.9961 15.404 42.3144 14.3884C42.6327 13.3728 43.1026 12.4936 43.7241 11.7508C44.3456 11.008 45.1111 10.432 46.0206 10.0228C46.9301 9.61347 47.9685 9.40884 49.1357 9.40884C49.9087 9.40884 50.6894 9.50737 51.4776 9.70442C52.281 9.88632 52.9859 10.144 53.5922 10.4775L52.569 12.8649C52.0385 12.6073 51.4852 12.3799 50.9092 12.1828C50.3483 11.9706 49.7496 11.8645 49.1129 11.8645Z" fill="#181818"/>
<path d="M62.006 13.3197C62.2182 13.3197 62.438 13.3273 62.6654 13.3424C62.8928 13.3576 63.0822 13.3879 63.2338 13.4334L62.961 16.0937C62.8094 16.0634 62.6275 16.0406 62.4153 16.0255C62.2182 15.9952 62.006 15.98 61.7786 15.98C61.3997 15.98 61.0283 16.0558 60.6645 16.2074C60.3007 16.3438 59.9748 16.556 59.6868 16.844C59.3988 17.1169 59.1638 17.4731 58.9819 17.9127C58.8152 18.3523 58.7318 18.8752 58.7318 19.4816V25.8708H55.7077V13.5471H58.0269L58.4362 15.6844H58.5954C58.8227 15.2448 59.1032 14.8507 59.4367 14.5021C59.7853 14.1382 60.1718 13.8502 60.5963 13.638C61.0359 13.4258 61.5058 13.3197 62.006 13.3197Z" fill="#181818"/>
<path d="M63.3793 13.5471H66.608L68.8136 20.5048C68.9197 20.7928 69.003 21.0808 69.0637 21.3688C69.1395 21.6568 69.2001 21.9448 69.2456 22.2328C69.3062 22.5208 69.3517 22.8088 69.382 23.0968H69.4502C69.5108 22.7179 69.5866 22.301 69.6776 21.8463C69.7837 21.3915 69.905 20.9444 70.0414 20.5048L72.2015 13.5471H75.3847L70.4961 27.4852C70.2081 28.3038 69.8443 29.001 69.4047 29.5771C68.9803 30.1531 68.4573 30.5851 67.8358 30.8731C67.2295 31.1763 66.5019 31.3278 65.653 31.3278C65.3044 31.3278 64.9937 31.3051 64.7208 31.2596C64.4631 31.2293 64.2357 31.1914 64.0387 31.1459V28.8722C64.1903 28.9025 64.3797 28.9328 64.6071 28.9631C64.8345 28.9935 65.0694 29.0086 65.312 29.0086C65.7516 29.0086 66.1229 28.9101 66.4261 28.713C66.7444 28.5311 67.0097 28.2734 67.2219 27.94C67.4341 27.6216 67.5933 27.2502 67.6994 26.8258L68.0177 25.8254L63.3793 13.5471Z" fill="#181818"/>
<path d="M83.2007 13.3197C84.5347 13.3197 85.6033 13.8578 86.4067 14.9341C87.2253 15.9952 87.6346 17.5792 87.6346 19.6862C87.6346 21.0808 87.4451 22.2556 87.0661 23.2105C86.6872 24.1655 86.1566 24.8855 85.4745 25.3706C84.7924 25.8557 84.0041 26.0982 83.1098 26.0982C82.5489 26.0982 82.0563 26.0224 81.6318 25.8708C81.2226 25.7041 80.8739 25.4995 80.5859 25.2569C80.2979 24.9992 80.0554 24.7264 79.8583 24.4384H79.6991C79.7446 24.7112 79.7825 25.022 79.8128 25.3706C79.8432 25.7041 79.8583 26.0224 79.8583 26.3256V31.3278H76.8342V13.5471H79.2899L79.6991 15.1842H79.8583C80.0705 14.8355 80.3206 14.5248 80.6086 14.2519C80.9118 13.9639 81.2756 13.7366 81.7001 13.5698C82.1245 13.4031 82.6247 13.3197 83.2007 13.3197ZM82.2458 15.6389C81.6697 15.6389 81.1998 15.7754 80.836 16.0482C80.4874 16.3059 80.2373 16.7076 80.0857 17.2533C79.9341 17.799 79.8583 18.4811 79.8583 19.2997V19.6635C79.8583 20.5427 79.9265 21.2854 80.0629 21.8918C80.2145 22.4981 80.4646 22.9604 80.8133 23.2787C81.1771 23.5971 81.6697 23.7562 82.2912 23.7562C82.8066 23.7562 83.231 23.5895 83.5645 23.256C83.898 22.9225 84.1481 22.4526 84.3149 21.8463C84.4816 21.2248 84.565 20.4896 84.565 19.6407C84.565 18.3674 84.3679 17.3821 83.9738 16.6849C83.5948 15.9876 83.0188 15.6389 82.2458 15.6389Z" fill="#181818"/>
<path d="M94.9157 23.8017C95.2492 23.8017 95.5675 23.7714 95.8707 23.7108C96.189 23.635 96.4846 23.5516 96.7574 23.4607V25.598C96.4391 25.7344 96.0526 25.8481 95.5978 25.939C95.1431 26.0452 94.6353 26.0982 94.0744 26.0982C93.3771 26.0982 92.7556 25.9845 92.2099 25.7571C91.6642 25.5146 91.2322 25.1053 90.9139 24.5293C90.6107 23.9533 90.4591 23.1499 90.4591 22.1191V15.7071H88.913V14.4566L90.641 13.4561L91.5505 10.8413H93.4605V13.5471H96.6438V15.7071H93.4605V22.0964C93.4605 22.6724 93.5893 23.1044 93.847 23.3924C94.1199 23.6653 94.4761 23.8017 94.9157 23.8017Z" fill="#181818"/>
<path d="M101.829 13.5471V25.8708H98.8272V13.5471H101.829ZM100.351 8.79492C100.79 8.79492 101.169 8.90861 101.488 9.13598C101.806 9.3482 101.965 9.73474 101.965 10.2956C101.965 10.8413 101.806 11.2354 101.488 11.478C101.169 11.7053 100.79 11.819 100.351 11.819C99.8808 11.819 99.4866 11.7053 99.1683 11.478C98.85 11.2354 98.6908 10.8413 98.6908 10.2956C98.6908 9.73474 98.85 9.3482 99.1683 9.13598C99.4866 8.90861 99.8808 8.79492 100.351 8.79492Z" fill="#181818"/>
<path d="M109.827 26.0982C108.69 26.0982 107.705 25.8784 106.871 25.4388C106.053 24.9841 105.416 24.2944 104.961 23.3697C104.522 22.4299 104.302 21.2324 104.302 19.7772C104.302 18.2613 104.544 17.0335 105.029 16.0937C105.53 15.1387 106.212 14.4414 107.076 14.0018C107.955 13.5471 108.948 13.3197 110.054 13.3197C110.752 13.3197 111.404 13.3955 112.01 13.5471C112.631 13.6987 113.147 13.8806 113.556 14.0928L112.647 16.2983C112.237 16.1316 111.828 15.9876 111.419 15.8663C111.009 15.745 110.6 15.6844 110.191 15.6844C109.569 15.6844 109.054 15.836 108.645 16.1392C108.235 16.4423 107.917 16.8971 107.69 17.5034C107.478 18.0946 107.371 18.8449 107.371 19.7544C107.371 20.6336 107.478 21.3688 107.69 21.96C107.917 22.5511 108.235 22.9983 108.645 23.3015C109.054 23.5895 109.554 23.7335 110.145 23.7335C110.737 23.7335 111.282 23.6501 111.782 23.4834C112.298 23.3166 112.783 23.0893 113.238 22.8013V25.2797C112.768 25.5677 112.268 25.7723 111.737 25.8936C111.206 26.03 110.57 26.0982 109.827 26.0982Z" fill="#181818"/>
<path d="M133.667 25.8708H130.597V18.663H124.321V25.8708H121.275V9.63621H124.321V16.1846H130.597V9.63621H133.667V25.8708Z" fill="#181818"/>
<path d="M147.567 13.5471V25.8708H145.247L144.861 24.2792H144.702C144.459 24.7036 144.148 25.0523 143.769 25.3251C143.39 25.5828 142.974 25.7723 142.519 25.8936C142.064 26.03 141.594 26.0982 141.109 26.0982C140.26 26.0982 139.525 25.939 138.904 25.6207C138.282 25.3024 137.797 24.8173 137.448 24.1655C137.115 23.4985 136.948 22.6421 136.948 21.5962V13.5471H139.972V21.0277C139.972 21.9372 140.124 22.6269 140.427 23.0968C140.745 23.5516 141.245 23.779 141.928 23.779C142.61 23.779 143.14 23.6198 143.519 23.3015C143.913 22.968 144.186 22.4905 144.338 21.869C144.489 21.2475 144.565 20.482 144.565 19.5725V13.5471H147.567Z" fill="#181818"/>
<path d="M157.157 13.3197C158.446 13.3197 159.461 13.6759 160.204 14.3884C160.947 15.1008 161.318 16.2528 161.318 17.8445V25.8708H158.294V18.4129C158.294 17.4882 158.135 16.7985 157.817 16.3438C157.498 15.8739 156.998 15.6389 156.316 15.6389C155.3 15.6389 154.611 16.0027 154.247 16.7303C153.883 17.4428 153.701 18.4811 153.701 19.8454V25.8708H150.677V13.5471H152.996L153.428 15.1614H153.542C153.815 14.737 154.133 14.3884 154.497 14.1155C154.861 13.8427 155.27 13.6456 155.725 13.5243C156.18 13.3879 156.657 13.3197 157.157 13.3197Z" fill="#181818"/>
<path d="M169.158 23.8017C169.492 23.8017 169.81 23.7714 170.113 23.7108C170.432 23.635 170.727 23.5516 171 23.4607V25.598C170.682 25.7344 170.295 25.8481 169.84 25.939C169.386 26.0452 168.878 26.0982 168.317 26.0982C167.62 26.0982 166.998 25.9845 166.453 25.7571C165.907 25.5146 165.475 25.1053 165.156 24.5293C164.853 23.9533 164.702 23.1499 164.702 22.1191V15.7071H163.156V14.4566L164.884 13.4561L165.793 10.8413H167.703V13.5471H170.886V15.7071H167.703V22.0964C167.703 22.6724 167.832 23.1044 168.09 23.3924C168.362 23.6653 168.719 23.8017 169.158 23.8017Z" fill="#181818"/>
</svg>
