<svg width="165" height="171" viewBox="0 0 165 171" fill="none" xmlns="http://www.w3.org/2000/svg">
<g clip-path="url(#clip0_1146_4048)">
<rect width="165" height="171" fill="#FFF4EA"/>
<path d="M130.623 161.11C130.623 164.833 106.399 167.852 76.5162 167.852C46.6333 167.852 22.4089 164.833 22.4089 161.11C22.4089 157.387 46.6333 154.368 76.5162 154.368C106.399 154.368 130.623 157.387 130.623 161.11Z" fill="#AFAFAF" fill-opacity="0.35"/>
<path d="M125.905 22.017C115.266 27.3721 103.397 28.7659 92.1589 25.98C88.9521 25.1852 85.7684 24.0546 82.5009 23.9666C82.2766 23.9601 82.0511 23.9612 81.8256 23.9666C81.5997 23.9612 81.3742 23.9601 81.1498 23.9666C77.8823 24.0546 74.6986 25.1852 71.4918 25.98C60.2535 28.7659 48.3844 27.3721 37.7462 22.017C32.5355 46.8927 31.1087 73.0215 33.5662 98.5638C34.6698 110.03 36.7488 121.917 42.6858 130.71C47.1256 137.285 53.4324 141.583 60.0516 143.79C66.6714 145.996 73.6159 146.227 80.4471 145.644C80.9007 145.605 81.3619 145.557 81.8256 145.495C82.2889 145.557 82.75 145.605 83.2036 145.644C90.0348 146.227 96.9799 145.996 103.599 143.79C110.219 141.583 116.525 137.285 120.965 130.71C126.902 121.917 128.981 110.03 130.085 98.5638C132.542 73.0215 131.115 46.8927 125.905 22.017Z" fill="#F2591D"/>
<path d="M81.825 144.924C81.8503 144.924 81.875 144.926 81.9002 144.93C82.3549 144.99 82.8068 145.037 83.2524 145.075C85.3942 145.258 87.3669 145.346 89.2843 145.346C94.5594 145.346 99.1828 144.66 103.419 143.248C108.359 141.601 115.331 138.033 120.492 130.391C126.65 121.272 128.549 108.563 129.517 98.5091C131.928 73.4421 130.537 47.2994 125.496 22.8554C118.623 26.1917 111.082 27.9517 103.638 27.9517C99.725 27.9517 95.8171 27.4753 92.0215 26.5349C91.2377 26.34 90.4556 26.1262 89.6735 25.9119C87.3218 25.268 84.8901 24.602 82.4853 24.537C82.2717 24.5311 82.0553 24.5322 81.8401 24.5375C81.5695 24.5327 81.3795 24.5316 81.1648 24.537C78.7599 24.6025 76.3277 25.268 73.9755 25.9119C73.1939 26.1262 72.4123 26.34 71.6292 26.5349C67.8351 27.4753 63.9262 27.9517 60.0129 27.9517C52.5692 27.9517 45.0277 26.1923 38.1546 22.8554C33.1136 47.2999 31.7228 73.4421 34.134 98.5091C35.1013 108.563 37.0011 121.272 43.1586 130.391C48.3194 138.033 55.2913 141.601 60.2319 143.248C64.4678 144.66 69.0917 145.346 74.3668 145.346C76.2837 145.346 78.257 145.258 80.3988 145.075C80.8432 145.037 81.2958 144.99 81.7504 144.93C81.7751 144.926 81.7998 144.924 81.825 144.924ZM89.2843 146.488C89.2838 146.488 89.2843 146.488 89.2843 146.488C87.3347 146.488 85.3298 146.398 83.1557 146.213C82.7166 146.175 82.2727 146.129 81.825 146.072C81.3779 146.129 80.9334 146.175 80.4959 146.213C78.3208 146.398 76.3159 146.488 74.3668 146.488C68.9672 146.488 64.2251 145.783 59.8712 144.332C52.5456 141.889 46.4395 137.289 42.2128 131.03C35.9114 121.698 33.9784 108.806 32.9987 98.6181C30.5526 73.1913 32.0008 46.6624 37.1879 21.9C37.2238 21.726 37.3387 21.5793 37.4981 21.502C37.6586 21.4252 37.8444 21.4268 38.0022 21.5068C44.8946 24.9763 52.5058 26.8099 60.0129 26.8099C63.8344 26.8099 67.6499 26.3443 71.3543 25.4259C72.1289 25.2341 72.9014 25.0225 73.6749 24.8109C76.0921 24.1487 78.5919 23.4645 81.1347 23.3957C81.3709 23.3893 81.6055 23.3898 81.8401 23.3963C82.0194 23.3898 82.2808 23.3893 82.5154 23.3957C85.0592 23.4645 87.558 24.1487 89.9752 24.8109C90.7482 25.0225 91.5217 25.2341 92.2963 25.4259C96.0013 26.3443 99.8173 26.8099 103.637 26.8099C111.145 26.8099 118.757 24.9758 125.648 21.5068C125.806 21.4268 125.992 21.4252 126.151 21.502C126.311 21.5793 126.426 21.726 126.462 21.9C131.65 46.6613 133.099 73.1908 130.652 98.6181C129.672 108.806 127.739 121.698 121.438 131.03C117.211 137.289 111.105 141.889 103.779 144.332C99.4255 145.783 94.6834 146.488 89.2843 146.488Z" fill="#292625"/>
<path d="M122.585 41.3931C119.589 41.3931 116.592 40.8512 113.801 39.7668C113.508 39.6524 113.362 39.3216 113.476 39.0278C113.59 38.734 113.919 38.5879 114.214 38.7023C119.528 40.7674 125.624 40.7684 130.94 38.7088C134.759 37.2291 137.727 34.8096 139.295 31.897C141.094 28.5559 140.91 24.3817 138.847 21.7452C138.652 21.4971 138.696 21.1378 138.944 20.9434C139.194 20.7484 139.551 20.7935 139.746 21.0411C142.116 24.0713 142.339 28.6515 140.3 32.4384C138.603 35.5905 135.425 38.1959 131.352 39.7732C128.566 40.8533 125.575 41.3931 122.585 41.3931Z" fill="#292625"/>
<path d="M38.3667 42.6123C37.481 42.6123 36.5948 42.5559 35.7161 42.4394C29.872 41.667 24.4085 38.291 21.1013 33.4084C19.7153 31.3622 19.1801 29.5673 19.464 27.9222C19.667 26.7497 20.4517 25.6477 21.5119 25.0467C22.3729 24.559 23.307 24.4666 24.1422 24.7899C24.4364 24.9033 24.5824 25.2336 24.4691 25.5279C24.3564 25.8222 24.0241 25.9683 23.7316 25.8544C23.22 25.6584 22.6328 25.7239 22.0745 26.0403C21.316 26.4699 20.733 27.2852 20.5892 28.1171C20.3573 29.4566 20.834 30.9781 22.046 32.7677C25.1734 37.3849 30.3395 40.5773 35.8653 41.3072C41.3937 42.0355 47.2088 40.2975 51.4264 36.6508C51.6648 36.4461 52.0244 36.4708 52.2316 36.7093C52.4377 36.9478 52.4115 37.3087 52.1731 37.5149C48.3828 40.7911 43.3724 42.6123 38.3667 42.6123Z" fill="#292625"/>
<path d="M33.0401 48.3428C30.194 48.3428 27.5911 47.2412 26.0328 45.318C25.8341 45.073 25.8712 44.7132 26.1159 44.515C26.3618 44.3152 26.7204 44.3544 26.9185 44.5983C28.4838 46.5307 31.3132 47.4958 34.2989 47.122C37.1917 46.7584 39.8552 45.3002 42.0792 43.9226C42.3465 43.7561 42.6992 43.8383 42.8645 44.1068C43.0309 44.3748 42.9477 44.7272 42.6798 44.8926C40.3512 46.3363 37.5513 47.8637 34.4416 48.2547C33.9703 48.3138 33.5023 48.3428 33.0401 48.3428Z" fill="#292625"/>
<path d="M30.4839 55.6455C28.5589 55.6455 26.7811 55.1417 25.3478 54.1562C25.0885 53.9779 25.0225 53.6223 25.2013 53.3624C25.3806 53.1019 25.7354 53.0369 25.9946 53.2152C27.976 54.5773 30.8773 54.87 33.7562 53.9967C36.4364 53.1841 38.823 51.5745 41.1301 50.0175C41.3921 49.8419 41.7458 49.9111 41.9224 50.1716C42.0985 50.4337 42.0292 50.7882 41.7684 50.9649C39.3904 52.5686 36.9318 54.2271 34.0879 55.0902C32.8613 55.4618 31.646 55.6455 30.4839 55.6455Z" fill="#292625"/>
<path d="M128.567 47.417C128.472 47.417 128.377 47.4165 128.281 47.4148C123.585 47.3327 118.893 45.208 115.732 41.731C115.52 41.4979 115.537 41.1364 115.77 40.9248C116.002 40.7121 116.364 40.7282 116.576 40.9629C119.53 44.2112 123.913 46.1968 128.301 46.2736C128.39 46.2746 128.479 46.2752 128.568 46.2752C132.869 46.2752 137.201 44.4561 140.204 41.376C140.424 41.1504 140.785 41.1455 141.011 41.3663C141.237 41.5865 141.241 41.9479 141.021 42.1735C137.807 45.4695 133.17 47.417 128.567 47.417Z" fill="#292625"/>
<path d="M131.031 53.0503C130.5 53.0503 129.969 53.0277 129.438 52.9815C125.474 52.6389 121.643 51.0067 118.65 48.3858C118.412 48.1779 118.388 47.8181 118.596 47.5802C118.804 47.3423 119.164 47.3192 119.401 47.527C122.213 49.989 125.813 51.5223 129.536 51.8446C133.258 52.1641 137.069 51.2736 140.262 49.3305C140.531 49.1678 140.882 49.2516 141.045 49.5212C141.209 49.7908 141.124 50.1426 140.855 50.3058C137.911 52.0975 134.475 53.0503 131.031 53.0503Z" fill="#292625"/>
<path d="M114.124 37.9041C121.585 38.6544 129.279 34.107 132.223 27.2061C130.919 27.4596 129.615 27.7125 128.31 27.966C129.113 27.2522 129.951 26.4832 130.256 25.453C130.561 24.4229 130.069 23.0802 129.015 22.8778C128.336 22.7478 127.671 23.1076 127.07 23.4481C117.825 28.6889 107.707 32.3819 97.2606 34.3288L114.124 37.9041Z" fill="#F2591D"/>
<path d="M115.775 38.5581C115.206 38.5581 114.636 38.5302 114.067 38.4727C113.754 38.4416 113.525 38.1612 113.556 37.8475C113.588 37.5344 113.865 37.3056 114.181 37.3368C120.972 38.0167 128.104 34.0472 131.228 27.9814L128.42 28.5271C128.164 28.5749 127.913 28.4498 127.799 28.2194C127.686 27.989 127.739 27.7108 127.932 27.54C128.788 26.7784 129.461 26.1291 129.709 25.2912C129.84 24.846 129.772 24.3052 129.533 23.9131C129.422 23.73 129.223 23.4996 128.907 23.4389C128.451 23.3524 127.933 23.6161 127.351 23.9448C118.008 29.2409 107.92 32.9236 97.3642 34.8899C97.0539 34.9479 96.7566 34.7432 96.6991 34.4334C96.6417 34.1235 96.8462 33.8254 97.1559 33.7674C107.586 31.8242 117.557 28.185 126.789 22.9517C127.391 22.6112 128.212 22.1451 129.123 22.3175C129.689 22.4259 130.181 22.782 130.508 23.3191C130.912 23.9845 131.026 24.8637 130.803 25.6156C130.643 26.1586 130.36 26.6323 130.026 27.0518L132.115 26.6463C132.321 26.606 132.534 26.6833 132.667 26.8482C132.8 27.012 132.831 27.2365 132.748 27.4309C129.91 34.0826 122.955 38.5581 115.775 38.5581Z" fill="#292625"/>
<path d="M49.1901 38.3357C41.7287 39.086 34.0353 34.5386 31.0916 27.6377C32.3954 27.8912 33.6993 28.1442 35.0037 28.3977C34.2012 27.6839 33.3627 26.9148 33.0578 25.8847C32.7535 24.8546 33.2452 23.5119 34.2994 23.3094C34.9779 23.1794 35.643 23.5393 36.2437 23.8798C45.4889 29.12 55.608 32.8135 66.0541 34.7599L49.1901 38.3357Z" fill="#F2591D"/>
<path d="M47.5384 38.9893C40.3577 38.9893 33.4046 34.5138 30.5666 27.8616C30.4839 27.6677 30.5145 27.4432 30.6471 27.2789C30.7797 27.1145 30.9933 27.0377 31.2 27.0769L33.2876 27.4829C32.9542 27.0635 32.6719 26.5903 32.5108 26.0462C32.2886 25.2954 32.4019 24.4157 32.8061 23.7508C33.133 23.2132 33.6247 22.8576 34.1921 22.7486C35.0998 22.5762 35.9227 23.0418 36.525 23.3823C45.7573 28.6162 55.7272 32.2549 66.1582 34.1985C66.4679 34.2565 66.6725 34.5541 66.6145 34.864C66.5576 35.1744 66.258 35.3833 65.9494 35.321C55.3939 33.3543 45.3048 29.6715 35.9624 24.3759C35.3822 24.0472 34.8647 23.7809 34.4068 23.87C34.0912 23.9307 33.892 24.1617 33.7809 24.3443C33.5426 24.7369 33.4733 25.2777 33.6054 25.7224C33.8534 26.5619 34.5276 27.2101 35.3827 27.9706C35.5749 28.1419 35.6291 28.4201 35.5153 28.6511C35.4015 28.8809 35.1513 29.0061 34.8942 28.9583L32.0857 28.4126C35.2109 34.4784 42.3395 38.4522 49.1332 37.7679C49.451 37.7346 49.7264 37.9656 49.7581 38.2787C49.7892 38.5924 49.5611 38.8722 49.2476 38.9039C48.678 38.9608 48.1074 38.9893 47.5384 38.9893Z" fill="#292625"/>
<path d="M129.625 89.1202C128.955 87.3129 127.343 86.0803 125.498 85.9853C125.499 86.0154 126.997 85.525 127.17 85.4321C127.804 85.0921 128.354 84.5948 128.78 83.9944C129.55 82.9078 129.844 81.5265 129.684 80.1897C129.375 77.6117 127.214 75.6036 124.727 75.7357C124.726 75.7228 124.724 75.7105 124.722 75.6976C127.343 75.1326 128.846 72.3462 128.203 69.6571C127.914 68.4449 127.277 67.3777 126.3 66.6511C125.742 66.2359 125.096 65.9674 124.42 65.861C124.208 65.8277 122.424 65.9067 122.445 65.9663C124.862 64.7901 125.753 61.7051 124.525 59.2437C123.304 56.7936 120.515 55.6786 118.142 57.0691C118.156 57.0916 119.17 55.844 119.269 55.6678C119.596 55.0857 119.789 54.4385 119.857 53.7671C119.993 52.4126 119.542 51.0232 118.702 49.9958C116.992 47.9012 114.043 47.4731 112.026 49.3685C112.033 49.3749 112.728 48.0398 112.789 47.8555C113.013 47.1842 113.079 46.4736 113.003 45.7679C112.858 44.4236 112.146 43.2007 111.137 42.3784C109.059 40.6641 106.03 40.9557 104.453 43.2501C104.471 43.2619 104.88 41.6883 104.898 41.4837C104.962 40.7543 104.856 40.0201 104.604 39.3386C104.161 38.1404 103.252 37.179 102.155 36.6306C99.7749 35.426 96.8789 36.397 95.8058 38.9889C95.8117 38.9911 95.9094 37.4781 95.8912 37.2832C95.8251 36.5807 95.604 35.9126 95.2572 35.3094C94.6286 34.2149 93.5792 33.4404 92.416 33.1042C89.7916 32.3458 87.0239 33.9259 86.4935 36.802C86.5118 36.8041 86.2525 35.1982 86.1865 35.0038C85.9723 34.3706 85.6282 33.8018 85.1805 33.3239C84.2755 32.3582 82.9861 31.8028 81.694 31.8324C80.3816 31.863 79.1416 32.3432 78.214 33.3405C77.7679 33.8196 77.4276 34.3969 77.2166 35.0301C77.1517 35.2251 76.8999 36.8304 76.9182 36.8283C76.3894 34.0376 73.8058 32.5252 71.2373 33.0892C70.0461 33.3507 68.957 34.1187 68.2747 35.1762C67.8979 35.7611 67.645 36.4196 67.5495 37.1205C67.5205 37.3353 67.5865 39.0765 67.6166 39.0657C66.528 36.4722 63.6921 35.5737 61.3023 36.7128C60.1331 37.2703 59.2007 38.3332 58.7713 39.6044C58.5678 40.2086 58.4809 40.8461 58.526 41.4863C58.5415 41.7022 58.9608 43.3903 58.9898 43.372C57.3976 41.0803 54.4404 40.8451 52.341 42.4971C51.312 43.3065 50.6179 44.5547 50.4579 45.8947C50.3817 46.5322 50.4273 47.1751 50.6034 47.7911C50.6625 47.9984 51.4215 49.5548 51.4462 49.5296C49.4187 47.6439 46.4798 48.0924 44.769 50.1891C43.0518 52.2934 43.2998 55.5218 45.389 57.2286C45.3954 57.2173 44.0207 56.7377 43.8387 56.7076C43.1607 56.5948 42.457 56.6464 41.8043 56.8725C40.5525 57.3059 39.597 58.2533 38.9909 59.4698C37.7643 61.9334 38.7 65.0243 41.1107 66.1833C41.1311 66.1242 39.3441 66.0533 39.1321 66.0877C38.4568 66.1972 37.8111 66.4685 37.256 66.8879C36.2833 67.6221 35.6564 68.693 35.367 69.9047C35.0331 71.3022 35.2624 72.8285 36.0557 74.0117C36.4014 74.5316 36.8475 74.9736 37.3607 75.3055C37.5185 75.4076 38.8734 75.9871 38.8755 75.9704C36.5394 75.8507 34.4518 77.63 33.9923 80.0296C33.4335 82.946 35.2581 85.8806 38.1321 86.1802C38.1326 86.1496 36.6178 86.5626 36.4417 86.6459C35.8561 86.9225 35.3246 87.3285 34.8946 87.8307C34.0336 88.8356 33.6332 90.1938 33.6997 91.5327C33.7636 92.8266 34.2371 94.0425 35.1121 94.9663C35.5651 95.4448 36.1228 95.8084 36.7257 96.0383C36.9211 96.1129 38.6962 96.4185 38.6855 96.3455C35.994 96.9454 34.6005 99.7339 35.2237 102.469C35.5098 103.726 36.3086 104.868 37.3526 105.535C37.9485 105.916 38.6093 106.149 39.3066 106.192C39.4993 106.204 41.246 105.987 41.2132 105.909C38.6436 107.234 38.0741 110.446 39.5428 112.906C40.1928 113.993 41.2868 114.835 42.4876 115.093C43.1409 115.233 43.8162 115.227 44.4614 115.045C44.6536 114.99 46.3407 114.134 46.2618 114.045C44.302 116.158 44.7314 119.476 46.9425 121.189C49.1294 122.881 52.1784 122.461 53.6272 119.948C53.5923 119.929 53.2466 121.477 53.2337 121.661C53.1827 122.39 53.2933 123.137 53.5772 123.806C54.1044 125.046 55.0932 126.01 56.3026 126.475C58.7847 127.486 61.6018 126.265 62.4762 123.567C62.4607 123.563 62.4666 125.097 62.4972 125.287C62.6099 125.991 62.8761 126.655 63.2583 127.244C63.9379 128.292 65.0223 128.966 66.1828 129.253C68.7997 129.898 71.4794 128.174 71.9856 125.366C71.9834 125.366 72.2073 126.855 72.2663 127.043C72.4789 127.714 72.831 128.327 73.2846 128.848C74.1365 129.826 75.3566 130.355 76.6025 130.433C79.17 130.616 81.5201 128.625 81.7091 125.883C81.7182 125.883 82.0569 127.241 82.1294 127.414C82.3854 128.019 82.7623 128.565 83.2282 129.01C84.2266 129.965 85.5643 130.424 86.9026 130.314C88.0937 130.216 89.2602 129.724 90.0981 128.81C90.557 128.31 90.9189 127.708 91.1465 127.054C91.2179 126.849 91.498 125.147 91.4717 125.151C92.0026 127.809 94.5427 129.544 97.0743 128.995C98.2456 128.742 99.361 128.108 100.089 127.09C100.495 126.522 100.784 125.859 100.924 125.163C100.966 124.953 101.014 123.201 100.976 123.212C101.879 125.888 104.689 127.087 107.16 126.072C108.312 125.642 109.269 124.714 109.803 123.56C110.103 122.911 110.253 122.205 110.238 121.483C110.233 121.279 109.898 119.535 109.846 119.564C111.277 122.047 114.327 122.516 116.511 120.836C118.721 119.134 119.207 115.864 117.277 113.711C117.236 113.756 118.584 114.563 118.744 114.627C119.399 114.883 120.105 114.942 120.795 114.847C122.11 114.664 123.267 113.797 124.007 112.659C125.542 110.237 124.938 106.979 122.409 105.642C122.39 105.688 123.887 105.949 124.061 105.95C124.769 105.956 125.461 105.766 126.083 105.411C127.23 104.756 128.098 103.577 128.416 102.239C129.065 99.5046 127.65 96.7048 124.965 96.1065C124.95 96.2123 126.918 95.8079 127.127 95.7155C127.909 95.3712 128.571 94.7993 129.059 94.0715C130.01 92.6552 130.22 90.7352 129.625 89.1202C129.385 88.4741 129.863 89.7663 129.625 89.1202Z" fill="#F7A80E"/>
<path d="M121.87 79.8258C121.308 78.3118 119.958 77.279 118.413 77.1995C118.414 77.2247 119.669 76.8138 119.813 76.7365C120.344 76.4513 120.805 76.0346 121.162 75.5318C121.807 74.6215 122.054 73.4641 121.919 72.3443C121.661 70.1847 119.85 68.502 117.767 68.6127C117.766 68.6019 117.764 68.5917 117.762 68.581C119.958 68.1078 121.217 65.7737 120.679 63.5201C120.436 62.505 119.903 61.6108 119.085 61.0018C118.617 60.6543 118.075 60.4292 117.51 60.3401C117.332 60.3122 115.837 60.3782 115.855 60.4287C117.879 59.4432 118.626 56.8582 117.598 54.7964C116.574 52.7437 114.238 51.8097 112.251 52.9746C112.262 52.9934 113.111 51.9483 113.194 51.8006C113.468 51.3129 113.63 50.771 113.687 50.2082C113.801 49.0738 113.423 47.91 112.72 47.0491C111.286 45.2939 108.816 44.9357 107.126 46.5233C107.132 46.5292 107.715 45.4104 107.766 45.2563C107.953 44.6935 108.008 44.0984 107.944 43.507C107.823 42.3808 107.227 41.3566 106.382 40.6675C104.64 39.2314 102.103 39.4757 100.782 41.3979C100.798 41.4076 101.139 40.0891 101.155 39.9178C101.209 39.3071 101.12 38.6916 100.909 38.1207C100.537 37.1169 99.776 36.3113 98.857 35.8521C96.8628 34.8429 94.4365 35.6566 93.5379 37.828C93.5427 37.8296 93.6243 36.5621 93.6088 36.3988C93.554 35.8102 93.3683 35.2506 93.0779 34.7452C92.5518 33.8284 91.6725 33.1796 90.6977 32.8976C88.499 32.2628 86.1806 33.5862 85.7361 35.996C85.7517 35.9976 85.5343 34.6523 85.479 34.489C85.2992 33.9589 85.0115 33.4825 84.6362 33.0818C83.8783 32.2725 82.7977 31.8074 81.715 31.8326C80.6162 31.8578 79.577 32.2607 78.8002 33.0958C78.4266 33.497 78.1416 33.9809 77.9644 34.5116C77.9102 34.6748 77.6987 36.0197 77.7143 36.0181C77.2714 33.6796 75.1071 32.4132 72.9556 32.8853C71.9571 33.1044 71.0451 33.7478 70.4735 34.634C70.1573 35.1238 69.9458 35.6754 69.8658 36.2624C69.8411 36.4429 69.8964 37.901 69.9216 37.8919C69.0101 35.7194 66.6343 34.9665 64.632 35.9208C63.6524 36.3881 62.8714 37.2786 62.5117 38.3436C62.341 38.8501 62.2686 39.3834 62.3061 39.9199C62.319 40.1009 62.6706 41.5156 62.6948 41.5C61.3608 39.5799 58.8835 39.3828 57.1244 40.7669C56.2629 41.4452 55.681 42.4909 55.5468 43.6134C55.4829 44.1472 55.5216 44.6859 55.6686 45.2021C55.7186 45.3755 56.3541 46.6796 56.3751 46.6581C54.6767 45.0785 52.2144 45.4545 50.7811 47.2107C49.3425 48.9739 49.5503 51.6787 51.3002 53.1084C51.3061 53.0992 50.1542 52.697 50.0017 52.6717C49.4338 52.5772 48.8444 52.6207 48.2974 52.8097C47.2485 53.1733 46.4481 53.9671 45.9409 54.986C44.9129 57.0494 45.6966 59.6392 47.716 60.6102C47.7332 60.5608 46.2361 60.5012 46.0589 60.5302C45.4932 60.6221 44.9521 60.8492 44.4867 61.2005C43.6723 61.8154 43.1468 62.7129 42.9047 63.728C42.6245 64.8988 42.8167 66.177 43.4818 67.1685C43.7711 67.6041 44.1447 67.9746 44.5747 68.2528C44.7068 68.3377 45.8421 68.8232 45.8437 68.8093C43.8865 68.7088 42.1377 70.1997 41.7528 72.21C41.2847 74.6532 42.8129 77.1119 45.221 77.3627C45.2215 77.337 43.9526 77.6834 43.805 77.7527C43.3143 77.9847 42.8693 78.3252 42.5086 78.7457C41.7877 79.5873 41.4522 80.7254 41.5075 81.8468C41.5617 82.9312 41.9578 83.95 42.6906 84.7234C43.0706 85.1246 43.5376 85.4291 44.0428 85.6214C44.2065 85.6842 45.6934 85.9404 45.6848 85.8792C43.4297 86.3813 42.2622 88.7176 42.7845 91.0093C43.0244 92.062 43.6933 93.0185 44.5683 93.5776C45.0669 93.8966 45.6209 94.0916 46.205 94.1281C46.3665 94.1378 47.8293 93.9563 47.8024 93.8907C45.6494 95.0003 45.1727 97.6916 46.4025 99.7529C46.9474 100.664 47.8642 101.369 48.8696 101.585C49.4171 101.703 49.9829 101.697 50.5235 101.544C50.6845 101.499 52.0979 100.781 52.0313 100.707C50.3898 102.478 50.7495 105.257 52.6019 106.691C54.434 108.109 56.9886 107.757 58.2018 105.653C58.1728 105.636 57.8829 106.933 57.8722 107.087C57.8298 107.698 57.9221 108.324 58.1599 108.884C58.6017 109.924 59.4305 110.731 60.4434 111.12C62.5224 111.967 64.8827 110.945 65.6155 108.685C65.602 108.681 65.6074 109.966 65.6332 110.125C65.7277 110.715 65.9504 111.271 66.2703 111.765C66.8404 112.643 67.7482 113.207 68.7208 113.447C70.9131 113.988 73.1579 112.543 73.582 110.192C73.5804 110.192 73.7678 111.439 73.8172 111.595C73.9954 112.158 74.2901 112.672 74.6701 113.108C75.3835 113.928 76.4061 114.371 77.4502 114.436C79.6011 114.589 81.5701 112.922 81.7279 110.624C81.7354 110.624 82.0194 111.762 82.08 111.906C82.2947 112.414 82.6104 112.871 83.0006 113.244C83.837 114.043 84.9578 114.429 86.0786 114.336C87.0771 114.254 88.0535 113.842 88.7561 113.076C89.1405 112.657 89.4438 112.152 89.6343 111.606C89.6939 111.434 89.9285 110.008 89.907 110.011C90.3515 112.237 92.4794 113.691 94.6002 113.232C95.5815 113.019 96.516 112.488 97.1258 111.635C97.4662 111.16 97.7083 110.604 97.8253 110.021C97.8607 109.846 97.9005 108.377 97.8688 108.386C98.6251 110.628 100.98 111.633 103.05 110.782C104.015 110.422 104.816 109.645 105.264 108.678C105.515 108.135 105.64 107.543 105.628 106.938C105.624 106.767 105.343 105.306 105.3 105.33C106.499 107.411 109.054 107.804 110.883 106.395C112.735 104.97 113.143 102.23 111.525 100.427C111.49 100.465 112.62 101.141 112.755 101.194C113.303 101.409 113.894 101.459 114.473 101.378C115.574 101.225 116.543 100.499 117.163 99.5456C118.449 97.5165 117.944 94.7871 115.825 93.6673C115.809 93.7054 117.063 93.9246 117.208 93.9251C117.802 93.9299 118.381 93.7715 118.903 93.4734C119.864 92.9245 120.591 91.9369 120.857 90.816C121.401 88.5253 120.215 86.1799 117.966 85.6783C117.953 85.7669 119.603 85.4286 119.778 85.3512C120.433 85.0628 120.987 84.5832 121.396 83.9736C122.193 82.7872 122.368 81.1787 121.87 79.8258C121.669 79.2844 122.069 80.3671 121.87 79.8258Z" fill="#F3D055"/>
<path d="M114.115 70.5308C113.662 69.3101 112.573 68.4776 111.327 68.4132C111.328 68.4336 112.34 68.1022 112.456 68.0399C112.885 67.81 113.256 67.4738 113.544 67.0683C114.064 66.3341 114.262 65.4012 114.155 64.4984C113.946 62.7567 112.486 61.4 110.806 61.4892C110.805 61.4806 110.804 61.4725 110.803 61.4639C112.573 61.0821 113.588 59.2001 113.154 57.3832C112.959 56.5647 112.529 55.8434 111.869 55.3525C111.492 55.0722 111.055 54.8906 110.599 54.8187C110.456 54.7961 109.251 54.8498 109.265 54.8901C110.897 54.0958 111.499 52.0114 110.67 50.3491C109.845 48.6938 107.961 47.9409 106.358 48.8797C106.368 48.8947 107.052 48.052 107.119 47.9333C107.34 47.5402 107.47 47.103 107.516 46.6492C107.608 45.7346 107.303 44.7958 106.737 44.1019C105.581 42.6867 103.589 42.3977 102.226 43.6781C102.231 43.6824 102.701 42.7801 102.742 42.656C102.893 42.2022 102.938 41.7226 102.886 41.2457C102.788 40.3375 102.307 39.5115 101.626 38.9561C100.222 37.7976 98.1763 37.9948 97.1108 39.5448C97.1231 39.5528 97.399 38.4899 97.4114 38.3514C97.4549 37.8589 97.3835 37.3632 97.2128 36.9023C96.9132 36.093 96.2997 35.4436 95.5584 35.0736C93.9507 34.2594 91.994 34.9157 91.2694 36.6666C91.2737 36.6682 91.3392 35.6461 91.3268 35.514C91.2823 35.0392 91.133 34.5881 90.899 34.181C90.4744 33.4414 89.7653 32.9183 88.9794 32.6911C87.2064 32.1787 85.3367 33.2465 84.9787 35.1891C84.991 35.1907 84.816 34.1058 84.7715 33.9742C84.6265 33.5467 84.3941 33.1627 84.0919 32.8399C83.4805 32.1868 82.6093 31.8119 81.7364 31.8318C80.8502 31.8527 80.0122 32.1771 79.3858 32.8506C79.0847 33.1745 78.8549 33.5644 78.7121 33.9925C78.6681 34.124 78.4979 35.2084 78.5103 35.2068C78.1533 33.3216 76.4082 32.3001 74.6733 32.6809C73.8681 32.8576 73.1327 33.3764 72.6716 34.0907C72.4171 34.4855 72.2464 34.9307 72.182 35.4044C72.1622 35.5494 72.2067 36.7256 72.2271 36.7181C71.4917 34.9662 69.5759 34.3593 67.9617 35.1289C67.1721 35.5054 66.5419 36.2235 66.252 37.0823C66.1141 37.4904 66.0556 37.9206 66.0862 38.3535C66.0964 38.4991 66.3798 39.6398 66.3997 39.6269C65.3239 38.0791 63.3265 37.9201 61.9078 39.0361C61.2131 39.5829 60.744 40.4261 60.6361 41.3316C60.5846 41.7618 60.6157 42.1963 60.7343 42.6125C60.7741 42.7522 61.2867 43.8038 61.3039 43.7866C59.934 42.5132 57.9489 42.8161 56.7932 44.2324C55.6332 45.654 55.8006 47.8345 57.2119 48.9876C57.2162 48.9801 56.2875 48.6557 56.1646 48.6353C55.7067 48.5596 55.2311 48.594 54.7904 48.747C53.945 49.0397 53.2992 49.6799 52.8902 50.5017C52.0613 52.1655 52.6931 54.2537 54.3218 55.0367C54.3357 54.997 53.1285 54.9486 52.9852 54.9717C52.5289 55.0459 52.093 55.2295 51.7178 55.5126C51.0608 56.0083 50.6372 56.7323 50.4418 57.5502C50.2164 58.4944 50.371 59.5256 50.9072 60.3248C51.1407 60.676 51.4419 60.9746 51.7887 61.1991C51.8949 61.2679 52.8107 61.6594 52.8118 61.6481C51.2336 61.567 49.824 62.769 49.5132 64.3899C49.1358 66.3599 50.3683 68.3428 52.3099 68.5453C52.3099 68.5243 51.2867 68.8031 51.1681 68.8595C50.7725 69.0464 50.4134 69.3208 50.123 69.6597C49.5411 70.3386 49.2711 71.2564 49.3156 72.1603C49.3591 73.0347 49.6785 73.8564 50.2695 74.48C50.5755 74.8033 50.9523 75.0487 51.3597 75.2045C51.4918 75.2544 52.691 75.4612 52.6835 75.4118C50.8654 75.8168 49.9238 77.7003 50.3452 79.5484C50.5384 80.3975 51.0779 81.1687 51.7833 81.6193C52.1859 81.8766 52.6319 82.0339 53.1032 82.0635C53.2332 82.0715 54.413 81.9249 54.391 81.8718C52.655 82.7671 52.2707 84.9369 53.2627 86.5991C53.7018 87.3333 54.441 87.9021 55.2521 88.0761C55.6933 88.1706 56.1496 88.1668 56.5854 88.0433C56.7153 88.0068 57.855 87.4283 57.8013 87.3682C56.4775 88.7957 56.7674 91.037 58.2613 92.1938C59.7386 93.3373 61.7983 93.0531 62.7769 91.356C62.7538 91.3426 62.5197 92.3882 62.5111 92.5128C62.4768 93.0053 62.5514 93.5097 62.743 93.9613C63.0994 94.7997 63.7672 95.4507 64.5842 95.7649C66.2606 96.4475 68.1636 95.6231 68.7546 93.8008C68.7439 93.7975 68.7481 94.8341 68.7685 94.9625C68.8448 95.4378 69.0251 95.8868 69.2828 96.2842C69.7423 96.9926 70.4745 97.4475 71.2582 97.6409C73.0264 98.077 74.8365 96.912 75.1784 95.0162C75.1768 95.0156 75.3282 96.0216 75.3679 96.1483C75.5112 96.6016 75.7496 97.0157 76.0561 97.368C76.631 98.0286 77.4555 98.3858 78.2972 98.4384C80.0316 98.5619 81.6194 97.2176 81.7466 95.3647C81.7531 95.3647 81.9817 96.2826 82.0306 96.3986C82.204 96.8079 82.4584 97.1763 82.773 97.4776C83.4472 98.1221 84.3512 98.4325 85.2551 98.3579C86.0598 98.2918 86.8473 97.9593 87.4141 97.3422C87.7238 97.0044 87.9681 96.5973 88.1216 96.1564C88.1699 96.0178 88.3594 94.8679 88.3417 94.8701C88.7003 96.6655 90.4164 97.838 92.1266 97.4674C92.9179 97.2961 93.671 96.8675 94.1627 96.1805C94.437 95.7971 94.6324 95.3486 94.7269 94.8787C94.7553 94.7369 94.7875 93.5532 94.7618 93.5607C95.3716 95.3679 97.2702 96.1784 98.9396 95.492C99.7174 95.202 100.364 94.5752 100.724 93.7959C100.927 93.3571 101.028 92.8807 101.018 92.3925C101.015 92.2545 100.789 91.0762 100.753 91.0966C101.72 92.7733 103.781 93.0908 105.256 91.9554C106.749 90.8055 107.077 88.5965 105.774 87.1426C105.746 87.1732 106.656 87.7178 106.765 87.7608C107.207 87.9343 107.684 87.9746 108.15 87.9096C109.039 87.786 109.819 87.2001 110.32 86.4315C111.357 84.7956 110.949 82.5947 109.241 81.6918C109.227 81.7224 110.239 81.8992 110.356 81.8997C110.834 81.9034 111.302 81.7756 111.722 81.5355C112.497 81.093 113.084 80.2965 113.298 79.3926C113.737 77.5456 112.78 75.6546 110.967 75.2501C110.957 75.3216 112.286 75.0482 112.428 74.9864C112.956 74.7539 113.402 74.3672 113.733 73.8758C114.375 72.9187 114.516 71.6216 114.115 70.5308C114.275 70.9675 113.953 70.0947 114.115 70.5308Z" fill="#F8E298"/>
<path d="M77.6649 75.074C85.2541 74.4128 92.3833 79.4769 99.9977 79.2358C104.692 79.0876 109.276 76.7905 112.205 73.118C111.271 72.8704 110.313 73.3188 109.418 73.6846C104.918 75.5251 99.7605 75.4365 95.1322 73.9493C90.5034 72.4622 86.3771 69.649 82.8852 66.2654C81.8599 65.2718 80.7214 64.1547 79.2941 64.1466C77.6284 64.137 76.4013 65.6166 75.289 66.8572C68.9425 73.9365 58.1578 76.6342 49.2282 73.3768C48.1991 73.0014 46.9017 72.6056 46.1293 73.3827C45.5527 73.9633 45.6242 74.9698 46.0842 75.6465C46.5442 76.3232 47.2947 76.7373 48.0365 77.0826C54.251 79.9796 61.5782 79.6767 68.1352 77.6729C71.2915 76.7083 74.377 75.3602 77.6649 75.074Z" fill="#F7A80E"/>
<path d="M123.651 53.1328C123.651 64.6316 114.334 73.9531 102.842 73.9531C91.3489 73.9531 82.0317 64.6316 82.0317 53.1328C82.0317 41.634 91.3489 32.312 102.842 32.312C114.334 32.312 123.651 41.634 123.651 53.1328Z" fill="#523B1A"/>
<path d="M120.867 53.8107C120.867 64.2278 112.426 72.6733 102.013 72.6733C91.6017 72.6733 83.1606 64.2278 83.1606 53.8107C83.1606 43.393 91.6017 34.9475 102.013 34.9475C112.426 34.9475 120.867 43.393 120.867 53.8107Z" fill="#D1B86C"/>
<path d="M120.867 53.8107C120.867 64.2278 112.426 72.6733 102.013 72.6733C91.6017 72.6733 83.1606 64.2278 83.1606 53.8107C83.1606 43.393 91.6017 34.9475 102.013 34.9475C112.426 34.9475 120.867 43.393 120.867 53.8107Z" fill="#D1B86C"/>
<path d="M119.06 53.8108C119.06 63.2301 111.428 70.8662 102.013 70.8662C92.5991 70.8662 84.9669 63.2301 84.9669 53.8108C84.9669 44.391 92.5991 36.7549 102.013 36.7549C111.428 36.7549 119.06 44.391 119.06 53.8108Z" fill="#F3ED99"/>
<path d="M116.795 47.1264C116.795 51.6389 113.139 55.2964 108.628 55.2964C104.119 55.2964 100.463 51.6389 100.463 47.1264C100.463 42.6144 104.119 38.9564 108.628 38.9564C113.139 38.9564 116.795 42.6144 116.795 47.1264Z" fill="#D4C18D"/>
<path d="M114.536 47.1265C114.536 50.3914 111.891 53.0376 108.628 53.0376C105.366 53.0376 102.72 50.3914 102.72 47.1265C102.72 43.8622 105.366 41.2155 108.628 41.2155C111.891 41.2155 114.536 43.8622 114.536 47.1265Z" fill="#2E2227"/>
<path d="M111.283 43.6625C111.283 44.619 110.509 45.3945 109.553 45.3945C108.597 45.3945 107.822 44.619 107.822 43.6625C107.822 42.7059 108.597 41.9304 109.553 41.9304C110.509 41.9304 111.283 42.7059 111.283 43.6625Z" fill="white"/>
<path d="M97.114 41.1262C98.5177 42.4705 97.7217 45.5818 95.3356 48.0749C92.9496 50.5685 89.8775 51.4993 88.4743 50.155C87.0706 48.8101 87.8666 45.6994 90.2527 43.2063C92.6388 40.7126 95.7103 39.7813 97.114 41.1262Z" fill="white"/>
<path d="M105.817 67.7817C96.8274 67.7817 89.0901 62.419 85.6262 54.7168C85.8323 60.8797 89.5872 66.6409 95.6696 69.1007C101.058 71.2797 106.934 70.3274 111.283 67.1001C109.535 67.5448 107.703 67.7817 105.817 67.7817Z" fill="#D4C18D"/>
<path d="M38.6818 53.1328C38.6818 64.6316 47.9984 73.9531 59.4911 73.9531C70.9839 73.9531 80.3011 64.6316 80.3011 53.1328C80.3011 41.634 70.9839 32.312 59.4911 32.312C47.9984 32.312 38.6818 41.634 38.6818 53.1328Z" fill="#523B1A"/>
<path d="M41.4662 53.8107C41.4662 64.2278 49.9073 72.6733 60.319 72.6733C70.7312 72.6733 79.1722 64.2278 79.1722 53.8107C79.1722 43.393 70.7312 34.9475 60.319 34.9475C49.9073 34.9475 41.4662 43.393 41.4662 53.8107Z" fill="#D1B86C"/>
<path d="M41.4662 53.8107C41.4662 64.2278 49.9073 72.6733 60.319 72.6733C70.7312 72.6733 79.1722 64.2278 79.1722 53.8107C79.1722 43.393 70.7312 34.9475 60.319 34.9475C49.9073 34.9475 41.4662 43.393 41.4662 53.8107Z" fill="#D1B86C"/>
<path d="M43.2725 53.8108C43.2725 63.2301 50.9046 70.8662 60.3189 70.8662C69.7338 70.8662 77.3659 63.2301 77.3659 53.8108C77.3659 44.391 69.7338 36.7549 60.3189 36.7549C50.9046 36.7549 43.2725 44.391 43.2725 53.8108Z" fill="#F3ED99"/>
<path d="M58.7681 47.1264C58.7681 51.6389 62.4242 55.2964 66.9339 55.2964C71.444 55.2964 75.1001 51.6389 75.1001 47.1264C75.1001 42.6144 71.444 38.9564 66.9339 38.9564C62.4242 38.9564 58.7681 42.6144 58.7681 47.1264Z" fill="#D4C18D"/>
<path d="M61.0259 47.1265C61.0259 50.3914 63.6712 53.0376 66.9338 53.0376C70.197 53.0376 72.8418 50.3914 72.8418 47.1265C72.8418 43.8622 70.197 41.2155 66.9338 41.2155C63.6712 41.2155 61.0259 43.8622 61.0259 47.1265Z" fill="#2E2227"/>
<path d="M66.9338 45.3949C66.9338 46.3509 67.709 47.1265 68.665 47.1265C69.621 47.1265 70.3962 46.3509 70.3962 45.3949C70.3962 44.4384 69.621 43.6629 68.665 43.6629C67.709 43.6629 66.9338 44.4384 66.9338 45.3949Z" fill="white"/>
<path d="M55.3692 41.1262C56.7729 42.4705 55.9768 45.5818 53.5907 48.0749C51.2047 50.5685 48.1332 51.4993 46.7294 50.155C45.3257 48.8101 46.1223 45.6994 48.5078 43.2063C50.8939 40.7126 53.966 39.7813 55.3692 41.1262Z" fill="white"/>
<path d="M56.5163 67.7817C65.5054 67.7817 73.2428 62.419 76.7068 54.7168C76.5006 60.8797 72.7457 66.6409 66.6633 69.1007C61.275 71.2797 55.3992 70.3274 51.0496 67.1001C52.7979 67.5448 54.6294 67.7817 56.5163 67.7817Z" fill="#D4C18D"/>
<path d="M84.5482 55.8111C84.0276 55.2396 83.4199 54.7262 82.7097 54.5489C82.0199 54.3765 81.2223 54.5924 80.7955 55.2192C80.3704 54.5914 79.5732 54.3739 78.8835 54.5441C78.1727 54.7197 77.564 55.2321 77.0417 55.8025C74.2638 58.8359 73.4999 63.6309 74.1333 67.9248C74.7668 72.2188 76.601 76.1523 78.4089 80.0015C78.5426 80.2851 79.672 82.0473 80.7843 82.0483C81.8965 82.0494 82.9905 80.2905 83.1247 80.0069C84.9417 76.1625 86.7846 72.2327 87.4282 67.9404C88.0718 63.6481 87.3192 58.8515 84.5482 55.8111Z" fill="#2D1615"/>
<path d="M78.6666 55.2963C78.147 55.3909 77.7605 55.8372 77.4459 56.2765C75.2134 59.3996 74.4914 63.4739 74.7662 67.351C75.0711 71.6482 76.5388 75.8497 78.9581 79.3514C79.3773 79.9583 79.9866 80.6114 80.6903 80.4584C81.4982 80.2822 81.7387 79.2268 81.8133 78.3745C82.429 71.3254 82.8847 64.0426 80.7209 57.3302C80.5567 56.8205 80.3709 56.3044 80.0344 55.8962C79.6973 55.4881 79.1766 55.204 78.6666 55.2963Z" fill="#EE8B40"/>
<path d="M82.2711 55.2913C81.5636 55.461 81.2308 56.2565 81.0209 56.9536C78.8711 64.0972 78.549 71.7839 80.0934 79.0827C80.2023 79.5983 80.3918 80.195 80.8927 80.3594C81.5202 80.5656 82.0918 79.9453 82.4456 79.3867C85.6567 74.313 87.1109 68.1484 86.5054 62.1734C86.2659 59.8146 85.6095 57.3086 83.7758 55.8069C83.3501 55.4584 82.8058 55.163 82.2711 55.2913Z" fill="#F2591D"/>
<path d="M82.4456 68.9148C82.4456 74.6985 81.6286 79.3872 80.6205 79.3872C79.6129 79.3872 78.796 74.6985 78.796 68.9148C78.796 63.1304 79.6129 58.4418 80.6205 58.4418C81.6286 58.4418 82.4456 63.1304 82.4456 68.9148Z" fill="#F3DE3E"/>
<path d="M80.8626 65.4305C81.2684 65.3048 81.431 64.822 81.4922 64.4014C81.686 63.0727 81.4557 61.6854 80.8427 60.4904C79.8598 61.4416 79.4664 62.9153 79.6929 64.2645C79.7444 64.5733 79.8314 64.8875 80.03 65.1292C80.2291 65.3708 80.5636 65.5234 80.8626 65.4305Z" fill="white"/>
<path d="M81.1965 68.7728C80.985 67.9672 80.774 67.1616 80.5625 66.356C80.1132 67.174 79.9103 68.1246 79.9855 69.0543C80.0059 69.3121 80.0515 69.5774 80.1975 69.7901C80.3435 70.0033 80.6141 70.1488 80.8626 70.079C81.1042 70.0119 81.2582 69.7621 81.2915 69.5135C81.3242 69.2648 81.2604 69.0151 81.1965 68.7728Z" fill="white"/>
<path d="M62.7882 145.217C61.7506 144.476 60.2862 144.98 59.2432 145.712C56.8711 147.379 55.3611 150.07 54.6343 152.877C53.9069 155.684 53.8956 158.625 54.0288 161.522C54.0486 161.955 54.1254 162.472 54.5194 162.653C55.0487 162.897 55.571 162.32 55.8716 161.821C57.4594 159.179 59.0478 156.538 60.6362 153.896C61.4854 152.484 62.3362 151.068 63.0292 149.573C63.362 148.855 63.6621 148.101 63.6905 147.309C63.7195 146.518 63.4323 145.677 62.7882 145.217Z" fill="#EDA263"/>
<path d="M61.5906 145.424C60.991 145.424 60.2551 145.699 59.5712 146.18C57.511 147.626 55.9542 150.056 55.1866 153.02C54.4571 155.837 54.4727 158.758 54.5983 161.496C54.6246 162.058 54.7449 162.129 54.7577 162.135L54.7771 162.14C54.8506 162.14 55.1061 161.986 55.382 161.527L60.1472 153.601C60.9749 152.225 61.8305 150.801 62.5117 149.333C62.8129 148.683 63.0958 147.985 63.1199 147.289C63.1398 146.754 62.9755 146.052 62.4565 145.681C62.2176 145.51 61.9256 145.424 61.5906 145.424ZM54.7771 163.282C54.6058 163.282 54.4394 163.246 54.2816 163.173C53.5172 162.82 53.4748 161.896 53.4587 161.548C53.3352 158.857 53.3121 155.704 54.0819 152.734C54.9172 149.507 56.6333 146.848 58.9147 145.245C59.4273 144.885 60.4558 144.282 61.5906 144.282C62.1682 144.282 62.6824 144.44 63.1199 144.752C63.8623 145.282 64.2993 146.27 64.2606 147.331C64.2289 148.229 63.8988 149.055 63.5461 149.814C62.8403 151.337 61.9685 152.788 61.1257 154.19L56.3606 162.115C56.0981 162.551 55.5436 163.282 54.7771 163.282Z" fill="#292625"/>
<path d="M60.97 150.229C61.1004 149.562 61.2024 148.871 61.0602 148.207C60.8057 149.439 59.9818 150.542 58.8722 151.134C59.1041 152.046 59.1288 153.037 58.7734 153.908C58.4186 154.78 57.6408 155.508 56.71 155.647C56.841 157.261 56.5162 158.909 55.783 160.353C57.1346 157.97 58.4868 155.587 59.8384 153.204C60.088 152.764 60.3382 152.323 60.5255 151.853C60.7338 151.331 60.8621 150.78 60.97 150.229Z" fill="#DC7029"/>
<path d="M66.5946 145.217C67.6316 144.476 69.0966 144.98 70.1396 145.712C72.5111 147.379 74.0216 150.07 74.7485 152.877C75.4753 155.684 75.4871 158.625 75.3534 161.522C75.3336 161.955 75.2568 162.472 74.8628 162.653C74.3335 162.897 73.8112 162.32 73.5112 161.821C71.9228 159.179 70.3344 156.538 68.746 153.896C67.8974 152.484 67.0466 151.068 66.3535 149.573C66.0207 148.855 65.7207 148.101 65.6917 147.309C65.6632 146.518 65.9504 145.677 66.5946 145.217Z" fill="#EDA263"/>
<path d="M67.7922 145.424C67.4572 145.424 67.1657 145.51 66.9258 145.681C66.4072 146.052 66.243 146.754 66.2623 147.289C66.287 147.985 66.5694 148.683 66.871 149.333C67.5517 150.801 68.4073 152.225 69.2351 153.601L74.0002 161.527C74.2767 161.986 74.5316 162.14 74.6057 162.14C74.6084 162.14 74.6132 162.14 74.625 162.135C74.6379 162.129 74.7576 162.058 74.7839 161.496C74.9095 158.758 74.9256 155.837 74.1956 153.02C73.4285 150.056 71.8713 147.626 69.8111 146.18C69.1277 145.699 68.3918 145.424 67.7922 145.424ZM74.6057 163.282C73.8386 163.282 73.2847 162.551 73.0222 162.115L68.2571 154.19C67.4143 152.788 66.542 151.337 65.8361 149.814C65.484 149.055 65.1538 148.229 65.1216 147.33C65.0835 146.27 65.5205 145.282 66.2634 144.752C66.6998 144.44 67.2146 144.282 67.7922 144.282C68.927 144.282 69.9555 144.885 70.4676 145.245C72.7489 146.848 74.4651 149.507 75.3009 152.734C76.0701 155.704 76.0475 158.857 75.9235 161.548C75.908 161.896 75.8656 162.82 75.1017 163.173C74.9428 163.246 74.7764 163.282 74.6057 163.282Z" fill="#292625"/>
<path d="M70.7333 150.672C70.6308 151.722 70.809 152.799 71.2454 153.759C71.3995 154.099 71.5911 154.431 71.8724 154.677C72.1542 154.922 72.5396 155.07 72.9052 154.996C72.7323 155.968 73.0313 156.961 73.398 157.878C73.6358 158.474 73.9031 159.058 74.1994 159.626C74.0067 159.54 73.8682 159.369 73.7372 159.203C73.0598 158.342 72.4087 157.46 71.7575 156.579C71.4634 156.181 71.1692 155.782 70.875 155.384C70.6931 155.137 70.5116 154.891 70.3366 154.64C69.1192 152.887 68.2608 150.885 67.8298 148.794C67.7015 148.172 67.6215 147.481 67.9522 146.938C68.6259 148.364 69.3736 149.874 70.7333 150.672Z" fill="#DC7029"/>
<path d="M68.344 151.54C68.344 155.847 66.6654 163.846 64.595 163.846C62.524 163.846 60.846 155.847 60.846 151.54C60.846 147.234 62.524 143.742 64.595 143.742C66.6654 143.742 68.344 147.234 68.344 151.54Z" fill="#EDA263"/>
<path d="M64.595 144.314C63.0915 144.314 61.4167 147.282 61.4167 151.541C61.4167 156.366 63.2879 163.274 64.595 163.274C65.9016 163.274 67.7734 156.366 67.7734 151.541C67.7734 147.282 66.098 144.314 64.595 144.314ZM64.595 164.417C61.7887 164.417 60.2755 155.278 60.2755 151.541C60.2755 146.847 62.1725 143.172 64.595 143.172C67.017 143.172 68.9146 146.847 68.9146 151.541C68.9146 155.278 67.4009 164.417 64.595 164.417Z" fill="#292625"/>
<path d="M57.7975 149.06C57.8185 149.337 58.0005 149.576 58.191 149.779C58.3558 149.954 58.5571 150.128 58.7976 150.131C59.1766 150.137 59.4165 149.739 59.5759 149.395C59.7815 148.952 59.9903 148.498 60.0446 148.011C60.0988 147.525 59.9721 146.991 59.6012 146.671C59.1004 147.133 58.6323 147.63 58.2017 148.158C57.9881 148.42 57.7723 148.723 57.7975 149.06Z" fill="#F3ED99"/>
<path d="M57.1352 150.387C56.9736 150.418 56.87 150.574 56.7906 150.718C56.0729 152.019 55.7492 153.534 55.8716 155.015C55.885 155.174 55.9274 155.365 56.0793 155.415C56.264 155.477 56.4239 155.278 56.5184 155.108C56.892 154.433 57.2661 153.759 57.6403 153.084C57.8464 152.712 58.059 152.315 58.0407 151.889C58.0225 151.464 57.5534 150.308 57.1352 150.387Z" fill="#F3ED99"/>
<path d="M55.3986 159.776C55.6992 159.08 55.8791 158.332 55.9274 157.575C55.944 157.311 55.9435 157.038 55.8404 156.795C55.7374 156.552 55.5092 156.345 55.2451 156.34C55.0229 157.039 54.8967 157.768 54.8715 158.501C54.8559 158.965 54.893 159.466 55.185 159.827C55.2091 159.857 55.2387 159.888 55.2768 159.89C55.3364 159.894 55.375 159.83 55.3986 159.776Z" fill="#F3ED99"/>
<path d="M62.3894 151.562C62.4865 151.889 62.6717 152.236 63.0002 152.327C63.3212 152.417 63.6669 152.215 63.8478 151.934C64.0287 151.654 64.0802 151.312 64.1221 150.981C64.3444 149.207 64.3916 147.411 64.2622 145.629C64.2488 145.439 64.1694 145.189 63.9788 145.202C63.8816 145.209 63.807 145.289 63.7458 145.365C62.8644 146.463 62.4817 147.882 62.3056 149.279C62.2101 150.04 62.1714 150.827 62.3894 151.562Z" fill="#F3ED99"/>
<path d="M63.2192 153.028C63.0839 153.058 62.954 153.133 62.8805 153.25C62.8365 153.319 62.8139 153.4 62.7946 153.48C62.5434 154.516 62.7495 155.608 63.0464 156.632C63.1204 156.887 63.2053 157.15 63.3867 157.344C63.4898 157.453 63.6368 157.539 63.7845 157.511C64.0061 157.469 64.1039 157.212 64.1538 156.991C64.3293 156.21 64.4029 155.406 64.3809 154.606C64.3707 154.231 64.3357 153.843 64.1489 153.518C63.9621 153.193 63.5853 152.949 63.2192 153.028Z" fill="#F3ED99"/>
<path d="M71.1047 148.035C70.6114 147.481 70.0805 146.933 69.4106 146.615C69.3188 146.571 69.2131 146.531 69.1175 146.566C69.044 146.984 69.1691 147.417 69.38 147.785C69.591 148.153 69.8835 148.466 70.1729 148.775C70.415 149.033 70.6565 149.292 70.8986 149.551C71.1112 149.778 71.3796 150.026 71.6866 149.973C71.8788 149.666 71.86 149.261 71.7231 148.925C71.5862 148.589 71.3463 148.306 71.1047 148.035Z" fill="#F3ED99"/>
<path d="M73.0624 152.604C73.2041 151.971 72.8826 151.329 72.5127 150.795C72.4075 150.644 72.2283 150.477 72.0661 150.564C71.7816 151.19 71.7929 151.942 72.0957 152.559C72.1654 152.701 72.254 152.841 72.3845 152.931C72.5149 153.021 72.6958 153.053 72.8337 152.975C72.9637 152.901 73.0297 152.75 73.0624 152.604Z" fill="#F3ED99"/>
<path d="M64.4689 162.354C65.1447 162.343 65.5457 161.61 65.7738 160.973C67.0353 157.459 67.4465 153.642 66.9623 149.939C66.725 148.127 66.1818 146.192 64.7137 145.104C65.1307 148.998 65.2891 152.919 65.1876 156.834C65.1694 157.551 65.142 158.269 65.1034 158.985C65.0416 160.133 64.9439 161.308 64.4689 162.354Z" fill="#DC7029"/>
<path d="M92.6667 145.217C91.629 144.476 90.1647 144.98 89.1217 145.712C86.7496 147.379 85.2396 150.07 84.5128 152.877C83.7854 155.684 83.7741 158.625 83.9072 161.522C83.9271 161.955 84.0039 162.472 84.3979 162.653C84.9272 162.897 85.4495 162.32 85.7501 161.821C87.3379 159.179 88.9263 156.538 90.5147 153.896C91.3639 152.484 92.2147 151.068 92.9077 149.573C93.2405 148.855 93.5406 148.101 93.569 147.309C93.598 146.518 93.3108 145.677 92.6667 145.217Z" fill="#EDA263"/>
<path d="M91.4691 145.424C90.8695 145.424 90.1336 145.699 89.4497 146.18C87.389 147.627 85.8323 150.057 85.0652 153.02C84.3357 155.837 84.3512 158.758 84.4774 161.496C84.5031 162.058 84.6234 162.129 84.6363 162.135L84.6556 162.14C84.7291 162.14 84.9847 161.986 85.2611 161.527L90.0257 153.601C90.8529 152.227 91.7075 150.805 92.3903 149.333C92.6909 148.683 92.9738 147.986 92.999 147.289C93.0183 146.754 92.8541 146.052 92.335 145.681C92.0956 145.51 91.8041 145.424 91.4691 145.424ZM84.6556 163.282C84.4844 163.282 84.3179 163.246 84.1601 163.173C83.3957 162.82 83.3533 161.896 83.3378 161.548C83.2138 158.857 83.1907 155.704 83.9605 152.734C84.7952 149.508 86.5118 146.849 88.7938 145.245C89.3059 144.885 90.3344 144.282 91.4691 144.282C92.0462 144.282 92.561 144.44 92.9979 144.752C93.7403 145.282 94.1778 146.27 94.1397 147.331C94.1064 148.23 93.7768 149.056 93.4252 149.814C92.7172 151.341 91.846 152.79 91.0037 154.19L86.2391 162.115C85.9772 162.551 85.4221 163.282 84.6556 163.282Z" fill="#292625"/>
<path d="M90.8485 150.229C90.979 149.562 91.081 148.871 90.9387 148.207C90.6843 149.439 89.8603 150.542 88.7507 151.134C88.9826 152.046 89.0073 153.037 88.652 153.908C88.2972 154.78 87.5188 155.508 86.5885 155.647C86.7195 157.261 86.3948 158.909 85.6615 160.353C87.0131 157.97 88.3648 155.587 89.717 153.204C89.9666 152.764 90.2167 152.323 90.4041 151.853C90.6124 151.331 90.7406 150.78 90.8485 150.229Z" fill="#DC7029"/>
<path d="M96.4731 145.217C97.5102 144.476 98.9751 144.98 100.018 145.712C102.39 147.379 103.9 150.07 104.627 152.877C105.354 155.684 105.366 158.625 105.232 161.522C105.212 161.955 105.135 162.472 104.741 162.653C104.212 162.897 103.69 162.32 103.39 161.821C101.801 159.179 100.213 156.538 98.6246 153.896C97.7759 152.484 96.9251 151.068 96.2321 149.573C95.8993 148.855 95.5992 148.101 95.5702 147.309C95.5412 146.518 95.829 145.677 96.4731 145.217Z" fill="#EDA263"/>
<path d="M97.6702 145.424C97.3353 145.424 97.0438 145.51 96.8038 145.681C96.2858 146.052 96.121 146.755 96.1404 147.289C96.1656 147.985 96.448 148.683 96.7496 149.333C97.4303 150.801 98.2859 152.225 99.1137 153.601L103.879 161.527C104.155 161.986 104.41 162.14 104.484 162.14C104.487 162.14 104.492 162.14 104.504 162.135C104.517 162.129 104.636 162.058 104.663 161.495C104.789 158.758 104.804 155.837 104.074 153.02C103.307 150.057 101.75 147.627 99.6897 146.18C99.0063 145.699 98.2698 145.424 97.6702 145.424ZM104.484 163.282C103.717 163.282 103.163 162.551 102.901 162.115L98.1356 154.19C97.2929 152.788 96.4211 151.337 95.7147 149.814C95.3625 149.055 95.033 148.229 94.9997 147.331C94.9621 146.27 95.399 145.282 96.1409 144.752C96.5784 144.44 97.0932 144.282 97.6702 144.282C98.805 144.282 99.8335 144.885 100.346 145.245C102.628 146.849 104.344 149.508 105.179 152.734C105.949 155.704 105.926 158.857 105.802 161.548C105.786 161.897 105.743 162.821 104.98 163.173C104.821 163.246 104.655 163.282 104.484 163.282Z" fill="#292625"/>
<path d="M100.612 150.672C100.509 151.722 100.687 152.799 101.124 153.759C101.278 154.099 101.47 154.431 101.751 154.677C102.033 154.922 102.418 155.07 102.784 154.996C102.611 155.968 102.91 156.961 103.276 157.878C103.514 158.474 103.782 159.058 104.078 159.626C103.885 159.54 103.746 159.369 103.616 159.203C102.938 158.342 102.287 157.46 101.636 156.579C101.342 156.181 101.048 155.782 100.754 155.384C100.572 155.137 100.39 154.891 100.215 154.64C98.9977 152.887 98.1393 150.885 97.7083 148.794C97.58 148.172 97.5 147.481 97.8307 146.938C98.5043 148.364 99.2521 149.874 100.612 150.672Z" fill="#DC7029"/>
<path d="M98.2224 151.54C98.2224 155.847 96.5439 163.846 94.4735 163.846C92.4025 163.846 90.7245 155.847 90.7245 151.54C90.7245 147.234 92.4025 143.742 94.4735 143.742C96.5439 143.742 98.2224 147.234 98.2224 151.54Z" fill="#EDA263"/>
<path d="M94.4736 144.314C92.97 144.314 91.2952 147.282 91.2952 151.541C91.2952 156.366 93.1665 163.274 94.4736 163.274C95.7801 163.274 97.6519 156.366 97.6519 151.541C97.6519 147.282 95.9761 144.314 94.4736 144.314ZM94.4736 164.417C91.6672 164.417 90.1534 155.278 90.1534 151.541C90.1534 146.847 92.051 143.172 94.4736 143.172C96.895 143.172 98.7931 146.847 98.7931 151.541C98.7931 155.278 97.2789 164.417 94.4736 164.417Z" fill="#292625"/>
<path d="M87.6761 149.06C87.697 149.337 87.8785 149.576 88.0696 149.779C88.2344 149.954 88.4357 150.128 88.6762 150.131C89.0551 150.137 89.2951 149.739 89.4545 149.395C89.6601 148.952 89.8689 148.498 89.9231 148.011C89.9774 147.525 89.8507 146.991 89.4797 146.671C88.9789 147.133 88.5108 147.63 88.0803 148.158C87.8661 148.42 87.6509 148.723 87.6761 149.06Z" fill="#F3ED99"/>
<path d="M87.0138 150.387C86.8517 150.418 86.7486 150.574 86.6692 150.718C85.9515 152.019 85.6278 153.534 85.7502 155.015C85.7636 155.174 85.806 155.365 85.9579 155.415C86.1426 155.477 86.3025 155.278 86.3965 155.108C86.7706 154.433 87.1448 153.759 87.5189 153.084C87.7251 152.712 87.9376 152.315 87.9194 151.889C87.9006 151.464 87.432 150.308 87.0138 150.387Z" fill="#F3ED99"/>
<path d="M85.2772 159.776C85.5778 159.08 85.7576 158.332 85.8059 157.575C85.8226 157.311 85.822 157.038 85.719 156.795C85.6159 156.552 85.3878 156.345 85.1237 156.34C84.9014 157.039 84.7753 157.768 84.7501 158.501C84.7345 158.965 84.7715 159.466 85.0635 159.827C85.0872 159.857 85.1172 159.888 85.1553 159.89C85.2149 159.894 85.2536 159.83 85.2772 159.776Z" fill="#F3ED99"/>
<path d="M92.2678 151.562C92.365 151.889 92.5502 152.236 92.8782 152.327C93.1997 152.417 93.5454 152.215 93.7263 151.934C93.9072 151.654 93.9588 151.312 94.0006 150.981C94.2229 149.207 94.2701 147.411 94.1407 145.629C94.1273 145.439 94.0479 145.189 93.8573 145.202C93.7596 145.209 93.6855 145.289 93.6243 145.365C92.7429 146.463 92.3602 147.882 92.1841 149.279C92.0885 150.04 92.0499 150.827 92.2678 151.562Z" fill="#F3ED99"/>
<path d="M93.0977 153.028C92.9625 153.058 92.8326 153.133 92.759 153.25C92.715 153.319 92.6925 153.4 92.6731 153.48C92.4219 154.516 92.6281 155.608 92.9249 156.632C92.999 156.887 93.0838 157.15 93.2652 157.344C93.3677 157.453 93.5154 157.539 93.663 157.511C93.8847 157.469 93.9824 157.212 94.0318 156.991C94.2078 156.21 94.2814 155.406 94.2594 154.606C94.2492 154.231 94.2137 153.843 94.0275 153.518C93.8407 153.193 93.4638 152.949 93.0977 153.028Z" fill="#F3ED99"/>
<path d="M100.983 148.035C100.49 147.481 99.9591 146.933 99.2891 146.615C99.1968 146.571 99.0916 146.531 98.9961 146.566C98.9225 146.984 99.0476 147.417 99.2585 147.785C99.4695 148.153 99.762 148.466 100.051 148.775C100.293 149.033 100.535 149.292 100.777 149.551C100.99 149.778 101.258 150.026 101.565 149.973C101.757 149.666 101.739 149.261 101.602 148.925C101.465 148.589 101.225 148.306 100.983 148.035Z" fill="#F3ED99"/>
<path d="M102.941 152.604C103.083 151.971 102.761 151.329 102.391 150.795C102.286 150.644 102.107 150.477 101.945 150.564C101.66 151.19 101.671 151.942 101.974 152.559C102.044 152.701 102.132 152.841 102.263 152.931C102.393 153.021 102.574 153.053 102.712 152.975C102.842 152.901 102.908 152.75 102.941 152.604Z" fill="#F3ED99"/>
<path d="M94.3474 162.354C95.0232 162.343 95.4237 161.61 95.6524 160.973C96.9138 157.459 97.325 153.642 96.8408 149.939C96.6035 148.127 96.0603 146.192 94.5922 145.104C95.0093 148.998 95.1676 152.919 95.0662 156.834C95.0479 157.551 95.0205 158.269 94.9819 158.985C94.9202 160.133 94.8225 161.308 94.3474 162.354Z" fill="#DC7029"/>
<path d="M116.228 25.0177C115.559 23.6004 117.003 22.1293 117.366 20.604C117.889 18.4068 116.103 16.3799 114.387 14.9126C112.67 13.4453 110.706 11.7476 110.721 9.48868C110.729 8.4199 111.2 7.41128 111.366 6.35539C111.532 5.29949 111.258 4.01642 110.282 3.58139C109.137 3.0717 107.909 4.01695 106.98 4.85855C101.037 10.2422 93.7054 14.0791 85.8961 15.8928C86.5848 18.7522 87.2741 21.6116 87.9633 24.471C88.1463 25.232 88.3418 26.0183 88.8195 26.6381C89.4497 27.4555 90.4664 27.8551 91.4332 28.2155C95.5117 29.7354 99.6402 31.2118 103.94 31.8864C108.24 32.561 112.763 32.395 116.778 30.7129C118.025 30.1903 119.417 29.0818 119.024 27.7864C118.637 26.507 116.799 26.2261 116.228 25.0177Z" fill="#F2591D"/>
<path d="M86.5843 16.3153L88.5178 24.3371C88.6859 25.0342 88.8603 25.7549 89.2715 26.2893C89.7831 26.9532 90.6435 27.3119 91.6323 27.6804C95.7758 29.2244 99.8426 30.6654 104.029 31.3223C108.705 32.0564 113.019 31.6681 116.558 30.1858C117.355 29.8517 118.782 28.9548 118.478 27.9521C118.335 27.4773 117.852 27.161 117.292 26.7936C116.711 26.4123 116.052 25.9794 115.712 25.2614C115.158 24.0873 115.722 22.9358 116.219 21.9202C116.467 21.4154 116.7 20.939 116.811 20.4723C117.175 18.9427 116.261 17.2659 114.016 15.3469C112.286 13.8673 110.133 12.0262 110.151 9.48474C110.156 8.76613 110.341 8.09638 110.521 7.44867C110.634 7.04049 110.741 6.65488 110.803 6.26658C110.932 5.44378 110.752 4.41581 110.049 4.10269C109.238 3.7407 108.157 4.56188 107.363 5.28156C101.472 10.618 94.2986 14.4253 86.5843 16.3153ZM108.527 32.8271C108.527 32.8271 108.527 32.8271 108.527 32.8271C107.021 32.8271 105.448 32.7004 103.851 32.4496C99.5602 31.7766 95.435 30.3163 91.234 28.7507C90.2925 28.3995 89.1207 27.9629 88.3681 26.9865C87.8077 26.2598 87.5956 25.3806 87.4088 24.6045L85.3411 16.0263C85.3057 15.8786 85.3298 15.7223 85.4103 15.5929C85.4898 15.4629 85.6186 15.3706 85.7668 15.3367C93.5047 13.5391 100.708 9.76992 106.597 4.43514C107.453 3.6596 108.48 2.86634 109.603 2.86634C109.919 2.86634 110.226 2.93132 110.514 3.06022C111.772 3.62039 112.131 5.16341 111.93 6.4438C111.858 6.89709 111.738 7.33266 111.621 7.75426C111.453 8.35633 111.296 8.92565 111.292 9.49226C111.278 11.5031 113.127 13.0842 114.757 14.4785C117.359 16.703 118.394 18.7493 117.921 20.7365C117.781 21.3273 117.508 21.8842 117.244 22.4224C116.804 23.3204 116.424 24.0964 116.744 24.7732C116.946 25.2012 117.419 25.5105 117.918 25.8392C118.569 26.2662 119.307 26.7496 119.571 27.6207C120.074 29.2851 118.499 30.6101 116.999 31.239C114.484 32.2928 111.633 32.8271 108.527 32.8271Z" fill="#292625"/>
<path d="M101.391 12.9125C100.066 14.2224 98.3922 15.1177 96.8322 16.1441C95.5761 16.9706 94.3834 17.8906 93.2668 18.8939C92.9222 19.2043 92.554 19.6098 92.6474 20.0615C94.6979 19.5857 96.7286 19.0276 98.7335 18.3907C100.304 17.8912 101.878 17.3391 103.52 17.1914C103.748 17.171 104.082 17.2902 103.993 17.4986C103.517 18.2607 102.603 18.6168 101.751 18.924C100.129 19.5083 98.507 20.0932 96.8848 20.6781C95.954 21.0138 95.0125 21.3543 94.1885 21.8983C93.6565 22.2501 93.131 22.8318 93.3076 23.4397C93.4279 23.8554 93.8364 24.1154 94.2239 24.3152C95.9669 25.2137 97.9386 25.675 99.9043 25.6433C100.371 25.6358 100.855 25.6042 101.288 25.7782C101.72 25.9522 102.079 26.4108 101.959 26.8566C101.825 27.3529 101.22 27.5457 100.702 27.5919C100.185 27.6386 99.6021 27.645 99.243 28.0156C99.1597 28.101 99.0921 28.2068 99.0749 28.3239C99.0282 28.6424 99.346 28.8905 99.6418 29.0253C100.529 29.4292 101.536 29.4845 102.514 29.4668C103.999 29.4399 105.482 29.2595 106.93 28.9287C106.602 29.9512 105.445 30.469 104.375 30.6468C102.578 30.9459 100.736 30.6371 98.9617 30.2241C96.6599 29.6881 94.4 28.9754 92.2088 28.0956C91.1524 27.6708 90.0836 27.188 89.294 26.3743C88.0782 25.1213 87.7131 23.2641 87.8023 21.5304C87.8838 19.9353 88.3573 18.2693 89.5522 17.1941C90.3343 16.4905 91.3472 16.1054 92.3237 15.7048C94.5417 14.7944 96.6948 13.7288 98.7609 12.5188C99.8404 11.8867 100.995 11.1901 102.245 11.2884C102.269 11.9162 101.841 12.4683 101.391 12.9125Z" fill="#D34B20"/>
<path d="M49.5433 25.0177C50.2132 23.6004 48.7681 22.1293 48.4058 20.604C47.883 18.4068 49.6683 16.3799 51.385 14.9126C53.1011 13.4453 55.0658 11.7476 55.0502 9.48868C55.0427 8.4199 54.5714 7.41128 54.4056 6.35539C54.2397 5.29949 54.514 4.01642 55.4904 3.58139C56.6349 3.0717 57.8625 4.01695 58.7912 4.85855C64.7346 10.2422 72.0661 14.0791 79.8759 15.8928C79.1867 18.7522 78.498 21.6116 77.8087 24.471C77.6251 25.232 77.4303 26.0183 76.952 26.6381C76.3223 27.4555 75.3051 27.8551 74.3389 28.2155C70.2598 29.7354 66.1313 31.2118 61.8316 31.8864C57.5313 32.561 53.0083 32.395 48.9936 30.7129C47.7461 30.1903 46.3552 29.0818 46.7471 27.7864C47.1347 26.507 48.9721 26.2261 49.5433 25.0177Z" fill="#F2591D"/>
<path d="M56.169 4.00815C56.0112 4.00815 55.8651 4.03932 55.7224 4.10269C55.0202 4.41581 54.8399 5.44378 54.9692 6.26658C55.0304 6.65488 55.1372 7.04103 55.2505 7.44867C55.4298 8.09692 55.6156 8.76613 55.6209 9.48474C55.6386 12.0262 53.4856 13.8673 51.756 15.3464C49.5111 17.2659 48.5969 18.9427 48.9609 20.4723C49.072 20.939 49.305 21.4154 49.5524 21.9202C50.0501 22.9358 50.6142 24.0873 50.0592 25.2614C49.7199 25.9794 49.0608 26.4123 48.4794 26.7936C47.9201 27.161 47.4375 27.4773 47.2936 27.9521C46.9898 28.9548 48.4171 29.8517 49.2143 30.1858C52.7523 31.6681 57.0649 32.0564 61.7431 31.3223C65.9295 30.6654 69.9957 29.2244 74.1398 27.6804C75.1286 27.3119 75.9885 26.9532 76.5001 26.2893C76.9118 25.7549 77.0857 25.0342 77.2543 24.3371L79.1867 16.3153C71.473 14.4253 64.2998 10.618 58.408 5.28156C57.7536 4.68917 56.9082 4.00815 56.169 4.00815ZM57.2447 32.8271C54.1388 32.8271 51.2884 32.2928 48.7736 31.239C47.2722 30.6101 45.6972 29.2851 46.2013 27.6207C46.4648 26.7496 47.2024 26.2662 47.8535 25.8392C48.3532 25.5105 48.8256 25.2012 49.028 24.7732C49.3474 24.0964 48.9673 23.3204 48.5277 22.4224C48.2641 21.8842 47.9909 21.3273 47.8503 20.7365C47.3779 18.7493 48.4128 16.703 51.0147 14.4785C52.6455 13.0842 54.4937 11.5031 54.4802 9.49279C54.4759 8.92563 54.3181 8.35686 54.1506 7.75426C54.0342 7.33319 53.9134 6.89709 53.842 6.4438C53.6401 5.16341 53.9998 3.62039 55.258 3.06022C55.5458 2.93132 55.8523 2.86634 56.169 2.86634C57.292 2.86634 58.3183 3.6596 59.1745 4.43514C65.0642 9.76992 72.2675 13.5391 80.0048 15.3367C80.153 15.3706 80.2813 15.4629 80.3612 15.5929C80.4412 15.7223 80.4659 15.8786 80.4305 16.0263L78.3633 24.6045C78.176 25.3806 77.9645 26.2598 77.404 26.9865C76.6515 27.9629 75.4796 28.3995 74.5381 28.7507C70.3371 30.3163 66.2113 31.7766 61.9202 32.4496C60.3238 32.7004 58.751 32.8271 57.2447 32.8271Z" fill="#292625"/>
<path d="M63.5692 12.9125C64.894 14.2224 66.5677 15.1177 68.1277 16.1441C69.3838 16.9706 70.5765 17.8906 71.6931 18.8939C72.0382 19.2043 72.4065 19.6098 72.3125 20.0615C70.262 19.5857 68.2313 19.0276 66.2263 18.3907C64.6557 17.8912 63.0823 17.3391 61.4398 17.1914C61.2116 17.171 60.8777 17.2902 60.9668 17.4986C61.443 18.2607 62.3571 18.6168 63.2085 18.924C64.8307 19.5083 66.4529 20.0932 68.0751 20.6781C69.0064 21.0138 69.9474 21.3543 70.7714 21.8983C71.3033 22.2501 71.8289 22.8318 71.6523 23.4397C71.532 23.8554 71.1241 24.1154 70.7365 24.3152C68.993 25.2137 67.0213 25.675 65.0556 25.6433C64.5891 25.6358 64.1049 25.6042 63.6723 25.7782C63.2402 25.9522 62.881 26.4108 63.0013 26.8566C63.1355 27.3529 63.7399 27.5457 64.2574 27.5919C64.7748 27.6386 65.3578 27.645 65.7175 28.0156C65.8001 28.101 65.8678 28.2068 65.885 28.3239C65.9317 28.6424 65.6139 28.8905 65.3181 29.0253C64.4308 29.4292 63.4237 29.4845 62.4468 29.4668C60.9609 29.4399 59.4778 29.2595 58.03 28.9287C58.3575 29.9512 59.5153 30.469 60.5852 30.6468C62.3824 30.9459 64.2241 30.6371 65.9982 30.2241C68.3 29.6881 70.5599 28.9754 72.7511 28.0956C73.8075 27.6708 74.8768 27.188 75.6659 26.3743C76.8817 25.1213 77.2467 23.2641 77.1582 21.5304C77.076 19.9353 76.6026 18.2693 75.4077 17.1941C74.6261 16.4905 73.6127 16.1054 72.6362 15.7048C70.4182 14.7944 68.2651 13.7288 66.199 12.5188C65.1195 11.8867 63.9654 11.1901 62.7146 11.2884C62.691 11.9162 63.1194 12.4683 63.5692 12.9125Z" fill="#D34B20"/>
<path d="M94.0602 13.1631C91.6189 10.5234 87.4936 8.93045 83.3823 9.04056C83.2191 9.04485 83.0522 9.05506 82.8858 9.07063C82.7199 9.05506 82.5524 9.04485 82.3897 9.04056C78.2779 8.93045 74.1526 10.5234 71.7113 13.1631C74.1564 14.2872 75.7834 16.3421 76.4882 18.521C77.1936 20.7 77.0567 23.0013 76.6036 25.2227C76.434 26.0524 76.2762 27.0294 77.0266 27.6202C77.703 28.153 78.79 28.1003 79.7342 28.0112C80.8019 27.9107 81.9754 27.7502 82.8858 27.3393C83.7967 27.7502 84.9696 27.9107 86.0378 28.0112C86.982 28.1003 88.069 28.153 88.7454 27.6202C89.4958 27.0294 89.3375 26.0524 89.1684 25.2227C88.7148 23.0013 88.5784 20.7 89.2833 18.521C89.9886 16.3421 91.6156 14.2872 94.0602 13.1631Z" fill="#D34B20"/>
<path d="M82.8863 26.768C82.9663 26.768 83.0463 26.7852 83.1209 26.819C83.9685 27.2019 85.0985 27.3491 86.091 27.4426C86.3755 27.4694 86.7099 27.4973 87.0352 27.4973C87.6708 27.4973 88.1147 27.3905 88.3928 27.1719C88.8206 26.8346 88.7986 26.2674 88.6091 25.3372C88.0546 22.6196 88.0975 20.3327 88.7401 18.3461C89.4701 16.0887 91.0397 14.1827 93.1031 13.0129C90.7348 10.82 87.0792 9.51656 83.3974 9.61108C83.2481 9.61538 83.0935 9.6245 82.94 9.63954C82.9035 9.64222 82.8686 9.64222 82.8326 9.63954C82.6786 9.6245 82.524 9.61538 82.3737 9.61108C82.2465 9.60786 82.1182 9.60571 81.9904 9.60571C78.4492 9.60571 74.9541 10.8963 72.669 13.0129C74.7319 14.1827 76.3015 16.0887 77.0315 18.3461C77.6746 20.3327 77.7175 22.6196 77.1625 25.3372C76.973 26.2674 76.951 26.8346 77.3794 27.1713C77.6574 27.3905 78.1013 27.4973 78.7364 27.4973C79.0622 27.4973 79.3966 27.4694 79.6806 27.4426C80.6737 27.3491 81.8031 27.2019 82.6512 26.819C82.7264 26.7852 82.8058 26.768 82.8863 26.768ZM87.0352 28.6392C86.6627 28.6392 86.2944 28.6091 85.9842 28.5796C84.9809 28.4845 83.8424 28.3363 82.8863 27.9587C81.9298 28.3363 80.7907 28.4845 79.7874 28.5796C79.4771 28.6091 79.1094 28.6392 78.7364 28.6392C77.8356 28.6392 77.1609 28.4523 76.674 28.0688C75.6111 27.2326 75.893 25.8512 76.0443 25.1084C76.5591 22.589 76.5264 20.4922 75.9456 18.6973C75.2311 16.4883 73.6009 14.6601 71.4735 13.6821C71.3071 13.6053 71.188 13.4544 71.1515 13.275C71.116 13.0956 71.1686 12.9098 71.2926 12.7755C73.8333 10.0273 78.1341 8.3597 82.4048 8.4698C82.5637 8.47463 82.7247 8.48322 82.8863 8.49772C83.0474 8.48322 83.2079 8.47463 83.3657 8.4698C83.5053 8.46604 83.6438 8.46387 83.7817 8.46387C87.9215 8.46387 92.0199 10.1159 94.4789 12.7755C94.6035 12.9098 94.6561 13.0956 94.6196 13.275C94.5842 13.4544 94.4645 13.6053 94.2986 13.6821C92.1713 14.6601 90.541 16.4883 89.826 18.6973C89.2452 20.4922 89.213 22.589 89.7272 25.1084C89.8786 25.8512 90.161 27.2326 89.0981 28.0693C88.6118 28.4523 87.937 28.6392 87.0352 28.6392Z" fill="#292625"/>
<path d="M80.1186 24.7844C80.8986 25.5352 82.0468 25.8832 83.1118 25.692C84.1773 25.5003 85.1328 24.7742 85.6025 23.7988C85.8827 23.2166 85.9933 22.5705 86.1624 21.947C86.7824 19.6558 88.1883 17.6718 89.2237 15.537C89.3692 15.2373 89.5088 14.9295 89.5603 14.6008C89.7069 13.6631 89.0874 12.7372 88.2774 12.2425C87.4679 11.7479 86.5 11.597 85.559 11.4761C82.7575 11.1158 79.8916 10.9315 77.1244 11.5014C76.2553 11.6802 75.2885 12.0304 74.9665 12.858C74.7297 13.466 74.9273 14.1669 75.2746 14.7195C75.6219 15.2722 76.1056 15.7233 76.5135 16.233C77.5469 17.5247 78.0606 19.1515 78.4331 20.7633C78.7654 22.201 79.0558 23.7607 80.1186 24.7844Z" fill="#F2591D"/>
<path d="M76.8023 12.4122C76.6466 12.6034 76.5543 12.8376 76.477 13.0712C76.2585 13.7356 76.1528 14.4918 76.4738 15.1137C76.7771 15.7018 77.3998 16.0504 78.0122 16.3018C78.7482 16.6036 79.5212 16.8152 80.3081 16.9307C81.3592 17.0843 82.5911 16.9935 83.2438 16.1551C84.0168 15.161 83.4945 13.6018 82.4805 12.8553C81.467 12.1082 80.1433 11.9649 78.8872 11.8768C78.1416 11.8247 77.2747 11.8327 76.8023 12.4122Z" fill="#F3D055"/>
<path d="M79.4584 19.4303C79.8363 19.8852 80.3317 20.2972 80.9206 20.3482C81.5095 20.3992 82.16 19.94 82.1209 19.3498C82.0763 18.6698 81.2743 18.3486 80.6087 18.2042C80.3264 18.1429 80.0338 18.0855 79.7514 18.1451C79.4691 18.2052 79.1985 18.4147 79.1577 18.7004C79.1191 18.969 79.2855 19.2214 79.4584 19.4303Z" fill="#F3D055"/>
<path d="M56.2329 6.93742C56.6167 7.64582 57.0091 8.36496 57.5775 8.93588C58.146 9.50679 58.9265 9.91872 59.7301 9.86018C60.1794 9.40474 60.1112 8.62223 59.765 8.08408C59.4187 7.54593 58.8632 7.18555 58.3452 6.81067C57.6527 6.30958 56.9994 5.75425 56.3934 5.15219C56.0579 5.23866 55.8684 5.62051 55.8834 5.96693C55.8984 6.31388 56.0675 6.63236 56.2329 6.93742Z" fill="#F3D055"/>
<path d="M105.884 9.3169C107.323 8.86093 108.456 7.55259 108.702 6.06274C107.146 6.15619 105.711 7.31575 105.292 8.81796C105.252 8.95813 105.224 9.12087 105.309 9.23957C105.428 9.40875 105.686 9.37974 105.884 9.3169Z" fill="#F3D055"/>
<path d="M52.4775 16.6512C51.42 17.2479 50.5971 18.4332 50.8011 19.6309C51.0431 21.0541 52.5328 21.8796 53.9032 22.3313C57.2834 23.4447 60.9191 23.5494 64.4668 23.2712C64.3208 22.2642 63.5102 21.4639 62.6035 21.0036C61.6964 20.5439 60.6818 20.3533 59.7059 20.0675C57.5507 19.4365 55.5399 18.3172 53.8672 16.8182C53.7024 16.6705 53.5317 16.5137 53.3175 16.4584C53.032 16.3848 52.7346 16.5067 52.4775 16.6512Z" fill="#F3D055"/>
<path d="M100.135 23.2952C103.38 23.6615 106.691 23.4332 109.855 22.6239C110.864 22.3655 111.877 22.04 112.727 21.4364C113.576 20.8332 114.251 19.9111 114.339 18.8724C114.371 18.4857 114.295 18.0442 113.975 17.8245C113.748 17.6688 113.453 17.6629 113.178 17.6779C112.005 17.7402 110.866 18.0705 109.738 18.3987C105.974 19.4948 102.21 20.5905 98.4453 21.6861C98.0937 21.7887 97.6616 22.1727 97.9327 22.4192C98.4561 23.0379 99.33 23.2039 100.135 23.2952Z" fill="#F3D055"/>
<path d="M56.5571 26.6182C56.475 26.0178 55.7143 25.8266 55.111 25.775C54.579 25.7299 54.047 25.6848 53.5151 25.6391C52.8602 25.5838 52.1677 25.5344 51.5778 25.8234C50.9873 26.1123 50.574 26.8712 50.8912 27.447C52.304 28.4384 54.2891 28.5399 55.7959 27.6967C56.2044 27.4679 56.6204 27.0823 56.5571 26.6182Z" fill="#F3D055"/>
<path d="M103.437 26.8373C103.514 27.0188 103.699 27.1284 103.88 27.2078C104.672 27.5553 105.565 27.5623 106.43 27.5639C107.703 27.5655 108.976 27.5677 110.248 27.5693C111.635 27.5715 113.259 27.4538 114.024 26.2954C114.098 26.182 114.163 26.0569 114.174 25.9221C114.218 25.3404 113.331 25.1132 113.184 24.5482C110.278 24.9972 107.372 25.4468 104.467 25.8958C104.2 25.9371 103.922 25.9822 103.7 26.1364C103.479 26.2905 103.332 26.5881 103.437 26.8373Z" fill="#F3D055"/>
<path d="M117.17 85.0069C123.228 78.8542 129.316 72.6751 136.234 67.509C143.152 62.3434 150.99 58.1907 159.473 56.5945C157.268 60.1247 154.48 63.2886 151.256 65.9198C152.213 65.583 153.203 65.2409 154.215 65.3096C155.227 65.3789 156.277 65.9681 156.561 66.9429C156.83 67.8645 156.369 68.8286 155.886 69.6589C154.235 72.4968 152.167 75.0914 149.769 77.3337C150.742 77.382 151.419 78.4401 151.385 79.4138C151.351 80.3875 150.801 81.2619 150.216 82.0412C147.812 85.247 144.501 87.7637 140.77 89.2219C142.375 89.5984 143.98 89.9743 145.585 90.3508C144.432 92.9078 141.721 94.5014 138.957 94.9681C136.192 95.4343 133.36 94.9342 130.633 94.2811C126.292 93.2403 122.044 91.8058 117.959 90.0017C117.021 89.5871 116.351 85.8394 117.17 85.0069Z" fill="#F2591D"/>
<path d="M136.673 95.7227C134.562 95.7227 132.478 95.3102 130.5 94.8359C126.133 93.7892 121.836 92.3385 117.729 90.5243C117.441 90.397 117.311 90.0597 117.438 89.7713C117.565 89.4834 117.9 89.3519 118.19 89.4797C122.235 91.2665 126.466 92.6946 130.766 93.7253C133.367 94.3488 136.147 94.8623 138.862 94.4052C141.432 93.9712 143.617 92.5926 144.737 90.7386L140.64 89.7778C140.396 89.7203 140.218 89.5114 140.2 89.2622C140.183 89.013 140.329 88.7804 140.562 88.6896C144.169 87.2809 147.435 84.798 149.76 81.6991C150.265 81.0245 150.786 80.2226 150.815 79.3945C150.838 78.7306 150.374 77.9352 149.741 77.9035C149.512 77.8928 149.312 77.7451 149.233 77.5297C149.155 77.3144 149.212 77.0727 149.38 76.9164C151.742 74.7079 153.766 72.1692 155.393 69.371C155.837 68.6084 156.219 67.806 156.013 67.1029C155.789 66.3328 154.904 65.9289 154.177 65.8795C153.264 65.8166 152.34 66.1437 151.445 66.459C151.184 66.5492 150.894 66.4412 150.758 66.1996C150.622 65.9573 150.68 65.6534 150.895 65.4777C153.734 63.1602 156.205 60.4571 158.251 57.4275C151.111 59.0108 143.826 62.5517 136.575 67.9665C129.677 73.1182 123.526 79.3654 117.577 85.4076C117.355 85.6321 116.994 85.6342 116.77 85.4135C116.546 85.1922 116.543 84.8307 116.764 84.6062C122.742 78.5341 128.924 72.2551 135.893 67.0519C143.734 61.1961 151.632 57.4887 159.367 56.0332C159.588 55.9935 159.816 56.0853 159.944 56.2728C160.072 56.4597 160.077 56.7046 159.957 56.8974C158.143 59.8008 155.965 62.4352 153.465 64.7543C153.725 64.7296 153.988 64.7231 154.254 64.7403C155.401 64.8182 156.729 65.4799 157.109 66.7828C157.436 67.9026 156.924 69.0106 156.38 69.9462C154.851 72.573 152.986 74.9791 150.826 77.1097C151.56 77.6054 151.986 78.5534 151.956 79.4342C151.915 80.5782 151.285 81.5669 150.673 82.3838C148.536 85.233 145.759 87.5161 142.572 89.0581L145.715 89.7949C145.881 89.8336 146.021 89.9448 146.097 90.0979C146.172 90.2509 146.175 90.4298 146.105 90.585C144.975 93.0926 142.273 94.9879 139.052 95.5304C138.258 95.6646 137.464 95.7227 136.673 95.7227Z" fill="#292625"/>
<path d="M126.01 82.9921C129.554 80.2847 133.124 77.3598 135.164 73.3929C135.376 72.9826 135.573 72.547 135.583 72.0857C135.594 71.6238 135.373 71.1281 134.949 70.9444C131.786 73.1609 128.769 75.5869 125.926 78.2008C124.208 79.7793 122.417 81.7982 122.73 84.1103C123.874 84.4889 125.053 83.7236 126.01 82.9921Z" fill="#F3D055"/>
<path d="M140.195 69.9043C141.467 69.0546 142.361 67.6588 142.6 66.1469C141.136 66.7092 139.782 67.5589 138.639 68.6346C138.142 69.1019 137.649 69.7743 137.898 70.4097C138.671 70.6594 139.52 70.3554 140.195 69.9043Z" fill="#F3D055"/>
<path d="M150.816 65.139C146.933 66.1966 143.727 68.8696 140.656 71.4701C138.094 73.6383 135.512 75.829 133.468 78.4918C133.086 78.9897 132.757 79.7878 133.261 80.1616C133.582 80.3995 134.034 80.2723 134.406 80.1251C136.124 79.4468 137.753 78.5434 139.24 77.4462C136.954 79.2582 134.665 81.0752 132.585 83.1198C131.482 84.2053 130.402 85.4217 130.032 86.9245C129.892 87.4906 129.916 88.2022 130.408 88.5148C130.863 88.8048 131.463 88.59 131.941 88.3365C133.151 87.6952 134.236 86.8445 135.313 85.9986C136.523 85.0485 137.733 84.0979 138.943 83.1478C137.431 84.6779 135.978 86.266 134.588 87.9079C133.809 88.8284 133.027 89.8118 132.765 90.9891C132.709 91.2383 132.683 91.5165 132.819 91.7318C133.099 92.1749 133.776 92.0229 134.244 91.7899C138.023 89.9128 140.605 86.3224 143.031 82.8685C143.388 83.3851 144.175 83.4474 144.729 83.1521C145.283 82.8567 145.645 82.2992 145.929 81.7385C146.568 80.4704 146.926 79.0611 146.969 77.6411C146.978 77.3651 146.979 77.0729 147.121 76.8355C147.231 76.6529 147.411 76.5267 147.584 76.4021C149.405 75.0884 150.928 73.3633 152.004 71.3922C152.349 70.7606 152.545 69.7794 151.89 69.4829C151.565 69.3363 151.189 69.4588 150.855 69.5823C148.955 70.2853 147.055 70.9878 145.155 71.6903C146.587 70.1016 148.096 68.5812 149.674 67.137L150.816 65.139Z" fill="#F7A80E"/>
<path d="M49.3108 85.0069C43.2531 78.8542 37.1653 72.6751 30.2471 67.509C23.3289 62.3434 15.4917 58.1907 7.00818 56.5945C9.2128 60.1247 12.0014 63.2886 15.2254 65.9198C14.2683 65.583 13.2779 65.2409 12.2655 65.3096C11.2531 65.3789 10.2037 65.9681 9.91922 66.9429C9.65028 67.8645 10.1119 68.8286 10.5945 69.6589C12.2457 72.4968 14.314 75.0914 16.7118 77.3337C15.7397 77.382 15.0617 78.4401 15.0961 79.4138C15.1299 80.3875 15.6806 81.2619 16.2647 82.0412C18.669 85.247 21.9799 87.7637 25.7112 89.2219C24.1062 89.5984 22.5012 89.9743 20.8961 90.3508C22.0486 92.9078 24.76 94.5014 27.5239 94.9681C30.2884 95.4343 33.1211 94.9342 35.8475 94.2811C40.1896 93.2403 44.4367 91.8058 48.5212 90.0017C49.4601 89.5871 50.1305 85.8394 49.3108 85.0069Z" fill="#F2591D"/>
<path d="M29.808 95.7227C29.0173 95.7227 28.2234 95.6646 27.429 95.5304C24.2087 94.9879 21.5065 93.0926 20.3765 90.585C20.3062 90.4298 20.3094 90.2509 20.3846 90.0979C20.4603 89.9448 20.6004 89.8336 20.7663 89.7949L23.9097 89.0581C20.7223 87.5161 17.9449 85.233 15.8084 82.3838C15.1965 81.568 14.5657 80.5798 14.5255 79.4342C14.4949 78.5534 14.9206 77.6054 15.6549 77.1097C13.4954 74.9797 11.6305 72.573 10.1012 69.9462C9.55691 69.0106 9.04482 67.9032 9.37172 66.7828C9.75231 65.4799 11.0798 64.8182 12.2269 64.7403C12.4948 64.7226 12.7573 64.7296 13.0166 64.7543C10.5156 62.4357 8.33838 59.8014 6.52401 56.8974C6.40377 56.7051 6.4086 56.4597 6.53636 56.2728C6.66411 56.0853 6.89118 55.9935 7.11341 56.0332C14.8486 57.4887 22.747 61.1961 30.5885 67.0519C37.5567 72.2551 43.7389 78.5341 49.7172 84.6062C49.9384 84.8307 49.9357 85.1922 49.7113 85.4135C49.4869 85.6342 49.1257 85.6321 48.9045 85.4076C42.9558 79.3654 36.8046 73.1182 29.9057 67.9665C22.6547 62.5517 15.3699 59.0108 8.22996 57.4275C10.2773 60.4571 12.7471 63.1602 15.5862 65.4777C15.8009 65.6534 15.8589 65.9573 15.7231 66.1996C15.5873 66.4412 15.2952 66.5492 15.0354 66.459C14.1411 66.1437 13.2168 65.8172 12.3042 65.8795C11.5769 65.9289 10.6922 66.3328 10.4673 67.1029C10.2617 67.8065 10.6439 68.6089 11.0878 69.371C12.7159 72.1697 14.7391 74.7079 17.1016 76.9164C17.269 77.0727 17.3265 77.3144 17.2476 77.5297C17.1692 77.7451 16.9695 77.8928 16.7403 77.9035C16.1069 77.9352 15.6431 78.7306 15.6662 79.3945C15.6952 80.2237 16.2159 81.025 16.7215 81.6991C19.0458 84.798 22.3122 87.2809 25.9189 88.6896C26.1514 88.7804 26.2985 89.013 26.2808 89.2622C26.2625 89.5114 26.0848 89.7203 25.8411 89.7778L21.7438 90.7386C22.8635 92.5926 25.0488 93.9712 27.619 94.4052C30.3325 94.8623 33.1136 94.3494 35.7144 93.7253C40.0152 92.6946 44.2462 91.2665 48.2909 89.4797C48.5803 89.3524 48.9163 89.4834 49.0435 89.7713C49.1708 90.0597 49.0403 90.397 48.7521 90.5243C44.6451 92.3385 40.348 93.7892 35.9806 94.8359C34.0025 95.3102 31.9187 95.7227 29.808 95.7227Z" fill="#292625"/>
<path d="M40.4704 82.9921C36.927 80.2847 33.3563 77.3598 31.3165 73.3929C31.1055 72.9826 30.9079 72.547 30.8977 72.0857C30.8875 71.6238 31.1082 71.1281 31.5317 70.9444C34.695 73.1609 37.7113 75.5869 40.5552 78.2008C42.2724 79.7793 44.0642 81.7982 43.7502 84.1103C42.6069 84.4889 41.428 83.7236 40.4704 82.9921Z" fill="#F3D055"/>
<path d="M26.2856 69.9043C25.0134 69.0546 24.1196 67.6588 23.8802 66.1469C25.3451 66.7092 26.6994 67.5589 27.8423 68.6346C28.3388 69.1019 28.8316 69.7743 28.5825 70.4097C27.8106 70.6594 26.9609 70.3554 26.2856 69.9043Z" fill="#F3D055"/>
<path d="M15.665 65.139C19.5477 66.1966 22.7534 68.8696 25.8255 71.4701C28.3866 73.6383 30.9691 75.829 33.0126 78.4918C33.3948 78.9897 33.7244 79.7878 33.2199 80.1616C32.8983 80.3995 32.4463 80.2723 32.0749 80.1251C30.3571 79.4468 28.7274 78.5434 27.2416 77.4462C29.5262 79.2582 31.8161 81.0752 33.8957 83.1198C34.9988 84.2053 36.0793 85.4217 36.4492 86.9245C36.5882 87.4906 36.5651 88.2022 36.0734 88.5148C35.6177 88.8048 35.0176 88.59 34.5404 88.3365C33.3299 87.6952 32.245 86.8445 31.1677 85.9986C29.9578 85.0485 28.7478 84.0979 27.5379 83.1478C29.05 84.6779 30.5031 86.266 31.8929 87.9079C32.6718 88.8284 33.4544 89.8118 33.7158 90.9891C33.7711 91.2383 33.7974 91.5165 33.6616 91.7318C33.382 92.1749 32.7051 92.0229 32.2364 91.7899C28.4574 89.9128 25.876 86.3224 23.4496 82.8685C23.0921 83.3851 22.3063 83.4474 21.7523 83.1521C21.1978 82.8567 20.8355 82.2992 20.5526 81.7385C19.9127 80.4704 19.5547 79.0611 19.5112 77.6411C19.5031 77.3651 19.5021 77.0729 19.3598 76.8355C19.2503 76.6529 19.0694 76.5267 18.8971 76.4021C17.0757 75.0884 15.5534 73.3633 14.4766 71.3922C14.1314 70.7606 13.936 69.7794 14.5915 69.4829C14.9157 69.3363 15.292 69.4588 15.6253 69.5823C17.5256 70.2853 19.4258 70.9878 21.3261 71.6903C19.8934 70.1016 18.385 68.5812 16.8068 67.137L15.665 65.139Z" fill="#F7A80E"/>
<path d="M121.437 31.504C122.902 30.4164 124.525 29.5437 126.241 28.9223C126.529 28.8181 126.836 28.7193 127.139 28.7703C127.826 28.8869 128.163 29.7585 127.96 30.4256C127.757 31.0932 127.191 31.5776 126.629 31.9912C124.599 33.4848 122.262 34.5589 119.806 35.1266C118.484 35.4327 116.915 35.5267 115.954 34.5686C116.73 34.0063 117.714 33.8339 118.589 33.4418C119.638 32.9708 120.513 32.1909 121.437 31.504Z" fill="#F7A80E"/>
<path d="M41.4415 32.9261C39.9556 31.795 38.5111 30.274 36.6447 30.2606C36.3881 30.2589 36.1117 30.2955 35.9232 30.4695C35.4321 30.9222 35.9372 31.7144 36.4284 32.1672C37.7349 33.3708 39.0742 34.5964 40.7029 35.3042C42.332 36.0126 44.3327 36.1201 45.8062 35.1275C44.2328 34.6689 42.7454 33.9186 41.4415 32.9261Z" fill="#F7A80E"/>
<path d="M41.281 28.3812C42.1941 29.2889 42.9805 30.3233 43.6112 31.4458C41.2117 30.6611 39.0855 29.066 37.6603 26.9822C38.955 26.5525 40.3131 27.4193 41.281 28.3812Z" fill="#F7A80E"/>
<path d="M59.7005 138.652C60.1423 138.636 60.6313 138.508 60.8584 138.129C61.0666 137.781 60.9872 137.337 60.8787 136.946C60.182 134.431 58.5222 132.197 56.3165 130.804C54.638 129.744 52.705 129.179 50.8713 128.419C46.2506 126.504 42.1827 123.273 39.2695 119.205C40.9792 124.143 42.9262 129.407 47.1975 132.413C47.4293 131.502 47.6613 130.59 47.8926 129.678C48.5292 131.946 49.6914 134.065 51.261 135.82C51.6448 136.249 52.2659 136.686 52.7393 136.357C53.0195 136.163 53.0915 135.787 53.1398 135.45C53.2799 134.471 53.42 133.493 53.5606 132.515C54.1393 133.95 54.7324 135.411 55.7164 136.605C56.6998 137.8 58.1545 138.709 59.7005 138.652Z" fill="#F7A80E"/>
<path d="M58.1621 106.386C58.0762 106.456 57.4513 105.843 56.5833 104.727C55.7314 103.602 54.6879 101.938 53.7936 99.9682C52.9299 97.9848 52.3931 96.0954 52.1274 94.7086C51.8805 93.3165 51.844 92.4422 51.953 92.4245C52.0796 92.403 52.3303 93.2349 52.7222 94.561C53.1339 95.8838 53.7464 97.6873 54.5854 99.6154C55.455 101.53 56.3847 103.192 57.0911 104.384C57.8131 105.563 58.263 106.306 58.1621 106.386Z" fill="#292625"/>
<path d="M62.4608 106.383C62.3829 106.466 62.0313 106.28 61.5573 105.858C61.0935 105.429 60.5374 104.738 60.094 103.874C59.6678 103 59.4477 102.141 59.3828 101.512C59.3285 100.88 59.3908 100.487 59.5041 100.474C59.6281 100.459 59.7816 100.817 59.9802 101.375C60.1901 101.933 60.4795 102.685 60.8692 103.485C61.2766 104.276 61.705 104.959 62.0254 105.462C62.3534 105.955 62.5472 106.293 62.4608 106.383Z" fill="#292625"/>
<path d="M105.943 100.742C105.832 100.687 105.903 100.296 106.056 99.7047C106.201 99.1086 106.397 98.3014 106.551 97.3969C106.687 96.4898 106.752 95.6611 106.801 95.0499C106.84 94.4409 106.893 94.0466 107.016 94.0289C107.13 94.0117 107.293 94.3834 107.413 95.0193C107.523 95.6541 107.554 96.5559 107.407 97.5339C107.242 98.5092 106.931 99.3562 106.629 99.9255C106.316 100.492 106.045 100.794 105.943 100.742Z" fill="#292625"/>
<path d="M110.486 100.462C110.256 100.325 110.946 98.7845 111.613 96.8365C112.229 94.8714 112.586 93.2209 112.852 93.2467C113.063 93.2607 113.086 95.0357 112.437 97.1067C111.733 99.1599 110.664 100.576 110.486 100.462Z" fill="#292625"/>
<path d="M54.1292 121.7C54.0428 121.783 53.4856 121.297 52.6482 120.437C51.7608 119.617 50.8129 118.251 49.7559 116.753C48.8589 115.153 48.035 113.71 47.6769 112.555C47.2609 111.428 47.0628 110.717 47.1745 110.674C47.2861 110.631 47.685 111.26 48.2347 112.301C48.7269 113.372 49.6174 114.73 50.4886 116.29C51.5209 117.748 52.3637 119.137 53.1179 120.042C53.8205 120.987 54.2162 121.618 54.1292 121.7Z" fill="#292625"/>
<path d="M58.1347 122.257C57.9962 122.417 57.0139 121.732 56.3617 120.443C55.7653 119.127 55.8464 117.932 56.0573 117.924C56.3236 117.899 56.6193 118.914 57.1432 120.068C57.7149 121.199 58.3204 122.065 58.1347 122.257Z" fill="#292625"/>
<path d="M110.699 131.55C110.609 131.46 110.944 130.971 111.493 130.217C112.032 129.453 112.754 128.396 113.454 127.169C114.132 125.93 114.655 124.761 115.024 123.902C115.378 123.039 115.62 122.498 115.743 122.527C115.853 122.553 115.82 123.152 115.606 124.094C115.377 125.031 114.921 126.296 114.21 127.592C113.478 128.877 112.639 129.928 111.961 130.612C111.272 131.289 110.778 131.63 110.699 131.55Z" fill="#292625"/>
<path d="M105.943 134.309C105.769 134.127 106.437 133.232 107.006 132.022C107.575 130.812 107.839 129.727 108.09 129.744C108.205 129.755 108.284 130.057 108.27 130.549C108.247 131.038 108.102 131.709 107.79 132.391C107.463 133.067 107.039 133.606 106.677 133.935C106.308 134.259 106.024 134.391 105.943 134.309Z" fill="#292625"/>
<path d="M97.0443 139.659C96.8312 139.549 97.2488 138.313 97.9762 136.897C98.7041 135.481 99.4663 134.422 99.6794 134.531C99.892 134.641 99.4749 135.877 98.747 137.293C98.0197 138.709 97.2569 139.768 97.0443 139.659Z" fill="#292625"/>
<path d="M75.3004 142.888C75.4035 142.916 75.4222 143.328 75.1388 143.913C74.8629 144.493 74.2289 145.191 73.3244 145.606C72.4189 146.018 71.4763 146.04 70.8573 145.868C70.2298 145.699 69.9314 145.415 69.9781 145.319C70.0301 145.199 70.393 145.264 70.9379 145.26C71.4822 145.261 72.2208 145.153 72.9648 144.817C73.705 144.474 74.2708 143.987 74.6272 143.575C74.9869 143.167 75.1759 142.849 75.3004 142.888Z" fill="#292625"/>
<path d="M61.9492 139.144C62.0748 139.152 62.1645 139.474 62.2697 139.957C62.3883 140.442 62.5596 141.088 62.8306 141.775C63.1221 142.452 63.4555 143.031 63.7131 143.459C63.9788 143.876 64.142 144.167 64.0583 144.261C63.9847 144.347 63.6664 144.211 63.2461 143.856C62.8365 143.493 62.3609 142.882 62.0292 142.105C61.7173 141.32 61.6239 140.551 61.6588 140.005C61.7066 139.456 61.8365 139.135 61.9492 139.144Z" fill="#292625"/>
<path d="M68.1196 135.388C68.3531 135.441 68.0874 137.519 67.5254 140.03C66.9633 142.542 66.3186 144.536 66.0851 144.484C65.8516 144.431 66.1179 142.353 66.6794 139.841C67.2414 137.329 67.8861 135.336 68.1196 135.388Z" fill="#292625"/>
<path d="M104.3 138.326C104.405 138.362 104.331 138.892 104.033 139.701C103.72 140.5 103.128 141.553 102.257 142.547C101.364 143.522 100.384 144.226 99.6235 144.625C98.8522 145.009 98.3336 145.141 98.2864 145.04C98.23 144.925 98.6434 144.602 99.2913 144.11C99.9317 143.6 100.779 142.875 101.612 141.969C102.421 141.041 103.049 140.119 103.485 139.427C103.903 138.729 104.179 138.282 104.3 138.326Z" fill="#292625"/>
<path d="M101.109 75.8234C101.106 75.9361 100.464 76.0215 99.4201 75.9915C98.3787 75.9464 96.9412 75.7374 95.4113 75.2766C93.889 74.7911 92.5846 74.1504 91.7005 73.5983C90.8223 73.0327 90.3408 72.5993 90.4014 72.5048C90.4691 72.3973 91.0617 72.6433 91.9855 73.0558C92.9185 73.4554 94.2057 73.9812 95.6679 74.4479C97.1377 74.8899 98.4963 75.1842 99.4915 75.3824C100.487 75.565 101.114 75.6971 101.109 75.8234Z" fill="#292625"/>
<path d="M106.476 78.4456C106.521 78.545 106.021 78.8822 105.117 79.2469C104.209 79.5912 102.877 79.893 101.381 79.9097C99.885 79.8903 98.5537 79.5853 97.6466 79.2394C96.7437 78.8726 96.2434 78.5348 96.2885 78.4354C96.34 78.3162 96.9181 78.4488 97.8183 78.6513C98.7282 78.8334 99.9827 79.0224 101.382 79.0423C102.781 79.0251 104.035 78.8387 104.946 78.6583C105.847 78.4579 106.425 78.3264 106.476 78.4456Z" fill="#292625"/>
<path d="M63.0507 75.3453C63.0754 75.3996 62.8703 75.543 62.4736 75.7573C62.2755 75.8641 62.0297 75.9887 61.7415 76.1289C61.4516 76.2643 61.1279 76.4388 60.7435 76.5602C59.2405 77.1408 57.067 77.7256 54.6037 77.9534C52.136 78.1301 49.8965 77.9072 48.3189 77.5796C47.92 77.5221 47.5722 77.4023 47.2641 77.3159C46.957 77.2251 46.694 77.1424 46.4809 77.0688C46.0552 76.9222 45.8292 76.8142 45.8448 76.7562C45.8786 76.6268 46.8567 76.7777 48.415 76.9737C49.9813 77.1402 52.1473 77.2584 54.5328 77.0892C56.9146 76.8674 59.0317 76.398 60.5503 75.9785C62.056 75.5312 62.9959 75.2229 63.0507 75.3453Z" fill="#292625"/>
<path d="M67.2833 77.3611C67.3397 77.4594 66.8141 77.882 65.8753 78.4304C64.9316 78.9658 63.5547 79.5872 61.9626 80.0636C60.3635 80.5175 58.869 80.7334 57.7852 80.7887C56.6993 80.8311 56.0283 80.757 56.0235 80.6437C56.0165 80.518 56.6703 80.3751 57.7106 80.1802C58.7509 79.9718 60.174 79.6694 61.7199 79.2312C63.2589 78.7698 64.6219 78.2601 65.6117 77.8767C66.5935 77.4819 67.2216 77.251 67.2833 77.3611Z" fill="#292625"/>
</g>
<defs>
<clipPath id="clip0_1146_4048">
<rect width="165" height="171" fill="white"/>
</clipPath>
</defs>
</svg>
