<svg width="25" height="24" viewBox="0 0 25 24" fill="none" xmlns="http://www.w3.org/2000/svg">
<path d="M4.5 4H8.51V2H2.5V8H4.5V4ZM4.5 16H2.5V22H8.51V20H4.5V16ZM20.5 20H16.5V22H22.5V16H20.5V20ZM16.5 4H20.5V8H22.5V2H16.5V4Z" fill="#181818"/>
<path d="M5.5 11H11.5V5H5.5V11ZM7.5 7H9.5V9H7.5V7ZM5.5 19H11.5V13H5.5V19ZM7.5 15H9.5V17H7.5V15ZM19.5 5H13.5V11H19.5V5ZM17.5 9H15.5V7H17.5V9ZM13.51 13H15.51V15H13.51V13ZM15.51 15H17.51V17H15.51V15ZM17.51 17H19.51V19H17.51V17ZM17.51 13H19.51V15H17.51V13Z" fill="#181818"/>
</svg>
