<svg width="30" height="25" viewBox="0 0 30 25" fill="none" xmlns="http://www.w3.org/2000/svg">
<path d="M12.1101 18.276C12.0369 18.3833 11.9637 18.5026 11.8905 18.6218C11.8052 18.741 11.7198 18.8602 11.6222 18.9675C11.5369 19.0748 11.4393 19.1821 11.3295 19.2894C11.1222 19.4921 10.8905 19.6709 10.6587 19.8378C10.6587 19.8378 10.6587 19.8378 10.6466 19.8378C10.5734 19.8975 10.488 19.9332 10.3904 19.9928C10.366 20.0048 10.3173 20.0286 10.2929 20.0524C10.1709 20.1001 10.0368 20.1597 9.9026 20.2194C9.76845 20.267 9.64649 20.3028 9.51233 20.3505C8.71959 20.6009 7.84161 20.6009 7.04875 20.3505C6.92692 20.3028 6.79264 20.267 6.65848 20.2194C6.53652 20.1597 6.40237 20.1001 6.28041 20.0405C6.24382 20.0286 6.20723 20.0048 6.17065 19.9928C6.08528 19.9332 5.98771 19.8975 5.91453 19.8378C5.91453 19.8259 5.91453 19.8259 5.91453 19.8259C5.80477 19.7544 5.69501 19.6709 5.58524 19.5875C5.46328 19.504 5.34132 19.3967 5.23156 19.2894C5.13399 19.1821 5.03643 19.0867 4.93886 18.9675C4.84129 18.8602 4.76812 18.741 4.67055 18.6218C4.59737 18.5026 4.53639 18.3833 4.46322 18.2641C3.80464 17.048 3.80464 15.5697 4.46322 14.3417C4.53639 14.2225 4.59737 14.1152 4.67055 13.996C4.76812 13.8648 4.84129 13.7575 4.93886 13.6502C5.03643 13.531 5.13399 13.4237 5.23156 13.3283C5.43877 13.1256 5.67061 12.9468 5.91453 12.7799C5.98771 12.7203 6.08528 12.6845 6.17065 12.6249C6.20723 12.6011 6.24382 12.5891 6.28041 12.5653C6.40237 12.5176 6.53652 12.458 6.65848 12.3984C6.79264 12.3507 6.92692 12.3149 7.04875 12.2672C7.84161 12.0169 8.71959 12.0169 9.51233 12.2672C9.64649 12.303 9.76845 12.3507 9.9026 12.3984C10.0368 12.4461 10.1709 12.5057 10.2929 12.5653C10.3173 12.5891 10.366 12.613 10.3904 12.6249C10.488 12.6726 10.5734 12.7203 10.6466 12.7799C10.6587 12.7799 10.6587 12.7799 10.6587 12.7799C10.8905 12.9468 11.1222 13.1256 11.3295 13.3283C11.4393 13.4356 11.5369 13.531 11.6222 13.6502C11.6344 13.6621 11.6344 13.6621 11.6344 13.6741C11.732 13.7694 11.8052 13.8887 11.8905 13.996C11.9637 14.1152 12.0369 14.2344 12.1101 14.3417C12.7564 15.5697 12.7564 17.048 12.1101 18.276ZM25.9646 7.3672L28.4038 4.98276L24.6231 1.28687C24.5743 1.23918 24.5133 1.17957 24.4523 1.1438C23.9645 0.738449 23.3547 0.547693 22.7571 0.595381C22.196 0.631149 21.6473 0.85767 21.2082 1.28687L11.793 10.4908C9.14645 8.96478 5.68281 9.31052 3.40217 11.54C1.13373 13.7575 0.767851 17.1434 2.32893 19.7425L1.2191 20.8155C0.706872 21.3162 0.523933 22.0196 0.645892 22.6634C0.731264 23.0568 0.914202 23.4145 1.2191 23.7126L1.30447 23.796C1.73133 24.2133 2.29246 24.4041 2.84116 24.4041C3.35339 24.3802 3.87781 24.1895 4.28028 23.796L5.58524 22.5203C8.0976 23.5576 11.11 23.0807 13.1589 21.0778C15.2078 19.0748 15.6958 16.13 14.6346 13.6741L19.2569 9.15553L21.6961 11.54L24.1352 9.15553L21.6961 6.77109L23.5254 4.98276L25.9646 7.3672Z" fill="#FF7A01"/>
<path d="M11.7928 10.4907C10.7159 9.86951 9.50353 9.55834 8.29077 9.55834C9.50365 9.55834 10.7158 9.86951 11.7928 10.4907ZM8.28577 9.55834C8.28686 9.55834 8.28808 9.55834 8.28918 9.55834C8.28808 9.55834 8.28686 9.55834 8.28577 9.55834ZM24.4396 1.13291C24.437 1.13053 24.4343 1.12934 24.4316 1.12695C24.4343 1.12934 24.437 1.13053 24.4396 1.13291ZM24.4316 1.12695C23.9984 0.774055 23.4717 0.589257 22.9438 0.588065C23.4718 0.589257 23.9984 0.774055 24.4316 1.12695Z" fill="white"/>
<path d="M1.29223 23.784L1.21905 23.7125C0.914152 23.4144 0.731213 23.0567 0.645842 22.6633C0.621572 22.5345 0.609376 22.4046 0.609498 22.2734C0.609864 21.7477 0.808901 21.216 1.21905 20.8154L2.32888 19.7424C1.69469 18.6861 1.37857 17.501 1.37882 16.3159C1.37906 14.5848 2.05532 12.8561 3.40212 11.5399C4.75331 10.2189 6.52001 9.5596 8.28586 9.5584C8.28695 9.5584 8.28818 9.5584 8.28927 9.5584C8.28976 9.5584 8.29025 9.5584 8.29086 9.5584C9.50362 9.5584 10.716 9.86958 11.7929 10.4907L21.2082 1.28677C21.6472 0.857574 22.1959 0.63105 22.7571 0.595284C22.8172 0.590515 22.8773 0.588129 22.9376 0.588129C22.9396 0.588129 22.9417 0.588129 22.9439 0.588129C23.4717 0.589321 23.9985 0.774118 24.4317 1.12702C24.4344 1.1294 24.437 1.13059 24.4397 1.13298C24.444 1.13655 24.4481 1.14013 24.4523 1.14371L11.6344 13.674C11.6344 13.662 11.6344 13.662 11.6222 13.6501C11.5368 13.5309 11.4392 13.4355 11.3295 13.3282C11.1221 13.1255 10.8904 12.9467 10.6587 12.7798C10.6587 12.7798 10.6587 12.7798 10.6465 12.7798C10.5733 12.7202 10.488 12.6725 10.3904 12.6248C10.366 12.6129 10.3172 12.589 10.2928 12.5652C10.1709 12.5056 10.0367 12.446 9.90255 12.3983C9.76839 12.3506 9.64644 12.3029 9.51228 12.2671C9.11591 12.142 8.6982 12.08 8.28049 12.08C7.86278 12.08 7.44507 12.142 7.0487 12.2671C6.92687 12.3148 6.79259 12.3506 6.65843 12.3983C6.53647 12.4579 6.40232 12.5175 6.28036 12.5652C6.24377 12.589 6.20718 12.601 6.1706 12.6248C6.08523 12.6844 5.98766 12.7202 5.91448 12.7798C5.67056 12.9467 5.43872 13.1255 5.23151 13.3282C5.13394 13.4236 5.03638 13.5309 4.93881 13.6501C4.84124 13.7574 4.76806 13.8647 4.6705 13.9959C4.59732 14.1151 4.53634 14.2224 4.46317 14.3416C4.13388 14.9556 3.96923 15.6316 3.96923 16.3076C3.96923 16.9824 4.13388 17.656 4.46317 18.264C4.53634 18.3832 4.59732 18.5025 4.6705 18.6217C4.76806 18.7409 4.84124 18.8601 4.93881 18.9674C5.03638 19.0866 5.13394 19.182 5.23151 19.2893C5.34127 19.3966 5.46323 19.5039 5.58519 19.5874L1.29223 23.784Z" fill="#F7A80E"/>
<path d="M10.6465 19.8376H10.6584H10.6465ZM5.0756 18.1303L5.17317 18.2841C5.26915 18.4165 5.32562 18.4952 5.39416 18.5691C5.49539 18.6943 5.57698 18.7837 5.66272 18.8671C5.84383 19.0448 6.04689 19.2009 6.25531 19.3416L6.58631 19.5336C6.65778 19.5658 6.78108 19.6218 6.89841 19.6707C6.99427 19.7053 7.11635 19.7446 7.23782 19.7828C7.91372 19.9723 8.64864 19.9735 9.34357 19.7768C9.4454 19.7446 9.56688 19.7053 9.69371 19.66C9.78006 19.6218 9.90336 19.5658 10.0153 19.5133L10.3345 19.3249L10.3362 19.3273C10.5708 19.1568 10.7429 19.0197 10.8984 18.8671C10.9854 18.7825 11.0676 18.6919 11.1449 18.5977C11.236 18.4952 11.2956 18.4117 11.3611 18.3211L11.4855 18.1303C11.4969 18.0981 11.5522 18.0135 11.569 17.9825C12.1466 16.95 12.1466 15.6672 11.569 14.6324L12.009 14.1817L11.4855 14.4869L11.388 14.3331C11.2956 14.2055 11.236 14.1221 11.1641 14.0422C11.0676 13.9254 10.9854 13.8348 10.8984 13.7501C10.7173 13.5725 10.5143 13.4163 10.3058 13.2756L9.97483 13.0837C9.90336 13.0515 9.78006 12.9954 9.66274 12.9466C9.56688 12.912 9.4454 12.8726 9.32393 12.8345C8.64742 12.6449 7.9125 12.6437 7.21818 12.8404C7.11635 12.8726 6.99427 12.912 6.86621 12.9573C6.78108 12.9954 6.65778 13.0515 6.54582 13.1051L6.22666 13.2923L6.22495 13.2899C5.9903 13.4604 5.81821 13.5975 5.66272 13.7501C5.57576 13.8348 5.49417 13.9242 5.41794 14.0184C5.32806 14.1197 5.27086 14.1996 5.20842 14.2854L5.0756 14.4869C5.06365 14.5227 5.0106 14.6002 4.99218 14.6347C4.41459 15.6672 4.41459 16.95 4.99218 17.9825L4.55216 18.4355L5.0756 18.1303ZM8.27521 21.1157C7.8042 21.1157 7.33551 21.0513 6.87999 20.9225C6.72571 20.8736 6.59168 20.8295 6.45057 20.7795C6.27971 20.7091 6.13494 20.6447 6.00274 20.5792L5.60259 20.3503C5.55917 20.324 5.51917 20.2942 5.48343 20.2584C5.26671 20.1225 5.01718 19.9222 4.80046 19.7112C4.67899 19.592 4.56521 19.4668 4.45861 19.3333C4.38654 19.257 4.30384 19.1449 4.21506 19.0233C4.11981 18.891 4.07456 18.8171 4.0281 18.7419C3.9548 18.6227 3.90894 18.55 3.87687 18.4522C3.1467 17.1694 3.1467 15.4478 3.92272 14.0613L3.98224 13.9504C4.07456 13.8002 4.11981 13.7263 4.16798 13.6571C4.30385 13.4723 4.38544 13.3614 4.48191 13.2541C4.56642 13.1492 4.68021 13.0241 4.80046 12.906C5.01718 12.695 5.26671 12.4947 5.5621 12.2956L5.96225 12.0595C6.13494 11.9725 6.27971 11.9081 6.41838 11.8497C6.59168 11.7877 6.72571 11.7436 6.86023 11.7007C7.79639 11.4348 8.76475 11.436 9.68176 11.6947C9.83604 11.7436 9.97056 11.7877 10.1118 11.8378C10.2814 11.9081 10.4262 11.9725 10.5584 12.0381L10.9586 12.267C11.002 12.2932 11.042 12.323 11.0777 12.3588C11.2944 12.4947 11.544 12.695 11.7607 12.906C11.8809 13.0241 11.9941 13.148 12.1001 13.2792C12.18 13.3662 12.2645 13.4807 12.3544 13.6047C12.4413 13.7263 12.4866 13.8002 12.533 13.8753C12.6051 13.9933 12.6481 14.0613 12.6801 14.1495C13.4144 15.4478 13.4144 17.1706 12.6396 18.556L12.5795 18.6668C12.4866 18.8171 12.4413 18.891 12.3932 18.9601C12.2645 19.1366 12.18 19.251 12.0811 19.3607C11.9941 19.4692 11.8809 19.5932 11.7607 19.7112C11.544 19.9222 11.2944 20.1225 10.999 20.3216L10.5989 20.5577C10.4262 20.6447 10.2814 20.7091 10.1428 20.7675C9.97056 20.8295 9.83604 20.8736 9.7014 20.9166C9.23039 21.0501 8.75158 21.1157 8.27521 21.1157Z" fill="#2C2D34"/>
<path d="M4.67105 19.2176C4.47641 19.2176 4.28578 19.127 4.16785 18.9601C4.11967 18.8909 4.07443 18.817 4.02796 18.7419C3.9732 18.6525 3.93381 18.5893 3.90405 18.5213C3.14656 17.1419 3.15254 15.4371 3.92259 14.0612L3.92551 14.0553C3.94698 14.0124 3.96954 13.9706 3.98211 13.9504C4.07443 13.8001 4.11967 13.7262 4.16785 13.6571C4.35432 13.3936 4.72167 13.3185 4.99985 13.4937C5.2767 13.6666 5.36305 14.0243 5.19389 14.2997L4.99083 14.6371C4.4364 15.685 4.4364 16.9321 4.99083 17.9801L5.19389 18.3175C5.36305 18.5929 5.2767 18.9505 4.99985 19.1234C4.89802 19.1878 4.78362 19.2176 4.67105 19.2176ZM11.8898 19.2176C11.7773 19.2176 11.6629 19.1878 11.561 19.1234C11.2842 18.9505 11.1978 18.5929 11.367 18.3175L11.5707 17.9789C12.1245 16.9321 12.1245 15.6862 11.5711 14.6371L11.367 14.2997C11.1978 14.0243 11.2842 13.6666 11.561 13.4937C11.8398 13.3185 12.2061 13.3936 12.393 13.6571C12.4412 13.7262 12.4864 13.8001 12.5329 13.8752L12.5728 13.9408L12.568 13.9432L12.5746 13.9539L12.5794 13.9515C12.5907 13.9694 12.6127 14.01 12.6335 14.0505L12.6395 14.0612C13.4143 15.4478 13.4143 17.1705 12.6395 18.5559L12.6347 18.5643C12.6133 18.606 12.5907 18.6477 12.5794 18.6668L12.574 18.6644L12.5657 18.6775L12.555 18.6704L12.5657 18.6775L12.5288 18.7383L12.5329 18.7419C12.4864 18.817 12.4412 18.8909 12.393 18.9601C12.2751 19.127 12.0845 19.2176 11.8898 19.2176Z" fill="#2C2D34"/>
<path d="M10.6465 19.8376H10.6584H10.6465ZM5.0756 18.1303L5.17317 18.2841C5.26915 18.4165 5.32562 18.4952 5.39416 18.5691C5.49539 18.6943 5.57698 18.7837 5.66272 18.8671C5.84383 19.0448 6.04689 19.2009 6.25531 19.3416L6.58631 19.5336C6.65778 19.5658 6.78108 19.6218 6.89841 19.6707C6.99427 19.7053 7.11635 19.7446 7.23782 19.7828C7.91372 19.9723 8.64864 19.9735 9.34357 19.7768C9.4454 19.7446 9.56688 19.7053 9.69371 19.66C9.78006 19.6218 9.90336 19.5658 10.0153 19.5133L10.3345 19.3249L10.3362 19.3273C10.5708 19.1568 10.7429 19.0197 10.8984 18.8671C10.9854 18.7825 11.0676 18.6919 11.1449 18.5977C11.236 18.4952 11.2956 18.4117 11.3611 18.3211L11.4855 18.1303C11.4969 18.0981 11.5522 18.0135 11.569 17.9825C12.1466 16.95 12.1466 15.6672 11.569 14.6324L12.009 14.1817L11.4855 14.4869L11.388 14.3331C11.2956 14.2055 11.236 14.1221 11.1641 14.0422C11.0676 13.9254 10.9854 13.8348 10.8984 13.7501C10.7173 13.5725 10.5143 13.4163 10.3058 13.2756L9.97483 13.0837C9.90336 13.0515 9.78006 12.9954 9.66274 12.9466C9.56688 12.912 9.4454 12.8726 9.32393 12.8345C8.64742 12.6449 7.9125 12.6437 7.21818 12.8404C7.11635 12.8726 6.99427 12.912 6.86621 12.9573C6.78108 12.9954 6.65778 13.0515 6.54582 13.1051L6.22666 13.2923L6.22495 13.2899C5.9903 13.4604 5.81821 13.5975 5.66272 13.7501C5.57576 13.8348 5.49417 13.9242 5.41794 14.0184C5.32806 14.1197 5.27086 14.1996 5.20842 14.2854L5.0756 14.4869C5.06365 14.5227 5.0106 14.6002 4.99218 14.6347C4.41459 15.6672 4.41459 16.95 4.99218 17.9825L4.55216 18.4355L5.0756 18.1303ZM8.27521 21.1157C7.8042 21.1157 7.33551 21.0513 6.87999 20.9225C6.72571 20.8736 6.59168 20.8295 6.45057 20.7795C6.27971 20.7091 6.13494 20.6447 6.00274 20.5792L5.60259 20.3503C5.55917 20.324 5.51917 20.2942 5.48343 20.2584C5.26671 20.1225 5.01718 19.9222 4.80046 19.7112C4.67899 19.592 4.56521 19.4668 4.45861 19.3333C4.38654 19.257 4.30384 19.1449 4.21506 19.0233C4.11981 18.891 4.07456 18.8171 4.0281 18.7419C3.9548 18.6227 3.90894 18.55 3.87687 18.4522C3.1467 17.1694 3.1467 15.4478 3.92272 14.0613L3.98224 13.9504C4.07456 13.8002 4.11981 13.7263 4.16798 13.6571C4.30385 13.4723 4.38544 13.3614 4.48191 13.2541C4.56642 13.1492 4.68021 13.0241 4.80046 12.906C5.01718 12.695 5.26671 12.4947 5.5621 12.2956L5.96225 12.0595C6.13494 11.9725 6.27971 11.9081 6.41838 11.8497C6.59168 11.7877 6.72571 11.7436 6.86023 11.7007C7.79639 11.4348 8.76475 11.436 9.68176 11.6947C9.83604 11.7436 9.97056 11.7877 10.1118 11.8378C10.2814 11.9081 10.4262 11.9725 10.5584 12.0381L10.9586 12.267C11.002 12.2932 11.042 12.323 11.0777 12.3588C11.2944 12.4947 11.544 12.695 11.7607 12.906C11.8809 13.0241 11.9941 13.148 12.1001 13.2792C12.18 13.3662 12.2645 13.4807 12.3544 13.6047C12.4413 13.7263 12.4866 13.8002 12.533 13.8753C12.6051 13.9933 12.6481 14.0613 12.6801 14.1495C13.4144 15.4478 13.4144 17.1706 12.6396 18.556L12.5795 18.6668C12.4866 18.8171 12.4413 18.891 12.3932 18.9601C12.2645 19.1366 12.18 19.251 12.0811 19.3607C11.9941 19.4692 11.8809 19.5932 11.7607 19.7112C11.544 19.9222 11.2944 20.1225 10.999 20.3216L10.5989 20.5577C10.4262 20.6447 10.2814 20.7091 10.1428 20.7675C9.97056 20.8295 9.83604 20.8736 9.7014 20.9166C9.23039 21.0501 8.75158 21.1157 8.27521 21.1157Z" fill="#2C2D34"/>
<path d="M10.0152 19.5134L10.4392 19.9641L10.1277 19.4514C10.1885 19.4156 10.2456 19.3834 10.2993 19.3477C10.3076 19.3405 10.3063 19.3405 10.3207 19.331C10.5184 19.207 10.7071 19.0544 10.8983 18.8672C10.9853 18.7826 11.0675 18.692 11.1448 18.5978C11.2359 18.4952 11.2955 18.4118 11.361 18.3212L11.4854 18.1304C11.4968 18.0982 11.5521 18.0136 11.5689 17.9826C12.1465 16.9501 12.1465 15.6673 11.5689 14.6324L12.0089 14.1818L11.4854 14.487L11.3879 14.3332C11.2955 14.2056 11.2359 14.1222 11.164 14.0423C11.0675 13.9254 10.9853 13.8348 10.8983 13.7502C10.7071 13.563 10.5184 13.4104 10.3207 13.2864C10.285 13.2626 10.2516 13.2363 10.2212 13.2065C10.2456 13.2352 10.1879 13.2018 10.1277 13.166C10.0997 13.1565 10.0413 13.1171 10.0152 13.1052C9.90326 13.0515 9.77996 12.9955 9.66264 12.9466C9.55848 12.8966 9.47799 12.8691 9.38579 12.8513C8.65086 12.6212 7.90947 12.6224 7.2365 12.8346C7.08173 12.8703 7.00368 12.8966 6.92989 12.9311C6.78098 12.9955 6.65768 13.0515 6.54572 13.1052L6.12179 12.6533L6.43328 13.166C6.37242 13.2018 6.31534 13.234 6.26168 13.2697C6.04252 13.4104 5.85385 13.563 5.66262 13.7502C5.57566 13.8348 5.49407 13.9243 5.41784 14.0184C5.32796 14.1198 5.27076 14.1997 5.20832 14.2855L5.0755 14.487C5.06355 14.5228 5.0105 14.6002 4.99208 14.6348C4.41388 15.6673 4.41388 16.9501 4.99208 17.9826L4.55205 18.4356L5.0755 18.1304L5.17307 18.2842C5.26905 18.4166 5.32552 18.4952 5.39406 18.5692C5.49529 18.6943 5.57688 18.7838 5.66262 18.8672C5.85385 19.0544 6.04252 19.207 6.24021 19.331C6.27595 19.3548 6.30937 19.3811 6.33973 19.4109C6.31534 19.3823 6.37303 19.4156 6.43328 19.4514C6.46121 19.4609 6.51962 19.5003 6.54572 19.5134C6.65768 19.5659 6.78098 19.6219 6.89831 19.6708C7.00368 19.7208 7.08173 19.7471 7.17527 19.7661C7.91069 19.9962 8.6533 19.9951 9.32493 19.7828C9.47799 19.7483 9.55848 19.7208 9.63105 19.6863C9.77996 19.6219 9.90326 19.5659 10.0152 19.5134V19.5134ZM8.29303 21.136C7.813 21.136 7.32528 21.0633 6.86135 20.9166C6.72805 20.8928 6.55292 20.8344 6.38681 20.7533C6.27961 20.7092 6.13484 20.6448 6.00264 20.5792C5.98422 20.5709 5.86812 20.5101 5.8508 20.5006C5.72457 20.4266 5.6442 20.3789 5.56737 20.3277C5.30649 20.1596 5.05282 19.9581 4.80036 19.7113C4.67889 19.5921 4.56511 19.4669 4.45851 19.3334C4.38643 19.2571 4.30374 19.145 4.21496 19.0234C4.1191 18.8911 4.07446 18.8171 4.028 18.742C3.9547 18.6228 3.90884 18.5501 3.87676 18.4523C3.14659 17.1695 3.14659 15.4479 3.92262 14.0614L3.98214 13.9505C4.07446 13.8003 4.1191 13.7264 4.16788 13.6572C4.30375 13.4724 4.38534 13.3615 4.48181 13.2542C4.56632 13.1493 4.68011 13.0241 4.80036 12.9061C5.05282 12.6593 5.3065 12.4578 5.57688 12.285L5.57932 12.2897C5.68115 12.2158 5.74421 12.1788 5.81092 12.1407C5.89848 12.0882 5.97885 12.0394 6.08423 12.0048C6.13484 11.9726 6.27961 11.9082 6.41828 11.8498C6.55292 11.783 6.72805 11.7246 6.9227 11.6841C7.77605 11.4134 8.78489 11.4122 9.7002 11.7008C9.8335 11.7246 10.0086 11.783 10.1741 11.8641C10.2813 11.9082 10.4261 11.9726 10.5583 12.0382C10.5767 12.0465 10.6928 12.1073 10.7101 12.1168C10.8364 12.1908 10.9167 12.2385 10.9936 12.2897C11.2544 12.4578 11.5081 12.6593 11.7606 12.9061C11.8808 13.0241 11.994 13.1481 12.1 13.2793C12.1799 13.3663 12.2644 13.4808 12.3543 13.6047C12.4412 13.7264 12.4865 13.8003 12.5329 13.8754C12.605 13.9934 12.648 14.0614 12.68 14.1496C13.4143 15.4479 13.4143 17.1707 12.6389 18.556L12.5794 18.6669C12.4865 18.8171 12.4412 18.8911 12.3931 18.9602C12.2644 19.1367 12.1799 19.2511 12.081 19.3608C11.994 19.4693 11.8808 19.5933 11.7606 19.7113C11.5081 19.9581 11.2544 20.1596 10.9841 20.3325L10.9822 20.3289C10.881 20.4004 10.8173 20.4386 10.75 20.4767C10.6453 20.5387 10.5726 20.5816 10.4767 20.6126C10.4261 20.6448 10.2813 20.7092 10.1427 20.7676C10.0086 20.8344 9.8335 20.8928 9.63946 20.9333C9.21785 21.0669 8.75928 21.136 8.29303 21.136V21.136ZM8.28645 10.158C6.65829 10.158 5.04684 10.7744 3.83323 11.9619C1.80322 13.9457 1.40294 17.0193 2.86024 19.4335C3.00134 19.6672 2.96256 19.9652 2.76608 20.1584L1.65613 21.2433C1.30294 21.5891 1.15049 22.0767 1.2494 22.5488C1.30891 22.8409 1.44526 23.0901 1.65613 23.2963C2.02286 23.6552 2.40521 23.8078 2.81731 23.8078H2.83462C3.2116 23.7947 3.57419 23.6433 3.84213 23.381L5.15404 22.0981C5.32918 21.9276 5.5942 21.8764 5.82226 21.9706C8.19656 22.9541 10.9072 22.4355 12.7277 20.6555C14.5482 18.8767 15.0764 16.2276 14.0729 13.9052C13.9765 13.6822 14.0277 13.4235 14.2033 13.253L18.8257 8.73333C19.0639 8.50084 19.4497 8.50084 19.6879 8.73333L21.696 10.6969L23.2729 9.15537L21.2649 7.19297C21.0267 6.9593 21.0267 6.58256 21.2649 6.34888L23.0943 4.56055C23.3324 4.32807 23.7183 4.32807 23.9565 4.56055L25.9646 6.52414L27.5415 4.98259L24.1918 1.70875C23.8208 1.34512 23.3068 1.15556 22.7953 1.1961C22.351 1.22471 21.9532 1.40116 21.64 1.70875L12.2179 10.9187C12.0221 11.113 11.7166 11.15 11.4771 11.0105C10.4838 10.437 9.38091 10.158 8.28645 10.158V10.158ZM2.82926 25C2.07884 25 1.39233 24.7258 0.879493 24.2239C0.415073 23.7696 0.159569 23.3011 0.054196 22.786C-0.126304 21.9229 0.150055 21.0299 0.793756 20.4004L1.58039 19.6302C0.118467 16.8166 0.660455 13.377 2.97097 11.1178C5.2821 8.86089 8.79794 8.33036 11.679 9.75983L20.7771 0.865855C21.2952 0.357968 21.9819 0.0527582 22.7113 0.00626159C23.5766 -0.0485806 24.4324 0.257822 25.054 0.865855L28.8349 4.56055C28.9493 4.67262 29.0135 4.82403 29.0135 4.98259C29.0135 5.14116 28.9493 5.29257 28.8349 5.40464L26.3957 7.78908C26.1575 8.02157 25.7716 8.02157 25.5334 7.78908L23.5254 5.8255L22.5582 6.77093L24.5663 8.73333C24.8045 8.967 24.8045 9.34374 24.5663 9.57742L22.1271 11.9619C21.8889 12.1943 21.503 12.1943 21.2649 11.9619L19.2568 9.99827L15.3473 13.8193C16.3334 16.4959 15.6647 19.4705 13.59 21.4996C11.5147 23.5288 8.47109 24.1786 5.73469 23.2176L4.70511 24.2239C4.21789 24.7008 3.56345 24.9762 2.86194 25H2.82926" fill="#2C2D34"/>
</svg>
