<svg width="27" height="27" viewBox="0 0 27 27" fill="none" xmlns="http://www.w3.org/2000/svg">
<path d="M21.1854 14.7722C21 15.9504 20.5528 17.0086 19.8982 17.9249V17.9358C19.8763 17.9467 19.8654 17.9795 19.8327 18.0122C19.7345 18.154 19.6145 18.2958 19.4945 18.4267C19.4073 18.5467 19.2982 18.6449 19.2 18.754C19.1563 18.7976 19.1127 18.8413 19.0691 18.8958C18.9163 19.0486 18.7527 19.2013 18.5891 19.3322C18.4691 19.4413 18.3273 19.5504 18.1963 19.6486C18.1745 19.6704 18.1527 19.6813 18.1309 19.6922C18.12 19.7031 18.1091 19.7031 18.0982 19.714C17.1818 20.3795 16.1018 20.8376 14.9563 21.0231C14.5418 21.0995 14.1054 21.1322 13.68 21.1322C13.6254 21.1322 13.5709 21.1322 13.5163 21.1213C13.3309 21.1213 13.1454 21.1104 12.96 21.0995C12.7636 21.0776 12.5782 21.0558 12.4036 21.0231C11.2363 20.8376 10.1782 20.3795 9.26179 19.714C9.25088 19.7031 9.23997 19.7031 9.22906 19.6922C9.20724 19.6813 9.18543 19.6704 9.16361 19.6486C9.02179 19.5504 8.88008 19.4413 8.75997 19.3322C8.59634 19.2013 8.44361 19.0486 8.29088 18.8958C8.24724 18.8413 8.1927 18.7976 8.14906 18.754C8.05088 18.6449 7.94179 18.5467 7.85452 18.4267C7.74543 18.2958 7.62542 18.154 7.52735 18.0122C7.49451 17.9795 7.48361 17.9467 7.46179 17.9358V17.9249C6.80724 17.0086 6.34906 15.9504 6.16361 14.7722C6.08724 14.3685 6.05452 13.9322 6.05452 13.5067C6.05452 13.0704 6.08724 12.634 6.16361 12.2304C6.34906 11.0849 6.80724 9.994 7.46179 9.07764C7.58179 8.92491 7.70179 8.75036 7.85452 8.58673C7.90906 8.49945 7.98543 8.42309 8.06179 8.34673C8.1927 8.18309 8.35634 8.03036 8.51997 7.88855C8.59634 7.82309 8.6727 7.73582 8.75997 7.68127C8.9127 7.52855 9.09815 7.39763 9.25088 7.28854C10.1782 6.634 11.2363 6.17582 12.4036 5.97945C12.5782 5.94673 12.7636 5.92491 12.9491 5.914C13.1345 5.90309 13.3309 5.89218 13.5163 5.89218C13.5709 5.88127 13.6254 5.88127 13.68 5.88127C14.1054 5.88127 14.5418 5.914 14.9563 5.97945C16.1018 6.17582 17.1818 6.634 18.1091 7.28854C18.2618 7.39763 18.4365 7.52855 18.5891 7.68127C18.6763 7.73582 18.7527 7.82309 18.84 7.88855C19.0036 8.03036 19.1563 8.18309 19.2873 8.34673C19.3636 8.42309 19.44 8.49945 19.4945 8.58673C19.5274 8.60855 19.5381 8.64127 19.56 8.66309C19.6582 8.75036 19.7237 8.85945 19.7891 8.94673C19.8327 8.99036 19.8654 9.034 19.8982 9.07764C20.5528 9.994 21 11.0849 21.1854 12.2304C21.2727 12.634 21.3054 13.0704 21.3054 13.5067C21.3054 13.9322 21.2727 14.3685 21.1854 14.7722ZM23.76 12.2413V12.2304C23.5309 10.3758 22.8 8.674 21.7091 7.27764C21.4473 6.93945 21.1745 6.62309 20.8691 6.31763C20.7163 6.16491 20.5636 6.02309 20.4 5.88127C20.3127 5.80491 20.2254 5.72854 20.1382 5.66309C20.0945 5.64127 20.0727 5.61945 20.0291 5.58673L19.9745 5.53218C19.9527 5.51036 19.9418 5.49945 19.92 5.47763H19.9091C18.5127 4.37581 16.8108 3.64491 14.9563 3.42672H14.9454C14.5309 3.36127 14.1054 3.33945 13.68 3.33945C13.6254 3.33945 13.5709 3.33945 13.5163 3.35036C13.1345 3.35036 12.7636 3.37218 12.4036 3.42672C10.5382 3.64491 8.83634 4.37581 7.45088 5.47763H7.43997C7.38543 5.53218 7.33088 5.57582 7.27633 5.61945C7.25452 5.64127 7.2327 5.66309 7.19997 5.674C7.13452 5.72854 7.07997 5.77218 7.02543 5.82673C6.83997 5.97945 6.66543 6.14309 6.49088 6.31763H6.47997C6.35997 6.43764 6.25088 6.55763 6.14179 6.68854C6.13088 6.69945 6.10906 6.71036 6.10906 6.73218C6.07633 6.77582 6.04361 6.81945 6.01088 6.85218C5.98906 6.86309 5.96724 6.88491 5.95633 6.90672C5.88008 6.98309 5.81452 7.05945 5.74906 7.14673C5.71633 7.17945 5.68361 7.22309 5.63986 7.26673V7.27764C4.54895 8.674 3.81815 10.3758 3.59997 12.2304V12.2413C3.53451 12.6558 3.5127 13.0704 3.5127 13.5067C3.5127 13.9431 3.53451 14.3576 3.59997 14.7831C3.81815 16.6376 4.54895 18.3504 5.63986 19.7358V19.7467C5.68361 19.7795 5.71633 19.8231 5.74906 19.8667C5.90168 20.0522 6.05452 20.2267 6.20724 20.4013C6.29452 20.4995 6.3927 20.5976 6.47997 20.6958H6.49088C6.79633 21.0013 7.10179 21.274 7.43997 21.5358H7.45088C8.83634 22.6376 10.5382 23.3686 12.4036 23.5867C12.7636 23.6413 13.1345 23.6631 13.5163 23.6631C13.5709 23.674 13.6254 23.674 13.68 23.674C14.1054 23.674 14.5309 23.6522 14.9454 23.5867H14.9563C16.8108 23.3686 18.5127 22.6376 19.9091 21.5358C19.9309 21.514 19.9527 21.5031 19.9745 21.4813C19.9963 21.4595 20.0073 21.4486 20.0291 21.4267C20.0727 21.394 20.0945 21.3722 20.1382 21.3504C20.2254 21.2849 20.3127 21.2086 20.4 21.1322C20.5636 20.9904 20.7163 20.8486 20.8691 20.6958C21.1745 20.3904 21.4365 20.0849 21.7091 19.7467V19.7358C22.8 18.3504 23.5309 16.6376 23.76 14.7831C23.8145 14.3576 23.8473 13.9431 23.8473 13.5067C23.8473 13.0704 23.8145 12.6558 23.76 12.2413Z" fill="#FF8618"/>
<path d="M12.3996 10.438V12.0416C12.3333 12.0973 12.2669 12.1638 12.2116 12.2303H10.6082L7.45667 9.0787C7.5783 8.92379 7.69994 8.74707 7.85474 8.59216C7.91005 8.5038 7.9875 8.42635 8.06485 8.34889C8.13117 8.27144 8.20863 8.19398 8.28609 8.11653L8.51823 7.88416C8.59568 7.81761 8.67303 7.74016 8.76151 7.68452C8.91631 7.52961 9.09325 7.39762 9.24805 7.28744L12.3996 10.438Z" fill="#FF8618"/>
<path d="M19.8981 9.07762L16.7454 12.2303H15.1418C15.0872 12.1649 15.0218 12.0994 14.9563 12.0449V10.4413L18.109 7.28853C18.2618 7.39762 18.4364 7.52853 18.589 7.68125C18.6763 7.7358 18.7527 7.82307 18.8399 7.88853L19.069 8.11762C19.1454 8.19398 19.2218 8.27034 19.2872 8.34671C19.3636 8.42307 19.4399 8.49944 19.4945 8.58671C19.5273 8.60853 19.538 8.64125 19.5599 8.66307C19.6581 8.75034 19.7237 8.85944 19.789 8.94671C19.8327 8.99034 19.8654 9.03398 19.8981 9.07762Z" fill="#FF8618"/>
<path d="M12.3996 14.9718V16.5755L9.25917 19.7162C9.24805 19.7053 9.23703 19.7053 9.2259 19.6944C9.20387 19.6835 9.18172 19.6715 9.15958 19.6496C9.02692 19.5504 8.88314 19.4402 8.76151 19.3289C8.59569 19.1969 8.44089 19.0529 8.28609 18.898C8.2418 18.8424 8.19761 18.7987 8.15332 18.754C8.05383 18.6438 7.94321 18.5435 7.85474 18.4224C7.74423 18.3002 7.62259 18.1573 7.52299 18.0133C7.48994 17.9805 7.47881 17.9467 7.45667 17.9358V17.9249L10.6082 14.7733H12.2116C12.2669 14.8507 12.3333 14.9064 12.3996 14.9718Z" fill="#FF8618"/>
<path d="M19.8981 17.925V17.9359C19.8763 17.9468 19.8654 17.9795 19.8327 18.0122C19.7345 18.154 19.6145 18.2959 19.4945 18.4268C19.4072 18.5468 19.2981 18.645 19.1999 18.754C19.1563 18.7977 19.1127 18.8413 19.069 18.8959C18.9163 19.0486 18.7527 19.2013 18.589 19.3322C18.469 19.4413 18.3272 19.5504 18.1963 19.6486C18.1745 19.6704 18.1527 19.6813 18.1308 19.6922C18.1199 19.7031 18.109 19.7031 18.0981 19.7141L14.9563 16.5722V14.9686C15.0218 14.914 15.0872 14.8486 15.1418 14.7722H16.7454L19.8981 17.925Z" fill="#FF8618"/>
<path d="M12.3996 10.438V12.0416C12.3333 12.0973 12.2669 12.1638 12.2116 12.2303H10.6082L7.45667 9.0787C7.5783 8.92379 7.69994 8.74707 7.85474 8.59216C7.91005 8.5038 7.9875 8.42635 8.06485 8.34889C8.13117 8.27144 8.20863 8.19398 8.28609 8.11653L8.51823 7.88416C8.59568 7.81761 8.67303 7.74016 8.76151 7.68452C8.91631 7.52961 9.09325 7.39762 9.24805 7.28744L12.3996 10.438Z" fill="#FF8618"/>
<path d="M19.8981 9.07762L16.7454 12.2303H15.1418C15.0872 12.1649 15.0218 12.0994 14.9563 12.0449V10.4413L18.109 7.28853C18.2618 7.39762 18.4364 7.52853 18.589 7.68125C18.6763 7.7358 18.7527 7.82307 18.8399 7.88853L19.069 8.11762C19.1454 8.19398 19.2218 8.27034 19.2872 8.34671C19.3636 8.42307 19.4399 8.49944 19.4945 8.58671C19.5273 8.60853 19.538 8.64125 19.5599 8.66307C19.6581 8.75034 19.7237 8.85944 19.789 8.94671C19.8327 8.99034 19.8654 9.03398 19.8981 9.07762Z" fill="#FF8618"/>
<path d="M12.3996 14.9718V16.5755L9.25917 19.7162C9.24805 19.7053 9.23703 19.7053 9.2259 19.6944C9.20387 19.6835 9.18172 19.6715 9.15958 19.6496C9.02692 19.5504 8.88314 19.4402 8.76151 19.3289C8.59569 19.1969 8.44089 19.0529 8.28609 18.898C8.2418 18.8424 8.19761 18.7987 8.15332 18.754C8.05383 18.6438 7.94321 18.5435 7.85474 18.4224C7.74423 18.3002 7.62259 18.1573 7.52299 18.0133C7.48994 17.9805 7.47881 17.9467 7.45667 17.9358V17.9249L10.6082 14.7733H12.2116C12.2669 14.8507 12.3333 14.9064 12.3996 14.9718Z" fill="#FF8618"/>
<path d="M19.8981 17.925V17.9359C19.8763 17.9468 19.8654 17.9795 19.8327 18.0122C19.7345 18.154 19.6145 18.2959 19.4945 18.4268C19.4072 18.5468 19.2981 18.645 19.1999 18.754C19.1563 18.7977 19.1127 18.8413 19.069 18.8959C18.9163 19.0486 18.7527 19.2013 18.589 19.3322C18.469 19.4413 18.3272 19.5504 18.1963 19.6486C18.1745 19.6704 18.1527 19.6813 18.1308 19.6922C18.1199 19.7031 18.109 19.7031 18.0981 19.7141L14.9563 16.5722V14.9686C15.0218 14.914 15.0872 14.8486 15.1418 14.7722H16.7454L19.8981 17.925Z" fill="#FF8618"/>
<path d="M14.9455 1.64851V3.4267C14.531 3.36124 14.1055 3.33942 13.6801 3.33942C13.6255 3.33942 13.571 3.33942 13.5164 3.35033C13.1346 3.35033 12.7637 3.37215 12.4037 3.4267V1.64851C12.4037 1.25579 12.5782 0.906695 12.8619 0.677604C13.0364 0.524877 13.2655 0.415786 13.5164 0.383058C13.571 0.372149 13.6255 0.372149 13.6801 0.372149C13.9637 0.372149 14.2255 0.470331 14.4437 0.633968C14.7491 0.863059 14.9455 1.23397 14.9455 1.64851Z" fill="#FF8618"/>
<path d="M11.7362 13.5013C11.7362 13.9878 11.9132 14.4416 12.2116 14.7733H6.16297C6.08552 14.3642 6.05225 13.9333 6.05225 13.5013C6.05225 13.0703 6.08552 12.6394 6.16297 12.2303H12.2116C11.9132 12.5729 11.7362 13.0256 11.7362 13.5013Z" fill="#FF8618"/>
<path d="M14.9564 5.97946V12.0449C14.6074 11.7395 14.1601 11.554 13.6801 11.554C13.6255 11.554 13.571 11.554 13.5164 11.5649C13.091 11.5976 12.6983 11.7722 12.4037 12.0449V5.97946C12.5782 5.94674 12.7637 5.92492 12.9491 5.91401C13.1346 5.9031 13.331 5.89219 13.5164 5.89219C13.571 5.88128 13.6255 5.88128 13.6801 5.88128C14.1055 5.88128 14.5419 5.91401 14.9564 5.97946Z" fill="#FF8618"/>
<path d="M14.9564 14.9685V21.0231C14.5419 21.0994 14.1055 21.1321 13.6801 21.1321C13.6255 21.1321 13.571 21.1321 13.5164 21.1212C13.331 21.1212 13.1455 21.1103 12.9601 21.0994C12.7637 21.0776 12.5782 21.0558 12.4037 21.0231V14.9685C12.6983 15.2412 13.091 15.4049 13.5164 15.4376C13.571 15.4485 13.6255 15.4485 13.6801 15.4485C14.1601 15.4485 14.6074 15.274 14.9564 14.9685Z" fill="#FF8618"/>
<path d="M21.3055 13.5068C21.3055 13.9322 21.2728 14.3686 21.1855 14.7722H15.1418C15.4365 14.4449 15.6328 13.9868 15.6328 13.5068C15.6328 13.0268 15.4365 12.5686 15.1418 12.2304H21.1855C21.2728 12.634 21.3055 13.0704 21.3055 13.5068Z" fill="#FF8618"/>
<path d="M14.9455 23.5867V25.3649C14.9455 25.7467 14.7819 26.0849 14.531 26.314C14.3019 26.5103 14.0073 26.6412 13.6801 26.6412C13.6255 26.6412 13.571 26.6412 13.5164 26.6303C13.3201 26.5976 13.1237 26.5321 12.971 26.4231C12.6328 26.194 12.4037 25.8012 12.4037 25.3649V23.5867C12.7637 23.6412 13.1346 23.6631 13.5164 23.6631C13.571 23.674 13.6255 23.674 13.6801 23.674C14.1055 23.674 14.531 23.6521 14.9455 23.5867Z" fill="#FF8618"/>
<path d="M3.59526 12.2369C3.53603 12.6515 3.51061 13.0747 3.51061 13.5067C3.51061 13.9387 3.53603 14.3631 3.59526 14.7776H1.81621C1.49549 14.7776 1.20247 14.6587 0.97894 14.4635C0.713195 14.23 0.54541 13.8886 0.54541 13.5067C0.54541 13.1075 0.729665 12.7507 1.01788 12.5184C1.23607 12.3417 1.51381 12.2369 1.81621 12.2369H3.59526Z" fill="#FF8618"/>
<path d="M26.8036 13.5067C26.8036 13.8557 26.6618 14.1721 26.4327 14.4012C26.2036 14.6303 25.8873 14.783 25.5381 14.783H23.76C23.8146 14.3576 23.8473 13.943 23.8473 13.5067C23.8473 13.0703 23.8146 12.6557 23.76 12.2412H25.5381C25.8873 12.2412 26.2036 12.383 26.4327 12.6121C26.6618 12.8412 26.8036 13.1576 26.8036 13.5067Z" fill="#FF8618"/>
<path d="M6.1887 4.222L7.44663 5.47982C7.11129 5.73182 6.79372 6.01327 6.48827 6.31872C6.1827 6.62418 5.90114 6.94164 5.64958 7.27655L4.39154 6.01872C4.11609 5.74381 3.99347 5.37291 4.0238 5.01291C4.04812 4.72491 4.17063 4.44237 4.39154 4.222C4.59445 4.01909 4.84907 3.89909 5.11296 3.862C5.49434 3.80855 5.89536 3.92855 6.1887 4.222Z" fill="#FF8618"/>
<path d="M23.3345 21.9613C23.3127 22.2667 23.1927 22.5613 22.9636 22.7904C22.7782 22.9758 22.5491 23.0958 22.3091 23.1394C21.9054 23.2158 21.48 23.1067 21.1636 22.7904L19.9091 21.5358C19.9309 21.514 19.9527 21.5031 19.9745 21.4813C20.0291 21.4376 20.0836 21.394 20.1381 21.3504C20.2254 21.2849 20.3127 21.2085 20.4 21.1322C20.5636 20.9904 20.7163 20.8485 20.8691 20.6958C21.1745 20.3904 21.4364 20.0849 21.7091 19.7467L22.9636 20.9904C23.2254 21.2631 23.3563 21.6122 23.3345 21.9613Z" fill="#FF8618"/>
<path d="M5.64957 19.7369C5.90113 20.0729 6.18269 20.3903 6.48826 20.6958C6.79371 21.0013 7.11128 21.2827 7.44662 21.5347L6.18869 22.7925C5.96189 23.0194 5.67073 23.1427 5.37401 23.1623C5.02142 23.1853 4.66099 23.062 4.39153 22.7925C4.10909 22.51 3.98735 22.1271 4.0264 21.7594C4.05596 21.4802 4.17771 21.2096 4.39153 20.9947L5.64957 19.7369Z" fill="#FF8618"/>
<path d="M23.3345 5.11759C23.3345 5.44486 23.2145 5.77213 22.9636 6.02304L21.709 7.27759C21.4472 6.93941 21.1745 6.62304 20.869 6.31759C20.7163 6.16486 20.5636 6.02304 20.3999 5.88122C20.3126 5.80486 20.2254 5.7285 20.1381 5.66304C20.0836 5.6194 20.029 5.57577 19.9745 5.53213C19.9526 5.51031 19.9417 5.4994 19.9199 5.47759L21.1636 4.22304C21.4145 3.97213 21.7417 3.85213 22.0581 3.85213C22.3854 3.85213 22.7127 3.97213 22.9636 4.22304C23.2145 4.47395 23.3345 4.79031 23.3345 5.11759Z" fill="#FF8618"/>
<path d="M13.68 26.6412C13.6254 26.6412 13.5709 26.6412 13.5164 26.6303C13.5709 26.6412 13.6254 26.6412 13.68 26.6412C14.0073 26.6412 14.3018 26.5103 14.5309 26.314C14.7818 26.0849 14.9454 25.7467 14.9454 25.3649V23.5867C14.5309 23.6521 14.1054 23.674 13.68 23.674C13.6254 23.674 13.5709 23.674 13.5164 23.6631C13.5709 23.674 13.6254 23.674 13.68 23.674C14.1054 23.674 14.5309 23.6521 14.9454 23.5867H14.9564C16.8108 23.3685 18.5127 22.6376 19.9091 21.5358C19.9309 21.514 19.9527 21.503 19.9745 21.4812C19.9964 21.4594 20.0073 21.4485 20.0291 21.4267C20.0727 21.394 20.0945 21.3721 20.1382 21.3503C20.2255 21.2849 20.3127 21.2085 20.4 21.1321C20.5636 20.9903 20.7164 20.8485 20.8691 20.6958C21.1745 20.3903 21.4365 20.0849 21.7091 19.7467V19.7358C22.8 18.3503 23.5309 16.6376 23.76 14.783C23.8145 14.3576 23.8473 13.943 23.8473 13.5067C23.8473 13.943 23.8145 14.3576 23.76 14.783H25.5381C25.8873 14.783 26.2036 14.6303 26.4327 14.4012C26.6618 14.1721 26.8036 13.8558 26.8036 13.5067C26.8036 13.8558 26.6618 14.1721 26.4327 14.4012C26.2036 14.6303 25.8873 14.783 25.5381 14.783H23.76C23.5309 16.6376 22.8 18.3503 21.7091 19.7358V19.7467C21.4365 20.0849 21.1745 20.3903 20.8691 20.6958C20.7164 20.8485 20.5636 20.9903 20.4 21.1321C20.3127 21.2085 20.2255 21.2849 20.1382 21.3503C20.0836 21.394 20.0291 21.4376 19.9745 21.4812C19.9527 21.503 19.9309 21.514 19.9091 21.5358L21.1636 22.7903C21.1676 22.7936 21.1714 22.798 21.1752 22.8012C21.1714 22.798 21.1676 22.7936 21.1636 22.7903L19.9091 21.5358C18.5127 22.6376 16.8108 23.3685 14.9564 23.5867H14.9454V25.3649C14.9454 25.7467 14.7818 26.0849 14.5309 26.314C14.3018 26.5103 14.0073 26.6412 13.68 26.6412ZM13.68 15.4485C13.6254 15.4485 13.5709 15.4485 13.5164 15.4376V11.5649C13.5709 11.554 13.6254 11.554 13.68 11.554C14.16 11.554 14.6074 11.7394 14.9564 12.0449C15.0218 12.0994 15.0873 12.1649 15.1418 12.2303H16.7455L19.8982 9.07759C19.8655 9.03395 19.8327 8.99031 19.7891 8.94668C19.7237 8.8594 19.6582 8.75031 19.56 8.66304C19.5381 8.64122 19.5274 8.60849 19.4945 8.58668C19.44 8.4994 19.3636 8.42304 19.2873 8.34668C19.2218 8.27031 19.1455 8.19395 19.0691 8.11758L18.84 7.88849C18.7527 7.82304 18.6764 7.73577 18.5891 7.68122C18.4365 7.52849 18.2618 7.39758 18.1091 7.28849C17.1818 6.63395 16.1018 6.17577 14.9564 5.9794V10.4412V5.9794C14.5418 5.91395 14.1054 5.88122 13.68 5.88122C13.6254 5.88122 13.5709 5.88122 13.5164 5.89213C13.5709 5.88122 13.6254 5.88122 13.68 5.88122C14.1054 5.88122 14.5418 5.91395 14.9564 5.9794C16.1018 6.17577 17.1818 6.63395 18.1091 7.28849C18.2618 7.39758 18.4365 7.52849 18.5891 7.68122C18.6764 7.73577 18.7527 7.82304 18.84 7.88849C19.0036 8.03031 19.1564 8.18304 19.2873 8.34668C19.3636 8.42304 19.44 8.4994 19.4945 8.58668C19.5274 8.60849 19.5381 8.64122 19.56 8.66304C19.6582 8.75031 19.7237 8.8594 19.7891 8.94668C19.8327 8.99031 19.8655 9.03395 19.8982 9.07759C20.5528 9.99395 21 11.0849 21.1855 12.2303C21.2727 12.634 21.3055 13.0703 21.3055 13.5067C21.3055 13.0703 21.2727 12.634 21.1855 12.2303C21 11.0849 20.5528 9.99395 19.8982 9.07759L16.7455 12.2303H15.1418C15.4365 12.5685 15.6327 13.0267 15.6327 13.5067C15.6327 13.9867 15.4365 14.4449 15.1418 14.7721C15.0873 14.8485 15.0218 14.914 14.9564 14.9685C14.6074 15.274 14.16 15.4485 13.68 15.4485ZM20.1382 5.66304C20.0945 5.64122 20.0727 5.6194 20.0291 5.58667L19.9745 5.53213C20.0291 5.57577 20.0836 5.6194 20.1382 5.66304Z" fill="white"/>
<path d="M13.68 23.674C13.6254 23.674 13.5709 23.674 13.5164 23.6631V21.1213C13.5709 21.1322 13.6254 21.1322 13.68 21.1322C14.1054 21.1322 14.5418 21.0995 14.9564 21.0231C16.1018 20.8376 17.1818 20.3795 18.0982 19.714C18.1091 19.7031 18.12 19.7031 18.1309 19.6922C18.1527 19.6813 18.1745 19.6704 18.1964 19.6486C18.3273 19.5504 18.4691 19.4413 18.5891 19.3322C18.7527 19.2013 18.9164 19.0486 19.0691 18.8958C19.1127 18.8413 19.1564 18.7976 19.2 18.754C19.2982 18.6449 19.4073 18.5467 19.4945 18.4267C19.6145 18.2958 19.7345 18.154 19.8327 18.0122C19.8655 17.9795 19.8764 17.9467 19.8982 17.9358V17.9249C20.5528 17.0086 21 15.9504 21.1855 14.7722C21.2727 14.3685 21.3055 13.9322 21.3055 13.5067C21.3055 13.0704 21.2727 12.634 21.1855 12.2304C21 11.0849 20.5528 9.994 19.8982 9.07764C19.8655 9.034 19.8327 8.99036 19.7891 8.94673C19.7237 8.85945 19.6582 8.75036 19.56 8.66309C19.5381 8.64127 19.5274 8.60855 19.4945 8.58673C19.44 8.49945 19.3636 8.42309 19.2873 8.34673C19.1564 8.18309 19.0036 8.03036 18.84 7.88855C18.7527 7.82309 18.6764 7.73582 18.5891 7.68127C18.4365 7.52855 18.2618 7.39763 18.1091 7.28854C17.1818 6.634 16.1018 6.17582 14.9564 5.97945C14.5418 5.914 14.1054 5.88127 13.68 5.88127C13.6254 5.88127 13.5709 5.88127 13.5164 5.89218V3.35036C13.5709 3.33945 13.6254 3.33945 13.68 3.33945C14.1054 3.33945 14.5309 3.36127 14.9454 3.42672H14.9564C16.8108 3.64491 18.5127 4.37581 19.9091 5.47763H19.92C19.9418 5.49945 19.9527 5.51036 19.9745 5.53218L20.0291 5.58673C20.0727 5.61945 20.0945 5.64127 20.1382 5.66309C20.2255 5.72854 20.3127 5.80491 20.4 5.88127C20.5636 6.02309 20.7164 6.16491 20.8691 6.31763C21.1745 6.62309 21.4473 6.93945 21.7091 7.27764C22.8 8.674 23.5309 10.3758 23.76 12.2304V12.2413C23.8145 12.6558 23.8473 13.0704 23.8473 13.5067C23.8473 13.9431 23.8145 14.3576 23.76 14.7831C23.5309 16.6376 22.8 18.3504 21.7091 19.7358V19.7467C21.4365 20.0849 21.1745 20.3904 20.8691 20.6958C20.7164 20.8486 20.5636 20.9904 20.4 21.1322C20.3127 21.2086 20.2255 21.2849 20.1382 21.3504C20.0945 21.3722 20.0727 21.394 20.0291 21.4267C20.0073 21.4486 19.9964 21.4595 19.9745 21.4813C19.9527 21.5031 19.9309 21.514 19.9091 21.5358C18.5127 22.6376 16.8108 23.3686 14.9564 23.5867H14.9454C14.5309 23.6522 14.1054 23.674 13.68 23.674Z" fill="#F7A80E"/>
<path d="M16.7454 12.2303H15.1418C15.0872 12.1649 15.0218 12.0994 14.9563 12.0449V10.4413L18.109 7.28853C18.2618 7.39762 18.4364 7.52853 18.589 7.68125C18.6763 7.7358 18.7527 7.82307 18.8399 7.88853L19.069 8.11762C19.1454 8.19398 19.2218 8.27034 19.2872 8.34671C19.3636 8.42307 19.4399 8.49944 19.4945 8.58671C19.5273 8.60853 19.538 8.64125 19.5599 8.66307C19.6581 8.75034 19.7237 8.85944 19.789 8.94671C19.8327 8.99034 19.8654 9.03398 19.8981 9.07762L16.7454 12.2303Z" fill="#F7A80E"/>
<path d="M18.0981 19.7141L14.9563 16.5722V14.9686C15.0218 14.914 15.0872 14.8486 15.1418 14.7722H16.7454L19.8981 17.925V17.9359C19.8763 17.9468 19.8654 17.9795 19.8327 18.0122C19.7345 18.154 19.6145 18.2959 19.4945 18.4268C19.4072 18.5468 19.2981 18.645 19.1999 18.754C19.1563 18.7977 19.1127 18.8413 19.069 18.8959C18.9163 19.0486 18.7527 19.2013 18.589 19.3322C18.469 19.4413 18.3272 19.5504 18.1963 19.6486C18.1745 19.6704 18.1527 19.6813 18.1308 19.6922C18.1199 19.7031 18.109 19.7031 18.0981 19.7141Z" fill="#F7A80E"/>
<path d="M14.9454 3.4267C14.5309 3.36124 14.1054 3.33942 13.68 3.33942C13.6254 3.33942 13.5709 3.33942 13.5164 3.35033V0.383058C13.5709 0.372149 13.6254 0.372149 13.68 0.372149C13.9636 0.372149 14.2254 0.470331 14.4436 0.633968C14.7491 0.863059 14.9454 1.23397 14.9454 1.64851V3.4267Z" fill="#F7A80E"/>
<path d="M14.9564 12.0449C14.6074 11.7395 14.16 11.554 13.68 11.554C13.6254 11.554 13.5709 11.554 13.5164 11.5649V5.89219C13.5709 5.88128 13.6254 5.88128 13.68 5.88128C14.1054 5.88128 14.5418 5.91401 14.9564 5.97946V10.4413V12.0449Z" fill="#F7A80E"/>
<path d="M13.68 21.1321C13.6254 21.1321 13.5709 21.1321 13.5164 21.1212V15.4376C13.5709 15.4485 13.6254 15.4485 13.68 15.4485C14.16 15.4485 14.6074 15.274 14.9564 14.9685V16.5721V21.0231C14.5418 21.0994 14.1054 21.1321 13.68 21.1321Z" fill="#F7A80E"/>
<path d="M21.1855 14.7722H15.1418C15.4365 14.4449 15.6328 13.9868 15.6328 13.5068C15.6328 13.0268 15.4365 12.5686 15.1418 12.2304H16.7455H21.1855C21.2728 12.634 21.3055 13.0704 21.3055 13.5068C21.3055 13.9322 21.2728 14.3686 21.1855 14.7722Z" fill="#F7A80E"/>
<path d="M13.68 26.6412C13.6254 26.6412 13.5709 26.6412 13.5164 26.6303V23.6631C13.5709 23.674 13.6254 23.674 13.68 23.674C14.1054 23.674 14.5309 23.6521 14.9454 23.5867V25.3649C14.9454 25.7467 14.7818 26.0849 14.5309 26.314C14.3018 26.5103 14.0073 26.6412 13.68 26.6412Z" fill="#F7A80E"/>
<path d="M22.0614 23.1624C22.0602 23.1624 22.0589 23.1624 22.0577 23.1624C22.0589 23.1624 22.0602 23.1624 22.0614 23.1624ZM22.0623 23.1624C22.1448 23.1624 22.2276 23.1547 22.3095 23.1394C22.5495 23.0958 22.7787 22.9757 22.9642 22.7902C23.1934 22.5611 23.3135 22.2664 23.3353 21.9608C23.3368 21.9357 23.3377 21.9117 23.3377 21.8877C23.3377 21.9117 23.3368 21.9357 23.3353 21.9608C23.3135 22.2664 23.1934 22.5611 22.9642 22.7902C22.7787 22.9757 22.5495 23.0958 22.3095 23.1394C22.2276 23.1547 22.1449 23.1624 22.0623 23.1624ZM21.2079 22.8328C21.2061 22.8306 21.2043 22.8295 21.2024 22.8273C21.2043 22.8295 21.2061 22.8306 21.2079 22.8328ZM21.1906 22.8164C21.1858 22.8121 21.1808 22.8077 21.1761 22.8022C21.1808 22.8077 21.1858 22.8121 21.1906 22.8164Z" fill="white"/>
<path d="M25.5381 14.783H23.76C23.8146 14.3576 23.8473 13.943 23.8473 13.5067C23.8473 13.0703 23.8146 12.6557 23.76 12.2412H25.5381C25.8873 12.2412 26.2036 12.383 26.4327 12.6121C26.6618 12.8412 26.8036 13.1576 26.8036 13.5067C26.8036 13.8557 26.6618 14.1721 26.4327 14.4012C26.2036 14.6303 25.8873 14.783 25.5381 14.783Z" fill="#F7A80E"/>
<path d="M22.0611 23.1624C22.0599 23.1624 22.0586 23.1624 22.0574 23.1624C21.753 23.1624 21.4516 23.0544 21.2079 22.8329C21.206 22.8307 21.2043 22.8296 21.2024 22.8275C21.1985 22.8242 21.1945 22.8198 21.1906 22.8165C21.1858 22.8122 21.1808 22.8078 21.1761 22.8024C21.1758 22.8024 21.1755 22.8024 21.1752 22.8013C21.1713 22.798 21.1675 22.7936 21.1636 22.7904L19.9091 21.5358C19.9309 21.514 19.9527 21.5031 19.9745 21.4813C20.0291 21.4376 20.0836 21.394 20.1381 21.3504C20.2254 21.2849 20.3127 21.2085 20.4 21.1322C20.5636 20.9904 20.7163 20.8485 20.8691 20.6958C21.1745 20.3904 21.4364 20.0849 21.7091 19.7467L22.9636 20.9904C23.207 21.2434 23.3372 21.5631 23.3369 21.8882C23.3369 21.9122 23.336 21.9362 23.3345 21.9613C23.3127 22.2667 23.1927 22.5613 22.9636 22.7904C22.7782 22.9758 22.5491 23.0958 22.3091 23.1394C22.2272 23.1547 22.1444 23.1624 22.062 23.1624C22.0618 23.1624 22.0614 23.1624 22.0611 23.1624Z" fill="#F7A80E"/>
<path d="M21.709 7.27759C21.4472 6.93941 21.1745 6.62304 20.869 6.31759C20.7163 6.16486 20.5636 6.02304 20.3999 5.88122C20.3126 5.80486 20.2254 5.7285 20.1381 5.66304C20.0836 5.6194 20.029 5.57577 19.9745 5.53213C19.9526 5.51031 19.9417 5.4994 19.9199 5.47759L21.1636 4.22304C21.4145 3.97213 21.7417 3.85213 22.0581 3.85213C22.3854 3.85213 22.7127 3.97213 22.9636 4.22304C23.2145 4.47395 23.3345 4.79031 23.3345 5.11759C23.3345 5.44486 23.2145 5.77213 22.9636 6.02304L21.709 7.27759Z" fill="#F7A80E"/>
<path d="M19.6316 17.8507H19.6422H19.6316ZM9.3697 19.1183C9.40428 19.1336 9.43733 19.1521 9.46766 19.174C10.3019 19.7827 11.2932 20.195 12.3329 20.3696C13.0935 20.5038 13.9006 20.5049 14.6628 20.3707C15.7084 20.1951 16.6997 19.7816 17.5323 19.174C17.5621 19.1532 17.5935 19.1347 17.6266 19.1194C17.755 19.0201 17.8834 18.9209 18 18.8216C18.1465 18.6983 18.2855 18.5652 18.4192 18.4256C18.4837 18.3667 18.5103 18.3405 18.5332 18.3143L18.6306 18.2118C18.6925 18.1474 18.7553 18.0852 18.808 18.0132C18.9375 17.8649 19.0392 17.7405 19.1239 17.6227L19.1319 17.626C19.1474 17.591 19.166 17.5572 19.1879 17.5267C19.8041 16.666 20.2053 15.6983 20.3795 14.651L20.3816 14.638C20.4477 14.2943 20.4812 13.906 20.4812 13.487C20.4812 13.0681 20.4477 12.6798 20.3816 12.3361C20.2047 11.2845 19.7945 10.2874 19.1932 9.43977C19.1825 9.42668 19.0946 9.31977 19.0856 9.30668C19.0185 9.21286 18.97 9.14195 18.9124 9.07977C18.9008 9.06777 18.8261 8.98377 18.8155 8.96958C18.7659 8.90522 18.7112 8.84631 18.6515 8.78631C18.5022 8.61286 18.3681 8.47868 18.228 8.3554C18.1556 8.28886 18.0905 8.22886 18.0203 8.17432C17.8396 8.01177 17.69 7.89722 17.5467 7.79358C16.7099 7.19904 15.7112 6.78559 14.6633 6.60341C13.9427 6.47577 13.0488 6.47795 12.3366 6.60341C11.2755 6.78777 10.3045 7.18922 9.44955 7.79686C9.31002 7.89722 9.16035 8.01177 9.01591 8.14486C8.90944 8.22886 8.84442 8.28886 8.77951 8.34886C8.63191 8.47868 8.49773 8.61286 8.37991 8.7525C8.28882 8.84632 8.23406 8.90522 8.18442 8.96958C8.03955 9.13104 7.94267 9.26086 7.84777 9.38631C7.20544 10.2874 6.79526 11.2845 6.62049 12.3241C6.55231 12.6798 6.51882 13.0681 6.51882 13.487C6.51882 13.906 6.55231 14.2943 6.61842 14.638C6.79471 15.6983 7.19584 16.666 7.81209 17.5267C7.8254 17.5452 7.83773 17.5649 7.84831 17.5845L7.86162 17.603C7.96078 17.7405 8.06246 17.8649 8.15835 17.9718C8.24464 18.0852 8.30748 18.1474 8.36933 18.2118L8.44918 18.2936C8.48966 18.3405 8.51627 18.3667 8.54617 18.3929C8.71449 18.5652 8.85348 18.6983 8.99835 18.8205C9.11988 18.9241 9.25198 19.0256 9.37122 19.115L9.3697 19.1183ZM13.5032 21.562C13.0477 21.562 12.5918 21.5227 12.1486 21.4452C10.9666 21.2467 9.8341 20.7787 8.87377 20.0914C8.79544 20.0489 8.73261 20.0118 8.65853 19.9376C8.58075 19.8863 8.43162 19.7707 8.29471 19.655C8.12159 19.51 7.9538 19.3485 7.79344 19.1805C7.75569 19.15 7.69286 19.0867 7.63897 19.0234C7.49039 18.8729 7.39504 18.7714 7.31191 18.659C7.22409 18.5641 7.09569 18.4071 6.98867 18.2565C6.97002 18.2314 6.94918 18.1965 6.92846 18.1583L6.92475 18.1616C6.21097 17.1645 5.74646 16.043 5.54453 14.83C5.46784 14.4318 5.42791 13.9747 5.42791 13.487C5.42791 12.9994 5.46784 12.5423 5.54671 12.13C5.74646 10.943 6.221 9.78995 6.91722 8.80813C7.09253 8.57577 7.21133 8.41977 7.34977 8.26923C7.39777 8.20377 7.48351 8.10886 7.57722 8.01504C7.69766 7.86995 7.8697 7.6965 8.0497 7.53832C8.13064 7.46414 8.21911 7.38341 8.315 7.30923C8.45508 7.17832 8.6378 7.03649 8.81409 6.90995C9.80595 6.20413 10.9272 5.7405 12.1497 5.52886C12.9854 5.38377 14.0061 5.38159 14.8509 5.52886C16.0578 5.73941 17.2101 6.21613 18.1822 6.90668C18.3622 7.0365 18.5449 7.17832 18.7212 7.33977C18.7809 7.38341 18.8693 7.46413 18.9577 7.54486C19.1303 7.6965 19.3023 7.86995 19.4542 8.04995C19.5165 8.10886 19.6023 8.20377 19.6805 8.30523C19.8021 8.43504 19.8814 8.54413 19.9527 8.64449L20.0124 8.71977L20.0828 8.80813C20.779 9.78995 21.2535 10.943 21.4554 12.143C21.5321 12.5423 21.5721 12.9994 21.5721 13.487C21.5721 13.9725 21.5327 14.4263 21.4544 14.8365C21.2552 16.0289 20.8019 17.1318 20.1077 18.1158C20.0929 18.142 20.0763 18.1681 20.0577 18.1911C19.9043 18.4071 19.7759 18.5641 19.6545 18.6994C19.6049 18.7714 19.5096 18.8729 19.4126 18.9721C19.3071 19.0867 19.2443 19.15 19.1718 19.2143C19.0462 19.3485 18.8784 19.51 18.7036 19.6561C18.5684 19.7707 18.4192 19.8863 18.2829 19.9878C18.2572 20.0074 18.1678 20.0674 18.1374 20.0827C17.1765 20.7743 16.0403 21.2445 14.8477 21.4452C14.4082 21.5227 13.9544 21.562 13.5032 21.562ZM6.4022 20.0609L6.18478 20.3521L6.4022 20.1776V20.0609ZM20.5935 20.2256L20.8152 20.3521L20.5925 20.1285L20.5935 20.2256ZM7.66613 20.9652L7.69286 20.9849C9.01864 22.0267 10.6145 22.6867 12.3089 22.894C12.5103 22.918 12.7042 22.942 12.8976 22.954C13.2906 22.978 13.6981 22.9801 14.1035 22.954C14.2958 22.942 14.4897 22.918 14.6831 22.894C16.3854 22.6867 17.9813 22.0267 19.3071 20.9849L19.3338 20.9652C19.4057 20.9009 19.4782 20.842 19.5554 20.783C19.6012 20.7481 19.6412 20.7121 19.6822 20.6761L19.9203 20.4558C19.9373 20.4405 19.9874 20.4023 20.0066 20.3892L20.2058 20.1961C20.2223 20.1798 20.2398 20.1645 20.258 20.1503C20.2814 20.1263 20.306 20.1012 20.3278 20.0761L20.3544 20.0903C20.4023 20.0674 20.454 20.051 20.5068 20.0423L20.4279 19.9638C20.5611 19.8078 20.6432 19.714 20.7374 19.6136C20.747 19.5994 20.852 19.4729 20.8625 19.4598C20.8982 19.415 20.935 19.3703 20.9728 19.3267L20.9941 19.2972C22.036 17.9729 22.696 16.3747 22.9032 14.675C22.9272 14.4798 22.9517 14.2856 22.964 14.0925C22.9762 13.894 22.9821 13.6932 22.9821 13.487C22.9821 13.2874 22.9762 13.0867 22.964 12.887C22.9517 12.694 22.9272 12.4998 22.9032 12.3078C22.6966 10.6059 22.0366 9.00886 20.9941 7.68231C20.9841 7.67031 20.975 7.65722 20.9664 7.64413L20.8056 7.45213C20.7657 7.39868 20.7443 7.36813 20.7177 7.34086C20.6574 7.28086 20.5994 7.2154 20.5451 7.15213L20.4721 7.07031C20.4593 7.05613 20.3901 6.97104 20.3789 6.95577L20.0502 6.63286L20.3065 6.12995L19.9639 6.55432L19.8745 6.47468L19.7934 6.39722C19.7285 6.33722 19.647 6.26632 19.5608 6.20195C19.4787 6.13868 19.4057 6.07867 19.3338 6.0154L19.3071 5.99577C17.9813 4.95395 16.3854 4.29395 14.691 4.08668C14.4897 4.06268 14.2958 4.03868 14.1024 4.02668C13.6966 3.9994 13.2971 4.00049 12.9045 4.02668C12.7042 4.03868 12.5103 4.06268 12.3169 4.08668C10.6145 4.29395 9.01864 4.95395 7.69286 5.99577L7.66613 6.0154C7.59424 6.07867 7.5218 6.13868 7.44457 6.19759C7.37857 6.2445 7.33755 6.28377 7.29544 6.31977C7.26184 6.35468 7.19747 6.4125 7.13617 6.46704C7.1234 6.47904 7.04616 6.54668 7.03231 6.5565C7.02053 6.5685 6.96195 6.62195 6.94973 6.63286L6.83628 6.73432L6.72653 6.84995C6.67962 6.90449 6.62529 6.96014 6.57042 7.01468L6.4549 7.15213C6.40057 7.2154 6.34253 7.28086 6.28231 7.34086C6.25569 7.36813 6.23431 7.39868 6.2114 7.42923L6.03359 7.64413C6.02497 7.65722 6.01548 7.67031 6.00588 7.68231C4.9634 9.00886 4.3034 10.606 4.09678 12.299C4.07278 12.5009 4.04824 12.695 4.03602 12.8881C4.0238 13.0867 4.01791 13.2874 4.01791 13.487C4.01791 13.6932 4.0238 13.894 4.03602 14.0936C4.04824 14.2856 4.07278 14.4798 4.09678 14.6729C4.30395 16.3747 4.96395 17.9729 6.00588 19.2972C6.01329 19.307 6.02071 19.3169 6.02769 19.3278C6.06555 19.3714 6.10177 19.4161 6.13744 19.4598C6.14802 19.4729 6.21948 19.5612 6.22908 19.5754C6.35682 19.714 6.43886 19.8078 6.52089 19.9027L6.42075 20.0369C6.46558 20.038 6.50977 20.0445 6.55286 20.0565L6.611 20.0107C6.64449 20.0434 6.67438 20.0761 6.69773 20.1078L6.69195 20.1165C6.72926 20.1394 6.76384 20.1656 6.79416 20.1961L7.32904 20.6871C7.35882 20.7121 7.39875 20.7481 7.43922 20.7787C7.52126 20.842 7.59424 20.9009 7.66613 20.9652ZM13.5032 24.0634C13.2747 24.0634 13.0521 24.0569 12.8304 24.0427C12.6136 24.0296 12.3974 24.0034 12.1816 23.9761C10.3039 23.7481 8.53711 23.0227 7.06373 21.8772C7.03438 21.8598 7.00722 21.8391 6.98224 21.8161C6.91613 21.7572 6.85068 21.7016 6.77977 21.6471C6.72337 21.6045 6.66108 21.5521 6.59977 21.4976L6.07351 21.0165C6.05322 21.0012 6.03413 20.9849 6.01645 20.9674L5.93824 20.8856C5.92493 20.8714 5.837 20.7776 5.82522 20.7623C5.81246 20.7536 5.78475 20.7241 5.75867 20.6925C5.62504 20.5343 5.55151 20.4503 5.46675 20.3598C5.42257 20.3161 5.3666 20.2485 5.32133 20.1809L5.17384 20.0085C5.14984 19.9823 5.12857 19.9529 5.10991 19.9223C3.96729 18.4507 3.24293 16.6834 3.01438 14.807C2.98722 14.5932 2.9606 14.3761 2.94729 14.1612C2.93398 13.9387 2.927 13.715 2.927 13.487C2.927 13.2645 2.93398 13.043 2.94729 12.8205C2.9606 12.6034 2.98722 12.3874 3.01438 12.1714C3.24238 10.2939 3.96784 8.52668 5.11362 7.05286C5.12693 7.02995 5.14242 7.00922 5.15944 6.98849L5.35602 6.75286C5.39279 6.70377 5.4481 6.63285 5.51104 6.56958C5.55359 6.52704 5.59351 6.48014 5.63191 6.4365L5.72671 6.32958C5.7422 6.30886 5.78104 6.26086 5.79915 6.24341C5.83384 6.2085 5.86897 6.17468 5.89875 6.13977C5.92384 6.10813 5.9702 6.05359 6.01645 6.00668C6.14278 5.88886 6.19013 5.84522 6.25089 5.79395L6.70951 6.11795L6.34253 5.71432L6.54762 5.52668C6.64395 5.4394 6.71802 5.37504 6.79951 5.31832C6.85068 5.27905 6.91613 5.2234 6.98224 5.16449C7.00831 5.14049 7.03711 5.11868 7.06744 5.10014C8.54028 3.95686 10.3056 3.23249 12.1768 3.00449C12.3974 2.97722 12.6136 2.95104 12.8294 2.93795C13.2795 2.91068 13.7184 2.90959 14.1711 2.93795C14.3864 2.95104 14.6026 2.97722 14.8184 3.00449C16.696 3.23249 18.4629 3.95795 19.9362 5.10341C19.9656 5.12086 19.9928 5.14158 20.0177 5.16449C20.0838 5.2234 20.1493 5.27904 20.2202 5.3325C20.3331 5.41759 20.4433 5.5125 20.5541 5.61613L20.2905 6.11795L20.6814 5.73286C20.8098 5.84523 20.8572 5.88886 20.9073 5.93577C20.9185 5.94559 20.9915 6.01432 21.0016 6.02522C21.1012 6.13322 21.1449 6.18013 21.196 6.24122L20.8727 6.69941L21.2733 6.32958L21.3681 6.4365C21.4065 6.48014 21.4464 6.52704 21.4889 6.56958C21.5519 6.63285 21.6072 6.70377 21.6611 6.77577L21.8405 6.98849C21.8581 7.01031 21.8741 7.03213 21.8885 7.05504C23.0327 8.52886 23.7576 10.295 23.9856 12.167C24.0128 12.3874 24.0394 12.6034 24.0527 12.8194V12.8205C24.066 13.043 24.073 13.2645 24.073 13.487C24.073 13.715 24.066 13.9387 24.0527 14.1601C24.0394 14.3761 24.0128 14.5932 23.9856 14.8081C23.757 16.6845 23.0316 18.454 21.8869 19.9267C21.8693 19.9561 21.849 19.9834 21.8261 20.0085L21.7095 20.147C21.6334 20.2485 21.5774 20.3161 21.5209 20.3729C21.4485 20.4503 21.375 20.5343 21.301 20.6194L21.1604 20.782C21.0964 20.854 21.0362 20.9151 20.9835 20.9674C20.9649 20.986 20.9457 21.0034 20.9249 21.0187L20.747 21.1911C20.7251 21.2129 20.6628 21.2609 20.6378 21.2783L20.4113 21.4878C20.3389 21.5521 20.2766 21.6045 20.2149 21.6514C20.1493 21.7016 20.0838 21.7572 20.0177 21.8161C19.9917 21.8401 19.9629 21.862 19.9325 21.8805C18.4597 23.0238 16.6944 23.7481 14.8232 23.9761C14.6026 24.0034 14.3864 24.0296 14.1706 24.0427C13.9475 24.0569 13.7253 24.0634 13.5032 24.0634Z" fill="#2C2D34"/>
<path d="M6.75848 11.6882H11.6975V6.74311C10.8835 6.9602 10.1297 7.31256 9.44954 7.79693C9.31001 7.89729 9.16034 8.01184 9.0159 8.14493C8.90943 8.22893 8.84441 8.28893 8.7795 8.34893C8.71449 8.41548 8.64947 8.48093 8.58925 8.54638C8.4902 8.6402 8.42419 8.70566 8.36343 8.77112C8.28881 8.84639 8.23405 8.90529 8.18442 8.96966C8.03954 9.13111 7.94267 9.26093 7.84776 9.38638C7.33808 10.102 6.97426 10.8787 6.75848 11.6882ZM12.0575 12.7791H6.08256C5.92219 12.7791 5.7699 12.7082 5.66594 12.5849C5.56263 12.4628 5.5179 12.3013 5.54452 12.1431C5.74645 10.9431 6.22099 9.79002 6.91721 8.8082C7.09252 8.57584 7.21132 8.41985 7.34976 8.2693C7.39776 8.20385 7.4835 8.10893 7.57721 8.01511C7.64321 7.9442 7.7306 7.85584 7.81852 7.77511C7.85474 7.73256 7.93034 7.65621 8.00659 7.57984C8.13063 7.46421 8.2191 7.38348 8.31499 7.3093C8.45507 7.17839 8.63779 7.03657 8.81409 6.91002C9.80594 6.2042 10.9272 5.74057 12.1497 5.52893C12.3089 5.50275 12.4708 5.54529 12.5939 5.64784C12.7175 5.75256 12.7884 5.9053 12.7884 6.06566V12.0417C12.7884 12.2053 12.7149 12.3602 12.5881 12.4638C12.5395 12.5031 12.5124 12.5348 12.4985 12.5544C12.3958 12.6951 12.2322 12.7791 12.0575 12.7791Z" fill="#2C2D34"/>
<path d="M15.3025 11.6882H20.242C20.0273 10.8798 19.6705 10.1129 19.1932 9.43984C19.1825 9.42675 19.0946 9.31984 19.0855 9.30675C19.0184 9.21293 18.97 9.14202 18.9124 9.07984C18.9007 9.06784 18.8261 8.98384 18.8155 8.96965C18.7659 8.90529 18.7111 8.84638 18.6514 8.78638C18.5757 8.70566 18.5097 8.6402 18.4442 8.57911C18.3505 8.48093 18.2854 8.41548 18.22 8.34893C18.1555 8.28893 18.0905 8.22893 18.0202 8.17439C17.8396 8.01184 17.6899 7.89729 17.5467 7.79366C16.8819 7.32129 16.1149 6.96347 15.3025 6.7442V11.6882ZM20.9174 12.7791H14.9488C14.7853 12.7791 14.6302 12.7049 14.5264 12.5784C14.4923 12.5369 14.4539 12.4977 14.4118 12.4638C14.2851 12.3602 14.2115 12.2053 14.2115 12.0417V6.06566C14.2115 5.9053 14.283 5.75256 14.4061 5.64783C14.5291 5.5442 14.6921 5.50057 14.8508 5.52893C16.0578 5.73948 17.21 6.2162 18.1821 6.90675C18.3621 7.03657 18.5449 7.17839 18.7211 7.33984C18.7808 7.38348 18.8693 7.4642 18.9577 7.54493C19.0696 7.6562 19.1452 7.73257 19.215 7.80893C19.2693 7.85584 19.3567 7.9442 19.4377 8.03147C19.5164 8.10893 19.6023 8.20384 19.6805 8.3053C19.802 8.43512 19.8813 8.5442 19.9527 8.64457L20.0124 8.71984L20.0827 8.8082C20.7789 9.79002 21.2535 10.9431 21.4554 12.1431C21.482 12.3013 21.4373 12.4628 21.334 12.5849C21.23 12.7082 21.0777 12.7791 20.9174 12.7791Z" fill="#2C2D34"/>
<path d="M9.36968 19.1184C9.40427 19.1337 9.43732 19.1522 9.46765 19.174C10.1303 19.6573 10.8915 20.0173 11.6975 20.2322V15.286H6.75641C6.96892 16.0911 7.32259 16.8428 7.81208 17.5268C7.82539 17.5453 7.83772 17.5649 7.8483 17.5846L7.86161 17.6031C7.96077 17.7406 8.06245 17.8649 8.15834 17.9718C8.24463 18.0853 8.30746 18.1475 8.36932 18.2118L8.44917 18.2937C8.48964 18.3406 8.51626 18.3668 8.54615 18.3929C8.71448 18.5653 8.85347 18.6984 8.99834 18.8206C9.11987 18.9242 9.25197 19.0257 9.37121 19.1151L9.36968 19.1184ZM12.2429 21.4529C12.213 21.4529 12.1827 21.4508 12.1528 21.4453C10.9666 21.2468 9.83408 20.7788 8.87376 20.0915C8.79543 20.0489 8.73259 20.0118 8.65852 19.9377C8.58074 19.8864 8.43161 19.7708 8.2947 19.6551C8.12157 19.51 7.95379 19.3486 7.79343 19.1806C7.75568 19.15 7.69285 19.0868 7.63896 19.0235C7.49037 18.8729 7.39502 18.7715 7.3119 18.6591C7.22408 18.5642 7.09568 18.4071 6.98866 18.2566C6.97001 18.2315 6.94917 18.1966 6.92844 18.1584L6.92474 18.1617C6.21095 17.1646 5.74644 16.0431 5.54452 14.83C5.5179 14.6718 5.56263 14.5115 5.66648 14.3882C5.7699 14.266 5.92219 14.1951 6.08255 14.1951H12.0575C12.2322 14.1951 12.3958 14.2791 12.4985 14.4198C12.5124 14.4395 12.5395 14.4711 12.5881 14.5104C12.7148 14.614 12.7884 14.7689 12.7884 14.9326V20.9075C12.7884 21.0679 12.7175 21.2206 12.5955 21.3242C12.4959 21.4082 12.3707 21.4529 12.2429 21.4529Z" fill="#2C2D34"/>
<path d="M15.3025 15.286V20.2322C16.1101 20.0162 16.8712 19.6562 17.5323 19.174C17.5621 19.1533 17.5935 19.1348 17.6265 19.1195C17.7549 19.0202 17.8833 18.9209 18 18.8217C18.1465 18.6984 18.2854 18.5653 18.4192 18.4257C18.4837 18.3668 18.5103 18.3406 18.5332 18.3144L18.6306 18.2118C18.6925 18.1475 18.7553 18.0853 18.808 18.0133C18.9375 17.8649 19.0391 17.7406 19.1239 17.6228L19.1319 17.626C19.1474 17.5911 19.1659 17.5573 19.1878 17.5268C19.6773 16.8428 20.031 16.0911 20.2435 15.286H15.3025ZM14.757 21.4529C14.6293 21.4529 14.504 21.4082 14.405 21.3242C14.2825 21.2206 14.2115 21.0679 14.2115 20.9075V14.9326C14.2115 14.758 14.2952 14.5944 14.4364 14.4918C14.4449 14.4853 14.4715 14.4635 14.5264 14.3958C14.6302 14.2693 14.7853 14.1951 14.9488 14.1951H20.9174C21.0777 14.1951 21.23 14.266 21.3334 14.3882C21.4373 14.5115 21.482 14.6718 21.4554 14.83C21.2568 16.0257 20.8028 17.1297 20.1072 18.1158C20.0929 18.142 20.0763 18.1682 20.0576 18.1911C19.9042 18.4071 19.7758 18.5642 19.6544 18.6995C19.6049 18.7715 19.5096 18.8729 19.4126 18.9722C19.3071 19.0868 19.2442 19.15 19.1718 19.2144C19.0461 19.3486 18.8784 19.51 18.7036 19.6562C18.5683 19.7708 18.4192 19.8864 18.2828 19.9878C18.2572 20.0075 18.1677 20.0675 18.1374 20.0839C17.1764 20.7744 16.0402 21.2446 14.8477 21.4453C14.8172 21.4508 14.7874 21.4529 14.757 21.4529Z" fill="#2C2D34"/>
<path d="M6.75848 11.6882H11.6975V6.74311C10.8835 6.9602 10.1297 7.31256 9.44954 7.79693C9.31001 7.89729 9.16034 8.01184 9.0159 8.14493C8.90943 8.22893 8.84441 8.28893 8.7795 8.34893C8.71449 8.41548 8.64947 8.48093 8.58925 8.54638C8.4902 8.6402 8.42419 8.70566 8.36343 8.77112C8.28881 8.84639 8.23405 8.90529 8.18442 8.96966C8.03954 9.13111 7.94267 9.26093 7.84776 9.38638C7.33808 10.102 6.97426 10.8787 6.75848 11.6882ZM12.0575 12.7791H6.08256C5.92219 12.7791 5.7699 12.7082 5.66594 12.5849C5.56263 12.4628 5.5179 12.3013 5.54452 12.1431C5.74645 10.9431 6.22099 9.79002 6.91721 8.8082C7.09252 8.57584 7.21132 8.41985 7.34976 8.2693C7.39776 8.20385 7.4835 8.10893 7.57721 8.01511C7.64321 7.9442 7.7306 7.85584 7.81852 7.77511C7.85474 7.73256 7.93034 7.65621 8.00659 7.57984C8.13063 7.46421 8.2191 7.38348 8.31499 7.3093C8.45507 7.17839 8.63779 7.03657 8.81409 6.91002C9.80594 6.2042 10.9272 5.74057 12.1497 5.52893C12.3089 5.50275 12.4708 5.54529 12.5939 5.64784C12.7175 5.75256 12.7884 5.9053 12.7884 6.06566V12.0417C12.7884 12.2053 12.7149 12.3602 12.5881 12.4638C12.5395 12.5031 12.5124 12.5348 12.4985 12.5544C12.3958 12.6951 12.2322 12.7791 12.0575 12.7791Z" fill="#2C2D34"/>
<path d="M15.3025 11.6882H20.242C20.0273 10.8798 19.6705 10.1129 19.1932 9.43984C19.1825 9.42675 19.0946 9.31984 19.0855 9.30675C19.0184 9.21293 18.97 9.14202 18.9124 9.07984C18.9007 9.06784 18.8261 8.98384 18.8155 8.96965C18.7659 8.90529 18.7111 8.84638 18.6514 8.78638C18.5757 8.70566 18.5097 8.6402 18.4442 8.57911C18.3505 8.48093 18.2854 8.41548 18.22 8.34893C18.1555 8.28893 18.0905 8.22893 18.0202 8.17439C17.8396 8.01184 17.6899 7.89729 17.5467 7.79366C16.8819 7.32129 16.1149 6.96347 15.3025 6.7442V11.6882ZM20.9174 12.7791H14.9488C14.7853 12.7791 14.6302 12.7049 14.5264 12.5784C14.4923 12.5369 14.4539 12.4977 14.4118 12.4638C14.2851 12.3602 14.2115 12.2053 14.2115 12.0417V6.06566C14.2115 5.9053 14.283 5.75256 14.4061 5.64783C14.5291 5.5442 14.6921 5.50057 14.8508 5.52893C16.0578 5.73948 17.21 6.2162 18.1821 6.90675C18.3621 7.03657 18.5449 7.17839 18.7211 7.33984C18.7808 7.38348 18.8693 7.4642 18.9577 7.54493C19.0696 7.6562 19.1452 7.73257 19.215 7.80893C19.2693 7.85584 19.3567 7.9442 19.4377 8.03147C19.5164 8.10893 19.6023 8.20384 19.6805 8.3053C19.802 8.43512 19.8813 8.5442 19.9527 8.64457L20.0124 8.71984L20.0827 8.8082C20.7789 9.79002 21.2535 10.9431 21.4554 12.1431C21.482 12.3013 21.4373 12.4628 21.334 12.5849C21.23 12.7082 21.0777 12.7791 20.9174 12.7791Z" fill="#2C2D34"/>
<path d="M9.36968 19.1184C9.40427 19.1337 9.43732 19.1522 9.46765 19.174C10.1303 19.6573 10.8915 20.0173 11.6975 20.2322V15.286H6.75641C6.96892 16.0911 7.32259 16.8428 7.81208 17.5268C7.82539 17.5453 7.83772 17.5649 7.8483 17.5846L7.86161 17.6031C7.96077 17.7406 8.06245 17.8649 8.15834 17.9718C8.24463 18.0853 8.30746 18.1475 8.36932 18.2118L8.44917 18.2937C8.48964 18.3406 8.51626 18.3668 8.54615 18.3929C8.71448 18.5653 8.85347 18.6984 8.99834 18.8206C9.11987 18.9242 9.25197 19.0257 9.37121 19.1151L9.36968 19.1184ZM12.2429 21.4529C12.213 21.4529 12.1827 21.4508 12.1528 21.4453C10.9666 21.2468 9.83408 20.7788 8.87376 20.0915C8.79543 20.0489 8.73259 20.0118 8.65852 19.9377C8.58074 19.8864 8.43161 19.7708 8.2947 19.6551C8.12157 19.51 7.95379 19.3486 7.79343 19.1806C7.75568 19.15 7.69285 19.0868 7.63896 19.0235C7.49037 18.8729 7.39502 18.7715 7.3119 18.6591C7.22408 18.5642 7.09568 18.4071 6.98866 18.2566C6.97001 18.2315 6.94917 18.1966 6.92844 18.1584L6.92474 18.1617C6.21095 17.1646 5.74644 16.0431 5.54452 14.83C5.5179 14.6718 5.56263 14.5115 5.66648 14.3882C5.7699 14.266 5.92219 14.1951 6.08255 14.1951H12.0575C12.2322 14.1951 12.3958 14.2791 12.4985 14.4198C12.5124 14.4395 12.5395 14.4711 12.5881 14.5104C12.7148 14.614 12.7884 14.7689 12.7884 14.9326V20.9075C12.7884 21.0679 12.7175 21.2206 12.5955 21.3242C12.4959 21.4082 12.3707 21.4529 12.2429 21.4529Z" fill="#2C2D34"/>
<path d="M15.3025 15.286V20.2322C16.1101 20.0162 16.8712 19.6562 17.5323 19.174C17.5621 19.1533 17.5935 19.1348 17.6265 19.1195C17.7549 19.0202 17.8833 18.9209 18 18.8217C18.1465 18.6984 18.2854 18.5653 18.4192 18.4257C18.4837 18.3668 18.5103 18.3406 18.5332 18.3144L18.6306 18.2118C18.6925 18.1475 18.7553 18.0853 18.808 18.0133C18.9375 17.8649 19.0391 17.7406 19.1239 17.6228L19.1319 17.626C19.1474 17.5911 19.1659 17.5573 19.1878 17.5268C19.6773 16.8428 20.031 16.0911 20.2435 15.286H15.3025ZM14.757 21.4529C14.6293 21.4529 14.504 21.4082 14.405 21.3242C14.2825 21.2206 14.2115 21.0679 14.2115 20.9075V14.9326C14.2115 14.758 14.2952 14.5944 14.4364 14.4918C14.4449 14.4853 14.4715 14.4635 14.5264 14.3958C14.6302 14.2693 14.7853 14.1951 14.9488 14.1951H20.9174C21.0777 14.1951 21.23 14.266 21.3334 14.3882C21.4373 14.5115 21.482 14.6718 21.4554 14.83C21.2568 16.0257 20.8028 17.1297 20.1072 18.1158C20.0929 18.142 20.0763 18.1682 20.0576 18.1911C19.9042 18.4071 19.7758 18.5642 19.6544 18.6995C19.6049 18.7715 19.5096 18.8729 19.4126 18.9722C19.3071 19.0868 19.2442 19.15 19.1718 19.2144C19.0461 19.3486 18.8784 19.51 18.7036 19.6562C18.5683 19.7708 18.4192 19.8864 18.2828 19.9878C18.2572 20.0075 18.1677 20.0675 18.1374 20.0839C17.1764 20.7744 16.0402 21.2446 14.8477 21.4453C14.8172 21.4508 14.7874 21.4529 14.757 21.4529Z" fill="#2C2D34"/>
<path d="M13.5 2.91616C13.7456 2.91616 13.9805 2.92379 14.2085 2.93906V1.78925C14.2085 1.56561 14.1057 1.35942 13.9261 1.22415C13.6705 1.02997 13.2896 1.0387 13.043 1.24815C12.8832 1.38342 12.7916 1.5798 12.7916 1.78925V2.93906C13.0196 2.92379 13.2545 2.91616 13.5 2.91616ZM14.7539 4.08997C14.7284 4.08997 14.7028 4.08779 14.6772 4.08452C13.94 3.97979 13.0601 3.97979 12.3228 4.08452C12.1662 4.10743 12.0074 4.06052 11.8886 3.95579C11.7694 3.85325 11.7007 3.7027 11.7007 3.54452V1.78925C11.7007 1.25798 11.9335 0.757249 12.3398 0.414703C12.9642 -0.114388 13.9315 -0.139481 14.5835 0.35252C15.0384 0.696156 15.2994 1.21979 15.2994 1.78925V3.54452C15.2994 3.7027 15.2306 3.85325 15.1114 3.95579C15.0117 4.04307 14.8844 4.08997 14.7539 4.08997Z" fill="#2C2D34"/>
<path d="M6.55389 14.1951H11.1429C11.0742 13.9682 11.0385 13.7293 11.0385 13.4871C11.0385 13.246 11.0747 13.0071 11.1444 12.7791H6.55389C6.53044 13.0016 6.51877 13.2384 6.51877 13.4871C6.51877 13.7358 6.53044 13.9726 6.55389 14.1951ZM12.0574 15.286H6.08251C5.82091 15.286 5.59619 15.1006 5.54666 14.8442C5.46779 14.4318 5.42786 13.9747 5.42786 13.4871C5.42786 12.9995 5.46779 12.5424 5.54666 12.13C5.59619 11.8736 5.82091 11.6882 6.08251 11.6882H12.0574C12.271 11.6882 12.465 11.8126 12.5539 12.0067C12.6424 12.2009 12.6093 12.4289 12.4692 12.5904C12.2503 12.8435 12.1294 13.162 12.1294 13.4871C12.1294 13.8177 12.2487 14.134 12.466 14.3795C12.6082 14.5398 12.6429 14.7689 12.555 14.9653C12.4665 15.1606 12.2721 15.286 12.0574 15.286Z" fill="#2C2D34"/>
<path d="M13.5032 11.0227C13.7445 11.0227 13.9832 11.0587 14.2116 11.1285V6.54236C13.7552 6.49763 13.2422 6.49872 12.7884 6.54236V11.1275C13.0179 11.0587 13.2582 11.0227 13.5032 11.0227ZM14.7571 12.5871C14.6282 12.5871 14.5009 12.5413 14.3997 12.4529C13.8873 12.01 13.0878 12.0209 12.6046 12.4496C12.4437 12.5925 12.2142 12.6264 12.0187 12.5391C11.8232 12.4507 11.6975 12.2566 11.6975 12.0416V6.06564C11.6975 5.80055 11.8882 5.57473 12.1491 5.52891C12.9865 5.38382 14.0061 5.38164 14.8509 5.52891C15.1118 5.57473 15.3025 5.80055 15.3025 6.06564V12.0416C15.3025 12.2555 15.178 12.4486 14.9836 12.538C14.9111 12.5707 14.8339 12.5871 14.7571 12.5871Z" fill="#2C2D34"/>
<path d="M12.7884 20.4339C13.2555 20.4819 13.7317 20.4841 14.2116 20.4339V15.8456C13.7515 15.9863 13.2438 15.983 12.7884 15.8467V20.4339ZM13.5032 21.562C13.0477 21.562 12.5918 21.5227 12.1486 21.4452C11.8877 21.3994 11.6975 21.1725 11.6975 20.9074V14.9325C11.6975 14.7187 11.8232 14.5234 12.0187 14.435C12.2142 14.3478 12.4437 14.3816 12.6046 14.5245C13.0878 14.9532 13.8873 14.9652 14.3997 14.5212C14.5611 14.3816 14.7896 14.3478 14.9836 14.4361C15.178 14.5256 15.3025 14.7187 15.3025 14.9325V20.9074C15.3025 21.1725 15.1124 21.3994 14.8514 21.4452C14.4082 21.5227 13.9544 21.562 13.5032 21.562Z" fill="#2C2D34"/>
<path d="M15.8636 14.1951H20.4461C20.4696 13.9726 20.4813 13.7358 20.4813 13.4871C20.4813 13.2384 20.4696 13.0016 20.4461 12.7791H15.8619C15.9317 13.0071 15.968 13.246 15.968 13.4871C15.968 13.7293 15.9323 13.9682 15.8636 14.1951ZM20.9175 15.286H14.9489C14.7342 15.286 14.5398 15.1606 14.4515 14.9653C14.3636 14.7689 14.3981 14.5398 14.5404 14.3795C14.7577 14.134 14.877 13.8177 14.877 13.4871C14.877 13.162 14.7562 12.8435 14.5372 12.5904C14.3972 12.4289 14.3641 12.2009 14.4525 12.0067C14.5415 11.8126 14.7353 11.6882 14.9489 11.6882H20.9175C21.1791 11.6882 21.4038 11.8736 21.4534 12.13C21.5322 12.5424 21.5722 12.9995 21.5722 13.4871C21.5722 13.9747 21.5322 14.4318 21.4534 14.8442C21.4038 15.1006 21.1791 15.286 20.9175 15.286Z" fill="#2C2D34"/>
<path d="M10.7028 11.6882H11.6974V10.6868L9.08939 8.07948C9.06495 8.1002 9.04041 8.12202 9.01586 8.14493C8.90939 8.22893 8.84437 8.28893 8.77946 8.34893C8.71444 8.41548 8.64943 8.48093 8.58921 8.54638C8.49015 8.6402 8.42415 8.70566 8.36339 8.77112C8.28877 8.84639 8.23401 8.90529 8.18437 8.96965C8.15034 9.00893 8.11837 9.04493 8.08902 9.07875L10.7028 11.6882ZM12.0574 12.7791H10.477C10.3327 12.7791 10.1942 12.7213 10.0919 12.6198L6.97684 9.51075C6.78353 9.31766 6.7627 9.01111 6.92786 8.79402C7.09248 8.57584 7.21128 8.41984 7.34972 8.2693C7.39772 8.20384 7.48346 8.10893 7.57717 8.01511C7.64317 7.9442 7.73055 7.85584 7.81848 7.77511C7.8547 7.73256 7.9303 7.65621 8.00655 7.57984C8.13059 7.46421 8.21906 7.38348 8.31495 7.3093C8.45502 7.17839 8.63775 7.03656 8.81404 6.91002C9.03081 6.75511 9.32961 6.77693 9.51932 6.96566L12.6285 10.0758C12.7307 10.1773 12.7883 10.3158 12.7883 10.4609V12.0417C12.7883 12.2053 12.7148 12.3602 12.588 12.4638C12.5395 12.5031 12.5123 12.5348 12.4985 12.5544C12.3957 12.6951 12.2322 12.7791 12.0574 12.7791Z" fill="#2C2D34"/>
<path d="M8.09291 17.8976C8.11527 17.9227 8.13709 17.9478 8.15836 17.9718C8.24465 18.0852 8.30749 18.1474 8.36934 18.2118L8.44919 18.2936C8.48967 18.3405 8.51629 18.3667 8.54618 18.3929C8.7145 18.5652 8.85349 18.6983 8.99836 18.8205C9.0288 18.8467 9.06021 18.8729 9.09163 18.8979L11.6975 16.2874V15.2859H10.7029L8.09291 17.8976ZM9.1284 20.1656C9.04691 20.1656 8.96487 20.147 8.88971 20.1099C8.85622 20.0936 8.82098 20.0696 8.78694 20.0412C8.74854 20.0172 8.706 19.9845 8.65854 19.9376C8.58076 19.8863 8.43163 19.7707 8.29472 19.655C8.1216 19.5099 7.95381 19.3485 7.79345 19.1805C7.7557 19.1499 7.69287 19.0867 7.63898 19.0234C7.4904 18.8729 7.39505 18.7714 7.31192 18.659C7.2241 18.5641 7.0957 18.407 6.98869 18.2565C6.86181 18.1616 6.80596 18.035 6.79472 17.8769C6.7836 17.7187 6.86454 17.5823 6.97636 17.471L10.0914 14.3554C10.1937 14.2529 10.3322 14.195 10.4771 14.195H12.0575C12.2323 14.195 12.3958 14.279 12.4985 14.4198C12.5124 14.4394 12.5396 14.471 12.5881 14.5103C12.7149 14.6139 12.7884 14.7689 12.7884 14.9325V16.5132C12.7884 16.6572 12.7308 16.7958 12.6291 16.8983L9.53269 20.0009C9.46342 20.0707 9.37712 20.1187 9.28396 20.1438C9.23334 20.158 9.18054 20.1656 9.1284 20.1656Z" fill="#2C2D34"/>
<path d="M15.3025 16.2875L17.9083 18.898C17.9392 18.8729 17.9702 18.8479 18 18.8217C18.1465 18.6984 18.2854 18.5653 18.4192 18.4257C18.4837 18.3668 18.5103 18.3406 18.5332 18.3144L18.6306 18.2118C18.6925 18.1475 18.7553 18.0853 18.808 18.0133C18.8431 17.9729 18.8762 17.9348 18.9076 17.8977L16.297 15.286H15.3025V16.2875ZM17.8662 20.1678C17.7682 20.1678 17.6713 20.1417 17.5861 20.0904C17.543 20.0664 17.5024 20.0358 17.4673 20.0009L14.3708 16.8984C14.2691 16.7959 14.2115 16.6573 14.2115 16.5133V14.9326C14.2115 14.758 14.2952 14.5944 14.4364 14.4918C14.4449 14.4853 14.4715 14.4635 14.5264 14.3958C14.6302 14.2693 14.7853 14.1951 14.9488 14.1951H16.5229C16.6677 14.1951 16.8063 14.2529 16.9085 14.3555L20.0172 17.4646C20.1291 17.5769 20.1897 17.7351 20.1786 17.8922C20.1696 18.0209 20.1168 18.1442 20.0289 18.2369C20.0038 18.2675 19.9676 18.3111 19.9532 18.3253C19.9042 18.4071 19.7758 18.5642 19.6544 18.6995C19.6049 18.7715 19.5096 18.8729 19.4126 18.9722C19.3071 19.0868 19.2442 19.15 19.1718 19.2144C19.0461 19.3486 18.8784 19.51 18.7036 19.6562C18.5683 19.7708 18.4192 19.8864 18.2828 19.9878C18.2775 19.9922 18.269 19.9977 18.2588 20.0053C18.221 20.0413 18.1731 20.0784 18.1102 20.11C18.0325 20.1482 17.9493 20.1678 17.8662 20.1678Z" fill="#2C2D34"/>
<path d="M15.3025 11.6882H16.297L18.9113 9.07875C18.897 9.06347 18.8255 8.98384 18.8155 8.96965C18.7659 8.90529 18.7111 8.84638 18.6514 8.78638C18.5757 8.70566 18.5097 8.6402 18.4442 8.57911C18.3505 8.48093 18.2854 8.41548 18.22 8.34893C18.1555 8.28893 18.0905 8.22893 18.0202 8.17439C17.9824 8.14057 17.9462 8.10893 17.911 8.07948L15.3025 10.6868V11.6882ZM16.5229 12.7791H14.9488C14.7853 12.7791 14.6302 12.7049 14.5264 12.5784C14.4923 12.5369 14.4539 12.4977 14.4118 12.4638C14.2851 12.3602 14.2115 12.2053 14.2115 12.0417V10.4609C14.2115 10.3158 14.2691 10.1773 14.3714 10.0758L17.4806 6.96566C17.6703 6.77693 17.9702 6.75511 18.1858 6.91002C18.3621 7.03656 18.5449 7.17839 18.7211 7.33984C18.7808 7.38348 18.8693 7.4642 18.9577 7.54493C19.0696 7.6562 19.1452 7.73257 19.215 7.80893C19.2693 7.85584 19.3567 7.9442 19.4377 8.03147C19.5164 8.10893 19.6023 8.20384 19.6805 8.3053C19.802 8.43512 19.8813 8.5442 19.9527 8.64457L20.0124 8.71984C20.1834 8.93693 20.2191 9.31439 20.023 9.51075L16.9079 12.6198C16.8057 12.7213 16.6672 12.7791 16.5229 12.7791Z" fill="#2C2D34"/>
<path d="M12.7916 24.0416V25.1914C12.7916 25.4271 12.9088 25.6464 13.1042 25.7794C13.3658 25.9562 13.7371 25.93 13.973 25.7184C14.1249 25.582 14.2085 25.3944 14.2085 25.1914V24.0416C13.7536 24.0722 13.2465 24.0722 12.7916 24.0416ZM13.5 26.9904C13.1394 26.9904 12.7916 26.8834 12.4938 26.6827C11.9974 26.3478 11.7007 25.7893 11.7007 25.1914V23.4362C11.7007 23.278 11.7694 23.1274 11.8886 23.0238C12.008 22.9202 12.1662 22.8722 12.3234 22.8962C13.0584 23.0009 13.9416 23.0009 14.6767 22.8962C14.8322 22.8722 14.9915 22.9202 15.1114 23.0238C15.2306 23.1274 15.2994 23.278 15.2994 23.4362V25.1914C15.2994 25.7009 15.0815 26.1896 14.7018 26.53C14.3709 26.8267 13.9442 26.9904 13.5 26.9904Z" fill="#2C2D34"/>
<path d="M1.79935 12.7824C1.63527 12.7824 1.48189 12.8358 1.35458 12.9395C1.1868 13.0748 1.09091 13.2755 1.09091 13.4904C1.09091 13.6944 1.17884 13.8886 1.33276 14.0228C1.4616 14.1362 1.62731 14.1984 1.79935 14.1984H2.94884C2.93346 13.9704 2.92539 13.7358 2.92539 13.4904C2.92539 13.2449 2.93346 13.0104 2.94884 12.7824H1.79935ZM3.55396 15.2893H1.79935C1.362 15.2893 0.940694 15.1311 0.613093 14.8431C0.223748 14.5017 0 14.0086 0 13.4904C0 12.9438 0.243928 12.4333 0.669056 12.0908C0.987056 11.8333 1.38862 11.6915 1.79935 11.6915H3.55396C3.71215 11.6915 3.86236 11.7602 3.96578 11.8791C4.06964 11.998 4.11644 12.1562 4.09408 12.3133C4.04193 12.682 4.01629 13.0671 4.01629 13.4904C4.01629 13.9137 4.04193 14.2988 4.09408 14.6675C4.11644 14.8246 4.06964 14.9828 3.96578 15.1017C3.86236 15.2206 3.71215 15.2893 3.55396 15.2893Z" fill="#2C2D34"/>
<path d="M24.0511 14.1984H25.2006C25.3897 14.1984 25.5676 14.1242 25.7019 13.9911C25.8355 13.8569 25.909 13.6791 25.909 13.4904C25.909 13.3017 25.8355 13.1238 25.7019 12.9897C25.5676 12.8555 25.3897 12.7824 25.2006 12.7824H24.0511C24.0665 13.0104 24.0746 13.2449 24.0746 13.4904C24.0746 13.7358 24.0665 13.9704 24.0511 14.1984ZM25.2006 15.2893H23.446C23.2878 15.2893 23.1376 15.2206 23.0342 15.1017C22.9303 14.9828 22.8835 14.8246 22.9059 14.6675C22.958 14.2988 22.9836 13.9137 22.9836 13.4904C22.9836 13.0671 22.958 12.682 22.9059 12.3133C22.8835 12.1562 22.9303 11.998 23.0342 11.8791C23.1376 11.7602 23.2878 11.6915 23.446 11.6915H25.2006C25.681 11.6915 26.1333 11.878 26.4731 12.2184C26.813 12.5588 26.9999 13.0104 26.9999 13.4904C26.9999 13.9704 26.813 14.422 26.4731 14.7624C26.1333 15.1017 25.681 15.2893 25.2006 15.2893Z" fill="#2C2D34"/>
<path d="M5.2276 4.50893C5.19454 4.50893 5.16051 4.5111 5.12691 4.51547C4.97353 4.53619 4.83498 4.60601 4.72523 4.7151C4.57403 4.86674 4.53029 5.0391 4.52025 5.15692C4.50258 5.36528 4.57774 5.56928 4.72578 5.71874L5.53818 6.53038C5.68785 6.35802 5.84865 6.18674 6.02232 6.01328C6.196 5.83874 6.36749 5.67838 6.53952 5.52893L5.72778 4.7162C5.5925 4.58093 5.41458 4.50893 5.2276 4.50893ZM5.58072 7.88965C5.43639 7.88965 5.29785 7.83184 5.19509 7.72929L3.95396 6.48893C3.57847 6.11256 3.38876 5.59438 3.4336 5.06529C3.46872 4.64311 3.65353 4.24384 3.95396 3.94384C4.23313 3.66565 4.58625 3.48892 4.97614 3.43547C5.536 3.35147 6.09476 3.54129 6.49796 3.94384H6.49851L7.73909 5.18529C7.85102 5.29765 7.90851 5.45256 7.89738 5.60965C7.88615 5.76783 7.80727 5.91292 7.68105 6.00783C7.3828 6.23147 7.09251 6.48565 6.7936 6.78347C6.4948 7.08238 6.24073 7.37365 6.01698 7.67147C5.92218 7.79801 5.77731 7.87657 5.61967 7.88748C5.60636 7.88857 5.59349 7.88965 5.58072 7.88965Z" fill="#2C2D34"/>
<path d="M20.46 21.4518L21.2728 22.2645C21.4395 22.4314 21.6739 22.5023 21.9093 22.4598C22.0483 22.4325 22.1747 22.3649 22.2748 22.2645C22.3983 22.1412 22.4718 21.9765 22.4809 21.803C22.4916 21.6023 22.4164 21.4049 22.2748 21.263L21.4619 20.4503C21.3122 20.6227 21.1514 20.794 20.9777 20.9674C20.804 21.142 20.6325 21.3023 20.46 21.4518ZM21.773 23.5627C21.3011 23.5627 20.843 23.3772 20.5021 23.0369L19.2604 21.7954C19.1485 21.683 19.0904 21.5281 19.1022 21.3711C19.1133 21.2129 19.1922 21.0678 19.319 20.9729C19.6167 20.7503 19.907 20.4961 20.2064 20.1961C20.5058 19.8972 20.7599 19.6071 20.9825 19.3092C21.0779 19.1827 21.2227 19.1041 21.3804 19.0921C21.5429 19.0769 21.6931 19.139 21.8049 19.2503L23.0461 20.4918C23.4062 20.8518 23.5974 21.3514 23.5707 21.8609C23.5468 22.3049 23.3604 22.7216 23.0461 23.0369C22.7914 23.291 22.4697 23.4623 22.1165 23.53C22.0025 23.5529 21.8875 23.5627 21.773 23.5627Z" fill="#2C2D34"/>
<path d="M5.53819 20.4503L4.72524 21.263C4.60971 21.3787 4.53935 21.526 4.52179 21.6885C4.49942 21.9023 4.57349 22.1129 4.72524 22.2645C4.86913 22.4096 5.06298 22.4871 5.27342 22.4707C5.44437 22.4598 5.60582 22.3867 5.72724 22.2645L6.53953 21.4518C6.3675 21.3023 6.196 21.142 6.02233 20.9674C5.84866 20.794 5.68786 20.6227 5.53819 20.4503ZM5.22651 23.5627C4.75088 23.5627 4.29226 23.375 3.95397 23.0369C3.56833 22.6507 3.37971 22.1172 3.43731 21.574C3.4804 21.166 3.66422 20.782 3.95397 20.4918L5.1951 19.2514C5.30692 19.139 5.4567 19.0834 5.61968 19.0932C5.77731 19.1041 5.92219 19.1827 6.01699 19.3092C6.24073 19.6071 6.49481 19.8972 6.79361 20.1961C7.09251 20.495 7.38281 20.7492 7.68106 20.9729C7.80728 21.0678 7.88615 21.2129 7.89739 21.3711C7.90852 21.5281 7.85102 21.683 7.7391 21.7954L6.49852 23.0369C6.19012 23.3456 5.77993 23.531 5.34477 23.5594C5.30539 23.5616 5.2659 23.5627 5.22651 23.5627Z" fill="#2C2D34"/>
<path d="M20.4605 5.52893C20.6326 5.67838 20.8041 5.83874 20.9777 6.01328C21.1514 6.18674 21.3122 6.35802 21.4619 6.53038L22.2748 5.71765C22.4085 5.58347 22.482 5.40565 22.482 5.21692C22.482 5.02819 22.4085 4.85037 22.2748 4.7151C22.0053 4.44674 21.5397 4.44783 21.2723 4.7162L20.4605 5.52893ZM21.4193 7.88965C21.4066 7.88965 21.3937 7.88857 21.3804 7.88748C21.2228 7.87657 21.0779 7.79801 20.9831 7.67147C20.7593 7.37365 20.5053 7.08238 20.2065 6.78347C19.9076 6.48565 19.6173 6.23147 19.319 6.00783C19.1928 5.91292 19.1139 5.76783 19.1027 5.60965C19.0916 5.45256 19.149 5.29765 19.261 5.18529L20.5016 3.94384C21.1812 3.2642 22.3648 3.2642 23.0456 3.94384L23.0466 3.94492C23.3859 4.2842 23.5729 4.73692 23.5729 5.21692C23.5729 5.69692 23.3859 6.14856 23.0466 6.48783L21.805 7.72929C21.7022 7.83184 21.5637 7.88965 21.4193 7.88965Z" fill="#2C2D34"/>
<path d="M13.5032 12.1136C13.1687 12.1136 12.8496 12.2325 12.6046 12.4496C12.5396 12.5031 12.5124 12.5347 12.4985 12.5543C12.2504 12.8434 12.1295 13.162 12.1295 13.4871C12.1295 13.8176 12.2487 14.134 12.466 14.3794C12.5124 14.4394 12.5396 14.4711 12.5881 14.5103C13.1042 14.9652 13.8873 14.9652 14.3997 14.5212C14.4449 14.4852 14.4716 14.4634 14.5264 14.3958C14.7576 14.134 14.8769 13.8176 14.8769 13.4871C14.8769 13.162 14.7561 12.8434 14.5371 12.5903C14.4924 12.5369 14.454 12.4976 14.4119 12.4638C14.1472 12.2347 13.8287 12.1136 13.5032 12.1136ZM13.5032 15.9514C12.9023 15.9514 12.3265 15.7354 11.8812 15.3416C11.7864 15.2641 11.6916 15.1649 11.6164 15.0612C11.2553 14.6576 11.0386 14.0838 11.0386 13.4871C11.0386 12.8991 11.2542 12.3263 11.6458 11.8758C11.6916 11.8092 11.7864 11.71 11.8978 11.6194C12.7463 10.8667 14.2036 10.8372 15.1145 11.6292C15.2008 11.7001 15.2903 11.7896 15.3712 11.8878C15.7522 12.3263 15.9679 12.8991 15.9679 13.4871C15.9679 14.0838 15.7511 14.6576 15.3574 15.1027C15.3069 15.1649 15.2062 15.2805 15.0778 15.3743C14.6639 15.7365 14.0913 15.9514 13.5032 15.9514Z" fill="#2C2D34"/>
</svg>
