<svg width="24" height="21" viewBox="0 0 24 21" fill="none" xmlns="http://www.w3.org/2000/svg">
<path d="M4.58386 17.5409H15.0022V9.96389H4.58386V17.5409Z" fill="#EDB27A"/>
<path d="M7.29265 4.02538C7.32106 3.88331 7.35895 3.75072 7.41578 3.61812C7.44419 3.53288 7.48207 3.45711 7.51996 3.38134C7.55794 3.30557 7.6052 3.23927 7.64309 3.17297C7.69044 3.0972 7.7378 3.0309 7.78525 2.97407C7.84198 2.90777 7.88934 2.84148 7.94617 2.78465C7.99352 2.73729 8.04097 2.68994 8.08823 2.64258C8.164 2.57628 8.23977 2.50998 8.31554 2.46263C8.38184 2.41527 8.44824 2.36791 8.51444 2.33003C8.58074 2.28267 8.65651 2.24479 8.72281 2.21637C8.91223 2.12166 9.1206 2.05536 9.32897 2.00801C9.36685 1.99853 9.39527 1.99853 9.43315 1.98906C9.51839 1.97959 9.60363 1.97012 9.68888 1.96065C9.7457 1.95118 9.80253 1.95118 9.85936 1.95118C11.3085 1.95118 12.483 3.13508 12.483 4.60313C12.483 5.44607 12.0946 6.18483 11.4979 6.67733V9.23457H8.21136V6.67733C7.61467 6.18483 7.22635 5.44607 7.22635 4.60313C7.22635 4.40423 7.24529 4.20534 7.29265 4.02538ZM17.4269 6.84782C17.4269 6.84782 17.4269 6.84782 17.4269 6.83834C17.1333 5.12405 16.2714 3.59918 15.0212 2.46263C13.6573 1.23136 11.8483 0.473662 9.85936 0.473662C9.80253 0.473662 9.7457 0.473662 9.68888 0.483134C7.76621 0.521019 6.0235 1.26925 4.68805 2.46263C3.14424 3.87384 2.1687 5.90069 2.1687 8.15485V10.7216H17.5405V8.15485C17.5405 7.7097 17.5027 7.27402 17.4269 6.84782Z" fill="#F2591D"/>
<path d="M16.6313 10.7215V13.5628C16.6313 13.7333 16.6313 13.8943 16.6124 14.0553C16.5839 14.3868 16.5366 14.7089 16.4703 15.0214C16.2335 16.0822 15.7315 17.0577 15.0496 17.8628C13.8373 19.274 12.0377 20.1643 10.0298 20.1643H9.57522C8.01246 20.1643 6.5823 19.6339 5.46469 18.7247C4.29973 17.8154 3.46626 16.5084 3.12529 15.0214C3.04952 14.671 3.00217 14.3111 2.98323 13.9417C2.97375 13.8091 2.97375 13.686 2.97375 13.5628V10.7215H5.05743V14.1122C5.05743 15.334 5.65412 16.3853 6.50653 16.8304C6.70543 16.9346 6.9138 17.0104 7.14111 17.0483C7.14111 17.0483 7.28317 17.0672 7.42524 17.0672C8.05982 17.0672 8.89329 16.139 9.68887 16.1201H9.79306C9.92565 16.1296 10.3613 16.3663 11.2422 16.8304C11.3274 16.8778 11.5547 16.9914 11.8767 17.0483C11.962 17.0577 12.0662 17.0672 12.1609 17.0672C12.8144 17.0672 13.4111 16.7357 13.8373 16.1959C14.2635 15.6655 14.5287 14.9267 14.5287 14.1122V10.7215H16.6313Z" fill="#F3D055"/>
<path d="M3.07223 15.0252C2.7952 15.3899 2.43112 15.6134 2.02964 15.6134C1.1706 15.6134 0.473511 14.5934 0.473511 13.3365C0.473511 12.0787 1.1706 11.0587 2.02964 11.0587C2.38131 11.0587 2.70494 11.2273 2.96331 11.5142V13.5638C2.96331 14.0649 3.00063 14.5564 3.07223 15.0252Z" fill="#EDB27A"/>
<path d="M17.5406 10.7216H9.68896V9.23457H11.498V6.67733C12.0947 6.18483 12.4831 5.44607 12.4831 4.60313C12.4831 3.13508 11.3085 1.95118 9.85945 1.95118C9.82715 1.95118 9.79485 1.95118 9.76265 1.95307C9.73803 1.95402 9.7135 1.95686 9.68896 1.96065V0.483134C9.74579 0.473662 9.80262 0.473662 9.85945 0.473662C11.8484 0.473662 13.6574 1.23136 15.0213 2.46263C16.2715 3.59918 17.1334 5.12405 17.427 6.83834C17.427 6.84782 17.427 6.84782 17.427 6.84782C17.5027 7.27402 17.5406 7.7097 17.5406 8.15485V10.7216Z" fill="#F7A80E"/>
<path d="M17.5405 8.42944V8.15478C17.5405 7.70963 17.5026 7.27395 17.4269 6.84774C17.4269 6.84774 17.4269 6.84774 17.4269 6.83827C17.4742 6.73409 18.9612 3.31497 22.0962 3.31497C22.0962 3.31497 22.2321 3.76769 22.232 4.43163C22.2319 5.34466 21.9744 6.65737 20.7513 7.73804C20.5713 7.7191 20.3914 7.70963 20.2114 7.70963C18.876 7.70963 17.7868 8.13583 17.73 8.16425C17.6731 8.24949 17.6068 8.3442 17.5405 8.42944Z" fill="#BF5E48"/>
<path d="M19.7603 11.1553C19.1106 11.1553 18.3723 11.0179 17.5405 10.6741V8.42945C17.6068 8.34421 17.6731 8.24949 17.73 8.16425C17.7868 8.13584 18.876 7.70963 20.2114 7.70963C20.3914 7.70963 20.5713 7.7191 20.7513 7.73805C21.6889 7.81382 22.6929 8.14531 23.5264 8.96931C23.5264 8.96931 22.3514 11.1553 19.7603 11.1553Z" fill="#ED6D4E"/>
<path d="M10.0299 20.1643H9.68896V16.1201H9.79315C9.92575 16.1296 10.3614 16.3663 11.2423 16.8304C11.3275 16.8778 11.5548 16.9914 11.8768 17.0483C11.9621 17.0577 12.0662 17.0672 12.161 17.0672C12.8145 17.0672 13.4112 16.7357 13.8374 16.1959C14.2636 15.6655 14.5288 14.9267 14.5288 14.1122V10.7215H15.0023H16.6314V13.5628C16.6314 13.7333 16.6314 13.8943 16.6125 14.0553C16.584 14.3868 16.5367 14.7089 16.4704 15.0214C16.2336 16.0822 15.7316 17.0577 15.0497 17.8628C13.8374 19.274 12.0378 20.1643 10.0299 20.1643Z" fill="#F8E298"/>
<path d="M17.5689 15.6088C17.1711 15.6088 16.8019 15.3909 16.5271 15.0215C16.5745 14.709 16.6029 14.387 16.6123 14.0555C16.6313 13.8945 16.6313 13.7335 16.6313 13.563V11.5172C16.8965 11.2236 17.2185 11.0626 17.5689 11.0626C18.4308 11.0626 19.1317 12.076 19.1317 13.3357C19.1317 14.5953 18.4308 15.6088 17.5689 15.6088Z" fill="#EDB27A"/>
<path d="M8.685 8.76096H11.0241V6.67728C11.0241 6.53616 11.087 6.40167 11.1961 6.31264C11.7128 5.88548 12.0091 5.26228 12.0091 4.60308C12.0091 3.40118 11.0445 2.42469 9.85915 2.42469C8.66881 2.42469 7.6999 3.40118 7.6999 4.60308C7.6999 5.26228 7.99635 5.88548 8.51291 6.31264C8.62212 6.40262 8.685 6.53616 8.685 6.67728V8.76096ZM11.4977 9.70808H8.21144C7.94966 9.70808 7.73788 9.49687 7.73788 9.23452V6.89038C7.10937 6.29085 6.75277 5.4697 6.75277 4.60308C6.75277 2.88026 8.14618 1.47756 9.85915 1.47756C11.567 1.47756 12.9563 2.88026 12.9563 4.60308C12.9563 5.4697 12.5998 6.2918 11.9712 6.89038V9.23452C11.9712 9.49687 11.7595 9.70808 11.4977 9.70808V9.70808ZM2.64244 10.2479H17.0672V8.1548C17.0672 7.73901 17.0315 7.32796 16.9608 6.93111C16.9557 6.90364 16.9534 6.87523 16.9534 6.84776V6.83829C16.6879 5.32763 15.9073 3.90789 14.7026 2.81301C13.3706 1.61111 11.6498 0.947174 9.85915 0.947174C8.07221 0.947174 6.34769 1.61111 5.00381 2.8149C3.50451 4.18634 2.64244 6.13363 2.64244 8.1548V10.2479ZM17.5407 11.1951H2.16888C1.90709 11.1951 1.69531 10.9829 1.69531 10.7215V8.1548C1.69531 5.86844 2.66971 3.66637 4.36838 2.11309C5.88937 0.749226 7.83818 4.89336e-05 9.85915 4.89336e-05C11.8848 4.89336e-05 13.8308 0.749224 15.3385 2.11119C16.6828 3.33393 17.5897 4.98382 17.8935 6.75874L17.427 6.84776L17.8931 6.76442C17.9736 7.21714 18.0143 7.68408 18.0143 8.1548V10.7215C18.0143 10.9829 17.8024 11.1951 17.5407 11.1951" fill="#2C2D34"/>
<path d="M8.68492 8.76088H11.024V6.67721C11.024 6.53609 11.0869 6.40159 11.196 6.31256C11.7127 5.88541 12.009 5.2622 12.009 4.603C12.009 3.4011 11.0444 2.42461 9.85907 2.42461C8.66872 2.42461 7.69981 3.4011 7.69981 4.603C7.69981 5.2622 7.99626 5.88541 8.51282 6.31256C8.62203 6.40254 8.68492 6.53609 8.68492 6.67721V8.76088ZM11.4976 9.70801H8.21135C7.94957 9.70801 7.73779 9.4968 7.73779 9.23445V6.89031C7.10928 6.29078 6.75269 5.46962 6.75269 4.603C6.75269 2.88018 8.1461 1.47749 9.85907 1.47749C11.5669 1.47749 12.9562 2.88018 12.9562 4.603C12.9562 5.46962 12.5997 6.29173 11.9712 6.89031V9.23445C11.9712 9.4968 11.7594 9.70801 11.4976 9.70801" fill="#2C2D34"/>
<path d="M18.0144 10.3493C20.8521 11.3779 22.3929 9.76591 22.9109 9.05273C22.3047 8.56306 21.5671 8.27987 20.7128 8.20978C19.436 8.07813 18.3821 8.43236 18.0375 8.55359C18.0296 8.56401 18.0222 8.57537 18.0144 8.58579V10.3493ZM19.7542 11.6289C19.0498 11.6289 18.253 11.4812 17.36 11.1118C17.1828 11.0388 17.0673 10.8655 17.0673 10.6742V8.42952C17.0673 8.32439 17.1024 8.2221 17.1667 8.13875C17.2259 8.06298 17.2846 7.97868 17.335 7.90291C17.3817 7.83188 17.4465 7.77505 17.5223 7.73812C17.5325 7.73338 18.7016 7.23614 20.2115 7.23614C20.4085 7.23614 20.6051 7.24656 20.8021 7.26739C22.0096 7.36495 23.0423 7.8243 23.8595 8.63315C24.0088 8.7809 24.043 9.00821 23.9436 9.19385C23.9274 9.22415 22.5936 11.6289 19.7542 11.6289" fill="#2C2D34"/>
<path d="M3.44713 11.195V13.5628C3.44713 13.6746 3.44665 13.7863 3.45546 13.9075C3.47393 14.2599 3.51835 14.598 3.58815 14.921C3.90033 16.2839 4.67081 17.5047 5.75622 18.3505C6.83518 19.2294 8.1532 19.6907 9.57522 19.6907H10.0298C11.8256 19.6907 13.5243 18.9112 14.6901 17.554C15.3371 16.7906 15.7935 15.8785 16.0081 14.9172C16.0697 14.6293 16.114 14.3252 16.1408 14.0146C16.1584 13.8583 16.1575 13.7153 16.1575 13.5628V11.195H15.0022V14.1121C15.0022 15.0072 14.7197 15.8529 14.2068 16.4923C13.5973 17.2642 12.6511 17.6487 11.7988 17.5133C11.3987 17.4507 11.1133 17.2983 11.0195 17.2481C10.3595 16.8976 9.83795 16.6211 9.7117 16.5851C9.45777 16.5623 9.06793 16.8039 8.69382 17.034C8.28769 17.2831 7.86783 17.5407 7.42524 17.5407C7.24349 17.5407 7.0641 17.5133 7.0641 17.5133C6.79862 17.4725 6.53636 17.3825 6.28386 17.2481C5.25263 16.7101 4.58387 15.4779 4.58387 14.1121V11.195H3.44713ZM10.0298 20.6378H9.57522C7.95658 20.6378 6.3907 20.0885 5.16606 19.0921C3.91699 18.1166 3.02584 16.7072 2.66376 15.1265C2.58183 14.7486 2.5305 14.3603 2.51013 13.9663C2.50047 13.8308 2.5 13.6963 2.5 13.5628V10.7214C2.5 10.4591 2.71178 10.2479 2.97356 10.2479H5.05743C5.31921 10.2479 5.53099 10.4591 5.53099 10.7214V14.1121C5.53099 15.1142 6.01099 16.0376 6.72598 16.4108C6.89021 16.4979 7.04696 16.5519 7.20882 16.5765C7.21716 16.5775 7.32068 16.5936 7.42524 16.5936C7.60055 16.5936 7.91775 16.3985 8.198 16.2261C8.67895 15.9316 9.22326 15.5982 9.83331 15.6484C10.0539 15.6664 10.3064 15.7971 11.4644 16.4127C11.5306 16.4477 11.703 16.5387 11.9449 16.5765C12.4888 16.6599 13.0608 16.4155 13.4654 15.9031C13.8466 15.4277 14.0551 14.7931 14.0551 14.1121V10.7214C14.0551 10.4591 14.2669 10.2479 14.5287 10.2479H16.631C16.8928 10.2479 17.1046 10.4591 17.1046 10.7214V13.5628C17.1046 13.7522 17.1037 13.9303 17.0829 14.1093C17.0537 14.4474 17.0029 14.7922 16.9335 15.1199C16.6847 16.2337 16.1584 17.2859 15.4106 18.1687C14.0625 19.738 12.1021 20.6378 10.0298 20.6378Z" fill="#2C2D34"/>
<path d="M2.02969 11.5323C1.45299 11.5323 0.947125 12.3753 0.947125 13.3366C0.947125 14.297 1.45299 15.1399 2.02969 15.1399C2.25681 15.1399 2.44406 15.0083 2.57315 14.8795C2.51803 14.4514 2.4899 14.009 2.4899 13.5639V11.7142C2.37151 11.6166 2.21561 11.5323 2.02969 11.5323ZM2.02969 16.087C0.891624 16.087 0 14.8785 0 13.3366C0 11.7937 0.891624 10.5852 2.02969 10.5852C2.50325 10.5852 2.95977 10.803 3.31532 11.197C3.39355 11.2842 3.43702 11.3969 3.43702 11.5143V13.5639C3.43702 14.0384 3.47169 14.5063 3.54007 14.9552C3.55958 15.0812 3.52671 15.21 3.44905 15.3123C3.06935 15.8124 2.56529 16.087 2.02969 16.087Z" fill="#2C2D34"/>
<path d="M17.0234 14.8776C17.1524 15.0073 17.3407 15.1399 17.5709 15.1399C18.149 15.1399 18.6563 14.297 18.6563 13.3366C18.6563 12.3753 18.149 11.5323 17.5709 11.5323C17.3845 11.5323 17.2282 11.6166 17.1094 11.7142V13.5639C17.1094 14.0109 17.0802 14.4523 17.0234 14.8776V14.8776ZM17.5709 16.087C17.0298 16.087 16.5235 15.8095 16.1451 15.3066C16.0679 15.2034 16.0355 15.0736 16.0559 14.9467C16.1266 14.5044 16.1622 14.0394 16.1622 13.5639V11.5143C16.1622 11.3969 16.2057 11.2842 16.2839 11.197C16.6395 10.803 17.0964 10.5852 17.5709 10.5852C18.7104 10.5852 19.6034 11.7937 19.6034 13.3366C19.6034 14.8785 18.7104 16.087 17.5709 16.087Z" fill="#2C2D34"/>
</svg>
