<?xml version="1.0" standalone="no"?>
<!DOCTYPE svg PUBLIC "-//W3C//DTD SVG 20010904//EN"
 "http://www.w3.org/TR/2001/REC-SVG-20010904/DTD/svg10.dtd">
<svg version="1.0" xmlns="http://www.w3.org/2000/svg"
 width="62.000000pt" height="62.000000pt" viewBox="0 0 62.000000 62.000000"
 preserveAspectRatio="xMidYMid meet">

<g transform="translate(0.000000,62.000000) scale(0.100000,-0.100000)"
fill="#000000" stroke="none">
<path d="M234 465 c-21 -21 -24 -33 -23 -84 2 -55 3 -59 20 -50 23 12 24 25 3
37 -12 7 -15 17 -10 35 5 20 14 28 41 33 61 11 82 0 100 -55 13 -40 19 -48 35
-44 40 11 11 100 -42 133 -46 28 -93 26 -124 -5z"/>
<path d="M287 373 c-10 -9 13 -33 32 -33 13 1 13 2 -3 11 -15 9 -16 13 -5 20
11 7 11 9 -2 9 -9 0 -19 -3 -22 -7z"/>
<path d="M326 227 c-32 -17 -44 -18 -68 -9 -26 10 -28 9 -17 -5 17 -20 -4 -36
-83 -65 -79 -29 -86 -39 -46 -73 77 -66 185 -89 281 -61 54 16 136 69 144 93
3 7 -30 29 -76 51 -49 24 -81 35 -81 28 0 -16 -39 -52 -66 -60 -25 -8 -68 23
-56 40 4 6 31 23 60 38 28 14 52 31 52 36 0 6 -1 9 -2 9 -2 -1 -21 -11 -42
-22z"/>
</g>
</svg>
