<svg width="24" height="24" viewBox="0 0 24 24" fill="none" xmlns="http://www.w3.org/2000/svg">
<path d="M23.52 7.00705V23.3424H5.3184C2.67562 23.3424 0.527424 21.2976 0.486816 18.7622C0.683328 18.4483 1.53716 17.207 3.19066 16.8086C4.05802 16.5994 4.79664 16.7098 5.22356 16.8086V7.00705H12.3389L15.3878 12.8813L18.4378 7.00705H23.52Z" fill="#FF8618"/>
<path d="M5.2225 6.02398V16.8048C4.8001 16.7088 4.0609 16.6032 3.1873 16.8048C2.8993 16.872 2.6401 16.968 2.4001 17.0832C1.2577 17.6112 0.652903 18.504 0.489703 18.7632C0.480103 18.7344 0.480103 18.7056 0.480103 18.6768V6.02398C0.480103 4.91038 1.3057 3.97918 2.4001 3.78718C2.5442 3.74878 2.69771 3.73918 2.85121 3.73918C4.15691 3.73918 5.2225 4.76638 5.2225 6.02398Z" fill="#EFD510"/>
<path d="M19.2374 5.80512L18.6077 7.02624L15.3878 13.2278L15.3091 13.0781L12.1689 7.02624L11.5305 5.79936C11.1811 5.11487 11.0371 4.35647 11.1091 3.62495C11.1811 2.87327 11.4816 2.15616 12.024 1.57728C12.239 1.3488 12.4762 1.1424 12.7334 0.96192C13.4573 0.452159 14.3453 0.15072 15.3091 0.136319C15.336 0.135359 15.3619 0.135354 15.3878 0.135354C16.6406 0.135354 17.7706 0.617277 18.5933 1.4112L18.6153 1.43135C19.2009 2.01119 19.5446 2.74176 19.6445 3.50784C19.752 4.28064 19.6147 5.08704 19.2374 5.80512Z" fill="#E94822"/>
<path d="M15.3878 13.2278L15.3091 13.0781V0.136319C15.336 0.135359 15.3619 0.135354 15.3878 0.135354C16.6406 0.135354 17.7705 0.617277 18.5932 1.4112L18.6153 1.43135C19.2009 2.01119 19.5446 2.74176 19.6444 3.50784C19.6684 3.67968 19.68 3.85343 19.68 4.02815C19.679 4.63487 19.5312 5.24736 19.2374 5.80512L18.6076 7.02624L15.3878 13.2278Z" fill="#ED6D4E"/>
<path d="M2.3999 17.0832V3.78719C2.544 3.74879 2.6975 3.73919 2.85101 3.73919C4.15671 3.73919 5.2223 4.76639 5.2223 6.02399V16.8048C5.00745 16.7558 4.71071 16.7049 4.35609 16.6925C4.30511 16.6905 4.25289 16.6896 4.19961 16.6896C4.08662 16.6896 3.96845 16.6944 3.84595 16.704C3.63782 16.7203 3.41721 16.752 3.1871 16.8048C2.8991 16.872 2.6399 16.968 2.3999 17.0832Z" fill="#F2DD40"/>
<path d="M0.971227 18.8985C1.08604 21.0979 3.00566 22.8624 5.3184 22.8624H23.04V7.48703H18.7296L15.8141 13.1021C15.7315 13.2614 15.5674 13.3613 15.3878 13.3613C15.2093 13.3613 15.0451 13.2614 14.9626 13.1021L12.047 7.48703H5.70374V16.8086C5.70374 16.9545 5.63721 17.0928 5.52278 17.184C5.40893 17.2752 5.2608 17.3097 5.11641 17.2761C4.49904 17.1341 3.8878 17.1341 3.30326 17.2752C2.00764 17.5872 1.25625 18.4867 0.971227 18.8985ZM23.52 23.8224H5.3184C2.43417 23.8224 0.0515447 21.5558 0.00652071 18.7699C0.00517671 18.6777 0.0304258 18.5856 0.0796739 18.5069C0.330042 18.1085 1.28486 16.7741 3.07824 16.3411C3.6216 16.2115 4.17887 16.1779 4.74374 16.2403V7.00703C4.74374 6.74207 4.95839 6.52703 5.22374 6.52703H12.3389C12.5184 6.52703 12.6826 6.62687 12.7651 6.78623L15.3878 11.8397L18.0125 6.78623C18.095 6.62687 18.2592 6.52703 18.4378 6.52703H23.52C23.785 6.52703 24 6.74207 24 7.00703V23.3424C24 23.6073 23.785 23.8224 23.52 23.8224Z" fill="#2C2D34"/>
<path d="M2.85188 4.22016C1.80893 4.22016 0.96 5.0304 0.96 6.02688V17.473C1.4569 17.0237 2.15674 16.5638 3.07824 16.3411C3.6216 16.2115 4.17888 16.1779 4.74374 16.2403V6.02688C4.74374 5.0304 3.89482 4.22016 2.85188 4.22016ZM0.486525 19.2422C0.461757 19.2422 0.436419 19.2403 0.411075 19.2365C0.221283 19.2058 0.0674899 19.0656 0.0211219 18.8784C0.0112339 18.841 0 18.7162 0 18.6768V6.02688C0 4.50144 1.2792 3.26016 2.85188 3.26016C4.42455 3.26016 5.70374 4.50144 5.70374 6.02688V16.8086C5.70374 16.9546 5.63722 17.0928 5.52278 17.184C5.40893 17.2752 5.2608 17.3098 5.11642 17.2762C4.49904 17.1341 3.88781 17.1341 3.30326 17.2752C1.86278 17.6218 1.0945 18.696 0.893475 19.0176C0.804387 19.1587 0.650109 19.2422 0.486525 19.2422Z" fill="#2C2D34"/>
<path d="M0.48 19.248C0.415296 19.248 0.349731 19.2355 0.288291 19.2086C0.112995 19.1318 0 18.959 0 18.768C0 18.7526 0.00096225 18.7382 0.00230625 18.7219C0.00096225 18.7037 0 18.6873 0 18.6768C0 18.4118 0.214656 18.1968 0.48 18.1968C0.745344 18.1968 0.96 18.4118 0.96 18.6768C1.00262 18.8467 0.941278 18.9945 0.81331 19.1136L0.806691 19.1203C0.716259 19.2038 0.59856 19.248 0.48 19.248Z" fill="#2C2D34"/>
<path d="M15.3878 0.959985C14.5718 0.959985 13.7971 1.20094 13.15 1.65598C12.9398 1.80287 12.7392 1.97663 12.5529 2.17439C12.1296 2.62559 11.8742 3.1987 11.8137 3.83134C11.7542 4.44382 11.8752 5.06303 12.1622 5.62463L15.3878 11.8397L18.6076 5.63039L18.6096 5.62559C18.9139 5.04959 19.0329 4.38046 18.9446 3.74014C18.8601 3.09022 18.5712 2.50751 18.1065 2.04959C17.3721 1.3411 16.4131 0.959985 15.3878 0.959985ZM15.3878 13.3613C15.2093 13.3613 15.0451 13.2614 14.9625 13.1021L11.3097 6.06431C10.9364 5.33759 10.7808 4.53406 10.858 3.74014C10.9387 2.89342 11.2829 2.12446 11.8531 1.51679C12.0854 1.27007 12.3369 1.0531 12.6 0.86974C13.4073 0.300461 14.3721 -1.52588e-05 15.3878 -1.52588e-05C16.6617 -1.52588e-05 17.8588 0.477108 18.7564 1.34303C19.3987 1.97567 19.7836 2.7523 19.8969 3.61246C20.0121 4.44574 19.8566 5.32031 19.4601 6.07199L15.814 13.1021C15.7315 13.2614 15.5673 13.3613 15.3878 13.3613Z" fill="#2C2D34"/>
</svg>
