<svg width="25" height="29" viewBox="0 0 25 29" fill="none" xmlns="http://www.w3.org/2000/svg">
<path d="M12.254 25.7296C7.29371 25.7296 3.27932 21.7026 3.27932 16.7424C3.27932 11.7934 7.29371 7.76643 12.254 7.76643C17.2155 7.76643 21.2299 11.7934 21.2299 16.7424C21.2299 21.7026 17.2155 25.7296 12.254 25.7296ZM14.4951 5.29197C13.7712 5.14062 13.0246 5.07 12.254 5.07C11.4847 5.07 10.7368 5.14062 10.0141 5.29197C4.64393 6.34254 0.582886 11.0695 0.582886 16.7424C0.582886 23.1959 5.8118 28.4135 12.254 28.4135C18.6974 28.4135 23.9263 23.1959 23.9263 16.7424C23.9263 11.0695 19.864 6.34254 14.4951 5.29197Z" fill="#FF7A01"/>
<path d="M21.2334 16.745C21.2334 21.6999 17.2119 25.7227 12.2557 25.7227C7.29945 25.7227 3.27795 21.6999 3.27795 16.745C3.27795 11.7887 7.29945 7.76601 12.2557 7.76601C17.2119 7.76601 21.2334 11.7887 21.2334 16.745Z" fill="#F2CC46"/>
<path d="M14.4962 0.588017V5.29175C13.772 5.13968 13.0245 5.07009 12.2552 5.07009C11.4846 5.07009 10.7371 5.13968 10.0142 5.29175V0.588017H14.4962Z" fill="#E94822"/>
<path d="M12.2543 25.729V25.724C15.402 25.724 18.1726 24.1022 19.7757 21.649C18.1751 24.1047 15.4045 25.729 12.2543 25.729ZM18.5149 10.3115C16.8968 8.73696 14.6888 7.76737 12.2543 7.76737V7.76613C14.6901 7.76613 16.8993 8.73696 18.5149 10.3115Z" fill="white"/>
<path d="M12.254 28.4135V25.7296C15.4045 25.7296 18.1741 24.1052 19.7758 21.6484C20.6965 20.2384 21.2325 18.5547 21.2325 16.7449C21.2325 14.2238 20.1907 11.9422 18.5146 10.3115C16.899 8.73755 14.6907 7.76643 12.254 7.76643V5.07C13.0246 5.07 13.7712 5.14062 14.4952 5.29197C19.8641 6.34254 23.9264 11.0695 23.9264 16.7424C23.9264 23.1959 18.6975 28.4135 12.254 28.4135Z" fill="#F7A80E"/>
<path d="M12.2556 25.7227V18.719L16.7003 21.1884L13.5252 15.4742L12.2556 16.745L13.5252 15.4742L12.2556 14.7697V7.76601C14.6889 7.76601 16.8969 8.7356 18.515 10.3101C20.1928 11.9418 21.2333 14.222 21.2333 16.745C21.2333 18.5534 20.6981 20.2375 19.7771 21.6476C18.1727 24.1009 15.4021 25.7227 12.2556 25.7227Z" fill="#F2CC46"/>
<path d="M14.4962 5.29175C13.7719 5.13968 13.0245 5.07009 12.2551 5.07009V0.588017H14.4962V5.29175Z" fill="#ED6D4E"/>
<path d="M12.2548 8.35052C7.62541 8.35052 3.86015 12.1158 3.86015 16.7452C3.86015 21.3733 7.62541 25.1399 12.2548 25.1399C16.8842 25.1399 20.6495 21.3733 20.6495 16.7452C20.6495 12.1158 16.8842 8.35052 12.2548 8.35052ZM12.2548 26.3064C6.98142 26.3064 2.69364 22.0173 2.69364 16.7452C2.69364 11.4718 6.98142 7.18273 12.2548 7.18273C17.5282 7.18273 21.816 11.4718 21.816 16.7452C21.816 22.0173 17.5282 26.3064 12.2548 26.3064ZM12.2548 5.65688C11.5273 5.65688 10.8099 5.72521 10.1255 5.86059C4.93305 6.87655 1.16653 11.4541 1.16653 16.7452C1.16653 22.8587 6.14132 27.8335 12.2548 27.8335C18.3683 27.8335 23.3431 22.8587 23.3431 16.7452C23.3431 11.4541 19.5766 6.87655 14.388 5.86185L14.3854 5.86059C13.6997 5.72521 12.9836 5.65688 12.2548 5.65688ZM12.2548 29C5.49733 29 0 23.5014 0 16.7452C0 10.8961 4.16128 5.83782 9.89901 4.71558C11.4147 4.41572 13.0937 4.41572 14.6119 4.71558C20.3484 5.83782 24.5109 10.8961 24.5109 16.7452C24.5109 23.5014 19.0136 29 12.2548 29Z" fill="#2C2D34"/>
<path d="M12.2548 8.35089C7.6251 8.35089 3.86045 12.1168 3.86045 16.7452C3.86045 21.3736 7.6251 25.1395 12.2548 25.1395C16.8832 25.1395 20.6491 21.3736 20.6491 16.7452C20.6491 12.1168 16.8832 8.35089 12.2548 8.35089ZM12.2548 26.3066C6.98102 26.3066 2.69336 22.0177 2.69336 16.7452C2.69336 11.4727 6.98102 7.1838 12.2548 7.1838C17.5273 7.1838 21.8162 11.4727 21.8162 16.7452C21.8162 22.0177 17.5273 26.3066 12.2548 26.3066Z" fill="#2C2D34"/>
<path d="M12.2548 8.35089C7.6251 8.35089 3.86045 12.1168 3.86045 16.7452C3.86045 21.3736 7.6251 25.1395 12.2548 25.1395C16.8832 25.1395 20.6491 21.3736 20.6491 16.7452C20.6491 12.1168 16.8832 8.35089 12.2548 8.35089ZM12.2548 26.3066C6.98102 26.3066 2.69336 22.0177 2.69336 16.7452C2.69336 11.4727 6.98102 7.1838 12.2548 7.1838C17.5273 7.1838 21.8162 11.4727 21.8162 16.7452C21.8162 22.0177 17.5273 26.3066 12.2548 26.3066Z" fill="#2C2D34"/>
<path d="M12.2557 4.48815C12.8166 4.48815 13.3723 4.52564 13.9163 4.5993V1.16694H10.5951V4.5993C11.1379 4.52564 11.6936 4.48815 12.2557 4.48815ZM14.5005 5.87221C14.463 5.87221 14.4242 5.86833 14.3854 5.86058C13.0156 5.58919 11.4959 5.58919 10.126 5.86058C9.95544 5.89805 9.77581 5.85023 9.64141 5.73909C9.50701 5.62796 9.42688 5.46255 9.42688 5.28809V0.584118C9.42688 0.261043 9.68922 -3.8147e-06 10.011 -3.8147e-06H14.5005C14.8222 -3.8147e-06 15.0833 0.261043 15.0833 0.584118V5.28809C15.0833 5.46255 15.0044 5.62796 14.87 5.73909C14.7654 5.82568 14.6336 5.87221 14.5005 5.87221Z" fill="#2C2D34"/>
<path d="M15.3998 21.5357L12.7597 19.0156C12.3494 18.6241 12.1189 18.0931 12.1188 17.5394V11.0959" stroke="#2C2D34" stroke-linecap="round" stroke-linejoin="round"/>
</svg>
