<svg width="140" height="244" viewBox="0 0 140 244" fill="none" xmlns="http://www.w3.org/2000/svg">
<g clip-path="url(#clip0_1153_3991)">
<rect width="196" height="244" transform="translate(-56)" fill="#FFF4EA"/>
<path d="M112.938 223.897C112.938 228.737 81.3191 232.66 42.3167 232.66C3.31363 232.66 -28.3041 228.737 -28.3041 223.897C-28.3041 219.058 3.31363 215.135 42.3167 215.135C81.3191 215.135 112.938 219.058 112.938 223.897Z" fill="#AFAFAF" fill-opacity="0.5"/>
<path d="M120.954 62.3686C123.984 60.4685 123.752 55.9346 120.499 54.4456C109.973 49.6261 103.127 38.3056 89.5353 23.6511C73.7012 6.57922 47.7865 7.24375 43.8546 7.44968C39.9219 7.24375 14.0072 6.57922 -1.82687 23.6511C-15.4183 38.3056 -22.2648 49.6261 -32.791 54.4456C-36.0433 55.9346 -36.2752 60.4685 -33.2457 62.3686L-6.69549 79.021L43.8546 66.3316L94.4039 79.021L120.954 62.3686" fill="#2E2227"/>
<path d="M111.908 102.487C107.967 83.018 95.4899 65.0693 78.7065 60.6213C70.0797 58.3351 61.0843 59.6503 52.309 60.9759C49.5009 61.3996 46.5114 61.9434 44.0164 63.3654C41.5215 61.9434 38.5319 61.3996 35.7238 60.9759C26.9492 59.6503 17.9532 58.3351 9.32642 60.6213C-7.45704 65.0693 -19.9345 83.018 -23.8748 102.487C-27.8144 121.957 -24.4045 142.55 -18.2614 161.233C-12.6501 178.298 -4.40162 189.05 8.32522 199.777C18.4983 208.35 31.9538 209.918 44.0164 206.818C56.0791 209.918 69.5346 208.35 79.7077 199.777C92.4345 189.05 100.684 178.298 106.294 161.233C112.438 142.55 115.848 121.957 111.908 102.487" fill="#F2591D"/>
<path d="M44.0164 206.077C44.0787 206.077 44.1418 206.084 44.2027 206.1C47.9308 207.057 51.7085 207.543 55.4316 207.543C64.5292 207.543 72.7574 204.662 79.2269 199.21C92.7826 187.785 100.42 176.715 105.587 161.002C112.735 139.263 114.616 119.625 111.177 102.634C107.003 82.0045 93.877 65.4094 78.5151 61.339C75.4176 60.518 72.0883 60.1187 68.3378 60.1187C62.9514 60.1187 57.357 60.9641 52.4204 61.709C49.6669 62.1257 46.7782 62.6465 44.3856 64.0098C44.1571 64.141 43.8762 64.141 43.6464 64.0098C41.2552 62.6465 38.3658 62.1257 35.6123 61.709C30.6757 60.9641 25.0813 60.1187 19.6956 60.1187C15.9451 60.1187 12.6157 60.518 9.51825 61.339C-5.84364 65.4094 -18.9691 82.0045 -23.1441 102.634C-26.5835 119.625 -24.7016 139.263 -17.5538 161.002C-12.3867 176.715 -4.74991 187.785 8.80648 199.21C15.2753 204.662 23.5034 207.543 32.601 207.543C36.3235 207.543 40.102 207.057 43.83 206.1C43.8909 206.084 43.954 206.077 44.0164 206.077V206.077ZM55.4323 209.027C55.4316 209.027 55.4323 209.027 55.4316 209.027C51.6454 209.027 47.8053 208.542 44.0164 207.584C40.2267 208.542 36.3872 209.027 32.601 209.027C23.1468 209.027 14.5859 206.024 7.84449 200.343C-5.941 188.725 -13.7095 177.46 -18.9691 161.464C-26.1989 139.478 -28.0948 119.586 -24.6043 102.341C-20.3199 81.1703 -6.76144 64.1166 9.13503 59.9044C12.3593 59.0507 15.8134 58.6347 19.6956 58.6347C25.1934 58.6347 30.8474 59.4884 35.8351 60.2423C38.5935 60.659 41.4878 61.1798 44.0164 62.518C46.5456 61.1798 49.4399 60.659 52.1975 60.2423C57.1853 59.4884 62.8393 58.6347 68.3378 58.6347C72.2193 58.6347 75.6741 59.0507 78.8984 59.9044C94.7948 64.1173 108.353 81.171 112.637 102.341C116.127 119.586 114.232 139.478 107.002 161.464C101.743 177.46 93.9744 188.725 80.1889 200.343C73.4475 206.024 64.8865 209.027 55.4323 209.027" fill="#292625"/>
<path d="M110.017 140.584C109.151 138.259 107.07 136.675 104.688 136.552C104.688 136.591 106.623 135.96 106.846 135.841C107.665 135.403 108.375 134.764 108.925 133.992C109.92 132.594 110.3 130.818 110.093 129.099C109.694 125.784 106.903 123.201 103.691 123.372C103.69 123.355 103.688 123.339 103.686 123.323C107.07 122.596 109.01 119.013 108.181 115.554C107.807 113.996 106.984 112.623 105.723 111.689C105.003 111.155 104.168 110.809 103.296 110.672C103.022 110.63 100.718 110.731 100.745 110.808C103.866 109.296 105.016 105.328 103.431 102.163C101.854 99.0118 98.2524 97.578 95.1886 99.3657C95.2068 99.3951 96.5149 97.7902 96.6431 97.564C97.0656 96.8157 97.315 95.9836 97.4025 95.1201C97.5784 93.3784 96.9955 91.5914 95.9117 90.2699C93.7019 87.5761 89.894 87.026 87.2897 89.4637C87.2981 89.472 88.1971 87.7548 88.2762 87.5182C88.5642 86.654 88.649 85.7409 88.5509 84.8327C88.3638 83.1043 87.4446 81.5316 86.1421 80.474C83.458 78.2695 79.5471 78.6444 77.5104 81.5951C77.5335 81.6104 78.0611 79.5867 78.0843 79.3236C78.1683 78.3854 78.031 77.4416 77.7052 76.5648C77.1328 75.0242 75.9593 73.7879 74.5426 73.0829C71.4683 71.5332 67.729 72.782 66.3439 76.116C66.3509 76.1181 66.477 74.1725 66.4531 73.9219C66.3684 73.0179 66.0825 72.1593 65.6348 71.3831C64.8235 69.9765 63.4678 68.9796 61.9656 68.5475C58.5767 67.5723 55.0021 69.6044 54.3176 73.3027C54.3414 73.3055 54.0059 71.2407 53.9211 70.9901C53.6444 70.1761 53.2002 69.4446 52.6222 68.8303C51.4535 67.5877 49.7881 66.8736 48.1192 66.912C46.4251 66.9511 44.8235 67.5689 43.6254 68.8512C43.0495 69.4676 42.6102 70.2103 42.3377 71.0243C42.2536 71.2756 41.9285 73.3398 41.9516 73.337C41.2692 69.7475 37.9329 67.8034 34.6161 68.528C33.0775 68.8645 31.6714 69.8522 30.79 71.212C30.303 71.9639 29.9772 72.8113 29.8539 73.7125C29.8161 73.989 29.9016 76.2284 29.9401 76.2137C28.5347 72.879 24.8718 71.723 21.7856 73.1883C20.2764 73.9052 19.072 75.272 18.5178 76.9069C18.2544 77.6838 18.1423 78.5033 18.2012 79.3264C18.2208 79.6042 18.7624 81.7759 18.7995 81.7514C16.7432 78.8049 12.9247 78.5027 10.2133 80.6269C8.88491 81.6677 7.98811 83.2732 7.78143 84.9961C7.68334 85.8163 7.74224 86.6428 7.96924 87.4351C8.04561 87.7011 9.02579 89.7031 9.05802 89.6703C6.43978 87.2452 2.64448 87.8225 0.435407 90.5185C-1.78277 93.2249 -1.46259 97.3763 1.23551 99.571C1.24392 99.557 -0.531448 98.9399 -0.766157 98.9008C-1.64194 98.7563 -2.55065 98.8227 -3.3935 99.1131C-5.00984 99.6708 -6.24365 100.89 -7.02625 102.454C-8.61106 105.622 -7.40248 109.597 -4.2896 111.087C-4.26298 111.011 -6.57083 110.92 -6.84408 110.964C-7.71635 111.105 -8.55012 111.454 -9.26756 111.993C-10.5231 112.938 -11.333 114.315 -11.7064 115.873C-12.138 117.67 -11.8416 119.633 -10.8166 121.154C-10.3703 121.823 -9.7951 122.391 -9.13161 122.819C-8.92843 122.949 -7.17827 123.695 -7.17547 123.673C-10.1931 123.519 -12.8884 125.807 -13.4818 128.893C-14.2035 132.643 -11.8472 136.418 -8.13602 136.803C-8.13532 136.764 -10.0915 137.295 -10.3185 137.402C-11.0752 137.757 -11.7611 138.28 -12.3166 138.926C-13.4285 140.218 -13.9449 141.965 -13.8594 143.686C-13.7767 145.35 -13.1658 146.914 -12.0364 148.102C-11.4507 148.718 -10.7304 149.185 -9.95204 149.481C-9.69911 149.576 -7.40738 149.97 -7.42069 149.876C-10.8965 150.647 -12.6964 154.232 -11.8914 157.751C-11.5222 159.367 -10.4901 160.835 -9.14215 161.693C-8.37286 162.183 -7.51948 162.482 -6.61918 162.538C-6.36976 162.553 -4.11445 162.274 -4.15649 162.174C-7.47535 163.878 -8.21029 168.009 -6.3144 171.172C-5.47435 172.571 -4.06191 173.653 -2.51142 173.985C-1.66787 174.165 -0.794884 174.157 0.0381583 173.923C0.286179 173.853 2.4651 172.751 2.36281 172.637C-0.167847 175.354 0.386333 179.622 3.24208 181.823C6.0656 184.001 10.0038 183.46 11.8745 180.229C11.8296 180.204 11.3826 182.194 11.3658 182.431C11.3007 183.368 11.4429 184.329 11.81 185.189C12.4903 186.785 13.7676 188.024 15.3293 188.622C18.5346 189.922 22.1723 188.352 23.3024 184.883C23.2814 184.877 23.2898 186.85 23.329 187.094C23.4747 188 23.8188 188.854 24.3113 189.611C25.1899 190.959 26.5898 191.826 28.0884 192.194C31.4682 193.024 34.9286 190.806 35.5823 187.196C35.5795 187.196 35.8681 189.111 35.9445 189.351C36.2191 190.216 36.6738 191.004 37.2595 191.674C38.3595 192.932 39.9352 193.611 41.5446 193.712C44.8606 193.947 47.895 191.388 48.1388 187.861C48.1508 187.861 48.5879 189.608 48.6818 189.829C49.0125 190.608 49.4994 191.309 50.1013 191.883C51.3897 193.11 53.1175 193.7 54.8459 193.559C56.3838 193.433 57.8901 192.8 58.9726 191.625C59.5653 190.981 60.0327 190.206 60.3262 189.367C60.418 189.104 60.7802 186.914 60.7466 186.919C61.4318 190.336 64.7121 192.569 67.9819 191.863C69.4939 191.537 70.9344 190.722 71.8746 189.413C72.3994 188.683 72.7721 187.83 72.9529 186.935C73.0075 186.665 73.0685 184.411 73.0201 184.426C74.1853 187.867 77.8152 189.409 81.0059 188.103C82.494 187.55 83.7285 186.357 84.4186 184.873C84.8068 184.039 84.9994 183.131 84.9798 182.202C84.9742 181.939 84.5412 179.696 84.474 179.735C86.3222 182.927 90.2618 183.531 93.0811 181.37C95.9355 179.181 96.5639 174.976 94.0704 172.208C94.0172 172.266 95.7582 173.303 95.9656 173.384C96.8112 173.715 97.7227 173.791 98.6146 173.668C100.313 173.433 101.805 172.318 102.762 170.855C104.744 167.74 103.965 163.549 100.699 161.831C100.674 161.889 102.608 162.226 102.831 162.227C103.746 162.234 104.639 161.991 105.443 161.533C106.924 160.692 108.045 159.175 108.456 157.454C109.294 153.938 107.466 150.337 104 149.568C103.98 149.704 106.521 149.184 106.792 149.065C107.801 148.623 108.655 147.887 109.286 146.951C110.514 145.13 110.785 142.66 110.017 140.584C109.707 139.753 110.324 141.414 110.017 140.584" fill="#F7A80E"/>
<path d="M100.002 128.632C99.2769 126.684 97.5337 125.357 95.5376 125.254C95.5383 125.286 97.1589 124.758 97.3459 124.658C98.0318 124.292 98.6266 123.756 99.0876 123.109C99.9207 121.938 100.239 120.45 100.066 119.01C99.7322 116.233 97.3936 114.069 94.7032 114.211C94.7018 114.198 94.7004 114.184 94.6983 114.171C97.533 113.562 99.1591 110.56 98.4641 107.663C98.1509 106.357 97.4615 105.207 96.4049 104.424C95.8017 103.977 95.1018 103.688 94.3711 103.573C94.142 103.537 92.2124 103.622 92.2349 103.686C94.8489 102.419 95.813 99.0953 94.4853 96.444C93.1639 93.8039 90.1463 92.6033 87.5792 94.1006C87.5946 94.1251 88.6911 92.7813 88.7983 92.5914C89.1521 91.9645 89.3609 91.2672 89.4345 90.5433C89.5816 89.0843 89.0933 87.5877 88.1853 86.4805C86.3342 84.2237 83.1443 83.763 80.9625 85.8048C80.9695 85.8118 81.7227 84.3731 81.7886 84.1748C82.0296 83.4516 82.1011 82.6858 82.0191 81.9256C81.8621 80.4772 81.0921 79.1599 80.0005 78.2741C77.7522 76.427 74.4754 76.7411 72.7694 79.213C72.789 79.2255 73.2311 77.5306 73.2507 77.31C73.3208 76.524 73.2059 75.7331 72.9333 74.9994C72.4534 73.708 71.4705 72.6721 70.2836 72.0815C67.7081 70.7838 64.5749 71.8302 63.4147 74.6225C63.421 74.6246 63.5261 72.9946 63.5064 72.7845C63.435 72.0278 63.1961 71.3081 62.8205 70.6582C62.1409 69.4791 61.0059 68.6442 59.7469 68.2827C56.9073 67.4659 53.9128 69.1678 53.3397 72.2665C53.3593 72.2686 53.0784 70.5388 53.0076 70.3287C52.7757 69.6467 52.4037 69.0345 51.9188 68.5193C50.9401 67.4785 49.5451 66.8802 48.1467 66.9124C46.7272 66.9452 45.3862 67.4624 44.3822 68.5368C43.9002 69.0533 43.5316 69.6753 43.3032 70.3573C43.2331 70.5674 42.9606 72.2972 42.9803 72.2944C42.4079 69.2879 39.613 67.6586 36.8343 68.2659C35.5459 68.5479 34.3674 69.3751 33.629 70.5144C33.2212 71.1447 32.948 71.8547 32.845 72.6093C32.8135 72.841 32.885 74.7167 32.9172 74.7049C31.7394 71.9105 28.6714 70.943 26.0861 72.1702C24.8208 72.7705 23.8126 73.9154 23.3481 75.2857C23.1274 75.9363 23.0335 76.6232 23.0825 77.3128C23.0993 77.5453 23.5527 79.3645 23.5842 79.3442C21.8613 76.8751 18.6623 76.6224 16.3909 78.4018C15.2783 79.2737 14.5265 80.6189 14.3535 82.0625C14.2715 82.7494 14.3205 83.4418 14.5111 84.1057C14.5748 84.3284 15.3959 86.0059 15.4233 85.9779C13.2296 83.9466 10.0502 84.4303 8.19911 86.6886C6.34105 88.9559 6.60941 92.4343 8.86963 94.273C8.87663 94.2612 7.38923 93.7439 7.19306 93.7111C6.4595 93.5903 5.69793 93.6455 4.9917 93.8891C3.63739 94.3561 2.60394 95.3774 1.94816 96.6877C0.620472 99.3417 1.63291 102.671 4.24133 103.92C4.26305 103.857 2.32997 103.78 2.10087 103.817C1.37012 103.935 0.671631 104.227 0.0704953 104.679C-0.981142 105.47 -1.65936 106.624 -1.97254 107.929C-2.33406 109.435 -2.08603 111.08 -1.22706 112.354C-0.85363 112.914 -0.370907 113.391 0.184689 113.748C0.354941 113.858 1.82132 114.482 1.82343 114.465C-0.704428 114.335 -2.96252 116.252 -3.45996 118.837C-4.0646 121.979 -2.09021 125.142 1.01846 125.464C1.01916 125.431 -0.619624 125.876 -0.809493 125.965C-1.44356 126.263 -2.01876 126.702 -2.48398 127.242C-3.41511 128.325 -3.84811 129.788 -3.77665 131.23C-3.70728 132.625 -3.19512 133.934 -2.24858 134.93C-1.75814 135.446 -1.15488 135.837 -0.502594 136.084C-0.291005 136.165 1.62939 136.494 1.61748 136.416C-1.29432 137.062 -2.80206 140.066 -2.12806 143.013C-1.81838 144.367 -0.953818 145.597 0.175589 146.316C0.820163 146.726 1.53479 146.977 2.28937 147.024C2.49815 147.037 4.38777 146.802 4.35204 146.719C1.57196 148.146 0.956106 151.607 2.54512 154.257C3.24855 155.428 4.43189 156.336 5.73084 156.613C6.43777 156.765 7.16849 156.758 7.86631 156.561C8.0744 156.503 9.89958 155.58 9.8141 155.484C7.69401 157.761 8.15851 161.336 10.5504 163.18C12.9165 165.004 16.215 164.551 17.7823 161.844C17.7451 161.823 17.3703 163.491 17.357 163.689C17.3016 164.475 17.4208 165.279 17.7284 166C18.2987 167.337 19.3685 168.375 20.6773 168.876C23.3621 169.964 26.4098 168.65 27.3563 165.743C27.3388 165.738 27.3458 167.391 27.3787 167.596C27.5006 168.355 27.7886 169.07 28.2019 169.704C28.9376 170.834 30.1105 171.559 31.366 171.868C34.1972 172.563 37.0964 170.706 37.6443 167.682C37.6415 167.682 37.8839 169.286 37.9477 169.487C38.1775 170.211 38.5586 170.871 39.049 171.432C39.9704 172.486 41.291 173.055 42.639 173.14C45.417 173.337 47.9596 171.192 48.1634 168.238C48.1733 168.238 48.5397 169.702 48.6182 169.887C48.8956 170.54 49.3034 171.127 49.8071 171.607C50.8868 172.635 52.3343 173.13 53.7818 173.011C55.0709 172.906 56.332 172.375 57.2393 171.391C57.7361 170.852 58.1271 170.204 58.3737 169.5C58.4508 169.279 58.7534 167.445 58.7254 167.448C59.2999 170.312 62.0478 172.182 64.7865 171.591C66.054 171.318 67.2604 170.634 68.0479 169.538C68.4879 168.927 68.8003 168.212 68.9517 167.462C68.9972 167.236 69.0484 165.349 69.0078 165.361C69.9845 168.243 73.0251 169.535 75.698 168.441C76.9444 167.978 77.9793 166.979 78.5573 165.735C78.8817 165.036 79.0435 164.276 79.0274 163.497C79.0225 163.277 78.6596 161.398 78.6035 161.43C80.1519 164.105 83.4518 164.611 85.8136 162.8C88.2055 160.967 88.7318 157.444 86.6432 155.125C86.5984 155.174 88.057 156.042 88.2308 156.111C88.9391 156.387 89.7028 156.451 90.4496 156.348C91.8726 156.151 93.1233 155.216 93.9241 153.991C95.5846 151.381 94.9323 147.871 92.1957 146.432C92.1746 146.481 93.7952 146.762 93.9822 146.763C94.7487 146.769 95.497 146.565 96.1703 146.183C97.4111 145.477 98.3506 144.206 98.694 142.764C99.3967 139.819 97.8651 136.803 94.961 136.158C94.9442 136.271 97.0741 135.836 97.3004 135.737C98.146 135.366 98.8614 134.75 99.3896 133.966C100.419 132.44 100.646 130.371 100.002 128.632C100.26 129.328 99.7428 127.935 100.002 128.632Z" fill="#F2CC46"/>
<path d="M89.9872 116.679C89.4022 115.108 87.9967 114.038 86.3874 113.955C86.3881 113.981 87.6947 113.555 87.8454 113.474C88.3989 113.179 88.8789 112.747 89.2502 112.226C89.9214 111.282 90.1785 110.081 90.0384 108.92C89.7693 106.681 87.884 104.936 85.7148 105.051C85.7134 105.04 85.712 105.029 85.7106 105.018C87.9967 104.527 89.3076 102.106 88.7471 99.77C88.4942 98.7174 87.9386 97.7903 87.0866 97.1593C86.6004 96.7984 86.0357 96.5652 85.4472 96.4724C85.2622 96.4438 83.7061 96.5122 83.7244 96.5645C85.8325 95.5426 86.6095 92.862 85.5389 90.7245C84.4733 88.5954 82.04 87.6272 79.9704 88.8348C79.983 88.8544 80.8665 87.771 80.9534 87.6181C81.2385 87.112 81.4067 86.5501 81.4662 85.9665C81.5853 84.7903 81.1916 83.5833 80.4587 82.6905C78.9664 80.8706 76.3944 80.4992 74.6351 82.1453C74.6407 82.1516 75.2475 80.9914 75.3007 80.8315C75.4955 80.2479 75.553 79.6308 75.4864 79.0172C75.3603 77.8501 74.7396 76.7876 73.8596 76.0728C72.0463 74.5838 69.4042 74.8372 68.0289 76.8309C68.0443 76.8407 68.401 75.4732 68.4164 75.2959C68.4731 74.662 68.3806 74.0247 68.1606 73.4327C67.7739 72.3912 66.9808 71.5563 66.0237 71.0802C63.9471 70.0338 61.4213 70.8771 60.4853 73.1291C60.4902 73.1304 60.575 71.8167 60.5596 71.6471C60.5022 71.0363 60.3087 70.4562 60.0068 69.9319C59.4582 68.9819 58.5432 68.3082 57.528 68.0164C55.2383 67.3581 52.824 68.7305 52.3615 71.2289C52.3777 71.231 52.1514 69.8356 52.0932 69.6667C51.9068 69.1166 51.6063 68.623 51.216 68.2077C50.4264 67.3679 49.3019 66.8856 48.1746 66.9121C47.0298 66.9379 45.948 67.3554 45.1388 68.2217C44.75 68.6377 44.4529 69.1396 44.2686 69.6897C44.2119 69.8593 43.9926 71.2534 44.008 71.252C43.547 68.8276 41.2931 67.5138 39.0525 68.0032C38.0135 68.2307 37.0634 68.8981 36.4686 69.8167C36.1393 70.3242 35.9193 70.8966 35.8359 71.5054C35.81 71.6924 35.8674 73.2052 35.8941 73.1954C34.9447 70.942 32.4709 70.1616 30.3858 71.1514C29.3657 71.6352 28.5522 72.5587 28.1781 73.6638C28.0001 74.1887 27.9245 74.7416 27.9637 75.2979C27.977 75.4857 28.3435 76.9524 28.3687 76.9363C26.9794 74.9454 24.3997 74.7416 22.5682 76.1768C21.6707 76.8798 21.0654 77.9639 20.9253 79.1282C20.8594 79.6818 20.8993 80.2403 21.0527 80.775C21.1039 80.9551 21.766 82.3072 21.7877 82.2856C20.0193 80.6472 17.4557 81.0374 15.9634 82.858C14.4648 84.6869 14.6813 87.4911 16.5036 88.9738C16.5092 88.964 15.3104 88.5472 15.1514 88.5207C14.5601 88.423 13.9456 88.4677 13.3767 88.6645C12.2844 89.0408 11.4514 89.8638 10.9224 90.9207C9.85185 93.0609 10.6681 95.7457 12.7714 96.753C12.7896 96.7014 11.23 96.6399 11.0458 96.6699C10.4565 96.7649 9.89323 97.0008 9.4084 97.3652C8.56064 98.0025 8.0134 98.9331 7.76118 99.9858C7.46972 101.2 7.6694 102.525 8.36232 103.554C8.66359 104.005 9.05245 104.389 9.50015 104.677C9.63747 104.766 10.8202 105.269 10.8216 105.255C8.78344 105.151 6.96253 106.696 6.56177 108.781C6.07484 111.315 7.66596 113.864 10.1728 114.124C10.1735 114.098 8.85211 114.457 8.69867 114.529C8.18792 114.769 7.72407 115.122 7.34854 115.558C6.59817 116.431 6.24855 117.611 6.3067 118.774C6.36275 119.898 6.77542 120.955 7.5384 121.757C7.93355 122.173 8.42053 122.489 8.9467 122.688C9.11695 122.753 10.6653 123.018 10.6562 122.955C8.30839 123.476 7.09208 125.899 7.63576 128.275C7.88589 129.367 8.58236 130.359 9.49317 130.938C10.013 131.269 10.5897 131.471 11.1978 131.509C11.3659 131.519 12.8898 131.33 12.861 131.263C10.619 132.414 10.123 135.205 11.4037 137.341C11.9712 138.286 12.9255 139.017 13.9722 139.241C14.5426 139.363 15.1318 139.357 15.6944 139.199C15.8625 139.152 17.3338 138.408 17.2652 138.331C15.5557 140.166 15.9298 143.049 17.8593 144.536C19.7664 146.007 22.4267 145.641 23.6899 143.459C23.6598 143.442 23.3585 144.787 23.3473 144.947C23.3024 145.58 23.3992 146.229 23.6465 146.81C24.1068 147.888 24.9693 148.725 26.0244 149.129C28.1894 150.007 30.6471 148.947 31.4101 146.603C31.3961 146.599 31.4017 147.932 31.4283 148.097C31.5264 148.709 31.759 149.285 32.0918 149.797C32.6852 150.708 33.6311 151.293 34.6435 151.542C36.9261 152.102 39.2641 150.605 39.7055 148.166C39.7034 148.166 39.8989 149.459 39.9507 149.622C40.1357 150.205 40.4425 150.738 40.8384 151.19C41.5818 152.041 42.646 152.499 43.7334 152.568C45.9733 152.726 48.0233 150.997 48.188 148.614C48.1957 148.614 48.4913 149.795 48.5544 149.944C48.7779 150.471 49.1065 150.945 49.5129 151.331C50.3837 152.161 51.551 152.559 52.7182 152.464C53.7572 152.379 54.7745 151.951 55.5059 151.157C55.9067 150.723 56.222 150.2 56.4203 149.632C56.4827 149.454 56.7272 147.975 56.704 147.978C57.1672 150.287 59.3832 151.795 61.5916 151.319C62.6138 151.098 63.5863 150.547 64.2217 149.663C64.5756 149.17 64.8278 148.593 64.9497 147.99C64.9868 147.807 65.0282 146.285 64.9952 146.294C65.7827 148.619 68.2349 149.661 70.39 148.778C71.3947 148.405 72.2292 147.599 72.6951 146.597C72.9572 146.033 73.0881 145.42 73.0741 144.792C73.0706 144.614 72.7785 143.1 72.733 143.126C73.9815 145.282 76.6424 145.69 78.5467 144.23C80.4748 142.751 80.8994 139.911 79.2151 138.041C79.1794 138.081 80.3557 138.781 80.4959 138.836C81.0669 139.059 81.6827 139.11 82.2846 139.027C83.4322 138.868 84.4404 138.115 85.0863 137.126C86.4252 135.022 85.8991 132.192 83.6928 131.032C83.676 131.071 84.9819 131.298 85.1333 131.298C85.7512 131.304 86.3545 131.139 86.8975 130.83C87.898 130.262 88.6553 129.237 88.9328 128.075C89.4989 125.7 88.2637 123.267 85.9222 122.748C85.9089 122.839 87.6261 122.488 87.809 122.408C88.4907 122.109 89.068 121.612 89.494 120.979C90.3228 119.749 90.5064 118.081 89.9872 116.679C89.7784 116.117 90.1946 117.24 89.9872 116.679" fill="#F8E298"/>
<path d="M88.0219 124.817C87.0978 125.144 86.0721 125.183 85.1255 124.927C90.5617 122.608 95.6454 119.143 98.9993 114.291C102.354 109.439 103.787 103.08 101.921 97.4891C101.98 100.198 101.134 102.919 99.5479 105.121C101.315 100.267 100.541 94.7827 98.5326 90.0226C96.5239 85.2624 93.3691 81.0866 90.2464 76.9653C88.6216 74.8208 86.9688 72.6477 84.82 71.0247C83.1427 69.7577 81.2048 68.8607 79.201 68.2192C72.5941 66.1033 65.2971 66.7553 58.782 69.1392C56.9653 69.8045 55.1857 70.6059 53.5939 71.7032C51.9075 72.8669 50.4572 74.3461 49.1883 75.9517C42.9402 83.8552 41.2538 94.3422 40.3135 104.359C39.5484 112.503 39.1625 120.903 41.7008 128.681C42.1814 130.154 42.7993 131.646 43.9421 132.695C45.0855 133.744 46.8798 134.229 48.2313 133.465C49.3033 132.859 49.8554 131.658 50.4383 130.576C51.2749 129.024 52.3033 127.574 53.4944 126.27C53.8566 125.874 54.2483 125.481 54.745 125.273C56.3551 124.601 57.9665 126.099 59.2185 127.312C63.1042 131.074 68.4927 133.25 73.9106 133.247C70.3788 131.995 67.1748 129.835 64.6967 127.033C68.4934 128.764 72.6474 129.87 76.8175 129.668C80.9883 129.465 85.1753 127.861 88.0219 124.817" fill="#F2591D"/>
<path d="M0.202186 124.817C1.12631 125.144 2.15131 125.183 3.09856 124.927C-2.33829 122.608 -7.42129 119.143 -10.7752 114.291C-14.1298 109.439 -15.5633 103.08 -13.6968 97.4891C-13.7564 100.198 -12.9107 102.919 -11.3245 105.121C-13.0908 100.267 -12.318 94.7827 -10.3086 90.0226C-8.2999 85.2624 -5.14498 81.0866 -2.0223 76.9653C-0.39825 74.8208 1.25525 72.6477 3.40337 71.0247C5.08067 69.7577 7.01859 68.8607 9.02308 68.2192C15.63 66.1033 22.927 66.7553 29.4414 69.1392C31.2588 69.8045 33.0384 70.6059 34.6295 71.7032C36.3166 72.8669 37.7662 74.3461 39.0357 75.9517C45.2839 83.8552 46.9703 94.3422 47.9106 104.359C48.6756 112.503 49.0616 120.903 46.5233 128.681C46.0426 130.154 45.4247 131.646 44.282 132.695C43.1386 133.744 41.3442 134.229 39.9927 133.465C38.9201 132.859 38.368 131.658 37.7851 130.576C36.9492 129.024 35.9201 127.574 34.7297 126.27C34.3675 125.874 33.9758 125.481 33.4791 125.273C31.8683 124.601 30.2576 126.099 29.0056 127.312C25.1192 131.074 19.7314 133.25 14.3135 133.247C17.8453 131.995 21.0486 129.835 23.5274 127.033C19.7307 128.764 15.5767 129.87 11.4059 129.668C7.23577 129.465 3.04812 127.861 0.202186 124.817" fill="#F2591D"/>
<path d="M99.8359 97.7216C99.8359 112.509 87.8047 124.497 72.9627 124.497C58.1213 124.497 46.0895 112.509 46.0895 97.7216C46.0895 82.9344 58.1213 70.9466 72.9627 70.9466C87.8047 70.9466 99.8359 82.9344 99.8359 97.7216Z" fill="#523B1A"/>
<path d="M96.2402 98.593C96.2402 111.99 85.3399 122.85 71.8935 122.85C58.4478 122.85 47.5475 111.99 47.5475 98.593C47.5475 85.1957 58.4478 74.3352 71.8935 74.3352C85.3399 74.3352 96.2402 85.1957 96.2402 98.593Z" fill="#D1B86C"/>
<path d="M96.2402 98.593C96.2402 111.99 85.3399 122.85 71.8935 122.85C58.4478 122.85 47.5475 111.99 47.5475 98.593C47.5475 85.1957 58.4478 74.3352 71.8935 74.3352C85.3399 74.3352 96.2402 85.1957 96.2402 98.593Z" fill="#D1B86C"/>
<path d="M93.9072 98.5931C93.9072 110.706 84.0515 120.526 71.8935 120.526C59.7356 120.526 49.8799 110.706 49.8799 98.5931C49.8799 86.4796 59.7356 76.6599 71.8935 76.6599C84.0515 76.6599 93.9072 86.4796 93.9072 98.5931Z" fill="#F3ED99"/>
<path d="M82.4387 98.5935C82.4387 104.396 77.7179 109.1 71.8936 109.1C66.07 109.1 61.3485 104.396 61.3485 98.5935C61.3485 92.7905 66.07 88.0862 71.8936 88.0862C77.7179 88.0862 82.4387 92.7905 82.4387 98.5935Z" fill="#D4C18D"/>
<path d="M79.5234 98.5931C79.5234 102.791 76.1072 106.194 71.8936 106.194C67.68 106.194 64.2645 102.791 64.2645 98.5931C64.2645 94.3942 67.68 90.9912 71.8936 90.9912C76.1072 90.9912 79.5234 94.3942 79.5234 98.5931Z" fill="#2E2227"/>
<path d="M71.8935 96.3657C71.8935 97.5957 70.893 98.5933 69.6585 98.5933C68.424 98.5933 67.4229 97.5957 67.4229 96.3657C67.4229 95.1357 68.424 94.1382 69.6585 94.1382C70.893 94.1382 71.8935 95.1357 71.8935 96.3657Z" fill="white"/>
<path d="M65.5669 82.2811C67.3795 84.0102 66.3509 88.0108 63.2696 91.217C60.1889 94.4232 56.222 95.6211 54.4088 93.892C52.5963 92.1629 53.6248 88.1623 56.7062 84.9561C59.7868 81.7491 63.7537 80.552 65.5669 82.2811" fill="white"/>
<path d="M76.8049 116.56C65.1963 116.56 55.2047 109.663 50.7312 99.7582C50.9974 107.684 55.8465 115.093 63.7012 118.256C70.6591 121.058 78.2468 119.833 83.8645 115.683C81.6063 116.255 79.241 116.56 76.8049 116.56" fill="#D4C18D"/>
<path d="M-9.89185 97.7216C-9.89185 112.509 2.13929 124.497 16.9813 124.497C31.8227 124.497 43.8544 112.509 43.8544 97.7216C43.8544 82.9344 31.8227 70.9466 16.9813 70.9466C2.13929 70.9466 -9.89185 82.9344 -9.89185 97.7216" fill="#523B1A"/>
<path d="M-6.29614 98.593C-6.29614 111.99 4.60419 122.85 18.0499 122.85C31.4963 122.85 42.3966 111.99 42.3966 98.593C42.3966 85.1957 31.4963 74.3352 18.0499 74.3352C4.60419 74.3352 -6.29614 85.1957 -6.29614 98.593Z" fill="#D1B86C"/>
<path d="M-6.29614 98.593C-6.29614 111.99 4.60419 122.85 18.0499 122.85C31.4963 122.85 42.3966 111.99 42.3966 98.593C42.3966 85.1957 31.4963 74.3352 18.0499 74.3352C4.60419 74.3352 -6.29614 85.1957 -6.29614 98.593Z" fill="#D1B86C"/>
<path d="M-3.96381 98.5931C-3.96381 110.706 5.89259 120.526 18.0498 120.526C30.2078 120.526 40.0635 110.706 40.0635 98.5931C40.0635 86.4796 30.2078 76.6599 18.0498 76.6599C5.89259 76.6599 -3.96381 86.4796 -3.96381 98.5931Z" fill="#F3ED99"/>
<path d="M7.50482 98.5935C7.50482 104.396 12.2263 109.1 18.0499 109.1C23.8742 109.1 28.5957 104.396 28.5957 98.5935C28.5957 92.7905 23.8742 88.0862 18.0499 88.0862C12.2263 88.0862 7.50482 92.7905 7.50482 98.5935Z" fill="#D4C18D"/>
<path d="M10.4207 98.5931C10.4207 102.791 13.8362 106.194 18.0498 106.194C22.2641 106.194 25.6796 102.791 25.6796 98.5931C25.6796 94.3942 22.2641 90.9912 18.0498 90.9912C13.8362 90.9912 10.4207 94.3942 10.4207 98.5931Z" fill="#2E2227"/>
<path d="M18.0499 96.3657C18.0499 97.5957 19.0511 98.5933 20.2856 98.5933C21.5201 98.5933 22.5213 97.5957 22.5213 96.3657C22.5213 95.1357 21.5201 94.1382 20.2856 94.1382C19.0511 94.1382 18.0499 95.1357 18.0499 96.3657Z" fill="white"/>
<path d="M11.658 82.2811C13.4705 84.0102 12.4421 88.0108 9.36141 91.217C6.28007 94.4232 2.31308 95.6211 0.500565 93.892C-1.31195 92.1629 -0.283415 88.1623 2.79723 84.9561C5.87858 81.7491 9.8455 80.552 11.658 82.2811" fill="white"/>
<path d="M13.1392 116.56C24.7479 116.56 34.7394 109.663 39.2129 99.7582C38.9467 107.684 34.0976 115.093 26.2429 118.256C19.2843 121.058 11.6966 119.833 6.07898 115.683C8.33709 116.255 10.7024 116.56 13.1392 116.56Z" fill="#D4C18D"/>
<path d="M49.339 101.166C48.6664 100.431 47.8824 99.7703 46.9646 99.542C46.0741 99.3207 45.0442 99.5986 44.4928 100.404C43.9442 99.5972 42.915 99.3172 42.0238 99.5364C41.106 99.7619 40.3198 100.421 39.6451 101.155C36.0579 105.055 35.0715 111.222 35.8898 116.744C36.7082 122.266 39.0763 127.324 41.4107 132.274C41.5831 132.639 43.0425 134.905 44.4781 134.907C45.9144 134.908 47.3275 132.646 47.5006 132.281C49.8469 127.337 52.227 122.284 53.0586 116.764C53.8889 111.244 52.9171 105.075 49.339 101.166" fill="#2D1615"/>
<path d="M41.7436 100.504C41.0724 100.625 40.5735 101.199 40.1678 101.765C37.2841 105.781 36.3516 111.02 36.7068 116.006C37.1005 121.532 38.9957 126.935 42.1205 131.439C42.6614 132.219 43.4482 133.059 44.3576 132.862C45.4002 132.636 45.7112 131.278 45.8072 130.182C46.6024 121.117 47.1909 111.751 44.3961 103.12C44.1839 102.464 43.9442 101.8 43.5098 101.275C43.0747 100.75 42.4021 100.385 41.7436 100.504" fill="#EE8B40"/>
<path d="M46.3985 100.498C45.4849 100.716 45.0554 101.739 44.7843 102.635C42.0077 111.822 41.5915 121.707 43.5862 131.093C43.727 131.756 43.9716 132.523 44.6182 132.735C45.4282 133 46.1673 132.202 46.6234 131.484C50.7704 124.959 52.6481 117.031 51.8662 109.348C51.5572 106.314 50.7094 103.092 48.3413 101.161C47.792 100.713 47.0894 100.333 46.3985 100.498" fill="#F2591D"/>
<path d="M46.6234 118.016C46.6234 125.454 45.5683 131.484 44.2672 131.484C42.9655 131.484 41.9103 125.454 41.9103 118.016C41.9103 110.578 42.9655 104.548 44.2672 104.548C45.5683 104.548 46.6234 110.578 46.6234 118.016Z" fill="#F3DE3E"/>
<path d="M44.5797 113.536C45.1038 113.374 45.3133 112.754 45.3924 112.213C45.6426 110.504 45.3455 108.72 44.5538 107.184C43.2843 108.407 42.7763 110.302 43.0692 112.037C43.1357 112.434 43.2479 112.838 43.505 113.149C43.7614 113.46 44.193 113.656 44.5797 113.536Z" fill="white"/>
<path d="M45.0107 117.834C44.7381 116.798 44.4649 115.762 44.1917 114.726C43.6123 115.777 43.3495 117 43.4469 118.196C43.4735 118.527 43.5316 118.868 43.7208 119.142C43.9093 119.416 44.2589 119.603 44.5798 119.514C44.8916 119.427 45.0905 119.106 45.1333 118.787C45.176 118.467 45.0933 118.145 45.0107 117.834Z" fill="white"/>
<path d="M18.314 205.314C16.9744 204.361 15.0827 205.009 13.7361 205.951C10.673 208.095 8.72245 211.554 7.78361 215.164C6.84477 218.774 6.8301 222.556 7.00245 226.282C7.02838 226.839 7.1271 227.504 7.63575 227.737C8.31956 228.05 8.99363 227.309 9.38177 226.667C11.4325 223.269 13.4839 219.872 15.5346 216.475C16.6311 214.659 17.7297 212.839 18.6251 210.916C19.0546 209.993 19.4427 209.022 19.4799 208.005C19.5163 206.988 19.1456 205.905 18.314 205.314" fill="#EDA263"/>
<path d="M16.7669 205.587C15.9948 205.587 15.0455 205.941 14.1634 206.558C11.5046 208.419 9.49443 211.543 8.50444 215.35C7.5628 218.973 7.58312 222.729 7.74566 226.248C7.77999 226.979 7.94044 227.061 7.94675 227.063L7.96775 227.07C8.06234 227.07 8.38817 226.872 8.74268 226.284L14.8963 216.093C15.9682 214.318 17.0717 212.488 17.9496 210.604C18.3384 209.768 18.7028 208.871 18.735 207.978C18.7602 207.293 18.5486 206.393 17.8809 205.918C17.5733 205.699 17.1985 205.587 16.7669 205.587V205.587ZM7.96775 228.554C7.74636 228.554 7.53057 228.506 7.32529 228.412C6.33531 227.958 6.27929 226.765 6.25827 226.317C6.09853 222.855 6.06837 218.802 7.06255 214.978C8.14152 210.829 10.359 207.408 13.3072 205.344C13.97 204.881 15.3005 204.103 16.7669 204.103C17.5145 204.103 18.1807 204.307 18.7462 204.71C19.7074 205.393 20.2729 206.666 20.2238 208.031C20.1811 209.188 19.755 210.251 19.301 211.229C18.3895 213.185 17.2643 215.05 16.177 216.852L10.0192 227.049C9.6808 227.611 8.96334 228.554 7.96775 228.554" fill="#292625"/>
<path d="M15.9662 211.759C16.1343 210.901 16.266 210.013 16.0825 209.158C15.7539 210.744 14.6896 212.161 13.2568 212.923C13.5567 214.096 13.5882 215.37 13.1293 216.491C12.6711 217.611 11.6665 218.547 10.4649 218.727C10.6337 220.802 10.2147 222.922 9.26746 224.778C11.0127 221.714 12.7587 218.649 14.5046 215.585C14.8269 215.019 15.15 214.452 15.3924 213.848C15.6614 213.176 15.8267 212.468 15.9662 211.759" fill="#DC7029"/>
<path d="M23.2288 205.314C24.5691 204.361 26.4601 205.009 27.8067 205.951C30.8698 208.095 32.8204 211.554 33.7592 215.164C34.698 218.774 34.7128 222.556 34.5404 226.282C34.5152 226.839 34.4157 227.504 33.907 227.737C33.2239 228.05 32.5492 227.309 32.1611 226.667C30.1104 223.269 28.0589 219.872 26.0082 216.475C24.9117 214.659 23.8131 212.839 22.9177 210.916C22.4882 209.993 22.1008 209.022 22.0637 208.005C22.0266 206.988 22.3972 205.905 23.2288 205.314" fill="#EDA263"/>
<path d="M24.776 205.587C24.3451 205.587 23.9703 205.699 23.6613 205.918C22.9943 206.393 22.7827 207.293 22.8079 207.978C22.8402 208.871 23.2052 209.768 23.594 210.604C24.4754 212.499 25.5796 214.326 26.6467 216.093L32.7995 226.284C33.1547 226.872 33.4812 227.07 33.5758 227.07C33.5779 227.07 33.5828 227.07 33.5968 227.063C33.6031 227.061 33.7629 226.979 33.7972 226.247C33.9598 222.729 33.9808 218.973 33.0384 215.35C32.0477 211.542 30.0376 208.419 27.3788 206.558C26.4974 205.941 25.5488 205.587 24.776 205.587V205.587ZM33.5758 228.554C32.5809 228.554 31.8621 227.611 31.523 227.049L25.3701 216.858C24.2827 215.057 23.1582 213.196 22.2432 211.229C21.7878 210.251 21.3618 209.188 21.3191 208.031C21.2701 206.666 21.8362 205.393 22.796 204.71C23.3621 204.307 24.0284 204.103 24.776 204.103C26.2438 204.103 27.5729 204.881 28.2357 205.344C31.1832 207.407 33.4013 210.828 34.481 214.978C35.4752 218.802 35.4451 222.855 35.2847 226.316C35.2643 226.765 35.2083 227.958 34.219 228.412C34.013 228.506 33.7965 228.554 33.5758 228.554Z" fill="#292625"/>
<path d="M28.5739 212.328C28.4414 213.679 28.6719 215.063 29.2352 216.299C29.4342 216.736 29.6816 217.163 30.0452 217.479C30.4088 217.794 30.9062 217.984 31.3792 217.89C31.1557 219.14 31.5417 220.416 32.0147 221.596C32.3222 222.362 32.6676 223.112 33.0501 223.844C32.8014 223.733 32.6221 223.514 32.4532 223.3C31.5782 222.193 30.7374 221.059 29.8966 219.925C29.5169 219.412 29.1372 218.9 28.7568 218.388C28.522 218.071 28.2873 217.755 28.0617 217.431C26.4895 215.177 25.3811 212.603 24.8248 209.914C24.6588 209.113 24.5558 208.225 24.9825 207.527C25.852 209.361 26.8181 211.302 28.5739 212.328" fill="#DC7029"/>
<path d="M25.4883 213.445C25.4883 218.984 23.3206 229.271 20.647 229.271C17.9734 229.271 15.8057 218.984 15.8057 213.445C15.8057 207.908 17.9734 203.418 20.647 203.418C23.3206 203.418 25.4883 207.908 25.4883 213.445Z" fill="#EDA263"/>
<path d="M20.6463 204.161C18.7091 204.161 16.5505 207.973 16.5505 213.445C16.5505 219.648 18.962 228.529 20.6463 228.529C22.3313 228.529 24.7429 219.648 24.7429 213.445C24.7429 207.973 22.5843 204.161 20.6463 204.161ZM20.6463 230.013C17.0185 230.013 15.061 218.254 15.061 213.445C15.061 207.407 17.5145 202.676 20.6463 202.676C23.7788 202.676 26.2331 207.407 26.2331 213.445C26.2331 218.254 24.2749 230.013 20.6463 230.013Z" fill="#292625"/>
<path d="M11.869 210.256C11.8956 210.613 12.131 210.919 12.3776 211.181C12.5899 211.406 12.8505 211.63 13.1609 211.634C13.65 211.641 13.9596 211.13 14.1656 210.688C14.4311 210.117 14.7009 209.533 14.771 208.907C14.8411 208.282 14.6771 207.595 14.1986 207.184C13.5519 207.778 12.9472 208.417 12.3909 209.096C12.1149 209.432 11.8368 209.822 11.869 210.256Z" fill="#F3ED99"/>
<path d="M11.0142 211.963C10.8047 212.003 10.6715 212.203 10.5685 212.389C9.64231 214.062 9.22406 216.01 9.3824 217.914C9.39922 218.119 9.45382 218.364 9.64999 218.429C9.88821 218.508 10.0949 218.253 10.2169 218.034C10.6996 217.166 11.183 216.299 11.6657 215.431C11.9327 214.952 12.2073 214.442 12.1828 213.895C12.159 213.347 11.5536 211.861 11.0142 211.963" fill="#F3ED99"/>
<path d="M8.77144 224.036C9.15959 223.142 9.39144 222.18 9.4538 221.207C9.47552 220.868 9.47484 220.516 9.34173 220.204C9.20861 219.891 8.91436 219.625 8.57316 219.619C8.2859 220.517 8.12261 221.455 8.09039 222.397C8.07007 222.994 8.11843 223.638 8.49537 224.103C8.52619 224.141 8.56406 224.18 8.6138 224.184C8.69087 224.189 8.74061 224.106 8.77144 224.036" fill="#F3ED99"/>
<path d="M17.799 213.475C17.9244 213.895 18.1634 214.34 18.5872 214.458C19.0027 214.573 19.449 214.314 19.6823 213.953C19.9156 213.592 19.9829 213.152 20.0361 212.726C20.3234 210.446 20.3843 208.137 20.2176 205.843C20.2 205.599 20.0971 205.279 19.8518 205.295C19.7257 205.303 19.6298 205.406 19.5506 205.505C18.4121 206.917 17.9181 208.741 17.6911 210.538C17.5671 211.517 17.5174 212.528 17.799 213.475Z" fill="#F3ED99"/>
<path d="M18.8704 215.359C18.6959 215.397 18.5285 215.493 18.4332 215.644C18.3764 215.733 18.347 215.837 18.3225 215.939C17.9974 217.273 18.2644 218.677 18.6476 219.993C18.7429 220.321 18.8522 220.66 19.0869 220.908C19.22 221.049 19.4099 221.16 19.6004 221.125C19.887 221.071 20.0131 220.739 20.0768 220.455C20.3045 219.451 20.3991 218.418 20.3711 217.388C20.3578 216.906 20.3122 216.406 20.0712 215.988C19.8302 215.571 19.3433 215.258 18.8704 215.359" fill="#F3ED99"/>
<path d="M29.0539 208.938C28.417 208.225 27.7311 207.522 26.8659 207.112C26.7475 207.055 26.6108 207.004 26.4875 207.049C26.3929 207.587 26.554 208.143 26.8266 208.616C27.0991 209.089 27.4768 209.492 27.8502 209.89C28.1627 210.223 28.4752 210.555 28.7877 210.887C29.0623 211.18 29.4091 211.498 29.805 211.431C30.0537 211.035 30.0292 210.515 29.8519 210.083C29.6754 209.65 29.3657 209.287 29.0539 208.938" fill="#F3ED99"/>
<path d="M31.5816 214.813C31.7645 213.999 31.3497 213.173 30.8719 212.487C30.7367 212.292 30.5048 212.078 30.2953 212.19C29.9275 212.995 29.9422 213.963 30.3332 214.756C30.4235 214.939 30.5377 215.118 30.7065 215.234C30.8747 215.35 31.108 215.391 31.2867 215.29C31.4541 215.195 31.5396 215.001 31.5816 214.813" fill="#F3ED99"/>
<path d="M20.4845 227.353C21.3568 227.337 21.8745 226.395 22.1695 225.577C23.7984 221.057 24.3295 216.149 23.7039 211.387C23.3977 209.056 22.6964 206.568 20.8005 205.168C21.3392 210.176 21.5438 215.219 21.4128 220.253C21.389 221.176 21.3532 222.098 21.3035 223.02C21.2243 224.496 21.0982 226.006 20.4845 227.353" fill="#DC7029"/>
<path d="M56.8981 205.314C55.5585 204.361 53.6675 205.009 52.3202 205.951C49.2578 208.095 47.3072 211.554 46.3684 215.164C45.4295 218.774 45.4149 222.556 45.5872 226.282C45.6125 226.839 45.7119 227.504 46.2206 227.737C46.9037 228.05 47.5784 227.309 47.9665 226.667C50.0173 223.269 52.0687 219.872 54.1195 216.475C55.2159 214.659 56.3145 212.839 57.2092 210.916C57.6394 209.993 58.0268 209.022 58.064 208.005C58.1011 206.988 57.7304 205.905 56.8981 205.314" fill="#EDA263"/>
<path d="M55.3525 205.587C54.579 205.587 53.6304 205.941 52.749 206.558C50.0894 208.419 48.0801 211.542 47.0901 215.35C46.1477 218.971 46.168 222.728 46.3306 226.248C46.3642 226.979 46.5246 227.061 46.5316 227.063L46.552 227.07C46.6465 227.07 46.9731 226.872 47.3276 226.284L53.4812 216.093C54.5496 214.323 55.6545 212.493 56.5331 210.604C56.9226 209.769 57.287 208.873 57.3199 207.978C57.3451 207.293 57.1342 206.393 56.4658 205.918C56.1582 205.699 55.7834 205.587 55.3525 205.587ZM46.552 228.554C46.3313 228.554 46.1148 228.506 45.9095 228.412C44.9195 227.958 44.8635 226.765 44.8432 226.317C44.6827 222.855 44.654 218.8 45.6474 214.978C46.7264 210.828 48.9446 207.407 51.8922 205.344C52.5543 204.881 53.884 204.103 55.3525 204.103C56.0994 204.103 56.7657 204.307 57.3311 204.71C58.2924 205.393 58.8585 206.666 58.8087 208.031C58.766 209.191 58.3393 210.253 57.8846 211.229C56.9724 213.19 55.8465 215.055 54.7577 216.858L48.6048 227.049C48.265 227.611 47.5469 228.554 46.552 228.554Z" fill="#292625"/>
<path d="M54.551 211.759C54.7192 210.901 54.8509 210.013 54.6666 209.158C54.3387 210.744 53.2745 212.161 51.8417 212.923C52.1409 214.096 52.1731 215.37 51.7142 216.491C51.256 217.611 50.2513 218.547 49.0497 218.727C49.2186 220.802 48.7989 222.922 47.8516 224.778C49.5976 221.714 51.3436 218.649 53.0895 215.585C53.4118 215.019 53.7348 214.452 53.9765 213.848C54.2463 213.176 54.4116 212.468 54.551 211.759" fill="#DC7029"/>
<path d="M61.8137 205.314C63.1533 204.361 65.0449 205.009 66.3915 205.951C69.4547 208.095 71.4052 211.554 72.344 215.164C73.2829 218.774 73.2976 222.556 73.1253 226.282C73.0993 226.839 73.0006 227.504 72.4919 227.737C71.8081 228.05 71.1341 227.309 70.7459 226.667C68.6952 223.269 66.6438 219.872 64.593 216.475C63.4966 214.659 62.3973 212.839 61.5026 210.916C61.0731 209.993 60.685 209.022 60.6479 208.005C60.6107 206.988 60.982 205.905 61.8137 205.314" fill="#EDA263"/>
<path d="M63.36 205.587C62.9291 205.587 62.5543 205.699 62.246 205.918C61.5783 206.393 61.3675 207.293 61.3927 207.978C61.4249 208.871 61.7892 209.768 62.1788 210.604C63.0559 212.488 64.1594 214.318 65.2272 216.087L71.3843 226.284C71.7395 226.872 72.0653 227.07 72.1599 227.07C72.162 227.07 72.1675 227.07 72.1809 227.063C72.1872 227.06 72.3476 226.978 72.3813 226.249C72.5445 222.729 72.5648 218.973 71.6225 215.35C70.6325 211.542 68.6231 208.419 65.9636 206.558C65.0815 205.941 64.1328 205.587 63.36 205.587V205.587ZM72.1599 228.554C71.1657 228.554 70.4475 227.611 70.1077 227.049L63.9541 216.858C62.8626 215.05 61.7381 213.185 60.8272 211.229C60.3725 210.251 59.9459 209.188 59.9038 208.031C59.8541 206.666 60.4202 205.393 61.3815 204.71C61.9469 204.307 62.6132 204.103 63.36 204.103C64.8271 204.103 66.1569 204.881 66.8197 205.344C69.7679 207.407 71.9861 210.828 73.0651 214.978C74.0592 218.802 74.0292 222.855 73.8687 226.316C73.8491 226.765 73.7945 227.958 72.8031 228.412C72.5971 228.506 72.3805 228.554 72.1599 228.554" fill="#292625"/>
<path d="M67.1587 212.328C67.0263 213.679 67.2562 215.063 67.8202 216.299C68.0191 216.736 68.2664 217.163 68.63 217.479C68.9937 217.794 69.4911 217.984 69.964 217.89C69.7405 219.14 70.1266 220.416 70.5995 221.596C70.9064 222.362 71.2525 223.112 71.6351 223.844C71.3863 223.733 71.207 223.514 71.0381 223.3C70.163 222.193 69.3223 221.059 68.4815 219.925C68.1018 219.412 67.7214 218.9 67.3416 218.388C67.1069 218.071 66.8722 217.755 66.6466 217.431C65.0744 215.177 63.966 212.603 63.409 209.914C63.2437 209.113 63.1407 208.225 63.5673 207.527C64.4368 209.361 65.403 211.302 67.1587 212.328" fill="#DC7029"/>
<path d="M64.0732 213.445C64.0732 218.984 61.9055 229.271 59.2319 229.271C56.5576 229.271 54.3906 218.984 54.3906 213.445C54.3906 207.908 56.5576 203.418 59.2319 203.418C61.9055 203.418 64.0732 207.908 64.0732 213.445Z" fill="#EDA263"/>
<path d="M59.2318 204.161C57.2939 204.161 55.1345 207.973 55.1345 213.445C55.1345 219.648 57.5468 228.529 59.2318 228.529C60.9161 228.529 63.3284 219.648 63.3284 213.445C63.3284 207.973 61.169 204.161 59.2318 204.161ZM59.2318 230.013C55.6033 230.013 53.645 218.254 53.645 213.445C53.645 207.407 56.0993 202.676 59.2318 202.676C62.3636 202.676 64.8179 207.407 64.8179 213.445C64.8179 218.254 62.8597 230.013 59.2318 230.013Z" fill="#292625"/>
<path d="M50.4537 210.256C50.4803 210.613 50.7157 210.919 50.9616 211.181C51.1746 211.406 51.4345 211.63 51.7456 211.634C52.2339 211.641 52.5443 211.13 52.7503 210.688C53.0159 210.117 53.2856 209.533 53.3556 208.907C53.4257 208.282 53.2618 207.595 52.7832 207.184C52.1359 207.778 51.5319 208.417 50.9756 209.096C50.6996 209.432 50.4214 209.822 50.4537 210.256Z" fill="#F3ED99"/>
<path d="M49.5983 211.963C49.3895 212.003 49.2564 212.203 49.1534 212.389C48.2265 214.062 47.8082 216.01 47.9666 217.914C47.9841 218.119 48.0387 218.364 48.2349 218.429C48.4731 218.508 48.6798 218.253 48.8017 218.034C49.2844 217.166 49.7671 216.299 50.2506 215.431C50.5168 214.952 50.7915 214.442 50.7676 213.895C50.7438 213.347 50.1385 211.861 49.5983 211.963" fill="#F3ED99"/>
<path d="M47.3557 224.036C47.7438 223.142 47.9764 222.18 48.0388 221.207C48.0605 220.868 48.059 220.516 47.9266 220.204C47.7935 219.891 47.4986 219.625 47.1581 219.619C46.8708 220.517 46.7076 221.455 46.6753 222.397C46.655 222.994 46.7033 223.638 47.0796 224.103C47.1111 224.141 47.149 224.18 47.198 224.184C47.2751 224.189 47.3255 224.106 47.3557 224.036" fill="#F3ED99"/>
<path d="M56.3839 213.475C56.5086 213.895 56.7482 214.34 57.1721 214.458C57.5868 214.573 58.0338 214.314 58.2671 213.953C58.5004 213.592 58.5678 213.152 58.621 212.726C58.9083 210.446 58.9692 208.137 58.8025 205.843C58.7842 205.599 58.6819 205.279 58.436 205.295C58.3106 205.303 58.2139 205.406 58.1354 205.505C56.9969 206.917 56.5023 208.741 56.276 210.538C56.152 211.517 56.1022 212.528 56.3839 213.475" fill="#F3ED99"/>
<path d="M57.455 215.359C57.2805 215.397 57.113 215.493 57.0178 215.644C56.961 215.733 56.9316 215.837 56.9064 215.939C56.582 217.273 56.8482 218.677 57.2322 219.993C57.3275 220.321 57.4367 220.66 57.6715 220.908C57.8039 221.049 57.9944 221.16 58.185 221.125C58.4716 221.071 58.5977 220.739 58.6614 220.455C58.8884 219.451 58.9837 218.418 58.955 217.388C58.9417 216.906 58.8969 216.406 58.6559 215.988C58.4149 215.571 57.9279 215.258 57.455 215.359" fill="#F3ED99"/>
<path d="M67.6386 208.938C67.0017 208.225 66.3158 207.522 65.4505 207.112C65.3314 207.055 65.1955 207.004 65.0721 207.049C64.9776 207.587 65.1388 208.143 65.4113 208.616C65.6838 209.089 66.0607 209.492 66.4349 209.89C66.7474 210.223 67.0598 210.555 67.3723 210.887C67.6469 211.18 67.9931 211.498 68.3896 211.431C68.6384 211.035 68.6131 210.515 68.4366 210.083C68.26 209.65 67.9504 209.287 67.6386 208.938" fill="#F3ED99"/>
<path d="M70.1665 214.813C70.3494 213.999 69.9346 213.173 69.4568 212.487C69.3209 212.292 69.0897 212.078 68.8802 212.19C68.5124 212.995 68.5271 213.963 68.9181 214.756C69.0084 214.939 69.1226 215.118 69.2907 215.234C69.4596 215.35 69.6929 215.391 69.8709 215.29C70.039 215.195 70.1238 215.001 70.1665 214.813" fill="#F3ED99"/>
<path d="M59.0693 227.353C59.9416 227.337 60.4594 226.395 60.7543 225.577C62.3833 221.057 62.9144 216.149 62.2887 211.387C61.9825 209.056 61.2805 206.568 59.3853 205.168C59.9234 210.176 60.1287 215.219 59.9977 220.253C59.9738 221.176 59.9381 222.098 59.8884 223.02C59.8085 224.496 59.6831 226.006 59.0693 227.353" fill="#DC7029"/>
<path d="M41.5319 39.3307C45.3167 38.8979 49.1014 38.4658 52.8862 38.0337C52.7223 34.759 51.382 31.5549 49.1638 29.134C52.2641 27.5515 54.1873 23.9397 53.7634 20.4948C53.3396 17.0498 50.5987 14.0076 47.2062 13.2174C44.2111 12.52 41.0366 13.4841 38.3966 15.0575C36.6226 16.1158 34.9776 17.4931 33.9946 19.3052C33.053 21.0413 32.779 23.1257 33.24 25.0447C33.5714 26.4255 34.3386 27.7791 35.599 28.4401C37.1999 29.2799 39.1799 28.8366 40.9146 29.3483C40.2014 32.0443 39.753 34.8093 39.5772 37.5911C39.5456 38.0881 39.5435 38.6458 39.8861 39.0088C40.2841 39.4305 40.9546 39.3963 41.5319 39.3307" fill="white"/>
<path d="M35.6538 23.085C36.0573 23.4431 36.6332 23.5408 37.1741 23.5282C38.0828 23.5066 38.9838 23.2106 39.7272 22.6885C40.1826 22.3688 40.5855 21.9569 40.8174 21.4522C41.0493 20.9475 41.0948 20.343 40.8636 19.8383C40.5434 19.1402 39.7419 18.7472 38.9719 18.7416C38.2012 18.736 37.4628 19.0578 36.8126 19.469C36.189 19.8634 35.6019 20.3702 35.3125 21.0473C35.0232 21.7237 35.1017 22.5964 35.6538 23.085" fill="#2E2227"/>
<path d="M50.895 18.9614C50.5805 18.1628 49.8147 17.6519 49.182 17.0704C48.8065 16.7248 48.4274 16.3192 47.9216 16.2452C47.4619 16.1782 47.0157 16.4044 46.6072 16.6236C46.1013 16.8945 45.5892 17.1702 45.1702 17.5611C44.7513 17.9527 44.4297 18.4798 44.408 19.0515C44.3806 19.7635 44.815 20.4148 45.3258 20.9132C45.9801 21.5512 46.8069 22.0364 47.7114 22.176C48.6152 22.3163 49.5954 22.0818 50.2631 21.4591C50.9315 20.8357 51.2285 19.8096 50.895 18.9614" fill="#2E2227"/>
<path d="M43.3824 36.1784C43.4798 34.1393 43.5778 32.101 43.6752 30.0626C43.3627 30.0668 43.0503 30.071 42.7378 30.0752C42.5977 32.1386 42.4568 34.2021 42.3167 36.2656C42.6719 36.2363 43.0271 36.2077 43.3824 36.1784" fill="#2E2227"/>
<path d="M45.0049 29.722C45.0708 31.7367 45.2642 33.7471 45.5837 35.7373C46.044 35.7017 46.5043 35.6661 46.9653 35.6312C46.5695 33.5635 46.1729 31.4965 45.7771 29.4296C45.5199 29.5273 45.2628 29.6243 45.0049 29.722" fill="#2E2227"/>
<path d="M48.3637 29.9579C48.2838 29.6703 48.2011 29.3632 47.9769 29.1649C47.7527 28.9674 47.3366 28.959 47.2014 29.225C47.6182 31.4434 48.2334 33.6256 49.0377 35.7358C49.5968 35.4168 50.2532 35.2688 50.8957 35.317C49.7558 33.6905 48.8962 31.87 48.3637 29.9579Z" fill="#2E2227"/>
<path d="M43.0053 22.92C42.2227 23.803 41.7786 24.9772 41.7835 26.1548C41.7842 26.3622 41.7989 26.5744 41.878 26.7663C41.9565 26.959 42.1078 27.1307 42.3075 27.1908C42.5072 27.2501 42.7286 27.1894 42.9024 27.0742C43.0761 26.959 43.21 26.795 43.3368 26.6295C43.5091 26.4047 43.6738 26.1702 43.8889 25.9866C44.1046 25.8023 44.3821 25.6711 44.6651 25.6962C44.9342 25.7206 45.1696 25.8798 45.4239 25.9719C45.679 26.0634 46.0124 26.0634 46.1666 25.8421C46.2871 25.669 46.2471 25.4337 46.1876 25.2313C45.8877 24.2128 45.2011 23.3123 44.2966 22.7511C44.0696 22.6108 43.8048 22.4865 43.5435 22.543C43.3256 22.5898 43.1532 22.7538 43.0053 22.92" fill="#2E2227"/>
<path d="M43.2211 53.7935C43.2085 54.5662 43.2856 55.3488 43.1328 56.1062C42.9801 56.8643 42.538 57.6224 41.8114 57.8932C41.4499 58.0279 41.0288 58.0258 40.6897 57.8408C40.268 57.6105 40.0305 57.1309 39.9702 56.6555C39.9093 56.1795 39.9996 55.6992 40.09 55.228C39.3411 55.2454 38.5606 55.0898 37.9699 54.6318C37.3793 54.1732 37.0255 53.3677 37.2462 52.6542C37.4669 51.9415 38.3524 51.4633 39.0236 51.7935C39.4272 51.9925 39.7264 52.4336 40.1755 52.4602C40.4831 52.479 40.7598 52.2919 41.0093 52.1118C44.2896 49.7538 54.0338 42.1909 57.1544 39.6255C56.9442 39.1446 56.7571 38.6329 56.7957 38.1093C56.8349 37.5865 57.1558 37.0511 57.6645 36.9142C58.2201 36.7656 58.8093 37.1418 59.0923 37.6409C59.3761 38.1407 59.4252 38.7334 59.4679 39.3051C59.8343 38.9966 60.5083 39.2758 60.5461 39.7526C61.3315 39.8105 62.1065 39.9941 62.8337 40.2943C62.6515 40.6636 62.674 41.0943 62.6235 41.5026C62.5738 41.911 62.4049 42.3592 62.0216 42.512C61.6909 42.644 61.3197 42.5099 60.989 42.3766C60.3675 42.126 59.6935 41.8712 59.0426 42.0318C58.6468 42.1295 58.3055 42.3717 57.9755 42.6091C55.2095 44.6 45.9304 51.7272 43.2211 53.7935" fill="white"/>
<path d="M50.872 54.435C50.9736 55.2008 50.9876 55.9868 51.2266 56.7219C51.4662 57.457 51.9923 58.1599 52.7455 58.3456C53.1203 58.4384 53.5386 58.3875 53.8539 58.1648C54.2463 57.8877 54.427 57.3843 54.4319 56.9048C54.4375 56.4252 54.2917 55.9582 54.1481 55.501C54.8943 55.4319 55.651 55.1882 56.1848 54.6647C56.7187 54.1418 56.9773 53.3014 56.6753 52.618C56.374 51.9352 55.4394 51.5618 54.8102 51.9667C54.4326 52.2103 54.186 52.6836 53.7432 52.7611C53.4398 52.8148 53.1427 52.6605 52.8744 52.5112C49.3432 50.544 38.7904 44.149 35.3945 41.9592C35.5479 41.4573 35.674 40.9275 35.5753 40.4116C35.4765 39.8964 35.0953 39.4015 34.5748 39.3247C34.0051 39.2402 33.4636 39.6814 33.2401 40.2098C33.0159 40.7383 33.0355 41.3337 33.0586 41.9061C32.6593 41.6416 32.0217 41.9962 32.0392 42.4744C31.2664 42.6217 30.5175 42.8932 29.8301 43.2751C30.0536 43.6206 30.0816 44.0513 30.1783 44.4513C30.275 44.8506 30.4943 45.2771 30.893 45.3846C31.237 45.4774 31.5901 45.3022 31.9026 45.1319C32.4918 44.8115 33.1315 44.4806 33.7971 44.5658C34.2013 44.6174 34.5678 44.8192 34.9237 45.0174C37.9013 46.6774 47.9413 52.6934 50.872 54.435" fill="white"/>
<path d="M15.9593 62.4164C13.7755 60.8402 10.7887 60.8207 8.19216 61.5445C5.59564 62.2684 3.23803 63.6429 0.759921 64.7026C-7.59713 68.2767 -17.4886 68.0973 -25.7104 64.223C-25.0973 66.3326 -23.7472 68.2222 -21.9459 69.4885C-24.9348 69.173 -27.9243 68.8575 -30.9132 68.542C-31.7098 68.4575 -32.5884 68.3933 -33.2393 68.8596C-34.6132 69.8439 -33.7325 72.0665 -32.4546 73.1722C-31.1773 74.2787 -29.4699 75.2727 -29.2913 76.9495C-29.7992 75.9994 -31.3602 76.0406 -32.0202 76.8929C-32.6802 77.7453 -32.5141 79.0304 -31.8766 79.8995C-31.239 80.7693 -30.2322 81.2921 -29.2205 81.6691C-24.3743 83.4736 -18.8646 82.497 -14.1571 80.3595C-9.44886 78.222 -5.33341 75.0109 -1.04699 72.1237C3.23873 69.2365 7.87688 66.6013 12.997 65.8663L15.9593 62.4164" fill="#F2591D"/>
<path d="M-23.7452 83.3501C-25.7784 83.3501 -27.7101 83.0234 -29.4806 82.3644C-30.3718 82.0328 -31.6518 81.4625 -32.4778 80.3386C-33.2401 79.2992 -33.5302 77.6274 -32.6103 76.4399C-32.199 75.9094 -31.5495 75.5743 -30.8468 75.5129C-31.2167 75.1269 -31.6756 74.7604 -32.1471 74.3848C-32.4197 74.1684 -32.6894 73.952 -32.9437 73.7328C-33.8517 72.9468 -34.7387 71.5311 -34.675 70.1427C-34.6385 69.3518 -34.2924 68.6998 -33.6738 68.2565C-32.7574 67.601 -31.6014 67.7218 -30.8356 67.8042L-24.1586 68.5085C-25.2046 67.34 -25.9859 65.9445 -26.4258 64.429C-26.5071 64.1484 -26.4153 63.8475 -26.1932 63.6577C-25.9704 63.4692 -25.6558 63.428 -25.3917 63.5522C-17.3625 67.3365 -7.69672 67.5103 0.466958 64.0213C1.26427 63.6793 2.06925 63.2961 2.84764 62.9247C4.48781 62.1429 6.18333 61.3345 7.99094 60.8298C11.2166 59.9293 14.2811 60.2888 16.3963 61.8162C16.7291 62.0563 16.8034 62.5205 16.5617 62.8528C16.3221 63.183 15.8555 63.2591 15.522 63.0175C13.7788 61.7589 11.1802 61.4825 8.39243 62.2587C6.70953 62.7285 5.14574 63.4741 3.49086 64.2629C2.69846 64.6405 1.87941 65.0314 1.05407 65.3847C-6.93375 68.7989 -16.299 68.8638 -24.3534 65.6241C-23.6885 66.9148 -22.7146 68.0394 -21.5165 68.8813C-21.2398 69.0767 -21.1291 69.4335 -21.2482 69.7497C-21.368 70.0666 -21.691 70.2676 -22.0245 70.2258L-30.9925 69.2792C-31.7064 69.2038 -32.3853 69.1612 -32.805 69.4621C-33.0502 69.638 -33.1715 69.8753 -33.1869 70.2118C-33.2212 70.9483 -32.6964 71.9807 -31.9664 72.6117C-31.7275 72.8191 -31.4724 73.0215 -31.2167 73.226C-30.0502 74.1559 -28.7274 75.2099 -28.5508 76.8713C-28.5137 77.2246 -28.7323 77.5548 -29.0728 77.6595C-29.4154 77.7635 -29.7811 77.612 -29.9486 77.2979C-30.0754 77.0612 -30.3542 77.004 -30.5105 76.9914C-30.8755 76.9579 -31.2433 77.1038 -31.4311 77.346C-31.897 77.9485 -31.698 78.886 -31.2755 79.4626C-30.8271 80.0734 -30.0915 80.5529 -28.96 80.9739C-24.8298 82.5117 -19.683 82.0538 -14.4655 79.6846C-10.9007 78.0657 -7.60006 75.7642 -4.40731 73.5381C-3.42994 72.8561 -2.45117 72.1734 -1.46469 71.5088C2.5618 68.7968 7.41576 65.918 12.8911 65.132C13.2989 65.0726 13.6758 65.3554 13.7339 65.7609C13.7928 66.1665 13.5104 66.5428 13.1034 66.6007C7.92646 67.3442 3.25543 70.1211 -0.630231 72.7388C-1.6104 73.3985 -2.58217 74.0763 -3.55394 74.7541C-6.80063 77.0186 -10.1587 79.3599 -13.8482 81.0353C-17.2329 82.5717 -20.6085 83.3501 -23.7452 83.3501" fill="#292625"/>
<path d="M74.8901 62.4164C77.0732 60.8402 80.06 60.8207 82.6565 61.5445C85.253 62.2684 87.6113 63.6429 90.0887 64.7026C98.4458 68.2767 108.338 68.0973 116.559 64.223C115.947 66.3326 114.596 68.2222 112.795 69.4885C115.784 69.173 118.773 68.8575 121.762 68.542C122.559 68.4575 123.437 68.3933 124.088 68.8596C125.463 69.8439 124.581 72.0665 123.304 73.1722C122.026 74.2787 120.319 75.2727 120.14 76.9495C120.648 75.9994 122.209 76.0406 122.869 76.8929C123.53 77.7453 123.363 79.0304 122.725 79.8995C122.088 80.7693 121.082 81.2921 120.069 81.6691C115.223 83.4736 109.713 82.497 105.006 80.3595C100.298 78.222 96.182 75.0109 91.8963 72.1237C87.6106 69.2365 82.9717 66.6013 77.8516 65.8663L74.8901 62.4164" fill="#F2591D"/>
<path d="M114.594 83.3501C111.457 83.3501 108.082 82.5724 104.697 81.0346C101.008 79.3599 97.6499 77.0186 94.4025 74.7541C93.4308 74.0763 92.4597 73.3985 91.4788 72.7388C87.5931 70.1211 82.9221 67.3442 77.7459 66.6007C77.3381 66.5428 77.0558 66.1665 77.1146 65.7609C77.1735 65.3554 77.5525 65.0726 77.9574 65.132C83.4335 65.918 88.2868 68.7968 92.3139 71.5088C93.3004 72.1734 94.2785 72.8561 95.2566 73.5381C98.4486 75.7642 101.749 78.0657 105.314 79.6839C110.532 82.0538 115.679 82.511 119.809 80.9739C120.94 80.5529 121.676 80.0734 122.125 79.4619C122.547 78.886 122.746 77.9485 122.28 77.346C122.091 77.1038 121.718 76.9579 121.36 76.9914C121.204 77.004 120.924 77.0612 120.798 77.2979C120.63 77.612 120.264 77.7635 119.922 77.6595C119.581 77.5548 119.362 77.2246 119.4 76.8713C119.577 75.2099 120.899 74.1559 122.065 73.226C122.322 73.0215 122.577 72.8191 122.816 72.6117C123.546 71.9807 124.07 70.9483 124.036 70.2118C124.02 69.8753 123.9 69.638 123.654 69.4621C123.234 69.1612 122.557 69.2038 121.84 69.2792L112.873 70.2258C112.541 70.2683 112.217 70.0666 112.097 69.7497C111.978 69.4335 112.088 69.0767 112.366 68.8813C113.564 68.0394 114.537 66.9148 115.202 65.6241C107.145 68.8645 97.7823 68.8003 89.7952 65.3847C88.9691 65.0314 88.1501 64.6405 87.3577 64.2629C85.7028 63.4741 84.1398 62.7285 82.4555 62.2587C79.6691 61.4832 77.0705 61.7589 75.3266 63.0175C74.9938 63.2591 74.5272 63.1844 74.2869 62.8528C74.0452 62.5205 74.1202 62.0563 74.4523 61.8162C76.5681 60.2895 79.6327 59.93 82.8569 60.8298C84.6653 61.3345 86.3608 62.1429 88.0009 62.9247C88.78 63.2961 89.5843 63.6793 90.3823 64.0213C98.5453 67.511 108.212 67.3365 116.241 63.5522C116.504 63.428 116.819 63.4692 117.042 63.6577C117.265 63.8475 117.356 64.1484 117.274 64.429C116.835 65.9445 116.053 67.34 115.007 68.5085L121.683 67.8042C122.449 67.7218 123.607 67.601 124.522 68.2565C125.141 68.6998 125.487 69.3518 125.524 70.1427C125.588 71.5311 124.7 72.9468 123.792 73.7328C123.539 73.952 123.268 74.1684 122.996 74.3848C122.525 74.7604 122.065 75.1269 121.695 75.5129C122.398 75.5743 123.048 75.9094 123.46 76.4399C124.379 77.6274 124.089 79.2992 123.327 80.3379C122.5 81.4625 121.22 82.0328 120.329 82.3644C118.559 83.0234 116.627 83.3501 114.594 83.3501" fill="#292625"/>
<path d="M-25.7931 118.066C-34.9286 135.131 -39.7131 154.485 -39.5765 173.825C-37.0521 168.072 -34.5278 162.318 -32.0041 156.564C-32.7321 163.893 -32.6368 171.303 -31.7204 178.61C-31.4282 180.935 -30.6436 183.725 -28.3595 184.287C-25.5745 184.971 -23.46 181.665 -23.0894 178.831C-22.7195 175.996 -22.9472 172.747 -20.9224 170.722C-20.7815 178.745 -16.9099 186.629 -10.6365 191.662C-10.062 185.104 -9.4875 178.547 -8.91298 171.989C-8.30134 173.927 -7.66026 175.921 -6.35009 177.477C-5.03923 179.034 -2.87709 180.06 -0.933558 179.445C1.06182 178.814 2.20034 176.728 2.80568 174.731C5.69576 165.194 0.929409 155.15 -4.14802 146.568C-9.22474 137.986 -14.9685 128.861 -14.1445 118.933L-25.7931 118.066" fill="#F2591D"/>
<path d="M-10.6365 192.403C-10.8033 192.403 -10.9693 192.347 -11.1039 192.239C-16.9548 187.545 -20.7437 180.522 -21.5221 173.1C-21.9341 174.269 -22.0476 175.636 -22.166 177.051C-22.2185 177.685 -22.2711 178.315 -22.3517 178.926C-22.5934 180.785 -23.6261 183.198 -25.3847 184.396C-26.362 185.063 -27.4536 185.274 -28.5389 185.007C-30.6807 184.48 -32 182.358 -32.4589 178.702C-33.2001 172.799 -33.4082 166.82 -33.0832 160.876L-38.8941 174.122C-39.0343 174.443 -39.3804 174.623 -39.7258 174.552C-40.0705 174.482 -40.3185 174.181 -40.3206 173.831C-40.4586 154.329 -35.6628 134.925 -26.4496 117.717C-26.257 117.354 -25.8043 117.22 -25.4428 117.411C-25.0792 117.604 -24.9426 118.054 -25.136 118.415C-33.6619 134.342 -38.3574 152.172 -38.7995 170.203L-32.6866 156.267C-32.5402 155.933 -32.1709 155.755 -31.8157 155.846C-31.4619 155.938 -31.2272 156.274 -31.2629 156.637C-31.9853 163.908 -31.8907 171.269 -30.9813 178.517C-30.6064 181.503 -29.6641 183.201 -28.1816 183.566C-27.5111 183.73 -26.8511 183.598 -26.2254 183.171C-25.0505 182.371 -24.0647 180.546 -23.8279 178.735C-23.7515 178.146 -23.7004 177.539 -23.6499 176.929C-23.4474 174.498 -23.238 171.986 -21.45 170.198C-21.2384 169.986 -20.9217 169.922 -20.6435 170.033C-20.3668 170.145 -20.1825 170.411 -20.1776 170.709C-20.0487 178.075 -16.7376 185.245 -11.2531 190.164L-9.65495 171.925C-9.62413 171.572 -9.34738 171.29 -8.99357 171.252C-8.64325 171.215 -8.30905 171.429 -8.20256 171.766C-7.61754 173.619 -7.01291 175.535 -5.77911 176.999C-4.7541 178.217 -2.8722 179.28 -1.15988 178.738C0.644232 178.166 1.60482 176.127 2.09245 174.516C4.90756 165.228 0.193041 155.366 -4.7891 146.945L-5.50235 145.742C-10.5118 137.301 -15.6922 128.572 -14.8865 118.871C-14.8529 118.463 -14.5012 118.164 -14.0829 118.193C-13.673 118.227 -13.3683 118.586 -13.4019 118.994C-14.1684 128.224 -9.11058 136.745 -4.22022 144.986L-3.50557 146.191C1.64052 154.889 6.49935 165.109 3.5182 174.945C2.92687 176.897 1.71338 179.385 -0.708678 180.152C-3.0894 180.906 -5.5423 179.59 -6.92043 177.954C-7.56921 177.183 -8.06382 176.316 -8.46598 175.423L-9.89456 191.726C-9.91908 191.998 -10.0914 192.236 -10.3444 192.343C-10.4382 192.383 -10.5377 192.403 -10.6365 192.403" fill="#292625"/>
<path d="M113.339 118.066C122.474 135.131 127.259 154.485 127.126 173.825C124.598 168.072 122.074 162.318 119.55 156.564C120.278 163.893 120.183 171.303 119.266 178.61C118.974 180.935 118.189 183.725 115.905 184.287C113.12 184.971 111.006 181.665 110.635 178.831C110.265 175.996 110.493 172.747 108.468 170.722C108.327 178.745 104.456 186.629 98.1823 191.662C97.6078 185.104 97.0333 178.547 96.4588 171.989C95.8471 173.927 95.2061 175.921 93.8959 177.477C92.585 179.034 90.4229 180.06 88.4794 179.445C86.484 178.814 85.3455 176.728 84.7401 174.731C81.8501 165.194 86.6164 155.15 91.6938 146.568C96.7706 137.986 102.514 128.861 101.69 118.933L113.339 118.066" fill="#F2591D"/>
<path d="M98.1823 192.403C98.0842 192.403 97.9848 192.383 97.8902 192.343C97.6373 192.236 97.4649 191.998 97.4411 191.726L96.0118 175.424C95.6097 176.317 95.1157 177.183 94.4662 177.954C93.0874 179.59 90.6345 180.906 88.2538 180.152C85.8331 179.386 84.6189 176.898 84.0269 174.945C81.0465 165.108 85.906 154.889 91.0521 146.191L91.7646 144.989C96.6564 136.747 101.714 128.225 100.948 118.994C100.915 118.586 101.219 118.227 101.629 118.193C102.049 118.163 102.399 118.463 102.433 118.871C103.237 128.573 98.0569 137.302 93.0468 145.744L92.3357 146.945C87.3528 155.365 82.639 165.227 85.4534 174.516C85.9417 176.127 86.9023 178.167 88.7043 178.738C90.4202 179.278 92.2999 178.216 93.3249 176.999C94.5608 175.533 95.1641 173.619 95.7484 171.767C95.8542 171.429 96.1891 171.216 96.5394 171.252C96.8932 171.29 97.1693 171.572 97.2001 171.925L98.7989 190.163C104.283 185.245 107.595 178.075 107.724 170.709C107.728 170.411 107.913 170.145 108.19 170.033C108.468 169.922 108.784 169.986 108.996 170.198C110.784 171.986 110.993 174.498 111.196 176.928C111.246 177.538 111.297 178.145 111.374 178.735C111.611 180.547 112.597 182.371 113.771 183.171C114.398 183.599 115.058 183.73 115.727 183.566C117.211 183.201 118.152 181.503 118.527 178.517C119.436 171.267 119.531 163.905 118.809 156.637C118.772 156.274 119.007 155.938 119.362 155.846C119.717 155.755 120.085 155.933 120.232 156.267L126.348 170.203C125.904 152.172 121.208 134.342 112.682 118.415C112.488 118.054 112.625 117.604 112.988 117.412C113.35 117.219 113.801 117.354 113.995 117.717C123.208 134.925 128.002 154.329 127.869 173.831C127.861 174.181 127.616 174.482 127.273 174.552C126.93 174.624 126.579 174.443 126.439 174.122L120.629 160.876C120.954 166.819 120.746 172.797 120.005 178.702C119.547 182.358 118.227 184.48 116.084 185.007C114.999 185.273 113.909 185.062 112.93 184.397C111.172 183.199 110.14 180.786 109.897 178.926C109.817 178.314 109.764 177.685 109.712 177.051C109.593 175.636 109.479 174.27 109.068 173.101C108.288 180.522 104.5 187.545 98.6496 192.239C98.5151 192.347 98.3498 192.403 98.1823 192.403" fill="#292625"/>
<path d="M87.067 162.842C86.4399 165.831 86.1407 168.954 86.835 171.929C86.999 172.632 87.226 173.339 87.673 173.907C88.1193 174.475 88.8234 174.885 89.5443 174.816C90.3914 174.737 91.0668 174.021 91.3639 173.227C91.661 172.433 91.6561 171.563 91.6645 170.716C91.6995 167.11 92.0386 163.506 92.6776 159.956C92.9466 158.461 93.243 156.812 92.4562 155.511C92.1815 155.056 91.6806 154.644 91.1621 154.77C90.8854 154.837 90.6668 155.044 90.472 155.252C88.5495 157.303 87.6429 160.094 87.067 162.842" fill="#F79074"/>
<path d="M102.444 136.079C102.852 134.415 103.119 132.588 102.366 131.05C99.9753 136.601 97.3971 142.072 94.6373 147.45C93.6641 149.348 92.644 151.327 92.6398 153.457C92.6384 154.328 93.1583 155.454 94.0117 155.265C94.5035 155.156 94.7788 154.647 94.9904 154.191C95.8662 152.304 96.742 150.416 97.6178 148.529C99.4947 144.484 101.383 140.407 102.444 136.079" fill="#F79074"/>
<path d="M-2.75316 174.58C-2.38953 174.994 -1.85779 175.34 -1.31411 175.239C-0.764816 175.138 -0.398369 174.626 -0.137036 174.134C1.73363 170.601 1.12407 166.301 0.123578 162.433C-0.797744 158.87 -2.02311 155.352 -3.94843 152.213C-4.78217 150.854 -5.88778 149.476 -7.45507 149.157C-7.84462 149.078 -8.2811 149.079 -8.60409 149.31C-9.2872 149.8 -9.01887 150.857 -8.66786 151.618C-7.48661 154.181 -6.13788 156.683 -5.29853 159.377C-4.26371 162.698 -4.03461 166.212 -3.97155 169.688C-3.94003 171.405 -3.88887 173.287 -2.75316 174.58Z" fill="#F79074"/>
<path d="M2.63605 29.0157C2.23109 29.3626 1.79038 29.7151 1.2621 29.7926C0.734534 29.8701 0.111014 29.5531 0.054964 29.024C0.0241366 28.7336 0.164248 28.4544 0.303672 28.1968C1.40295 26.1648 2.70261 24.2402 4.17743 22.4594C5.45537 20.9174 7.209 19.3572 9.19107 19.6699C9.39075 21.4367 8.29009 23.0709 7.14947 24.4384C5.77555 26.0852 4.26431 27.6181 2.63605 29.0157Z" fill="#60827F"/>
<path d="M10.6456 153.849C10.3759 154.005 8.68879 151.619 6.87767 148.519C5.06656 145.42 3.81664 142.779 4.08708 142.623C4.35682 142.466 6.04394 144.852 7.85506 147.952C9.66617 151.052 10.9154 153.692 10.6456 153.849Z" fill="#292625"/>
<path d="M15.6095 154.513C15.4904 154.603 15.1219 154.348 14.6665 153.805C14.223 153.257 13.7312 152.397 13.4075 151.364C13.1041 150.326 13.0368 149.338 13.102 148.637C13.1797 147.934 13.3458 147.519 13.495 147.528C13.6569 147.537 13.776 147.956 13.9007 148.596C14.038 149.239 14.2187 150.103 14.4899 151.039C14.7834 151.969 15.1128 152.788 15.3545 153.399C15.6067 154.001 15.7398 154.415 15.6095 154.513" fill="#292625"/>
<path d="M19.6046 159.742C19.2921 159.739 19.0588 158.017 19.0827 155.897C19.1065 153.777 19.3797 152.061 19.6922 152.065C20.0039 152.068 20.238 153.79 20.2141 155.91C20.1896 158.03 19.9171 159.746 19.6046 159.742Z" fill="#292625"/>
<path d="M31.8059 164.893C31.7148 165.002 31.2384 164.777 30.624 164.195C30.0326 163.598 29.3853 162.584 29.0497 161.327C28.7554 160.059 28.8506 158.862 29.0924 158.059C29.3614 157.257 29.6767 156.836 29.8085 156.89C29.9661 156.949 29.9296 157.452 29.8806 158.194C29.8574 158.948 29.8981 159.962 30.1475 161.055C30.4411 162.137 30.8818 163.052 31.2566 163.707C31.649 164.34 31.9173 164.767 31.8059 164.893Z" fill="#292625"/>
<path d="M62.2004 161.141C61.8922 161.09 61.9342 159.25 62.295 157.029C62.6558 154.808 63.1988 153.048 63.5071 153.097C63.8153 153.147 63.7726 154.988 63.4118 157.209C63.051 159.43 62.5087 161.19 62.2004 161.141" fill="#292625"/>
<path d="M72.7651 159.417C72.4484 159.276 73.1932 156.996 73.8903 154.15C74.5209 151.289 74.8586 148.915 75.2054 148.927C75.4829 148.929 75.6503 151.419 74.9924 154.405C74.2645 157.374 73.0152 159.537 72.7651 159.417" fill="#292625"/>
<path d="M81.1439 152.779C81.0066 152.689 81.3373 151.931 81.8971 150.752C82.4429 149.562 83.1716 147.924 83.8498 146.063C84.4992 144.192 84.9693 142.463 85.2979 141.196C85.6083 139.929 85.8311 139.133 85.9951 139.149C86.1422 139.163 86.2011 139.995 86.0855 141.333C85.9537 142.667 85.5908 144.499 84.9161 146.44C84.2127 148.371 83.3369 150.021 82.5956 151.14C81.8389 152.252 81.2672 152.861 81.1439 152.779" fill="#292625"/>
<path d="M14.7752 183.197C14.4949 183.335 13.54 181.972 12.6425 180.155C11.7457 178.336 11.2454 176.751 11.5257 176.613C11.8059 176.477 12.7608 177.839 13.6576 179.657C14.5551 181.475 15.0554 183.061 14.7752 183.197" fill="#292625"/>
<path d="M21.2181 184.178C20.9469 184.332 20.0999 183.363 19.3264 182.014C18.5522 180.664 18.1444 179.446 18.4156 179.291C18.6874 179.137 19.5344 180.105 20.3079 181.455C21.0821 182.804 21.4899 184.023 21.2181 184.178Z" fill="#292625"/>
<path d="M20.881 199.166C20.7416 199.407 18.838 198.532 16.9911 196.768C15.1919 194.953 14.2861 193.07 14.5257 192.928C14.8171 192.743 16.0894 194.255 17.785 195.964C19.5253 197.628 21.0625 198.873 20.881 199.166Z" fill="#292625"/>
<path d="M66.4014 203.714C66.2949 203.587 66.9268 202.881 67.9427 201.776C68.9446 200.655 70.2828 199.084 71.607 197.231C72.8989 195.356 73.9205 193.564 74.6344 192.242C75.3266 190.912 75.775 190.078 75.9319 190.134C76.0692 190.182 75.885 191.118 75.3637 192.569C74.8215 194.009 73.8742 195.934 72.5339 197.877C71.1621 199.798 69.6732 201.345 68.5018 202.347C67.3135 203.333 66.4931 203.827 66.4014 203.714Z" fill="#292625"/>
<path d="M58.4969 202.089C58.2496 201.9 58.8598 200.692 59.861 199.39C60.8622 198.089 61.8746 197.188 62.1226 197.377C62.3699 197.567 61.7597 198.775 60.7585 200.076C59.7573 201.377 58.7449 202.278 58.4969 202.089Z" fill="#292625"/>
<path d="M72.0506 179.302C71.7522 179.211 71.8236 178.121 72.2104 176.868C72.5964 175.615 73.152 174.673 73.4504 174.764C73.7489 174.856 73.6782 175.946 73.2914 177.199C72.9047 178.452 72.3498 179.394 72.0506 179.302" fill="#292625"/>
<path d="M79.7265 127.646C79.7924 127.765 79.0876 128.338 77.7291 128.863C77.053 129.13 76.2101 129.35 75.2559 129.496C74.3002 129.624 73.2325 129.667 72.1213 129.564C71.0108 129.448 69.9725 129.197 69.0603 128.884C68.1537 128.554 67.3711 128.173 66.7608 127.779C65.5319 126.998 64.9539 126.298 65.0422 126.194C65.1501 126.058 65.8906 126.519 67.1384 127.076C67.7592 127.361 68.5215 127.64 69.3791 127.896C70.2429 128.132 71.2063 128.335 72.2327 128.443C73.2605 128.537 74.2449 128.528 75.1382 128.464C76.0301 128.382 76.8323 128.257 77.4972 128.1C78.8305 127.798 79.6474 127.491 79.7265 127.646" fill="#292625"/>
<path d="M76.2178 137.409C76.2395 137.555 75.8325 137.755 75.1199 137.875C74.4088 137.98 73.3929 137.947 72.328 137.642C71.2714 137.312 70.4054 136.781 69.8702 136.304C69.3426 135.812 69.1135 135.421 69.2123 135.311C69.3209 135.189 69.7272 135.356 70.3144 135.641C70.9141 135.914 71.7233 136.27 72.6537 136.563C73.5926 136.83 74.4642 136.978 75.1158 137.079C75.7631 137.163 76.1954 137.247 76.2178 137.409" fill="#292625"/>
<path d="M13.2015 126.419C13.2344 126.543 12.0553 127.021 10.0214 127.216C9.51414 127.262 8.95571 127.301 8.35598 127.28C7.75344 127.292 7.11522 127.223 6.44192 127.161C5.10162 126.988 3.64079 126.666 2.16947 126.137C0.705169 125.59 -0.616222 124.89 -1.74913 124.156C-2.30192 123.767 -2.83297 123.408 -3.28277 123.01C-3.75359 122.638 -4.15297 122.247 -4.50959 121.885C-5.93045 120.422 -6.51757 119.297 -6.41178 119.223C-6.26675 119.113 -5.46174 120.049 -3.9666 121.299C-3.59107 121.61 -3.18049 121.949 -2.70756 122.272C-2.25496 122.621 -1.7295 122.933 -1.19072 123.279C-0.0851334 123.928 1.17529 124.561 2.56043 125.079C3.95257 125.579 5.32366 125.913 6.58758 126.133C7.22305 126.217 7.82634 126.32 8.39805 126.346C8.96836 126.406 9.50084 126.414 9.98917 126.42C11.9418 126.434 13.163 126.242 13.2015 126.419" fill="#292625"/>
<path d="M8.25292 131.101C8.27815 131.244 7.57541 131.502 6.38505 131.699C5.19539 131.875 3.51316 131.921 1.68594 131.646C-0.136389 131.337 -1.71976 130.769 -2.79382 130.23C-3.86227 129.672 -4.44872 129.207 -4.37936 129.079C-4.30299 128.932 -3.59535 129.14 -2.49537 129.491C-1.38558 129.823 0.141797 130.24 1.86533 130.533C3.59378 130.792 5.1758 130.873 6.33394 130.904C7.48857 130.914 8.2263 130.938 8.25292 131.101" fill="#292625"/>
</g>
<defs>
<clipPath id="clip0_1153_3991">
<rect width="196" height="244" fill="white" transform="translate(-56)"/>
</clipPath>
</defs>
</svg>
