<svg width="752" height="768" viewBox="0 0 752 768" fill="none" xmlns="http://www.w3.org/2000/svg">
<path d="M745 314.4H383.7V462.9H590.1C581.2 510.9 554.2 551.5 513.5 578.7C479.1 601.7 435.2 615.3 383.6 615.3C283.7 615.3 199.2 547.8 169 457.1C161.4 434.1 157 409.5 157 384.2C157 358.9 161.4 334.3 169 311.3C199.3 220.7 283.8 153.2 383.7 153.2C440 153.2 490.5 172.6 530.3 210.6L640.3 100.5C573.8 38.5 487.1 0.5 383.7 0.5C233.8 0.5 104.1 86.5 41.0002 211.9C15.0002 263.7 0.200195 322.3 0.200195 384.3C0.200195 446.3 15.0002 504.8 41.0002 556.6C104.1 682 233.8 768 383.7 768C487.3 768 574.1 733.6 637.5 675C710 608.2 751.9 509.8 751.9 392.9C751.9 365.7 749.5 339.6 745 314.4Z" fill="white"/>
</svg>
