<svg version="1.1" id="Layer_1" xmlns="http://www.w3.org/2000/svg" xmlns:xlink="http://www.w3.org/1999/xlink" x="0px" y="0px"
	 width="100%" viewBox="0 0 343 343" enable-background="new 0 0 343 343" xml:space="preserve">
<path fill="#000000" opacity="000000" stroke="none"
	d="
M1.000000,128.000000 
	C1.000000,85.333344 1.000000,43.166683 1.000000,1.000017 
	C115.333305,1.000011 229.666611,1.000011 343.999939,1.000006 
	C343.999939,115.333282 343.999939,229.666565 343.999969,343.999878 
	C229.666733,343.999939 115.333473,343.999939 1.000103,343.999969 
	C1.000000,272.166656 1.000000,200.333328 1.000000,128.000000 
M284.559174,202.919601 
	C284.730652,202.637131 284.902130,202.354645 285.811157,201.971268 
	C291.725769,197.037109 290.827576,189.219040 286.002625,181.300888 
	C285.690918,180.846039 285.379211,180.391190 284.922882,179.325668 
	C284.305847,178.527054 283.688812,177.728439 282.927826,176.440735 
	C282.647461,176.264420 282.367126,176.088104 282.003632,175.267151 
	C281.354034,174.494186 280.704437,173.721237 279.792084,172.311600 
	C277.883942,170.215424 276.281250,170.602219 274.255493,172.998276 
	C273.147400,173.975357 272.039307,174.952438 270.442413,176.077179 
	C270.268677,176.359818 270.094940,176.642456 269.437408,177.076401 
	C269.262939,177.356049 269.088470,177.635712 268.257568,178.000519 
	C267.571381,178.480759 266.885193,178.960983 265.808289,179.758667 
	C265.510437,180.143875 265.212585,180.529083 264.435577,181.080780 
	C264.265076,181.362488 264.094604,181.644196 263.227112,182.011948 
	C261.740601,183.186066 260.254059,184.360184 258.395538,185.828140 
	C259.829956,187.150330 260.875519,188.114090 261.990601,189.728271 
	C262.638245,190.507126 263.285919,191.285980 263.989349,192.717560 
	C264.627716,193.506439 265.266083,194.295319 265.992340,195.835480 
	C266.875275,198.399170 267.758209,200.962860 268.647522,203.545029 
	C263.675079,207.649185 258.720276,211.738785 253.686203,215.893799 
	C260.143982,220.893539 269.676331,218.106415 275.729187,209.992569 
	C276.508759,209.351334 277.288330,208.710098 278.552795,207.915344 
	C278.727478,207.634720 278.902191,207.354080 279.565460,206.930664 
	C279.739166,206.648697 279.912903,206.366730 280.709412,205.964767 
	C281.491638,205.328995 282.273834,204.693237 283.550659,203.920303 
	C283.724335,203.636185 283.898010,203.352066 284.559174,202.919601 
M118.481995,278.082092 
	C118.323906,278.400391 118.165817,278.718689 118.007332,279.006134 
	C118.007332,279.006134 118.038063,279.009766 117.299667,279.011780 
	C114.413635,280.931946 116.243111,281.951660 118.008842,282.995117 
	C118.008842,282.995117 118.031380,282.948669 118.084328,283.514435 
	C118.406731,283.667023 118.729134,283.819611 119.005783,283.991180 
	C119.005783,283.991180 119.025337,283.945526 119.110695,284.564789 
	C119.763397,285.030701 120.416092,285.496613 121.012138,285.983765 
	C121.012138,285.983765 121.034767,285.927643 121.151970,286.603149 
	C122.116722,287.059387 123.081474,287.515656 124.004524,287.990967 
	C124.004524,287.990967 124.018593,287.947113 124.161530,288.589081 
	C124.785660,288.725403 125.409798,288.861725 126.007355,288.989166 
	C126.007355,288.989166 125.996971,288.963165 126.156296,289.632263 
	C127.133286,290.057190 128.110275,290.482117 129.019196,291.000549 
	C129.019196,291.000549 129.051514,290.889862 129.307922,291.545227 
	C130.216202,291.696838 131.124466,291.848450 132.007278,291.988129 
	C132.007278,291.988129 131.995483,291.962585 132.250275,292.726105 
	C136.596527,294.075256 140.964478,295.784668 144.993439,291.988678 
	C144.993439,291.988678 144.963379,291.991547 145.693436,291.985321 
	C146.133652,291.809753 146.689896,291.749664 146.996750,291.441345 
	C151.980331,286.434265 157.008804,281.468201 161.867096,276.341217 
	C165.739670,272.254486 166.151962,264.353027 162.966019,261.135834 
	C158.304474,265.756134 153.642532,270.376801 148.997681,275.005615 
	C148.997681,275.005615 149.008118,275.021820 148.810532,274.310852 
	C147.197052,273.869080 145.583572,273.427307 143.989990,273.010895 
	C143.989990,273.010895 144.018356,273.026154 143.843491,272.373535 
	C142.881424,271.924774 141.919357,271.476013 140.997757,271.009399 
	C140.997757,271.009399 140.982101,271.051270 140.846786,270.390717 
	C139.885345,269.932098 138.923920,269.473450 137.995453,269.006470 
	C137.995453,269.006470 137.988281,269.039886 137.921600,268.477661 
	C137.599869,268.326813 137.278152,268.175964 136.997147,268.004333 
	C136.997147,268.004333 136.974869,268.044586 136.927917,267.474182 
	C136.602356,267.326172 136.276779,267.178162 135.995239,267.003784 
	C135.995239,267.003784 135.972015,267.049347 135.910812,266.486481 
	C135.588882,266.336823 135.266937,266.187164 134.996246,266.007599 
	C134.996246,266.007599 134.967255,266.059723 134.834930,265.365356 
	C132.904846,263.334808 131.274246,263.336182 130.014526,266.001556 
	C130.014526,266.001556 130.074188,266.050537 129.406189,266.127655 
	C128.665619,267.175446 127.925041,268.223267 126.988754,269.694275 
	C126.711159,270.056488 126.433563,270.418701 125.573677,271.005615 
	C125.380722,271.348785 125.187767,271.691956 125.004234,272.010895 
	C125.004234,272.010895 125.028580,272.002228 124.472771,272.076355 
	C124.316185,272.393890 124.159599,272.711395 124.005363,273.004669 
	C124.005363,273.004669 124.029602,273.002228 123.473610,273.077637 
	C123.317696,273.395508 123.161774,273.713409 123.005363,274.004700 
	C123.005363,274.004700 123.031914,274.005157 122.475273,274.078247 
	C122.318748,274.396179 122.162231,274.714081 122.006401,275.005035 
	C122.006401,275.005035 122.033394,275.004181 121.476257,275.080261 
	C121.321777,275.399231 121.167297,275.718231 121.006042,276.005035 
	C121.006042,276.005035 121.038368,276.011566 120.479553,276.081512 
	C120.323860,276.400604 120.168175,276.719696 120.006027,277.005829 
	C120.006027,277.005829 120.038986,277.012207 119.480019,277.082336 
	C119.325356,277.401764 119.170685,277.721222 119.005699,278.005371 
	C119.005699,278.005371 119.040970,278.015625 118.481995,278.082092 
M81.002441,153.997559 
	C81.002441,153.997559 81.003059,153.983902 81.074730,154.532272 
	C81.386879,154.691116 81.699028,154.849945 82.004555,154.989426 
	C82.004555,154.989426 81.985191,154.982773 82.020439,155.707489 
	C82.710106,156.188217 83.399773,156.668945 84.169693,157.849701 
	C85.140991,159.017365 86.114594,160.183105 87.083199,161.352982 
	C91.466820,166.647476 96.789452,169.237335 104.633919,167.136078 
	C103.327599,165.502060 102.410645,164.268143 101.403656,163.112686 
	C98.923378,160.266708 96.642677,157.183182 93.830894,154.707153 
	C90.851639,152.083679 91.916550,149.945984 93.749825,147.558701 
	C96.918732,143.432159 100.103424,139.317734 103.430023,135.005707 
	C98.181519,129.473923 92.639450,123.632736 86.686340,117.358315 
	C83.146141,121.593826 80.115532,125.219666 76.525818,129.032990 
	C76.347511,129.360367 76.169205,129.687744 76.006432,130.006958 
	C76.006432,130.006958 76.014511,129.991409 75.378510,130.147186 
	C75.249977,130.771133 75.121445,131.395065 75.008995,132.008408 
	C75.008995,132.008408 75.018295,131.991547 74.388809,132.163971 
	C74.277069,132.786377 74.165329,133.408768 74.000000,134.000610 
	C74.000000,134.000610 74.051537,134.035065 73.337990,134.356842 
	C71.424500,138.907394 70.588425,143.315857 75.011421,146.987244 
	C75.011421,146.987244 74.967751,146.986359 74.987137,147.685928 
	C75.700363,148.509216 76.413589,149.332504 77.194397,150.532318 
	C77.339027,150.777527 77.553581,150.894455 78.046562,151.496796 
	C78.704865,151.999100 79.363167,152.501419 80.008064,152.997421 
	C80.008064,152.997421 80.002403,152.984070 80.075844,153.532806 
	C80.389236,153.687515 80.702629,153.842224 81.002441,153.997559 
M248.478867,322.514832 
	C248.478867,322.514832 248.382767,322.278717 248.607010,321.765167 
	C248.305054,321.635284 248.003098,321.505402 247.698975,321.310516 
	C247.698975,321.310516 247.634628,321.301300 247.796967,320.595764 
	C247.112427,320.151398 246.427887,319.707062 245.991150,319.007019 
	C245.991150,319.007019 245.734467,319.253906 245.812729,318.511658 
	C245.086288,318.173279 244.359848,317.834930 243.593628,317.410004 
	C243.593628,317.410004 243.509430,317.365417 243.728775,316.602661 
	C243.692825,316.340576 243.656860,316.078491 243.253693,315.229645 
	C241.525925,314.744202 239.798141,314.258789 238.458115,313.284058 
	C237.761627,310.595764 237.761627,310.595764 233.762695,311.845673 
	C233.577087,311.804413 233.391479,311.763153 233.327332,311.113098 
	C232.495392,307.106995 230.314209,309.608185 227.906723,309.801544 
	C227.265213,309.494751 226.623703,309.187988 226.473679,308.347473 
	C228.329407,302.935486 230.185135,297.523468 232.625366,291.851318 
	C232.691711,291.245331 232.758041,290.639343 232.981537,289.383362 
	C233.266769,288.580353 233.552002,287.777374 233.997681,286.194885 
	C234.607849,283.474487 235.218018,280.754120 236.164200,277.324799 
	C241.434402,263.006775 241.463226,248.074051 240.814331,233.180664 
	C240.548920,227.089264 239.545776,220.734482 237.373062,215.077621 
	C231.072937,198.674637 222.480499,183.406036 212.519714,168.904099 
	C210.630066,166.152939 209.460876,162.906952 208.804382,159.990677 
	C212.637939,160.653549 216.564651,162.203827 220.287613,161.813065 
	C231.496033,160.636612 241.778534,156.486649 251.648468,150.983093 
	C263.326233,144.471451 275.134247,138.118393 287.267273,132.523941 
	C295.683105,128.643478 295.969513,129.268021 295.941742,119.948135 
	C295.939270,119.116806 295.980743,118.285446 295.990692,117.453964 
	C296.083344,109.720421 295.011139,108.881500 287.024658,110.729080 
	C287.024658,106.863350 287.024658,103.061279 287.024658,98.266632 
	C285.262878,99.337952 283.921509,99.800064 283.086639,100.721230 
	C279.006195,105.223358 275.385468,110.195229 270.968872,114.323433 
	C267.182129,117.862892 255.780045,120.212296 252.412155,119.248161 
	C255.907303,109.459488 259.408234,99.654587 263.642944,90.135780 
	C269.514313,91.860260 270.952271,90.498772 271.645813,82.870995 
	C275.600281,79.055748 274.990479,74.085396 274.974670,69.317650 
	C274.962097,65.526306 273.625885,62.905083 269.025543,63.145863 
	C268.727936,60.749344 268.430359,58.352825 269.010132,55.978493 
	C274.749512,56.863491 280.513855,57.614330 286.220703,58.674408 
	C291.100372,59.580833 295.914124,60.841988 301.213226,62.642979 
	C305.728577,63.919254 308.809937,62.757065 308.969208,57.592506 
	C309.143219,51.950020 309.288116,46.280502 308.940735,40.653942 
	C308.358704,31.226440 304.460876,22.843897 299.438293,15.068350 
	C296.956879,11.226849 293.227753,9.205252 288.221527,12.337990 
	C288.034119,12.532446 287.945374,12.764642 288.007172,13.033843 
	C288.007172,13.033843 288.009979,12.982378 287.355347,13.154568 
	C275.973755,25.646563 262.494232,35.189739 246.232468,42.004318 
	C240.011978,44.418705 238.667877,46.926319 240.516830,51.986897 
	C242.504654,57.427536 246.923264,55.872742 251.684555,55.925179 
	C254.434448,55.640060 257.184326,55.354946 259.994781,55.942837 
	C260.069672,57.696491 260.144562,59.450142 259.848328,61.763138 
	C251.798477,68.377075 246.492188,76.976166 241.374954,85.925125 
	C235.443420,96.298134 228.530136,106.109772 221.377945,115.781578 
	C218.526245,106.868248 215.674561,97.954918 212.979813,88.244438 
	C215.016922,82.174622 217.054031,76.104805 219.591110,69.652336 
	C220.746017,68.181892 221.900925,66.711449 223.858902,65.032028 
	C231.690323,64.597626 234.080170,62.694088 232.854202,56.318508 
	C231.752899,50.591351 231.817795,43.860798 225.092575,40.121006 
	C223.324844,38.391697 221.557114,36.662384 219.567978,34.276951 
	C210.296616,27.661741 198.238831,29.565546 194.580719,39.387436 
	C192.313263,45.475475 188.680496,48.289707 183.318405,50.321114 
	C181.345062,51.068714 179.050323,51.763226 177.719437,53.225674 
	C175.706482,55.437599 170.679169,55.763287 172.487823,61.111088 
	C178.626801,61.111088 184.767303,61.111088 190.712662,61.737057 
	C185.109818,69.172668 177.472672,71.391235 168.467789,71.125801 
	C163.603165,70.982407 158.507950,71.454025 153.856354,72.811722 
	C144.530869,75.533600 138.447510,86.011688 138.744141,94.448311 
	C138.925461,99.605392 138.141327,106.137054 135.094650,109.822624 
	C124.806938,122.267792 130.225113,140.787750 148.780090,143.701553 
	C147.197906,145.079834 145.463852,146.319458 144.058243,147.858948 
	C135.101807,157.668549 130.420990,169.742340 126.004959,181.983078 
	C124.151611,187.120377 121.828636,192.088242 120.153610,196.094147 
	C111.534935,195.042191 103.816154,194.100082 95.238937,193.014877 
	C92.173714,192.669846 89.108482,192.324799 85.588524,191.309280 
	C83.697975,191.150406 81.807434,190.991547 79.647194,190.247238 
	C78.796150,190.224396 77.945114,190.201553 76.406357,189.899689 
	C74.617989,189.260300 72.829628,188.620895 70.666573,187.406952 
	C69.042397,186.680130 67.418213,185.953308 65.966873,185.016571 
	C65.966873,185.016571 65.775887,185.210281 65.703316,184.668350 
	C65.385994,184.642654 65.068665,184.616959 64.562698,184.525070 
	C64.562698,184.525070 64.431114,184.374557 64.567711,183.744049 
	C64.032875,183.504608 63.498047,183.265152 62.998291,182.998123 
	C62.998291,182.998123 62.977482,183.037201 63.045185,182.338058 
	C61.270283,180.989746 59.495380,179.641434 57.818523,178.167130 
	C57.818523,178.167130 57.677235,178.241455 57.735394,177.665390 
	C57.405197,177.568436 57.075001,177.471497 56.701488,177.317398 
	C56.701488,177.317398 56.632912,177.296417 56.747120,176.561707 
	C55.694042,175.691010 54.640965,174.820297 53.121803,173.525223 
	C53.064598,173.323044 53.007393,173.120865 53.380234,172.845947 
	C53.380234,172.845947 53.084160,172.528427 53.084160,172.528427 
	C53.084160,172.528427 52.914425,172.932343 52.358040,172.639023 
	C52.258018,172.454773 52.157993,172.270508 52.436893,171.866592 
	C52.436893,171.866592 52.128517,171.559204 52.128517,171.559204 
	C52.128517,171.559204 51.905037,171.934570 51.416225,171.673065 
	C51.341385,171.504120 51.266541,171.335159 51.519733,170.769470 
	C51.255569,170.721252 50.991402,170.673050 50.550575,170.531876 
	C50.550575,170.531876 50.437775,170.367157 50.636353,169.693192 
	C49.215797,167.923584 47.850372,166.536209 47.015705,170.014572 
	C47.015705,170.014572 47.198120,170.201477 46.486961,170.199265 
	C46.127457,170.903763 45.767952,171.608261 45.338528,172.325714 
	C45.338528,172.325714 45.321098,172.394669 44.645283,172.328018 
	C43.168636,173.973480 41.691986,175.618942 39.926731,177.862823 
	C37.247410,181.278214 34.568085,184.693619 31.334225,188.413391 
	C31.260263,188.610855 31.186300,188.808304 30.596718,189.201141 
	C28.910463,191.011765 27.033447,192.682083 25.577368,194.661972 
	C22.474243,198.881470 19.356359,203.123917 16.698660,207.625092 
	C14.974572,210.545090 15.560819,213.243561 19.774614,213.098053 
	C23.841759,212.957596 27.896044,212.444656 32.596924,212.649643 
	C34.614792,212.095215 37.299244,212.157944 38.506989,210.853455 
	C40.780552,208.397827 45.790550,209.770447 46.976181,204.802399 
	C48.475803,203.610382 49.975426,202.418350 51.679600,201.959473 
	C57.362923,205.296234 63.046242,208.633011 69.008675,212.489914 
	C69.329376,212.683182 69.650078,212.876450 70.244362,213.709946 
	C72.442177,214.755386 74.639992,215.800827 77.529343,217.056747 
	C78.997971,217.761734 80.466599,218.466721 81.654633,219.842300 
	C78.100159,229.431824 76.314392,239.108536 80.105415,249.094269 
	C82.366035,255.048813 87.078026,257.190582 93.679070,254.993118 
	C94.137306,254.678360 94.595551,254.363602 94.984718,254.059479 
	C94.984718,254.059479 95.021820,254.119019 95.793488,254.017593 
	C126.623627,242.292618 152.895813,224.886154 169.636993,193.783096 
	C180.082245,205.733093 190.165237,217.047226 199.901581,228.652161 
	C201.322205,230.345428 202.258026,233.961823 201.426727,235.775681 
	C196.892532,245.669083 190.431198,254.242386 181.110962,261.271149 
	C176.467590,267.126648 177.051224,272.614868 182.843292,277.445862 
	C189.863846,283.301483 197.663177,286.680664 207.067459,285.432281 
	C207.067459,285.432281 207.178986,285.834534 207.023132,286.670319 
	C206.962997,288.082642 206.902863,289.494995 206.148911,291.320404 
	C206.156830,293.201721 206.164734,295.083069 206.023743,297.713867 
	C205.952225,298.471375 205.880692,299.228912 205.253586,300.414429 
	C204.006668,305.034210 202.759750,309.653992 201.437317,314.335205 
	C201.437317,314.335205 201.393036,314.421875 200.646378,314.454407 
	C200.587357,315.399292 200.528336,316.344208 200.393646,317.314270 
	C200.393646,317.314270 200.354874,317.383942 199.615768,317.343231 
	C198.786285,319.312347 197.428696,321.231354 197.236084,323.260895 
	C196.821625,327.628845 194.010666,326.986938 191.120438,326.955444 
	C185.894897,326.898499 180.643997,326.801605 175.454391,327.276031 
	C173.922623,327.416046 172.561249,329.420288 171.121780,330.570221 
	C172.602982,331.687195 174.030823,333.672577 175.574829,333.767395 
	C181.540771,334.134003 187.543777,333.893951 193.532974,333.886047 
	C207.911011,333.867035 222.298523,334.138794 236.661545,333.665863 
	C241.186401,333.516907 245.645660,331.375366 250.791458,329.963745 
	C253.343170,327.352020 253.115570,326.242798 249.266525,323.550934 
	C249.266525,323.550934 249.208191,323.208191 249.509964,322.789551 
	C249.241180,322.738068 248.972412,322.686584 248.478867,322.514832 
M113.202705,54.992435 
	C111.779793,55.635887 110.356880,56.279339 108.188187,56.999100 
	C105.431328,58.301010 102.674469,59.602917 99.146858,60.991161 
	C96.279762,61.213333 95.595627,62.375156 96.572754,65.267639 
	C98.014069,69.534203 98.990326,73.972641 99.934166,78.387154 
	C100.534294,81.194092 99.850517,83.058846 96.473228,84.151230 
	C91.394844,85.793831 86.624840,88.389832 81.723724,90.580490 
	C81.738480,91.177422 81.753227,91.774353 81.767975,92.371292 
	C84.944786,93.246574 88.259377,95.161873 91.267433,94.763359 
	C96.292992,94.097572 101.203934,92.169174 106.008926,90.362236 
	C109.825180,88.927124 113.410873,86.878944 117.789078,85.017075 
	C118.554428,84.038719 119.319786,83.060364 120.776260,81.724037 
	C121.425453,79.626801 122.498238,77.559059 122.646721,75.426949 
	C123.151283,68.181938 122.568481,61.085506 118.007545,54.202030 
	C116.641273,54.433399 115.274994,54.664768 113.202705,54.992435 
M314.637238,16.870903 
	C314.050537,18.585737 310.009003,18.782143 312.573364,22.298431 
	C314.891327,18.396257 319.870453,16.669916 320.689484,12.151355 
	C320.308533,11.900447 319.927582,11.649539 319.546631,11.398631 
	C318.022461,13.009524 316.498260,14.620419 314.637238,16.870903 
M324.197876,29.995796 
	C321.396698,30.811174 318.595520,31.626553 315.794342,32.441933 
	C315.991089,33.055870 316.187836,33.669804 316.384583,34.283741 
	C320.486938,33.174065 324.589264,32.064388 328.691620,30.954714 
	C328.596588,30.523626 328.501556,30.092539 328.406555,29.661451 
	C327.267853,29.773180 326.129150,29.884907 324.197876,29.995796 
M319.328430,47.063065 
	C322.763733,48.087883 326.199036,49.112705 329.634338,50.137527 
	C329.783386,49.562519 329.932434,48.987507 330.081482,48.412498 
	C326.372131,47.277355 322.677277,46.089054 318.935883,45.071747 
	C318.447113,44.938854 317.719482,45.684418 317.102509,46.023106 
	C317.573303,46.348919 318.044098,46.674736 319.328430,47.063065 
z"/>
<path fill="#F94F46" opacity="1.000000" stroke="none" 
	d="
M96.097382,193.157959 
	C103.816154,194.100082 111.534935,195.042191 120.153610,196.094147 
	C121.828636,192.088242 124.151611,187.120377 126.004959,181.983078 
	C130.420990,169.742340 135.101807,157.668549 144.058243,147.858948 
	C145.463852,146.319458 147.197906,145.079834 149.254074,143.335602 
	C152.899139,141.254364 156.070221,139.539093 159.557663,137.941498 
	C161.607574,139.318878 163.262878,140.707199 165.087524,141.817139 
	C175.860031,148.370041 187.002975,153.910477 200.022736,154.011719 
	C200.017761,153.975967 199.945587,153.977081 199.949387,154.255417 
	C200.312698,154.599030 200.672211,154.664322 201.326416,154.895599 
	C203.130936,156.372498 204.640762,157.683380 206.222458,159.365906 
	C206.883240,159.809631 207.472153,159.881729 208.019547,159.963043 
	C207.978012,159.972260 207.959274,159.889267 207.959274,159.889267 
	C209.460876,162.906952 210.630066,166.152939 212.519714,168.904099 
	C222.480499,183.406036 231.072937,198.674637 237.373062,215.077621 
	C239.545776,220.734482 240.548920,227.089264 240.814331,233.180664 
	C241.463226,248.074051 241.434402,263.006775 235.654602,277.697510 
	C234.690094,278.104279 234.235214,278.138336 233.347534,278.142639 
	C224.696213,276.647034 216.477707,275.181152 208.026123,273.464874 
	C199.100616,269.128204 190.408203,265.041901 181.715775,260.955627 
	C190.431198,254.242386 196.892532,245.669083 201.426727,235.775681 
	C202.258026,233.961823 201.322205,230.345428 199.901581,228.652161 
	C190.165237,217.047226 180.082245,205.733093 169.636993,193.783096 
	C152.895813,224.886154 126.623627,242.292618 95.262283,253.680450 
	C95.412582,250.008789 96.942032,246.583588 96.597282,243.358765 
	C95.901169,236.847168 94.186867,230.444412 92.919495,223.572021 
	C92.965195,214.928879 92.983894,206.710464 93.069862,198.190613 
	C94.123878,196.312103 95.110634,194.735031 96.097382,193.157959 
z"/>
<path fill="#FBB5B0" opacity="1.000000" stroke="none" 
	d="
M206.150604,158.994263 
	C204.640762,157.683380 203.130936,156.372498 201.196747,154.697983 
	C200.571640,154.041977 200.296036,153.922882 199.945587,153.977081 
	C199.945587,153.977081 200.017761,153.975967 199.982574,153.667618 
	C197.296951,149.827682 194.646515,146.296097 191.970108,142.434296 
	C191.583771,141.062134 191.223389,140.020203 191.203049,138.842178 
	C193.994598,137.762192 196.688904,137.195038 198.850815,135.801773 
	C204.684036,132.042435 210.290512,127.931221 215.994873,123.979866 
	C216.002792,124.000099 215.963089,123.982529 216.242310,123.951859 
	C216.680862,123.602730 216.840195,123.284264 217.003326,122.986008 
	C217.007126,123.006218 216.966095,123.003304 217.260590,122.918716 
	C217.676376,122.459396 217.797638,122.084663 218.119186,121.460098 
	C219.560654,119.528542 220.801849,117.846817 222.043030,116.165092 
	C228.530136,106.109772 235.443420,96.298134 241.374954,85.925125 
	C246.492188,76.976166 251.798477,68.377075 260.402771,61.432159 
	C262.109589,60.719532 263.261932,60.337883 265.146820,59.713619 
	C264.421112,62.834766 263.863220,65.234123 262.946838,69.175163 
	C265.740753,66.807022 267.410431,65.391769 269.080139,63.976513 
	C273.625885,62.905083 274.962097,65.526306 274.974670,69.317650 
	C274.990479,74.085396 275.600281,79.055748 270.929932,82.985596 
	C268.252197,82.982422 266.275024,82.966614 264.339203,82.675858 
	C263.849457,82.602303 263.491486,81.651627 263.072968,81.104004 
	C262.844696,81.752167 262.404968,82.407410 262.426331,83.047226 
	C262.502289,85.317551 262.735535,87.582626 262.909180,89.849686 
	C259.408234,99.654587 255.907303,109.459488 252.412155,119.248161 
	C255.780045,120.212296 267.182129,117.862892 270.968872,114.323433 
	C275.385468,110.195229 279.006195,105.223358 283.086639,100.721230 
	C283.921509,99.800064 285.262878,99.337952 287.024658,98.266632 
	C287.024658,103.061279 287.024658,106.863350 287.024658,110.729080 
	C295.011139,108.881500 296.083344,109.720421 295.990692,117.453964 
	C295.980743,118.285446 295.939270,119.116806 295.941742,119.948135 
	C295.969513,129.268021 295.683105,128.643478 287.267273,132.523941 
	C275.134247,138.118393 263.326233,144.471451 251.648468,150.983093 
	C241.778534,156.486649 231.496033,160.636612 220.287613,161.813065 
	C216.564651,162.203827 212.637939,160.653549 208.381836,159.939972 
	C207.959274,159.889267 207.978012,159.972260 207.923706,159.674866 
	C207.296463,159.249741 206.723541,159.121994 206.150604,158.994263 
z"/>
<path fill="#22A0AA" opacity="1.000000" stroke="none" 
	d="
M221.710480,115.973335 
	C220.801849,117.846817 219.560654,119.528542 217.864594,121.605209 
	C217.261841,122.334541 217.113968,122.668922 216.966095,123.003304 
	C216.966095,123.003304 217.007126,123.006218 216.706726,123.003281 
	C216.258575,123.327736 216.110825,123.655128 215.963089,123.982529 
	C215.963089,123.982529 216.002792,124.000099 215.623718,123.878845 
	C206.158142,126.717140 197.071640,129.676697 187.553589,132.672989 
	C183.903351,133.380264 180.553391,133.705338 177.518082,134.858536 
	C175.854431,135.490616 173.913742,137.379181 173.635620,138.970001 
	C173.452072,140.019821 175.911392,142.547272 177.347015,142.679443 
	C182.191589,143.125473 187.107452,142.796890 191.996063,142.764511 
	C194.646515,146.296097 197.296951,149.827682 199.987549,153.703369 
	C187.002975,153.910477 175.860031,148.370041 165.087524,141.817139 
	C163.262878,140.707199 161.607574,139.318878 159.374451,137.651306 
	C155.250305,134.742554 151.625748,132.241638 147.974777,129.465042 
	C147.919357,129.007019 147.890350,128.824677 147.963943,128.334137 
	C160.768951,113.368515 173.471344,98.711098 186.482498,84.033463 
	C187.230148,83.352295 187.669037,82.691345 188.144867,81.691116 
	C190.717209,77.455063 193.312683,73.642067 199.091141,73.922249 
	C202.745392,77.343994 206.136841,80.546059 209.315979,83.946609 
	C210.708405,85.436020 211.667175,87.330849 212.822876,89.041588 
	C215.674561,97.954918 218.526245,106.868248 221.710480,115.973335 
M181.121567,114.392639 
	C181.284775,114.515610 181.447983,114.638588 181.611191,114.761559 
	C181.693939,114.631195 181.825317,114.510117 181.852249,114.369095 
	C182.392181,111.541908 182.920090,108.712425 183.450424,105.883400 
	C183.107971,105.822571 182.765533,105.761749 182.423080,105.700928 
	C181.980362,108.370483 181.537643,111.040047 181.121567,114.392639 
M184.439728,94.707207 
	C184.708603,94.989090 184.977478,95.270966 185.246353,95.552841 
	C185.363037,95.441383 185.587265,95.239136 185.580872,95.231560 
	C185.329926,94.934258 185.057999,94.654671 184.439728,94.707207 
M180.875549,118.514053 
	C180.746719,118.268684 180.617889,118.023315 180.489059,117.777946 
	C180.369400,118.032143 180.129776,118.307213 180.169174,118.533722 
	C180.199158,118.705879 180.583954,118.816277 180.875549,118.514053 
M179.531250,121.650536 
	C179.479813,121.866486 179.428360,122.082443 179.376907,122.298401 
	C179.496353,122.163155 179.615784,122.027908 179.531250,121.650536 
M176.701813,131.133362 
	C176.604050,130.976593 176.506287,130.819824 176.408539,130.663055 
	C176.422684,130.883820 176.436829,131.104568 176.701813,131.133362 
M177.477219,128.384857 
	C177.527786,128.168228 177.578354,127.951607 177.628922,127.734985 
	C177.509628,127.870758 177.390350,128.006546 177.477219,128.384857 
M178.725815,125.191025 
	C178.621246,125.029991 178.516678,124.868965 178.412094,124.707939 
	C178.430817,124.938858 178.449539,125.169769 178.725815,125.191025 
z"/>
<path fill="#6D2A53" opacity="1.000000" stroke="none" 
	d="
M186.173737,84.053680 
	C173.471344,98.711098 160.768951,113.368515 147.700134,128.432831 
	C147.118668,129.116913 146.903610,129.394104 146.688568,129.671295 
	C147.126114,129.694443 147.563660,129.717590 148.001205,129.740723 
	C151.625748,132.241638 155.250305,134.742554 159.058075,137.533630 
	C156.070221,139.539093 152.899139,141.254364 149.365387,143.005554 
	C130.225113,140.787750 124.806938,122.267792 135.094650,109.822624 
	C138.141327,106.137054 138.925461,99.605392 138.744141,94.448311 
	C138.447510,86.011688 144.530869,75.533600 153.856354,72.811722 
	C158.507950,71.454025 163.603165,70.982407 168.467789,71.125801 
	C177.472672,71.391235 185.109818,69.172668 191.149597,61.252010 
	C194.342514,60.114883 197.098480,59.462807 200.000320,59.139297 
	C201.447601,61.063293 202.749023,62.658722 204.391037,64.671700 
	C202.825729,67.196457 200.783920,70.489822 198.742096,73.783188 
	C193.312683,73.642067 190.717209,77.455063 187.993652,81.939453 
	C187.261597,83.035942 186.717667,83.544807 186.173737,84.053680 
z"/>
<path fill="#67B0EF" opacity="1.000000" stroke="none" 
	d="
M246.983063,41.877277 
	C262.494232,35.189739 275.973755,25.646563 287.803345,13.483862 
	C288.120880,19.645288 287.990448,25.477423 287.821167,31.708397 
	C288.984222,36.767555 290.186157,41.427872 291.500671,46.452110 
	C294.661194,51.859428 297.709137,56.902828 300.757050,61.946232 
	C295.914124,60.841988 291.100372,59.580833 286.220703,58.674408 
	C280.513855,57.614330 274.749512,56.863491 268.368164,55.652290 
	C265.128906,55.240669 262.531555,55.155251 259.934235,55.069832 
	C257.184326,55.354946 254.434448,55.640060 251.119141,55.600861 
	C246.187180,51.656559 245.509262,47.053616 246.983063,41.877277 
z"/>
<path fill="#FCF9F2" opacity="1.000000" stroke="none" 
	d="
M238.070374,313.773346 
	C239.798141,314.258789 241.525925,314.744202 243.160995,315.447388 
	C243.215347,316.231903 243.362381,316.798645 243.509430,317.365417 
	C243.509430,317.365417 243.593628,317.410004 243.712402,317.727783 
	C244.465607,318.448364 245.100037,318.851135 245.734467,319.253906 
	C245.734467,319.253906 245.991150,319.007019 245.908997,319.431824 
	C246.429428,320.338165 247.032028,320.819733 247.634644,321.301300 
	C247.634628,321.301300 247.698975,321.310516 247.687653,321.564606 
	C247.812576,322.124542 248.048050,322.277893 248.382767,322.278717 
	C248.382767,322.278717 248.478867,322.514832 248.606110,322.719177 
	C248.831467,323.118988 248.989746,323.213898 249.208191,323.208191 
	C249.208191,323.208191 249.266525,323.550934 249.440735,323.981293 
	C249.778030,325.240479 249.941101,326.069336 249.801804,326.909180 
	C248.656631,327.273041 247.813828,327.625916 246.696198,328.105408 
	C245.548141,328.611298 244.674896,328.990570 243.702530,329.412933 
	C244.153900,329.942078 244.565765,330.424927 244.586578,331.066345 
	C233.242722,331.358978 222.290085,331.510132 211.337036,331.619171 
	C206.585876,331.666473 201.833832,331.627106 196.253693,331.627106 
	C197.373566,328.838531 198.030396,327.202942 198.791672,326.020386 
	C199.594955,326.982849 200.293808,327.492310 201.024017,328.291748 
	C201.459351,328.886475 201.863327,329.191193 202.267288,329.495911 
	C202.360229,329.235077 202.574234,328.772522 202.527466,328.744476 
	C202.043030,328.453674 201.516571,328.232910 200.937775,327.639099 
	C200.156723,326.695221 199.439713,326.104889 198.629791,325.172974 
	C199.142883,322.348938 199.748871,319.866425 200.354858,317.383942 
	C200.354874,317.383942 200.393646,317.314270 200.771088,317.173523 
	C201.230026,316.162476 201.311523,315.292175 201.393036,314.421875 
	C201.393036,314.421875 201.437317,314.335205 201.708542,314.050720 
	C203.396896,309.778320 204.814026,305.790344 206.573059,301.866455 
	C212.212509,307.150146 218.840500,308.720276 225.982178,308.881226 
	C226.623703,309.187988 227.265213,309.494751 227.975876,310.227325 
	C225.676300,313.015869 223.307571,315.378632 220.938828,317.741364 
	C221.187454,317.886047 221.436081,318.030731 221.684708,318.175415 
	C225.525101,316.024261 229.365479,313.873077 233.205872,311.721924 
	C233.391479,311.763153 233.577087,311.804413 233.751602,312.247528 
	C231.117615,314.962463 228.494720,317.275513 225.871826,319.588562 
	C226.145294,319.839386 226.418762,320.090240 226.692215,320.341064 
	C230.484940,318.151825 234.277649,315.962585 238.070374,313.773346 
M227.893417,326.723206 
	C227.808228,326.675385 227.723038,326.627563 227.637863,326.579712 
	C227.756348,326.721527 227.874817,326.863342 228.042007,327.545258 
	C228.281754,327.902039 228.521500,328.258820 228.761261,328.615601 
	C228.941513,328.470184 229.121780,328.324768 229.302032,328.179321 
	C228.869644,327.784180 228.437271,327.389038 227.893417,326.723206 
M207.867371,326.671997 
	C207.536911,327.356689 207.206467,328.041382 206.876007,328.726074 
	C207.267532,328.963348 207.659058,329.200653 208.050583,329.437958 
	C208.700241,328.281464 209.349899,327.125000 210.284058,325.330505 
	C210.117813,324.280945 209.951569,323.231415 209.785324,322.181854 
	C209.156799,323.477417 208.528275,324.773010 207.867371,326.671997 
M236.389542,329.599915 
	C237.427231,329.599915 238.464935,329.599915 239.502625,329.599915 
	C238.632660,328.330078 237.762009,328.054352 236.900558,328.080536 
	C236.558167,328.090912 236.236084,328.770111 236.389542,329.599915 
M203.907242,323.273743 
	C203.961746,323.769470 204.016251,324.265198 204.070755,324.760895 
	C204.514465,324.646851 204.958191,324.532776 205.401917,324.418732 
	C205.101654,323.995300 204.801392,323.571869 203.907242,323.273743 
M212.594894,324.615814 
	C212.685028,324.968140 212.775162,325.320435 212.865280,325.672760 
	C212.912094,325.355072 212.958893,325.037384 212.594894,324.615814 
M224.041321,325.684570 
	C223.896500,325.924438 223.751663,326.164276 223.606812,326.404114 
	C223.854721,326.493164 224.102631,326.582184 224.350540,326.671204 
	C224.391296,326.315125 224.432053,325.959015 224.041321,325.684570 
M205.630661,321.475403 
	C205.841034,321.529541 206.051392,321.583649 206.261749,321.637787 
	C206.126617,321.504974 205.991501,321.372162 205.630661,321.475403 
M232.516159,329.410065 
	C232.516159,329.410065 232.584366,329.523254 232.516159,329.410065 
z"/>
<path fill="#D3E7FA" opacity="1.000000" stroke="none" 
	d="
M77.084930,128.845505 
	C80.115532,125.219666 83.146141,121.593826 86.686340,117.358315 
	C92.639450,123.632736 98.181519,129.473923 103.430023,135.005707 
	C100.103424,139.317734 96.918732,143.432159 93.749825,147.558701 
	C91.916550,149.945984 90.851639,152.083679 93.830894,154.707153 
	C96.642677,157.183182 98.923378,160.266708 101.403656,163.112686 
	C102.410645,164.268143 103.327599,165.502060 104.633919,167.136078 
	C96.789452,169.237335 91.466820,166.647476 87.083199,161.352982 
	C86.114594,160.183105 85.140991,159.017365 84.062653,157.174103 
	C83.298805,155.993256 82.641998,155.488007 81.985191,154.982773 
	C81.985191,154.982773 82.004555,154.989426 81.977272,154.719574 
	C81.634346,154.294464 81.318703,154.139175 81.003067,153.983887 
	C81.003059,153.983902 81.002441,153.997559 80.980591,153.717621 
	C80.639961,153.286499 80.321182,153.135284 80.002403,152.984070 
	C80.002403,152.984070 80.008064,152.997421 80.032761,152.640167 
	C79.317650,151.816315 78.577850,151.349701 77.838043,150.883102 
	C77.553581,150.894455 77.339027,150.777527 77.200699,149.985550 
	C76.460579,148.621307 75.714165,147.803833 74.967751,146.986359 
	C74.967751,146.986359 75.011421,146.987244 74.996689,146.625107 
	C74.671806,142.186996 74.361671,138.111038 74.051537,134.035065 
	C74.051537,134.035065 74.000000,134.000610 74.323273,133.899948 
	C74.770454,133.196701 74.894371,132.594131 75.018295,131.991547 
	C75.018295,131.991547 75.008995,132.008408 75.306305,131.904861 
	C75.740585,131.198013 75.877548,130.594711 76.014511,129.991409 
	C76.014511,129.991409 76.006432,130.006958 76.291748,129.950806 
	C76.746353,129.544952 76.915642,129.195221 77.084930,128.845505 
z"/>
<path fill="#FDFCFA" opacity="1.000000" stroke="none" 
	d="
M51.475052,201.226318 
	C49.975426,202.418350 48.475803,203.610382 46.501381,204.573059 
	C45.701111,201.223373 45.375648,198.103058 45.050186,194.982727 
	C44.662483,195.058105 44.274776,195.133484 43.887074,195.208862 
	C43.442886,199.247070 42.998699,203.285278 42.554512,207.323486 
	C42.198128,207.243378 41.841743,207.163269 41.485359,207.083176 
	C41.056938,203.794968 40.628521,200.506760 40.200104,197.218552 
	C39.850494,197.283234 39.500885,197.347916 39.151279,197.412598 
	C38.665821,201.507950 38.180359,205.603317 37.694901,209.698669 
	C37.243500,209.633743 36.792103,209.568832 36.340702,209.503906 
	C36.064365,206.532562 35.788029,203.561203 35.511692,200.589859 
	C35.286388,200.704132 35.061081,200.818405 34.835777,200.932663 
	C33.747128,204.613739 32.658478,208.294800 31.136965,211.935898 
	C27.294275,211.895935 23.884453,211.895935 18.819492,211.895935 
	C20.985355,207.992447 22.493484,205.267075 24.008959,202.545792 
	C24.920967,200.908142 25.933203,199.319061 26.735935,197.629990 
	C27.435223,196.158585 27.779657,194.515137 28.509735,193.062729 
	C29.227375,191.635071 30.233061,190.352188 31.112341,189.005768 
	C31.186300,188.808304 31.260263,188.610855 31.891045,188.160950 
	C35.640041,184.371262 38.832218,180.834000 42.415131,177.179916 
	C46.758850,177.185013 44.180683,173.788101 45.321098,172.394669 
	C45.321098,172.394669 45.338528,172.325714 45.674129,172.264313 
	C46.405861,171.535767 46.801991,170.868622 47.198120,170.201477 
	C47.198120,170.201477 47.015705,170.014572 47.368240,170.100266 
	C48.626442,170.246353 49.532108,170.306747 50.437775,170.367157 
	C50.437775,170.367157 50.550575,170.531876 50.648102,170.714783 
	C50.835419,171.085236 50.984108,171.174728 51.191696,171.166183 
	C51.266541,171.335159 51.341385,171.504120 51.689911,171.824432 
	C51.963593,171.975815 52.057964,172.086243 52.057964,172.086243 
	C52.157993,172.270508 52.258018,172.454773 52.657902,172.770538 
	C52.957764,172.902054 52.950188,172.918686 52.950188,172.918686 
	C53.007393,173.120865 53.064598,173.323044 53.389729,174.050827 
	C53.751419,175.393219 53.845184,176.210022 53.672714,177.194550 
	C53.038601,178.359756 52.670719,179.357254 52.302837,180.354736 
	C52.696560,180.504364 53.090282,180.654007 53.484009,180.803650 
	C53.994450,179.580444 54.504894,178.357254 55.285236,177.020874 
	C55.914398,177.037262 56.273655,177.166840 56.632912,177.296417 
	C56.632912,177.296417 56.701488,177.317398 56.749344,177.599121 
	C57.090542,178.001053 57.383888,178.121262 57.677235,178.241455 
	C57.677235,178.241455 57.818523,178.167130 57.809166,178.582489 
	C59.525703,180.344284 61.251591,181.690750 62.977482,183.037201 
	C62.977482,183.037201 62.998291,182.998123 63.002777,183.293823 
	C63.481880,183.851212 63.956497,184.112885 64.431114,184.374557 
	C64.431114,184.374557 64.562698,184.525070 64.738693,184.776886 
	C64.914680,185.028717 65.312996,185.272690 65.312996,185.272690 
	C65.312996,185.272690 65.775887,185.210281 65.775887,185.210281 
	C65.775887,185.210281 65.966873,185.016571 65.984413,185.439407 
	C67.347816,186.730530 68.693680,187.598816 69.771446,188.697495 
	C64.183434,190.126007 59.227596,191.867218 55.888260,196.665665 
	C54.695515,198.379578 52.961826,199.717041 51.475052,201.226318 
M44.080055,181.570099 
	C44.381569,181.889557 44.683083,182.209030 44.984596,182.528503 
	C45.164295,182.321045 45.343994,182.113571 45.523697,181.906113 
	C45.018372,181.607742 44.513046,181.309372 43.933643,180.443604 
	C43.629669,180.120377 43.325691,179.797134 43.021713,179.473907 
	C42.841297,179.682587 42.660877,179.891266 42.480457,180.099945 
	C42.990692,180.402527 43.500927,180.705093 44.080055,181.570099 
M40.533737,189.151855 
	C41.144760,188.236160 41.755787,187.320480 42.366810,186.404785 
	C41.939537,186.121170 41.512264,185.837540 41.084991,185.553909 
	C39.739647,187.380066 38.394302,189.206207 37.048958,191.032364 
	C37.705627,191.637207 38.362297,192.242050 39.018967,192.846893 
	C39.408005,191.807526 39.797039,190.768158 40.533737,189.151855 
M33.240383,192.936432 
	C33.029881,193.442825 32.819378,193.949219 32.608871,194.455597 
	C33.483456,194.207031 34.358040,193.958466 35.232632,193.709915 
	C34.739666,193.363342 34.246700,193.016769 33.240383,192.936432 
M50.855145,175.833801 
	C50.345905,176.007187 49.762501,176.088882 49.369884,176.406448 
	C49.242016,176.509872 49.612087,177.228897 49.754414,177.666367 
	C50.153877,177.273804 50.553337,176.881256 50.855145,175.833801 
M47.928799,181.045258 
	C47.779037,180.978256 47.626465,180.855331 47.480427,180.862656 
	C47.371471,180.868118 47.170918,181.055466 47.182175,181.138687 
	C47.294746,181.970871 47.442799,182.798233 47.580845,183.626968 
	C47.873772,183.595215 48.166695,183.563477 48.459618,183.531723 
	C48.378563,182.867752 48.297504,182.203796 47.928799,181.045258 
z"/>
<path fill="#F64F46" opacity="1.000000" stroke="none" 
	d="
M199.854446,58.810722 
	C197.098480,59.462807 194.342514,60.114883 191.247177,60.939026 
	C184.767303,61.111088 178.626801,61.111088 172.487823,61.111088 
	C170.679169,55.763287 175.706482,55.437599 177.719437,53.225674 
	C179.050323,51.763226 181.345062,51.068714 183.318405,50.321114 
	C188.680496,48.289707 192.313263,45.475475 194.580719,39.387436 
	C198.238831,29.565546 210.296616,27.661741 219.342102,34.745575 
	C215.102570,38.375584 217.064621,41.902599 218.638672,44.956944 
	C217.605270,46.501553 216.820099,47.675137 215.724167,49.013969 
	C212.145493,51.547020 209.372620,54.527359 204.598755,54.331459 
	C203.081146,54.269184 201.439392,57.232117 199.854446,58.810722 
z"/>
<path fill="#F1AAA1" opacity="1.000000" stroke="none" 
	d="
M200.000320,59.139294 
	C201.439392,57.232117 203.081146,54.269184 204.598755,54.331459 
	C209.372620,54.527359 212.145493,51.547020 216.113220,49.082756 
	C218.477646,48.034725 220.429367,47.367573 221.729630,46.055054 
	C223.152435,44.618866 223.973221,42.586285 225.056381,40.813629 
	C231.817795,43.860798 231.752899,50.591351 232.854202,56.318508 
	C234.080170,62.694088 231.690323,64.597626 223.057556,65.064346 
	C219.660797,64.694939 217.065369,64.293205 214.469940,63.891472 
	C214.276520,64.371017 214.083099,64.850571 213.889664,65.330124 
	C215.623489,66.898407 217.357315,68.466698 219.091141,70.034988 
	C217.054031,76.104805 215.016922,82.174622 212.901337,88.643013 
	C211.667175,87.330849 210.708405,85.436020 209.315979,83.946609 
	C206.136841,80.546059 202.745392,77.343994 199.091141,73.922249 
	C200.783920,70.489822 202.825729,67.196457 204.391037,64.671700 
	C202.749023,62.658722 201.447601,61.063293 200.000320,59.139294 
z"/>
<path fill="#FECE2E" opacity="1.000000" stroke="none" 
	d="
M300.985138,62.294601 
	C297.709137,56.902828 294.661194,51.859428 291.806274,46.226761 
	C295.460876,43.649635 297.420105,40.904522 296.065338,36.778191 
	C294.786072,32.881725 291.952118,31.096914 287.860046,31.309557 
	C287.990448,25.477423 288.120880,19.645288 288.130646,13.397767 
	C288.009979,12.982378 288.007172,13.033843 288.177063,12.978975 
	C288.521545,12.696047 288.590759,12.439531 288.554596,12.154561 
	C293.227753,9.205252 296.956879,11.226849 299.438293,15.068350 
	C304.460876,22.843897 308.358704,31.226440 308.940735,40.653942 
	C309.288116,46.280502 309.143219,51.950020 308.969208,57.592506 
	C308.809937,62.757065 305.728577,63.919254 300.985138,62.294601 
z"/>
<path fill="#FAFAFC" opacity="1.000000" stroke="none" 
	d="
M126.155960,270.780914 
	C126.433563,270.418701 126.711159,270.056488 127.444977,269.440186 
	C128.625534,268.140930 129.349854,267.095734 130.074188,266.050537 
	C130.074188,266.050537 130.014526,266.001556 130.437134,266.148041 
	C132.228912,266.216248 133.598083,266.137970 134.967255,266.059723 
	C134.967255,266.059723 134.996246,266.007599 134.935028,266.340973 
	C135.239883,266.799347 135.605942,266.924347 135.972015,267.049347 
	C135.972015,267.049347 135.995239,267.003784 135.949799,267.329834 
	C136.261215,267.785431 136.618042,267.915009 136.974869,268.044586 
	C136.974869,268.044586 136.997147,268.004333 136.962341,268.319885 
	C137.281128,268.770264 137.634705,268.905060 137.988281,269.039886 
	C137.988281,269.039886 137.995453,269.006470 138.028748,269.352112 
	C139.035400,270.148956 140.008759,270.600098 140.982101,271.051270 
	C140.982101,271.051270 140.997757,271.009399 141.018066,271.362000 
	C142.031708,272.151794 143.025024,272.588989 144.018356,273.026154 
	C144.018356,273.026154 143.989990,273.010895 144.101456,273.344727 
	C145.811310,274.126282 147.409714,274.574066 149.008118,275.021851 
	C149.008118,275.021820 148.997681,275.005615 148.878952,275.404083 
	C147.105118,281.107544 149.371613,287.332275 144.963379,291.991547 
	C144.963379,291.991547 144.993439,291.988678 144.592621,291.926514 
	C140.126373,291.897064 136.060928,291.929810 131.995483,291.962585 
	C131.995483,291.962585 132.007278,291.988129 131.901550,291.651184 
	C130.881058,291.172791 129.966293,291.031311 129.051514,290.889862 
	C129.051514,290.889862 129.019196,291.000549 129.049881,290.601105 
	C128.052704,289.788818 127.024841,289.375977 125.996979,288.963165 
	C125.996971,288.963165 126.007355,288.989166 125.937981,288.665344 
	C125.251938,288.210052 124.635269,288.078583 124.018593,287.947113 
	C124.018593,287.947113 124.004524,287.990967 124.043724,287.618286 
	C123.066872,286.806305 122.050819,286.366974 121.034760,285.927643 
	C121.034767,285.927643 121.012138,285.983765 121.124496,285.618591 
	C120.499680,284.817474 119.762505,284.381500 119.025337,283.945526 
	C119.025337,283.945526 119.005783,283.991180 119.052094,283.669067 
	C118.742729,283.214172 118.387054,283.081421 118.031380,282.948669 
	C118.031380,282.948669 118.008842,282.995117 118.116249,282.591431 
	C118.161789,281.128448 118.099930,280.069092 118.038063,279.009766 
	C118.038063,279.009766 118.007332,279.006134 118.304901,279.017639 
	C118.748642,278.691315 118.894814,278.353485 119.040970,278.015625 
	C119.040970,278.015625 119.005699,278.005371 119.305420,278.013489 
	C119.749756,277.685150 119.894379,277.348663 120.038994,277.012207 
	C120.038986,277.012207 120.006027,277.005829 120.302567,277.009766 
	C120.745522,276.679626 120.891945,276.345612 121.038361,276.011566 
	C121.038368,276.011566 121.006042,276.005035 121.299500,276.003906 
	C121.739761,275.669922 121.886574,275.337067 122.033386,275.004181 
	C122.033394,275.004181 122.006401,275.005035 122.293427,274.996094 
	C122.730934,274.659851 122.881424,274.332489 123.031906,274.005157 
	C123.031914,274.005157 123.005363,274.004700 123.292191,273.994507 
	C123.729202,273.656952 123.879402,273.329590 124.029602,273.002228 
	C124.029602,273.002228 124.005363,273.004669 124.289925,272.991760 
	C124.725853,272.653320 124.877213,272.327789 125.028580,272.002228 
	C125.028580,272.002228 125.004234,272.010895 125.322510,271.970581 
	C125.812515,271.547150 125.984238,271.164032 126.155960,270.780914 
z"/>
<path fill="#5D2448" opacity="1.000000" stroke="none" 
	d="
M92.892509,223.996765 
	C94.186867,230.444412 95.901169,236.847168 96.597282,243.358765 
	C96.942032,246.583588 95.412582,250.008789 94.876450,253.731171 
	C95.021820,254.119019 94.984718,254.059479 94.729462,253.872345 
	C93.997253,254.095490 93.520302,254.505768 93.043350,254.916031 
	C87.078026,257.190582 82.366035,255.048813 80.105415,249.094269 
	C76.314392,239.108536 78.100159,229.431824 82.133141,219.488037 
	C84.065254,219.718887 85.518852,220.304016 87.163361,221.169739 
	C89.200356,222.299118 91.046432,223.147934 92.892509,223.996765 
z"/>
<path fill="#5D2448" opacity="1.000000" stroke="none" 
	d="
M181.413361,261.113403 
	C190.408203,265.041901 199.100616,269.128204 207.951202,273.929138 
	C208.128418,276.487976 208.147476,278.332153 208.119949,280.549072 
	C207.728424,282.286621 207.383499,283.651398 207.038559,285.016174 
	C197.663177,286.680664 189.863846,283.301483 182.843292,277.445862 
	C177.051224,272.614868 176.467590,267.126648 181.413361,261.113403 
z"/>
<path fill="#6AB1F0" opacity="1.000000" stroke="none" 
	d="
M226.227936,308.614349 
	C218.840500,308.720276 212.212509,307.150146 206.493179,301.568115 
	C205.984009,300.799316 205.896591,300.392883 205.809174,299.986420 
	C205.880692,299.228912 205.952225,298.471375 206.349915,297.064697 
	C208.051834,295.610657 209.376312,294.242004 210.813400,294.111298 
	C214.465866,293.779022 218.168716,294.000824 221.851410,294.000824 
	C221.883835,293.416595 221.916275,292.832336 221.948700,292.248108 
	C216.913376,291.801178 211.878067,291.354248 206.842743,290.907318 
	C206.902863,289.494995 206.962997,288.082642 207.557709,286.276855 
	C216.673935,286.247070 225.255585,286.610718 233.837234,286.974365 
	C233.552002,287.777374 233.266769,288.580353 232.686813,289.904358 
	C232.275009,290.987396 232.157928,291.549438 232.040863,292.111481 
	C230.185135,297.523468 228.329407,302.935486 226.227936,308.614349 
z"/>
<path fill="#6AB1F0" opacity="1.000000" stroke="none" 
	d="
M51.577324,201.592896 
	C52.961826,199.717041 54.695515,198.379578 55.888260,196.665665 
	C59.227596,191.867218 64.183434,190.126007 70.040680,188.615723 
	C70.732422,188.196182 70.886841,188.088837 71.041260,187.981506 
	C72.829628,188.620895 74.617989,189.260300 76.691437,190.398422 
	C74.227524,197.921356 71.478546,204.945572 68.729568,211.969772 
	C63.046242,208.633011 57.362923,205.296234 51.577324,201.592896 
z"/>
<path fill="#6AB1F0" opacity="1.000000" stroke="none" 
	d="
M117.098938,85.102959 
	C113.410873,86.878944 109.825180,88.927124 106.008926,90.362236 
	C101.203934,92.169174 96.292992,94.097572 91.267433,94.763359 
	C88.259377,95.161873 84.944786,93.246574 81.767975,92.371292 
	C81.753227,91.774353 81.738480,91.177422 81.723724,90.580490 
	C86.624840,88.389832 91.394844,85.793831 96.473228,84.151230 
	C99.850517,83.058846 100.534294,81.194092 99.934166,78.387154 
	C98.990326,73.972641 98.014069,69.534203 96.572754,65.267639 
	C95.595627,62.375156 96.279762,61.213333 99.659798,61.104450 
	C100.172737,61.217739 100.426979,61.531372 100.125778,61.730011 
	C99.332558,63.267464 98.229355,64.720581 98.454659,65.925224 
	C99.414070,71.055092 100.766655,76.111435 102.302208,82.567215 
	C106.380630,83.098145 111.408470,83.752663 116.601944,84.581139 
	C116.767586,84.755104 117.098938,85.102959 117.098938,85.102959 
z"/>
<path fill="#612C4E" opacity="1.000000" stroke="none" 
	d="
M199.985321,317.363586 
	C199.748871,319.866425 199.142883,322.348938 198.638885,325.205353 
	C198.740891,325.579285 198.687256,325.567383 198.687256,325.567383 
	C198.030396,327.202942 197.373566,328.838531 196.253693,331.627106 
	C201.833832,331.627106 206.585876,331.666473 211.337036,331.619171 
	C222.290085,331.510132 233.242722,331.358978 244.878601,331.094727 
	C246.055923,330.684509 246.550171,330.404510 247.300903,330.118439 
	C247.701614,330.020386 247.845840,329.928406 248.265030,329.837799 
	C248.892349,329.739258 249.244690,329.639343 249.731308,329.691223 
	C249.865570,329.843018 250.134949,330.145813 250.134949,330.145813 
	C245.645660,331.375366 241.186401,333.516907 236.661545,333.665863 
	C222.298523,334.138794 207.911011,333.867035 193.532974,333.886047 
	C187.543777,333.893951 181.540771,334.134003 175.574829,333.767395 
	C174.030823,333.672577 172.602982,331.687195 171.121780,330.570221 
	C172.561249,329.420288 173.922623,327.416046 175.454391,327.276031 
	C180.643997,326.801605 185.894897,326.898499 191.120438,326.955444 
	C194.010666,326.986938 196.821625,327.628845 197.236084,323.260895 
	C197.428696,321.231354 198.786285,319.312347 199.985321,317.363586 
z"/>
<path fill="#FBB5B0" opacity="1.000000" stroke="none" 
	d="
M86.972450,220.889160 
	C85.518852,220.304016 84.065254,219.718887 82.273438,219.152740 
	C80.466599,218.466721 78.997971,217.761734 77.269150,216.593063 
	C80.020386,208.079498 83.031822,200.029633 86.043259,191.979752 
	C89.108482,192.324799 92.173714,192.669846 95.668167,193.086426 
	C95.110634,194.735031 94.123878,196.312103 92.777298,198.446899 
	C90.602455,206.299469 88.787453,213.594315 86.972450,220.889160 
z"/>
<path fill="#6AB1F0" opacity="1.000000" stroke="none" 
	d="
M145.328400,291.988434 
	C149.371613,287.332275 147.105118,281.107544 148.870422,275.400024 
	C153.642532,270.376801 158.304474,265.756134 162.966019,261.135834 
	C166.151962,264.353027 165.739670,272.254486 161.867096,276.341217 
	C157.008804,281.468201 151.980331,286.434265 146.996750,291.441345 
	C146.689896,291.749664 146.133652,291.809753 145.328400,291.988434 
z"/>
<path fill="#6CB3F0" opacity="1.000000" stroke="none" 
	d="
M85.815887,191.644516 
	C83.031822,200.029633 80.020386,208.079498 76.923378,216.487823 
	C74.639992,215.800827 72.442177,214.755386 70.171921,213.023605 
	C73.371956,205.169067 76.644417,198.000870 79.916885,190.832687 
	C81.807434,190.991547 83.697975,191.150406 85.815887,191.644516 
z"/>
<path fill="#6CB3F0" opacity="1.000000" stroke="none" 
	d="
M275.089996,210.091003 
	C269.676331,218.106415 260.143982,220.893539 253.686203,215.893799 
	C258.720276,211.738785 263.675079,207.649185 268.647522,203.545029 
	C267.758209,200.962860 266.875275,198.399170 266.093750,195.339020 
	C266.195160,194.842545 266.487213,194.602509 266.694824,194.887268 
	C268.576447,200.331726 270.250488,205.491425 271.996796,210.873932 
	C272.638367,210.561432 273.621857,210.082367 274.726532,209.725204 
	C274.847717,209.847092 275.089996,210.091003 275.089996,210.091003 
z"/>
<path fill="#FBB5B0" opacity="1.000000" stroke="none" 
	d="
M233.917450,286.584625 
	C225.255585,286.610718 216.673935,286.247070 207.635635,285.858978 
	C207.178986,285.834534 207.067459,285.432281 207.053009,285.224243 
	C207.383499,283.651398 207.728424,282.286621 208.542145,280.521606 
	C217.379791,280.900116 225.716537,281.270752 233.780319,278.172394 
	C234.235214,278.138336 234.690094,278.104279 235.486588,278.051971 
	C235.218018,280.754120 234.607849,283.474487 233.917450,286.584625 
z"/>
<path fill="#EFEAED" opacity="1.000000" stroke="none" 
	d="
M30.854530,189.103455 
	C30.233061,190.352188 29.227375,191.635071 28.509735,193.062729 
	C27.779657,194.515137 27.435223,196.158585 26.735935,197.629990 
	C25.933203,199.319061 24.920967,200.908142 24.008959,202.545792 
	C22.493484,205.267075 20.985355,207.992447 18.819492,211.895935 
	C23.884453,211.895935 27.294275,211.895935 31.215897,212.022598 
	C31.727695,212.149261 31.955978,212.095352 31.955978,212.095337 
	C27.896044,212.444656 23.841759,212.957596 19.774614,213.098053 
	C15.560819,213.243561 14.974572,210.545090 16.698660,207.625092 
	C19.356359,203.123917 22.474243,198.881470 25.577368,194.661972 
	C27.033447,192.682083 28.910463,191.011765 30.854530,189.103455 
M17.876949,210.462067 
	C17.837963,210.304703 17.798979,210.147354 17.759995,209.989990 
	C17.564381,210.085342 17.368767,210.180695 17.173143,210.276031 
	C17.385897,210.480316 17.598650,210.684586 17.876949,210.462067 
z"/>
<path fill="#FBCF44" opacity="1.000000" stroke="none" 
	d="
M32.276451,212.372498 
	C31.955978,212.095352 31.727695,212.149261 31.648764,212.062561 
	C32.658478,208.294800 33.747128,204.613739 34.835777,200.932663 
	C35.061081,200.818405 35.286388,200.704132 35.511692,200.589859 
	C35.788029,203.561203 36.064365,206.532562 36.340702,209.503906 
	C36.792103,209.568832 37.243500,209.633743 37.694901,209.698669 
	C38.180359,205.603317 38.665821,201.507950 39.151279,197.412598 
	C39.500885,197.347916 39.850494,197.283234 40.200104,197.218552 
	C40.628521,200.506760 41.056938,203.794968 41.485359,207.083176 
	C41.841743,207.163269 42.198128,207.243378 42.554512,207.323486 
	C42.998699,203.285278 43.442886,199.247070 43.887074,195.208862 
	C44.274776,195.133484 44.662483,195.058105 45.050186,194.982727 
	C45.375648,198.103058 45.701111,201.223373 46.118881,204.726990 
	C45.790550,209.770447 40.780552,208.397827 38.506989,210.853455 
	C37.299244,212.157944 34.614792,212.095215 32.276451,212.372498 
z"/>
<path fill="#9B4185" opacity="1.000000" stroke="none" 
	d="
M246.607758,41.940796 
	C245.509262,47.053616 246.187180,51.656559 250.703094,55.563774 
	C246.923264,55.872742 242.504654,57.427536 240.516830,51.986897 
	C238.667877,46.926319 240.011978,44.418705 246.607758,41.940796 
z"/>
<path fill="#9B4185" opacity="1.000000" stroke="none" 
	d="
M259.964508,55.506332 
	C262.531555,55.155251 265.128906,55.240669 267.929504,55.641197 
	C268.430359,58.352825 268.727936,60.749344 269.052856,63.561188 
	C267.410431,65.391769 265.740753,66.807022 262.946838,69.175163 
	C263.863220,65.234123 264.421112,62.834766 265.146820,59.713619 
	C263.261932,60.337883 262.109589,60.719532 260.588348,61.152489 
	C260.144562,59.450142 260.069672,57.696491 259.964508,55.506332 
z"/>
<path fill="#6D2A53" opacity="1.000000" stroke="none" 
	d="
M225.074478,40.467316 
	C223.973221,42.586285 223.152435,44.618866 221.729630,46.055054 
	C220.429367,47.367573 218.477646,48.034725 216.423981,48.917503 
	C216.820099,47.675137 217.605270,46.501553 218.638672,44.956944 
	C217.064621,41.902599 215.102570,38.375584 219.452820,35.073635 
	C221.557114,36.662384 223.324844,38.391697 225.074478,40.467316 
z"/>
<path fill="#9B4185" opacity="1.000000" stroke="none" 
	d="
M263.276062,89.992737 
	C262.735535,87.582626 262.502289,85.317551 262.426331,83.047226 
	C262.404968,82.407410 262.844696,81.752167 263.072968,81.104004 
	C263.491486,81.651627 263.849457,82.602303 264.339203,82.675858 
	C266.275024,82.966614 268.252197,82.982422 270.587891,83.153145 
	C270.952271,90.498772 269.514313,91.860260 263.276062,89.992737 
z"/>
<path fill="#6CB3F0" opacity="1.000000" stroke="none" 
	d="
M206.495819,291.113861 
	C211.878067,291.354248 216.913376,291.801178 221.948700,292.248108 
	C221.916275,292.832336 221.883835,293.416595 221.851410,294.000824 
	C218.168716,294.000824 214.465866,293.779022 210.813400,294.111298 
	C209.376312,294.242004 208.051834,295.610657 206.424377,296.689972 
	C206.164734,295.083069 206.156830,293.201721 206.495819,291.113861 
z"/>
<path fill="#D3E7FA" opacity="1.000000" stroke="none" 
	d="
M79.782036,190.539963 
	C76.644417,198.000870 73.371956,205.169067 70.035141,212.703491 
	C69.650078,212.876450 69.329376,212.683182 68.869125,212.229843 
	C71.478546,204.945572 74.227524,197.921356 77.035294,190.537933 
	C77.945114,190.201553 78.796150,190.224396 79.782036,190.539963 
z"/>
<path fill="#6AB1F0" opacity="1.000000" stroke="none" 
	d="
M118.101494,54.900257 
	C122.568481,61.085506 123.151283,68.181938 122.646721,75.426949 
	C122.498238,77.559059 121.425453,79.626801 120.274086,81.755806 
	C119.771912,81.787575 119.458389,81.493439 119.618118,81.133003 
	C122.891319,71.980576 120.930565,63.615345 117.755829,55.246407 
	C117.870941,55.130917 118.101494,54.900257 118.101494,54.900257 
z"/>
<path fill="#FBCF44" opacity="1.000000" stroke="none" 
	d="
M233.266602,311.417511 
	C229.365479,313.873077 225.525101,316.024261 221.684708,318.175415 
	C221.436081,318.030731 221.187454,317.886047 220.938828,317.741364 
	C223.307571,315.378632 225.676300,313.015869 228.295105,310.387329 
	C230.314209,309.608185 232.495392,307.106995 233.266602,311.417511 
z"/>
<path fill="#6CB3F0" opacity="1.000000" stroke="none" 
	d="
M286.102081,181.907135 
	C290.827576,189.219040 291.725769,197.037109 285.272949,201.868866 
	C284.734741,201.766464 284.392944,201.464035 284.640686,201.204895 
	C290.631653,194.947006 287.896881,188.684738 285.624268,182.301712 
	C285.784668,182.171585 286.102081,181.907135 286.102081,181.907135 
z"/>
<path fill="#FBCF44" opacity="1.000000" stroke="none" 
	d="
M238.264252,313.528687 
	C234.277649,315.962585 230.484940,318.151825 226.692215,320.341064 
	C226.418762,320.090240 226.145294,319.839386 225.871826,319.588562 
	C228.494720,317.275513 231.117615,314.962463 233.983765,312.413208 
	C237.761627,310.595764 237.761627,310.595764 238.264252,313.528687 
z"/>
<path fill="#612C4E" opacity="1.000000" stroke="none" 
	d="
M219.341125,69.843658 
	C217.357315,68.466698 215.623489,66.898407 213.889664,65.330124 
	C214.083099,64.850571 214.276520,64.371017 214.469940,63.891472 
	C217.065369,64.293205 219.660797,64.694939 222.656021,65.168839 
	C221.900925,66.711449 220.746017,68.181892 219.341125,69.843658 
z"/>
<path fill="#FECE2E" opacity="1.000000" stroke="none" 
	d="
M314.805664,16.551109 
	C316.498260,14.620419 318.022461,13.009524 319.546631,11.398631 
	C319.927582,11.649539 320.308533,11.900447 320.689484,12.151355 
	C319.870453,16.669916 314.891327,18.396257 312.573364,22.298431 
	C310.009003,18.782143 314.050537,18.585737 314.805664,16.551109 
z"/>
<path fill="#FECE2E" opacity="1.000000" stroke="none" 
	d="
M324.594177,29.996216 
	C326.129150,29.884907 327.267853,29.773180 328.406555,29.661451 
	C328.501556,30.092539 328.596588,30.523626 328.691620,30.954714 
	C324.589264,32.064388 320.486938,33.174065 316.384583,34.283741 
	C316.187836,33.669804 315.991089,33.055870 315.794342,32.441933 
	C318.595520,31.626553 321.396698,30.811174 324.594177,29.996216 
z"/>
<path fill="#EFEAED" opacity="1.000000" stroke="none" 
	d="
M42.024399,177.296738 
	C38.832218,180.834000 35.640041,184.371262 32.168312,188.008774 
	C34.568085,184.693619 37.247410,181.278214 40.372192,177.585632 
	C41.219902,177.304550 41.622150,177.300644 42.024399,177.296738 
z"/>
<path fill="#FECE2E" opacity="1.000000" stroke="none" 
	d="
M318.921661,47.031807 
	C318.044098,46.674736 317.573303,46.348919 317.102509,46.023102 
	C317.719482,45.684418 318.447113,44.938854 318.935883,45.071747 
	C322.677277,46.089054 326.372131,47.277355 330.081482,48.412498 
	C329.932434,48.987507 329.783386,49.562519 329.634338,50.137527 
	C326.199036,49.112705 322.763733,48.087883 318.921661,47.031807 
z"/>
<path fill="#612C4E" opacity="1.000000" stroke="none" 
	d="
M205.531372,300.200439 
	C205.896591,300.392883 205.984009,300.799316 206.151306,301.504089 
	C204.814026,305.790344 203.396896,309.778320 201.746307,314.020020 
	C202.759750,309.653992 204.006668,305.034210 205.531372,300.200439 
z"/>
<path fill="#6AB1F0" opacity="1.000000" stroke="none" 
	d="
M132.122879,292.344360 
	C136.060928,291.929810 140.126373,291.897064 144.595581,291.911652 
	C140.964478,295.784668 136.596527,294.075256 132.122879,292.344360 
z"/>
<path fill="#6CB3F0" opacity="1.000000" stroke="none" 
	d="
M73.694763,134.195953 
	C74.361671,138.111038 74.671806,142.186996 74.995804,146.646927 
	C70.588425,143.315857 71.424500,138.907394 73.694763,134.195953 
z"/>
<path fill="#6AB1F0" opacity="1.000000" stroke="none" 
	d="
M100.045174,61.061283 
	C102.674469,59.602917 105.431328,58.301010 108.701500,57.134209 
	C109.214813,57.269321 109.495033,57.616364 109.195175,57.789482 
	C106.072548,59.152191 103.249763,60.341785 100.426979,61.531372 
	C100.426979,61.531372 100.172737,61.217739 100.045174,61.061283 
z"/>
<path fill="#6CB3F0" opacity="1.000000" stroke="none" 
	d="
M261.921112,189.077835 
	C260.875519,188.114090 259.829956,187.150330 258.395538,185.828140 
	C260.254059,184.360184 261.740601,183.186066 263.737366,182.113495 
	C264.247589,182.215057 264.574280,182.500504 264.353088,182.736786 
	C262.819366,184.554993 259.818146,185.662659 262.436707,188.567169 
	C262.264862,188.737411 261.921112,189.077835 261.921112,189.077835 
z"/>
<path fill="#6D3F5E" opacity="1.000000" stroke="none" 
	d="
M42.415127,177.179916 
	C41.622150,177.300644 41.219902,177.304550 40.516499,177.286438 
	C41.691986,175.618942 43.168636,173.973480 44.983192,172.361343 
	C44.180683,173.788101 46.758850,177.185013 42.415127,177.179916 
z"/>
<path fill="#6D3F5E" opacity="1.000000" stroke="none" 
	d="
M63.011333,182.687622 
	C61.251591,181.690750 59.525703,180.344284 57.760147,178.645477 
	C59.495380,179.641434 61.270283,180.989746 63.011333,182.687622 
z"/>
<path fill="#612C4E" opacity="1.000000" stroke="none" 
	d="
M250.104187,326.898163 
	C249.941101,326.069336 249.778030,325.240479 249.569305,324.098267 
	C253.115570,326.242798 253.343170,327.352020 250.463196,330.054779 
	C250.134949,330.145813 249.865570,329.843018 249.879333,329.488586 
	C250.175140,328.740295 250.457184,328.346436 250.875702,327.704529 
	C250.697891,327.260681 250.383606,327.064911 250.059830,326.898102 
	C250.050354,326.927063 250.104187,326.898163 250.104187,326.898163 
z"/>
<path fill="#6D3F5E" opacity="1.000000" stroke="none" 
	d="
M53.938950,177.026810 
	C53.845184,176.210022 53.751419,175.393219 53.622772,174.263016 
	C54.640965,174.820297 55.694042,175.691010 56.690018,176.929062 
	C56.273655,177.166840 55.914398,177.037262 55.019096,176.964218 
	C54.301685,177.022766 54.120319,177.024780 53.938950,177.026810 
z"/>
<path fill="#6D3F5E" opacity="1.000000" stroke="none" 
	d="
M70.853912,187.694229 
	C70.886841,188.088837 70.732422,188.196182 70.308777,188.385315 
	C68.693680,187.598816 67.347816,186.730530 65.897995,185.544373 
	C67.418213,185.953308 69.042397,186.680130 70.853912,187.694229 
z"/>
<path fill="#6CB3F0" opacity="1.000000" stroke="none" 
	d="
M270.931183,175.929504 
	C272.039307,174.952438 273.147400,173.975357 274.742096,173.112366 
	C275.228699,173.226456 275.543243,173.540512 275.333191,173.780579 
	C273.947845,174.914780 272.772583,175.808945 271.431854,176.508759 
	C271.154663,176.186111 271.042908,176.057816 270.931183,175.929504 
z"/>
<path fill="#6AB1F0" opacity="1.000000" stroke="none" 
	d="
M134.901093,265.712524 
	C133.598083,266.137970 132.228912,266.216248 130.453125,266.182800 
	C131.274246,263.336182 132.904846,263.334808 134.901093,265.712524 
z"/>
<path fill="#6AB1F0" opacity="1.000000" stroke="none" 
	d="
M119.928528,81.934792 
	C119.319786,83.060364 118.554428,84.038719 117.444008,85.060013 
	C117.098938,85.102959 116.767586,84.755104 116.826279,84.382721 
	C117.742775,83.171379 118.600586,82.332413 119.458389,81.493439 
	C119.458389,81.493439 119.771912,81.787575 119.928528,81.934792 
z"/>
<path fill="#6AB1F0" opacity="1.000000" stroke="none" 
	d="
M117.668869,279.010773 
	C118.099930,280.069092 118.161789,281.128448 118.140015,282.581116 
	C116.243111,281.951660 114.413635,280.931946 117.668869,279.010773 
z"/>
<path fill="#6AB1F0" opacity="1.000000" stroke="none" 
	d="
M148.909332,274.666351 
	C147.409714,274.574066 145.811310,274.126282 144.091507,273.332031 
	C145.583572,273.427307 147.197052,273.869080 148.909332,274.666351 
z"/>
<path fill="#6AB1F0" opacity="1.000000" stroke="none" 
	d="
M109.074387,57.096054 
	C110.356880,56.279339 111.779793,55.635887 113.686340,55.101135 
	C114.169983,55.209839 114.430374,55.524254 114.141891,55.704460 
	C112.400612,56.461903 110.947823,57.039131 109.495033,57.616364 
	C109.495033,57.616364 109.214813,57.269321 109.074387,57.096054 
z"/>
<path fill="#6CB3F0" opacity="1.000000" stroke="none" 
	d="
M275.071838,173.068985 
	C276.281250,170.602219 277.883942,170.215424 279.728699,172.822449 
	C279.535645,173.461777 279.405945,173.590271 279.078552,173.529099 
	C277.768341,173.406448 276.655792,173.473480 275.543243,173.540512 
	C275.543243,173.540512 275.228699,173.226456 275.071838,173.068985 
z"/>
<path fill="#6AB1F0" opacity="1.000000" stroke="none" 
	d="
M114.039352,55.052986 
	C115.274994,54.664768 116.641273,54.433399 118.054520,54.551144 
	C118.101494,54.900257 117.870941,55.130917 117.439072,55.150711 
	C116.148262,55.288425 115.289314,55.406338 114.430374,55.524254 
	C114.430374,55.524254 114.169983,55.209839 114.039352,55.052986 
z"/>
<path fill="#6D3F5E" opacity="1.000000" stroke="none" 
	d="
M50.537064,170.030167 
	C49.532108,170.306747 48.626442,170.246353 47.466240,170.186569 
	C47.850372,166.536209 49.215797,167.923584 50.537064,170.030167 
z"/>
<path fill="#6AB1F0" opacity="1.000000" stroke="none" 
	d="
M129.740173,266.089111 
	C129.349854,267.095734 128.625534,268.140930 127.542831,269.228577 
	C127.925041,268.223267 128.665619,267.175446 129.740173,266.089111 
z"/>
<path fill="#6CB3F0" opacity="1.000000" stroke="none" 
	d="
M283.071808,176.929810 
	C283.688812,177.728439 284.305847,178.527054 284.817871,179.804916 
	C284.712891,180.284164 284.359100,180.632889 284.165588,180.390549 
	C283.439789,179.275177 282.907471,178.402145 282.550354,177.380463 
	C282.725525,177.231842 283.071808,176.929810 283.071808,176.929810 
z"/>
<path fill="#6AB1F0" opacity="1.000000" stroke="none" 
	d="
M121.093369,286.265381 
	C122.050819,286.366974 123.066872,286.806305 124.064575,287.608765 
	C123.081474,287.515656 122.116722,287.059387 121.093369,286.265381 
z"/>
<path fill="#6CB3F0" opacity="1.000000" stroke="none" 
	d="
M279.860046,173.140793 
	C280.704437,173.721237 281.354034,174.494186 281.916595,175.730591 
	C281.829559,176.194046 281.576324,176.479904 281.336823,176.293091 
	C280.490295,175.310455 279.883270,174.514618 279.276245,173.718781 
	C279.405945,173.590271 279.535645,173.461777 279.860046,173.140793 
z"/>
<path fill="#6AB1F0" opacity="1.000000" stroke="none" 
	d="
M126.076637,289.297729 
	C127.024841,289.375977 128.052704,289.788818 129.083923,290.554352 
	C128.110275,290.482117 127.133286,290.057190 126.076637,289.297729 
z"/>
<path fill="#6CB3F0" opacity="1.000000" stroke="none" 
	d="
M278.067932,208.068863 
	C277.288330,208.710098 276.508759,209.351334 275.409607,210.041779 
	C275.089996,210.091003 274.847717,209.847092 274.898315,209.471069 
	C275.763519,208.493042 276.578094,207.891037 277.560455,207.484909 
	C277.841461,207.810150 277.954681,207.939514 278.067932,208.068863 
z"/>
<path fill="#6CB3F0" opacity="1.000000" stroke="none" 
	d="
M263.933563,192.064835 
	C263.285919,191.285980 262.638245,190.507126 261.955872,189.403046 
	C261.921112,189.077835 262.264862,188.737411 262.649017,188.787842 
	C263.564484,189.690811 264.095825,190.543335 264.453674,191.563049 
	C264.280212,191.730225 263.933563,192.064835 263.933563,192.064835 
z"/>
<path fill="#6CB3F0" opacity="1.000000" stroke="none" 
	d="
M283.056061,204.057480 
	C282.273834,204.693237 281.491638,205.328995 280.247864,205.889252 
	C279.786346,205.813751 279.482330,205.546921 279.681335,205.306259 
	C280.720184,204.475082 281.559998,203.884567 282.562958,203.485657 
	C282.836121,203.804016 282.946106,203.930756 283.056061,204.057480 
z"/>
<path fill="#6CB3F0" opacity="1.000000" stroke="none" 
	d="
M266.049805,194.963379 
	C265.266083,194.295319 264.627716,193.506439 263.961456,192.391205 
	C263.933563,192.064835 264.280212,191.730225 264.660309,191.799805 
	C265.522675,192.780441 266.004944,193.691467 266.487213,194.602509 
	C266.487213,194.602509 266.195160,194.842545 266.049805,194.963379 
z"/>
<path fill="#6AB1F0" opacity="1.000000" stroke="none" 
	d="
M140.914444,270.721008 
	C140.008759,270.600098 139.035400,270.148956 138.012268,269.356323 
	C138.923920,269.473450 139.885345,269.932098 140.914444,270.721008 
z"/>
<path fill="#6D3F5E" opacity="1.000000" stroke="none" 
	d="
M46.842541,170.200378 
	C46.801991,170.868622 46.405861,171.535767 45.709091,172.257843 
	C45.767952,171.608261 46.127457,170.903763 46.842541,170.200378 
z"/>
<path fill="#6AB1F0" opacity="1.000000" stroke="none" 
	d="
M143.930923,272.699829 
	C143.025024,272.588989 142.031708,272.151794 140.997833,271.370911 
	C141.919357,271.476013 142.881424,271.924774 143.930923,272.699829 
z"/>
<path fill="#612C4E" opacity="1.000000" stroke="none" 
	d="
M245.773590,318.882782 
	C245.100037,318.851135 244.465607,318.448364 243.732269,317.771088 
	C244.359848,317.834930 245.086288,318.173279 245.773590,318.882782 
z"/>
<path fill="#612C4E" opacity="1.000000" stroke="none" 
	d="
M247.715805,320.948547 
	C247.032028,320.819733 246.429428,320.338165 245.785095,319.559662 
	C246.427887,319.707062 247.112427,320.151398 247.715805,320.948547 
z"/>
<path fill="#6CB3F0" opacity="1.000000" stroke="none" 
	d="
M266.199005,179.441223 
	C266.885193,178.960983 267.571381,178.480759 268.723114,178.083069 
	C269.188660,178.165634 269.466797,178.412064 269.287720,178.650772 
	C268.468597,179.335800 267.828522,179.782120 266.954346,180.014954 
	C266.546539,179.681381 266.372772,179.561295 266.199005,179.441223 
z"/>
<path fill="#6CB3F0" opacity="1.000000" stroke="none" 
	d="
M74.977448,147.336151 
	C75.714165,147.803833 76.460579,148.621307 77.166908,149.797287 
	C76.413589,149.332504 75.700363,148.509216 74.977448,147.336151 
z"/>
<path fill="#6CB3F0" opacity="1.000000" stroke="none" 
	d="
M77.942307,151.189941 
	C78.577850,151.349701 79.317650,151.816315 80.039459,152.643311 
	C79.363167,152.501419 78.704865,151.999100 77.942307,151.189941 
z"/>
<path fill="#6AB1F0" opacity="1.000000" stroke="none" 
	d="
M119.068016,284.255157 
	C119.762505,284.381500 120.499680,284.817474 121.152824,285.608002 
	C120.416092,285.496613 119.763397,285.030701 119.068016,284.255157 
z"/>
<path fill="#6CB3F0" opacity="1.000000" stroke="none" 
	d="
M82.002815,155.345123 
	C82.641998,155.488007 83.298805,155.993256 84.022522,156.824097 
	C83.399773,156.668945 82.710106,156.188217 82.002815,155.345123 
z"/>
<path fill="#6AB1F0" opacity="1.000000" stroke="none" 
	d="
M129.179718,291.217529 
	C129.966293,291.031311 130.881058,291.172791 131.914291,291.657166 
	C131.124466,291.848450 130.216202,291.696838 129.179718,291.217529 
z"/>
<path fill="#612C4E" opacity="1.000000" stroke="none" 
	d="
M201.019714,314.438141 
	C201.311523,315.292175 201.230026,316.162476 200.808914,317.160950 
	C200.528336,316.344208 200.587357,315.399292 201.019714,314.438141 
z"/>
<path fill="#6AB1F0" opacity="1.000000" stroke="none" 
	d="
M124.090057,288.268097 
	C124.635269,288.078583 125.251938,288.210052 125.951263,288.669800 
	C125.409798,288.861725 124.785660,288.725403 124.090057,288.268097 
z"/>
<path fill="#6CB3F0" opacity="1.000000" stroke="none" 
	d="
M232.333115,291.981384 
	C232.157928,291.549438 232.275009,290.987396 232.608231,290.229370 
	C232.758041,290.639343 232.691711,291.245331 232.333115,291.981384 
z"/>
<path fill="#612C4E" opacity="1.000000" stroke="none" 
	d="
M243.619095,316.984039 
	C243.362381,316.798645 243.215347,316.231903 243.344589,315.740753 
	C243.656860,316.078491 243.692825,316.340576 243.619095,316.984039 
z"/>
<path fill="#F94F46" opacity="1.000000" stroke="none" 
	d="
M93.361206,254.954575 
	C93.520302,254.505768 93.997253,254.095490 94.764000,253.867035 
	C94.595551,254.363602 94.137306,254.678360 93.361206,254.954575 
z"/>
<path fill="#6CB3F0" opacity="1.000000" stroke="none" 
	d="
M74.703552,132.077759 
	C74.894371,132.594131 74.770454,133.196701 74.350067,133.915222 
	C74.165329,133.408768 74.277069,132.786377 74.703552,132.077759 
z"/>
<path fill="#6CB3F0" opacity="1.000000" stroke="none" 
	d="
M75.696510,130.069305 
	C75.877548,130.594711 75.740585,131.198013 75.298264,131.910156 
	C75.121445,131.395065 75.249977,130.771133 75.696510,130.069305 
z"/>
<path fill="#6D3F5E" opacity="1.000000" stroke="none" 
	d="
M64.499413,184.059296 
	C63.956497,184.112885 63.481880,183.851212 62.985237,183.307617 
	C63.498047,183.265152 64.032875,183.504608 64.499413,184.059296 
z"/>
<path fill="#6CB3F0" opacity="1.000000" stroke="none" 
	d="
M284.890198,180.110260 
	C285.379211,180.391190 285.690918,180.846039 286.052368,181.604004 
	C286.102081,181.907135 285.784668,182.171585 285.474915,182.082672 
	C284.896484,181.540131 284.627777,181.086502 284.359100,180.632889 
	C284.359100,180.632889 284.712891,180.284164 284.890198,180.110260 
z"/>
<path fill="#6CB3F0" opacity="1.000000" stroke="none" 
	d="
M264.914734,180.914291 
	C265.212585,180.529083 265.510437,180.143875 266.003662,179.599945 
	C266.372772,179.561295 266.546539,179.681381 266.800110,180.240753 
	C266.428253,180.987289 265.976532,181.294525 265.373596,181.428741 
	C265.222351,181.255737 264.914734,180.914291 264.914734,180.914291 
z"/>
<path fill="#6D3F5E" opacity="1.000000" stroke="none" 
	d="
M52.247429,171.976410 
	C52.057964,172.086243 51.963593,171.975815 51.934315,171.955200 
	C51.905037,171.934570 52.128517,171.559204 52.128517,171.559204 
	C52.128517,171.559204 52.436893,171.866592 52.247429,171.976410 
z"/>
<path fill="#6AB1F0" opacity="1.000000" stroke="none" 
	d="
M123.751602,273.039917 
	C123.879402,273.329590 123.729202,273.656952 123.292435,274.007812 
	C123.161774,273.713409 123.317696,273.395508 123.751602,273.039917 
z"/>
<path fill="#612C4E" opacity="1.000000" stroke="none" 
	d="
M248.494888,322.021942 
	C248.048050,322.277893 247.812576,322.124542 247.688751,321.597107 
	C248.003098,321.505402 248.305054,321.635284 248.494888,322.021942 
z"/>
<path fill="#6D3F5E" opacity="1.000000" stroke="none" 
	d="
M65.739601,184.939316 
	C65.775887,185.210281 65.312996,185.272690 65.312996,185.272690 
	C65.312996,185.272690 64.914680,185.028717 64.833008,184.809982 
	C65.068665,184.616959 65.385994,184.642654 65.739601,184.939316 
z"/>
<path fill="#6D3F5E" opacity="1.000000" stroke="none" 
	d="
M51.355713,170.967834 
	C50.984108,171.174728 50.835419,171.085236 50.736431,170.761261 
	C50.991402,170.673050 51.255569,170.721252 51.355713,170.967834 
z"/>
<path fill="#612C4E" opacity="1.000000" stroke="none" 
	d="
M249.359070,322.998871 
	C248.989746,323.213898 248.831467,323.118988 248.718491,322.779327 
	C248.972412,322.686584 249.241180,322.738068 249.359070,322.998871 
z"/>
<path fill="#6CB3F0" opacity="1.000000" stroke="none" 
	d="
M281.958160,176.052917 
	C282.367126,176.088104 282.647461,176.264420 282.999817,176.685272 
	C283.071808,176.929810 282.725525,177.231842 282.419495,177.203491 
	C281.931549,176.945618 281.752502,176.713882 281.576324,176.479904 
	C281.576324,176.479904 281.829559,176.194046 281.958160,176.052917 
z"/>
<path fill="#6CB3F0" opacity="1.000000" stroke="none" 
	d="
M264.085876,182.070496 
	C264.094604,181.644196 264.265076,181.362488 264.675171,180.997528 
	C264.914734,180.914291 265.222351,181.255737 265.208618,181.571564 
	C264.982513,182.086212 264.775665,182.290588 264.574280,182.500504 
	C264.574280,182.500504 264.247589,182.215057 264.085876,182.070496 
z"/>
<path fill="#6D3F5E" opacity="1.000000" stroke="none" 
	d="
M53.165211,172.882324 
	C52.950188,172.918686 52.957764,172.902054 52.936096,172.917206 
	C52.914425,172.932343 53.084160,172.528427 53.084160,172.528427 
	C53.084160,172.528427 53.380234,172.845947 53.165211,172.882324 
z"/>
<path fill="#6CB3F0" opacity="1.000000" stroke="none" 
	d="
M269.921234,176.925110 
	C270.094940,176.642456 270.268677,176.359818 270.686798,176.003342 
	C271.042908,176.057816 271.154663,176.186111 271.245911,176.636688 
	C270.987152,177.142303 270.761047,177.339539 270.391113,177.393799 
	C270.235138,177.236923 269.921234,176.925110 269.921234,176.925110 
z"/>
<path fill="#6CB3F0" opacity="1.000000" stroke="none" 
	d="
M81.038895,154.258087 
	C81.318703,154.139175 81.634346,154.294464 81.980576,154.729248 
	C81.699028,154.849945 81.386879,154.691116 81.038895,154.258087 
z"/>
<path fill="#6CB3F0" opacity="1.000000" stroke="none" 
	d="
M269.051331,178.040497 
	C269.088470,177.635712 269.262939,177.356049 269.679321,177.000763 
	C269.921234,176.925110 270.235138,177.236923 270.211304,177.538483 
	C269.951050,178.035477 269.710815,178.226151 269.466797,178.412064 
	C269.466797,178.412064 269.188660,178.165634 269.051331,178.040497 
z"/>
<path fill="#6D3F5E" opacity="1.000000" stroke="none" 
	d="
M57.706314,177.953430 
	C57.383888,178.121262 57.090542,178.001053 56.771000,177.627701 
	C57.075001,177.471497 57.405197,177.568436 57.706314,177.953430 
z"/>
<path fill="#6AB1F0" opacity="1.000000" stroke="none" 
	d="
M136.951385,267.759399 
	C136.618042,267.915009 136.261215,267.785431 135.927795,267.343018 
	C136.276779,267.178162 136.602356,267.326172 136.951385,267.759399 
z"/>
<path fill="#6AB1F0" opacity="1.000000" stroke="none" 
	d="
M122.753586,274.041687 
	C122.881424,274.332489 122.730934,274.659851 122.293076,275.009583 
	C122.162231,274.714081 122.318748,274.396179 122.753586,274.041687 
z"/>
<path fill="#6AB1F0" opacity="1.000000" stroke="none" 
	d="
M124.750671,272.039307 
	C124.877213,272.327789 124.725853,272.653320 124.288750,273.003906 
	C124.159599,272.711395 124.316185,272.393890 124.750671,272.039307 
z"/>
<path fill="#6AB1F0" opacity="1.000000" stroke="none" 
	d="
M121.754822,275.042236 
	C121.886574,275.337067 121.739761,275.669922 121.302887,276.020020 
	C121.167297,275.718231 121.321777,275.399231 121.754822,275.042236 
z"/>
<path fill="#6AB1F0" opacity="1.000000" stroke="none" 
	d="
M120.758957,276.046539 
	C120.891945,276.345612 120.745522,276.679626 120.305786,277.026245 
	C120.168175,276.719696 120.323860,276.400604 120.758957,276.046539 
z"/>
<path fill="#6AB1F0" opacity="1.000000" stroke="none" 
	d="
M119.759506,277.047272 
	C119.894379,277.348663 119.749756,277.685150 119.310577,278.031128 
	C119.170685,277.721222 119.325356,277.401764 119.759506,277.047272 
z"/>
<path fill="#6AB1F0" opacity="1.000000" stroke="none" 
	d="
M118.761490,278.048859 
	C118.894814,278.353485 118.748642,278.691315 118.305099,279.033081 
	C118.165817,278.718689 118.323906,278.400391 118.761490,278.048859 
z"/>
<path fill="#6AB1F0" opacity="1.000000" stroke="none" 
	d="
M125.864822,270.893250 
	C125.984238,271.164032 125.812515,271.547150 125.317802,271.982697 
	C125.187767,271.691956 125.380722,271.348785 125.864822,270.893250 
z"/>
<path fill="#6AB1F0" opacity="1.000000" stroke="none" 
	d="
M137.954941,268.758789 
	C137.634705,268.905060 137.281128,268.770264 136.941986,268.330292 
	C137.278152,268.175964 137.599869,268.326813 137.954941,268.758789 
z"/>
<path fill="#6AB1F0" opacity="1.000000" stroke="none" 
	d="
M118.057854,283.231567 
	C118.387054,283.081421 118.742729,283.214172 119.074982,283.659576 
	C118.729134,283.819611 118.406731,283.667023 118.057854,283.231567 
z"/>
<path fill="#67B0EF" opacity="1.000000" stroke="none" 
	d="
M288.388062,12.246275 
	C288.590759,12.439531 288.521545,12.696047 288.151123,12.979343 
	C287.945374,12.764642 288.034119,12.532446 288.388062,12.246275 
z"/>
<path fill="#6AB1F0" opacity="1.000000" stroke="none" 
	d="
M135.941406,266.767914 
	C135.605942,266.924347 135.239883,266.799347 134.909409,266.355927 
	C135.266937,266.187164 135.588882,266.336823 135.941406,266.767914 
z"/>
<path fill="#6CB3F0" opacity="1.000000" stroke="none" 
	d="
M80.039124,153.258438 
	C80.321182,153.135284 80.639961,153.286499 80.987381,153.717316 
	C80.702629,153.842224 80.389236,153.687515 80.039124,153.258438 
z"/>
<path fill="#6CB3F0" opacity="1.000000" stroke="none" 
	d="
M279.076874,207.073456 
	C278.902191,207.354080 278.727478,207.634720 278.310364,207.992096 
	C277.954681,207.939514 277.841461,207.810150 277.744751,207.353455 
	C278.000031,206.842468 278.230865,206.649323 278.609009,206.603882 
	C278.764313,206.761078 279.076874,207.073456 279.076874,207.073456 
z"/>
<path fill="#6CB3F0" opacity="1.000000" stroke="none" 
	d="
M279.936493,205.949249 
	C279.912903,206.366730 279.739166,206.648697 279.321167,207.002060 
	C279.076874,207.073456 278.764313,206.761078 278.787109,206.460938 
	C279.040955,205.963730 279.265106,205.759109 279.482330,205.546921 
	C279.482330,205.546921 279.786346,205.813751 279.936493,205.949249 
z"/>
<path fill="#6CB3F0" opacity="1.000000" stroke="none" 
	d="
M284.071686,203.067963 
	C283.898010,203.352066 283.724335,203.636185 283.303345,203.988892 
	C282.946106,203.930756 282.836121,203.804016 282.742920,203.351242 
	C282.989258,202.833344 283.211426,202.633255 283.587128,202.586151 
	C283.748077,202.747330 284.071686,203.067963 284.071686,203.067963 
z"/>
<path fill="#6CB3F0" opacity="1.000000" stroke="none" 
	d="
M284.904175,201.919312 
	C284.902130,202.354645 284.730652,202.637131 284.315430,202.993774 
	C284.071686,203.067963 283.748077,202.747330 283.758301,202.435944 
	C283.988647,201.915741 284.196808,201.695557 284.392944,201.464035 
	C284.392944,201.464035 284.734741,201.766464 284.904175,201.919312 
z"/>
<path fill="#6CB3F0" opacity="1.000000" stroke="none" 
	d="
M76.805374,128.939240 
	C76.915642,129.195221 76.746353,129.544952 76.283974,129.954895 
	C76.169205,129.687744 76.347511,129.360367 76.805374,128.939240 
z"/>
<path fill="#9B4185" opacity="1.000000" stroke="none" 
	d="
M233.347534,278.142639 
	C225.716537,281.270752 217.379791,280.900116 208.588730,280.148865 
	C208.147476,278.332153 208.128418,276.487976 208.184265,274.179565 
	C216.477707,275.181152 224.696213,276.647034 233.347534,278.142639 
z"/>
<path fill="#9B4185" opacity="1.000000" stroke="none" 
	d="
M87.163361,221.169739 
	C88.787453,213.594315 90.602455,206.299469 92.710030,198.748352 
	C92.983894,206.710464 92.965195,214.928879 92.919495,223.572021 
	C91.046432,223.147934 89.200356,222.299118 87.163361,221.169739 
z"/>
<path fill="#000000" opacity="1.000000" stroke="none" 
	d="
M206.222458,159.365906 
	C206.723541,159.121994 207.296463,159.249741 207.965240,159.665649 
	C207.472153,159.881729 206.883240,159.809631 206.222458,159.365906 
z"/>
<path fill="#239EA9" opacity="1.000000" stroke="none" 
	d="
M199.949387,154.255417 
	C200.296036,153.922882 200.571640,154.041977 200.902069,154.531982 
	C200.672211,154.664322 200.312698,154.599030 199.949387,154.255417 
z"/>
<path fill="#5D2448" opacity="1.000000" stroke="none" 
	d="
M191.970108,142.434296 
	C187.107452,142.796890 182.191589,143.125473 177.347015,142.679443 
	C175.911392,142.547272 173.452072,140.019821 173.635620,138.970001 
	C173.913742,137.379181 175.854431,135.490616 177.518082,134.858536 
	C180.553391,133.705338 183.903351,133.380264 187.667801,133.027786 
	C189.096695,135.223312 189.979843,137.100800 190.863007,138.978271 
	C191.223389,140.020203 191.583771,141.062134 191.970108,142.434296 
z"/>
<path fill="#9B4185" opacity="1.000000" stroke="none" 
	d="
M191.203033,138.842178 
	C189.979843,137.100800 189.096695,135.223312 188.099350,132.991043 
	C197.071640,129.676697 206.158142,126.717140 215.615799,123.858612 
	C210.290512,127.931221 204.684036,132.042435 198.850815,135.801773 
	C196.688904,137.195038 193.994598,137.762192 191.203033,138.842178 
z"/>
<path fill="#9B4185" opacity="1.000000" stroke="none" 
	d="
M217.260590,122.918716 
	C217.113968,122.668922 217.261841,122.334541 217.664307,121.855042 
	C217.797638,122.084663 217.676376,122.459396 217.260590,122.918716 
z"/>
<path fill="#9B4185" opacity="1.000000" stroke="none" 
	d="
M216.242310,123.951859 
	C216.110825,123.655128 216.258575,123.327736 216.702911,122.983063 
	C216.840195,123.284264 216.680862,123.602730 216.242310,123.951859 
z"/>
<path fill="#67B0EF" opacity="1.000000" stroke="none" 
	d="
M181.108246,114.051117 
	C181.537643,111.040047 181.980362,108.370483 182.423080,105.700928 
	C182.765533,105.761749 183.107971,105.822571 183.450424,105.883400 
	C182.920090,108.712425 182.392181,111.541908 181.852249,114.369095 
	C181.825317,114.510117 181.693939,114.631195 181.611191,114.761559 
	C181.447983,114.638588 181.284775,114.515610 181.108246,114.051117 
z"/>
<path fill="#239EA9" opacity="1.000000" stroke="none" 
	d="
M184.614258,94.539993 
	C185.057999,94.654671 185.329926,94.934258 185.580872,95.231560 
	C185.587265,95.239136 185.363037,95.441383 185.246353,95.552841 
	C184.977478,95.270966 184.708603,94.989090 184.614258,94.539993 
z"/>
<path fill="#239EA9" opacity="1.000000" stroke="none" 
	d="
M186.482498,84.033463 
	C186.717667,83.544807 187.261597,83.035942 187.956726,82.278732 
	C187.669037,82.691345 187.230148,83.352295 186.482498,84.033463 
z"/>
<path fill="#67B0EF" opacity="1.000000" stroke="none" 
	d="
M180.843216,118.734100 
	C180.583954,118.816277 180.199158,118.705879 180.169174,118.533722 
	C180.129776,118.307213 180.369400,118.032143 180.489059,117.777946 
	C180.617889,118.023315 180.746719,118.268684 180.843216,118.734100 
z"/>
<path fill="#67B0EF" opacity="1.000000" stroke="none" 
	d="
M179.633240,121.771599 
	C179.615784,122.027908 179.496353,122.163155 179.376907,122.298401 
	C179.428360,122.082443 179.479813,121.866486 179.633240,121.771599 
z"/>
<path fill="#67B0EF" opacity="1.000000" stroke="none" 
	d="
M176.576401,131.229340 
	C176.436829,131.104568 176.422684,130.883820 176.408539,130.663055 
	C176.506287,130.819824 176.604050,130.976593 176.576401,131.229340 
z"/>
<path fill="#239EA9" opacity="1.000000" stroke="none" 
	d="
M147.974777,129.465042 
	C147.563660,129.717590 147.126114,129.694443 146.688568,129.671295 
	C146.903610,129.394104 147.118668,129.116913 147.597519,128.741028 
	C147.890350,128.824677 147.919357,129.007019 147.974777,129.465042 
z"/>
<path fill="#67B0EF" opacity="1.000000" stroke="none" 
	d="
M177.374146,128.263580 
	C177.390350,128.006546 177.509628,127.870758 177.628922,127.734985 
	C177.578354,127.951607 177.527786,128.168228 177.374146,128.263580 
z"/>
<path fill="#67B0EF" opacity="1.000000" stroke="none" 
	d="
M178.597046,125.295853 
	C178.449539,125.169769 178.430817,124.938858 178.412094,124.707939 
	C178.516678,124.868965 178.621246,125.029991 178.597046,125.295853 
z"/>
<path fill="#F64F46" opacity="1.000000" stroke="none" 
	d="
M287.821167,31.708397 
	C291.952118,31.096914 294.786072,32.881725 296.065338,36.778191 
	C297.420105,40.904522 295.460876,43.649635 291.693665,45.862843 
	C290.186157,41.427872 288.984222,36.767555 287.821167,31.708397 
z"/>
<path fill="#F4F0F2" opacity="1.000000" stroke="none" 
	d="
M207.899750,326.068573 
	C208.528275,324.773010 209.156799,323.477417 209.785339,322.181854 
	C209.951569,323.231415 210.117813,324.280945 209.791977,325.654785 
	C208.833176,326.008881 208.366470,326.038727 207.899750,326.068573 
z"/>
<path fill="#F4F0F2" opacity="1.000000" stroke="none" 
	d="
M250.739243,327.952576 
	C250.457184,328.346436 250.175140,328.740295 249.745071,329.336792 
	C249.244690,329.639343 248.892349,329.739258 248.243011,329.564270 
	C247.639542,328.872467 247.333054,328.455505 247.013885,328.022675 
	C247.001190,328.006775 246.971024,327.978821 246.971024,327.978821 
	C247.813828,327.625916 248.656631,327.273041 249.801819,326.909180 
	C250.104187,326.898163 250.050354,326.927063 250.109680,327.112976 
	C250.283508,327.582703 250.473587,327.800598 250.739243,327.952576 
z"/>
<path fill="#F4F0F2" opacity="1.000000" stroke="none" 
	d="
M236.147156,329.372375 
	C236.236084,328.770111 236.558167,328.090912 236.900558,328.080536 
	C237.762009,328.054352 238.632660,328.330078 239.502625,329.599915 
	C238.464935,329.599915 237.427231,329.599915 236.147156,329.372375 
z"/>
<path fill="#EFEAED" opacity="1.000000" stroke="none" 
	d="
M207.883560,326.370300 
	C208.366470,326.038727 208.833176,326.008881 209.649719,325.973755 
	C209.349899,327.125000 208.700241,328.281464 208.050583,329.437958 
	C207.659058,329.200653 207.267532,328.963348 206.876007,328.726074 
	C207.206467,328.041382 207.536911,327.356689 207.883560,326.370300 
z"/>
<path fill="#F4F0F2" opacity="1.000000" stroke="none" 
	d="
M247.044418,330.124542 
	C246.550171,330.404510 246.055923,330.684509 245.269669,330.936157 
	C244.565765,330.424927 244.153900,329.942078 243.702530,329.412933 
	C244.674896,328.990570 245.548141,328.611298 246.696198,328.105408 
	C246.971024,327.978821 247.001190,328.006775 247.006744,328.369812 
	C247.023010,329.196747 247.033707,329.660645 247.044418,330.124542 
z"/>
<path fill="#F4F0F2" opacity="1.000000" stroke="none" 
	d="
M204.204193,323.211090 
	C204.801392,323.571869 205.101654,323.995300 205.401917,324.418701 
	C204.958191,324.532776 204.514465,324.646851 204.070755,324.760925 
	C204.016251,324.265198 203.961746,323.769470 204.204193,323.211090 
z"/>
<path fill="#EFEAED" opacity="1.000000" stroke="none" 
	d="
M201.001785,327.992676 
	C201.516571,328.232910 202.043030,328.453674 202.527466,328.744476 
	C202.574234,328.772522 202.360229,329.235077 202.267288,329.495911 
	C201.863327,329.191193 201.459351,328.886475 201.027679,328.290894 
	C201.000000,328.000000 201.001785,327.992676 201.001785,327.992676 
z"/>
<path fill="#F4F0F2" opacity="1.000000" stroke="none" 
	d="
M198.791687,326.020386 
	C198.687256,325.567383 198.740891,325.579285 198.731796,325.546906 
	C199.439713,326.104889 200.156723,326.695221 200.937775,327.639099 
	C201.001785,327.992676 201.000000,328.000000 200.996338,328.000854 
	C200.293808,327.492310 199.594955,326.982849 198.791687,326.020386 
z"/>
<path fill="#F4F0F2" opacity="1.000000" stroke="none" 
	d="
M212.800293,324.667755 
	C212.958893,325.037384 212.912094,325.355072 212.865280,325.672760 
	C212.775162,325.320435 212.685028,324.968140 212.800293,324.667755 
z"/>
<path fill="#F4F0F2" opacity="1.000000" stroke="none" 
	d="
M228.004898,326.993896 
	C228.437271,327.389038 228.869644,327.784180 229.302032,328.179321 
	C229.121780,328.324768 228.941513,328.470184 228.761261,328.615601 
	C228.521500,328.258820 228.281754,327.902039 228.020996,327.272644 
	C228.000000,327.000000 228.004898,326.993896 228.004898,326.993896 
z"/>
<path fill="#F4F0F2" opacity="1.000000" stroke="none" 
	d="
M224.257065,325.643738 
	C224.432053,325.959015 224.391296,326.315125 224.350540,326.671204 
	C224.102631,326.582184 223.854721,326.493164 223.606812,326.404114 
	C223.751663,326.164276 223.896500,325.924438 224.257065,325.643738 
z"/>
<path fill="#F4F0F2" opacity="1.000000" stroke="none" 
	d="
M205.743530,321.357361 
	C205.991501,321.372162 206.126617,321.504974 206.261749,321.637756 
	C206.051392,321.583649 205.841034,321.529541 205.743530,321.357361 
z"/>
<path fill="#F4F0F2" opacity="1.000000" stroke="none" 
	d="
M232.550262,329.466675 
	C232.584366,329.523254 232.516159,329.410065 232.550262,329.466675 
z"/>
<path fill="#F4F0F2" opacity="1.000000" stroke="none" 
	d="
M227.996643,327.002563 
	C227.874817,326.863342 227.756348,326.721527 227.637863,326.579712 
	C227.723038,326.627563 227.808228,326.675385 227.949158,326.858551 
	C228.004898,326.993896 228.000000,327.000000 227.996643,327.002563 
z"/>
<path fill="#EFEAED" opacity="1.000000" stroke="none" 
	d="
M40.359905,189.440323 
	C39.797039,190.768158 39.408005,191.807526 39.018967,192.846893 
	C38.362297,192.242050 37.705627,191.637207 37.048958,191.032364 
	C38.394302,189.206207 39.739647,187.380066 41.084991,185.553909 
	C41.512264,185.837540 41.939537,186.121170 42.366810,186.404785 
	C41.755787,187.320480 41.144760,188.236160 40.359905,189.440323 
z"/>
<path fill="#EFEAED" opacity="1.000000" stroke="none" 
	d="
M53.672714,177.194550 
	C54.120319,177.024780 54.301685,177.022766 54.749191,177.077393 
	C54.504894,178.357254 53.994450,179.580444 53.484009,180.803650 
	C53.090282,180.654007 52.696560,180.504364 52.302837,180.354736 
	C52.670719,179.357254 53.038601,178.359756 53.672714,177.194550 
z"/>
<path fill="#EFEAED" opacity="1.000000" stroke="none" 
	d="
M33.497063,192.803314 
	C34.246700,193.016769 34.739666,193.363342 35.232628,193.709900 
	C34.358040,193.958466 33.483456,194.207031 32.608875,194.455597 
	C32.819378,193.949219 33.029881,193.442825 33.497063,192.803314 
z"/>
<path fill="#F1AAA1" opacity="1.000000" stroke="none" 
	d="
M50.903969,176.161255 
	C50.553337,176.881256 50.153877,177.273804 49.754417,177.666367 
	C49.612087,177.228897 49.242016,176.509872 49.369884,176.406448 
	C49.762501,176.088882 50.345905,176.007187 50.903969,176.161255 
z"/>
<path fill="#EFEAED" opacity="1.000000" stroke="none" 
	d="
M48.072624,181.292542 
	C48.297504,182.203796 48.378563,182.867752 48.459618,183.531723 
	C48.166695,183.563477 47.873772,183.595215 47.580845,183.626968 
	C47.442799,182.798233 47.294746,181.970871 47.182175,181.138687 
	C47.170918,181.055466 47.371471,180.868118 47.480427,180.862656 
	C47.626465,180.855331 47.779037,180.978256 48.072624,181.292542 
z"/>
<path fill="#FAFAFC" opacity="1.000000" stroke="none" 
	d="
M44.011166,181.007675 
	C43.500927,180.705093 42.990692,180.402527 42.480457,180.099945 
	C42.660877,179.891266 42.841297,179.682587 43.021713,179.473907 
	C43.325691,179.797134 43.629669,180.120377 43.966820,180.721802 
	C43.999996,181.000000 44.011166,181.007675 44.011166,181.007675 
z"/>
<path fill="#EFEAED" opacity="1.000000" stroke="none" 
	d="
M44.003860,181.005493 
	C44.513046,181.309372 45.018372,181.607742 45.523697,181.906113 
	C45.343994,182.113571 45.164295,182.321045 44.984596,182.528503 
	C44.683083,182.209030 44.381569,181.889557 44.045609,181.288879 
	C44.011166,181.007675 43.999996,181.000000 44.003860,181.005493 
z"/>
<path fill="#FCFCFD" opacity="1.000000" stroke="none" 
	d="
M114.141891,55.704460 
	C115.289314,55.406338 116.148262,55.288425 117.323959,55.266205 
	C120.930565,63.615345 122.891319,71.980576 119.618118,81.133003 
	C118.600586,82.332413 117.742775,83.171379 116.660637,84.208755 
	C111.408470,83.752663 106.380630,83.098145 102.302208,82.567215 
	C100.766655,76.111435 99.414070,71.055092 98.454659,65.925224 
	C98.229355,64.720581 99.332558,63.267464 100.125778,61.730015 
	C103.249763,60.341785 106.072548,59.152191 109.195175,57.789482 
	C110.947823,57.039131 112.400612,56.461903 114.141891,55.704460 
z"/>
<path fill="#FCF9F2" opacity="1.000000" stroke="none" 
	d="
M247.300903,330.118439 
	C247.033707,329.660645 247.023010,329.196747 247.019440,328.385712 
	C247.333054,328.455505 247.639542,328.872467 247.968048,329.562927 
	C247.845840,329.928406 247.701614,330.020386 247.300903,330.118439 
z"/>
<path fill="#FCFCFD" opacity="1.000000" stroke="none" 
	d="
M284.640686,201.204895 
	C284.196808,201.695557 283.988647,201.915741 283.597351,202.274780 
	C283.211426,202.633255 282.989258,202.833344 282.579712,203.159637 
	C281.559998,203.884567 280.720184,204.475082 279.681335,205.306259 
	C279.265106,205.759109 279.040955,205.963730 278.631836,206.303726 
	C278.230865,206.649323 278.000031,206.842468 277.576965,207.157562 
	C276.578094,207.891037 275.763519,208.493042 274.777130,209.349182 
	C273.621857,210.082367 272.638367,210.561432 271.996796,210.873932 
	C270.250488,205.491425 268.576447,200.331726 266.694824,194.887268 
	C266.004944,193.691467 265.522675,192.780441 264.833771,191.632629 
	C264.095825,190.543335 263.564484,189.690811 262.820862,188.617615 
	C259.818146,185.662659 262.819366,184.554993 264.353088,182.736786 
	C264.775665,182.290588 264.982513,182.086212 265.359833,181.744568 
	C265.976532,181.294525 266.428253,180.987289 267.034210,180.454254 
	C267.828522,179.782120 268.468597,179.335800 269.287720,178.650772 
	C269.710815,178.226151 269.951050,178.035477 270.367310,177.695343 
	C270.761047,177.339539 270.987152,177.142303 271.411316,176.831039 
	C272.772583,175.808945 273.947845,174.914780 275.333191,173.780579 
	C276.655792,173.473480 277.768341,173.406448 279.078552,173.529099 
	C279.883270,174.514618 280.490295,175.310455 281.336823,176.293091 
	C281.752502,176.713882 281.931549,176.945618 282.244324,177.352112 
	C282.907471,178.402145 283.439789,179.275177 284.165588,180.390549 
	C284.627777,181.086502 284.896484,181.540131 285.314514,182.212799 
	C287.896881,188.684738 290.631653,194.947006 284.640686,201.204895 
z"/>
<path fill="#FDFCFA" opacity="1.000000" stroke="none" 
	d="
M17.844175,210.675461 
	C17.598650,210.684586 17.385897,210.480316 17.173149,210.276031 
	C17.368767,210.180695 17.564381,210.085342 17.759995,209.989990 
	C17.798979,210.147354 17.837963,210.304703 17.844175,210.675461 
z"/>
<path fill="#FCF9F2" opacity="1.000000" stroke="none" 
	d="
M250.875702,327.704529 
	C250.473587,327.800598 250.283508,327.582703 250.119171,327.084015 
	C250.383606,327.064911 250.697891,327.260681 250.875702,327.704529 
z"/>
</svg>