<svg version="1.1" id="Layer_1" xmlns="http://www.w3.org/2000/svg" xmlns:xlink="http://www.w3.org/1999/xlink" x="0px" y="0px"
	 width="100%" viewBox="0 0 343 344" enable-background="new 0 0 343 344" xml:space="preserve">
<path fill="#000000" opacity="000000" stroke="none"
	d="
M194.000000,345.000000 
	C129.333344,345.000000 65.166687,345.000000 1.000026,345.000000 
	C1.000017,230.333359 1.000017,115.666733 1.000009,1.000072 
	C115.333282,1.000048 229.666565,1.000048 343.999878,1.000024 
	C343.999939,115.666595 343.999939,230.333191 343.999969,344.999878 
	C294.166656,345.000000 244.333328,345.000000 194.000000,345.000000 
M296.011261,99.151253 
	C294.857574,94.355873 291.026001,93.069550 286.031891,92.039276 
	C282.563263,91.322044 279.110321,90.510406 275.619019,89.929329 
	C273.991241,89.658401 272.012939,89.271004 270.678467,89.925369 
	C267.946960,91.264793 265.543060,93.272369 262.272736,95.101471 
	C261.193146,96.415703 259.348480,97.640709 259.182770,99.061516 
	C258.750793,102.765434 257.100067,104.723663 253.677231,106.304543 
	C248.040466,108.907951 246.789871,115.145607 249.966690,120.505859 
	C252.233490,124.330605 254.224136,128.325546 256.211884,132.307495 
	C258.721954,137.335770 262.599060,138.948059 267.029358,136.301102 
	C276.682190,130.533905 286.188873,124.521881 295.848663,118.766663 
	C299.256317,116.736397 299.879974,114.276253 297.972229,110.222374 
	C297.264313,109.002289 296.556396,107.782204 295.948242,105.995102 
	C296.247803,105.322823 296.547363,104.650551 296.995697,103.235092 
	C296.685028,102.119926 296.374359,101.004753 296.011261,99.151253 
M82.702110,130.989151 
	C86.027901,132.627609 87.696129,135.189896 88.072472,138.992264 
	C88.609886,144.421906 90.923920,146.670624 94.758827,147.306793 
	C92.991127,143.228027 91.025360,138.662720 89.027229,134.111603 
	C88.703697,133.374695 88.236435,132.700882 88.214203,131.376816 
	C94.037148,129.220795 95.820175,125.833054 92.395355,123.264381 
	C85.450394,118.055557 78.376015,113.019234 71.352654,107.915024 
	C69.151100,106.315063 67.747452,106.778397 66.262459,109.185272 
	C63.581070,113.531265 66.333466,116.605904 68.063576,120.701523 
	C67.998810,121.434334 67.934052,122.167152 67.272896,122.628799 
	C59.689232,115.292221 56.900215,106.162788 58.153069,95.956512 
	C59.484592,85.109390 70.859337,77.629417 81.436340,79.902031 
	C92.406563,82.259140 99.412010,89.138939 103.330956,98.968521 
	C102.309128,98.668602 101.287300,98.368683 100.021942,97.377510 
	C98.139877,95.646851 96.529579,93.300385 94.315041,92.323067 
	C90.548615,90.660866 88.044548,93.010559 88.981644,97.065216 
	C90.776649,104.831894 92.674454,112.580101 94.774231,120.269180 
	C96.174805,125.397888 99.095444,126.017822 102.460487,121.917404 
	C103.489891,120.663033 103.604965,118.658302 104.795494,117.274994 
	C108.873955,121.843475 109.208138,126.807556 106.400505,132.128860 
	C105.347740,134.124146 104.233994,136.102020 103.372551,138.180862 
	C100.128838,146.008621 103.964684,155.450043 112.743561,159.119888 
	C111.413185,157.357407 110.728256,156.424957 110.017601,155.512543 
	C104.604187,148.562271 101.785881,144.336731 107.480278,135.718994 
	C112.075653,128.764496 112.099411,121.207115 106.312157,114.109848 
	C106.755600,110.464165 107.199036,106.818489 107.843040,102.396477 
	C107.209518,100.011879 106.737930,97.569817 105.915466,95.252266 
	C101.474945,82.739784 89.464745,73.976776 76.935272,73.999420 
	C63.637676,74.023453 53.092297,84.596321 52.998940,97.998154 
	C52.898045,112.481789 59.454144,123.918976 70.552116,128.419891 
	C73.895386,131.441910 77.912544,131.264725 82.702110,130.989151 
M32.070137,208.539246 
	C32.370014,208.664902 32.669891,208.790543 33.069447,209.648010 
	C34.883656,213.464981 35.707138,218.142197 41.786655,219.016037 
	C42.436886,219.457657 43.374767,219.749771 43.693783,220.363541 
	C47.845242,228.350647 52.205261,236.248886 55.922283,244.437515 
	C60.956379,255.527649 66.865150,266.019897 76.466904,273.684235 
	C79.471725,276.082764 84.054062,276.505035 88.851990,277.981079 
	C114.220695,277.945129 139.589401,277.909180 165.888000,278.031525 
	C183.870483,278.018738 201.853073,278.031342 219.835266,277.952667 
	C221.575867,277.945038 223.314011,277.372009 225.578796,277.283142 
	C226.077942,277.484558 226.577072,277.686005 227.858917,277.956146 
	C231.529373,279.118896 235.165298,280.408234 238.876862,281.420197 
	C249.244370,284.247040 259.585663,287.005798 270.378601,283.049042 
	C277.997925,280.255707 282.642670,273.753510 283.093079,265.926605 
	C283.642029,256.386505 280.227722,248.142426 276.645874,239.745255 
	C283.102692,237.136230 283.811737,235.792999 280.917419,230.430893 
	C279.126160,228.297607 277.402985,226.102600 275.532898,224.040817 
	C260.890076,207.896896 245.663986,192.365753 226.252731,181.860641 
	C212.982300,174.678879 199.291794,170.979675 184.825272,179.293137 
	C182.681961,172.794998 180.538651,166.296860 178.418045,159.867554 
	C180.831070,158.852722 182.407303,158.069290 184.060883,157.517792 
	C188.413605,156.066055 191.684906,153.380798 191.903320,148.665268 
	C192.137833,143.602356 188.393448,141.407150 184.036682,139.310547 
	C185.285721,136.466125 186.260742,133.459000 187.835083,130.807755 
	C192.584534,122.809486 188.616531,114.838448 179.440308,113.913933 
	C177.700455,113.738632 175.820602,112.676895 174.456818,111.500702 
	C171.234604,108.721733 167.113815,106.209595 163.728363,108.601257 
	C160.047607,111.201538 156.546890,110.547005 152.868958,111.222809 
	C150.326416,111.689980 146.952911,113.622078 146.098831,115.758362 
	C145.057861,118.362122 146.140717,121.883446 146.552139,124.975014 
	C146.821060,126.995712 147.529007,128.957993 147.854248,131.687759 
	C144.917526,136.965317 142.278610,142.440109 138.953812,147.460663 
	C136.077072,151.804626 135.337524,159.258545 142.460052,162.000381 
	C146.154007,163.422394 150.138260,164.090256 153.984589,165.876038 
	C153.700012,167.623306 153.415451,169.370560 153.010010,171.906647 
	C152.269943,174.942184 151.529861,177.977707 150.163498,180.666214 
	C134.887360,173.109375 114.060341,177.753922 104.355591,191.378677 
	C98.463112,199.651291 93.320793,208.458237 87.234299,216.777100 
	C79.398788,208.933472 71.763840,200.872971 63.630379,193.351547 
	C60.315208,190.285858 55.918560,188.389633 51.688457,185.339661 
	C49.180313,180.112198 46.752026,174.844421 44.140381,169.669189 
	C41.778507,164.988892 39.466274,164.140350 34.920090,166.225327 
	C30.860735,168.087036 26.933151,170.236969 22.867420,172.083588 
	C18.900518,173.885345 17.352079,176.591003 18.445385,181.217636 
	C17.909519,183.866043 23.816116,186.836349 17.838249,188.850616 
	C19.752789,192.298065 24.935287,193.929993 22.076204,198.955917 
	C21.932253,199.208969 22.604401,200.094498 23.063049,200.494751 
	C25.997232,203.055466 28.978041,205.562744 31.973606,208.020264 
	C31.973606,208.020264 31.903580,208.043427 32.070137,208.539246 
M190.659531,84.853699 
	C190.659531,84.853699 190.692795,84.613419 191.421997,84.884239 
	C191.935837,84.865601 192.449677,84.846962 193.650940,84.790726 
	C196.121490,81.882149 198.592041,78.973579 201.809341,75.999023 
	C205.117615,74.552704 208.631271,73.443420 211.686493,71.581787 
	C216.375229,68.724800 217.151001,64.061211 213.779770,59.264339 
	C212.568802,58.493721 211.450287,57.323135 210.131638,57.018284 
	C202.367355,55.223282 194.621170,52.954441 186.739166,52.199329 
	C181.220764,51.670654 175.495392,53.302284 169.170029,53.688786 
	C165.208359,51.903488 161.323105,50.713684 157.733963,55.577354 
	C157.092041,56.102638 156.450134,56.627926 155.269363,57.621738 
	C154.179886,60.576576 152.703339,63.453918 152.092514,66.504593 
	C151.197769,70.973366 152.346970,75.167809 156.805023,77.216492 
	C166.978577,81.891708 177.365906,85.991531 189.510971,85.865845 
	C189.915207,85.450729 190.319443,85.035614 190.659531,84.853699 
M319.923401,178.318207 
	C318.021301,172.724380 313.840668,170.371918 308.084106,172.010681 
	C305.417786,172.005569 302.749878,171.938629 300.085419,172.006622 
	C291.161896,172.234268 283.725830,175.984573 277.467163,182.080811 
	C274.076813,185.383179 274.041351,189.607391 277.559052,193.197449 
	C279.913025,193.793152 282.371613,195.153320 284.602295,194.848114 
	C292.893005,193.713699 299.015869,196.161819 303.947845,203.220398 
	C306.878174,207.414261 308.656555,211.043579 307.561951,216.298569 
	C306.702118,220.426498 307.163574,224.829651 307.068268,229.904053 
	C309.674622,232.573181 314.774384,233.034485 317.931335,230.494308 
	C327.298004,222.957642 333.716522,213.824860 333.625519,200.710159 
	C335.751801,196.492142 333.975220,192.336761 328.872162,189.361420 
	C325.868469,185.925568 322.864777,182.489731 319.923401,178.318207 
M234.651855,76.935204 
	C232.374329,76.190697 230.096817,75.446190 227.819290,74.701675 
	C227.756958,74.970673 227.694626,75.239670 227.632294,75.508659 
	C237.268753,80.699463 246.905212,85.890266 256.541687,91.081062 
	C256.895752,90.423073 257.249817,89.765083 257.603882,89.107094 
	C250.216858,85.069519 242.829819,81.031952 234.651855,76.935204 
M122.810127,74.054871 
	C129.905411,72.144768 137.000702,70.234665 144.095978,68.324562 
	C143.945480,67.838539 143.794983,67.352509 143.644485,66.866486 
	C132.323746,68.517471 121.333397,71.244072 111.278343,77.015465 
	C111.440208,77.499283 111.602074,77.983109 111.763939,78.466934 
	C115.204445,77.115410 118.644958,75.763885 122.810127,74.054871 
M48.026699,139.656036 
	C45.567287,145.915009 41.313633,151.621979 42.105190,158.875992 
	C46.606083,149.317230 51.106979,139.758453 55.607872,130.199677 
	C55.278568,129.988876 54.949261,129.778091 54.619957,129.567291 
	C52.559700,132.718323 50.499443,135.869370 48.026699,139.656036 
M296.592651,137.089066 
	C295.938782,136.142487 295.284943,135.195923 294.631073,134.249344 
	C294.393494,134.372421 294.155884,134.495483 293.918274,134.618546 
	C296.702087,144.635361 299.485901,154.652176 302.269684,164.668991 
	C303.365326,155.063538 300.241699,146.398438 296.592651,137.089066 
M76.632233,168.067520 
	C72.672295,171.328323 68.712357,174.589127 63.951656,178.509323 
	C65.857834,178.725723 66.905609,179.168365 67.291122,178.838058 
	C70.898758,175.747070 74.400932,172.532257 77.882683,169.298416 
	C77.991180,169.197632 77.548805,168.503769 76.632233,168.067520 
M73.757278,189.999420 
	C77.778542,189.999420 81.799805,189.999420 86.274445,189.999420 
	C83.708664,186.510178 74.627747,186.501572 69.767502,189.570038 
	C71.012306,189.744751 71.916611,189.871674 73.757278,189.999420 
M56.994202,165.417709 
	C56.669300,167.526474 56.344398,169.635239 56.019497,171.744003 
	C56.583584,171.821106 57.147667,171.898193 57.711750,171.975296 
	C58.840641,167.085922 59.969532,162.196533 61.098423,157.307159 
	C60.532681,157.139740 59.966934,156.972336 59.401192,156.804916 
	C58.601284,159.395721 57.801380,161.986542 56.994202,165.417709 
z"/>
<path fill="#F94F46" opacity="1.000000" stroke="none" 
	d="
M185.158051,179.984207 
	C199.291794,170.979675 212.982300,174.678879 226.252731,181.860641 
	C245.663986,192.365753 260.890076,207.896896 275.532898,224.040817 
	C277.402985,226.102600 279.126160,228.297607 280.617004,230.806946 
	C277.140961,231.429443 273.965393,231.675888 270.407654,231.923737 
	C261.012085,235.631699 251.998657,239.338287 242.989258,243.016708 
	C242.993256,242.988541 243.044968,243.012283 242.732117,243.035278 
	C241.882843,243.366135 241.346451,243.673996 240.537491,244.156311 
	C238.840515,245.234940 237.416092,246.139130 235.663055,246.932678 
	C230.052658,241.106110 223.693634,240.218933 215.769226,243.941574 
	C195.047409,239.164505 165.725891,242.194214 161.189163,249.804993 
	C165.439285,250.324234 169.463501,250.815872 172.687592,251.209763 
	C173.558563,254.665085 173.971390,257.736908 175.101242,260.517334 
	C178.539871,268.979370 185.612000,273.106262 192.849152,270.294342 
	C199.272415,267.798645 204.823242,269.538177 210.030884,272.038269 
	C194.383682,272.116730 179.236008,272.139862 163.786499,271.957703 
	C158.214294,257.929779 152.920547,244.116013 147.683670,230.280701 
	C145.169754,223.639175 143.028397,222.092102 135.781326,222.061401 
	C120.473778,221.996552 105.166161,221.947586 89.709831,221.597122 
	C88.987885,219.876480 88.414680,218.450806 87.841476,217.025131 
	C93.320793,208.458237 98.463112,199.651291 104.355591,191.378677 
	C114.060341,177.753922 134.887360,173.109375 150.532639,181.089569 
	C150.936554,181.680359 150.971313,181.847809 150.728195,182.276398 
	C148.329376,188.618469 148.498718,194.676392 149.970520,200.110641 
	C150.599350,194.678650 151.286392,188.743927 152.230896,183.036682 
	C156.726501,186.190369 160.964661,189.116592 165.159943,192.013214 
	C165.408264,193.465607 165.713394,195.250198 166.224121,197.218719 
	C167.051559,197.278458 167.673386,197.154266 168.295227,197.030075 
	C167.852676,196.683350 167.410110,196.336639 166.997787,195.588486 
	C167.185104,194.126602 167.342209,193.066132 167.708557,191.948334 
	C168.265060,191.638260 168.612305,191.385513 169.344421,191.067841 
	C173.796127,188.993088 177.862946,186.983261 182.268372,184.968109 
	C183.458206,184.003571 184.309464,183.044342 185.117859,181.735641 
	C185.102676,180.918839 185.130356,180.451523 185.158051,179.984207 
M180.490768,204.311554 
	C180.310791,204.859924 180.130814,205.408295 179.453888,206.092117 
	C179.294006,206.384979 179.134125,206.677841 178.271240,206.943069 
	C177.243942,207.046310 176.216660,207.149536 175.189362,207.252777 
	C175.264160,207.564178 175.338959,207.875595 175.413757,208.186996 
	C176.617233,207.798096 177.820724,207.409195 179.507492,206.870712 
	C179.682144,206.592712 179.856812,206.314697 180.510666,205.683975 
	C180.680527,205.127228 180.850388,204.570465 181.533005,203.701843 
	C181.687546,203.133423 181.842072,202.564987 182.558731,201.552597 
	C183.115875,199.542709 183.673004,197.532837 184.230148,195.522949 
	C183.837997,195.439880 183.445831,195.356827 183.053680,195.273758 
	C182.703751,197.516708 182.353836,199.759644 181.478912,202.292542 
	C181.313431,202.855896 181.147949,203.419235 180.490768,204.311554 
M162.621826,199.684937 
	C162.254837,200.475342 161.887848,201.265747 161.520844,202.056152 
	C161.924667,202.161804 162.328506,202.267456 162.732330,202.373108 
	C162.863785,201.475098 162.995255,200.577087 162.621826,199.684937 
M160.249100,205.911362 
	C160.015121,205.465225 159.781128,205.019104 159.547150,204.572968 
	C159.213898,204.908951 158.880646,205.244934 158.547394,205.580917 
	C158.994614,205.812164 159.441849,206.043411 160.249100,205.911362 
M171.420319,203.871964 
	C171.166306,203.851044 170.912292,203.830139 170.658295,203.809219 
	C170.654556,203.953079 170.650818,204.096924 170.647079,204.240784 
	C170.902039,204.230911 171.157013,204.221039 171.420319,203.871964 
M151.735153,204.118561 
	C151.619949,203.945679 151.504730,203.772781 151.389526,203.599899 
	C151.409576,203.840347 151.429611,204.080811 151.735153,204.118561 
M163.470078,197.496597 
	C163.470078,197.496597 163.514648,197.478958 163.470078,197.496597 
M184.371597,192.514145 
	C184.371597,192.514145 184.505676,192.425293 184.371597,192.514145 
z"/>
<path fill="#FFCF2E" opacity="1.000000" stroke="none" 
	d="
M89.858566,221.892090 
	C105.166161,221.947586 120.473778,221.996552 135.781326,222.061401 
	C143.028397,222.092102 145.169754,223.639175 147.683670,230.280701 
	C152.920547,244.116013 158.214294,257.929779 163.837219,272.311951 
	C164.445892,274.538757 164.702011,276.205994 164.958130,277.873230 
	C139.589401,277.909180 114.220695,277.945129 88.338326,277.548584 
	C82.063400,261.671631 76.307266,246.225250 70.538605,230.783524 
	C67.859497,223.612015 68.865700,222.100723 76.366592,222.045593 
	C80.864044,222.012543 85.361252,221.944443 89.858566,221.892090 
z"/>
<path fill="#F3ACA2" opacity="1.000000" stroke="none" 
	d="
M235.991669,247.043304 
	C237.416092,246.139130 238.840515,245.234940 240.875427,244.172394 
	C242.005585,243.680115 242.525284,243.346191 243.044968,243.012283 
	C243.044968,243.012283 242.993256,242.988541 243.396057,243.101471 
	C253.869125,241.416946 263.939392,239.619507 274.159302,238.087250 
	C274.870087,238.909607 275.431213,239.466766 275.992340,240.023926 
	C280.227722,248.142426 283.642029,256.386505 283.093079,265.926605 
	C282.642670,273.753510 277.997925,280.255707 270.378601,283.049042 
	C259.585663,287.005798 249.244370,284.247040 238.876862,281.420197 
	C235.165298,280.408234 231.529373,279.118896 227.539093,277.560638 
	C228.069916,274.143555 229.269669,271.168549 229.680496,268.088318 
	C230.165573,264.451385 229.968613,260.723480 230.398102,256.947021 
	C231.893936,255.881912 233.058990,254.904816 234.409637,253.630341 
	C235.060699,251.236389 235.526184,249.139847 235.991669,247.043304 
z"/>
<path fill="#F2ABA1" opacity="1.000000" stroke="none" 
	d="
M167.499298,192.005676 
	C167.342209,193.066132 167.185104,194.126602 166.779633,195.702026 
	C166.252609,196.422073 166.081711,196.694672 166.018524,197.034805 
	C165.713394,195.250198 165.408264,193.465607 165.159943,192.013214 
	C160.964661,189.116592 156.726501,186.190369 152.102722,182.868866 
	C151.515778,182.265472 151.278778,182.112686 151.006088,182.015244 
	C150.971313,181.847809 150.936554,181.680359 150.845795,181.263092 
	C151.529861,177.977707 152.269943,174.942184 153.464264,171.493774 
	C161.083832,170.178787 163.864914,167.713181 163.869476,162.069946 
	C162.264923,162.582962 160.711624,163.096359 159.147720,163.575089 
	C157.434052,164.099686 155.710587,164.592270 153.991379,165.098801 
	C150.138260,164.090256 146.154007,163.422394 142.460052,162.000381 
	C135.337524,159.258545 136.077072,151.804626 138.953812,147.460663 
	C142.278610,142.440109 144.917526,136.965317 148.356812,131.236694 
	C150.471069,130.593979 153.195862,130.873550 153.509644,130.132401 
	C155.245270,126.032738 157.286194,128.907654 158.728409,129.156509 
	C157.713531,134.573715 162.292892,135.422791 164.583633,138.128815 
	C165.464462,136.917755 166.037796,136.129501 166.971939,134.845123 
	C168.727509,139.296753 170.219452,143.079941 171.910324,147.367538 
	C176.285934,144.747147 180.188766,142.409866 184.091599,140.072601 
	C188.393448,141.407150 192.137833,143.602356 191.903320,148.665268 
	C191.684906,153.380798 188.413605,156.066055 184.060883,157.517792 
	C182.407303,158.069290 180.831070,158.852722 178.418045,159.867554 
	C180.538651,166.296860 182.681961,172.794998 184.991653,179.638672 
	C185.130356,180.451523 185.102676,180.918839 184.825623,181.858704 
	C183.694092,183.211975 182.811920,184.092697 181.929779,184.973419 
	C177.862946,186.983261 173.796127,188.993088 169.098053,191.051239 
	C168.144302,191.401596 167.821808,191.703644 167.499298,192.005676 
M162.734558,144.313950 
	C159.265549,145.295624 158.059753,147.915741 159.504715,150.793579 
	C160.130051,152.039047 163.128204,152.810608 164.852051,152.541031 
	C166.050323,152.353638 168.034286,149.558823 167.697159,148.746765 
	C166.957214,146.964493 164.966644,145.701447 162.734558,144.313950 
z"/>
<path fill="#F3ACA1" opacity="1.000000" stroke="none" 
	d="
M89.709831,221.597122 
	C85.361252,221.944443 80.864044,222.012543 76.366592,222.045593 
	C68.865700,222.100723 67.859497,223.612015 70.538605,230.783524 
	C76.307266,246.225250 82.063400,261.671631 87.869492,277.473999 
	C84.054062,276.505035 79.471725,276.082764 76.466904,273.684235 
	C66.865150,266.019897 60.956379,255.527649 55.922283,244.437515 
	C52.205261,236.248886 47.845242,228.350647 43.693783,220.363541 
	C43.374767,219.749771 42.436886,219.457657 41.570889,218.631912 
	C46.505013,215.708542 51.695534,213.247314 56.786961,210.595810 
	C59.185772,209.346542 61.630753,207.578125 59.822578,204.442108 
	C58.050846,201.369278 55.691566,198.635193 53.360886,195.546875 
	C52.468735,193.576706 51.805866,191.812088 51.125301,189.689941 
	C51.409725,188.208725 51.711842,187.085022 52.013954,185.961334 
	C55.918560,188.389633 60.315208,190.285858 63.630379,193.351547 
	C71.763840,200.872971 79.398788,208.933472 87.537888,216.901123 
	C88.414680,218.450806 88.987885,219.876480 89.709831,221.597122 
z"/>
<path fill="#FDCD2E" opacity="1.000000" stroke="none" 
	d="
M332.999878,201.082428 
	C333.716522,213.824860 327.298004,222.957642 317.931335,230.494308 
	C314.774384,233.034485 309.674622,232.573181 307.347595,229.293411 
	C309.996460,222.316025 312.286804,215.918274 314.762848,209.593246 
	C316.458893,205.260880 315.812103,201.538132 312.672668,198.117783 
	C310.880005,196.164719 309.490112,193.793411 307.518341,192.068253 
	C305.866760,190.623260 303.512634,188.751175 301.679413,188.955032 
	C293.360168,189.880219 285.115265,191.473679 276.843597,192.826645 
	C274.041351,189.607391 274.076813,185.383179 277.467163,182.080811 
	C283.725830,175.984573 291.161896,172.234268 300.085419,172.006622 
	C302.749878,171.938629 305.417786,172.005569 308.674561,172.396698 
	C312.797028,174.873108 316.329041,176.963501 319.861084,179.053894 
	C322.864777,182.489731 325.868469,185.925568 328.802826,190.060028 
	C330.155640,194.199890 331.577759,197.641159 332.999878,201.082428 
z"/>
<path fill="#5C2549" opacity="1.000000" stroke="none" 
	d="
M184.064148,139.691574 
	C180.188766,142.409866 176.285934,144.747147 171.910324,147.367538 
	C170.219452,143.079941 168.727509,139.296753 166.971939,134.845123 
	C166.037796,136.129501 165.464462,136.917755 164.583633,138.128815 
	C162.292892,135.422791 157.713531,134.573715 158.728409,129.156509 
	C157.286194,128.907654 155.245270,126.032738 153.509644,130.132401 
	C153.195862,130.873550 150.471069,130.593979 148.449829,130.866028 
	C147.529007,128.957993 146.821060,126.995712 146.552139,124.975014 
	C146.140717,121.883446 145.057861,118.362122 146.098831,115.758362 
	C146.952911,113.622078 150.326416,111.689980 152.868958,111.222809 
	C156.546890,110.547005 160.047607,111.201538 163.728363,108.601257 
	C167.113815,106.209595 171.234604,108.721733 174.456818,111.500702 
	C175.820602,112.676895 177.700455,113.738632 179.440308,113.913933 
	C188.616531,114.838448 192.584534,122.809486 187.835083,130.807755 
	C186.260742,133.459000 185.285721,136.466125 184.064148,139.691574 
z"/>
<path fill="#67AFEE" opacity="1.000000" stroke="none" 
	d="
M188.868042,85.803360 
	C177.365906,85.991531 166.978577,81.891708 156.805023,77.216492 
	C152.346970,75.167809 151.197769,70.973366 152.092514,66.504593 
	C152.703339,63.453918 154.179886,60.576576 155.956940,57.367844 
	C157.305923,57.087631 158.027115,56.873844 158.619873,57.062820 
	C169.241348,60.448936 179.873138,63.806755 190.440598,67.355621 
	C193.572556,68.407425 195.172318,70.717705 194.036331,74.232681 
	C192.918365,77.691811 191.807037,81.153084 190.692795,84.613419 
	C190.692795,84.613419 190.659531,84.853699 190.390686,84.719681 
	C189.703918,84.991562 189.285980,85.397461 188.868042,85.803360 
z"/>
<path fill="#993C80" opacity="1.000000" stroke="none" 
	d="
M263.004272,95.004807 
	C265.543060,93.272369 267.946960,91.264793 270.678467,89.925369 
	C272.012939,89.271004 273.991241,89.658401 275.619019,89.929329 
	C279.110321,90.510406 282.563263,91.322044 286.295044,92.395355 
	C285.014191,93.521240 283.470123,94.291054 281.651062,95.111221 
	C280.585693,95.774956 279.795319,96.388329 278.737732,97.048950 
	C277.979004,97.569740 277.487518,98.043289 276.660156,98.653976 
	C275.637573,99.259720 274.903656,99.672348 274.271759,100.205818 
	C269.414276,104.306595 268.592407,109.414383 272.064331,113.748100 
	C275.450806,117.975082 281.002350,118.310265 285.833893,114.533562 
	C288.155518,112.718826 290.417847,110.828262 293.013306,108.840553 
	C294.162598,107.993416 295.005554,107.277771 295.848480,106.562119 
	C296.556396,107.782204 297.264313,109.002289 297.852600,110.878944 
	C296.231567,112.816574 294.867065,114.320435 293.205658,115.341003 
	C284.991089,120.387115 276.652893,125.232491 268.454437,130.304108 
	C265.099915,132.379257 262.828918,132.198196 260.877655,128.435028 
	C258.812347,124.451920 256.089539,120.807121 254.066711,116.805870 
	C253.200150,115.091774 252.423599,112.062286 253.286072,111.018303 
	C254.894302,109.071602 257.731323,108.140038 261.046448,106.209892 
	C261.522278,103.486626 262.263275,99.245712 263.004272,95.004807 
M268.431580,95.813416 
	C267.817993,96.654366 267.204376,97.495308 266.590790,98.336250 
	C266.984650,98.758362 267.378510,99.180466 267.772369,99.602570 
	C270.083374,98.151726 272.394379,96.700874 274.705353,95.250031 
	C274.405518,94.641380 274.105682,94.032738 273.805847,93.424088 
	C272.199097,94.098671 270.592316,94.773262 268.431580,95.813416 
z"/>
<path fill="#5A2448" opacity="1.000000" stroke="none" 
	d="
M70.107559,127.844337 
	C59.454144,123.918976 52.898045,112.481789 52.998940,97.998154 
	C53.092297,84.596321 63.637676,74.023453 76.935272,73.999420 
	C89.464745,73.976776 101.474945,82.739784 105.915466,95.252266 
	C106.737930,97.569817 107.209518,100.011879 107.449783,102.679802 
	C106.035912,101.631416 105.015289,100.299713 103.994675,98.968002 
	C99.412010,89.138939 92.406563,82.259140 81.436340,79.902031 
	C70.859337,77.629417 59.484592,85.109390 58.153069,95.956512 
	C56.900215,106.162788 59.689232,115.292221 67.725937,123.076195 
	C68.821838,124.963837 69.464699,126.404091 70.107559,127.844337 
z"/>
<path fill="#5D2649" opacity="1.000000" stroke="none" 
	d="
M262.638489,95.053139 
	C262.263275,99.245712 261.522278,103.486626 261.046448,106.209892 
	C257.731323,108.140038 254.894302,109.071602 253.286072,111.018303 
	C252.423599,112.062286 253.200150,115.091774 254.066711,116.805870 
	C256.089539,120.807121 258.812347,124.451920 260.877655,128.435028 
	C262.828918,132.198196 265.099915,132.379257 268.454437,130.304108 
	C276.652893,125.232491 284.991089,120.387115 293.205658,115.341003 
	C294.867065,114.320435 296.231567,112.816574 297.908386,111.238518 
	C299.879974,114.276253 299.256317,116.736397 295.848663,118.766663 
	C286.188873,124.521881 276.682190,130.533905 267.029358,136.301102 
	C262.599060,138.948059 258.721954,137.335770 256.211884,132.307495 
	C254.224136,128.325546 252.233490,124.330605 249.966690,120.505859 
	C246.789871,115.145607 248.040466,108.907951 253.677231,106.304543 
	C257.100067,104.723663 258.750793,102.765434 259.182770,99.061516 
	C259.348480,97.640709 261.193146,96.415703 262.638489,95.053139 
z"/>
<path fill="#612A48" opacity="1.000000" stroke="none" 
	d="
M277.201324,193.012054 
	C285.115265,191.473679 293.360168,189.880219 301.679413,188.955032 
	C303.512634,188.751175 305.866760,190.623260 307.518341,192.068253 
	C309.490112,193.793411 310.880005,196.164719 312.672668,198.117783 
	C315.812103,201.538132 316.458893,205.260880 314.762848,209.593246 
	C312.286804,215.918274 309.996460,222.316025 307.332520,228.896652 
	C307.163574,224.829651 306.702118,220.426498 307.561951,216.298569 
	C308.656555,211.043579 306.878174,207.414261 303.947845,203.220398 
	C299.015869,196.161819 292.893005,193.713699 284.602295,194.848114 
	C282.371613,195.153320 279.913025,193.793152 277.201324,193.012054 
z"/>
<path fill="#653152" opacity="1.000000" stroke="none" 
	d="
M51.851204,185.650497 
	C51.711842,187.085022 51.409725,188.208725 50.753822,189.657227 
	C47.508755,183.831543 44.547325,177.712692 41.751850,171.518951 
	C40.005928,167.650620 38.094219,167.855026 34.938095,170.231293 
	C32.254829,172.251511 29.005383,173.940399 25.756556,174.683792 
	C21.559437,175.644196 21.021717,177.180588 22.801804,180.837860 
	C27.735615,190.974609 32.536137,201.180252 37.159924,211.461838 
	C38.869209,215.262650 40.930523,215.947342 44.439701,213.835205 
	C46.842751,212.388855 49.499634,211.363098 52.047501,210.158737 
	C58.568493,207.076324 58.546108,207.089417 55.597897,200.810089 
	C54.828449,199.171249 54.254108,197.440811 53.590160,195.752441 
	C55.691566,198.635193 58.050846,201.369278 59.822578,204.442108 
	C61.630753,207.578125 59.185772,209.346542 56.786961,210.595810 
	C51.695534,213.247314 46.505013,215.708542 41.216461,218.559448 
	C35.707138,218.142197 34.883656,213.464981 32.949287,208.984497 
	C32.520615,208.228470 32.212097,208.135956 31.903580,208.043427 
	C31.903580,208.043427 31.973606,208.020264 32.158134,207.708771 
	C29.309587,200.842545 26.352005,194.251251 23.204386,187.751999 
	C22.028761,185.324539 20.409813,183.111801 18.993002,180.801147 
	C17.352079,176.591003 18.900518,173.885345 22.867420,172.083588 
	C26.933151,170.236969 30.860735,168.087036 34.920090,166.225327 
	C39.466274,164.140350 41.778507,164.988892 44.140381,169.669189 
	C46.752026,174.844421 49.180313,180.112198 51.851204,185.650497 
z"/>
<path fill="#A13E7E" opacity="1.000000" stroke="none" 
	d="
M165.423065,277.952393 
	C164.702011,276.205994 164.445892,274.538757 164.139069,272.517273 
	C179.236008,272.139862 194.383682,272.116730 210.332611,272.047455 
	C212.590836,272.293945 214.047775,272.586578 215.876129,273.003723 
	C219.182785,274.439301 222.118027,275.750366 225.053284,277.061432 
	C223.314011,277.372009 221.575867,277.945038 219.835266,277.952667 
	C201.853073,278.031342 183.870483,278.018738 165.423065,277.952393 
z"/>
<path fill="#229FA9" opacity="1.000000" stroke="none" 
	d="
M68.184921,119.975616 
	C66.333466,116.605904 63.581070,113.531265 66.262459,109.185272 
	C67.747452,106.778397 69.151100,106.315063 71.352654,107.915024 
	C78.376015,113.019234 85.450394,118.055557 92.395355,123.264381 
	C95.820175,125.833054 94.037148,129.220795 87.708870,131.538162 
	C85.517807,130.895065 83.832077,130.090622 82.009644,129.008377 
	C77.310272,125.812256 72.747597,122.893936 68.184921,119.975616 
z"/>
<path fill="#229FA9" opacity="1.000000" stroke="none" 
	d="
M104.138756,116.997200 
	C103.604965,118.658302 103.489891,120.663033 102.460487,121.917404 
	C99.095444,126.017822 96.174805,125.397888 94.774231,120.269180 
	C92.674454,112.580101 90.776649,104.831894 88.981644,97.065216 
	C88.044548,93.010559 90.548615,90.660866 94.315041,92.323067 
	C96.529579,93.300385 98.139877,95.646851 100.098663,98.111000 
	C101.471146,104.045715 102.766899,109.246948 104.048599,114.768265 
	C104.069283,115.724640 104.104019,116.360924 104.138756,116.997200 
z"/>
<path fill="#FDCD2E" opacity="1.000000" stroke="none" 
	d="
M201.062607,76.065010 
	C198.592041,78.973579 196.121490,81.882149 193.304596,84.445816 
	C194.224426,80.534454 195.754898,77.036011 196.694107,73.385452 
	C198.064484,68.059052 196.910416,66.922470 191.671799,65.355606 
	C182.352234,62.568153 173.160278,59.356106 163.891998,56.393467 
	C162.031738,55.798832 160.069107,55.524448 158.153687,55.102406 
	C161.323105,50.713684 165.208359,51.903488 169.729767,54.133884 
	C173.526016,55.437382 176.762512,56.295780 180.189758,57.487652 
	C185.462189,59.165794 190.511337,61.439026 195.633865,61.618614 
	C201.947632,61.839962 203.734070,64.526855 202.985657,70.396858 
	C202.215469,72.490616 201.639038,74.277809 201.062607,76.065010 
z"/>
<path fill="#5D2649" opacity="1.000000" stroke="none" 
	d="
M225.316040,277.172302 
	C222.118027,275.750366 219.182785,274.439301 215.981140,272.607544 
	C216.470016,268.714630 217.111847,265.311371 218.024124,261.982208 
	C218.551239,260.058563 219.514557,258.254425 220.577316,256.590088 
	C221.568695,256.917511 222.264313,257.051361 222.959915,257.185211 
	C222.982056,256.900543 223.004181,256.615875 223.026306,256.331207 
	C222.113785,256.331207 221.201263,256.331207 219.861511,255.964310 
	C219.737762,255.011307 220.041260,254.425186 220.789276,253.886536 
	C223.819962,254.330170 226.406143,254.726318 229.051758,255.399139 
	C229.429901,256.128876 229.748611,256.581940 230.067322,257.035034 
	C229.968613,260.723480 230.165573,264.451385 229.680496,268.088318 
	C229.269669,271.168549 228.069916,274.143555 227.147736,277.526276 
	C226.577072,277.686005 226.077942,277.484558 225.316040,277.172302 
z"/>
<path fill="#993C80" opacity="1.000000" stroke="none" 
	d="
M179.999023,57.154179 
	C176.762512,56.295780 173.526016,55.437382 170.075989,54.274040 
	C175.495392,53.302284 181.220764,51.670654 186.739166,52.199329 
	C194.621170,52.954441 202.367355,55.223282 210.131638,57.018284 
	C211.450287,57.323135 212.568802,58.493721 213.948151,59.952255 
	C213.372528,62.094067 212.628525,63.547970 211.912766,64.635864 
	C209.873627,62.864708 207.983871,60.973270 205.707016,60.141537 
	C197.415192,57.112556 188.770691,56.419292 179.999023,57.154179 
z"/>
<path fill="#653152" opacity="1.000000" stroke="none" 
	d="
M157.943817,55.339882 
	C160.069107,55.524448 162.031738,55.798832 163.891998,56.393467 
	C173.160278,59.356106 182.352234,62.568153 191.671799,65.355606 
	C196.910416,66.922470 198.064484,68.059052 196.694107,73.385452 
	C195.754898,77.036011 194.224426,80.534454 192.960892,84.464615 
	C192.449677,84.846962 191.935837,84.865601 191.057404,84.748825 
	C191.807037,81.153084 192.918365,77.691811 194.036331,74.232681 
	C195.172318,70.717705 193.572556,68.407425 190.440598,67.355621 
	C179.873138,63.806755 169.241348,60.448936 158.619873,57.062820 
	C158.027115,56.873844 157.305923,57.087631 156.226364,57.133583 
	C156.450134,56.627926 157.092041,56.102638 157.943817,55.339882 
z"/>
<path fill="#FFCF2E" opacity="1.000000" stroke="none" 
	d="
M104.467125,117.136093 
	C104.104019,116.360924 104.069283,115.724640 104.269882,114.755440 
	C104.937294,114.494469 105.369370,114.566422 105.801453,114.638382 
	C112.099411,121.207115 112.075653,128.764496 107.480278,135.718994 
	C101.785881,144.336731 104.604187,148.562271 110.017601,155.512543 
	C110.728256,156.424957 111.413185,157.357407 112.743561,159.119888 
	C103.964684,155.450043 100.128838,146.008621 103.372551,138.180862 
	C104.233994,136.102020 105.347740,134.124146 106.400505,132.128860 
	C109.208138,126.807556 108.873955,121.843475 104.467125,117.136093 
z"/>
<path fill="#F2ABA1" opacity="1.000000" stroke="none" 
	d="
M18.719194,181.009399 
	C20.409813,183.111801 22.028761,185.324539 23.204386,187.751999 
	C26.352005,194.251251 29.309587,200.842545 32.143093,207.742432 
	C28.978041,205.562744 25.997232,203.055466 23.063049,200.494751 
	C22.604401,200.094498 21.932253,199.208969 22.076204,198.955917 
	C24.935287,193.929993 19.752789,192.298065 17.838249,188.850616 
	C23.816116,186.836349 17.909519,183.866043 18.719194,181.009399 
z"/>
<path fill="#5D2649" opacity="1.000000" stroke="none" 
	d="
M211.884521,65.001869 
	C212.628525,63.547970 213.372528,62.094067 214.132111,60.254257 
	C217.151001,64.061211 216.375229,68.724800 211.686493,71.581787 
	C208.631271,73.443420 205.117615,74.552704 201.435974,76.032013 
	C201.639038,74.277809 202.215469,72.490616 203.338287,70.363960 
	C206.551285,68.350288 209.217896,66.676079 211.884521,65.001869 
z"/>
<path fill="#993C80" opacity="1.000000" stroke="none" 
	d="
M68.124252,120.338570 
	C72.747597,122.893936 77.310272,125.812256 81.968918,129.394989 
	C82.038048,130.315598 82.011208,130.571793 81.984375,130.827988 
	C77.912544,131.264725 73.895386,131.441910 70.329834,128.132111 
	C69.464699,126.404091 68.821838,124.963837 68.024132,123.211777 
	C67.934052,122.167152 67.998810,121.434334 68.124252,120.338570 
z"/>
<path fill="#993C80" opacity="1.000000" stroke="none" 
	d="
M106.056808,114.374115 
	C105.369370,114.566422 104.937294,114.494469 104.283936,114.435349 
	C102.766899,109.246948 101.471146,104.045715 100.220428,98.456627 
	C101.287300,98.368683 102.309128,98.668602 103.662811,98.968262 
	C105.015289,100.299713 106.035912,101.631416 107.349503,103.067963 
	C107.199036,106.818489 106.755600,110.464165 106.056808,114.374115 
z"/>
<path fill="#5D2649" opacity="1.000000" stroke="none" 
	d="
M276.319092,239.884583 
	C275.431213,239.466766 274.870087,238.909607 274.055908,237.776642 
	C272.798523,235.441345 271.794159,233.681839 270.789795,231.922348 
	C273.965393,231.675888 277.140961,231.429443 280.775513,231.117859 
	C283.811737,235.792999 283.102692,237.136230 276.319092,239.884583 
z"/>
<path fill="#67AFEE" opacity="1.000000" stroke="none" 
	d="
M235.047333,76.964798 
	C242.829819,81.031952 250.216858,85.069519 257.603882,89.107094 
	C257.249817,89.765083 256.895752,90.423073 256.541687,91.081062 
	C246.905212,85.890266 237.268753,80.699463 227.632294,75.508659 
	C227.694626,75.239670 227.756958,74.970673 227.819290,74.701675 
	C230.096817,75.446190 232.374329,76.190697 235.047333,76.964798 
z"/>
<path fill="#67AFEE" opacity="1.000000" stroke="none" 
	d="
M122.447800,74.233612 
	C118.644958,75.763885 115.204445,77.115410 111.763939,78.466934 
	C111.602074,77.983109 111.440208,77.499283 111.278343,77.015465 
	C121.333397,71.244072 132.323746,68.517471 143.644485,66.866486 
	C143.794983,67.352509 143.945480,67.838539 144.095978,68.324562 
	C137.000702,70.234665 129.905411,72.144768 122.447800,74.233612 
z"/>
<path fill="#67AFEE" opacity="1.000000" stroke="none" 
	d="
M48.232941,139.338226 
	C50.499443,135.869370 52.559700,132.718323 54.619957,129.567291 
	C54.949261,129.778091 55.278568,129.988876 55.607872,130.199677 
	C51.106979,139.758453 46.606083,149.317230 42.105190,158.875992 
	C41.313633,151.621979 45.567287,145.915009 48.232941,139.338226 
z"/>
<path fill="#67AFEE" opacity="1.000000" stroke="none" 
	d="
M296.776062,137.428314 
	C300.241699,146.398438 303.365326,155.063538 302.269684,164.668991 
	C299.485901,154.652176 296.702087,144.635361 293.918274,134.618546 
	C294.155884,134.495483 294.393494,134.372421 294.631073,134.249344 
	C295.284943,135.195923 295.938782,136.142487 296.776062,137.428314 
z"/>
<path fill="#FDCD2E" opacity="1.000000" stroke="none" 
	d="
M281.926086,95.060867 
	C283.470123,94.291054 285.014191,93.521240 286.722107,92.469391 
	C291.026001,93.069550 294.857574,94.355873 296.027161,99.878708 
	C296.311005,101.730202 296.578949,102.854233 296.846893,103.978271 
	C296.547363,104.650551 296.247803,105.322823 295.898376,106.278610 
	C295.005554,107.277771 294.162598,107.993416 292.668335,108.413483 
	C291.770905,107.846977 291.524780,107.576057 291.509827,107.005875 
	C293.629150,103.505402 294.233765,100.407204 290.928772,97.361794 
	C290.451965,96.773766 290.057800,96.440117 289.272919,96.098030 
	C287.104370,96.274078 285.326477,96.458557 283.155792,96.234367 
	C282.484009,95.570755 282.205048,95.315811 281.926086,95.060867 
z"/>
<path fill="#653152" opacity="1.000000" stroke="none" 
	d="
M153.987976,165.487427 
	C155.710587,164.592270 157.434052,164.099686 159.147720,163.575089 
	C160.711624,163.096359 162.264923,162.582962 163.869476,162.069946 
	C163.864914,167.713181 161.083832,170.178787 153.524689,171.099365 
	C153.415451,169.370560 153.700012,167.623306 153.987976,165.487427 
z"/>
<path fill="#FDCD2E" opacity="1.000000" stroke="none" 
	d="
M82.343246,130.908569 
	C82.011208,130.571793 82.038048,130.315598 82.105614,129.672791 
	C83.832077,130.090622 85.517807,130.895065 87.519577,131.848709 
	C88.236435,132.700882 88.703697,133.374695 89.027229,134.111603 
	C91.025360,138.662720 92.991127,143.228027 94.758827,147.306793 
	C90.923920,146.670624 88.609886,144.421906 88.072472,138.992264 
	C87.696129,135.189896 86.027901,132.627609 82.343246,130.908569 
z"/>
<path fill="#FFCF2E" opacity="1.000000" stroke="none" 
	d="
M76.997742,168.076965 
	C77.548805,168.503769 77.991180,169.197632 77.882683,169.298416 
	C74.400932,172.532257 70.898758,175.747070 67.291122,178.838058 
	C66.905609,179.168365 65.857834,178.725723 63.951656,178.509323 
	C68.712357,174.589127 72.672295,171.328323 76.997742,168.076965 
z"/>
<path fill="#612A48" opacity="1.000000" stroke="none" 
	d="
M319.892242,178.686050 
	C316.329041,176.963501 312.797028,174.873108 309.134705,172.478394 
	C313.840668,170.371918 318.021301,172.724380 319.892242,178.686050 
z"/>
<path fill="#FFCF2E" opacity="1.000000" stroke="none" 
	d="
M73.289093,189.999008 
	C71.916611,189.871674 71.012306,189.744751 69.767502,189.570038 
	C74.627747,186.501572 83.708664,186.510178 86.274445,189.999420 
	C81.799805,189.999420 77.778542,189.999420 73.289093,189.999008 
z"/>
<path fill="#FFCF2E" opacity="1.000000" stroke="none" 
	d="
M56.997841,164.997528 
	C57.801380,161.986542 58.601284,159.395721 59.401192,156.804916 
	C59.966934,156.972336 60.532681,157.139740 61.098423,157.307159 
	C59.969532,162.196533 58.840641,167.085922 57.711750,171.975296 
	C57.147667,171.898193 56.583584,171.821106 56.019497,171.744003 
	C56.344398,169.635239 56.669300,167.526474 56.997841,164.997528 
z"/>
<path fill="#612A48" opacity="1.000000" stroke="none" 
	d="
M333.312683,200.896301 
	C331.577759,197.641159 330.155640,194.199890 328.904266,190.412689 
	C333.975220,192.336761 335.751801,196.492142 333.312683,200.896301 
z"/>
<path fill="#F7CB34" opacity="1.000000" stroke="none" 
	d="
M296.921295,103.606682 
	C296.578949,102.854233 296.311005,101.730202 296.053375,100.247879 
	C296.374359,101.004753 296.685028,102.119926 296.921295,103.606682 
z"/>
<path fill="#653152" opacity="1.000000" stroke="none" 
	d="
M189.189514,85.834602 
	C189.285980,85.397461 189.703918,84.991562 190.422760,84.603081 
	C190.319443,85.035614 189.915207,85.450729 189.189514,85.834602 
z"/>
<path fill="#F2ABA1" opacity="1.000000" stroke="none" 
	d="
M31.986858,208.291336 
	C32.212097,208.135956 32.520615,208.228470 32.899452,208.618591 
	C32.669891,208.790543 32.370014,208.664902 31.986858,208.291336 
z"/>
<path fill="#F3ABA0" opacity="1.000000" stroke="none" 
	d="
M220.344757,253.839081 
	C220.041260,254.425186 219.737762,255.011307 219.887695,255.985809 
	C220.341141,256.374207 220.281525,256.396484 220.281525,256.396484 
	C219.514557,258.254425 218.551239,260.058563 218.024124,261.982208 
	C217.111847,265.311371 216.470016,268.714630 215.609726,272.483032 
	C214.047775,272.586578 212.590836,272.293945 210.832153,271.992126 
	C204.823242,269.538177 199.272415,267.798645 192.849152,270.294342 
	C185.612000,273.106262 178.539871,268.979370 175.101242,260.517334 
	C173.971390,257.736908 173.558563,254.665085 172.687592,251.209763 
	C169.463501,250.815872 165.439285,250.324234 161.189163,249.804993 
	C165.725891,242.194214 195.047409,239.164505 215.713608,244.275299 
	C216.018127,246.808517 216.032578,248.808884 215.757645,251.015594 
	C218.162964,255.130768 218.227859,255.165192 220.471985,253.911652 
	C220.418228,253.918915 220.344757,253.839081 220.344757,253.839081 
z"/>
<path fill="#FCFBFC" opacity="1.000000" stroke="none" 
	d="
M220.789276,253.886536 
	C220.344757,253.839081 220.418228,253.918915 220.273407,253.634216 
	C218.768066,252.502747 217.407547,251.656006 216.047028,250.809265 
	C216.032578,248.808884 216.018127,246.808517 216.059296,244.474411 
	C223.693634,240.218933 230.052658,241.106110 235.663055,246.932678 
	C235.526184,249.139847 235.060699,251.236389 234.024841,253.559326 
	C231.967072,254.231293 230.479691,254.676880 228.992325,255.122482 
	C226.406143,254.726318 223.819962,254.330170 220.789276,253.886536 
z"/>
<path fill="#A13E7E" opacity="1.000000" stroke="none" 
	d="
M270.407654,231.923737 
	C271.794159,233.681839 272.798523,235.441345 273.906250,237.511444 
	C263.939392,239.619507 253.869125,241.416946 243.392059,243.129639 
	C251.998657,239.338287 261.012085,235.631699 270.407654,231.923737 
z"/>
<path fill="#EC9092" opacity="1.000000" stroke="none" 
	d="
M150.728195,182.276398 
	C151.278778,182.112686 151.515778,182.265472 151.845245,182.641403 
	C151.286392,188.743927 150.599350,194.678650 149.970520,200.110641 
	C148.498718,194.676392 148.329376,188.618469 150.728195,182.276398 
z"/>
<path fill="#EC9092" opacity="1.000000" stroke="none" 
	d="
M182.003906,202.002594 
	C182.353836,199.759644 182.703751,197.516708 183.053680,195.273758 
	C183.445831,195.356827 183.837997,195.439880 184.230148,195.522949 
	C183.673004,197.532837 183.115875,199.542709 182.279358,201.776306 
	C182.000000,202.000000 182.003906,202.002594 182.003906,202.002594 
z"/>
<path fill="#F95148" opacity="1.000000" stroke="none" 
	d="
M162.874268,199.682007 
	C162.995255,200.577087 162.863785,201.475098 162.732330,202.373108 
	C162.328506,202.267456 161.924667,202.161804 161.520844,202.056152 
	C161.887848,201.265747 162.254837,200.475342 162.874268,199.682007 
z"/>
<path fill="#F95148" opacity="1.000000" stroke="none" 
	d="
M182.268356,184.968109 
	C182.811920,184.092697 183.694092,183.211975 184.868484,182.208191 
	C184.309464,183.044342 183.458206,184.003571 182.268356,184.968109 
z"/>
<path fill="#F95148" opacity="1.000000" stroke="none" 
	d="
M160.069092,206.093018 
	C159.441849,206.043411 158.994614,205.812164 158.547394,205.580917 
	C158.880646,205.244934 159.213898,204.908951 159.547150,204.572968 
	C159.781128,205.019104 160.015121,205.465225 160.069092,206.093018 
z"/>
<path fill="#F95148" opacity="1.000000" stroke="none" 
	d="
M166.224121,197.218719 
	C166.081711,196.694672 166.252609,196.422073 166.749390,196.103455 
	C167.410110,196.336639 167.852676,196.683350 168.295227,197.030075 
	C167.673386,197.154266 167.051559,197.278458 166.224121,197.218719 
z"/>
<path fill="#EC9092" opacity="1.000000" stroke="none" 
	d="
M179.024200,207.020294 
	C177.820724,207.409195 176.617233,207.798096 175.413757,208.186996 
	C175.338959,207.875595 175.264160,207.564178 175.189362,207.252777 
	C176.216660,207.149536 177.243942,207.046310 178.634995,206.970642 
	C178.998749,206.998230 179.024200,207.020294 179.024200,207.020294 
z"/>
<path fill="#F95148" opacity="1.000000" stroke="none" 
	d="
M171.416138,204.041565 
	C171.157013,204.221039 170.902039,204.230911 170.647095,204.240784 
	C170.650818,204.096924 170.654556,203.953079 170.658295,203.809219 
	C170.912292,203.830139 171.166306,203.851044 171.416138,204.041565 
z"/>
<path fill="#EC9092" opacity="1.000000" stroke="none" 
	d="
M179.950836,205.956665 
	C180.130814,205.408295 180.310791,204.859924 180.745514,204.155640 
	C181.000259,203.999710 181.020248,204.013718 181.020248,204.013718 
	C180.850388,204.570465 180.680527,205.127228 180.251801,205.839417 
	C179.992950,205.994858 179.950836,205.956665 179.950836,205.956665 
z"/>
<path fill="#EC9092" opacity="1.000000" stroke="none" 
	d="
M151.592407,204.219910 
	C151.429611,204.080811 151.409576,203.840347 151.389526,203.599899 
	C151.504730,203.772781 151.619949,203.945679 151.592407,204.219910 
z"/>
<path fill="#EC9092" opacity="1.000000" stroke="none" 
	d="
M181.998306,201.998291 
	C181.842072,202.564987 181.687546,203.133423 181.276627,203.857788 
	C181.020248,204.013718 181.000259,203.999710 180.991364,203.991150 
	C181.147949,203.419235 181.313431,202.855896 181.741409,202.147568 
	C182.003906,202.002594 182.000000,202.000000 181.998306,201.998291 
z"/>
<path fill="#A13E7E" opacity="1.000000" stroke="none" 
	d="
M242.732117,243.035278 
	C242.525284,243.346191 242.005585,243.680115 241.147980,243.997940 
	C241.346451,243.673996 241.882843,243.366135 242.732117,243.035278 
z"/>
<path fill="#F95148" opacity="1.000000" stroke="none" 
	d="
M167.708557,191.948334 
	C167.821808,191.703644 168.144302,191.401596 168.713165,191.116150 
	C168.612305,191.385513 168.265060,191.638260 167.708557,191.948334 
z"/>
<path fill="#EC9092" opacity="1.000000" stroke="none" 
	d="
M180.012207,206.015778 
	C179.856812,206.314697 179.682144,206.592712 179.265839,206.945496 
	C179.024200,207.020294 178.998749,206.998230 178.986496,206.984467 
	C179.134125,206.677841 179.294006,206.384979 179.702362,206.024384 
	C179.950836,205.956665 179.992950,205.994858 180.012207,206.015778 
z"/>
<path fill="#F95148" opacity="1.000000" stroke="none" 
	d="
M163.492371,197.487778 
	C163.514648,197.478958 163.470078,197.496597 163.492371,197.487778 
z"/>
<path fill="#EC9092" opacity="1.000000" stroke="none" 
	d="
M184.438629,192.469727 
	C184.505676,192.425293 184.371597,192.514145 184.438629,192.469727 
z"/>
<path fill="#653152" opacity="1.000000" stroke="none" 
	d="
M229.051758,255.399139 
	C230.479691,254.676880 231.967072,254.231293 233.839249,253.856705 
	C233.058990,254.904816 231.893936,255.881912 230.398102,256.947021 
	C229.748611,256.581940 229.429901,256.128876 229.051758,255.399139 
z"/>
<path fill="#EC9092" opacity="1.000000" stroke="none" 
	d="
M163.110626,144.270172 
	C164.966644,145.701447 166.957214,146.964493 167.697159,148.746765 
	C168.034286,149.558823 166.050323,152.353638 164.852051,152.541031 
	C163.128204,152.810608 160.130051,152.039047 159.504715,150.793579 
	C158.059753,147.915741 159.265549,145.295624 163.110626,144.270172 
z"/>
<path fill="#FCFBFC" opacity="1.000000" stroke="none" 
	d="
M53.360886,195.546875 
	C54.254108,197.440811 54.828449,199.171249 55.597897,200.810089 
	C58.546108,207.089417 58.568493,207.076324 52.047501,210.158737 
	C49.499634,211.363098 46.842751,212.388855 44.439701,213.835205 
	C40.930523,215.947342 38.869209,215.262650 37.159924,211.461838 
	C32.536137,201.180252 27.735615,190.974609 22.801804,180.837860 
	C21.021717,177.180588 21.559437,175.644196 25.756556,174.683792 
	C29.005383,173.940399 32.254829,172.251511 34.938095,170.231293 
	C38.094219,167.855026 40.005928,167.650620 41.751850,171.518951 
	C44.547325,177.712692 47.508755,183.831543 50.771515,190.014755 
	C51.805866,191.812088 52.468735,193.576706 53.360886,195.546875 
z"/>
<path fill="#FDCD2E" opacity="1.000000" stroke="none" 
	d="
M292.362000,108.544968 
	C290.417847,110.828262 288.155518,112.718826 285.833893,114.533562 
	C281.002350,118.310265 275.450806,117.975082 272.064331,113.748100 
	C268.592407,109.414383 269.414276,104.306595 274.271759,100.205818 
	C274.903656,99.672348 275.637573,99.259720 276.953186,98.748917 
	C278.056427,98.138382 278.530701,97.570045 279.004974,97.001709 
	C279.795319,96.388329 280.585693,95.774956 281.651062,95.111221 
	C282.205048,95.315811 282.484009,95.570755 282.910492,96.460373 
	C278.964203,99.888565 281.545044,103.966972 280.825623,107.620789 
	C280.331360,108.304832 280.074951,108.823929 279.818573,109.343033 
	C280.100983,109.442696 280.383362,109.542351 280.665771,109.642014 
	C280.800232,108.919930 280.934662,108.197845 281.401093,107.172691 
	C284.834442,108.779877 287.985565,109.598389 291.278687,107.305138 
	C291.524780,107.576057 291.770905,107.846977 292.362000,108.544968 
M278.180542,105.145569 
	C278.127869,105.556671 278.075195,105.967773 278.022522,106.378876 
	C278.170929,106.360428 278.443726,106.358330 278.448669,106.321030 
	C278.502838,105.908539 278.515442,105.490593 278.180542,105.145569 
M282.811890,111.481346 
	C282.811890,111.481346 283.141663,111.584557 283.141663,111.584557 
	C283.141663,111.584557 282.931335,111.346291 282.811890,111.481346 
z"/>
<path fill="#F7CB34" opacity="1.000000" stroke="none" 
	d="
M268.708557,95.630630 
	C270.592316,94.773262 272.199097,94.098671 273.805847,93.424088 
	C274.105682,94.032738 274.405518,94.641380 274.705353,95.250031 
	C272.394379,96.700874 270.083374,98.151726 267.772369,99.602570 
	C267.378510,99.180466 266.984650,98.758362 266.590790,98.336250 
	C267.204376,97.495308 267.817993,96.654366 268.708557,95.630630 
z"/>
<path fill="#9C3E7F" opacity="1.000000" stroke="none" 
	d="
M278.737732,97.048950 
	C278.530701,97.570045 278.056427,98.138382 277.289093,98.611778 
	C277.487518,98.043289 277.979004,97.569740 278.737732,97.048950 
z"/>
<path fill="#000000" opacity="1.000000" stroke="none" 
	d="
M211.912766,64.635864 
	C209.217896,66.676079 206.551285,68.350288 203.532043,70.057396 
	C203.734070,64.526855 201.947632,61.839962 195.633865,61.618614 
	C190.511337,61.439026 185.462189,59.165794 180.189758,57.487652 
	C188.770691,56.419292 197.415192,57.112556 205.707016,60.141537 
	C207.983871,60.973270 209.873627,62.864708 211.912766,64.635864 
z"/>
<path fill="#653152" opacity="1.000000" stroke="none" 
	d="
M220.577301,256.590088 
	C220.281525,256.396484 220.341141,256.374207 220.314941,256.352722 
	C221.201263,256.331207 222.113785,256.331207 223.026306,256.331207 
	C223.004181,256.615875 222.982056,256.900543 222.959915,257.185211 
	C222.264313,257.051361 221.568695,256.917511 220.577301,256.590088 
z"/>
<path fill="#67AFEE" opacity="1.000000" stroke="none" 
	d="
M281.063507,107.455856 
	C281.545044,103.966972 278.964203,99.888565 283.303314,96.869049 
	C285.326477,96.458557 287.104370,96.274078 289.362976,96.383186 
	C290.232971,96.989899 290.622162,97.303032 291.011383,97.616165 
	C294.233765,100.407204 293.629150,103.505402 291.509827,107.005875 
	C287.985565,109.598389 284.834442,108.779877 281.361450,107.187683 
	C280.989777,107.505745 281.063507,107.455856 281.063507,107.455856 
z"/>
<path fill="#F7CB34" opacity="1.000000" stroke="none" 
	d="
M290.928772,97.361794 
	C290.622162,97.303032 290.232971,96.989899 289.753662,96.391617 
	C290.057800,96.440117 290.451965,96.773766 290.928772,97.361794 
z"/>
<path fill="#653152" opacity="1.000000" stroke="none" 
	d="
M215.757645,251.015594 
	C217.407547,251.656006 218.768066,252.502747 220.327164,253.626953 
	C218.227859,255.165192 218.162964,255.130768 215.757645,251.015594 
z"/>
<path fill="#F7CB34" opacity="1.000000" stroke="none" 
	d="
M281.029419,107.490753 
	C280.934662,108.197845 280.800232,108.919930 280.665771,109.642014 
	C280.383362,109.542351 280.100983,109.442696 279.818573,109.343033 
	C280.074951,108.823929 280.331360,108.304832 280.825623,107.620789 
	C281.063507,107.455856 280.989777,107.505745 281.029419,107.490753 
z"/>
<path fill="#F7CB34" opacity="1.000000" stroke="none" 
	d="
M278.359924,105.109848 
	C278.515442,105.490593 278.502838,105.908539 278.448669,106.321030 
	C278.443726,106.358330 278.170929,106.360428 278.022522,106.378876 
	C278.075195,105.967773 278.127869,105.556671 278.359924,105.109848 
z"/>
<path fill="#F7CB34" opacity="1.000000" stroke="none" 
	d="
M282.871613,111.413818 
	C282.931335,111.346291 283.141663,111.584557 283.141663,111.584557 
	C283.141663,111.584557 282.811890,111.481346 282.871613,111.413818 
z"/>
</svg>