<svg width="255" height="194" viewBox="0 0 255 194" fill="none" xmlns="http://www.w3.org/2000/svg">
<circle cx="129" cy="97" r="97" fill="white"/>
<g filter="url(#filter0_d_824_2047)">
<path d="M206.629 75.3262L189.84 161.509L115.238 146.976L132.026 60.7936L206.629 75.3262Z" fill="#F79011"/>
<path d="M217.239 83.7697C213.032 82.9503 208.834 83.1567 204.9 84.3065L201.83 100.068C205.356 97.0498 210.039 95.6176 214.752 96.5356C223.154 98.1724 228.629 106.691 226.918 115.476C225.207 124.26 216.933 130.106 208.531 128.469C203.819 127.551 200.015 124.466 197.881 120.341L194.811 136.101C198.024 138.649 201.839 140.411 206.045 141.231C221.2 144.183 236.045 133.701 239.131 117.855C242.217 102.014 232.393 86.7219 217.239 83.7697Z" fill="#F79011"/>
<path d="M208.034 68.1113C207.507 70.8161 206.171 73.1173 204.305 74.8719L134.401 61.2545C133.279 58.9178 132.905 56.2835 133.432 53.5787C134.754 46.792 141.425 42.3776 148.261 43.7093C151.772 44.3932 154.628 46.4277 156.449 49.1961C159.796 42.656 167.134 38.8644 174.724 40.3431L175.393 40.4734C182.642 42.1809 187.757 48.3002 188.34 55.4085C191.072 53.527 194.483 52.7134 197.994 53.3973C204.875 54.7378 209.356 61.3246 208.034 68.1113Z" fill="#EFD510"/>
<path d="M204.305 74.8703L169.994 68.1865L175.393 40.4718C182.641 42.1793 187.756 48.2986 188.34 55.4069C191.072 53.5254 194.483 52.7118 197.994 53.3957C204.875 54.7362 209.356 61.323 208.034 68.1097C207.507 70.8145 206.171 73.1157 204.305 74.8703Z" fill="#F2DD40"/>
<path d="M118.072 145.063L187.954 158.676L203.82 77.2302L133.938 63.6172L118.072 145.063ZM189.405 163.885L114.776 149.348C113.47 149.093 112.613 147.822 112.868 146.513L129.658 60.3208C129.913 59.0106 131.185 58.155 132.491 58.4096L207.12 72.9473C208.427 73.2019 209.284 74.4722 209.029 75.7823L192.239 161.974C191.984 163.284 190.712 164.14 189.405 163.885Z" fill="#2C2D34"/>
<path d="M197.476 135.076C200.153 136.937 203.185 138.212 206.499 138.858C220.353 141.557 233.92 131.929 236.752 117.393C239.582 102.862 230.622 88.8417 216.768 86.1429C213.459 85.4984 210.176 85.5386 206.985 86.2616L205.249 95.1692C208.393 93.875 211.833 93.5061 215.206 94.1631C224.937 96.0587 231.252 105.83 229.283 115.939C227.313 126.052 217.792 132.738 208.061 130.843C204.688 130.186 201.638 128.552 199.21 126.173L197.476 135.076ZM205.575 143.604C201.002 142.713 196.882 140.827 193.306 138.003C192.598 137.441 192.266 136.529 192.439 135.641L195.509 119.881C195.706 118.87 196.515 118.097 197.536 117.951C198.556 117.814 199.554 118.324 200.029 119.234C201.893 122.849 205.158 125.352 208.985 126.097C216.1 127.483 223.075 122.512 224.536 115.014C225.996 107.521 221.396 100.295 214.281 98.9086C210.454 98.1631 206.489 99.2528 203.4 101.902C202.617 102.572 201.505 102.676 200.613 102.157C199.721 101.639 199.261 100.618 199.458 99.6075L202.529 83.8421C202.702 82.9546 203.352 82.2391 204.219 81.9839C208.599 80.7047 213.131 80.5088 217.692 81.3974C234.158 84.6048 244.839 101.167 241.498 118.318C238.157 135.469 222.04 146.812 205.575 143.604Z" fill="#2C2D34"/>
<path d="M136.128 59.1161L203.478 72.2358C204.593 70.946 205.347 69.3884 205.681 67.6702C206.749 62.1889 203.093 56.8467 197.538 55.7646C194.809 55.233 192.031 55.8099 189.717 57.3934C188.996 57.8738 188.102 57.9458 187.315 57.5758C186.539 57.2032 186.016 56.4508 185.947 55.5954C185.408 49.2492 180.607 43.9495 174.276 42.7162C167.944 41.4828 161.505 44.593 158.619 50.2718C158.234 51.0388 157.47 51.5451 156.607 51.5938C155.737 51.6511 154.927 51.2373 154.45 50.5185C152.898 48.1867 150.54 46.6094 147.816 46.0787C142.257 44.9957 136.867 48.5759 135.8 54.0572C135.464 55.78 135.579 57.5021 136.128 59.1161ZM203.835 77.2311L133.923 63.6122C133.171 63.4658 132.529 62.9716 132.202 62.2822C130.846 59.4319 130.446 56.2708 131.057 53.1334C132.635 45.0373 140.568 39.7409 148.74 41.333C151.566 41.8833 154.115 43.2026 156.175 45.1262C160.55 39.4419 167.935 36.5553 175.2 37.9705C182.475 39.3876 188.227 44.8332 190.143 51.743C192.779 50.7344 195.643 50.4696 198.463 51.0189C206.636 52.611 212.006 60.4989 210.429 68.5949C209.818 71.7273 208.261 74.5076 205.923 76.6431C205.362 77.1595 204.586 77.3776 203.835 77.2311Z" fill="#2C2D34"/>
<path d="M186.033 113.943C183.422 126.138 171.419 133.908 159.223 131.296C147.028 128.685 139.258 116.682 141.87 104.486C144.481 92.2911 156.484 84.5207 168.679 87.132C180.876 89.7435 188.645 101.748 186.033 113.943Z" fill="#FAB80A"/>
<path d="M181.419 112.955C179.353 122.601 169.859 128.747 160.212 126.681C150.565 124.615 144.42 115.121 146.485 105.475C148.551 95.828 158.045 89.6823 167.692 91.7479C177.339 93.8135 183.484 103.308 181.419 112.955Z" fill="#F79011"/>
<path d="M160.31 117.242C160.005 117.177 159.705 117.372 159.639 117.676L159.13 120.055C159.065 120.36 159.259 120.66 159.564 120.725C159.869 120.79 160.17 120.596 160.235 120.291L160.744 117.913C160.809 117.608 160.615 117.308 160.31 117.242Z" fill="#F79011"/>
<path d="M163.988 118.03C163.683 117.965 163.383 118.159 163.318 118.464L162.808 120.842C162.743 121.147 162.938 121.448 163.242 121.513C163.547 121.578 163.848 121.384 163.913 121.079L164.422 118.701C164.488 118.396 164.293 118.095 163.988 118.03Z" fill="#F79011"/>
<path d="M164.15 115.326L161.269 114.709L161.53 113.493C161.7 112.698 162.483 112.191 163.279 112.361C164.074 112.532 164.581 113.315 164.41 114.11L164.15 115.326Z" fill="#F79011"/>
<path d="M152.179 89.945C151.857 90.1406 151.54 90.3448 151.229 90.5566C151.229 90.5578 151.23 90.5593 151.23 90.5593L152.403 92.3699C152.487 92.5013 152.616 92.5857 152.758 92.6161C152.899 92.6463 153.053 92.6225 153.184 92.5373C153.445 92.3676 153.52 92.0183 153.351 91.7568L152.179 89.945ZM146.531 119.792L144.719 120.963C144.707 120.972 144.696 120.983 144.684 120.992C144.878 121.31 145.082 121.624 145.291 121.934C145.306 121.925 145.319 121.92 145.334 121.912L147.145 120.74C147.406 120.569 147.481 120.22 147.313 119.959C147.142 119.696 146.793 119.621 146.531 119.792ZM159.806 128.573C159.501 128.508 159.201 128.703 159.136 129.007L158.684 131.116C158.68 131.135 158.68 131.153 158.677 131.172C158.858 131.216 159.04 131.257 159.223 131.296C159.406 131.335 159.588 131.372 159.771 131.406C159.777 131.388 159.785 131.371 159.789 131.352L160.24 129.244C160.306 128.939 160.112 128.639 159.806 128.573ZM175.514 125.998C175.344 125.735 174.994 125.66 174.732 125.83C174.471 126 174.397 126.349 174.565 126.611L175.737 128.422C175.747 128.436 175.758 128.446 175.767 128.459C176.085 128.263 176.398 128.06 176.707 127.849C176.699 127.835 176.694 127.821 176.685 127.808L175.514 125.998ZM186.15 113.361C186.142 113.359 186.135 113.355 186.127 113.353L184.019 112.902C183.713 112.836 183.413 113.03 183.348 113.335C183.283 113.641 183.477 113.941 183.783 114.006L185.89 114.458C185.9 114.46 185.908 114.459 185.915 114.46C185.957 114.289 185.996 114.116 186.033 113.943C186.075 113.749 186.114 113.554 186.15 113.361ZM144.134 104.361L142.026 103.91C142.017 103.908 142.01 103.909 142.001 103.907C141.955 104.099 141.911 104.292 141.87 104.486C141.833 104.66 141.798 104.834 141.765 105.007C141.773 105.008 141.78 105.012 141.789 105.014L143.897 105.466C144.202 105.531 144.503 105.337 144.568 105.031C144.634 104.727 144.438 104.427 144.134 104.361ZM168.126 87.0211L167.676 89.124C167.611 89.4288 167.805 89.7285 168.109 89.7938C168.415 89.8593 168.715 89.6653 168.78 89.3605L169.231 87.2576C169.048 87.2147 168.865 87.1717 168.679 87.132C168.495 87.0925 168.31 87.0566 168.126 87.0211ZM180.96 98.6549C181.101 98.6851 181.255 98.6613 181.385 98.5759L183.196 97.4041C183.197 97.4031 183.197 97.4031 183.199 97.4022C183.001 97.0816 182.796 96.7654 182.583 96.4552C182.583 96.4552 182.583 96.4552 182.581 96.455L180.771 97.628C180.51 97.7977 180.435 98.147 180.604 98.4085C180.689 98.5401 180.819 98.6247 180.96 98.6549Z" fill="#F79011"/>
<path d="M183.328 120.926C183.059 120.762 182.704 120.833 182.537 121.085C182.375 121.329 182.205 121.575 182.032 121.814C181.853 122.058 181.922 122.399 182.184 122.573C182.249 122.617 182.321 122.646 182.393 122.662C182.613 122.709 182.848 122.631 182.981 122.446C183.165 122.196 183.343 121.938 183.515 121.68C183.681 121.428 183.598 121.091 183.328 120.926Z" fill="#3A1F16"/>
<path d="M183.372 96.6354C183.368 96.6308 183.366 96.6254 183.365 96.6213C183.36 96.6152 183.356 96.6105 183.351 96.6044C180.129 91.6461 175.024 87.9116 168.799 86.5786C162.573 85.2454 156.386 86.5622 151.417 89.7664C151.411 89.7702 151.404 89.7726 151.398 89.7764C151.394 89.7792 151.389 89.7833 151.385 89.7861C146.407 93.0077 142.654 98.1235 141.318 104.366C138.645 116.846 146.624 129.174 159.106 131.846C166.714 133.475 174.582 131.196 180.152 125.749C180.375 125.532 180.379 125.174 180.161 124.951C179.944 124.728 179.585 124.724 179.362 124.942C178.439 125.845 177.448 126.654 176.404 127.37L175.514 125.995C175.345 125.733 174.996 125.658 174.733 125.828C174.471 125.997 174.396 126.346 174.566 126.609L175.458 127.986C170.846 130.816 165.319 131.869 159.896 130.851L160.241 129.242C160.306 128.937 160.112 128.636 159.807 128.571C159.502 128.506 159.201 128.7 159.136 129.005L158.791 130.616C153.294 129.293 148.755 125.985 145.778 121.622L147.146 120.738C147.407 120.567 147.482 120.218 147.313 119.957C147.142 119.694 146.793 119.619 146.532 119.789L145.165 120.673C142.416 116.169 141.266 110.677 142.317 105.125L143.898 105.464C144.202 105.529 144.503 105.335 144.569 105.029C144.634 104.725 144.439 104.424 144.135 104.359L142.555 104.02C143.884 98.5373 147.187 94.0097 151.542 91.0376L152.403 92.3677C152.488 92.4982 152.617 92.5829 152.759 92.6131C152.9 92.6434 153.053 92.6193 153.185 92.5351C153.446 92.3661 153.521 92.0158 153.352 91.7536L152.491 90.4247C156.987 87.6811 162.467 86.5302 168.008 87.5714L167.676 89.1211C167.611 89.4254 167.805 89.7261 168.111 89.7915C168.415 89.8567 168.716 89.6621 168.781 89.3577L169.113 87.8081C174.595 89.1271 179.123 92.421 182.101 96.765L180.773 97.625C180.51 97.7949 180.435 98.1452 180.605 98.4065C180.69 98.537 180.819 98.6216 180.961 98.6519C181.102 98.6821 181.255 98.658 181.385 98.5736L182.716 97.7126C185.472 102.207 186.632 107.691 185.599 113.237L184.019 112.899C183.713 112.834 183.414 113.028 183.349 113.333C183.283 113.638 183.477 113.939 183.782 114.004L185.363 114.343C185.083 115.518 184.706 116.671 184.24 117.776C184.119 118.064 184.254 118.395 184.542 118.516C184.829 118.637 185.16 118.502 185.282 118.215C185.842 116.882 186.281 115.484 186.586 114.059C187.923 107.817 186.595 101.613 183.372 96.6354Z" fill="#3A1F16"/>
<path d="M160.33 126.128C151.004 124.131 145.041 114.918 147.038 105.591C149.035 96.2644 158.247 90.3024 167.574 92.2995C176.9 94.2966 182.865 103.508 180.868 112.835C178.871 122.162 169.657 128.125 160.33 126.128ZM167.81 91.1943C157.875 89.0669 148.061 95.4194 145.934 105.355C143.806 115.291 150.159 125.105 160.094 127.232C170.03 129.36 179.844 123.008 181.972 113.071C184.099 103.136 177.747 93.3219 167.81 91.1943Z" fill="#3A1F16"/>
<path d="M185.994 114.086C183.401 126.193 171.411 133.896 159.207 131.283C147.003 128.67 139.218 116.732 141.811 104.625C144.403 92.5186 156.393 84.8148 168.597 87.4281C180.802 90.0414 188.586 101.979 185.994 114.086Z" stroke="#3A1F16" stroke-width="1.07263"/>
<path d="M160.358 105.215C160.804 105.311 161.269 105.225 161.652 104.978C162.034 104.73 162.303 104.341 162.398 103.895C162.494 103.449 162.408 102.984 162.16 102.601C161.913 102.219 161.523 101.95 161.078 101.855C160.632 101.759 160.167 101.845 159.784 102.093C159.402 102.34 159.133 102.73 159.038 103.175C158.942 103.621 159.028 104.086 159.275 104.469C159.523 104.851 159.912 105.12 160.358 105.215ZM171.232 105.787C171.137 106.232 170.868 106.622 170.485 106.869C170.103 107.117 169.638 107.202 169.192 107.107C168.746 107.012 168.357 106.743 168.109 106.36C167.862 105.978 167.776 105.513 167.871 105.067C167.967 104.621 168.235 104.232 168.618 103.984C169.001 103.737 169.466 103.651 169.911 103.746C170.357 103.842 170.747 104.11 170.994 104.493C171.242 104.876 171.327 105.341 171.232 105.787Z" fill="#F79011"/>
<path d="M175.959 99.6531L175.866 100.089C175.661 101.049 175.159 101.856 174.48 102.454C174.964 103.495 175.132 104.695 174.875 105.897C174.605 107.159 174.131 108.137 173.47 108.867C173.67 110.063 173.653 111.316 173.384 112.573C172.655 115.979 170.252 118.596 167.225 119.748C167.414 120.427 167.486 121.147 167.421 121.879C167.338 122.83 166.428 123.319 165.652 123.152L156.893 121.277C156.116 121.11 155.487 120.293 155.8 119.391L155.8 119.391C156.033 118.719 156.378 118.111 156.808 117.582C155.667 116.469 154.81 115.094 154.314 113.574C153.772 111.914 153.679 110.139 154.045 108.432L175.959 99.6531ZM175.959 99.6531L175.523 99.5596M175.959 99.6531L175.523 99.5596M165.701 121.38L166.017 121.448L166.024 121.449L166.024 121.449C166.021 121.449 166.019 121.448 166.017 121.448C165.986 121.442 165.955 121.441 165.924 121.447L165.965 121.683L165.966 121.685L165.967 121.693L165.967 121.694L165.974 121.734M165.701 121.38L165.839 121.478C165.866 121.462 165.894 121.452 165.924 121.447L165.965 121.683L165.966 121.685L165.967 121.693L165.967 121.694L165.974 121.734M165.701 121.38C165.701 121.496 165.695 121.611 165.685 121.726M165.701 121.38L165.685 121.726M165.974 121.734L166.006 121.754L165.974 121.734ZM165.685 121.726L165.685 121.726L165.685 121.732C165.685 121.73 165.685 121.728 165.685 121.726ZM175.523 99.5596L170.823 98.5533C169.87 98.349 168.923 98.4751 168.1 98.8487L164.603 98.1C164.005 97.4221 163.193 96.9194 162.239 96.7152L157.548 95.7106L157.111 95.6171M175.523 99.5596L157.111 95.6171M157.111 95.6171L157.018 96.0539M157.111 95.6171L157.018 96.0539M157.018 96.0539C156.822 96.9736 156.927 97.9286 157.313 98.7789C156.446 99.5302 155.801 100.556 155.544 101.758C155.288 102.954 155.303 103.993 155.565 104.897M157.018 96.0539L155.565 104.897M157.115 107.26C157.228 107.36 157.346 107.457 157.469 107.551L157.115 107.26ZM157.115 107.26C157.184 107.124 157.258 106.99 157.336 106.859L157.115 107.26ZM155.565 104.897C154.851 105.934 154.325 107.126 154.045 108.431L155.565 104.897ZM158.091 118.09L157.825 118.448C157.934 118.529 158.045 118.608 158.158 118.685C158.238 118.586 158.322 118.492 158.411 118.401L158.091 118.09ZM157.574 119.64L157.258 119.572L157.258 119.572L157.249 119.57C157.252 119.571 157.255 119.572 157.258 119.572C157.288 119.579 157.316 119.591 157.341 119.609C157.369 119.627 157.392 119.651 157.411 119.679C157.411 119.679 157.411 119.679 157.411 119.679C157.411 119.679 157.411 119.679 157.411 119.679C157.411 119.679 157.411 119.68 157.411 119.68C157.439 119.723 157.456 119.771 157.462 119.822C157.467 119.869 157.462 119.917 157.447 119.962C157.446 119.965 157.445 119.969 157.443 119.973L157.444 119.973L157.447 119.962C157.485 119.852 157.527 119.745 157.574 119.64ZM165.429 119.861C165.474 119.98 165.513 120.1 165.547 120.222C165.681 120.197 165.815 120.169 165.948 120.138L165.847 119.703L165.429 119.861ZM163.657 120.386L163.582 119.946L163.576 120.392C163.589 120.392 163.603 120.392 163.616 120.392C163.63 120.39 163.643 120.388 163.657 120.386ZM159.689 119.53C159.7 119.537 159.711 119.544 159.722 119.551C159.734 119.557 159.746 119.562 159.758 119.567L159.936 119.158L159.689 119.53ZM165.463 106.575L163.987 106.259C164.191 106.037 164.503 105.926 164.817 105.992C165.133 106.065 165.369 106.292 165.463 106.575ZM161.991 105.503C161.469 105.841 160.835 105.958 160.227 105.828C159.619 105.698 159.088 105.331 158.75 104.809C158.412 104.287 158.295 103.653 158.426 103.045C158.556 102.437 158.922 101.906 159.444 101.568C159.966 101.23 160.601 101.114 161.208 101.244C161.816 101.374 162.348 101.74 162.685 102.262C163.023 102.784 163.14 103.419 163.01 104.026C162.879 104.634 162.513 105.166 161.991 105.503ZM170.825 107.395C170.303 107.733 169.669 107.849 169.061 107.719C168.453 107.589 167.922 107.223 167.584 106.701C167.246 106.179 167.129 105.544 167.26 104.936C167.39 104.329 167.756 103.797 168.278 103.46C168.8 103.122 169.434 103.005 170.042 103.135C170.65 103.265 171.181 103.632 171.519 104.154C171.857 104.675 171.974 105.31 171.844 105.918C171.713 106.526 171.347 107.057 170.825 107.395Z" fill="#FCF3C5" stroke="#3A1F16" stroke-width="0.892506"/>
<path d="M164.864 120.872L165.426 120.649L158.473 119.503L158.215 119.105" stroke="#3A1F16" stroke-width="0.335196"/>
</g>
<g filter="url(#filter1_d_824_2047)">
<path d="M35.9424 56.9504L48.2406 121.603L104.206 110.957L91.9077 46.3047L35.9424 56.9504Z" fill="#F79011"/>
<path d="M27.9623 63.2463C31.1179 62.6461 34.264 62.8147 37.2085 63.6895L39.4576 75.5131C36.8248 73.2396 33.3192 72.1506 29.784 72.8231C23.4807 74.0221 19.3487 80.3892 20.6023 86.9792C21.8558 93.5692 28.0376 97.9782 34.3409 96.7792C37.8761 96.1067 40.7371 93.8067 42.3506 90.7217L44.5996 102.545C42.1827 104.444 39.3175 105.752 36.1619 106.352C24.793 108.515 13.7012 100.609 11.44 88.7221C9.17945 76.8384 16.5934 65.4089 27.9623 63.2463Z" fill="#F79011"/>
<path d="M34.9124 51.5387C35.2984 53.5677 36.292 55.297 37.6851 56.6183L90.1259 46.643C90.9743 44.8953 91.2636 42.922 90.8777 40.893C89.9092 35.8017 84.9237 32.4709 79.7955 33.4464C77.1616 33.9474 75.0138 35.4629 73.64 37.5318C71.1532 32.6187 65.6656 29.7525 59.9714 30.8357L59.4695 30.9311C54.031 32.187 50.1768 36.7567 49.7158 42.0827C47.6746 40.6633 45.1205 40.0422 42.4866 40.5433C37.3244 41.5252 33.944 46.4474 34.9124 51.5387Z" fill="#EFD510"/>
<path d="M37.6855 56.6188L63.4248 51.7227L59.4699 30.9316C54.0314 32.1875 50.1773 36.7572 49.7163 42.0832C47.675 40.6638 45.1209 40.0427 42.487 40.5438C37.3248 41.5257 33.9444 46.4479 34.9128 51.5392C35.2988 53.5682 36.2925 55.2975 37.6855 56.6188Z" fill="#F2DD40"/>
<path d="M102.088 109.515L49.6639 119.487L38.0416 58.388L90.4654 48.4159L102.088 109.515ZM48.5586 123.387L104.544 112.737C105.524 112.551 106.171 111.601 105.984 110.619L93.6844 45.9593C93.4974 44.9764 92.5472 44.3309 91.567 44.5174L35.5819 55.1669C34.6017 55.3533 33.9548 56.3026 34.1417 57.2855L46.4412 121.945C46.6281 122.927 47.5784 123.573 48.5586 123.387Z" fill="#2C2D34"/>
<path d="M42.6049 101.767C40.5924 103.154 38.3152 104.1 35.829 104.573C25.436 106.549 15.299 99.2885 13.2248 88.384C11.1512 77.483 17.9136 67.0037 28.3066 65.0268C30.7889 64.5546 33.2496 64.5956 35.6392 65.1481L36.9103 71.8304C34.5585 70.85 31.9809 70.5621 29.4511 71.0433C22.151 72.4319 17.3852 79.735 18.8277 87.3182C20.2709 94.905 27.3851 99.9482 34.6852 98.5596C37.2151 98.0784 39.5069 96.8642 41.3345 95.0888L42.6049 101.767ZM36.5063 108.133C39.9362 107.481 43.0308 106.08 45.7202 103.975C46.2528 103.557 46.505 102.874 46.3784 102.208L44.1294 90.3851C43.9851 89.6265 43.3814 89.0445 42.6162 88.9316C41.8524 88.8259 41.1027 89.2047 40.7432 89.8853C39.3345 92.5882 36.8789 94.4535 34.008 94.9996C28.6708 96.0148 23.4586 92.266 22.3886 86.6408C21.3193 81.0197 24.791 75.6186 30.1283 74.6033C32.9991 74.0572 35.9674 74.8871 38.2741 76.8832C38.859 77.3878 39.6921 77.4693 40.3624 77.0834C41.0328 76.6978 41.3806 75.9344 41.2364 75.1762L38.9867 63.3494C38.8601 62.6836 38.3755 62.1451 37.7264 61.951C34.4473 60.9776 31.0515 60.8158 27.6294 61.4667C15.2776 63.8163 7.21658 76.1952 9.66397 89.0613C12.1114 101.928 24.1544 110.483 36.5063 108.133Z" fill="#2C2D34"/>
<path d="M88.8383 45.0341L38.3143 54.6447C37.4827 53.6743 36.9229 52.5044 36.6777 51.2153C35.8955 47.1034 38.6537 43.1113 42.8206 42.3187C44.868 41.9292 46.948 42.3708 48.6772 43.5654C49.2167 43.9279 49.8864 43.9848 50.4773 43.7101C51.0599 43.4333 51.4549 42.8712 51.5095 42.2302C51.9344 37.4753 55.5504 33.5189 60.3 32.6154C65.0496 31.712 69.8657 34.0644 72.0105 38.3305C72.2965 38.9067 72.8672 39.2887 73.5139 39.328C74.1657 39.3738 74.7739 39.0664 75.1345 38.5292C76.3049 36.7866 78.0776 35.6121 80.1213 35.2234C84.2919 34.43 88.3194 37.1313 89.1015 41.2433C89.3474 42.5357 89.2556 43.8261 88.8383 45.0341ZM38.0302 58.3877L90.4768 48.4114C91.0407 48.3041 91.5236 47.9358 91.7706 47.4202C92.7964 45.2882 93.1067 42.9202 92.659 40.5666C91.5037 34.4931 85.5751 30.497 79.444 31.6632C77.3247 32.0664 75.4093 33.0468 73.8587 34.4817C70.5985 30.2067 65.0726 28.0187 59.6228 29.0553C54.1654 30.0934 49.8363 34.1561 48.3772 39.3288C46.4043 38.5641 44.2589 38.3562 42.1433 38.7586C36.0123 39.9248 31.9611 45.8193 33.1164 51.8928C33.5634 54.2426 34.7215 56.3317 36.4667 57.9401C36.8857 58.329 37.4663 58.495 38.0302 58.3877Z" fill="#2C2D34"/>
<path d="M51.2514 85.9631C53.1683 95.1127 62.1393 100.976 71.2894 99.0587C80.4387 97.1418 86.3018 88.1709 84.3848 79.0212C82.468 69.872 73.4968 64.008 64.3475 65.9249C55.1974 67.842 49.3345 76.8138 51.2514 85.9631Z" fill="#FAB80A"/>
<path d="M54.714 85.2377C56.2302 92.4746 63.3264 97.1124 70.5638 95.5961C77.8012 94.0798 82.439 86.9836 80.9228 79.7466C79.4065 72.5093 72.3103 67.8714 65.0729 69.3878C57.8355 70.9041 53.1977 78.0003 54.714 85.2377Z" fill="#F79011"/>
<path d="M70.5216 88.5217C70.7503 88.4738 70.9749 88.6205 71.0228 88.8493L71.3966 90.6335C71.4445 90.8622 71.2978 91.0867 71.069 91.1347C70.8403 91.1826 70.6158 91.0358 70.5679 90.8071L70.1941 89.0229C70.1461 88.7942 70.2929 88.5696 70.5216 88.5217Z" fill="#F79011"/>
<path d="M67.7616 89.1018C67.9903 89.0539 68.2148 89.2006 68.2628 89.4293L68.6366 91.2136C68.6845 91.4423 68.5378 91.6668 68.309 91.7147C68.0803 91.7627 67.8558 91.6159 67.8079 91.3872L67.434 89.603C67.3861 89.3742 67.5329 89.1497 67.7616 89.1018Z" fill="#F79011"/>
<path d="M67.6495 87.0749L69.8108 86.6221L69.6196 85.7096C69.4946 85.113 68.9093 84.7304 68.3126 84.8554C67.7159 84.9804 67.3333 85.5658 67.4583 86.1625L67.6495 87.0749Z" fill="#F79011"/>
<path d="M76.7061 68.088C76.9464 68.2357 77.1834 68.3898 77.4159 68.5496C77.4161 68.5505 77.4154 68.5516 77.4154 68.5516L76.5302 69.9048C76.4668 70.003 76.3696 70.0658 76.263 70.0882C76.1572 70.1103 76.0421 70.092 75.9437 70.0277C75.749 69.8996 75.6941 69.6376 75.821 69.4421L76.7061 68.088ZM80.8404 90.4778L82.1944 91.362C82.2034 91.3687 82.2116 91.3765 82.2206 91.3833C82.0743 91.6216 81.9207 91.8562 81.7625 92.0874C81.7518 92.0811 81.7415 92.0771 81.7307 92.0707L80.3767 91.1866C80.1818 91.0578 80.127 90.7959 80.254 90.6007C80.3826 90.4042 80.6447 90.3493 80.8404 90.4778ZM70.8615 97.016C71.0901 96.9681 71.3142 97.1149 71.3621 97.3436L71.6936 98.9255C71.6965 98.9396 71.6966 98.9535 71.6986 98.9678C71.5629 98.9996 71.4268 99.0299 71.2894 99.0587C71.1521 99.0875 71.0153 99.1143 70.8781 99.1397C70.8734 99.126 70.8679 99.1132 70.8649 99.0992L70.5335 97.5172C70.4856 97.2885 70.6319 97.064 70.8615 97.016ZM59.0964 95.0334C59.2241 94.8371 59.487 94.7821 59.6828 94.9106C59.8775 95.0384 59.9324 95.3003 59.8056 95.4965L58.9213 96.8495C58.9131 96.8599 58.9053 96.8677 58.8979 96.8778C58.6603 96.7295 58.4263 96.5761 58.1958 96.4168C58.2021 96.4068 58.2057 96.3965 58.2121 96.3866L59.0964 95.0334ZM51.1655 85.5264C51.1719 85.5251 51.1769 85.5221 51.1832 85.5208L52.7646 85.1895C52.9941 85.1414 53.2182 85.2878 53.2661 85.5164C53.3142 85.746 53.1677 85.97 52.9382 86.0181L51.3568 86.3494C51.3496 86.3509 51.3438 86.3503 51.3384 86.3514C51.3077 86.2229 51.2786 86.0932 51.2514 85.9631C51.2209 85.8176 51.1922 85.6717 51.1655 85.5264ZM82.6883 78.9201L84.2697 78.5888C84.276 78.5875 84.2818 78.5882 84.2881 78.5868C84.322 78.7307 84.3543 78.8758 84.3848 79.0212C84.4121 79.1514 84.4375 79.2819 84.4619 79.4117C84.4556 79.413 84.4505 79.4159 84.4433 79.4175L82.8619 79.7488C82.6333 79.7967 82.4084 79.6504 82.3603 79.4209C82.3124 79.1923 82.4597 78.968 82.6883 78.9201ZM64.7625 65.8436L65.0931 67.4213C65.141 67.65 64.9946 67.874 64.7659 67.9219C64.5364 67.97 64.3124 67.8236 64.2645 67.595L63.9339 66.0172C64.0707 65.9857 64.2084 65.954 64.3475 65.9249C64.4858 65.8959 64.6246 65.8697 64.7625 65.8436ZM55.1044 74.5211C54.9987 74.5432 54.8836 74.5249 54.7861 74.4604L53.433 73.5761C53.4319 73.5754 53.4319 73.5754 53.4308 73.5747C53.5797 73.3351 53.7349 73.0988 53.8957 72.867C53.8957 72.867 53.8957 72.867 53.8966 72.8668L55.2499 73.752C55.4446 73.8801 55.4995 74.1421 55.3726 74.3376C55.3083 74.4359 55.2102 74.4989 55.1044 74.5211Z" fill="#F79011"/>
<path d="M53.2561 91.2061C53.4584 91.0837 53.7245 91.1379 53.8485 91.3275C53.9694 91.5115 54.0961 91.6958 54.2247 91.8755C54.3581 92.0595 54.3052 92.3144 54.1083 92.4445C54.0595 92.4767 54.0057 92.4985 53.9516 92.5098C53.7864 92.5444 53.6103 92.4852 53.5113 92.3466C53.3741 92.158 53.2416 91.9641 53.1139 91.7707C52.9899 91.5812 53.0538 91.3284 53.2561 91.2061Z" fill="#3A1F16"/>
<path d="M53.3039 73.0008C53.307 72.9973 53.308 72.9933 53.3093 72.9902C53.313 72.9857 53.3161 72.9822 53.3199 72.9776C55.7512 69.2719 59.5897 66.4897 64.2601 65.5112C68.9314 64.5325 73.5639 65.5399 77.2782 67.9581C77.2826 67.9609 77.2877 67.9627 77.2921 67.9656C77.2954 67.9677 77.2989 67.9708 77.3022 67.9729C81.0221 70.4041 83.8183 74.251 84.7995 78.9341C86.7612 88.2975 80.7399 97.5109 71.3754 99.4729C65.6674 100.669 59.7778 98.9345 55.621 94.8335C55.4542 94.6694 55.4529 94.4012 55.6167 94.2349C55.7805 94.0684 56.0497 94.0665 56.2156 94.2307C56.9048 94.9108 57.6446 95.5205 58.4246 96.0604L59.0967 95.033C59.2239 94.8367 59.4858 94.7819 59.682 94.9104C59.8781 95.0379 59.933 95.2998 59.8048 95.4962L59.1322 96.5255C62.5793 98.6616 66.7187 99.4692 70.7863 98.7243L70.5333 97.5169C70.4854 97.2882 70.6323 97.0636 70.8606 97.0157C71.0899 96.9677 71.3146 97.1144 71.3625 97.3432L71.6158 98.5522C75.7404 97.5782 79.1536 95.1139 81.3992 91.8535L80.3768 91.1861C80.1815 91.0575 80.1266 90.7957 80.254 90.6003C80.3831 90.4037 80.645 90.3488 80.8403 90.4775L81.8616 91.1442C83.9373 87.7772 84.8173 83.6651 84.0478 79.5003L82.8616 79.7488C82.6333 79.7966 82.4086 79.6498 82.3606 79.4205C82.3127 79.1922 82.4596 78.9675 82.6879 78.9196L83.8732 78.6713C82.8949 74.5571 80.4344 71.1525 77.1798 68.9105L76.5301 69.9046C76.4663 70.0021 76.3689 70.0651 76.2628 70.0873C76.1568 70.1095 76.0422 70.091 75.9438 70.0274C75.7487 69.8999 75.6936 69.6371 75.821 69.4411L76.4709 68.4479C73.1101 66.3766 69.0065 65.4958 64.8498 66.2579L65.0934 67.4205C65.1412 67.6489 64.9944 67.8736 64.7651 67.9216C64.5368 67.9694 64.3121 67.8226 64.2642 67.5942L64.0206 66.4316C59.9076 67.4021 56.5026 69.856 54.256 73.1022L55.249 73.7512C55.4451 73.8794 55.5002 74.1422 55.3718 74.3375C55.308 74.435 55.2106 74.498 55.1045 74.5202C54.9985 74.5424 54.884 74.5238 54.7864 74.4601L53.7923 73.8104C51.7114 77.1703 50.8235 81.2764 51.5798 85.4371L52.7651 85.1888C52.9944 85.1408 53.2181 85.2878 53.266 85.5161C53.314 85.7454 53.1681 85.9699 52.9388 86.0179L51.7526 86.2665C51.9591 87.1483 52.238 88.0141 52.583 88.8438C52.6727 89.0596 52.5704 89.3075 52.3546 89.3971C52.1388 89.4867 51.8913 89.3845 51.8007 89.1688C51.3858 88.1681 51.061 87.1189 50.8369 86.0497C49.8558 81.3665 50.8718 76.7209 53.3039 73.0008Z" fill="#3A1F16"/>
<path d="M70.4768 95.1823C77.474 93.7163 81.9741 86.8309 80.508 79.8333C79.042 72.8361 72.1567 68.3369 65.1596 69.8029C58.1624 71.2688 53.6612 78.1536 55.1272 85.1508C56.5933 92.1485 63.4796 96.6483 70.4768 95.1823ZM64.9858 68.9737C72.4396 67.412 79.7747 72.2059 81.3363 79.6597C82.8981 87.1143 78.1042 94.4493 70.6504 96.0109C63.1957 97.5728 55.8607 92.779 54.2989 85.3244C52.7372 77.8706 57.5311 70.5355 64.9858 68.9737Z" fill="#3A1F16"/>
<path d="M51.2807 86.071C53.1837 95.1539 62.1451 100.968 71.3013 99.0495C80.4576 97.1312 86.3316 88.209 84.4286 79.1261C82.5256 70.0432 73.5642 64.2292 64.408 66.1475C55.2518 68.0659 49.3777 76.988 51.2807 86.071Z" stroke="#3A1F16" stroke-width="0.803979"/>
<path d="M70.5252 79.5075C70.1908 79.5775 69.8424 79.5119 69.5564 79.325C69.2705 79.1381 69.0705 78.8453 69.0005 78.511C68.9304 78.1767 68.9961 77.8282 69.1829 77.5423C69.3698 77.2563 69.6626 77.0563 69.997 76.9863C70.3313 76.9162 70.6798 76.9819 70.9657 77.1687C71.2516 77.3556 71.4516 77.6484 71.5217 77.9828C71.5917 78.3171 71.5261 78.6656 71.3392 78.9515C71.1523 79.2375 70.8595 79.4374 70.5252 79.5075ZM62.3729 79.8995C62.443 80.2339 62.6429 80.5267 62.9289 80.7136C63.2148 80.9004 63.5633 80.9661 63.8976 80.896C64.232 80.826 64.5248 80.626 64.7117 80.3401C64.8985 80.0541 64.9642 79.7057 64.8941 79.3713C64.8241 79.037 64.6241 78.7442 64.3381 78.5573C64.0522 78.3704 63.7037 78.3048 63.3694 78.3748C63.0351 78.4449 62.7423 78.6449 62.5554 78.9308C62.3685 79.2167 62.3029 79.5652 62.3729 79.8995Z" fill="#F79011"/>
<path d="M58.85 75.286L58.9186 75.6133C59.0694 76.3333 59.4429 76.9397 59.9494 77.3905C59.5831 78.169 59.4534 79.0675 59.6424 79.9698C59.8407 80.9164 60.1927 81.6511 60.6854 82.2007C60.5312 83.0964 60.5398 84.0354 60.7373 84.9781C61.2727 87.5335 63.0649 89.503 65.3304 90.3767C65.1863 90.885 65.1302 91.4246 65.1761 91.9734C65.2357 92.6867 65.9156 93.0556 66.4982 92.9336L73.0696 91.5568C73.6522 91.4347 74.1268 90.8239 73.8951 90.1467L73.895 90.1467C73.7226 89.6428 73.4662 89.1857 73.145 88.7878C74.0042 87.9571 74.651 86.9296 75.0281 85.7921C75.44 84.5493 75.5153 83.2196 75.2463 81.9383L58.85 75.286ZM58.85 75.286L59.1774 75.2174M58.85 75.286L59.1774 75.2174M59.1774 75.2174L62.7033 74.4786C63.4189 74.3287 64.1283 74.4263 64.7439 74.7091L67.3673 74.1595C67.8176 73.6533 68.4281 73.2792 69.1437 73.1293L72.6634 72.3919L72.991 72.3233M59.1774 75.2174L72.991 72.3233M72.991 72.3233L73.0594 72.651M72.991 72.3233L73.0594 72.651M73.0594 72.651C73.2034 73.341 73.1211 74.0564 72.8289 74.6925C73.4768 75.2584 73.9561 76.0292 74.1451 76.9313C74.3331 77.8288 74.3184 78.6075 74.1188 79.2841M73.0594 72.651L74.1188 79.2841M72.8617 90.4891L72.8431 90.4612L72.8431 90.4613L72.8617 90.4891ZM72.8617 90.4891L72.8677 90.4981L72.8617 90.4891ZM72.8617 90.4891L72.886 90.4919L72.8617 90.4891ZM72.9495 81.05C72.8642 81.1249 72.7755 81.1972 72.6834 81.2671L72.9495 81.05ZM72.9495 81.05C72.8982 80.9477 72.8433 80.8471 72.7849 80.7485L72.9495 81.05ZM74.1188 79.2841C74.6508 80.064 75.0409 80.9585 75.2462 81.9381L74.1188 79.2841ZM66.5863 90.7377C66.5065 91.0199 66.4663 91.3119 66.4668 91.6052L72.5647 90.3276C72.4511 90.0666 72.3041 89.826 72.1297 89.6097C71.762 89.8575 71.3693 90.0736 70.9545 90.2542C70.5265 90.5318 70.055 90.7356 69.5454 90.8424L69.5441 90.8427C69.0464 90.9449 68.5342 90.9547 68.0331 90.8717C67.5423 90.8747 67.0578 90.8289 66.5863 90.7377ZM66.6942 80.5089L67.8022 80.2767C67.6501 80.1102 67.4165 80.0255 67.1805 80.0742C66.9436 80.1274 66.7657 80.2972 66.6942 80.5089ZM69.3002 79.7172C69.6903 79.9722 70.1656 80.0617 70.6217 79.9661C71.0777 79.8706 71.4771 79.5978 71.7321 79.2077C71.987 78.8177 72.0765 78.3424 71.981 77.8863C71.8854 77.4303 71.6126 77.0309 71.2226 76.7759C70.8325 76.521 70.3572 76.4315 69.9011 76.527C69.4451 76.6226 69.0457 76.8954 68.7908 77.2854C68.5358 77.6755 68.4463 78.1508 68.5419 78.6069C68.6374 79.0629 68.9102 79.4623 69.3002 79.7172ZM62.6727 81.1058C63.0627 81.3607 63.5381 81.4502 63.9941 81.3547C64.4502 81.2591 64.8496 80.9863 65.1045 80.5963C65.3594 80.2063 65.449 79.7309 65.3534 79.2749C65.2579 78.8188 64.9851 78.4194 64.595 78.1645C64.205 77.9096 63.7296 77.82 63.2736 77.9156C62.8175 78.0111 62.4181 78.2839 62.1632 78.674C61.9083 79.064 61.8188 79.5393 61.9143 79.9954C62.0098 80.4515 62.2827 80.8509 62.6727 81.1058Z" fill="#FCF3C5" stroke="#3A1F16" stroke-width="0.668971"/>
<path d="M67.0959 91.2283L66.6756 91.0597L71.8911 90.2237L72.0854 89.9263" stroke="#3A1F16" stroke-width="0.251243"/>
</g>
<defs>
<filter id="filter0_d_824_2047" x="109.323" y="37.6143" width="136.286" height="133.315" filterUnits="userSpaceOnUse" color-interpolation-filters="sRGB">
<feFlood flood-opacity="0" result="BackgroundImageFix"/>
<feColorMatrix in="SourceAlpha" type="matrix" values="0 0 0 0 0 0 0 0 0 0 0 0 0 0 0 0 0 0 127 0" result="hardAlpha"/>
<feOffset dy="3.49941"/>
<feGaussianBlur stdDeviation="1.74971"/>
<feComposite in2="hardAlpha" operator="out"/>
<feColorMatrix type="matrix" values="0 0 0 0 0 0 0 0 0 0 0 0 0 0 0 0 0 0 0.25 0"/>
<feBlend mode="normal" in2="BackgroundImageFix" result="effect1_dropShadow_824_2047"/>
<feBlend mode="normal" in="SourceGraphic" in2="effect1_dropShadow_824_2047" result="shape"/>
</filter>
<filter id="filter1_d_824_2047" x="5.65558" y="28.8003" width="103.931" height="101.76" filterUnits="userSpaceOnUse" color-interpolation-filters="sRGB">
<feFlood flood-opacity="0" result="BackgroundImageFix"/>
<feColorMatrix in="SourceAlpha" type="matrix" values="0 0 0 0 0 0 0 0 0 0 0 0 0 0 0 0 0 0 127 0" result="hardAlpha"/>
<feOffset dy="3.57049"/>
<feGaussianBlur stdDeviation="1.78525"/>
<feComposite in2="hardAlpha" operator="out"/>
<feColorMatrix type="matrix" values="0 0 0 0 0 0 0 0 0 0 0 0 0 0 0 0 0 0 0.25 0"/>
<feBlend mode="normal" in2="BackgroundImageFix" result="effect1_dropShadow_824_2047"/>
<feBlend mode="normal" in="SourceGraphic" in2="effect1_dropShadow_824_2047" result="shape"/>
</filter>
</defs>
</svg>
