<svg width="194" height="194" viewBox="0 0 194 194" fill="none" xmlns="http://www.w3.org/2000/svg">
<circle cx="97" cy="97" r="97" fill="white"/>
<path d="M56.3828 115.871H25.0042C21.6349 115.871 18.7087 118.187 17.9374 121.466L12.6849 143.808C12.0199 146.639 14.1668 149.348 17.0728 149.348H64.3141C67.2201 149.348 69.367 146.639 68.7016 143.808L63.4496 121.466C62.6782 118.187 59.752 115.871 56.3828 115.871Z" fill="#FAB80A"/>
<path d="M112.643 115.871H81.2639C77.8946 115.871 74.9684 118.187 74.1975 121.466L68.9451 143.808C68.2801 146.639 70.4265 149.348 73.3325 149.348H120.574C123.48 149.348 125.627 146.639 124.962 143.808L119.709 121.466C118.938 118.187 116.012 115.871 112.643 115.871Z" fill="#FAB80A"/>
<path d="M168.903 115.871H137.524C134.155 115.871 131.228 118.187 130.457 121.466L125.205 143.808C124.54 146.639 126.686 149.348 129.593 149.348H176.834C179.74 149.348 181.886 146.639 181.221 143.808L175.969 121.466C175.198 118.187 172.272 115.871 168.903 115.871Z" fill="#FAB80A"/>
<path d="M84.5125 82.3949H53.1333C49.7646 82.3949 46.838 84.7137 46.0672 87.9921L40.8144 110.333C40.1496 113.164 42.296 115.874 45.2022 115.874H92.4431C95.3498 115.874 97.4957 113.164 96.8309 110.333L91.5786 87.9921C90.8078 84.7137 87.8816 82.3949 84.5125 82.3949Z" fill="#F89E0E"/>
<path d="M140.772 82.3949H109.393C106.024 82.3949 103.098 84.7137 102.326 87.9921L97.074 110.333C96.4088 113.164 98.5561 115.874 101.462 115.874H148.703C151.609 115.874 153.756 113.164 153.091 110.333L147.839 87.9921C147.067 84.7137 144.141 82.3949 140.772 82.3949Z" fill="#F89E0E"/>
<path d="M112.643 48.9139H81.2641C77.8948 48.9139 74.9684 51.2331 74.1976 54.512L68.945 76.8545C68.2802 79.6832 70.4267 82.3936 73.3326 82.3936H120.574C123.48 82.3936 125.627 79.6832 124.962 76.8545L119.709 54.512C118.939 51.2331 116.012 48.9139 112.643 48.9139Z" fill="#FAB80A"/>
<path d="M96.4985 20.7988C95.3338 20.7988 94.389 19.8541 94.389 18.6913V2.10756C94.389 0.944799 95.3338 6.10352e-05 96.4985 6.10352e-05C97.6641 6.10352e-05 98.6084 0.944799 98.6084 2.10756V18.6913C98.6084 19.8541 97.6641 20.7988 96.4985 20.7988Z" fill="#F8A92C"/>
<path d="M78.0426 23.8062C77.3507 23.8062 76.6738 23.4653 76.269 22.8411L68.3781 10.6459C67.7448 9.67124 68.0248 8.36528 69.0028 7.73152C69.9818 7.09775 71.2877 7.37622 71.9205 8.35568L79.8119 20.5509C80.4447 21.5256 80.1652 22.8315 79.1872 23.4653C78.8324 23.6957 78.4353 23.8062 78.0426 23.8062Z" fill="#F8A92C"/>
<path d="M114.957 23.8062C114.564 23.8062 114.167 23.6957 113.813 23.4653C112.835 22.8363 112.555 21.5256 113.188 20.5509L121.08 8.35568C121.713 7.37622 123.018 7.09775 123.997 7.73152C124.976 8.36528 125.255 9.67122 124.622 10.6507L116.731 22.8411C116.327 23.4653 115.65 23.8062 114.957 23.8062Z" fill="#F8A92C"/>
<path d="M131.016 33.375C130.251 33.375 129.514 32.9608 129.139 32.2313C128.605 31.1959 129.011 29.9252 130.047 29.3886L142.275 23.0772C143.31 22.5454 144.583 22.9501 145.117 23.9855C145.652 25.021 145.245 26.2964 144.21 26.8283L131.982 33.1397C131.672 33.2997 131.342 33.375 131.016 33.375Z" fill="#F8A92C"/>
<path d="M61.9827 33.375C61.6566 33.375 61.3257 33.2997 61.0165 33.1397L48.7881 26.8283C47.7526 26.2964 47.3469 25.021 47.8811 23.9855C48.4153 22.9501 49.6884 22.5454 50.7234 23.0819L62.9518 29.3933C63.9872 29.9252 64.3934 31.2006 63.8587 32.2361C63.4841 32.9609 62.7466 33.375 61.9827 33.375Z" fill="#F8A92C"/>
<path d="M158.128 146.765H154.134C152.968 146.765 152.024 147.71 152.024 148.875C152.024 150.039 152.968 150.984 154.134 150.984H158.128C159.294 150.984 160.238 150.039 160.238 148.875C160.238 147.71 159.294 146.765 158.128 146.765Z" fill="#3A1F16"/>
<path d="M137.071 113.287H112.189H101.01C100.273 113.287 99.5875 112.954 99.1301 112.375C98.6727 111.8 98.5067 111.057 98.6754 110.341L103.927 87.9987C104.478 85.6592 106.539 84.0264 108.941 84.0264H120.121H140.319C142.721 84.0264 144.783 85.6592 145.332 87.9987L150.584 110.341C150.753 111.057 150.588 111.8 150.13 112.375C149.672 112.954 148.987 113.287 148.251 113.287H137.071ZM127.95 120.511L124.63 134.635L121.31 120.511C121.052 119.412 120.608 118.404 120.02 117.506H129.24C128.652 118.404 128.208 119.412 127.95 120.511ZM122 145.854C121.542 146.434 120.858 146.762 120.121 146.762H72.8794C72.1424 146.762 71.4578 146.434 71.0004 145.854C70.5425 145.275 70.377 144.536 70.5452 143.816L75.7977 121.473C76.3477 119.138 78.4086 117.506 80.8107 117.506H91.9905H101.01H112.189C114.591 117.506 116.653 119.138 117.202 121.473L122.455 143.816C122.623 144.536 122.457 145.275 122 145.854ZM65.7397 145.854C65.2823 146.434 64.5978 146.762 63.8608 146.762H16.6195C15.8825 146.762 15.1979 146.434 14.7401 145.854C14.2826 145.275 14.1166 144.536 14.2854 143.816L19.5378 121.478C20.0873 119.138 22.1492 117.506 24.5508 117.506H44.7496H55.9295C58.3311 117.506 60.3929 119.138 60.9425 121.473L66.1949 143.816C66.3632 144.536 66.1976 145.275 65.7397 145.854ZM68.3703 134.635L65.0497 120.511C64.7916 119.412 64.3479 118.404 63.76 117.506H72.9801C72.3923 118.404 71.9485 119.412 71.6899 120.511L68.3703 134.635ZM42.8702 112.375C42.4128 111.8 42.2468 111.057 42.4155 110.341L47.6675 87.9987C48.2175 85.6592 50.2789 84.0264 52.6805 84.0264H72.8794H84.0596C86.4612 84.0264 88.5226 85.6592 89.0722 87.9987L94.3246 110.341C94.4933 111.057 94.3278 111.8 93.8699 112.375C93.4125 112.954 92.727 113.287 91.9905 113.287H80.8107H55.9295H44.7496C44.0126 113.287 43.3277 112.954 42.8702 112.375ZM96.5 101.156L93.1799 87.0319C92.9218 85.9328 92.478 84.9249 91.8902 84.0264H101.11C100.522 84.9249 100.078 85.9328 99.8201 87.0319L96.5 101.156ZM71.0004 78.9004C70.5425 78.3212 70.377 77.5778 70.5452 76.8618L75.7977 54.5194C76.3477 52.1799 78.4086 50.5472 80.8107 50.5472H112.189C114.591 50.5472 116.653 52.1799 117.202 54.5194L122.455 76.8618C122.623 77.5778 122.457 78.3212 122 78.9004C121.543 79.475 120.858 79.8079 120.121 79.8079H108.941H84.0596H72.8794C72.1424 79.8079 71.4578 79.475 71.0004 78.9004ZM182.822 142.853L177.57 120.511C176.57 116.256 172.819 113.287 168.45 113.287H154.411C154.892 112.056 155.004 110.701 154.692 109.374L149.44 87.0319C148.44 82.7769 144.689 79.8079 140.319 79.8079H126.281C126.763 78.5765 126.874 77.2221 126.562 75.8949L121.31 53.5526C120.31 49.2976 116.559 46.3286 112.189 46.3286H80.8107C76.4407 46.3286 72.6901 49.2976 71.6899 53.5526L66.438 75.8949C66.1265 77.2221 66.2378 78.5765 66.7189 79.8079H52.6805C48.311 79.8079 44.5604 82.7769 43.5602 87.0319L38.3078 109.374C37.9963 110.701 38.1076 112.056 38.5892 113.287H24.5508C20.1813 113.287 16.4302 116.256 15.4305 120.511L10.1781 142.853C9.71247 144.833 10.1699 146.88 11.4327 148.472C12.6955 150.068 14.5859 150.98 16.6195 150.98H63.8608C65.5596 150.98 67.1535 150.337 68.3703 149.197C69.5866 150.337 71.1805 150.98 72.8794 150.98H120.121C121.82 150.98 123.413 150.337 124.63 149.197C125.846 150.337 127.44 150.98 129.139 150.98H141.743C142.909 150.98 143.853 150.036 143.853 148.873C143.853 147.706 142.909 146.762 141.743 146.762H129.139C128.402 146.762 127.717 146.434 127.26 145.854C126.802 145.275 126.637 144.536 126.806 143.816L132.058 121.478C132.608 119.138 134.668 117.506 137.071 117.506H148.251H168.45C170.851 117.506 172.913 119.138 173.462 121.473L178.715 143.816C178.883 144.536 178.717 145.275 178.26 145.854C177.803 146.434 177.118 146.762 176.381 146.762H170.456C169.291 146.762 168.346 147.706 168.346 148.873C168.346 150.036 169.291 150.98 170.456 150.98H176.381C178.414 150.98 180.304 150.068 181.567 148.472C182.83 146.88 183.288 144.833 182.822 142.853Z" fill="#3A1F16"/>
<path d="M96.9521 21.2725C98.1177 21.2725 99.062 20.3277 99.062 19.165V2.58119C99.062 1.41843 98.1177 0.473694 96.9521 0.473694C95.7874 0.473694 94.8427 1.41843 94.8427 2.58119V19.165C94.8427 20.3277 95.7874 21.2725 96.9521 21.2725Z" fill="#3A1F16"/>
<path d="M76.7231 23.3152C77.1274 23.9394 77.8048 24.2803 78.4967 24.2803C78.889 24.2803 79.2865 24.1699 79.6408 23.9394C80.6193 23.3056 80.8983 21.9997 80.2655 21.025L72.3741 8.8298C71.7408 7.85034 70.4344 7.57187 69.4564 8.20564C68.4784 8.83941 68.1985 10.1454 68.8317 11.12L76.7231 23.3152Z" fill="#3A1F16"/>
<path d="M114.267 23.9394C114.621 24.1699 115.018 24.2803 115.411 24.2803C116.103 24.2803 116.781 23.9394 117.184 23.3152L125.076 11.1248C125.709 10.1453 125.429 8.83941 124.451 8.20564C123.472 7.57187 122.166 7.85034 121.533 8.8298L113.642 21.025C113.009 21.9997 113.289 23.3104 114.267 23.9394Z" fill="#3A1F16"/>
<path d="M131.469 33.8486C131.795 33.8486 132.126 33.7733 132.436 33.6133L144.664 27.3019C145.699 26.7701 146.105 25.4946 145.571 24.4592C145.037 23.4237 143.764 23.019 142.728 23.5508L130.5 29.8623C129.465 30.3988 129.059 31.6695 129.593 32.705C129.968 33.4345 130.705 33.8486 131.469 33.8486Z" fill="#3A1F16"/>
<path d="M49.2417 27.3019L61.4701 33.6133C61.7793 33.7733 62.1102 33.8486 62.4364 33.8486C63.2002 33.8486 63.9377 33.4345 64.3124 32.7097C64.847 31.6743 64.4408 30.3988 63.4054 29.867L51.177 23.5556C50.1425 23.019 48.8689 23.4237 48.3347 24.4592C47.8006 25.4946 48.2063 26.7701 49.2417 27.3019Z" fill="#3A1F16"/>
</svg>
