<svg width="202" height="194" viewBox="0 0 202 194" fill="none" xmlns="http://www.w3.org/2000/svg">
<circle cx="105" cy="97" r="97" fill="white"/>
<path d="M121.622 146.743C117.544 151.902 118.471 159.447 123.682 163.565C128.894 167.677 136.447 166.831 140.526 161.666C144.34 156.838 143.771 149.922 139.411 145.679C139.072 145.435 138.733 145.186 138.404 144.925C138.07 144.665 137.75 144.394 137.435 144.117C132.299 140.857 125.437 141.915 121.622 146.743ZM176.353 167.313C180.427 162.154 179.504 154.609 174.291 150.491C169.078 146.379 161.527 147.225 157.449 152.39C153.376 157.549 154.298 165.095 159.509 169.207C164.721 173.324 172.273 172.472 176.353 167.313ZM162.557 133.772C166.63 128.613 165.708 121.067 160.497 116.95C155.285 112.838 147.731 113.689 143.654 118.848C139.839 123.676 140.403 130.598 144.764 134.835C145.107 135.079 145.441 135.329 145.775 135.589C146.109 135.855 146.428 136.121 146.744 136.398C151.88 139.658 158.743 138.605 162.557 133.772ZM132.036 114.932C132.878 113.359 133.917 111.856 135.15 110.456C143.08 101.484 156.748 99.9105 166.659 106.843C176.721 113.885 179.656 127.013 174.373 137.309C177.454 138.351 180.389 140.038 182.971 142.403C191.471 150.187 193.012 164.574 186.345 173.839C178.409 184.857 162.844 186.87 152.2 178.467C149.965 176.698 148.131 174.621 146.701 172.337C137.906 179.872 124.444 180.056 115.259 171.886C106.247 163.869 104.595 150.247 111.453 140.466C112.521 138.947 113.73 137.591 115.052 136.408C117.361 134.342 117.239 130.691 114.784 128.749L4.77387 41.8328C2.03327 39.6683 1.54937 35.7136 3.6927 33.0012L5.64509 30.5276C7.78842 27.8152 11.7479 27.3703 14.4885 29.5348L17.6431 32.0248L31.4328 14.5678C33.44 12.0236 37.1489 11.6059 39.7159 13.6348L41.5126 15.0507C44.0791 17.0795 44.5326 20.7847 42.5249 23.3235L34.4875 33.5003C32.8634 35.5563 33.2301 38.5562 35.3072 40.1945L38.8778 43.0154C40.9544 44.6537 43.9554 44.3173 45.5801 42.2614L53.6175 32.0845C55.6247 29.5403 59.3336 29.1225 61.9001 31.1514L63.6973 32.5727C66.2643 34.5962 66.7178 38.3013 64.7095 40.8455L50.9203 58.3024L124.515 116.461C126.975 118.409 130.568 117.666 132.036 114.932Z" fill="#FAB80A"/>
<path d="M188.247 175.21C184.071 181.003 177.866 184.746 170.766 185.739C163.565 186.747 156.453 184.816 150.738 180.304C149.026 178.953 147.503 177.413 146.181 175.699C136.388 182.506 122.846 181.784 113.689 173.637C103.732 164.775 101.94 149.934 109.522 139.114C110.674 137.47 112.005 135.973 113.478 134.65C114.065 134.129 114.376 133.402 114.352 132.616C114.329 131.824 113.952 131.086 113.322 130.592L80.5586 104.704C79.5394 103.901 79.3659 102.42 80.1708 101.4C80.9762 100.381 82.4553 100.207 83.474 101.015L116.238 126.899C117.96 128.26 118.985 130.289 119.051 132.475C119.117 134.639 118.232 136.711 116.614 138.153C115.406 139.238 114.319 140.464 113.374 141.809C107.161 150.678 108.642 162.849 116.817 170.123C124.883 177.299 137.07 177.478 145.17 170.546C145.691 170.101 146.378 169.906 147.056 170.009C147.732 170.112 148.33 170.502 148.693 171.083C150.019 173.198 151.684 175.059 153.654 176.61C158.348 180.32 164.195 181.909 170.109 181.079C175.929 180.266 181.017 177.206 184.429 172.46C190.439 164.118 189.045 151.144 181.38 144.131C179.108 142.053 176.499 140.507 173.619 139.537C172.968 139.314 172.447 138.826 172.187 138.191C171.932 137.557 171.959 136.841 172.273 136.233C177.139 126.758 174.145 114.944 165.305 108.766C156.312 102.469 144.102 103.868 136.91 112.01C135.819 113.246 134.873 114.597 134.107 116.034C133.081 117.949 131.27 119.305 129.14 119.744C127 120.195 124.78 119.668 123.054 118.302L49.4594 60.1397C48.4408 59.3369 48.2672 57.8562 49.0721 56.8365L62.8611 39.3819C63.4403 38.6497 63.6958 37.7276 63.5819 36.7947C63.4658 35.8509 62.9885 35.0047 62.2368 34.4135L60.4403 32.9924C58.8945 31.772 56.6603 32.0161 55.46 33.5348L47.4227 43.7103C44.9976 46.7858 40.5087 47.2956 37.4175 44.8548L33.8469 42.0343C32.3525 40.8573 31.4028 39.1704 31.1717 37.2829C30.9407 35.3953 31.4614 33.5294 32.6395 32.0378L40.6768 21.8623C41.2555 21.1301 41.5116 20.2134 41.3971 19.2751C41.2816 18.3367 40.8042 17.4851 40.0519 16.8939L38.2561 15.4783C36.7107 14.2579 34.4766 14.5019 33.2757 16.0207L19.4862 33.4752C18.6813 34.4949 17.2027 34.6685 16.1835 33.8657L13.0294 31.3761C11.3106 30.0201 8.82473 30.2913 7.48825 31.9836L5.53616 34.4515C4.89124 35.2705 4.60648 36.2902 4.73395 37.3316C4.86249 38.3839 5.39351 39.3223 6.2299 39.984L54.6361 78.2288C55.6553 79.0316 55.8288 80.5124 55.0239 81.5321C54.2184 82.5518 52.7393 82.7253 51.7207 81.9172L3.31393 43.6724C1.49959 42.2404 0.345348 40.1901 0.0654681 37.9066C-0.216039 35.6068 0.416418 33.345 1.84456 31.5388L3.79721 29.0655C6.74083 25.3392 12.1898 24.7208 15.9438 27.6823L17.2526 28.7183L29.5847 13.1025C31.1978 11.0631 33.6001 10 36.0306 10C37.8314 10 39.6473 10.5803 41.1704 11.7845L42.9674 13.2002C44.6982 14.567 45.7987 16.5251 46.0661 18.7056C46.3341 20.8969 45.7309 23.0502 44.3679 24.7805L36.33 34.9559C35.9367 35.4549 35.7632 36.0787 35.8407 36.7133C35.9194 37.3588 36.247 37.9391 36.7617 38.3459L40.3324 41.1664C41.3879 41.9963 42.9131 41.8336 43.7316 40.7976L51.7689 30.6221C54.5775 27.0639 59.7743 26.4727 63.3552 29.3041L65.1516 30.7198C66.8824 32.0866 67.983 34.0393 68.2504 36.2252C68.5183 38.4111 67.9157 40.5698 66.5527 42.2946L54.2206 57.9104L125.97 114.613C126.6 115.112 127.404 115.302 128.18 115.139C128.956 114.982 129.587 114.51 129.958 113.81C130.899 112.058 132.051 110.404 133.387 108.896C138.481 103.125 145.635 100.131 152.883 100.131C158.118 100.131 163.41 101.693 168.005 104.91C178.039 111.928 181.869 124.924 177.524 136.022C180.089 137.172 182.444 138.728 184.559 140.659C193.888 149.208 195.581 165.024 188.247 175.21Z" fill="#3A1F16"/>
<path d="M147.23 133.749C147.539 133.986 147.843 134.238 148.147 134.501C152.32 137.056 157.698 136.129 160.712 132.317C162.288 130.318 162.989 127.809 162.675 125.259C162.36 122.694 161.073 120.401 159.038 118.799C154.849 115.486 148.771 116.161 145.499 120.308C142.486 124.12 142.836 129.561 146.287 133.033C146.612 133.27 146.931 133.507 147.23 133.749ZM145.19 138.169C144.902 137.911 144.608 137.664 144.314 137.437C144.031 137.211 143.722 136.979 143.403 136.757C143.305 136.685 143.212 136.608 143.124 136.52C137.831 131.374 137.261 123.147 141.811 117.393C144.608 113.843 148.781 111.994 153.01 111.994C156.142 111.994 159.3 113.014 161.954 115.105C164.967 117.485 166.878 120.885 167.347 124.687C167.811 128.494 166.765 132.239 164.401 135.233C159.857 140.987 151.722 142.342 145.484 138.385C145.381 138.318 145.288 138.246 145.19 138.169Z" fill="#3A1F16"/>
<path d="M137.89 147.483C137.56 147.243 137.245 147.004 136.944 146.77C136.638 146.53 136.333 146.274 136.032 146.014C131.85 143.458 126.479 144.385 123.464 148.196C121.884 150.198 121.188 152.705 121.503 155.255C121.813 157.815 123.107 160.11 125.134 161.712C126.926 163.128 129.061 163.815 131.173 163.815C134.009 163.815 136.803 162.58 138.675 160.206C141.69 156.394 141.342 150.954 137.89 147.483ZM122.222 165.406C119.212 163.027 117.298 159.625 116.832 155.83C116.366 152.018 117.411 148.276 119.772 145.284C122.57 141.744 126.719 139.871 130.952 139.871C133.605 139.871 136.29 140.605 138.694 142.128C138.793 142.192 138.892 142.266 138.981 142.346C139.272 142.601 139.569 142.846 139.861 143.075C140.148 143.304 140.453 143.533 140.773 143.757C140.872 143.826 140.961 143.906 141.05 143.991C146.346 149.144 146.911 157.368 142.367 163.123C137.485 169.298 128.45 170.325 122.222 165.406Z" fill="#3A1F16"/>
<path d="M157.329 160.902C157.644 163.463 158.932 165.756 160.964 167.358C162.759 168.772 164.886 169.458 167.002 169.458C169.836 169.458 172.628 168.226 174.508 165.852C176.084 163.848 176.78 161.346 176.469 158.791C176.159 156.23 174.862 153.936 172.831 152.334C168.642 149.023 162.566 149.698 159.295 153.84C157.715 155.838 157.018 158.346 157.329 160.902ZM166.804 145.53C169.933 145.53 173.094 146.548 175.746 148.643C178.757 151.016 180.67 154.419 181.136 158.217C181.602 162.027 180.557 165.772 178.195 168.767C173.314 174.945 164.275 175.968 158.048 171.049C155.038 168.671 153.124 165.268 152.658 161.47C152.192 157.66 153.236 153.915 155.603 150.925C158.401 147.378 162.571 145.53 166.804 145.53Z" fill="#3A1F16"/>
<path d="M65.6806 87.5986C66.1909 87.5986 66.7051 87.764 67.1371 88.1045L70.8887 91.072C71.9078 91.8746 72.0815 93.3535 71.2764 94.3751C70.4713 95.3918 68.992 95.5669 67.9729 94.7594L64.2213 91.7968C63.2021 90.9941 63.0284 89.5153 63.8335 88.4937C64.2981 87.9051 64.9855 87.5986 65.6806 87.5986Z" fill="#3A1F16"/>
</svg>
