<svg width="25" height="25" viewBox="0 0 25 25" fill="none" xmlns="http://www.w3.org/2000/svg">
<path d="M13.2321 15.4485V15.9485H13.7321V15.4485H13.2321ZM11.7684 15.4485H11.2684V15.9485H11.7684V15.4485ZM4.77608 4.3632L5.12963 4.00965L4.78576 3.66578L4.43248 3.99997L4.77608 4.3632ZM4.37831 4.75914L4.01667 4.41386L3.87831 4.55878V4.75914H4.37831ZM4.37892 4.76037L4.02438 5.11294L4.02551 5.11406L4.37892 4.76037ZM5.13713 5.51796L5.49266 5.16639L5.4908 5.16452L5.13713 5.51796ZM5.53429 5.51796L5.88785 5.87152L5.88883 5.87052L5.53429 5.51796ZM5.53429 5.12142L5.88883 4.76886L5.88789 4.76791L5.53429 5.12142ZM5.13713 19.4503L5.49055 19.804L5.49137 19.8032L5.13713 19.4503ZM4.37892 20.208L4.02549 19.8543L4.01406 19.8657L4.0034 19.8778L4.37892 20.208ZM4.36484 20.2254L3.98754 19.8973L3.6901 20.2393L4.00144 20.5688L4.36484 20.2254ZM4.75772 20.6199L4.41166 20.9808L4.74879 21.304L5.09424 20.9897L4.75772 20.6199ZM4.77608 20.6047L5.1146 20.9727L5.12219 20.9657L5.12949 20.9584L4.77608 20.6047ZM5.53429 19.8471L5.88771 20.2008L5.88962 20.1989L5.53429 19.8471ZM5.53429 19.4503L5.88864 19.0976L5.88755 19.0965L5.53429 19.4503ZM12.2217 23.7156L11.7227 23.7476L11.752 24.2045L12.2098 24.2154L12.2217 23.7156ZM12.7774 23.7156L12.7893 24.2154L13.2187 24.2052L13.2733 23.7792L12.7774 23.7156ZM19.8626 19.4503L19.5083 19.8032L19.509 19.8039L19.8626 19.4503ZM19.4654 19.4503L19.1112 19.0975L19.1111 19.0976L19.4654 19.4503ZM19.4654 19.8471L19.1101 20.1989L19.1119 20.2007L19.4654 19.8471ZM20.223 20.6047L19.8695 20.9583L19.8852 20.974L19.9022 20.9882L20.223 20.6047ZM20.242 20.6199L19.9055 20.9897L20.2509 21.304L20.588 20.9808L20.242 20.6199ZM20.6349 20.2254L20.9974 20.5696L21.3293 20.2202L20.9923 19.8757L20.6349 20.2254ZM20.6202 20.208L20.9757 19.8564L20.9737 19.8544L20.6202 20.208ZM23.7154 12.2048L24.2153 12.1923L24.2031 11.7048H23.7154V12.2048ZM23.7154 12.7635V13.2635H24.2017L24.2152 12.7775L23.7154 12.7635ZM1.28427 12.2048V11.7048H0.796614L0.784426 12.1923L1.28427 12.2048ZM1.28365 12.7635L0.783764 12.774L0.794034 13.2635H1.28365V12.7635ZM12.2193 1.28385L12.2094 0.783949L11.7193 0.793623V1.28385H12.2193ZM12.7804 1.28385H13.2804V0.793623L12.7903 0.783949L12.7804 1.28385ZM19.8626 5.51796L19.509 5.16442L19.5071 5.16639L19.8626 5.51796ZM20.6202 4.76037L20.9737 5.11392V5.11392L20.6202 4.76037ZM20.6214 4.75914L20.975 5.11269L21.3204 4.76723L20.983 4.41386L20.6214 4.75914ZM20.2236 4.3632L20.5672 3.99997L20.2139 3.66578L19.8701 4.00965L20.2236 4.3632ZM19.4654 5.12142L19.1119 4.76787L19.1109 4.76886L19.4654 5.12142ZM19.4654 5.51796L19.1109 5.87053L19.1119 5.87152L19.4654 5.51796ZM22.7636 16.3325L23.2289 16.5156L23.2293 16.5146L22.7636 16.3325ZM22.594 16.7391L23.0504 16.9432L23.0516 16.9406L22.594 16.7391ZM22.7468 17.0924L22.9314 16.6277L22.931 16.6276L22.7468 17.0924ZM23.1208 16.9478L22.6648 16.7428L22.663 16.747L23.1208 16.9478ZM23.3004 16.5202L23.7653 16.7042L23.766 16.7023L23.3004 16.5202ZM20.626 4.3697L20.9795 4.01609L20.9544 3.99099L20.926 3.9697L20.626 4.3697ZM20.6211 4.36356L21.0371 4.08621L20.9941 4.02162L20.9334 3.97313L20.6211 4.36356ZM20.6125 4.35681L20.2596 4.71099L20.2789 4.73022L20.3002 4.74725L20.6125 4.35681ZM4.3875 4.35681L4.03457 4.00263L4.03394 4.00326L4.3875 4.35681ZM4.37952 4.36356L4.73307 4.71711L4.37952 4.36356ZM4.374 4.3697L4.02045 4.01614L4.374 4.3697ZM22.0902 18.8484L21.674 18.5714L21.6736 18.572L22.0902 18.8484ZM22.0117 18.4595L21.7346 18.8757L21.735 18.876L22.0117 18.4595ZM21.6226 18.5381L22.0393 18.8145L22.0398 18.8138L21.6226 18.5381ZM20.4382 20.0254L20.0848 20.3791L20.4479 20.7418L20.801 20.3694L20.4382 20.0254ZM20.0424 20.4233L20.3873 20.7853L20.7584 20.4317L20.3957 20.0695L20.0424 20.4233ZM12.7808 23.4337L12.2808 23.4339L12.281 23.9465L12.7935 23.9335L12.7808 23.4337ZM12.2192 23.4348L12.2066 23.9346L12.7192 23.9476L12.7192 23.4348L12.2192 23.4348ZM4.9619 20.4188L4.60856 20.0651L4.2459 20.4273L4.61702 20.7808L4.9619 20.4188ZM4.56546 20.0215L4.20269 20.3656L4.55585 20.7379L4.91887 20.3752L4.56546 20.0215ZM1.56458 12.7648L1.56454 12.2648L1.05252 12.2648L1.06472 12.7767L1.56458 12.7648ZM1.5652 12.2033L1.06538 12.1898L1.05155 12.7031L1.56503 12.7033L1.5652 12.2033ZM4.58081 4.96128L4.93447 4.60784L4.5722 4.24534L4.21875 4.61644L4.58081 4.96128ZM4.97786 4.56484L4.63381 4.20203L4.26129 4.55529L4.62426 4.91835L4.97786 4.56484ZM12.2192 1.56458L12.7192 1.56456L12.7192 1.05182L12.2066 1.06474L12.2192 1.56458ZM12.7808 1.56458L12.7934 1.06474L12.281 1.05183L12.2808 1.56438L12.7808 1.56458ZM20.0221 4.56484L20.3757 4.91845L20.7388 4.55538L20.3662 4.20203L20.0221 4.56484ZM20.4192 4.96128L20.7813 4.61644L20.4279 4.24544L20.0656 4.60775L20.4192 4.96128ZM23.4348 12.2033L23.435 12.7033L23.9483 12.7031L23.9346 12.1899L23.4348 12.2033ZM23.4354 12.7648L23.9353 12.7766L23.9473 12.2648L23.4355 12.2648L23.4354 12.7648ZM23.247 14.5497L22.7558 14.4564L22.7558 14.4566L23.247 14.5497ZM23.4704 14.8776L23.5635 14.3863L23.5633 14.3863L23.4704 14.8776ZM23.7987 14.6542L24.2896 14.7492L24.29 14.7469L23.7987 14.6542ZM17.117 6.82832H17.617V6.32832H17.117V6.82832ZM16.6268 8.12155L16.2511 7.79165L15.9635 8.11917L16.2487 8.44874L16.6268 8.12155ZM16.8402 11.3221L16.4205 11.0505L16.2765 11.273L16.3798 11.517L16.8402 11.3221ZM14.8868 17.2012L14.6341 16.7698L14.1906 17.0296L14.4625 17.4658L14.8868 17.2012ZM15.2828 18.3195L14.7866 18.3809L14.7866 18.381L15.2828 18.3195ZM9.81829 18.3195L9.32209 18.258L9.32208 18.2581L9.81829 18.3195ZM10.1987 17.2291L10.6254 17.4896L10.8941 17.0495L10.4459 16.7945L10.1987 17.2291ZM7.82772 13.1508L8.32772 13.151V13.1508H7.82772ZM8.22372 11.2617L8.68125 11.4633L8.78586 11.226L8.6521 11.0038L8.22372 11.2617ZM8.47434 8.12155L8.85243 8.44874L9.13859 8.11806L8.84896 7.7904L8.47434 8.12155ZM7.9841 6.82832V6.32832H7.48369L7.4841 6.82873L7.9841 6.82832ZM11.5849 7.25517L11.2731 7.64609L11.4099 7.75517H11.5849V7.25517ZM13.512 7.25517V7.75517H13.687L13.8238 7.64609L13.512 7.25517ZM10.5761 17.4219L10.7836 16.967L10.3856 16.7854L10.1528 17.1557L10.5761 17.4219ZM10.238 18.3715L10.7327 18.4447L10.7343 18.4322L10.238 18.3715ZM10.2549 18.4222L10.6077 18.068L10.6066 18.0669L10.2549 18.4222ZM10.3254 18.4505V17.9504L10.3153 17.9506L10.3254 18.4505ZM14.7757 18.4505L14.7837 17.9505H14.7757V18.4505ZM14.8459 18.4222L14.5003 18.0607L14.493 18.0679L14.8459 18.4222ZM14.8636 18.3715L14.3673 18.4327L14.3681 18.4386L14.8636 18.3715ZM14.5116 17.399L14.932 17.1284L14.6951 16.7603L14.2989 16.9465L14.5116 17.399ZM13.4368 17.7524L13.3393 17.262L13.2946 17.2708L13.2522 17.2877L13.4368 17.7524ZM12.5146 17.9307V18.4307L12.5166 18.4307L12.5146 17.9307ZM11.5836 17.749L11.7669 17.2838L11.7261 17.2677L11.6831 17.259L11.5836 17.749ZM9.04108 12.0444L9.29494 11.6136L8.76568 11.3017L8.56775 11.8833L9.04108 12.0444ZM8.86738 13.0967H9.36738L9.36738 13.0963L8.86738 13.0967ZM16 12.079L16.4753 11.9235L16.2868 11.3475L15.7571 11.642L16 12.079ZM16.2126 10.0783H16.7126H16.2126ZM13.4402 10.0783H12.9402H13.4402ZM13.2416 11.2828V11.7828H13.7416V11.2828H13.2416ZM12.5865 10.6235L12.5923 10.1235H12.5865V10.6235ZM11.9272 11.2828V11.7828H12.4272V11.2828H11.9272ZM14.4057 17.9029L14.683 18.3189L16.185 17.3176L14.3819 17.4034L14.4057 17.9029ZM10.9086 18.0694L10.555 18.423L10.7114 18.5794L10.9323 18.5688L10.9086 18.0694ZM23.2191 12.4997C23.2191 18.4199 18.4201 23.2189 12.4995 23.2189V24.2189C18.9723 24.2189 24.2191 18.9722 24.2191 12.4997H23.2191ZM12.4995 23.2189C6.57966 23.2189 1.78059 18.4199 1.78059 12.4997H0.780595C0.780595 18.9722 6.02736 24.2189 12.4995 24.2189V23.2189ZM1.78059 12.4997C1.78059 6.57981 6.57969 1.78018 12.4995 1.78018V0.780182C6.02733 0.780182 0.780595 6.0276 0.780595 12.4997H1.78059ZM12.4995 1.78018C18.42 1.78018 23.2191 6.57983 23.2191 12.4997H24.2191C24.2191 6.02758 18.9724 0.780182 12.4995 0.780182V1.78018ZM20.8745 12.5C20.8745 17.1248 17.1251 20.8742 12.5 20.8742V21.8742C17.6774 21.8742 21.8745 17.6771 21.8745 12.5H20.8745ZM12.5 20.8742C7.87487 20.8742 4.12549 17.1248 4.12549 12.5H3.12549C3.12549 17.6771 7.3226 21.8742 12.5 21.8742V20.8742ZM4.12549 12.5C4.12549 7.87485 7.87488 4.12546 12.5 4.12546V3.12546C7.32259 3.12546 3.12549 7.32256 3.12549 12.5H4.12549ZM12.5 4.12546C17.1251 4.12546 20.8745 7.87485 20.8745 12.5H21.8745C21.8745 7.32256 17.6774 3.12546 12.5 3.12546V4.12546ZM11.5658 16.2786C11.1348 16.2786 10.7852 16.6282 10.7852 17.0592H11.7852C11.7852 17.1804 11.6871 17.2786 11.5658 17.2786V16.2786ZM10.7852 17.0592V18.2675H11.7852V17.0592H10.7852ZM10.7852 18.2675C10.7852 18.6985 11.1348 19.0481 11.5658 19.0481V18.0481C11.6871 18.0481 11.7852 18.1463 11.7852 18.2675H10.7852ZM11.5658 19.0481C11.9969 19.0481 12.3465 18.6985 12.3465 18.2675H11.3465C11.3465 18.1463 11.4446 18.0481 11.5658 18.0481V19.0481ZM12.3465 18.2675V17.0592H11.3465V18.2675H12.3465ZM12.3465 17.0592C12.3465 16.6282 11.9969 16.2786 11.5658 16.2786V17.2786C11.4446 17.2786 11.3465 17.1804 11.3465 17.0592H12.3465ZM13.4347 16.2786C13.0037 16.2786 12.6541 16.6282 12.6541 17.0592H13.6541C13.6541 17.1804 13.556 17.2786 13.4347 17.2786V16.2786ZM12.6541 17.0592V18.2675H13.6541V17.0592H12.6541ZM12.6541 18.2675C12.6541 18.6985 13.0037 19.0481 13.4347 19.0481V18.0481C13.556 18.0481 13.6541 18.1463 13.6541 18.2675H12.6541ZM13.4347 19.0481C13.8658 19.0481 14.2153 18.6985 14.2153 18.2675H13.2153C13.2153 18.1463 13.3135 18.0481 13.4347 18.0481V19.0481ZM14.2153 18.2675V17.0592H13.2153V18.2675H14.2153ZM14.2153 17.0592C14.2153 16.6282 13.8658 16.2786 13.4347 16.2786V17.2786C13.3135 17.2786 13.2153 17.1804 13.2153 17.0592H14.2153ZM13.2321 14.9485H11.7684V15.9485H13.2321V14.9485ZM12.2684 15.4485V14.8306H11.2684V15.4485H12.2684ZM12.2684 14.8306C12.2684 14.7027 12.3723 14.5988 12.5002 14.5988V13.5988C11.82 13.5988 11.2684 14.1504 11.2684 14.8306H12.2684ZM12.5002 14.5988C12.6282 14.5988 12.7321 14.7027 12.7321 14.8306H13.7321C13.7321 14.1504 13.1805 13.5988 12.5002 13.5988V14.5988ZM12.7321 14.8306V15.4485H13.7321V14.8306H12.7321ZM4.43248 3.99997C4.29046 4.13431 4.15165 4.27249 4.01667 4.41386L4.73995 5.10442C4.86321 4.97531 4.98999 4.84912 5.11968 4.72644L4.43248 3.99997ZM3.87831 4.75914C3.87831 4.90909 3.94528 5.01124 3.96195 5.03638C3.97566 5.05704 3.98865 5.07329 3.99834 5.08466C4.00341 5.0906 4.00816 5.09589 4.01244 5.1005C4.01459 5.10282 4.01667 5.10502 4.01865 5.10708C4.01965 5.10811 4.02062 5.10911 4.02157 5.11009C4.02205 5.11058 4.02252 5.11106 4.02299 5.11153C4.02322 5.11177 4.02346 5.112 4.02369 5.11224C4.0238 5.11235 4.02392 5.11247 4.02404 5.11259C4.02409 5.11264 4.02418 5.11273 4.02421 5.11276C4.02429 5.11285 4.02438 5.11293 4.37892 4.76037C4.73345 4.4078 4.73354 4.40788 4.73362 4.40797C4.73365 4.408 4.73374 4.40809 4.7338 4.40814C4.73391 4.40826 4.73403 4.40838 4.73414 4.40849C4.73437 4.40873 4.73461 4.40896 4.73484 4.4092C4.73531 4.40967 4.73578 4.41015 4.73625 4.41064C4.73721 4.41161 4.73818 4.41261 4.73917 4.41364C4.74114 4.41569 4.74321 4.41787 4.74534 4.42017C4.74959 4.42475 4.75429 4.42999 4.7593 4.43586C4.76888 4.44709 4.78171 4.46315 4.79527 4.48359C4.8083 4.50322 4.82677 4.53404 4.84293 4.57461C4.85867 4.61416 4.87831 4.67815 4.87831 4.75914H3.87831ZM4.02551 5.11406L4.78372 5.87166L5.49054 5.16427L4.73233 4.40667L4.02551 5.11406ZM4.78161 5.86954C4.93401 6.02365 5.13543 6.10058 5.3354 6.10058V5.10058C5.39095 5.10058 5.44918 5.12243 5.49265 5.16639L4.78161 5.86954ZM5.3354 6.10058C5.53469 6.10058 5.73558 6.02378 5.88784 5.87152L5.18074 5.16441C5.22285 5.1223 5.27931 5.10058 5.3354 5.10058V6.10058ZM5.88883 5.87052C6.1917 5.56595 6.1917 5.07343 5.88883 4.76886L5.17975 5.47398C5.09473 5.38849 5.09473 5.2509 5.17975 5.1654L5.88883 5.87052ZM5.88784 4.76787L5.12963 4.00965L4.42252 4.71676L5.18074 5.47497L5.88784 4.76787ZM4.78371 19.0966L4.02549 19.8543L4.73234 20.5617L5.49055 19.804L4.78371 19.0966ZM4.0034 19.8778C3.9959 19.8864 3.98984 19.8938 3.98571 19.8989C3.9818 19.9038 3.97842 19.9081 3.97748 19.9093C3.97581 19.9115 3.97676 19.9102 3.97799 19.9087C3.97949 19.9068 3.98287 19.9026 3.98754 19.8973L4.74215 20.5534C4.74927 20.5453 4.75502 20.5382 4.75885 20.5334C4.76241 20.5289 4.76565 20.5248 4.76628 20.524C4.76763 20.5222 4.76654 20.5236 4.76497 20.5256C4.76318 20.5278 4.75949 20.5324 4.75444 20.5381L4.0034 19.8778ZM4.00144 20.5688C4.13537 20.7105 4.27288 20.8477 4.41166 20.9808L5.10378 20.259C4.97452 20.135 4.84889 20.0096 4.72824 19.8819L4.00144 20.5688ZM5.09424 20.9897C5.08703 20.9962 5.08111 21.0012 5.07773 21.0039C5.07493 21.0062 5.07258 21.008 5.07499 21.0061C5.07616 21.0052 5.08175 21.0008 5.08807 20.9957C5.09488 20.9901 5.10411 20.9823 5.1146 20.9727L4.43755 20.2367C4.44498 20.2299 4.45115 20.2247 4.45491 20.2217C4.45816 20.219 4.46069 20.217 4.4588 20.2185C4.45834 20.2189 4.4566 20.2202 4.4548 20.2217C4.45284 20.2232 4.45009 20.2254 4.44689 20.228C4.44044 20.2332 4.43147 20.2407 4.4212 20.2501L5.09424 20.9897ZM5.12949 20.9584L5.8877 20.2008L5.18088 19.4934L4.42267 20.251L5.12949 20.9584ZM5.88962 20.1989C6.1909 19.8945 6.19231 19.4026 5.88864 19.0976L5.17994 19.8031C5.09413 19.7169 5.09553 19.5796 5.17896 19.4953L5.88962 20.1989ZM5.88755 19.0965C5.58275 18.7922 5.08839 18.7908 4.78289 19.0975L5.49137 19.8032C5.40495 19.8899 5.26553 19.8885 5.18103 19.8042L5.88755 19.0965ZM12.4995 21.8356C12.0679 21.8356 11.7193 22.1858 11.7193 22.6161H12.7193C12.7193 22.7367 12.6215 22.8356 12.4995 22.8356V21.8356ZM11.7193 22.6161V23.6875H12.7193V22.6161H11.7193ZM11.7193 23.6875C11.7193 23.7226 11.7227 23.751 11.7236 23.759C11.7238 23.7611 11.7241 23.7635 11.7242 23.7638C11.7243 23.7647 11.7242 23.7643 11.7241 23.7635C11.7239 23.7618 11.7233 23.7558 11.7227 23.7476L12.7207 23.6836C12.7199 23.6706 12.7187 23.6598 12.718 23.6535C12.7177 23.6503 12.7174 23.6476 12.7172 23.6462C12.7172 23.6458 12.7171 23.6454 12.7171 23.6452C12.717 23.6449 12.717 23.6447 12.717 23.6445C12.717 23.6441 12.7169 23.644 12.717 23.6441C12.717 23.6442 12.7171 23.6454 12.7173 23.6473C12.7175 23.6492 12.7178 23.6521 12.7181 23.6557C12.7186 23.6629 12.7193 23.6739 12.7193 23.6875H11.7193ZM12.2098 24.2154C12.306 24.2177 12.4023 24.2189 12.4995 24.2189V23.2189C12.4107 23.2189 12.3223 23.2178 12.2336 23.2157L12.2098 24.2154ZM12.4995 24.2189C12.5968 24.2189 12.6931 24.2177 12.7893 24.2154L12.7655 23.2157C12.6768 23.2178 12.5884 23.2189 12.4995 23.2189V24.2189ZM13.2733 23.7792C13.2729 23.782 13.2726 23.784 13.273 23.7814C13.2732 23.7803 13.2742 23.7738 13.2751 23.767C13.277 23.7526 13.2804 23.7236 13.2804 23.6875H12.2804C12.2804 23.6609 12.283 23.6412 12.2837 23.6361C12.284 23.6339 12.2842 23.632 12.2837 23.6356C12.2834 23.6377 12.2824 23.6443 12.2814 23.652L13.2733 23.7792ZM13.2804 23.6875V22.6161H12.2804V23.6875H13.2804ZM13.2804 22.6161C13.2804 22.185 12.9311 21.8356 12.4995 21.8356V22.8356C12.3789 22.8356 12.2804 22.7375 12.2804 22.6161H13.2804ZM20.2168 19.0975C19.9119 18.7913 19.4161 18.7913 19.1112 19.0975L19.8197 19.8032C19.7338 19.8894 19.5942 19.8894 19.5083 19.8032L20.2168 19.0975ZM19.1111 19.0976C18.8074 19.4026 18.8088 19.8945 19.1101 20.1989L19.8207 19.4953C19.9042 19.5796 19.9056 19.7169 19.8198 19.8031L19.1111 19.0976ZM19.1119 20.2007L19.8695 20.9583L20.5766 20.2512L19.819 19.4936L19.1119 20.2007ZM19.9022 20.9882C19.9103 20.9949 19.9171 21.0004 19.9218 21.004C19.9241 21.0057 19.926 21.0072 19.9273 21.0082C19.9278 21.0086 19.9284 21.0091 19.9287 21.0093C19.9291 21.0096 19.9293 21.0097 19.9293 21.0097C19.9299 21.0102 19.9271 21.008 19.9231 21.0049C19.9189 21.0014 19.9127 20.9963 19.9055 20.9897L20.5785 20.2501C20.5585 20.2319 20.541 20.2186 20.5361 20.2149C20.5319 20.2117 20.5339 20.2132 20.5341 20.2134C20.5356 20.2145 20.5391 20.2173 20.5438 20.2212L19.9022 20.9882ZM20.588 20.9808C20.7274 20.8471 20.8639 20.7103 20.9974 20.5696L20.2723 19.8811C20.15 20.0098 20.0246 20.1356 19.8959 20.259L20.588 20.9808ZM20.9923 19.8757C21.0034 19.8871 21.0116 19.8967 21.0164 19.9025C21.0188 19.9054 21.0206 19.9077 21.0215 19.9088C21.0222 19.9096 21.0227 19.9103 21.0219 19.9093C21.0214 19.9087 21.0196 19.9064 21.0176 19.9038C21.0155 19.9011 21.0124 19.8973 21.0086 19.8927C21.0011 19.8837 20.99 19.8708 20.9757 19.8564L20.2647 20.5596C20.2531 20.5479 20.2446 20.5379 20.2394 20.5318C20.2369 20.5287 20.2349 20.5263 20.234 20.525C20.2331 20.5239 20.2325 20.5231 20.2332 20.524C20.2335 20.5244 20.2352 20.5266 20.237 20.5289C20.239 20.5315 20.242 20.5352 20.2456 20.5396C20.2528 20.5483 20.2636 20.5608 20.2774 20.575L20.9923 19.8757ZM20.9737 19.8544L20.2161 19.0968L19.509 19.8039L20.2666 20.5615L20.9737 19.8544ZM23.7154 11.7048C23.7382 11.7048 23.7567 11.7064 23.7686 11.7078C23.7745 11.7084 23.7792 11.7091 23.7819 11.7095C23.7843 11.7098 23.7863 11.7101 23.7854 11.71C23.7853 11.71 23.7823 11.7095 23.7789 11.709C23.7752 11.7085 23.7695 11.7077 23.7626 11.7069C23.7486 11.7053 23.7281 11.7036 23.7032 11.7036V12.7036C23.6805 12.7036 23.662 12.7019 23.65 12.7006C23.6441 12.6999 23.6395 12.6993 23.6368 12.6989C23.6343 12.6985 23.6324 12.6982 23.6333 12.6984C23.6333 12.6984 23.6363 12.6988 23.6397 12.6993C23.6434 12.6999 23.6491 12.7006 23.6561 12.7014C23.67 12.703 23.6906 12.7048 23.7154 12.7048V11.7048ZM23.7032 11.7036H22.6323V12.7036H23.7032V11.7036ZM22.6323 11.7036C22.2014 11.7036 21.8514 12.0521 21.8514 12.4838H22.8514C22.8514 12.6059 22.7523 12.7036 22.6323 12.7036V11.7036ZM21.8514 12.4838C21.8514 12.9154 22.2007 13.2647 22.6323 13.2647V12.2647C22.753 12.2647 22.8514 12.3631 22.8514 12.4838H21.8514ZM22.6323 13.2647H23.7032V12.2647H22.6323V13.2647ZM23.7032 13.2647C23.7255 13.2647 23.7445 13.2633 23.7591 13.2618C23.7728 13.2603 23.7837 13.2586 23.7859 13.2583C23.7859 13.2583 23.7877 13.258 23.7868 13.2581C23.7868 13.2581 23.7861 13.2583 23.7851 13.2584C23.7834 13.2587 23.7791 13.2593 23.7735 13.26C23.7626 13.2613 23.7418 13.2635 23.7154 13.2635V12.2635C23.6872 12.2635 23.6646 12.2658 23.6518 12.2674C23.6453 12.2682 23.6401 12.269 23.6373 12.2694C23.6359 12.2696 23.6348 12.2698 23.6342 12.2699C23.634 12.2699 23.6337 12.2699 23.6336 12.2699C23.6335 12.27 23.6336 12.27 23.6337 12.2699C23.6338 12.2699 23.6427 12.2685 23.6543 12.2673C23.6667 12.266 23.6834 12.2647 23.7032 12.2647V13.2647ZM24.2152 12.7775C24.2178 12.6852 24.2191 12.5925 24.2191 12.4997H23.2191C23.2191 12.5833 23.218 12.6667 23.2156 12.7495L24.2152 12.7775ZM24.2191 12.4997C24.2191 12.3971 24.2178 12.2944 24.2153 12.1923L23.2156 12.2173C23.2179 12.311 23.2191 12.4053 23.2191 12.4997H24.2191ZM2.36743 11.7036H1.29651V12.7036H2.36743V11.7036ZM1.29651 11.7036C1.27163 11.7036 1.25108 11.7053 1.23712 11.7069C1.2302 11.7077 1.22451 11.7085 1.22081 11.709C1.2174 11.7095 1.21441 11.71 1.21432 11.71C1.21342 11.7101 1.21541 11.7098 1.21782 11.7095C1.22052 11.7091 1.22521 11.7084 1.23111 11.7078C1.24305 11.7064 1.26154 11.7048 1.28427 11.7048V12.7048C1.30914 12.7048 1.3297 12.703 1.34366 12.7014C1.35058 12.7006 1.35627 12.6999 1.35997 12.6993C1.36338 12.6988 1.36637 12.6984 1.36646 12.6984C1.36736 12.6982 1.36537 12.6985 1.36296 12.6989C1.36026 12.6993 1.35557 12.6999 1.34966 12.7006C1.33773 12.7019 1.31924 12.7036 1.29651 12.7036V11.7036ZM0.784426 12.1923C0.781874 12.2944 0.780595 12.3971 0.780595 12.4997H1.78059C1.78059 12.4054 1.78177 12.311 1.78411 12.2173L0.784426 12.1923ZM0.780595 12.4997C0.780595 12.5924 0.781881 12.6842 0.783764 12.774L1.78354 12.753C1.78176 12.6678 1.78059 12.5833 1.78059 12.4997H0.780595ZM1.28365 13.2635C1.26087 13.2635 1.24247 13.2619 1.231 13.2606C1.22536 13.2599 1.22095 13.2593 1.21868 13.259C1.21685 13.2588 1.21497 13.2585 1.21652 13.2587C1.21719 13.2588 1.22038 13.2593 1.22425 13.2598C1.22835 13.2604 1.23415 13.2611 1.2411 13.2618C1.25529 13.2633 1.2742 13.2647 1.29651 13.2647V12.2647C1.31637 12.2647 1.33299 12.266 1.34498 12.2672C1.35082 12.2678 1.35555 12.2685 1.35859 12.2689C1.3614 12.2692 1.36355 12.2696 1.36319 12.2695C1.36278 12.2695 1.36344 12.2696 1.36282 12.2695C1.36261 12.2694 1.36225 12.2694 1.36183 12.2693C1.361 12.2692 1.35962 12.269 1.35795 12.2688C1.35465 12.2683 1.34922 12.2676 1.34256 12.2668C1.32905 12.2653 1.30858 12.2635 1.28365 12.2635V13.2635ZM1.29651 13.2647H2.36743V12.2647H1.29651V13.2647ZM2.36743 13.2647C2.7977 13.2647 3.14831 12.9161 3.14831 12.4838H2.14831C2.14831 12.3624 2.24681 12.2647 2.36743 12.2647V13.2647ZM3.14831 12.4838C3.14831 12.0515 2.79698 11.7036 2.36743 11.7036V12.7036C2.24753 12.7036 2.14831 12.6066 2.14831 12.4838H3.14831ZM11.7193 1.28385V2.35233H12.7193V1.28385H11.7193ZM11.7193 2.35233C11.7193 2.78329 12.0686 3.1326 12.4995 3.1326V2.1326C12.6209 2.1326 12.7193 2.23101 12.7193 2.35233H11.7193ZM12.4995 3.1326C12.9304 3.1326 13.2804 2.78401 13.2804 2.35233H12.2804C12.2804 2.23029 12.3796 2.1326 12.4995 2.1326V3.1326ZM13.2804 2.35233V1.28385H12.2804V2.35233H13.2804ZM12.7903 0.783949C12.698 0.782127 12.5995 0.780182 12.4995 0.780182V1.78018C12.5881 1.78018 12.6768 1.7819 12.7706 1.78375L12.7903 0.783949ZM12.4995 0.780182C12.4002 0.780182 12.3017 0.782128 12.2094 0.783949L12.2291 1.78375C12.3229 1.7819 12.4116 1.78018 12.4995 1.78018V0.780182ZM19.6643 6.10058C19.8631 6.10058 20.0653 6.02404 20.2181 5.86954L19.5071 5.16639C19.5509 5.12204 19.6087 5.10058 19.6643 5.10058V6.10058ZM20.2161 5.87152L20.9737 5.11392L20.2666 4.40681L19.509 5.16441L20.2161 5.87152ZM20.9737 5.11392C20.9741 5.11355 20.9743 5.11335 20.9745 5.11317C20.9746 5.11304 20.9747 5.11294 20.975 5.11269L20.2678 4.40559C20.2675 4.40596 20.2673 4.40616 20.2671 4.40634C20.267 4.40646 20.2669 4.40657 20.2666 4.40681L20.9737 5.11392ZM20.983 4.41386C20.8481 4.27249 20.7092 4.13431 20.5672 3.99997L19.88 4.72644C20.0097 4.84912 20.1365 4.97531 20.2598 5.10442L20.983 4.41386ZM19.8701 4.00965L19.1119 4.76787L19.819 5.47497L20.5772 4.71676L19.8701 4.00965ZM19.1109 4.76886C18.808 5.07343 18.808 5.56595 19.1109 5.87052L19.82 5.1654C19.905 5.2509 19.905 5.38849 19.82 5.47398L19.1109 4.76886ZM19.1119 5.87152C19.2641 6.02378 19.465 6.10058 19.6643 6.10058V5.10058C19.7204 5.10058 19.7769 5.1223 19.819 5.16441L19.1119 5.87152ZM23.2969 15.7014C22.9144 15.5673 22.458 15.741 22.2979 16.1504L23.2293 16.5146C23.1785 16.6443 23.0526 16.6754 22.966 16.645L23.2969 15.7014ZM22.2983 16.1494C22.2474 16.2787 22.1929 16.4094 22.1364 16.5376L23.0516 16.9406C23.1132 16.8008 23.1729 16.6578 23.2289 16.5156L22.2983 16.1494ZM22.1376 16.535C21.9511 16.9521 22.1731 17.403 22.5627 17.5573L22.931 16.6276C23.0298 16.6667 23.1139 16.8013 23.0504 16.9432L22.1376 16.535ZM22.5623 17.5571C22.6591 17.5956 22.7598 17.6136 22.8574 17.6136V16.6136C22.8818 16.6136 22.9067 16.6179 22.9314 16.6277L22.5623 17.5571ZM22.8574 17.6136C23.1467 17.6136 23.4455 17.4523 23.5787 17.1486L22.663 16.747C22.7054 16.6501 22.7918 16.6136 22.8574 16.6136V17.6136ZM23.5769 17.1528C23.6442 17.003 23.7068 16.8519 23.7653 16.7042L22.8355 16.3361C22.7809 16.4741 22.7242 16.6106 22.6648 16.7428L23.5769 17.1528ZM23.766 16.7023C23.9318 16.2785 23.6907 15.8395 23.2969 15.7014L22.966 16.645C22.8678 16.6106 22.7783 16.4823 22.8347 16.338L23.766 16.7023ZM20.926 3.9697C20.9791 4.00949 21.0124 4.05144 21.03 4.07612C21.0383 4.08775 21.0442 4.09716 21.0452 4.09873C21.0488 4.1044 21.0423 4.09394 21.0371 4.08621L20.2051 4.64091C20.2005 4.6341 20.1946 4.62464 20.1989 4.63135C20.2005 4.63395 20.2071 4.64443 20.2161 4.65714C20.2353 4.68396 20.2705 4.72806 20.326 4.7697L20.926 3.9697ZM20.9334 3.97313C20.9288 3.96937 20.9247 3.96624 20.9236 3.96534C20.922 3.9641 20.9232 3.96508 20.9249 3.96638L20.3002 4.74725C20.3048 4.751 20.3089 4.75413 20.31 4.75503C20.3116 4.75627 20.3104 4.75529 20.3088 4.75399L20.9334 3.97313ZM20.9654 4.00263C18.7949 1.83974 15.8012 0.5 12.5003 0.5V1.5C15.5252 1.5 18.2682 2.72665 20.2596 4.71099L20.9654 4.00263ZM12.5003 0.5C9.1988 0.5 6.20515 1.83973 4.03457 4.00263L4.74042 4.71099C6.7318 2.72666 9.4748 1.5 12.5003 1.5V0.5ZM4.03394 4.00326C4.04778 3.98943 4.05965 3.97926 4.0666 3.97351C4.07016 3.97056 4.07301 3.96828 4.0746 3.96703C4.07603 3.96591 4.0772 3.96499 4.07661 3.96546C4.07651 3.96553 4.07465 3.96698 4.07254 3.96864C4.07026 3.97044 4.06673 3.97326 4.06249 3.97677C4.05421 3.98363 4.04103 3.99495 4.02597 4.01001L4.73307 4.71711C4.71924 4.73094 4.70736 4.74111 4.70042 4.74686C4.69686 4.74981 4.694 4.75209 4.69241 4.75334C4.69099 4.75447 4.68981 4.75538 4.69041 4.75491C4.6905 4.75484 4.69237 4.75339 4.69448 4.75173C4.69675 4.74993 4.70029 4.74711 4.70452 4.74361C4.71281 4.73674 4.72599 4.72542 4.74105 4.71037L4.03394 4.00326ZM4.02597 4.01001C4.01607 4.0199 4.0085 4.02828 4.00432 4.03298C4.0021 4.03548 4.00029 4.03757 3.99913 4.03891C3.99805 4.04016 3.99709 4.04128 3.99699 4.0414C3.99663 4.04182 3.99713 4.04124 3.99775 4.04052C3.99845 4.03971 3.9998 4.03815 4.00156 4.03616C4.00482 4.0325 4.01147 4.02512 4.02045 4.01614L4.72755 4.72325C4.73745 4.71335 4.74502 4.70497 4.7492 4.70027C4.75142 4.69777 4.75324 4.69568 4.75439 4.69435C4.75547 4.69309 4.75643 4.69198 4.75654 4.69185C4.75689 4.69144 4.75639 4.69202 4.75577 4.69274C4.75508 4.69355 4.75372 4.69511 4.75196 4.69709C4.7487 4.70075 4.74205 4.70814 4.73307 4.71711L4.02597 4.01001ZM4.02045 4.01614C1.8481 6.18849 0.5 9.18972 0.5 12.4997H1.5C1.5 9.46669 2.73426 6.71654 4.72755 4.72325L4.02045 4.01614ZM0.5 12.4997C0.5 19.1168 5.88244 24.4994 12.5003 24.4994V23.4994C6.4347 23.4994 1.5 18.5645 1.5 12.4997H0.5ZM12.5003 24.4994C16.5337 24.4994 20.2751 22.4897 22.5069 19.1247L21.6736 18.572C19.6268 21.658 16.198 23.4994 12.5003 23.4994V24.4994ZM22.5065 19.1253C22.7462 18.7651 22.6463 18.2808 22.2884 18.043L21.735 18.876C21.6348 18.8094 21.6061 18.6733 21.674 18.5714L22.5065 19.1253ZM22.2888 18.0433C21.9297 17.8042 21.4435 17.9022 21.2054 18.2625L22.0398 18.8138C21.9723 18.9159 21.8359 18.9431 21.7346 18.8757L22.2888 18.0433ZM21.2059 18.2618C20.8675 18.7721 20.4886 19.2456 20.0754 19.6814L20.801 20.3694C21.2531 19.8926 21.6683 19.374 22.0393 18.8145L21.2059 18.2618ZM20.7916 19.6717L20.216 19.0966L19.5092 19.804L20.0848 20.3791L20.7916 19.6717ZM19.1121 20.2009L19.6891 20.7771L20.3957 20.0695L19.8187 19.4933L19.1121 20.2009ZM19.6975 20.0613C17.8406 21.8307 15.3832 22.8674 12.7681 22.9338L12.7935 23.9335C15.6584 23.8608 18.3522 22.7245 20.3873 20.7853L19.6975 20.0613ZM13.2808 23.4335L13.2804 22.6159L12.2804 22.6163L12.2808 23.4339L13.2808 23.4335ZM11.7193 22.6161L11.7192 23.4348L12.7192 23.4348L12.7193 22.6162L11.7193 22.6161ZM12.2319 22.935C9.55278 22.867 7.12065 21.7848 5.30678 20.0568L4.61702 20.7808C6.60305 22.6728 9.26933 23.8601 12.2066 23.9346L12.2319 22.935ZM5.31525 20.7726L5.88763 20.2009L5.18095 19.4933L4.60856 20.0651L5.31525 20.7726ZM4.78372 19.0966L4.21205 19.6678L4.91887 20.3752L5.49054 19.804L4.78372 19.0966ZM4.92823 19.6774C3.20567 17.8614 2.12826 15.4303 2.06444 12.7529L1.06472 12.7767C1.13469 15.7122 2.31683 18.3774 4.20269 20.3656L4.92823 19.6774ZM1.56463 13.2648L2.36747 13.2647L2.36738 12.2647L1.56454 12.2648L1.56463 13.2648ZM2.3676 11.7036L1.56537 11.7033L1.56503 12.7033L2.36725 12.7036L2.3676 11.7036ZM2.06502 12.2167C2.13703 9.54338 3.21804 7.11707 4.94286 5.30612L4.21875 4.61644C2.33024 6.59924 1.14433 9.25908 1.06538 12.1898L2.06502 12.2167ZM4.22714 5.31472L4.78346 5.8714L5.4908 5.16452L4.93447 4.60784L4.22714 5.31472ZM5.88789 4.76791L5.33145 4.21133L4.62426 4.91835L5.18069 5.47493L5.88789 4.76791ZM5.3219 4.92765C7.13473 3.20857 9.56046 2.13175 12.2318 2.06442L12.2066 1.06474C9.27761 1.13856 6.61841 2.32006 4.63381 4.20203L5.3219 4.92765ZM11.7192 1.5646L11.7193 2.35234L12.7193 2.35231L12.7192 1.56456L11.7192 1.5646ZM13.2804 2.35253L13.2808 1.56479L12.2808 1.56438L12.2804 2.35212L13.2804 2.35253ZM12.7682 2.06442C15.4395 2.13175 17.8653 3.20857 19.6781 4.92765L20.3662 4.20203C18.3816 2.32006 15.7224 1.13856 12.7934 1.06474L12.7682 2.06442ZM19.6686 4.21124L19.1119 4.76782L19.8189 5.47502L20.3757 4.91845L19.6686 4.21124ZM20.2161 5.8715L20.7728 5.31482L20.0656 4.60775L19.509 5.16443L20.2161 5.8715ZM20.0571 5.30612C21.782 7.11713 22.8636 9.54343 22.935 12.2166L23.9346 12.1899C23.8563 9.25904 22.6697 6.59918 20.7813 4.61644L20.0571 5.30612ZM23.4346 11.7033L22.6321 11.7036L22.6325 12.7036L23.435 12.7033L23.4346 11.7033ZM22.6322 13.2647L23.4354 13.2648L23.4355 12.2648L22.6323 12.2647L22.6322 13.2647ZM22.9356 12.753C22.9221 13.3261 22.8617 13.8984 22.7558 14.4564L23.7382 14.6429C23.8545 14.0306 23.9205 13.4038 23.9353 12.7766L22.9356 12.753ZM22.7558 14.4566C22.6755 14.8798 22.9536 15.2887 23.3775 15.3689L23.5633 14.3863C23.6828 14.4089 23.7608 14.5239 23.7383 14.6428L22.7558 14.4566ZM23.3773 15.3688C23.8015 15.4492 24.2081 15.1704 24.2896 14.7492L23.3078 14.5592C23.3304 14.4425 23.4437 14.3636 23.5635 14.3863L23.3773 15.3688ZM24.29 14.7469C24.429 14.0108 24.5 13.2549 24.5 12.4997H23.5C23.5 13.1927 23.4348 13.8865 23.3074 14.5614L24.29 14.7469ZM24.5 12.4997C24.5 9.18978 23.1526 6.18851 20.9795 4.01609L20.2725 4.7233C22.2663 6.71653 23.5 9.46663 23.5 12.4997H24.5ZM12.5 20.5932C8.03753 20.5932 4.40613 16.9619 4.40613 12.4991H3.40613C3.40613 17.5142 7.48523 21.5932 12.5 21.5932V20.5932ZM4.40613 12.4991C4.40613 8.03671 8.03748 4.40587 12.5 4.40587V3.40587C7.48529 3.40587 3.40613 7.48434 3.40613 12.4991H4.40613ZM12.5 4.40587C16.9626 4.40587 20.5945 8.03676 20.5945 12.4991H21.5945C21.5945 7.48429 17.5147 3.40587 12.5 3.40587V4.40587ZM20.5945 12.4991C20.5945 16.9619 16.9625 20.5932 12.5 20.5932V21.5932C17.5147 21.5932 21.5945 17.5142 21.5945 12.4991H20.5945ZM12.5 2.84434C7.17601 2.84434 2.8452 7.17515 2.8452 12.4991H3.8452C3.8452 7.72743 7.72829 3.84434 12.5 3.84434V2.84434ZM2.8452 12.4991C2.8452 17.8236 7.17599 22.1544 12.5 22.1544V21.1544C7.72831 21.1544 3.8452 17.2714 3.8452 12.4991H2.8452ZM12.5 22.1544C17.8246 22.1544 22.1554 17.8237 22.1554 12.4991H21.1554C21.1554 17.2714 17.2723 21.1544 12.5 21.1544V22.1544ZM22.1554 12.4991C22.1554 7.17512 17.8246 2.84434 12.5 2.84434V3.84434C17.2723 3.84434 21.1554 7.72745 21.1554 12.4991H22.1554ZM23.4812 12.5739C23.4812 18.5944 18.564 23.4812 12.4906 23.4812V24.4812C19.1094 24.4812 24.4812 19.1536 24.4812 12.5739H23.4812ZM12.4906 23.4812C6.41723 23.4812 1.5 18.5944 1.5 12.5739H0.5C0.5 19.1536 5.87181 24.4812 12.4906 24.4812V23.4812ZM1.5 12.5739C1.5 6.55336 6.41723 1.66656 12.4906 1.66656V0.666556C5.87181 0.666556 0.5 5.99423 0.5 12.5739H1.5ZM12.4906 1.66656C18.564 1.66656 23.4812 6.55336 23.4812 12.5739H24.4812C24.4812 5.99423 19.1094 0.666556 12.4906 0.666556V1.66656ZM10.3381 11.4323C10.6971 11.4323 11.0415 11.2897 11.2953 11.0358L10.5882 10.3287C10.5219 10.3951 10.4319 10.4323 10.3381 10.4323V11.4323ZM11.2953 11.0358C11.5492 10.782 11.6918 10.4377 11.6918 10.0786H10.6918C10.6918 10.1724 10.6546 10.2624 10.5882 10.3287L11.2953 11.0358ZM11.6918 10.0786C11.6918 9.71961 11.5492 9.37529 11.2953 9.12142L10.5882 9.82853C10.6546 9.89486 10.6918 9.98483 10.6918 10.0786H11.6918ZM11.2953 9.12142C11.0415 8.86755 10.6971 8.72493 10.3381 8.72493V9.72493C10.4319 9.72493 10.5219 9.76219 10.5882 9.82853L11.2953 9.12142ZM10.3381 8.72493C9.97909 8.72493 9.63477 8.86755 9.38091 9.12142L10.088 9.82853C10.1543 9.76219 10.2443 9.72493 10.3381 9.72493V8.72493ZM9.38091 9.12142C9.12704 9.37529 8.98441 9.71961 8.98441 10.0786H9.98441C9.98441 9.98483 10.0217 9.89486 10.088 9.82853L9.38091 9.12142ZM8.98441 10.0786C8.98441 10.4377 9.12704 10.782 9.38091 11.0358L10.088 10.3287C10.0217 10.2624 9.98441 10.1724 9.98441 10.0786H8.98441ZM9.38091 11.0358C9.63477 11.2897 9.97909 11.4323 10.3381 11.4323V10.4323C10.2443 10.4323 10.1543 10.3951 10.088 10.3287L9.38091 11.0358ZM15.1801 10.0786C15.1801 10.1724 15.1428 10.2624 15.0765 10.3287L15.7836 11.0358C16.0375 10.782 16.1801 10.4377 16.1801 10.0786H15.1801ZM15.0765 10.3287C15.0102 10.3951 14.9202 10.4323 14.8264 10.4323V11.4323C15.1854 11.4323 15.5298 11.2897 15.7836 11.0358L15.0765 10.3287ZM14.8264 10.4323C14.7326 10.4323 14.6426 10.3951 14.5763 10.3287L13.8692 11.0358C14.1231 11.2897 14.4674 11.4323 14.8264 11.4323V10.4323ZM14.5763 10.3287C14.51 10.2624 14.4727 10.1724 14.4727 10.0786H13.4727C13.4727 10.4377 13.6153 10.782 13.8692 11.0358L14.5763 10.3287ZM14.4727 10.0786C14.4727 9.98483 14.51 9.89486 14.5763 9.82853L13.8692 9.12142C13.6153 9.37529 13.4727 9.71961 13.4727 10.0786H14.4727ZM14.5763 9.82853C14.6426 9.76219 14.7326 9.72493 14.8264 9.72493V8.72493C14.4674 8.72493 14.1231 8.86755 13.8692 9.12142L14.5763 9.82853ZM14.8264 9.72493C14.9202 9.72493 15.0102 9.76219 15.0765 9.82853L15.7836 9.12142C15.5298 8.86755 15.1854 8.72493 14.8264 8.72493V9.72493ZM15.0765 9.82853C15.1428 9.89486 15.1801 9.98483 15.1801 10.0786H16.1801C16.1801 9.71961 16.0375 9.37529 15.7836 9.12142L15.0765 9.82853ZM16.617 6.82832C16.617 7.19848 16.4801 7.53083 16.2511 7.79165L17.0025 8.45145C17.3821 8.01917 17.617 7.45555 17.617 6.82832H16.617ZM16.2487 8.44874C16.5551 8.80277 16.7396 9.25871 16.7396 9.75289H17.7396C17.7396 9.00454 17.4592 8.31939 17.0049 7.79436L16.2487 8.44874ZM16.7396 9.75289C16.7396 10.3408 16.6131 10.7528 16.4205 11.0505L17.26 11.5937C17.5804 11.0986 17.7396 10.4861 17.7396 9.75289H16.7396ZM16.3798 11.517C16.5922 12.0187 16.71 12.5704 16.71 13.1508H17.71C17.71 12.4337 17.5642 11.7497 17.3007 11.1272L16.3798 11.517ZM16.71 13.1508C16.71 14.6934 15.8769 16.0419 14.6341 16.7698L15.1396 17.6327C16.676 16.7327 17.71 15.0628 17.71 13.1508H16.71ZM14.4625 17.4658C14.6321 17.7378 14.7455 18.0482 14.7866 18.3809L15.7791 18.2581C15.7196 17.7777 15.5557 17.3291 15.3111 16.9367L14.4625 17.4658ZM14.7866 18.381C14.7869 18.3829 14.7866 18.3827 14.7869 18.3807C14.7871 18.3788 14.7876 18.3763 14.7885 18.3736C14.7904 18.3682 14.7927 18.366 14.7923 18.3663C14.7917 18.367 14.7892 18.3691 14.7849 18.371C14.7807 18.3728 14.7773 18.3732 14.7757 18.3732V19.3732C15.3096 19.3732 15.8612 18.9215 15.7791 18.2581L14.7866 18.381ZM14.7757 18.3732H10.3254V19.3732H14.7757V18.3732ZM10.3254 18.3732C10.3238 18.3732 10.3205 18.3728 10.3163 18.371C10.312 18.3691 10.3095 18.367 10.3088 18.3663C10.3085 18.366 10.3107 18.3682 10.3126 18.3736C10.3135 18.3763 10.3141 18.3788 10.3143 18.3807C10.3145 18.3827 10.3143 18.3829 10.3145 18.381L9.32208 18.2581C9.23993 18.9215 9.79158 19.3732 10.3254 19.3732V18.3732ZM10.3145 18.381C10.3546 18.0575 10.463 17.7558 10.6254 17.4896L9.77188 16.9686C9.53706 17.3533 9.38005 17.7904 9.32209 18.258L10.3145 18.381ZM10.4459 16.7945C9.80237 16.4285 9.26736 15.8985 8.89529 15.2585L8.03076 15.7611C8.49164 16.5539 9.15436 17.2104 9.95145 17.6638L10.4459 16.7945ZM8.89529 15.2585C8.52322 14.6185 8.32739 13.8913 8.32772 13.151L7.32772 13.1506C7.32731 14.0676 7.56989 14.9683 8.03076 15.7611L8.89529 15.2585ZM8.32772 13.1508C8.32772 12.5495 8.45393 11.9791 8.68125 11.4633L7.7662 11.06C7.48384 11.7006 7.32772 12.4082 7.32772 13.1508H8.32772ZM8.6521 11.0038C8.47593 10.7111 8.36153 10.3118 8.36153 9.75289H7.36153C7.36153 10.4492 7.50494 11.0371 7.79535 11.5195L8.6521 11.0038ZM8.36153 9.75289C8.36153 9.25871 8.54605 8.80277 8.85243 8.44874L8.09626 7.79436C7.64191 8.31939 7.36153 9.00454 7.36153 9.75289H8.36153ZM8.84896 7.7904C8.61413 7.52474 8.48439 7.18248 8.4841 6.82791L7.4841 6.82873C7.48458 7.42698 7.7035 8.00446 8.09972 8.4527L8.84896 7.7904ZM7.9841 7.32832H10.3677V6.32832H7.9841V7.32832ZM10.3677 7.32832C10.7099 7.32832 11.0237 7.44716 11.2731 7.64609L11.8966 6.86425C11.4783 6.53067 10.9468 6.32832 10.3677 6.32832V7.32832ZM11.5849 7.75517H13.512V6.75517H11.5849V7.75517ZM13.8238 7.64609C14.0732 7.44716 14.387 7.32832 14.7292 7.32832V6.32832C14.1501 6.32832 13.6186 6.53067 13.2003 6.86425L13.8238 7.64609ZM14.7292 7.32832H17.117V6.32832H14.7292V7.32832ZM10.1528 17.1557C9.93725 17.4985 9.79311 17.8904 9.74166 18.3108L10.7343 18.4322C10.7673 18.162 10.8599 17.9098 10.9993 17.688L10.1528 17.1557ZM9.74335 18.2983C9.7305 18.3851 9.73826 18.4737 9.76602 18.557L10.7147 18.2408C10.7366 18.3064 10.7427 18.3763 10.7326 18.4447L9.74335 18.2983ZM9.76602 18.557C9.79376 18.6402 9.84072 18.7158 9.90311 18.7776L10.6066 18.0669C10.6558 18.1156 10.6928 18.1751 10.7147 18.2408L9.76602 18.557ZM9.902 18.7765C9.9589 18.8331 10.0266 18.8777 10.1011 18.9076L10.4734 17.9795C10.5237 17.9997 10.5693 18.0297 10.6077 18.068L9.902 18.7765ZM10.1011 18.9076C10.1756 18.9375 10.2553 18.9521 10.3356 18.9504L10.3153 17.9506C10.3694 17.9495 10.4232 17.9594 10.4734 17.9795L10.1011 18.9076ZM10.3254 18.9505H14.7757V17.9505H10.3254V18.9505ZM14.7676 18.9505C14.8475 18.9518 14.9268 18.937 15.0008 18.9071L14.6265 17.9798C14.6764 17.9597 14.7299 17.9497 14.7837 17.9506L14.7676 18.9505ZM15.0008 18.9071C15.0748 18.8773 15.1421 18.8328 15.1987 18.7765L14.493 18.0679C14.5312 18.0299 14.5766 18 14.6265 17.9798L15.0008 18.9071ZM15.1913 18.7837C15.2551 18.7227 15.3036 18.6475 15.3327 18.5642L14.3889 18.2338C14.4119 18.1682 14.4501 18.1088 14.5004 18.0608L15.1913 18.7837ZM15.3327 18.5642C15.3619 18.4809 15.3709 18.3918 15.3591 18.3044L14.3681 18.4386C14.3588 18.3697 14.3659 18.2995 14.3889 18.2338L15.3327 18.5642ZM15.3598 18.3103C15.3079 17.8892 15.1616 17.4852 14.932 17.1284L14.0911 17.6696C14.2394 17.9 14.3338 18.1608 14.3674 18.4327L15.3598 18.3103ZM14.2989 16.9465C13.9972 17.0883 13.6753 17.1951 13.3393 17.262L13.5343 18.2427C13.9506 18.16 14.3497 18.0276 14.7242 17.8515L14.2989 16.9465ZM13.2522 17.2877C13.0168 17.3812 12.766 17.4297 12.5127 17.4307L12.5166 18.4307C12.895 18.4292 13.2697 18.3567 13.6214 18.217L13.2522 17.2877ZM12.5146 17.4307C12.2611 17.4307 12.0108 17.3799 11.7669 17.2838L11.4003 18.2142C11.7507 18.3522 12.125 18.4307 12.5146 18.4307V17.4307ZM11.6831 17.259C11.3689 17.1952 11.0679 17.0967 10.7836 16.967L10.3685 17.8768C10.7216 18.0378 11.0951 18.1599 11.4841 18.239L11.6831 17.259ZM12.3921 12.1445C11.0641 12.1445 9.99591 12.0267 9.29494 11.6136L8.78723 12.4751C9.74718 13.0408 11.0702 13.1445 12.3921 13.1445V12.1445ZM8.56775 11.8833C8.43471 12.2741 8.36702 12.6843 8.36738 13.0971L9.36738 13.0963C9.36712 12.7933 9.41679 12.4923 9.51442 12.2055L8.56775 11.8833ZM8.36738 13.0967C8.36738 14.1748 8.82434 15.3555 9.54236 16.2664C10.2592 17.1759 11.3014 17.894 12.5146 17.894V16.894C11.712 16.894 10.9306 16.4122 10.3277 15.6474C9.72609 14.8841 9.36738 13.9162 9.36738 13.0967H8.36738ZM12.5146 17.894C13.7279 17.894 14.7701 17.1759 15.4869 16.2664C16.2049 15.3555 16.6619 14.1748 16.6619 13.0967H15.6619C15.6619 13.9162 15.3032 14.8841 14.7016 15.6474C14.0987 16.4122 13.3173 16.894 12.5146 16.894V17.894ZM16.6619 13.0967C16.6619 12.6889 16.5966 12.2945 16.4753 11.9235L15.5248 12.2345C15.6139 12.5067 15.6619 12.7962 15.6619 13.0967H16.6619ZM15.7571 11.642C15.0544 12.0327 14.0035 12.1445 12.7091 12.1445V13.1445C14.0011 13.1445 15.2915 13.045 16.243 12.516L15.7571 11.642ZM12.7091 12.1445H12.3921V13.1445H12.7091V12.1445ZM10.3381 11.9645C10.8384 11.9645 11.3181 11.7658 11.6719 11.4121L10.9648 10.705C10.7986 10.8712 10.5732 10.9645 10.3381 10.9645V11.9645ZM11.6719 11.4121C12.0256 11.0583 12.2243 10.5786 12.2243 10.0783H11.2243C11.2243 10.3133 11.131 10.5388 10.9648 10.705L11.6719 11.4121ZM12.2243 10.0783C12.2243 9.57805 12.0256 9.09829 11.6719 8.74456L10.9648 9.45166C11.131 9.61786 11.2243 9.84327 11.2243 10.0783H12.2243ZM11.6719 8.74456C11.3181 8.39082 10.8384 8.1921 10.3381 8.1921V9.1921C10.5732 9.1921 10.7986 9.28547 10.9648 9.45166L11.6719 8.74456ZM10.3381 8.1921C9.83787 8.1921 9.3581 8.39082 9.00437 8.74456L9.71148 9.45166C9.87767 9.28547 10.1031 9.1921 10.3381 9.1921V8.1921ZM9.00437 8.74456C8.65063 9.09829 8.45191 9.57806 8.45191 10.0783H9.45191C9.45191 9.84327 9.54528 9.61786 9.71148 9.45166L9.00437 8.74456ZM8.45191 10.0783C8.45191 10.5786 8.65063 11.0583 9.00437 11.4121L9.71148 10.705C9.54528 10.5388 9.45191 10.3133 9.45191 10.0783H8.45191ZM9.00437 11.4121C9.3581 11.7658 9.83787 11.9645 10.3381 11.9645V10.9645C10.1031 10.9645 9.87767 10.8712 9.71148 10.705L9.00437 11.4121ZM14.8264 11.9645C15.3267 11.9645 15.8064 11.7658 16.1602 11.4121L15.4531 10.705C15.2869 10.8712 15.0614 10.9645 14.8264 10.9645V11.9645ZM16.1602 11.4121C16.5139 11.0583 16.7126 10.5786 16.7126 10.0783H15.7126C15.7126 10.3133 15.6193 10.5388 15.4531 10.705L16.1602 11.4121ZM16.7126 10.0783C16.7126 9.57805 16.5139 9.09829 16.1602 8.74456L15.4531 9.45166C15.6193 9.61786 15.7126 9.84327 15.7126 10.0783H16.7126ZM16.1602 8.74456C15.8064 8.39082 15.3267 8.1921 14.8264 8.1921V9.1921C15.0614 9.1921 15.2869 9.28547 15.4531 9.45166L16.1602 8.74456ZM14.8264 8.1921C14.3262 8.1921 13.8464 8.39082 13.4927 8.74456L14.1998 9.45166C14.366 9.28547 14.5914 9.1921 14.8264 9.1921V8.1921ZM13.4927 8.74456C13.1389 9.09829 12.9402 9.57805 12.9402 10.0783H13.9402C13.9402 9.84327 14.0336 9.61786 14.1998 9.45166L13.4927 8.74456ZM12.9402 10.0783C12.9402 10.5786 13.1389 11.0583 13.4927 11.4121L14.1998 10.705C14.0336 10.5388 13.9402 10.3133 13.9402 10.0783H12.9402ZM13.4927 11.4121C13.8464 11.7658 14.3262 11.9645 14.8264 11.9645V10.9645C14.5914 10.9645 14.366 10.8712 14.1998 10.705L13.4927 11.4121ZM11.0243 11.7828H13.2416V10.7828H11.0243V11.7828ZM13.7416 11.2828C13.7416 10.6421 13.2263 10.1309 12.5923 10.1235L12.5807 11.1235C12.6736 11.1245 12.7416 11.1966 12.7416 11.2828H13.7416ZM12.5865 10.1235C11.9469 10.1235 11.4272 10.6432 11.4272 11.2828H12.4272C12.4272 11.1955 12.4992 11.1235 12.5865 11.1235V10.1235ZM11.9272 10.7828H11.0243V11.7828H11.9272V10.7828ZM14.4333 18.4854L14.683 18.3189L14.1283 17.4868L13.8786 17.6534L14.4333 18.4854ZM14.3819 17.4034L10.8848 17.57L10.9323 18.5688L14.4295 18.4023L14.3819 17.4034ZM11.2621 17.7159L11.0956 17.5493L10.3885 18.2564L10.555 18.423L11.2621 17.7159Z" fill="#AFAFAF" fill-opacity="0.35"/>
</svg>
