<svg width="16" height="25" viewBox="0 0 16 25" fill="none" xmlns="http://www.w3.org/2000/svg">
<path d="M3.45372 4.55755V23.6294H1.75012V4.55755C2.01272 4.66955 2.30262 4.73543 2.60192 4.73543C2.61133 4.73543 2.61133 4.73543 2.62075 4.73543C2.77981 4.73543 2.93888 4.71661 3.08853 4.67896C3.21936 4.65072 3.34172 4.60366 3.45372 4.55755Z" fill="#E94822"/>
<path d="M4.73506 2.60137C4.73506 3.30369 4.38865 3.92154 3.86476 4.30496C3.74327 4.40746 3.60282 4.49193 3.45286 4.55742C3.34087 4.60487 3.21939 4.65137 3.08841 4.6789C2.93846 4.71686 2.77902 4.73584 2.62052 4.73584C2.61103 4.73584 2.61103 4.73584 2.60154 4.73584C2.30163 4.73584 2.01216 4.67036 1.75022 4.55742C1.00139 4.22049 0.468018 3.47168 0.468018 2.60137C0.468018 1.42262 1.42184 0.467842 2.60154 0.467842C2.61103 0.467842 2.61103 0.467842 2.62052 0.467842C3.78978 0.477332 4.73506 1.43211 4.73506 2.60137Z" fill="#E94822"/>
<path d="M10.9861 4.30562V12.8311H3.453V4.5584C3.6021 4.49323 3.74331 4.40832 3.86476 4.30562H10.9861Z" fill="#FF7A01"/>
<path d="M15.5347 6.57875V15.1045H10.9871V6.57875H15.5347Z" fill="#F2CC46"/>
<path d="M3.4537 23.6294H2.62073V4.73543C2.77979 4.73543 2.93886 4.71661 3.08851 4.67896C3.21934 4.65072 3.3417 4.60366 3.4537 4.55755V23.6294Z" fill="#ED6D4E"/>
<path d="M2.62048 4.73584V0.467842C3.78975 0.477332 4.73502 1.43211 4.73502 2.60137C4.73502 3.30369 4.38861 3.92154 3.86472 4.30496C3.74324 4.40746 3.60278 4.49193 3.45283 4.55742C3.34083 4.60487 3.21935 4.65137 3.08838 4.6789C2.93842 4.71686 2.77898 4.73584 2.62048 4.73584Z" fill="#ED6D4E"/>
<path d="M10.986 12.8311H7.29895V4.30562H10.986V12.8311Z" fill="#F7A80E"/>
<path d="M15.5348 15.1045H12.9142V6.57875H15.5348V15.1045Z" fill="#F8E298"/>
<path d="M2.21732 23.1621H2.98486V5.17642C2.7394 5.2123 2.47788 5.21324 2.21732 5.17453V23.1621ZM3.45218 24.0977H1.74906C1.49132 24.0977 1.28174 23.889 1.28174 23.6303V4.55805C1.28174 4.40133 1.36104 4.25405 1.49227 4.1672C1.62444 4.08034 1.78965 4.06713 1.93504 4.12849C2.27019 4.27294 2.63932 4.30504 2.98108 4.22479C3.09059 4.20024 3.18501 4.16248 3.2728 4.1266C3.41914 4.06618 3.58152 4.08223 3.7118 4.16909C3.84303 4.25594 3.92044 4.40228 3.92044 4.55805V23.6303C3.92044 23.889 3.71086 24.0977 3.45218 24.0977Z" fill="#2C2D34"/>
<path d="M2.60168 0.935782C1.684 0.935782 0.935764 1.68306 0.935764 2.60169C0.935764 3.25568 1.33083 3.85636 1.94198 4.13147C2.26659 4.27045 2.63975 4.30473 2.9815 4.22381C3.09097 4.20001 3.18617 4.16193 3.27375 4.12576C3.38037 4.07912 3.48032 4.01819 3.56314 3.94774C4.01913 3.61171 4.26759 3.12812 4.26759 2.60169C4.26759 1.68306 3.52031 0.935782 2.60168 0.935782ZM2.60168 5.20337C2.25136 5.20337 1.89438 5.12911 1.56596 4.98822C0.612103 4.55889 0 3.62314 0 2.60169C0 1.16711 1.16709 9.05991e-06 2.60168 9.05991e-06C4.03626 9.05991e-06 5.20335 1.16711 5.20335 2.60169C5.20335 3.41751 4.80639 4.19525 4.14193 4.68265C4.01627 4.79022 3.83921 4.8997 3.64121 4.98633C3.49556 5.0463 3.34705 5.10246 3.18712 5.13673C2.99959 5.18147 2.80444 5.20337 2.60168 5.20337Z" fill="#2C2D34"/>
<path d="M3.92106 12.3623H10.5184V4.7736H4.02306C3.99038 4.79638 3.95572 4.81915 3.92106 4.83995V12.3623ZM10.9868 13.2981H3.45265C3.19418 13.2981 2.98523 13.0891 2.98523 12.8307V4.55771C2.98523 4.37253 3.09416 4.20418 3.2645 4.12891C3.38036 4.0794 3.48038 4.018 3.56257 3.94769C3.64774 3.87639 3.75469 3.83777 3.86461 3.83777H10.9868C11.2453 3.83777 11.4543 4.04672 11.4543 4.30519V12.8307C11.4543 13.0891 11.2453 13.2981 10.9868 13.2981Z" fill="#2C2D34"/>
<path d="M11.4517 14.6363H15.0642V7.04675H11.4517V14.6363ZM15.5316 15.572H10.9844C10.7257 15.572 10.516 15.3633 10.516 15.1047V6.5794C10.516 6.32078 10.7257 6.11103 10.9844 6.11103H15.5316C15.7902 6.11103 15.9999 6.32078 15.9999 6.5794V15.1047C15.9999 15.3633 15.7902 15.572 15.5316 15.572Z" fill="#2C2D34"/>
</svg>
