<svg width="375" height="812" viewBox="0 0 375 812" fill="none" xmlns="http://www.w3.org/2000/svg">
<g clip-path="url(#clip0_7_26)">
<rect width="375" height="812" fill="#FFF4EA"/>
<path d="M-5.89526 -3.80319L-8.99327 394.798L36.5606 395.2L132.5 386.729L32.6696 316.823L27.3824 150.879L70.9603 125.478L62 63.7762L89.5 38.1958L131.993 -3.80319L-5.89526 -3.80319Z" fill="#C8671D"/>
<path d="M20.8463 86.7173C20.8463 80.146 25.8416 74.8151 32.0069 74.8151C38.1722 74.8151 43.1675 80.146 43.1675 86.7173C43.1675 93.2819 38.1722 98.6129 32.0069 98.6129C25.8416 98.6129 20.8463 93.2819 20.8463 86.7173Z" fill="#F79011"/>
<path d="M53.1006 337.385C46.9719 335.61 43.3493 328.877 45.0147 322.345C46.6801 315.813 53.0013 311.96 59.1301 313.735C65.2527 315.508 68.8752 322.241 67.2099 328.773C65.5445 335.306 59.2232 339.158 53.1006 337.385Z" fill="#F79011"/>
<path d="M75.4968 15.7647C75.4968 11.1595 79.0004 7.42523 83.3272 7.42523C87.6479 7.42523 91.1577 11.1595 91.1577 15.7647C91.1577 20.3764 87.6479 24.1107 83.3272 24.1107C79.0004 24.1107 75.4968 20.3764 75.4968 15.7647Z" fill="#F79011"/>
<path d="M36.7761 297.783C33.9649 296.969 32.3047 293.879 33.0697 290.879C33.8336 287.882 36.7338 286.108 39.545 286.923C42.3602 287.738 44.0193 290.832 43.2554 293.829C42.4904 296.829 39.5914 298.599 36.7761 297.783Z" fill="#F79011"/>
<path d="M5.06703 241.228C5.06703 236.623 8.5706 232.882 12.8974 232.882C17.2181 232.882 20.7278 236.623 20.7278 241.228C20.7278 245.84 17.2181 249.574 12.8974 249.574C8.5706 249.574 5.06703 245.84 5.06703 241.228Z" fill="#F79011"/>
<path d="M41.9267 275.772C37.7572 274.564 35.289 269.979 36.4236 265.529C37.5566 261.085 41.8639 258.456 46.0333 259.664C50.2088 260.873 52.6694 265.462 51.5364 269.906C50.4018 274.357 46.1021 276.981 41.9267 275.772Z" fill="#F79011"/>
<path d="M-2.7991 -0.50477L128.335 -0.50477L132.248 -7.02382L60.8523 59.1248C60.0847 59.4613 59.4781 60.1144 59.1686 60.9325L68.5102 123.148L25.8979 147.982C24.827 148.609 24.1957 149.849 24.3009 151.149L26.8353 318.788C26.8972 319.58 27.2253 320.319 27.7576 320.88L132.5 386.833H-3.80994L-2.7991 -0.50477ZM-6.90495 393.431L134.734 391.599C135.99 391.599 137.123 390.787 137.6 389.54C138.076 388.3 137.798 386.875 136.9 385.938C136.003 385.001 32.9077 317.02 32.9077 317.02L30.6333 152.745L72.447 128.374C73.0784 128.004 73.5675 127.424 73.8336 126.718L64.4177 64.6866L135.847 -2.52366C135 -3.90487 135.477 -1.72534 135.794 -2.52366H135.847C136.249 -3.54629 136.145 -4.70747 135.572 -5.63114C134.998 -6.54821 134.03 -7.10242 132.994 -7.10242L-5.89412 -7.10242C-7.60257 -7.10242 -8.98915 -5.62454 -8.98915 -3.80359L-9.99998 390.132C-9.99998 391.953 -8.61341 393.431 -6.90495 393.431Z" fill="#3A1F16"/>
<path d="M32.0068 78.1138C36.4574 78.1138 40.0724 81.9734 40.0724 86.7105C40.0724 91.4542 36.4574 95.3138 32.0068 95.3138C27.5623 95.3138 23.9412 91.4542 23.9412 86.7105C23.9412 81.9734 27.5623 78.1138 32.0068 78.1138ZM32.0068 101.911C39.8681 101.911 46.2625 95.0895 46.2625 86.7105C46.2625 78.3381 39.8681 71.5161 32.0068 71.5161C24.1454 71.5161 17.7511 78.3381 17.7511 86.7105C17.7511 95.0895 24.1454 101.911 32.0068 101.911Z" fill="#3A1F16"/>
<path d="M34.506 292.138C35.0566 289.979 37.1656 288.669 39.2367 289.269C41.3102 289.869 42.5074 292.136 41.9567 294.296C41.4069 296.453 39.2972 297.766 37.2235 297.165C35.1522 296.565 33.9562 294.295 34.506 292.138ZM43.7985 294.83C44.6403 291.528 42.7983 288.147 39.7478 287.264C36.7001 286.381 33.506 288.303 32.6642 291.605C31.8224 294.907 33.6645 298.288 36.7123 299.17C39.7628 300.054 42.9567 298.132 43.7985 294.83Z" fill="#3A1F16" stroke="black" stroke-width="0.764632"/>
<path d="M47.181 323.377C48.2947 319.009 52.5608 316.359 56.7504 317.572C60.9449 318.787 63.3665 323.373 62.2527 327.742C61.1403 332.105 56.8728 334.761 52.678 333.546C48.488 332.333 46.0687 327.74 47.181 323.377ZM65.9783 328.821C67.6812 322.142 63.955 315.304 57.7844 313.516C51.6192 311.731 45.1582 315.619 43.4553 322.298C41.7524 328.978 45.4788 335.816 51.644 337.602C57.8146 339.389 64.2755 335.501 65.9783 328.821Z" fill="#3A1F16" stroke="black" stroke-width="1.54673"/>
<path d="M83.3259 10.7238C85.9381 10.7238 88.0612 12.9868 88.0612 15.771C88.0612 18.5486 85.9381 20.8116 83.3259 20.8116C80.7137 20.8116 78.5905 18.5486 78.5905 15.771C78.5905 12.9868 80.7137 10.7238 83.3259 10.7238ZM83.3259 27.4093C89.3488 27.4093 94.2513 22.1906 94.2513 15.771C94.2513 9.34493 89.3488 4.12619 83.3259 4.12619C77.3029 4.12619 72.4004 9.34493 72.4004 15.771C72.4004 22.1906 77.3029 27.4093 83.3259 27.4093Z" fill="#3A1F16"/>
<path d="M38.9662 265.899C39.6965 263.034 42.492 261.295 45.2421 262.091C47.9869 262.886 49.5715 265.895 48.8413 268.759C48.1111 271.623 45.3159 273.363 42.5712 272.568C39.821 271.772 38.2359 268.763 38.9662 265.899ZM53.7111 270.169C55.1909 264.365 51.9622 258.405 46.5794 256.846C41.1906 255.285 35.5762 258.684 34.0964 264.488C32.6166 270.293 35.8451 276.253 41.2339 277.813C46.6167 279.372 52.2312 275.974 53.7111 270.169Z" fill="#3A1F16" stroke="black"/>
<path d="M12.8967 246.276C10.2845 246.276 8.16133 244.013 8.16133 241.229C8.16133 238.451 10.2845 236.182 12.8967 236.182C15.5089 236.182 17.6321 238.451 17.6321 241.229C17.6321 244.013 15.5089 246.276 12.8967 246.276ZM12.8967 229.584C6.8738 229.584 1.97128 234.809 1.97128 241.229C1.97128 247.648 6.8738 252.874 12.8967 252.874C18.9196 252.874 23.8221 247.648 23.8221 241.229C23.8221 234.809 18.9196 229.584 12.8967 229.584Z" fill="#3A1F16"/>
<path d="M-3.89526 386.298L-6.99327 814.743L38.5606 815.145L108.558 815.763L34.6696 706.924L29.3824 540.98L72.9603 515.579L64 453.877L91.5 428.297L133.993 386.298H-3.89526Z" fill="#C8671D"/>
<path d="M22.8462 478.95C22.8462 472.378 27.8416 467.048 34.0068 467.048C40.1721 467.048 45.1675 472.378 45.1675 478.95C45.1675 485.514 40.1721 490.845 34.0068 490.845C27.8416 490.845 22.8462 485.514 22.8462 478.95Z" fill="#F79011"/>
<path d="M55.1006 729.618C48.9719 727.842 45.3493 721.11 47.0147 714.577C48.6801 708.045 55.0013 704.192 61.1301 705.967C67.2527 707.741 70.8752 714.473 69.2099 721.006C67.5445 727.538 61.2232 731.391 55.1006 729.618Z" fill="#F79011"/>
<path d="M77.4968 407.997C77.4968 403.392 81.0004 399.658 85.3272 399.658C89.6479 399.658 93.1577 403.392 93.1577 407.997C93.1577 412.609 89.6479 416.343 85.3272 416.343C81.0004 416.343 77.4968 412.609 77.4968 407.997Z" fill="#F79011"/>
<path d="M38.7761 690.016C35.9649 689.202 34.3047 686.112 35.0697 683.111C35.8336 680.115 38.7338 678.341 41.545 679.155C44.3602 679.97 46.0193 683.065 45.2554 686.061C44.4904 689.062 41.5914 690.831 38.7761 690.016Z" fill="#F79011"/>
<path d="M7.067 633.461C7.067 628.855 10.5706 625.115 14.8974 625.115C19.2181 625.115 22.7278 628.855 22.7278 633.461C22.7278 638.072 19.2181 641.807 14.8974 641.807C10.5706 641.807 7.067 638.072 7.067 633.461Z" fill="#F79011"/>
<path d="M43.9267 668.004C39.7572 666.796 37.289 662.212 38.4236 657.761C39.5566 653.317 43.8638 650.688 48.0333 651.896C52.2087 653.105 54.6694 657.695 53.5364 662.139C52.4018 666.589 48.1021 669.213 43.9267 668.004Z" fill="#F79011"/>
<path d="M-1.80995 385.13H131.5L134.248 385.209L62.8523 451.357C62.0847 451.694 61.4781 452.347 61.1686 453.165L70.5102 515.381L27.8979 540.214C26.827 540.841 26.1956 542.081 26.3009 543.381L28.8353 711.021C28.8972 711.812 29.2253 712.551 29.7576 713.112L99.1384 813.472L-1.80995 812.107L-1.80995 385.13ZM-4.90497 818.704L106.734 820.07C107.99 820.07 109.123 819.258 109.6 818.011C110.076 816.771 109.798 815.346 108.9 814.409L34.9077 709.253L32.6333 544.978L74.447 520.606C75.0784 520.237 75.5675 519.656 75.8336 518.95L66.4177 456.919L137.847 389.709C137 388.327 137.477 390.507 137.794 389.709H137.847C138.249 388.686 138.145 387.525 137.572 386.601C136.998 385.684 136.03 385.13 134.994 385.13H-3.89413C-5.60259 385.13 -6.98917 386.608 -6.98917 388.429L-8 815.405C-8 817.226 -6.61342 818.704 -4.90497 818.704Z" fill="#3A1F16"/>
<path d="M34.0068 470.346C38.4574 470.346 42.0724 474.206 42.0724 478.943C42.0724 483.687 38.4574 487.546 34.0068 487.546C29.5623 487.546 25.9412 483.687 25.9412 478.943C25.9412 474.206 29.5623 470.346 34.0068 470.346ZM34.0068 494.144C41.8681 494.144 48.2625 487.322 48.2625 478.943C48.2625 470.57 41.8681 463.748 34.0068 463.748C26.1454 463.748 19.7511 470.57 19.7511 478.943C19.7511 487.322 26.1454 494.144 34.0068 494.144Z" fill="#3A1F16"/>
<path d="M36.506 684.371C37.0566 682.211 39.1656 680.901 41.2367 681.501C43.3102 682.102 44.5074 684.369 43.9567 686.529C43.4069 688.686 41.2972 689.998 39.2235 689.398C37.1522 688.798 35.9562 686.527 36.506 684.371ZM45.7985 687.062C46.6403 683.76 44.7983 680.379 41.7478 679.496C38.7001 678.613 35.506 680.535 34.6642 683.837C33.8224 687.139 35.6645 690.52 38.7123 691.403C41.7628 692.286 44.9567 690.364 45.7985 687.062Z" fill="#3A1F16" stroke="black" stroke-width="0.764632"/>
<path d="M49.181 715.61C50.2947 711.241 54.5608 708.591 58.7504 709.805C62.9449 711.019 65.3665 715.606 64.2527 719.975C63.1403 724.338 58.8728 726.993 54.678 725.778C50.488 724.565 48.0687 719.972 49.181 715.61ZM67.9783 721.054C69.6812 714.375 65.955 707.536 59.7844 705.749C53.6192 703.963 47.1582 707.851 45.4553 714.531C43.7524 721.21 47.4788 728.049 53.644 729.834C59.8146 731.621 66.2755 727.733 67.9783 721.054Z" fill="#3A1F16" stroke="black" stroke-width="1.54673"/>
<path d="M85.3259 402.956C87.9381 402.956 90.0612 405.219 90.0612 408.003C90.0612 410.781 87.9381 413.044 85.3259 413.044C82.7137 413.044 80.5905 410.781 80.5905 408.003C80.5905 405.219 82.7137 402.956 85.3259 402.956ZM85.3259 419.642C91.3488 419.642 96.2513 414.423 96.2513 408.003C96.2513 401.577 91.3488 396.359 85.3259 396.359C79.3029 396.359 74.4004 401.577 74.4004 408.003C74.4004 414.423 79.3029 419.642 85.3259 419.642Z" fill="#3A1F16"/>
<path d="M40.9662 658.131C41.6965 655.267 44.4919 653.527 47.2421 654.324C49.9869 655.119 51.5714 658.127 50.8412 660.991C50.1111 663.855 47.3159 665.595 44.5711 664.8C41.8209 664.004 40.2359 660.996 40.9662 658.131ZM55.7111 662.402C57.1909 656.597 53.9621 650.637 48.5794 649.078C43.1906 647.518 37.5762 650.916 36.0964 656.721C34.6165 662.525 37.8451 668.485 43.2339 670.046C48.6167 671.605 54.2312 668.206 55.7111 662.402Z" fill="#3A1F16" stroke="black"/>
<path d="M14.8967 638.508C12.2845 638.508 10.1613 636.245 10.1613 633.461C10.1613 630.684 12.2845 628.414 14.8967 628.414C17.5089 628.414 19.6321 630.684 19.6321 633.461C19.6321 636.245 17.5089 638.508 14.8967 638.508ZM14.8967 621.816C8.8738 621.816 3.97128 627.042 3.97128 633.461C3.97128 639.881 8.8738 645.106 14.8967 645.106C20.9196 645.106 25.8221 639.881 25.8221 633.461C25.8221 627.042 20.9196 621.816 14.8967 621.816Z" fill="#3A1F16"/>
<path d="M61.4662 195.841L68.9857 213.481C69.0822 213.704 69.191 213.916 69.3118 214.116C70.4805 216.015 72.8072 216.773 74.7999 215.807L91.3468 207.793C93.345 206.824 94.3364 204.459 93.766 202.273C93.7042 202.042 93.6256 201.816 93.5287 201.593L86.0101 183.953C85.9599 183.841 85.9063 183.728 85.8472 183.617C84.7532 181.508 82.2937 180.617 80.1924 181.636L63.6464 189.651C61.5521 190.662 60.5645 193.226 61.3322 195.49C61.3759 195.61 61.4152 195.729 61.4662 195.841Z" fill="#90D0E1"/>
<path d="M93.5294 201.592C93.6263 201.815 93.705 202.042 93.7667 202.272C107.166 196.375 119.969 191.721 131.426 188.449C126.198 178.023 107.277 176.388 85.8479 183.617C85.907 183.727 85.9607 183.84 86.0109 183.953L93.5294 201.592Z" fill="#C8EDF9"/>
<path d="M68.9855 213.481L61.466 195.841C61.415 195.728 61.3757 195.61 61.332 195.49C42.131 207.94 30.8425 224.21 34.7772 235.264C44.6221 228.215 56.3254 220.998 69.3116 214.116C69.1908 213.915 69.082 213.704 68.9855 213.481" fill="#C8EDF9"/>
<path d="M123.193 309.966L126.079 308.568C129.393 306.965 130.86 302.796 129.352 299.266L90.5213 208.193L75.6314 215.403L114.462 306.476C115.968 310.011 119.877 311.574 123.193 309.966Z" fill="#E09B34"/>
<path d="M89.0466 185.151L90.4184 188.366L94.9904 199.084C106.305 194.191 117.235 190.147 127.556 187.041C121.405 180.709 106.238 179.879 89.0466 185.151ZM81.1446 183.869L64.5991 191.884C63.6149 192.361 63.1314 193.574 63.5096 194.686C63.5236 194.733 63.5419 194.781 63.5618 194.825L71.0815 212.46C71.1293 212.576 71.1842 212.68 71.2415 212.779C71.8049 213.679 72.9224 214.02 73.8476 213.573L90.394 205.558C91.325 205.108 91.8215 203.978 91.554 202.954C91.523 202.839 91.4832 202.72 91.4325 202.608L83.914 184.968C83.8963 184.925 83.8754 184.886 83.8536 184.847C83.8461 184.834 83.8413 184.822 83.8333 184.803C83.5794 184.314 83.1698 183.965 82.7015 183.791C82.2088 183.609 81.6517 183.621 81.1446 183.869V183.869ZM36.3226 231.228C45.3088 224.989 55.3522 218.871 66.2553 213.004L64.046 207.821L60.3117 199.065C45.2844 209.404 35.8937 222.128 36.3226 231.228V231.228ZM70.7865 218.268C70.0829 218.007 69.4188 217.621 68.826 217.121C56.7395 223.598 45.7228 230.384 36.0571 237.302C35.4769 237.721 34.7447 237.829 34.0777 237.602C34.0559 237.594 34.0385 237.588 34.0211 237.581C33.3775 237.343 32.8626 236.814 32.6219 236.133C28.4156 224.298 38.9039 207.611 58.7838 194.291C58.6479 191.435 60.1463 188.65 62.6932 187.417L79.2396 179.402C81.7961 178.162 84.7616 178.798 86.6818 180.778C109.17 173.578 127.858 176.129 133.454 187.294C133.786 187.952 133.816 188.738 133.537 189.424C133.258 190.11 132.699 190.625 132.02 190.82C120.781 194.027 108.743 198.414 96.2207 203.852C96.1349 205.992 95.1503 207.981 93.5069 209.268L110.539 249.214C111.065 250.448 110.554 251.901 109.396 252.464C108.239 253.022 106.875 252.475 106.348 251.246L89.3774 211.442L79.0158 216.46L78.6776 216.626L116.558 305.46C117.535 307.761 120.085 308.778 122.24 307.732L125.125 306.334C126.168 305.832 126.965 304.922 127.368 303.778C127.77 302.633 127.73 301.392 127.256 300.281L119.711 282.585C119.185 281.351 119.697 279.894 120.854 279.336C122.012 278.773 123.377 279.32 123.903 280.554L131.447 298.25C132.43 300.557 132.513 303.128 131.679 305.5C130.844 307.871 129.193 309.753 127.03 310.801L124.145 312.2C121.982 313.248 119.628 313.295 117.545 312.523C115.325 311.7 113.413 309.947 112.366 307.492L74.4238 218.504C73.2047 218.785 71.9437 218.697 70.7865 218.268" fill="#3A1F16"/>
<path d="M116.312 271.562C115.601 271.281 114.994 270.701 114.671 269.901L112.41 264.297C111.783 262.743 112.458 260.94 113.914 260.274C115.373 259.603 117.062 260.323 117.688 261.877L119.95 267.481C120.577 269.035 119.904 270.833 118.445 271.504C117.74 271.826 116.979 271.826 116.312 271.562" fill="#3A1F16"/>
<g filter="url(#filter0_b_7_26)">
<rect y="-54" width="375" height="865.469" fill="black" fill-opacity="0.22"/>
</g>
</g>
<defs>
<filter id="filter0_b_7_26" x="-6" y="-60" width="387" height="877.469" filterUnits="userSpaceOnUse" color-interpolation-filters="sRGB">
<feFlood flood-opacity="0" result="BackgroundImageFix"/>
<feGaussianBlur in="BackgroundImage" stdDeviation="3"/>
<feComposite in2="SourceAlpha" operator="in" result="effect1_backgroundBlur_7_26"/>
<feBlend mode="normal" in="SourceGraphic" in2="effect1_backgroundBlur_7_26" result="shape"/>
</filter>
<clipPath id="clip0_7_26">
<rect width="375" height="812" fill="white"/>
</clipPath>
</defs>
</svg>
