<svg width="52" height="65" viewBox="0 0 52 65" fill="none" xmlns="http://www.w3.org/2000/svg">
<g clip-path="url(#clip0_119_4262)">
<rect width="52" height="65" fill="#FFF4EA"/>
<path d="M44.8201 59.6448C44.8201 60.934 36.4316 61.9791 26.084 61.9791C15.7362 61.9791 7.34784 60.934 7.34784 59.6448C7.34784 58.3557 15.7362 57.3106 26.084 57.3106C36.4316 57.3106 44.8201 58.3557 44.8201 59.6448Z" fill="#AFAFAF" fill-opacity="0.5"/>
<path d="M46.947 16.6145C47.7507 16.1083 47.6892 14.9005 46.8263 14.5039C44.0337 13.22 42.2173 10.2043 38.6114 6.30042C34.4105 1.75258 27.5352 1.92961 26.492 1.98447C25.4486 1.92961 18.5733 1.75258 14.3724 6.30042C10.7665 10.2043 8.95012 13.22 6.15746 14.5039C5.29461 14.9005 5.23309 16.1083 6.03683 16.6145L13.0808 21.0506L26.492 17.6702L39.9031 21.0506L46.947 16.6145" fill="#2E2227"/>
<path d="M44.5469 27.3019C43.5015 22.1154 40.1912 17.334 35.7384 16.1491C33.4497 15.5401 31.0632 15.8904 28.735 16.2436C27.99 16.3564 27.1969 16.5013 26.535 16.8801C25.8731 16.5013 25.0799 16.3564 24.3349 16.2436C22.0069 15.8904 19.6202 15.5401 17.3315 16.1491C12.8787 17.334 9.56839 22.1154 8.52301 27.3019C7.4778 32.4885 8.38248 37.9743 10.0123 42.9513C11.501 47.4973 13.6894 50.3617 17.0659 53.2191C19.7648 55.5031 23.3347 55.9208 26.535 55.0949C29.7353 55.9208 33.3051 55.5031 36.0041 53.2191C39.3806 50.3617 41.5691 47.4973 43.0577 42.9513C44.6876 37.9743 45.5923 32.4885 44.5469 27.3019" fill="#F2591D"/>
<path d="M26.5349 54.8974C26.5515 54.8974 26.5682 54.8993 26.5844 54.9036C27.5734 55.1587 28.5757 55.2881 29.5635 55.2881C31.9771 55.2881 34.1601 54.5205 35.8765 53.0683C39.4729 50.0245 41.4992 47.0756 42.8701 42.8898C44.7664 37.0988 45.2655 31.8674 44.353 27.3409C43.2455 21.8454 39.7633 17.4246 35.6876 16.3403C34.8659 16.1216 33.9826 16.0152 32.9876 16.0152C31.5585 16.0152 30.0743 16.2404 28.7646 16.4388C28.0341 16.5498 27.2677 16.6886 26.6329 17.0517C26.5723 17.0867 26.4977 17.0867 26.4368 17.0517C25.8024 16.6886 25.0358 16.5498 24.3053 16.4388C22.9956 16.2404 21.5113 16.0152 20.0825 16.0152C19.0875 16.0152 18.2041 16.1216 17.3824 16.3403C13.3068 17.4246 9.8245 21.8454 8.71684 27.3409C7.80435 31.8672 8.30363 37.0986 10.2 42.8898C11.5708 47.0756 13.5969 50.0245 17.1935 53.0683C18.9098 54.5205 21.0927 55.2881 23.5064 55.2881C24.494 55.2881 25.4964 55.1587 26.4855 54.9036C26.5017 54.8993 26.5184 54.8974 26.5349 54.8974V54.8974ZM29.5636 55.6835C29.5635 55.6835 29.5637 55.6835 29.5635 55.6835C28.559 55.6835 27.5402 55.5542 26.5349 55.2991C25.5295 55.5542 24.5109 55.6835 23.5064 55.6835C20.9981 55.6835 18.7268 54.8835 16.9383 53.3701C13.2809 50.275 11.2199 47.2742 9.8245 43.0129C7.9064 37.1559 7.4034 31.8568 8.32946 27.2628C9.46612 21.6232 13.0633 17.0802 17.2807 15.9581C18.1361 15.7307 19.0525 15.6198 20.0825 15.6198C21.5411 15.6198 23.0411 15.8473 24.3644 16.0481C25.0962 16.1591 25.8641 16.2979 26.5349 16.6543C27.206 16.2979 27.9738 16.1591 28.7054 16.0481C30.0287 15.8473 31.5288 15.6198 32.9876 15.6198C34.0173 15.6198 34.9339 15.7307 35.7893 15.9581C40.0068 17.0804 43.6039 21.6234 44.7404 27.2628C45.6664 31.857 45.1634 37.1561 43.2453 43.0129C41.8501 47.2742 39.7891 50.275 36.1317 53.3701C34.3432 54.8835 32.0719 55.6835 29.5636 55.6835" fill="#292625"/>
<path d="M44.0452 37.4506C43.8155 36.8313 43.2634 36.4092 42.6314 36.3767C42.6316 36.3869 43.1448 36.219 43.2039 36.1872C43.4214 36.0706 43.6097 35.9002 43.7556 35.6946C44.0196 35.3223 44.1203 34.8492 44.0655 34.3912C43.9597 33.508 43.2192 32.82 42.3671 32.8654C42.3667 32.8609 42.3662 32.8566 42.3656 32.8523C43.2634 32.6588 43.7783 31.7042 43.5582 30.7828C43.4589 30.3677 43.2407 30.0021 42.9061 29.7531C42.7151 29.6109 42.4935 29.5188 42.2621 29.4824C42.1894 29.471 41.5782 29.498 41.5855 29.5186C42.4134 29.1157 42.7186 28.0587 42.2981 27.2155C41.8795 26.3761 40.9241 25.9941 40.1113 26.4704C40.1161 26.4782 40.4631 26.0507 40.4971 25.9904C40.6092 25.7911 40.6754 25.5694 40.6986 25.3394C40.7453 24.8754 40.5906 24.3993 40.3031 24.0473C39.7168 23.3297 38.7066 23.1832 38.0156 23.8325C38.0179 23.8348 38.2564 23.3773 38.2774 23.3143C38.3538 23.084 38.3762 22.8408 38.3502 22.5989C38.3006 22.1384 38.0567 21.7195 37.7112 21.4377C36.9991 20.8505 35.9615 20.9503 35.4211 21.7364C35.4273 21.7405 35.5672 21.2014 35.5734 21.1313C35.5957 20.8813 35.5592 20.6299 35.4728 20.3964C35.3209 19.9859 35.0096 19.6566 34.6338 19.4688C33.8181 19.056 32.8261 19.3886 32.4586 20.2768C32.4604 20.2773 32.4939 19.7591 32.4876 19.6923C32.4651 19.4515 32.3892 19.2228 32.2705 19.016C32.0552 18.6413 31.6955 18.3757 31.297 18.2606C30.3979 18.0008 29.4495 18.5421 29.2679 19.5274C29.2743 19.5281 29.1852 18.978 29.1627 18.9113C29.0893 18.6944 28.9715 18.4996 28.8181 18.3359C28.5081 18.0049 28.0662 17.8147 27.6235 17.8249C27.174 17.8353 26.7491 17.9999 26.4312 18.3415C26.2784 18.5057 26.1619 18.7036 26.0896 18.9204C26.0673 18.9873 25.981 19.5372 25.9872 19.5365C25.8061 18.5803 24.921 18.0624 24.041 18.2554C23.6328 18.345 23.2597 18.6082 23.0259 18.9704C22.8967 19.1707 22.8103 19.3964 22.7776 19.6365C22.7675 19.7102 22.7902 20.3067 22.8004 20.3028C22.4276 19.4145 21.4558 19.1065 20.637 19.4969C20.2366 19.6878 19.9171 20.052 19.77 20.4875C19.7001 20.6944 19.6704 20.9128 19.686 21.132C19.6912 21.206 19.8349 21.7845 19.8448 21.778C19.2992 20.9931 18.2861 20.9126 17.5668 21.4785C17.2144 21.7557 16.9764 22.1834 16.9216 22.6424C16.8956 22.8609 16.9112 23.0811 16.9714 23.2921C16.9917 23.363 17.2517 23.8963 17.2603 23.8876C16.5657 23.2415 15.5587 23.3953 14.9727 24.1135C14.3842 24.8345 14.4691 25.9404 15.1849 26.525C15.1872 26.5213 14.7161 26.3569 14.6539 26.3465C14.4215 26.308 14.1804 26.3257 13.9568 26.4031C13.528 26.5516 13.2007 26.8763 12.993 27.2931C12.5726 28.1369 12.8932 29.1958 13.7191 29.5928C13.7261 29.5726 13.1139 29.5484 13.0414 29.5601C12.8099 29.5977 12.5887 29.6906 12.3984 29.8342C12.0653 30.0858 11.8504 30.4527 11.7514 30.8678C11.6369 31.3466 11.7155 31.8694 11.9874 32.2746C12.1058 32.4527 12.2584 32.6043 12.4345 32.7181C12.4884 32.7528 12.9527 32.9515 12.9534 32.9457C12.1529 32.9046 11.4378 33.5142 11.2803 34.3363C11.0889 35.3353 11.714 36.3408 12.6986 36.4434C12.6988 36.433 12.1798 36.5745 12.1196 36.603C11.9188 36.6976 11.7369 36.8369 11.5895 37.0089C11.2945 37.3531 11.1575 37.8184 11.1802 38.277C11.2021 38.7203 11.3642 39.1369 11.6638 39.4534C11.8192 39.6174 12.0103 39.7418 12.2168 39.8206C12.2839 39.8461 12.8919 39.951 12.8884 39.9259C11.9662 40.1314 11.4887 41.0865 11.7023 42.0237C11.8002 42.4542 12.074 42.8455 12.4317 43.074C12.6358 43.2046 12.8622 43.2841 13.101 43.299C13.1672 43.3031 13.7656 43.2287 13.7544 43.202C12.8739 43.6559 12.6789 44.7564 13.1819 45.5992C13.4048 45.9716 13.7795 46.2601 14.1908 46.3484C14.4146 46.3964 14.6463 46.3943 14.8673 46.3318C14.9331 46.3133 15.5111 46.0198 15.484 45.9893C14.8126 46.7133 14.9596 47.85 15.7173 48.4365C16.4664 49.0166 17.5112 48.8724 18.0075 48.0118C17.9956 48.0051 17.877 48.5353 17.8726 48.5983C17.8553 48.8481 17.893 49.104 17.9904 49.3331C18.1709 49.7582 18.5098 50.0884 18.9241 50.2476C19.7745 50.5939 20.7396 50.1758 21.0394 49.2516C21.0338 49.2499 21.0361 49.7756 21.0465 49.8405C21.0851 50.0819 21.1764 50.3094 21.3071 50.5111C21.5402 50.8702 21.9116 51.1012 22.3092 51.1992C23.2058 51.4203 24.1239 50.8295 24.2973 49.8679C24.2966 49.8679 24.3732 50.378 24.3934 50.4419C24.4663 50.6722 24.5869 50.8821 24.7423 51.0606C25.0342 51.3957 25.4522 51.5767 25.8792 51.6036C26.7589 51.6661 27.564 50.9844 27.6287 50.0449C27.6318 50.0449 27.7478 50.5102 27.7727 50.5691C27.8605 50.7767 27.9896 50.9636 28.1493 51.1162C28.4911 51.4432 28.9495 51.6005 29.4081 51.5627C29.8161 51.5292 30.2157 51.3606 30.5029 51.0476C30.6602 50.8762 30.7842 50.6697 30.8621 50.446C30.8864 50.3759 30.9825 49.7928 30.9736 49.7939C31.1554 50.7043 32.0257 51.299 32.8932 51.111C33.2943 51.0242 33.6765 50.807 33.9259 50.4583C34.0651 50.2638 34.164 50.0365 34.212 49.7983C34.2265 49.7264 34.2427 49.1259 34.2298 49.1298C34.5389 50.0464 35.502 50.4574 36.3485 50.1094C36.7433 49.9622 37.0708 49.6444 37.2539 49.249C37.3569 49.0268 37.408 48.7848 37.4028 48.5373C37.4013 48.4674 37.2864 47.8699 37.2686 47.8802C37.759 48.7305 38.8041 48.8914 39.5521 48.3157C40.3094 47.7327 40.4761 46.6125 39.8146 45.8751C39.8005 45.8906 40.2624 46.1667 40.3174 46.1885C40.5418 46.2764 40.7836 46.2969 41.0202 46.264C41.4708 46.2013 41.8667 45.9043 42.1204 45.5146C42.6463 44.6848 42.4396 43.5685 41.5732 43.1108C41.5665 43.1263 42.0795 43.2159 42.1388 43.2161C42.3816 43.2181 42.6186 43.1532 42.8318 43.0314C43.2247 42.8072 43.5221 42.4031 43.6311 41.9447C43.8536 41.0082 43.3684 40.0488 42.4489 39.8439C42.4437 39.8801 43.1179 39.7416 43.1896 39.71C43.4575 39.5921 43.6841 39.3961 43.8513 39.1469C44.1772 38.6615 44.2491 38.0038 44.0452 37.4506C43.9631 37.2293 44.1268 37.6719 44.0452 37.4506" fill="#F7A80E"/>
<path d="M41.3883 34.2666C41.1959 33.7478 40.7334 33.3941 40.2038 33.3668C40.204 33.3753 40.634 33.2345 40.6836 33.2081C40.8656 33.1105 41.0234 32.9677 41.1457 32.7953C41.3667 32.4834 41.4511 32.087 41.4052 31.7035C41.3167 30.9636 40.6962 30.3871 39.9825 30.425C39.9821 30.4215 39.9817 30.4178 39.9812 30.4143C40.7332 30.2521 41.1647 29.4525 40.9803 28.6806C40.8972 28.3328 40.7143 28.0264 40.434 27.8179C40.2739 27.6987 40.0882 27.6217 39.8944 27.591C39.8336 27.5815 39.3217 27.6042 39.3276 27.6213C40.0211 27.2838 40.2769 26.3983 39.9247 25.692C39.5741 24.9887 38.7735 24.6688 38.0924 25.0677C38.0965 25.0742 38.3874 24.7163 38.4159 24.6657C38.5097 24.4987 38.5651 24.3129 38.5846 24.1201C38.6237 23.7314 38.4941 23.3327 38.2532 23.0378C37.7621 22.4366 36.9158 22.3138 36.337 22.8578C36.3388 22.8596 36.5387 22.4764 36.5561 22.4236C36.6201 22.2309 36.639 22.0269 36.6173 21.8244C36.5757 21.4385 36.3714 21.0876 36.0818 20.8516C35.4853 20.3596 34.6159 20.4433 34.1633 21.1018C34.1685 21.1051 34.2858 20.6536 34.291 20.5948C34.3096 20.3854 34.2791 20.1747 34.2068 19.9793C34.0795 19.6353 33.8187 19.3593 33.5038 19.202C32.8205 18.8563 31.9893 19.135 31.6814 19.8789C31.6831 19.8794 31.711 19.4452 31.7058 19.3892C31.6868 19.1877 31.6234 18.9959 31.5238 18.8228C31.3435 18.5087 31.0424 18.2863 30.7083 18.19C29.955 17.9724 29.1605 18.4258 29.0085 19.2513C29.0137 19.2518 28.9391 18.791 28.9204 18.735C28.8588 18.5534 28.7601 18.3903 28.6315 18.253C28.3718 17.9758 28.0018 17.8164 27.6307 17.825C27.2541 17.8337 26.8984 17.9715 26.632 18.2577C26.5041 18.3953 26.4063 18.561 26.3457 18.7427C26.3271 18.7986 26.2549 19.2594 26.2601 19.2587C26.1082 18.4578 25.3667 18.0237 24.6295 18.1855C24.2877 18.2607 23.975 18.481 23.7791 18.7845C23.6709 18.9524 23.5984 19.1415 23.5711 19.3426C23.5628 19.4043 23.5817 19.904 23.5903 19.9008C23.2778 19.1564 22.4638 18.8987 21.7779 19.2256C21.4422 19.3855 21.1748 19.6905 21.0515 20.0555C20.993 20.2289 20.9681 20.4118 20.9811 20.5956C20.9855 20.6575 21.1058 21.1421 21.1142 21.1367C20.6571 20.479 19.8084 20.4117 19.2057 20.8857C18.9106 21.1179 18.7111 21.4763 18.6652 21.8608C18.6434 22.0438 18.6565 22.2283 18.707 22.4051C18.7239 22.4645 18.9418 22.9113 18.949 22.9039C18.367 22.3628 17.5235 22.4916 17.0324 23.0932C16.5395 23.6972 16.6106 24.6238 17.2103 25.1137C17.2122 25.1105 16.8175 24.9727 16.7655 24.964C16.5709 24.9318 16.3688 24.9465 16.1815 25.0114C15.8222 25.1358 15.548 25.4078 15.374 25.7569C15.0217 26.4639 15.2904 27.3509 15.9824 27.6836C15.9881 27.6667 15.4753 27.6462 15.4145 27.6561C15.2206 27.6875 15.0353 27.7655 14.8758 27.8858C14.5968 28.0965 14.4169 28.4038 14.3338 28.7516C14.2379 29.1527 14.3037 29.5908 14.5316 29.9304C14.6307 30.0795 14.7587 30.2065 14.9061 30.3018C14.9513 30.331 15.3403 30.4972 15.3409 30.4926C14.6702 30.4582 14.0712 30.9688 13.9392 31.6574C13.7788 32.4944 14.3026 33.3368 15.1273 33.4227C15.1275 33.414 14.6927 33.5324 14.6424 33.5562C14.4741 33.6357 14.3215 33.7524 14.1981 33.8964C13.9511 34.1848 13.8362 34.5746 13.8552 34.9588C13.8736 35.3303 14.0094 35.6792 14.2606 35.9443C14.3907 36.0818 14.5507 36.1859 14.7238 36.2519C14.7799 36.2733 15.2894 36.3611 15.2863 36.3403C14.5137 36.5123 14.1137 37.3126 14.2925 38.0978C14.3747 38.4583 14.6041 38.786 14.9037 38.9775C15.0747 39.0869 15.2643 39.1536 15.4645 39.1661C15.5199 39.1696 16.0212 39.1072 16.0118 39.0848C15.2742 39.4651 15.1108 40.3871 15.5324 41.093C15.719 41.4051 16.0329 41.6468 16.3776 41.7206C16.5651 41.761 16.759 41.7591 16.9441 41.7069C16.9993 41.6913 17.4836 41.4454 17.4609 41.4198C16.8984 42.0264 17.0216 42.9787 17.6562 43.4702C18.2839 43.9559 19.1591 43.8352 19.5749 43.1142C19.565 43.1086 19.4656 43.5529 19.462 43.6055C19.4474 43.8149 19.479 44.0292 19.5606 44.2212C19.7119 44.5774 19.9957 44.8539 20.3429 44.9874C21.0552 45.2773 21.8638 44.9272 22.1149 44.1528C22.1103 44.1515 22.1121 44.5919 22.1209 44.6464C22.1532 44.8485 22.2296 45.0391 22.3393 45.208C22.5345 45.509 22.8456 45.7022 23.1787 45.7844C23.9299 45.9696 24.699 45.4748 24.8444 44.6692C24.8437 44.6692 24.908 45.0966 24.9249 45.1501C24.9858 45.343 25.087 45.5189 25.2171 45.6684C25.4615 45.9492 25.8119 46.1007 26.1695 46.1232C26.9065 46.1757 27.5811 45.6044 27.6352 44.8174C27.6378 44.8174 27.735 45.2074 27.7558 45.2567C27.8294 45.4305 27.9376 45.5871 28.0713 45.7149C28.3577 45.9888 28.7417 46.1206 29.1258 46.089C29.4678 46.061 29.8024 45.9196 30.0431 45.6574C30.1749 45.5139 30.2786 45.3411 30.344 45.1537C30.3645 45.0947 30.4448 44.6062 30.4373 44.6071C30.5898 45.3699 31.3188 45.8681 32.0454 45.7108C32.3816 45.6379 32.7017 45.4558 32.9107 45.1639C33.0274 45.001 33.1103 44.8106 33.1504 44.6108C33.1625 44.5506 33.1761 44.0477 33.1653 44.0509C33.4244 44.8187 34.2311 45.1629 34.9403 44.8716C35.271 44.7481 35.5455 44.482 35.6989 44.1508C35.7849 43.9644 35.8279 43.7619 35.8236 43.5546C35.8223 43.4958 35.726 42.9954 35.7111 43.004C36.1219 43.7164 36.9974 43.8512 37.624 43.3688C38.2586 42.8805 38.3982 41.9419 37.8441 41.3242C37.8322 41.3372 38.2192 41.5685 38.2653 41.5868C38.4532 41.6604 38.6558 41.6775 38.854 41.65C39.2315 41.5975 39.5633 41.3485 39.7758 41.0222C40.2163 40.3269 40.0432 39.3919 39.3172 39.0084C39.3116 39.0214 39.7416 39.0964 39.7912 39.0966C39.9945 39.0982 40.1931 39.0439 40.3717 38.942C40.7009 38.754 40.9502 38.4154 41.0412 38.0314C41.2277 37.2468 40.8213 36.4433 40.0509 36.2715C40.0464 36.3018 40.6115 36.1857 40.6715 36.1593C40.8959 36.0606 41.0857 35.8964 41.2258 35.6875C41.4989 35.281 41.5591 34.73 41.3883 34.2666C41.4567 34.452 41.3195 34.081 41.3883 34.2666Z" fill="#F2CC46"/>
<path d="M38.7313 31.0824C38.5761 30.664 38.2032 30.3789 37.7762 30.3568C37.7764 30.3639 38.1231 30.2503 38.163 30.2289C38.3099 30.1502 38.4372 30.0351 38.5358 29.8962C38.7138 29.6448 38.782 29.3249 38.7449 29.0157C38.6735 28.4191 38.1733 27.9542 37.5978 27.9849C37.5974 27.9819 37.597 27.9791 37.5967 27.9761C38.2032 27.8454 38.551 27.2005 38.4023 26.5781C38.3352 26.2977 38.1878 26.0507 37.9617 25.8826C37.8327 25.7865 37.6829 25.7244 37.5268 25.6996C37.4777 25.692 37.0649 25.7102 37.0697 25.7242C37.629 25.4519 37.8352 24.7378 37.5511 24.1684C37.2684 23.6012 36.6229 23.3433 36.0738 23.665C36.0771 23.6702 36.3115 23.3816 36.3346 23.3409C36.4102 23.2061 36.4548 23.0564 36.4706 22.9009C36.5022 22.5876 36.3978 22.2661 36.2033 22.0282C35.8074 21.5434 35.125 21.4445 34.6583 21.883C34.6598 21.8846 34.8207 21.5756 34.8349 21.533C34.8865 21.3775 34.9018 21.2131 34.8841 21.0497C34.8507 20.7388 34.686 20.4557 34.4525 20.2653C33.9715 19.8687 33.2705 19.9362 32.9056 20.4673C32.9097 20.4699 33.0043 20.1056 33.0084 20.0583C33.0235 19.8895 32.9989 19.7197 32.9406 19.562C32.838 19.2846 32.6275 19.0621 32.3736 18.9353C31.8227 18.6566 31.1526 18.8812 30.9043 19.4811C30.9056 19.4815 30.9281 19.1315 30.924 19.0863C30.9087 18.9236 30.8574 18.7691 30.7773 18.6294C30.6318 18.3763 30.389 18.1969 30.1197 18.1191C29.5122 17.9438 28.8717 18.3094 28.749 18.9749C28.7532 18.9755 28.6932 18.6038 28.6778 18.5588C28.6283 18.4122 28.5486 18.2807 28.4451 18.1701C28.2356 17.9464 27.9372 17.8179 27.6382 17.825C27.3344 17.8318 27.0474 17.943 26.8327 18.1738C26.7296 18.2846 26.6508 18.4184 26.6019 18.5649C26.5868 18.6101 26.5286 18.9814 26.5327 18.9811C26.4104 18.3352 25.8124 17.9852 25.218 18.1156C24.9423 18.1762 24.6903 18.354 24.5325 18.5987C24.4451 18.7339 24.3867 18.8864 24.3646 19.0486C24.3577 19.0984 24.373 19.5014 24.38 19.4988C24.1282 18.8985 23.4719 18.6906 22.9187 18.9543C22.648 19.0832 22.4322 19.3292 22.333 19.6236C22.2857 19.7634 22.2657 19.9107 22.2761 20.0589C22.2796 20.1089 22.3768 20.4996 22.3835 20.4953C22.0149 19.965 21.3305 19.9107 20.8446 20.293C20.6065 20.4803 20.4459 20.7691 20.4087 21.0793C20.3913 21.2267 20.4018 21.3755 20.4425 21.5179C20.4561 21.5659 20.6318 21.9261 20.6375 21.9204C20.1684 21.4839 19.4882 21.5879 19.0923 22.0728C18.6947 22.5601 18.7522 23.3071 19.2356 23.702C19.2371 23.6994 18.9191 23.5884 18.8769 23.5813C18.72 23.5553 18.557 23.5672 18.4061 23.6197C18.1163 23.7199 17.8953 23.9391 17.7549 24.2207C17.4709 24.7908 17.6874 25.506 18.2455 25.7744C18.2503 25.7606 17.8365 25.7443 17.7876 25.7522C17.6313 25.7775 17.4819 25.8404 17.3532 25.9375C17.1283 26.1072 16.9831 26.3551 16.9162 26.6356C16.8389 26.9589 16.8919 27.3121 17.0757 27.586C17.1556 27.7061 17.2588 27.8086 17.3776 27.8854C17.414 27.909 17.7278 28.0431 17.7282 28.0392C17.1874 28.0115 16.7043 28.4232 16.598 28.9787C16.4688 29.6535 16.891 30.3326 17.556 30.402C17.5562 30.3949 17.2057 30.4905 17.1649 30.5097C17.0294 30.5736 16.9064 30.6677 16.8067 30.784C16.6077 31.0164 16.5149 31.3309 16.5303 31.6407C16.5452 31.9401 16.6547 32.2216 16.8571 32.4353C16.962 32.5461 17.0911 32.6302 17.2307 32.6834C17.2759 32.7007 17.6867 32.7713 17.6843 32.7544C17.0614 32.8933 16.7387 33.5386 16.8829 34.1716C16.9493 34.4624 17.1341 34.7267 17.3757 34.881C17.5137 34.9692 17.6666 35.0231 17.828 35.0331C17.8726 35.0359 18.2769 34.9855 18.2692 34.9675C17.6744 35.2741 17.5428 36.0176 17.8826 36.5868C18.0332 36.8384 18.2863 37.0333 18.5641 37.093C18.7154 37.1254 18.8717 37.1239 19.0209 37.0817C19.0656 37.0692 19.4559 36.871 19.4377 36.8503C18.9841 37.3394 19.0834 38.1073 19.5953 38.5035C20.1013 38.8954 20.8071 38.7979 21.1422 38.2166C21.1342 38.2121 21.0543 38.5703 21.0513 38.6129C21.0394 38.7815 21.0651 38.9545 21.1307 39.1092C21.2528 39.3963 21.4816 39.6195 21.7616 39.727C22.3359 39.9609 22.988 39.6784 23.1904 39.0542C23.1867 39.053 23.1882 39.408 23.1953 39.4521C23.2213 39.615 23.283 39.7686 23.3713 39.9049C23.5287 40.1476 23.7797 40.3034 24.0483 40.3698C24.6539 40.519 25.2741 40.1201 25.3912 39.4705C25.3907 39.4703 25.4425 39.8149 25.4563 39.8583C25.5054 40.0137 25.5868 40.1556 25.6918 40.2761C25.889 40.5026 26.1714 40.6248 26.4599 40.643C27.0541 40.6852 27.598 40.2246 27.6417 39.5899C27.6437 39.5899 27.7222 39.9044 27.7389 39.9442C27.7982 40.0844 27.8854 40.2106 27.9932 40.3137C28.2242 40.5346 28.5339 40.6408 28.8436 40.6153C29.1193 40.5928 29.3891 40.4788 29.5832 40.2674C29.6895 40.1515 29.7732 40.0122 29.8258 39.861C29.8423 39.8136 29.9072 39.4196 29.9011 39.4205C30.0239 40.0355 30.6119 40.4371 31.1978 40.3103C31.469 40.2516 31.727 40.1048 31.8956 39.8692C31.9894 39.7379 32.0563 39.5843 32.0887 39.4235C32.0985 39.3749 32.1095 38.9694 32.1008 38.9718C32.3097 39.591 32.9603 39.8687 33.532 39.6336C33.7986 39.5341 34.02 39.3195 34.1436 39.0525C34.2131 38.9022 34.2479 38.739 34.2441 38.5716C34.2432 38.5244 34.1657 38.1208 34.1536 38.1277C34.4849 38.7021 35.1908 38.8109 35.6961 38.4219C36.2076 38.028 36.3202 37.2714 35.8734 36.7732C35.8639 36.7838 36.176 36.9703 36.2132 36.985C36.3647 37.0443 36.5281 37.0581 36.6877 37.0359C36.9922 36.9935 37.2597 36.7929 37.4311 36.5296C37.7863 35.9691 37.6467 35.2152 37.0613 34.906C37.0569 34.9164 37.4034 34.977 37.4435 34.977C37.6075 34.9785 37.7675 34.9346 37.9116 34.8524C38.177 34.7008 38.3779 34.4278 38.4515 34.1182C38.6017 33.4856 38.274 32.8375 37.6528 32.6992C37.6493 32.7235 38.1049 32.63 38.1534 32.6086C38.3343 32.529 38.4874 32.3966 38.6004 32.2281C38.8203 31.9005 38.869 31.456 38.7313 31.0824C38.6759 30.9329 38.7863 31.2319 38.7313 31.0824" fill="#F8E298"/>
<path d="M38.2099 33.2503C37.9647 33.3375 37.6926 33.348 37.4415 33.2797C38.8837 32.6619 40.2324 31.7388 41.1222 30.4462C42.0122 29.1536 42.3925 27.4597 41.8974 25.9704C41.9132 26.6921 41.6886 27.4169 41.2678 28.0035C41.7366 26.7103 41.5314 25.2494 40.9984 23.9813C40.4655 22.7133 39.6285 21.6009 38.8 20.5029C38.369 19.9317 37.9305 19.3528 37.3604 18.9204C36.9154 18.5829 36.4013 18.3439 35.8696 18.173C34.1168 17.6094 32.1809 17.7831 30.4524 18.4181C29.9704 18.5954 29.4982 18.8088 29.0759 19.1012C28.6285 19.4112 28.2437 19.8052 27.9071 20.2329C26.2494 22.3384 25.802 25.132 25.5526 27.8004C25.3496 29.97 25.2472 32.2076 25.9206 34.2798C26.0481 34.672 26.2121 35.0696 26.5152 35.3489C26.8186 35.6284 27.2946 35.7576 27.6532 35.554C27.9376 35.3926 28.0841 35.0727 28.2387 34.7845C28.4607 34.3709 28.7335 33.9847 29.0495 33.6375C29.1456 33.5319 29.2495 33.4272 29.3813 33.3719C29.8085 33.1929 30.236 33.5919 30.5682 33.9149C31.599 34.9171 33.0287 35.4969 34.4661 35.496C33.529 35.1626 32.679 34.587 32.0216 33.8406C33.0288 34.3017 34.1309 34.5965 35.2373 34.5426C36.3438 34.4886 37.4546 34.0611 38.2099 33.2503" fill="#F2591D"/>
<path d="M14.9107 33.2503C15.1559 33.3375 15.4279 33.348 15.6792 33.2797C14.2367 32.6619 12.8882 31.7388 11.9984 30.4462C11.1084 29.1536 10.7281 27.4597 11.2233 25.9704C11.2075 26.6921 11.4318 27.4169 11.8526 28.0035C11.384 26.7103 11.5891 25.2494 12.1222 23.9813C12.6551 22.7133 13.4921 21.6009 14.3206 20.5029C14.7514 19.9317 15.1901 19.3528 15.76 18.9204C16.205 18.5829 16.7192 18.3439 17.251 18.173C19.0038 17.6094 20.9398 17.7831 22.6681 18.4181C23.1502 18.5954 23.6224 18.8088 24.0445 19.1012C24.4921 19.4112 24.8767 19.8052 25.2135 20.2329C26.8712 22.3384 27.3186 25.132 27.5681 27.8004C27.771 29.97 27.8734 32.2076 27.2 34.2798C27.0725 34.672 26.9086 35.0696 26.6054 35.3489C26.302 35.6284 25.826 35.7576 25.4674 35.554C25.1828 35.3926 25.0364 35.0727 24.8817 34.7845C24.66 34.3709 24.3869 33.9847 24.0711 33.6375C23.975 33.5319 23.8711 33.4272 23.7393 33.3719C23.312 33.1929 22.8846 33.5919 22.5525 33.9149C21.5214 34.9171 20.092 35.4969 18.6546 35.496C19.5916 35.1626 20.4414 34.587 21.0991 33.8406C20.0918 34.3017 18.9897 34.5965 17.8832 34.5426C16.7768 34.4886 15.6658 34.0611 14.9107 33.2503" fill="#F2591D"/>
<path d="M41.3442 26.0323C41.3442 29.9717 38.1522 33.165 34.2146 33.165C30.2771 33.165 27.085 29.9717 27.085 26.0323C27.085 22.0931 30.2771 18.8996 34.2146 18.8996C38.1522 18.8996 41.3442 22.0931 41.3442 26.0323Z" fill="#523B1A"/>
<path d="M40.3902 26.2645C40.3902 29.8333 37.4983 32.7264 33.9309 32.7264C30.3637 32.7264 27.4718 29.8333 27.4718 26.2645C27.4718 22.6956 30.3637 19.8024 33.9309 19.8024C37.4983 19.8024 40.3902 22.6956 40.3902 26.2645Z" fill="#D1B86C"/>
<path d="M40.3902 26.2645C40.3902 29.8333 37.4983 32.7264 33.9309 32.7264C30.3637 32.7264 27.4718 29.8333 27.4718 26.2645C27.4718 22.6956 30.3637 19.8024 33.9309 19.8024C37.4983 19.8024 40.3902 22.6956 40.3902 26.2645Z" fill="#D1B86C"/>
<path d="M39.7713 26.2646C39.7713 29.4914 37.1565 32.1075 33.9309 32.1075C30.7054 32.1075 28.0906 29.4914 28.0906 26.2646C28.0906 23.0376 30.7054 20.4217 33.9309 20.4217C37.1565 20.4217 39.7713 23.0376 39.7713 26.2646Z" fill="#F3ED99"/>
<path d="M36.7286 26.2646C36.7286 27.8103 35.4761 29.0635 33.9309 29.0635C32.3859 29.0635 31.1332 27.8103 31.1332 26.2646C31.1332 24.7187 32.3859 23.4655 33.9309 23.4655C35.4761 23.4655 36.7286 24.7187 36.7286 26.2646Z" fill="#D4C18D"/>
<path d="M35.9552 26.2646C35.9552 27.3829 35.0488 28.2895 33.931 28.2895C32.8131 28.2895 31.9069 27.3829 31.9069 26.2646C31.9069 25.146 32.8131 24.2395 33.931 24.2395C35.0488 24.2395 35.9552 25.146 35.9552 26.2646Z" fill="#2E2227"/>
<path d="M33.9309 25.6712C33.9309 25.9989 33.6655 26.2646 33.3379 26.2646C33.0104 26.2646 32.7448 25.9989 32.7448 25.6712C32.7448 25.3435 33.0104 25.0778 33.3379 25.0778C33.6655 25.0778 33.9309 25.3435 33.9309 25.6712Z" fill="white"/>
<path d="M32.2524 21.9191C32.7333 22.3797 32.4604 23.4454 31.6429 24.2995C30.8256 25.1537 29.7732 25.4728 29.2921 25.0121C28.8112 24.5515 29.0841 23.4858 29.9016 22.6317C30.7189 21.7774 31.7714 21.4584 32.2524 21.9191" fill="white"/>
<path d="M35.2339 31.0508C32.1541 31.0508 29.5033 29.2135 28.3164 26.575C28.387 28.6863 29.6735 30.6599 31.7574 31.5027C33.6034 32.2492 35.6165 31.9228 37.1069 30.8173C36.5078 30.9696 35.8802 31.0508 35.2339 31.0508" fill="#D4C18D"/>
<path d="M12.2328 26.0323C12.2328 29.9717 15.4247 33.165 19.3624 33.165C23.2999 33.165 26.492 29.9717 26.492 26.0323C26.492 22.0931 23.2999 18.8996 19.3624 18.8996C15.4247 18.8996 12.2328 22.0931 12.2328 26.0323" fill="#523B1A"/>
<path d="M13.1867 26.2645C13.1867 29.8333 16.0786 32.7264 19.6459 32.7264C23.2133 32.7264 26.1052 29.8333 26.1052 26.2645C26.1052 22.6956 23.2133 19.8024 19.6459 19.8024C16.0786 19.8024 13.1867 22.6956 13.1867 26.2645Z" fill="#D1B86C"/>
<path d="M13.1867 26.2645C13.1867 29.8333 16.0786 32.7264 19.6459 32.7264C23.2133 32.7264 26.1052 29.8333 26.1052 26.2645C26.1052 22.6956 23.2133 19.8024 19.6459 19.8024C16.0786 19.8024 13.1867 22.6956 13.1867 26.2645Z" fill="#D1B86C"/>
<path d="M13.8055 26.2646C13.8055 29.4914 16.4205 32.1075 19.6459 32.1075C22.8714 32.1075 25.4862 29.4914 25.4862 26.2646C25.4862 23.0376 22.8714 20.4217 19.6459 20.4217C16.4205 20.4217 13.8055 23.0376 13.8055 26.2646Z" fill="#F3ED99"/>
<path d="M16.8482 26.2646C16.8482 27.8103 18.1008 29.0635 19.6459 29.0635C21.1911 29.0635 22.4437 27.8103 22.4437 26.2646C22.4437 24.7187 21.1911 23.4655 19.6459 23.4655C18.1008 23.4655 16.8482 24.7187 16.8482 26.2646Z" fill="#D4C18D"/>
<path d="M17.6218 26.2646C17.6218 27.3829 18.5279 28.2895 19.6458 28.2895C20.7639 28.2895 21.67 27.3829 21.67 26.2646C21.67 25.146 20.7639 24.2395 19.6458 24.2395C18.5279 24.2395 17.6218 25.146 17.6218 26.2646Z" fill="#2E2227"/>
<path d="M19.6459 25.6712C19.6459 25.9989 19.9115 26.2646 20.239 26.2646C20.5665 26.2646 20.8322 25.9989 20.8322 25.6712C20.8322 25.3435 20.5665 25.0778 20.239 25.0778C19.9115 25.0778 19.6459 25.3435 19.6459 25.6712Z" fill="white"/>
<path d="M17.9501 21.9191C18.431 22.3797 18.1581 23.4454 17.3408 24.2995C16.5233 25.1537 15.4708 25.4728 14.9899 25.0121C14.5091 24.5515 14.7819 23.4858 15.5993 22.6317C16.4168 21.7774 17.4692 21.4584 17.9501 21.9191" fill="white"/>
<path d="M18.343 31.0508C21.4229 31.0508 24.0737 29.2135 25.2605 26.575C25.1899 28.6863 23.9034 30.6599 21.8195 31.5027C19.9734 32.2492 17.9603 31.9228 16.4699 30.8173C17.069 30.9696 17.6965 31.0508 18.343 31.0508Z" fill="#D4C18D"/>
<path d="M27.9471 26.9498C27.7686 26.754 27.5606 26.5781 27.3171 26.5173C27.0809 26.4584 26.8076 26.5324 26.6613 26.747C26.5158 26.532 26.2427 26.4574 26.0063 26.5158C25.7628 26.5759 25.5542 26.7514 25.3752 26.9469C24.4235 27.986 24.1618 29.6288 24.3789 31.0997C24.596 32.5709 25.2243 33.9183 25.8436 35.2368C25.8894 35.3342 26.2766 35.9377 26.6574 35.9382C27.0385 35.9386 27.4134 35.3359 27.4593 35.2388C28.0818 33.9217 28.7133 32.5755 28.9339 31.1051C29.1542 29.6346 28.8964 27.9912 27.9471 26.9498" fill="#2D1615"/>
<path d="M25.9319 26.7735C25.7539 26.8059 25.6215 26.9587 25.5139 27.1094C24.7488 28.1792 24.5014 29.5748 24.5957 30.9031C24.7001 32.3752 25.2029 33.8147 26.0319 35.0143C26.1754 35.2222 26.3842 35.4459 26.6255 35.3935C26.9021 35.3333 26.9846 34.9716 27.01 34.6796C27.221 32.2647 27.3772 29.7697 26.6357 27.4703C26.5794 27.2957 26.5158 27.1188 26.4005 26.979C26.2851 26.8392 26.1067 26.7417 25.9319 26.7735" fill="#EE8B40"/>
<path d="M27.1669 26.7719C26.9245 26.8301 26.8106 27.1025 26.7387 27.3413C26.002 29.7885 25.8916 32.4219 26.4208 34.9223C26.4582 35.099 26.523 35.3034 26.6946 35.3597C26.9095 35.4304 27.1056 35.2178 27.2266 35.0265C28.3268 33.2883 28.825 31.1764 28.6175 29.1295C28.5356 28.3213 28.3106 27.4629 27.6824 26.9485C27.5366 26.8292 27.3502 26.728 27.1669 26.7719" fill="#F2591D"/>
<path d="M27.2266 31.4387C27.2266 33.4201 26.9467 35.0264 26.6015 35.0264C26.2561 35.0264 25.9762 33.4201 25.9762 31.4387C25.9762 29.4573 26.2561 27.851 26.6015 27.851C26.9467 27.851 27.2266 29.4573 27.2266 31.4387Z" fill="#F3DE3E"/>
<path d="M26.6844 30.2453C26.8234 30.2021 26.879 30.0368 26.9 29.8927C26.9664 29.4374 26.8876 28.9621 26.6775 28.553C26.3407 28.8788 26.2059 29.3835 26.2836 29.8458C26.3013 29.9516 26.3311 30.0593 26.3993 30.1421C26.4673 30.225 26.5818 30.2771 26.6844 30.2453Z" fill="white"/>
<path d="M26.7987 31.3902C26.7264 31.1142 26.654 30.8383 26.5815 30.5623C26.4277 30.8424 26.358 31.1682 26.3839 31.4867C26.3909 31.5749 26.4063 31.6658 26.4565 31.7387C26.5065 31.8116 26.5993 31.8616 26.6844 31.8378C26.7672 31.8146 26.8199 31.729 26.8313 31.644C26.8426 31.5589 26.8207 31.4732 26.7987 31.3902Z" fill="white"/>
<path d="M19.716 54.6942C19.3606 54.4406 18.8587 54.6129 18.5014 54.864C17.6888 55.4351 17.1713 56.3567 16.9222 57.3183C16.6731 58.2801 16.6692 59.2876 16.7149 60.2801C16.7218 60.4285 16.748 60.6057 16.883 60.6676C17.0644 60.7511 17.2432 60.5536 17.3462 60.3825C17.8903 59.4775 18.4345 58.5726 18.9786 57.6675C19.2695 57.1838 19.5609 56.6989 19.7985 56.1867C19.9124 55.9407 20.0154 55.6822 20.0253 55.4111C20.0349 55.1401 19.9366 54.8517 19.716 54.6942" fill="#EDA263"/>
<path d="M19.3055 54.767C19.1007 54.767 18.8488 54.8613 18.6148 55.0257C17.9094 55.5215 17.3761 56.3535 17.1134 57.3679C16.8636 58.333 16.869 59.3335 16.9121 60.2709C16.9212 60.4656 16.9638 60.4874 16.9655 60.4881L16.971 60.4898C16.9961 60.4898 17.0826 60.4372 17.1766 60.2806L18.8092 57.5656C19.0936 57.0928 19.3864 56.6054 19.6193 56.1035C19.7225 55.8808 19.8191 55.6418 19.8277 55.404C19.8344 55.2215 19.7782 54.9816 19.6011 54.855C19.5195 54.7968 19.42 54.767 19.3055 54.767V54.767ZM16.971 60.8851C16.9123 60.8851 16.8551 60.8725 16.8006 60.8474C16.5379 60.7263 16.5231 60.4087 16.5175 60.2893C16.4751 59.3671 16.4671 58.2873 16.7309 57.2688C17.0171 56.1634 17.6055 55.252 18.3876 54.7021C18.5635 54.5789 18.9165 54.3717 19.3055 54.3717C19.5038 54.3717 19.6806 54.426 19.8306 54.5333C20.0856 54.7153 20.2357 55.0544 20.2227 55.4181C20.2113 55.7262 20.0983 56.0094 19.9778 56.27C19.736 56.791 19.4375 57.2877 19.149 57.7679L17.5153 60.4844C17.4255 60.6339 17.2352 60.8851 16.971 60.8851" fill="#292625"/>
<path d="M19.0931 56.4111C19.1377 56.1826 19.1726 55.946 19.1239 55.7184C19.0367 56.1407 18.7544 56.5184 18.3743 56.7213C18.4538 57.0337 18.4622 57.3731 18.3404 57.6717C18.2189 57.9702 17.9523 58.2196 17.6335 58.2674C17.6783 58.8202 17.5672 59.385 17.3159 59.8795C17.7789 59.0631 18.2421 58.2467 18.7053 57.4304C18.7908 57.2797 18.8765 57.1285 18.9408 56.9677C19.0122 56.7888 19.0561 56.6 19.0931 56.4111" fill="#DC7029"/>
<path d="M21.0199 54.6942C21.3755 54.4406 21.8771 54.6129 22.2344 54.864C23.0471 55.4351 23.5646 56.3567 23.8136 57.3183C24.0627 58.2801 24.0666 59.2876 24.0209 60.2801C24.0142 60.4285 23.9878 60.6057 23.8529 60.6676C23.6716 60.7511 23.4926 60.5536 23.3897 60.3825C22.8456 59.4775 22.3013 58.5726 21.7573 57.6675C21.4664 57.1838 21.1749 56.6989 20.9373 56.1867C20.8234 55.9407 20.7206 55.6822 20.7108 55.4111C20.7009 55.1401 20.7992 54.8517 21.0199 54.6942" fill="#EDA263"/>
<path d="M21.4303 54.767C21.316 54.767 21.2166 54.7968 21.1346 54.855C20.9576 54.9816 20.9015 55.2215 20.9082 55.404C20.9167 55.6418 21.0136 55.8808 21.1167 56.1035C21.3506 56.6082 21.6435 57.0949 21.9266 57.5656L23.559 60.2806C23.6533 60.4372 23.7399 60.4898 23.765 60.4898C23.7655 60.4898 23.7668 60.4898 23.7705 60.4881C23.7722 60.4874 23.8146 60.4656 23.8237 60.2707C23.8668 59.3335 23.8724 58.333 23.6224 57.3679C23.3596 56.3533 22.8263 55.5213 22.1209 55.0257C21.887 54.8613 21.6354 54.767 21.4303 54.767V54.767ZM23.765 60.8851C23.501 60.8851 23.3103 60.6339 23.2204 60.4844L21.5879 57.7694C21.2995 57.2898 21.0011 56.7938 20.7584 56.27C20.6375 56.0094 20.5245 55.7262 20.5132 55.4181C20.5002 55.0544 20.6504 54.7153 20.905 54.5333C21.0552 54.426 21.232 54.3717 21.4303 54.3717C21.8198 54.3717 22.1724 54.5789 22.3482 54.7021C23.1302 55.2518 23.7187 56.1632 24.0051 57.2688C24.2689 58.2873 24.2609 59.3671 24.2184 60.2891C24.213 60.4087 24.1981 60.7263 23.9356 60.8474C23.881 60.8725 23.8235 60.8851 23.765 60.8851Z" fill="#292625"/>
<path d="M22.4379 56.5628C22.4028 56.9227 22.464 57.2914 22.6134 57.6206C22.6662 57.737 22.7318 57.8508 22.8283 57.9348C22.9248 58.0189 23.0567 58.0695 23.1822 58.0444C23.1229 58.3774 23.2253 58.7174 23.3508 59.0316C23.4324 59.2356 23.524 59.4355 23.6255 59.6304C23.5595 59.6011 23.512 59.5425 23.4672 59.4856C23.235 59.1906 23.0119 58.8886 22.7889 58.5865C22.6881 58.45 22.5874 58.3135 22.4865 58.177C22.4242 58.0925 22.3619 58.0083 22.3021 57.9222C21.8849 57.3216 21.5909 56.6359 21.4433 55.9196C21.3993 55.7063 21.3719 55.4698 21.4851 55.2838C21.7158 55.7723 21.9721 56.2895 22.4379 56.5628" fill="#DC7029"/>
<path d="M21.6193 56.8605C21.6193 58.3359 21.0442 61.0762 20.3349 61.0762C19.6256 61.0762 19.0505 58.3359 19.0505 56.8605C19.0505 55.3852 19.6256 54.1891 20.3349 54.1891C21.0442 54.1891 21.6193 55.3852 21.6193 56.8605Z" fill="#EDA263"/>
<path d="M20.3347 54.387C19.8208 54.387 19.2481 55.4027 19.2481 56.8604C19.2481 58.5127 19.8879 60.8785 20.3347 60.8785C20.7818 60.8785 21.4216 58.5127 21.4216 56.8604C21.4216 55.4027 20.8489 54.387 20.3347 54.387ZM20.3347 61.2738C19.3722 61.2738 18.8529 58.1413 18.8529 56.8604C18.8529 55.2517 19.5039 53.9914 20.3347 53.9914C21.1658 53.9914 21.8169 55.2517 21.8169 56.8604C21.8169 58.1413 21.2974 61.2738 20.3347 61.2738Z" fill="#292625"/>
<path d="M18.006 56.0108C18.0131 56.106 18.0756 56.1874 18.141 56.2572C18.1973 56.3172 18.2665 56.3767 18.3488 56.3778C18.4785 56.3797 18.5607 56.2436 18.6154 56.1259C18.6858 55.9738 18.7574 55.8181 18.776 55.6515C18.7946 55.4849 18.7511 55.3021 18.6241 55.1925C18.4525 55.3508 18.2921 55.5209 18.1445 55.7017C18.0713 55.7913 17.9975 55.8953 18.006 56.0108Z" fill="#F3ED99"/>
<path d="M17.7793 56.4656C17.7237 56.4762 17.6884 56.5295 17.661 56.579C17.4153 57.0246 17.3043 57.5436 17.3463 58.0507C17.3508 58.1054 17.3653 58.1706 17.4173 58.1879C17.4805 58.2089 17.5354 58.1411 17.5677 58.0827C17.6958 57.8515 17.8241 57.6206 17.9521 57.3894C18.0229 57.2618 18.0958 57.1259 18.0893 56.9801C18.083 56.8343 17.9224 56.4382 17.7793 56.4656" fill="#F3ED99"/>
<path d="M17.1842 59.6816C17.2872 59.4434 17.3487 59.1871 17.3653 58.9279C17.371 58.8377 17.3708 58.744 17.3355 58.6607C17.3002 58.5774 17.2221 58.5065 17.1316 58.505C17.0554 58.7442 17.0121 58.9941 17.0035 59.245C16.9981 59.4041 17.011 59.5756 17.111 59.6994C17.1192 59.7097 17.1292 59.7201 17.1424 59.721C17.1628 59.7223 17.176 59.7004 17.1842 59.6816" fill="#F3ED99"/>
<path d="M19.5793 56.8682C19.6126 56.9801 19.676 57.0988 19.7884 57.1302C19.8987 57.1609 20.0171 57.0917 20.079 56.9956C20.1409 56.8994 20.1587 56.7823 20.1728 56.6688C20.249 56.0613 20.2652 55.4462 20.221 54.8353C20.2163 54.7702 20.189 54.6848 20.124 54.6891C20.0905 54.6913 20.065 54.7189 20.044 54.7451C19.742 55.1213 19.6109 55.6072 19.5507 56.0859C19.5178 56.3466 19.5046 56.616 19.5793 56.8682Z" fill="#F3ED99"/>
<path d="M19.8636 57.3703C19.8173 57.3804 19.7728 57.406 19.7476 57.4462C19.7325 57.47 19.7247 57.4975 19.7182 57.5249C19.6319 57.88 19.7028 58.254 19.8045 58.6047C19.8297 58.6921 19.8587 58.7823 19.921 58.8485C19.9563 58.8861 20.0067 58.9157 20.0572 58.9062C20.1333 58.8919 20.1667 58.8033 20.1836 58.7278C20.2441 58.4602 20.2691 58.185 20.2617 57.9107C20.2582 57.7824 20.2461 57.6493 20.1822 57.5379C20.1182 57.4267 19.989 57.3434 19.8636 57.3703" fill="#F3ED99"/>
<path d="M22.5653 55.6596C22.3963 55.4698 22.2144 55.2823 21.9848 55.1732C21.9534 55.1581 21.9171 55.1445 21.8844 55.1564C21.8593 55.2996 21.9021 55.4478 21.9744 55.5739C22.0467 55.6998 22.1469 55.8071 22.246 55.9131C22.3289 56.0018 22.4118 56.0903 22.4947 56.1788C22.5675 56.2568 22.6596 56.3416 22.7646 56.3237C22.8306 56.2183 22.8241 56.0797 22.777 55.9646C22.7302 55.8493 22.648 55.7526 22.5653 55.6596" fill="#F3ED99"/>
<path d="M23.2359 57.2249C23.2844 57.0079 23.1744 56.7879 23.0476 56.6051C23.0118 56.5532 22.9502 56.4963 22.8947 56.5261C22.7971 56.7405 22.801 56.9982 22.9047 57.2095C22.9287 57.2584 22.959 57.306 23.0038 57.3368C23.0484 57.3677 23.1103 57.3787 23.1577 57.3519C23.2021 57.3266 23.2248 57.2749 23.2359 57.2249" fill="#F3ED99"/>
<path d="M20.2918 60.5652C20.5232 60.5612 20.6606 60.3101 20.7388 60.0922C21.171 58.8881 21.3119 57.5806 21.1459 56.3122C21.0647 55.691 20.8786 55.0285 20.3756 54.6554C20.5185 55.9895 20.5728 57.3329 20.5381 58.674C20.5317 58.9199 20.5223 59.1655 20.5091 59.411C20.4881 59.8043 20.4546 60.2065 20.2918 60.5652" fill="#DC7029"/>
<path d="M29.9525 54.6942C29.5971 54.4406 29.0954 54.6129 28.738 54.864C27.9255 55.4351 27.408 56.3567 27.1589 57.3183C26.9099 58.2801 26.906 59.2876 26.9517 60.2801C26.9584 60.4285 26.9848 60.6057 27.1197 60.6676C27.301 60.7511 27.48 60.5536 27.5829 60.3825C28.127 59.4775 28.6713 58.5726 29.2153 57.6675C29.5062 57.1838 29.7977 56.6989 30.0351 56.1867C30.1492 55.9407 30.252 55.6822 30.2618 55.4111C30.2717 55.1401 30.1734 54.8517 29.9525 54.6942" fill="#EDA263"/>
<path d="M29.5425 54.767C29.3373 54.767 29.0856 54.8613 28.8518 55.0257C28.1462 55.5215 27.6131 56.3533 27.3504 57.3679C27.1004 58.3325 27.1058 59.3333 27.1489 60.2709C27.1578 60.4656 27.2004 60.4874 27.2023 60.4881L27.2077 60.4898C27.2328 60.4898 27.3194 60.4372 27.4134 60.2806L29.046 57.5656C29.3295 57.0941 29.6226 56.6067 29.8557 56.1035C29.9591 55.8811 30.0557 55.6424 30.0645 55.4038C30.0712 55.2215 30.0152 54.9816 29.8379 54.855C29.7563 54.7968 29.6568 54.767 29.5425 54.767ZM27.2077 60.8851C27.1491 60.8851 27.0917 60.8725 27.0372 60.8474C26.7746 60.7263 26.7597 60.4087 26.7543 60.2893C26.7117 59.367 26.7041 58.2869 26.9677 57.2688C27.2539 56.1632 27.8425 55.2518 28.6245 54.7021C28.8001 54.5789 29.1529 54.3717 29.5425 54.3717C29.7407 54.3717 29.9174 54.426 30.0674 54.5333C30.3225 54.7153 30.4727 55.0544 30.4595 55.4181C30.4481 55.727 30.3349 56.01 30.2143 56.27C29.9723 56.7923 29.6736 57.289 29.3847 57.7694L27.7523 60.4844C27.6621 60.6339 27.4716 60.8851 27.2077 60.8851Z" fill="#292625"/>
<path d="M29.3298 56.4111C29.3745 56.1826 29.4094 55.946 29.3605 55.7184C29.2735 56.1407 28.9912 56.5184 28.611 56.7213C28.6904 57.0337 28.699 57.3731 28.5772 57.6717C28.4557 57.9702 28.1891 58.2196 27.8703 58.2674C27.9151 58.8202 27.8038 59.385 27.5525 59.8795C28.0157 59.0631 28.4789 58.2467 28.9421 57.4304C29.0276 57.2797 29.1133 57.1285 29.1774 56.9677C29.249 56.7888 29.2929 56.6 29.3298 56.4111" fill="#DC7029"/>
<path d="M31.2567 54.6942C31.6121 54.4406 32.114 54.6129 32.4712 54.864C33.2839 55.4351 33.8014 56.3567 34.0505 57.3183C34.2995 58.2801 34.3034 59.2876 34.2577 60.2801C34.2508 60.4285 34.2246 60.6057 34.0897 60.6676C33.9083 60.7511 33.7295 60.5536 33.6265 60.3825C33.0824 59.4775 32.5381 58.5726 31.9941 57.6675C31.7032 57.1838 31.4115 56.6989 31.1742 56.1867C31.0602 55.9407 30.9572 55.6822 30.9474 55.4111C30.9375 55.1401 31.036 54.8517 31.2567 54.6942" fill="#EDA263"/>
<path d="M31.6669 54.767C31.5526 54.767 31.4532 54.7968 31.3714 54.855C31.1942 54.9816 31.1383 55.2215 31.145 55.404C31.1535 55.6418 31.2502 55.8808 31.3535 56.1035C31.5862 56.6054 31.879 57.0928 32.1623 57.5641L33.7958 60.2806C33.8901 60.4372 33.9765 60.4898 34.0016 60.4898C34.0021 60.4898 34.0036 60.4898 34.0071 60.4881C34.0088 60.4872 34.0514 60.4654 34.0603 60.2711C34.1036 59.3335 34.109 58.333 33.859 57.3679C33.5964 56.3533 33.0633 55.5215 32.3577 55.0257C32.1236 54.8613 31.872 54.767 31.6669 54.767V54.767ZM34.0016 60.8851C33.7378 60.8851 33.5473 60.6339 33.4571 60.4844L31.8245 57.7694C31.5349 57.2877 31.2366 56.791 30.995 56.27C30.8743 56.0094 30.7611 55.7262 30.75 55.4181C30.7368 55.0544 30.887 54.7153 31.142 54.5333C31.292 54.426 31.4688 54.3717 31.6669 54.3717C32.0562 54.3717 32.409 54.5789 32.5848 54.7021C33.367 55.2518 33.9555 56.1632 34.2417 57.2688C34.5055 58.2873 34.4975 59.3671 34.4549 60.2891C34.4497 60.4085 34.4352 60.7263 34.1722 60.8474C34.1176 60.8725 34.0601 60.8851 34.0016 60.8851" fill="#292625"/>
<path d="M32.6748 56.5628C32.6396 56.9227 32.7006 57.2914 32.8502 57.6206C32.903 57.737 32.9686 57.8508 33.0651 57.9348C33.1616 58.0189 33.2936 58.0695 33.419 58.0444C33.3597 58.3774 33.4622 58.7174 33.5876 59.0316C33.669 59.2356 33.7609 59.4355 33.8624 59.6304C33.7964 59.6011 33.7488 59.5425 33.704 59.4856C33.4718 59.1906 33.2488 58.8886 33.0257 58.5865C32.9249 58.45 32.824 58.3135 32.7233 58.177C32.661 58.0925 32.5987 58.0083 32.5389 57.9222C32.1218 57.3216 31.8277 56.6359 31.6799 55.9196C31.6361 55.7063 31.6087 55.4698 31.7219 55.2838C31.9526 55.7723 32.2089 56.2895 32.6748 56.5628" fill="#DC7029"/>
<path d="M31.8561 56.8605C31.8561 58.3359 31.281 61.0762 30.5717 61.0762C29.8622 61.0762 29.2873 58.3359 29.2873 56.8605C29.2873 55.3852 29.8622 54.1891 30.5717 54.1891C31.281 54.1891 31.8561 55.3852 31.8561 56.8605Z" fill="#EDA263"/>
<path d="M30.5717 54.387C30.0575 54.387 29.4847 55.4027 29.4847 56.8604C29.4847 58.5127 30.1246 60.8785 30.5717 60.8785C31.0185 60.8785 31.6585 58.5127 31.6585 56.8604C31.6585 55.4027 31.0856 54.387 30.5717 54.387ZM30.5717 61.2738C29.609 61.2738 29.0895 58.1413 29.0895 56.8604C29.0895 55.2517 29.7406 53.9914 30.5717 53.9914C31.4026 53.9914 32.0537 55.2517 32.0537 56.8604C32.0537 58.1413 31.5342 61.2738 30.5717 61.2738Z" fill="#292625"/>
<path d="M28.2428 56.0108C28.2499 56.106 28.3123 56.1874 28.3776 56.2572C28.4341 56.3172 28.503 56.3767 28.5856 56.3778C28.7151 56.3797 28.7975 56.2436 28.8521 56.1259C28.9226 55.9738 28.9941 55.8181 29.0127 55.6515C29.0313 55.4849 28.9878 55.3021 28.8609 55.1925C28.6891 55.3508 28.5289 55.5209 28.3813 55.7017C28.3081 55.7913 28.2343 55.8953 28.2428 56.0108Z" fill="#F3ED99"/>
<path d="M28.0159 56.4656C27.9605 56.4762 27.9252 56.5295 27.8978 56.579C27.6519 57.0246 27.541 57.5436 27.583 58.0507C27.5876 58.1054 27.6021 58.1706 27.6542 58.1879C27.7174 58.2089 27.7722 58.1411 27.8045 58.0827C27.9326 57.8515 28.0607 57.6206 28.1889 57.3894C28.2596 57.2618 28.3324 57.1259 28.3261 56.9801C28.3198 56.8343 28.1592 56.4382 28.0159 56.4656" fill="#F3ED99"/>
<path d="M27.4208 59.6816C27.5238 59.4434 27.5855 59.1871 27.6021 58.9279C27.6078 58.8377 27.6075 58.744 27.5723 58.6607C27.537 58.5774 27.4588 58.5065 27.3684 58.505C27.2922 58.7442 27.2489 58.9941 27.2404 59.245C27.235 59.4041 27.2478 59.5756 27.3476 59.6994C27.356 59.7097 27.366 59.7201 27.379 59.721C27.3995 59.7223 27.4128 59.7004 27.4208 59.6816" fill="#F3ED99"/>
<path d="M29.8161 56.8682C29.8492 56.9801 29.9128 57.0988 30.0252 57.1302C30.1353 57.1609 30.2539 57.0917 30.3158 56.9956C30.3777 56.8994 30.3955 56.7823 30.4096 56.6688C30.4859 56.0613 30.502 55.4462 30.4578 54.8353C30.4529 54.7702 30.4258 54.6848 30.3606 54.6891C30.3273 54.6913 30.3016 54.7189 30.2808 54.7451C29.9788 55.1213 29.8475 55.6072 29.7875 56.0859C29.7546 56.3466 29.7414 56.616 29.8161 56.8682" fill="#F3ED99"/>
<path d="M30.1003 57.3703C30.054 57.3804 30.0096 57.406 29.9843 57.4462C29.9692 57.47 29.9614 57.4975 29.9547 57.5249C29.8687 57.88 29.9393 58.254 30.0412 58.6047C30.0665 58.6921 30.0955 58.7823 30.1577 58.8485C30.1929 58.8861 30.2434 58.9157 30.294 58.9062C30.37 58.8919 30.4035 58.8033 30.4204 58.7278C30.4806 58.4602 30.5059 58.185 30.4983 57.9107C30.4947 57.7824 30.4828 57.6493 30.4189 57.5379C30.355 57.4267 30.2258 57.3434 30.1003 57.3703" fill="#F3ED99"/>
<path d="M32.8021 55.6596C32.6331 55.4698 32.4511 55.2823 32.2216 55.1732C32.19 55.1581 32.1539 55.1445 32.1212 55.1564C32.0961 55.2996 32.1388 55.4478 32.2112 55.5739C32.2835 55.6998 32.3835 55.8071 32.4827 55.9131C32.5656 56.0018 32.6485 56.0903 32.7314 56.1788C32.8043 56.2568 32.8961 56.3416 33.0013 56.3237C33.0673 56.2183 33.0606 56.0797 33.0138 55.9646C32.9669 55.8493 32.8848 55.7526 32.8021 55.6596" fill="#F3ED99"/>
<path d="M33.4727 57.2249C33.5213 57.0079 33.4112 56.7879 33.2844 56.6051C33.2484 56.5532 33.1871 56.4963 33.1315 56.5261C33.0339 56.7405 33.0378 56.9982 33.1415 57.2095C33.1655 57.2584 33.1958 57.306 33.2404 57.3368C33.2852 57.3677 33.3471 57.3787 33.3943 57.3519C33.4389 57.3266 33.4614 57.2749 33.4727 57.2249" fill="#F3ED99"/>
<path d="M30.5286 60.5652C30.76 60.5612 30.8973 60.3101 30.9756 60.0922C31.4078 58.8881 31.5487 57.5806 31.3827 56.3122C31.3015 55.691 31.1152 55.0285 30.6124 54.6554C30.7551 55.9895 30.8096 57.3329 30.7749 58.674C30.7685 58.9199 30.7591 59.1655 30.7459 59.411C30.7247 59.8043 30.6914 60.2065 30.5286 60.5652" fill="#DC7029"/>
<path d="M25.8758 10.4775C26.8799 10.3622 27.884 10.2471 28.8882 10.132C28.8447 9.25961 28.4891 8.40605 27.9006 7.76114C28.7231 7.33957 29.2334 6.37742 29.1209 5.4597C29.0084 4.54199 28.2813 3.73158 27.3812 3.52107C26.5866 3.33529 25.7444 3.5921 25.044 4.01126C24.5733 4.29317 24.1369 4.66007 23.8761 5.14283C23.6263 5.60531 23.5536 6.16058 23.6759 6.67179C23.7638 7.03961 23.9674 7.40019 24.3018 7.5763C24.7265 7.80001 25.2518 7.68193 25.712 7.81824C25.5228 8.53642 25.4038 9.273 25.3572 10.014C25.3488 10.1465 25.3483 10.295 25.4392 10.3917C25.5447 10.5041 25.7226 10.4949 25.8758 10.4775" fill="white"/>
<path d="M24.3163 6.14965C24.4234 6.24505 24.5762 6.27107 24.7197 6.26773C24.9608 6.26196 25.1998 6.18312 25.397 6.04402C25.5178 5.95885 25.6247 5.84913 25.6862 5.71469C25.7478 5.58024 25.7599 5.41919 25.6985 5.28474C25.6136 5.09878 25.4009 4.99409 25.1966 4.9926C24.9922 4.99111 24.7963 5.07684 24.6238 5.18637C24.4583 5.29144 24.3026 5.42644 24.2258 5.60682C24.149 5.78702 24.1698 6.01948 24.3163 6.14965" fill="#2E2227"/>
<path d="M28.3599 5.05115C28.2764 4.83841 28.0732 4.70229 27.9054 4.54738C27.8058 4.45533 27.7052 4.34728 27.571 4.32757C27.4491 4.30972 27.3307 4.36998 27.2223 4.42837C27.0881 4.50052 26.9522 4.57397 26.841 4.67811C26.7299 4.78243 26.6446 4.92284 26.6388 5.07514C26.6316 5.26482 26.7468 5.43832 26.8823 5.57109C27.0559 5.74106 27.2753 5.87031 27.5152 5.9075C27.755 5.94488 28.0151 5.88239 28.1922 5.71652C28.3695 5.55045 28.4484 5.27709 28.3599 5.05115" fill="#2E2227"/>
<path d="M26.3667 9.63764C26.3926 9.09445 26.4186 8.55145 26.4444 8.00845C26.3615 8.00957 26.2786 8.01067 26.1957 8.01179C26.1585 8.56149 26.1212 9.11119 26.084 9.66089C26.1782 9.65308 26.2725 9.64545 26.3667 9.63764" fill="#2E2227"/>
<path d="M26.7972 7.91778C26.8147 8.45446 26.866 8.99003 26.9508 9.5202C27.0729 9.51072 27.195 9.50123 27.3173 9.49194C27.2123 8.94112 27.1071 8.39049 27.0021 7.83986C26.9338 7.86589 26.8656 7.89174 26.7972 7.91778" fill="#2E2227"/>
<path d="M27.6883 7.98058C27.6671 7.90397 27.6452 7.82214 27.5857 7.76933C27.5262 7.7167 27.4158 7.71447 27.3799 7.78532C27.4905 8.37631 27.6537 8.95762 27.8671 9.51978C28.0155 9.43479 28.1896 9.39537 28.3601 9.4082C28.0577 8.97491 27.8296 8.48993 27.6883 7.98058Z" fill="#2E2227"/>
<path d="M26.2667 6.10577C26.0591 6.34101 25.9412 6.6538 25.9425 6.96752C25.9427 7.02275 25.9466 7.07928 25.9676 7.13042C25.9885 7.18174 26.0286 7.22749 26.0816 7.24348C26.1346 7.25929 26.1933 7.24311 26.2394 7.21243C26.2855 7.18174 26.321 7.13804 26.3546 7.09397C26.4004 7.03409 26.444 6.97161 26.5011 6.9227C26.5584 6.87361 26.632 6.83864 26.7071 6.84534C26.7784 6.85185 26.8409 6.89425 26.9084 6.91879C26.976 6.94316 27.0645 6.94316 27.1054 6.88421C27.1374 6.83809 27.1268 6.77542 27.111 6.72149C27.0314 6.45018 26.8493 6.21028 26.6093 6.06077C26.5491 6.02339 26.4788 5.99029 26.4095 6.00536C26.3517 6.01782 26.3059 6.06151 26.2667 6.10577" fill="#2E2227"/>
<path d="M26.3239 14.3302C26.3206 14.5361 26.341 14.7446 26.3005 14.9463C26.26 15.1483 26.1427 15.3502 25.9499 15.4224C25.854 15.4583 25.7423 15.4577 25.6523 15.4084C25.5404 15.3471 25.4774 15.2193 25.4615 15.0927C25.4453 14.9658 25.4693 14.8379 25.4932 14.7124C25.2945 14.717 25.0875 14.6756 24.9308 14.5536C24.7741 14.4314 24.6802 14.2168 24.7388 14.0267C24.7973 13.8369 25.0322 13.7095 25.2103 13.7975C25.3174 13.8505 25.3968 13.968 25.5159 13.975C25.5975 13.9801 25.6709 13.9302 25.7371 13.8823C26.6074 13.2541 29.1926 11.2394 30.0205 10.556C29.9648 10.4279 29.9151 10.2916 29.9254 10.1521C29.9358 10.0128 30.0209 9.87017 30.1559 9.83372C30.3033 9.79411 30.4596 9.89433 30.5347 10.0273C30.61 10.1604 30.623 10.3183 30.6343 10.4706C30.7315 10.3884 30.9103 10.4628 30.9204 10.5898C31.1287 10.6053 31.3343 10.6542 31.5273 10.7341C31.479 10.8325 31.4849 10.9472 31.4715 11.056C31.4583 11.1648 31.4135 11.2842 31.3118 11.3249C31.2241 11.3601 31.1256 11.3244 31.0379 11.2889C30.873 11.2221 30.6942 11.1542 30.5215 11.197C30.4165 11.223 30.3259 11.2876 30.2384 11.3508C29.5045 11.8811 27.0427 13.7798 26.3239 14.3302" fill="white"/>
<path d="M28.3538 14.5011C28.3807 14.7051 28.3845 14.9145 28.4478 15.1103C28.5114 15.3061 28.651 15.4934 28.8508 15.5428C28.9503 15.5676 29.0612 15.554 29.1449 15.4947C29.249 15.4208 29.2969 15.2868 29.2982 15.159C29.2997 15.0312 29.2611 14.9068 29.2229 14.785C29.4209 14.7666 29.6217 14.7017 29.7633 14.5623C29.9049 14.423 29.9735 14.1991 29.8934 14.017C29.8135 13.8352 29.5655 13.7357 29.3986 13.8435C29.2984 13.9084 29.233 14.0345 29.1155 14.0551C29.035 14.0695 28.9562 14.0284 28.885 13.9886C27.9482 13.4645 25.1485 11.761 24.2475 11.1776C24.2882 11.0439 24.3217 10.9028 24.2955 10.7653C24.2692 10.6281 24.1681 10.4962 24.03 10.4758C23.8789 10.4533 23.7352 10.5708 23.6759 10.7116C23.6164 10.8524 23.6216 11.011 23.6278 11.1635C23.5218 11.093 23.3527 11.1875 23.3573 11.3148C23.1523 11.3541 22.9536 11.4264 22.7712 11.5281C22.8305 11.6202 22.838 11.7349 22.8636 11.8415C22.8893 11.9478 22.9475 12.0615 23.0532 12.0901C23.1445 12.1148 23.2382 12.0682 23.3211 12.0228C23.4774 11.9374 23.6471 11.8493 23.8237 11.872C23.9309 11.8857 24.0282 11.9395 24.1226 11.9923C24.9126 12.4345 27.5762 14.0371 28.3538 14.5011" fill="white"/>
<path d="M19.0912 16.6273C18.5118 16.2074 17.7194 16.2022 17.0306 16.3951C16.3417 16.5879 15.7162 16.9541 15.0587 17.2364C12.8416 18.1885 10.2173 18.1407 8.036 17.1086C8.19865 17.6706 8.55684 18.174 9.03473 18.5113C8.24177 18.4272 7.44863 18.3432 6.65566 18.2591C6.44432 18.2366 6.21122 18.2195 6.03854 18.3438C5.67403 18.606 5.90768 19.1981 6.24673 19.4926C6.58558 19.7874 7.03857 20.0522 7.08597 20.4988C6.95121 20.2458 6.53706 20.2567 6.36197 20.4838C6.18687 20.7108 6.23093 21.0532 6.40008 21.2847C6.56923 21.5164 6.83634 21.6557 7.10475 21.7561C8.39048 22.2368 9.85224 21.9767 11.1012 21.4073C12.3503 20.8378 13.4421 19.9824 14.5794 19.2133C15.7164 18.4442 16.9469 17.7422 18.3053 17.5464L19.0912 16.6273" fill="#F2591D"/>
<path d="M8.55739 22.204C8.01796 22.204 7.50549 22.1169 7.03577 21.9414C6.79933 21.8531 6.45973 21.7011 6.24058 21.4017C6.03834 21.1249 5.96138 20.6795 6.20544 20.3632C6.31455 20.2218 6.48686 20.1326 6.6733 20.1162C6.57516 20.0134 6.45341 19.9157 6.32832 19.8157C6.25601 19.758 6.18444 19.7004 6.11697 19.642C5.87607 19.4326 5.64074 19.0555 5.65766 18.6856C5.66733 18.4749 5.75915 18.3012 5.92328 18.1831C6.16641 18.0085 6.47311 18.0407 6.67628 18.0626L8.44772 18.2503C8.1702 17.939 7.96294 17.5672 7.84621 17.1635C7.82464 17.0888 7.849 17.0086 7.90792 16.958C7.96703 16.9078 8.05049 16.8969 8.12057 16.93C10.2508 17.9381 12.8152 17.9844 14.981 17.0549C15.1926 16.9638 15.4061 16.8617 15.6126 16.7628C16.0478 16.5545 16.4976 16.3392 16.9772 16.2047C17.833 15.9648 18.646 16.0606 19.2072 16.4675C19.2955 16.5315 19.3152 16.6551 19.2511 16.7436C19.1875 16.8316 19.0637 16.8519 18.9752 16.7875C18.5127 16.4522 17.8233 16.3786 17.0837 16.5854C16.6372 16.7105 16.2223 16.9091 15.7833 17.1193C15.5731 17.2199 15.3558 17.324 15.1368 17.4181C13.0176 18.3276 10.5329 18.3449 8.39604 17.4819C8.57244 17.8257 8.83082 18.1253 9.14867 18.3496C9.2221 18.4017 9.25146 18.4967 9.21986 18.5809C9.18807 18.6653 9.10239 18.7189 9.01391 18.7077L6.63465 18.4556C6.44523 18.4355 6.26511 18.4242 6.15377 18.5043C6.08871 18.5512 6.05655 18.6144 6.05246 18.704C6.04336 18.9002 6.18258 19.1752 6.37627 19.3434C6.43965 19.3986 6.50731 19.4525 6.57516 19.507C6.88465 19.7547 7.23559 20.0355 7.28243 20.4781C7.29228 20.5722 7.23429 20.6601 7.14396 20.688C7.05306 20.7157 6.95603 20.6754 6.91161 20.5917C6.87796 20.5287 6.80398 20.5134 6.76253 20.5101C6.66569 20.5011 6.5681 20.54 6.51828 20.6045C6.39467 20.765 6.44746 21.0148 6.55955 21.1684C6.67851 21.3311 6.87368 21.4588 7.17388 21.571C8.26964 21.9806 9.63512 21.8587 11.0194 21.2275C11.9651 20.7963 12.8408 20.1831 13.6879 19.5901C13.9472 19.4084 14.2068 19.2266 14.4686 19.0495C15.5368 18.3271 16.8246 17.5602 18.2772 17.3508C18.3854 17.335 18.4854 17.4103 18.5008 17.5183C18.5165 17.6264 18.4415 17.7266 18.3336 17.7421C16.9601 17.9401 15.7208 18.6798 14.6899 19.3772C14.4299 19.5529 14.1721 19.7335 13.9143 19.9141C13.0529 20.5173 12.162 21.141 11.1831 21.5873C10.2851 21.9966 9.38957 22.204 8.55739 22.204" fill="#292625"/>
<path d="M34.726 16.6273C35.3052 16.2074 36.0976 16.2022 36.7864 16.3951C37.4753 16.5879 38.101 16.9541 38.7582 17.2364C40.9754 18.1885 43.5999 18.1407 45.781 17.1086C45.6185 17.6706 45.2601 18.174 44.7822 18.5113C45.5754 18.4272 46.3684 18.3432 47.1613 18.2591C47.3729 18.2366 47.6057 18.2195 47.7784 18.3438C48.1431 18.606 47.9093 19.1981 47.5704 19.4926C47.2314 19.7874 46.7784 20.0522 46.731 20.4988C46.8658 20.2458 47.2799 20.2567 47.455 20.4838C47.6303 20.7108 47.5862 21.0532 47.4169 21.2847C47.2478 21.5164 46.9808 21.6557 46.7122 21.7561C45.4265 22.2368 43.9647 21.9767 42.7158 21.4073C41.4669 20.8378 40.3748 19.9824 39.2378 19.2133C38.1008 18.4442 36.8701 17.7422 35.5117 17.5464L34.726 16.6273" fill="#F2591D"/>
<path d="M45.2596 22.204C44.4274 22.204 43.532 21.9968 42.6338 21.5871C41.6552 21.141 40.7643 20.5173 39.9027 19.9141C39.6449 19.7335 39.3873 19.5529 39.127 19.3772C38.0961 18.6798 36.8569 17.9401 35.4836 17.7421C35.3754 17.7266 35.3005 17.6264 35.3161 17.5183C35.3317 17.4103 35.4323 17.335 35.5397 17.3508C36.9926 17.5602 38.2801 18.3271 39.3486 19.0495C39.6103 19.2266 39.8698 19.4084 40.1293 19.5901C40.9762 20.1831 41.8518 20.7963 42.7976 21.2273C44.1818 21.8587 45.5475 21.9805 46.6431 21.571C46.9433 21.4588 47.1386 21.3311 47.2576 21.1682C47.3697 21.0148 47.4223 20.765 47.2987 20.6045C47.2487 20.54 47.1498 20.5011 47.0546 20.5101C47.0132 20.5134 46.939 20.5287 46.9055 20.5917C46.8611 20.6754 46.7639 20.7157 46.6732 20.688C46.5827 20.6601 46.5247 20.5722 46.5347 20.4781C46.5816 20.0355 46.9323 19.7547 47.2418 19.507C47.3098 19.4525 47.3775 19.3986 47.4409 19.3434C47.6346 19.1752 47.7738 18.9002 47.7647 18.704C47.7604 18.6144 47.7284 18.5512 47.6632 18.5043C47.5519 18.4242 47.3723 18.4355 47.1821 18.4556L44.8031 18.7077C44.7149 18.7191 44.6291 18.6653 44.5973 18.5809C44.5657 18.4967 44.5949 18.4017 44.6685 18.3496C44.9863 18.1253 45.2445 17.8257 45.4209 17.4819C43.2835 18.3451 40.7994 18.328 38.6803 17.4181C38.4612 17.324 38.2439 17.2199 38.0337 17.1193C37.5946 16.9091 37.1799 16.7105 36.7331 16.5854C35.9938 16.3788 35.3044 16.4522 34.8417 16.7875C34.7534 16.8519 34.6297 16.832 34.5659 16.7436C34.5018 16.6551 34.5217 16.5315 34.6098 16.4675C35.1711 16.0608 35.9842 15.965 36.8396 16.2047C37.3193 16.3392 37.7692 16.5545 38.2043 16.7628C38.411 16.8617 38.6244 16.9638 38.8361 17.0549C41.0018 17.9845 43.5664 17.9381 45.6966 16.93C45.7665 16.8969 45.8499 16.9078 45.909 16.958C45.9682 17.0086 45.9925 17.0888 45.9707 17.1635C45.8542 17.5672 45.6468 17.939 45.3692 18.2503L47.1405 18.0626C47.3435 18.0407 47.6507 18.0085 47.8937 18.1831C48.0578 18.3012 48.1496 18.4749 48.1595 18.6856C48.1764 19.0555 47.9409 19.4326 47.7 19.642C47.6327 19.7004 47.5609 19.758 47.4886 19.8157C47.3637 19.9157 47.2418 20.0134 47.1437 20.1162C47.3301 20.1326 47.5026 20.2218 47.6117 20.3632C47.8556 20.6795 47.7786 21.1248 47.5766 21.4016C47.3572 21.7011 47.0176 21.8531 46.7812 21.9414C46.3117 22.1169 45.799 22.204 45.2596 22.204" fill="#292625"/>
<path d="M8.01405 31.4519C5.59036 35.9979 4.32098 41.1538 4.35723 46.3058C5.02696 44.7732 5.69668 43.2403 6.36622 41.7076C6.17309 43.6598 6.19837 45.6338 6.4415 47.5804C6.51901 48.1998 6.72719 48.9431 7.33316 49.0926C8.07204 49.2751 8.63303 48.3944 8.73136 47.6394C8.8295 46.8842 8.76909 46.0185 9.30629 45.4793C9.34365 47.6165 10.3708 49.7165 12.0352 51.0573C12.1876 49.3104 12.34 47.5637 12.4924 45.8168C12.6547 46.333 12.8248 46.8641 13.1724 47.2786C13.5202 47.6933 14.0938 47.9668 14.6094 47.803C15.1388 47.6347 15.4409 47.0791 15.6015 46.547C16.3682 44.0065 15.1037 41.3309 13.7566 39.0447C12.4097 36.7585 10.8859 34.3276 11.1045 31.6829L8.01405 31.4519" fill="#F2591D"/>
<path d="M12.0352 51.255C11.991 51.255 11.9469 51.2399 11.9112 51.2111C10.3589 49.9609 9.35369 48.0898 9.14717 46.1128C9.03788 46.4241 9.00776 46.7882 8.97635 47.1654C8.96241 47.334 8.94846 47.502 8.92709 47.6647C8.86296 48.1601 8.58898 48.8027 8.12242 49.1219C7.86312 49.2996 7.57352 49.3558 7.28559 49.2846C6.71735 49.1442 6.36734 48.579 6.24559 47.605C6.04892 46.0325 5.99371 44.4397 6.07996 42.8563L4.53828 46.3851C4.5011 46.4704 4.40927 46.5184 4.31763 46.4994C4.22618 46.4808 4.16038 46.4007 4.15983 46.3073C4.12321 41.1122 5.39556 35.943 7.83988 31.3591C7.891 31.2624 8.01108 31.2265 8.10699 31.2777C8.20346 31.329 8.23971 31.4488 8.1884 31.5451C5.92643 35.7878 4.68066 40.5376 4.56337 45.3409L6.18517 41.6284C6.22402 41.5395 6.32199 41.4921 6.41623 41.5165C6.5101 41.5408 6.57236 41.6303 6.56288 41.727C6.37124 43.6639 6.39633 45.6251 6.6376 47.5559C6.73705 48.3512 6.98706 48.8035 7.38038 48.9007C7.55827 48.9444 7.73337 48.9093 7.89936 48.7955C8.21108 48.5824 8.47261 48.0963 8.53544 47.6139C8.5557 47.457 8.56927 47.2952 8.58265 47.1326C8.63637 46.4851 8.69195 45.816 9.16632 45.3396C9.22245 45.2833 9.30647 45.2662 9.38027 45.2957C9.45369 45.3255 9.50258 45.3963 9.50388 45.4757C9.53808 47.438 10.4165 49.3482 11.8716 50.6584L12.2956 45.7997C12.3038 45.7058 12.3772 45.6306 12.4711 45.6204C12.564 45.6106 12.6527 45.6675 12.6809 45.7575C12.8361 46.251 12.9966 46.7613 13.3239 47.1514C13.5958 47.4757 14.0951 47.7591 14.5494 47.6146C15.028 47.4623 15.2829 46.919 15.4123 46.49C16.1591 44.0158 14.9083 41.3885 13.5865 39.1451L13.3973 38.8247C12.0683 36.5761 10.6939 34.2508 10.9076 31.6665C10.9166 31.5579 11.0099 31.4781 11.1208 31.4858C11.2296 31.4949 11.3104 31.5905 11.3015 31.6992C11.0982 34.158 12.44 36.428 13.7375 38.6235L13.9271 38.9443C15.2924 41.2615 16.5814 43.984 15.7905 46.6043C15.6336 47.1243 15.3117 47.787 14.6691 47.9912C14.0375 48.1922 13.3867 47.8417 13.0211 47.4058C12.849 47.2003 12.7177 46.9696 12.611 46.7315L12.232 51.0744C12.2255 51.1471 12.1798 51.2104 12.1127 51.239C12.0878 51.2496 12.0614 51.255 12.0352 51.255" fill="#292625"/>
<path d="M44.9266 31.4519C47.3503 35.9979 48.6197 41.1538 48.5844 46.3058C47.9137 44.7732 47.244 43.2403 46.5745 41.7076C46.7676 43.6598 46.7423 45.6338 46.4992 47.5804C46.4217 48.1998 46.2135 48.9431 45.6075 49.0926C44.8686 49.2751 44.3077 48.3944 44.2093 47.6394C44.1112 46.8842 44.1716 46.0185 43.6344 45.4793C43.597 47.6165 42.5699 49.7165 40.9055 51.0573C40.7531 49.3104 40.6007 47.5637 40.4482 45.8168C40.286 46.333 40.1159 46.8641 39.7683 47.2786C39.4205 47.6933 38.8469 47.9668 38.3312 47.803C37.8019 47.6347 37.4998 47.0791 37.3392 46.547C36.5724 44.0065 37.837 41.3309 39.1841 39.0447C40.531 36.7585 42.0548 34.3276 41.8362 31.6829L44.9266 31.4519" fill="#F2591D"/>
<path d="M40.9055 51.255C40.8795 51.255 40.8531 51.2496 40.828 51.239C40.7609 51.2104 40.7151 51.1471 40.7088 51.0744L40.3296 46.7317C40.2229 46.9697 40.0919 47.2003 39.9196 47.4058C39.5538 47.8415 38.903 48.1922 38.2714 47.9912C37.6292 47.7872 37.307 47.1245 37.15 46.6043C36.3592 43.9836 37.6485 41.2615 39.0138 38.9443L39.2028 38.624C40.5006 36.4284 41.8425 34.1582 41.6394 31.6992C41.6304 31.5905 41.7111 31.4949 41.8198 31.4858C41.9314 31.4778 42.0243 31.5579 42.0332 31.6665C42.2466 34.251 40.8722 36.5764 39.543 38.8252L39.3543 39.1451C38.0324 41.3883 36.7817 44.0154 37.5284 46.49C37.658 46.919 37.9128 47.4625 38.3909 47.6146C38.8461 47.7586 39.3448 47.4756 39.6168 47.1514C39.9447 46.7609 40.1047 46.251 40.2598 45.7576C40.2878 45.6675 40.3767 45.6107 40.4696 45.6204C40.5635 45.6306 40.6367 45.7058 40.6449 45.7997L41.0691 50.6583C42.524 49.348 43.4026 47.438 43.437 45.4757C43.4381 45.3963 43.487 45.3255 43.5606 45.2957C43.6342 45.2662 43.7182 45.2833 43.7744 45.3396C44.2487 45.816 44.3043 46.4851 44.358 47.1325C44.3714 47.295 44.3848 47.4568 44.4052 47.6139C44.4681 48.0965 44.7298 48.5826 45.0413 48.7955C45.2077 48.9095 45.3828 48.9444 45.5601 48.9007C45.9538 48.8035 46.2036 48.3512 46.3031 47.5559C46.5442 45.6243 46.5694 43.6634 46.3778 41.727C46.3681 41.6303 46.4304 41.5408 46.5245 41.5165C46.6189 41.4921 46.7165 41.5395 46.7553 41.6284L48.3781 45.3409C48.2602 40.5376 47.0144 35.7878 44.7523 31.5451C44.7008 31.4488 44.7372 31.329 44.8335 31.2777C44.9296 31.2264 45.0493 31.2624 45.1008 31.3591C47.5449 35.943 48.8167 41.1122 48.7814 46.3073C48.7795 46.4007 48.7145 46.4809 48.6234 46.4994C48.5323 46.5186 48.4394 46.4704 48.4022 46.3851L46.8607 42.8563C46.947 44.4394 46.8918 46.0319 46.6951 47.605C46.5735 48.579 46.2235 49.1442 45.6549 49.2846C45.3672 49.3554 45.0777 49.2994 44.8183 49.122C44.3517 48.8029 44.0779 48.1603 44.0134 47.6649C43.9922 47.5018 43.9783 47.334 43.9643 47.1652C43.9329 46.7882 43.9026 46.4243 43.7935 46.113C43.5866 48.0898 42.5816 49.9609 41.0295 51.2111C40.9938 51.2399 40.9499 51.2548 40.9055 51.255" fill="#292625"/>
<path d="M37.9565 43.3799C37.7901 44.1764 37.7108 45.0082 37.895 45.8008C37.9385 45.988 37.9987 46.1764 38.1173 46.3278C38.2357 46.479 38.4225 46.5881 38.6138 46.5699C38.8385 46.5487 39.0177 46.3581 39.0965 46.1467C39.1753 45.935 39.174 45.7033 39.1762 45.4776C39.1855 44.5169 39.2755 43.557 39.445 42.6112C39.5164 42.213 39.595 41.7736 39.3863 41.4272C39.3134 41.3059 39.1805 41.1962 39.043 41.2297C38.9695 41.2475 38.9115 41.3028 38.8599 41.3582C38.3498 41.9045 38.1093 42.648 37.9565 43.3799" fill="#F79074"/>
<path d="M42.0362 36.2504C42.1444 35.8073 42.2152 35.3206 42.0154 34.9108C41.3812 36.3895 40.6971 37.8471 39.965 39.2797C39.7068 39.7851 39.4361 40.3125 39.435 40.8799C39.4347 41.112 39.5726 41.4119 39.799 41.3615C39.9295 41.3325 40.0025 41.1969 40.0587 41.0755C40.291 40.5727 40.5234 40.0698 40.7557 39.5672C41.2537 38.4896 41.7546 37.4035 42.0362 36.2504" fill="#F79074"/>
<path d="M12.4263 39.4415C12.596 39.5116 12.7874 39.3446 12.8149 39.163C12.8425 38.9815 12.7597 38.8033 12.6793 38.6382C12.1272 37.5062 11.5751 36.3743 11.0231 35.2424C10.8944 34.9785 10.7656 34.7144 10.6548 34.4426C10.4335 33.8988 10.2855 33.3253 10.2163 32.7423C10.1154 35.0698 10.8489 37.425 12.2536 39.2831C12.3014 39.3461 12.3532 39.4114 12.4263 39.4415" fill="#F79074"/>
<path d="M14.1267 46.5069C14.2232 46.6174 14.3643 46.7094 14.5085 46.6826C14.6542 46.6557 14.7514 46.5192 14.8208 46.3881C15.3171 45.4469 15.1554 44.3016 14.8899 43.2712C14.6455 42.3221 14.3204 41.3848 13.8096 40.5486C13.5884 40.1865 13.2951 39.8194 12.8793 39.7346C12.7759 39.7134 12.6601 39.7138 12.5744 39.7753C12.3932 39.9057 12.4644 40.1872 12.5575 40.3901C12.8709 41.073 13.2287 41.7394 13.4514 42.4571C13.726 43.3417 13.7867 44.2778 13.8035 45.2039C13.8118 45.6613 13.8254 46.1627 14.1267 46.5069Z" fill="#F79074"/>
<path d="M11.7489 12.3667C11.4972 12.6841 11.2822 13.0287 11.0467 13.3584C10.5388 14.0693 9.91837 14.7244 9.13693 15.115C8.48003 15.4434 7.72443 15.5706 6.99634 15.4755C6.79782 15.4497 6.5413 15.2944 6.63647 15.1181C8.82168 13.9257 10.7743 12.3086 12.3534 10.3836C12.6876 9.97633 13.0226 9.54118 13.4975 9.31338C13.5717 9.91459 13.3016 10.5102 12.9402 10.9961C12.5791 11.4822 12.125 11.8919 11.7489 12.3667" fill="#60827F"/>
<path d="M15.5565 7.72951C15.4491 7.82194 15.3321 7.91584 15.192 7.93649C15.052 7.95713 14.8866 7.8727 14.8717 7.73174C14.8635 7.65438 14.9007 7.58 14.9377 7.51138C15.2293 6.97005 15.5742 6.45735 15.9654 5.98297C16.3045 5.57218 16.7697 5.15656 17.2956 5.23987C17.3486 5.71054 17.0565 6.14587 16.7539 6.51017C16.3894 6.94885 15.9885 7.35722 15.5565 7.72951Z" fill="#60827F"/>
<path d="M17.6815 40.9843C17.6099 41.0259 17.1623 40.3903 16.6818 39.5645C16.2013 38.7388 15.8697 38.0355 15.9415 37.9938C16.013 37.952 16.4606 38.5876 16.9411 39.4135C17.4216 40.2393 17.7531 40.9424 17.6815 40.9843Z" fill="#292625"/>
<path d="M18.9984 41.1611C18.9668 41.1851 18.8691 41.1172 18.7482 40.9725C18.6306 40.8266 18.5001 40.5976 18.4142 40.3224C18.3337 40.0457 18.3159 39.7826 18.3332 39.5959C18.3538 39.4086 18.3979 39.298 18.4375 39.3006C18.4804 39.303 18.512 39.4144 18.5451 39.5851C18.5815 39.7562 18.6295 39.9864 18.7014 40.2358C18.7793 40.4835 18.8667 40.7018 18.9308 40.8645C18.9977 41.0248 19.033 41.1353 18.9984 41.1611" fill="#292625"/>
<path d="M20.0583 42.5543C19.9754 42.5534 19.9136 42.0948 19.9199 41.5301C19.9262 40.9653 19.9987 40.5082 20.0816 40.5091C20.1643 40.5101 20.2264 40.9686 20.2201 41.5334C20.2136 42.0982 20.1412 42.5552 20.0583 42.5543Z" fill="#292625"/>
<path d="M23.2955 43.9263C23.2713 43.9555 23.1449 43.8955 22.9819 43.7404C22.825 43.5814 22.6532 43.3114 22.5642 42.9765C22.4861 42.6387 22.5114 42.3198 22.5755 42.1058C22.6469 41.8923 22.7306 41.7802 22.7655 41.7945C22.8073 41.8103 22.7977 41.9442 22.7847 42.1419C22.7785 42.3427 22.7893 42.6127 22.8555 42.9039C22.9334 43.1922 23.0503 43.436 23.1497 43.6106C23.2538 43.7791 23.325 43.8929 23.2955 43.9263Z" fill="#292625"/>
<path d="M31.3593 42.9267C31.2775 42.9133 31.2886 42.423 31.3844 41.8314C31.4801 41.2397 31.6242 40.7709 31.7059 40.7841C31.7877 40.7973 31.7764 41.2877 31.6807 41.8794C31.5849 42.4711 31.4411 42.9399 31.3593 42.9267" fill="#292625"/>
<path d="M34.1622 42.4677C34.0781 42.4301 34.2757 41.8228 34.4607 41.0646C34.628 40.3023 34.7176 39.6701 34.8096 39.6732C34.8832 39.6738 34.9276 40.3371 34.7531 41.1325C34.5599 41.9234 34.2285 42.4996 34.1622 42.4677" fill="#292625"/>
<path d="M36.3851 40.6994C36.3487 40.6754 36.4364 40.4734 36.5849 40.1593C36.7297 39.8423 36.9231 39.4058 37.103 38.9102C37.2753 38.4119 37.4 37.9511 37.4872 37.6135C37.5695 37.276 37.6287 37.064 37.6722 37.0683C37.7112 37.072 37.7268 37.2937 37.6961 37.6502C37.6612 38.0055 37.5649 38.4935 37.3859 39.0105C37.1993 39.525 36.9669 39.9644 36.7703 40.2625C36.5695 40.5588 36.4178 40.7211 36.3851 40.6994" fill="#292625"/>
<path d="M18.7771 48.8026C18.7027 48.8392 18.4494 48.4762 18.2112 47.992C17.9733 47.5075 17.8406 47.0852 17.9149 47.0486C17.9893 47.0121 18.2426 47.3751 18.4806 47.8594C18.7187 48.3438 18.8514 48.7661 18.7771 48.8026" fill="#292625"/>
<path d="M20.4864 49.0637C20.4145 49.1048 20.1898 48.8467 19.9845 48.4872C19.7791 48.1278 19.671 47.8031 19.7429 47.762C19.815 47.7209 20.0397 47.9788 20.245 48.3383C20.4504 48.6977 20.5585 49.0226 20.4864 49.0637Z" fill="#292625"/>
<path d="M20.397 53.0566C20.36 53.1208 19.855 52.8878 19.365 52.4177C18.8876 51.9343 18.6473 51.4326 18.7109 51.3947C18.7882 51.3454 19.1258 51.7484 19.5756 52.2036C20.0373 52.6468 20.4451 52.9785 20.397 53.0566Z" fill="#292625"/>
<path d="M32.4738 54.2681C32.4456 54.2341 32.6132 54.0461 32.8828 53.7519C33.1486 53.4531 33.5036 53.0347 33.8549 52.5411C34.1977 52.0415 34.4687 51.5643 34.6581 51.2119C34.8417 50.8576 34.9607 50.6356 35.0023 50.6505C35.0388 50.6631 34.9899 50.9127 34.8516 51.2991C34.7077 51.6827 34.4564 52.1954 34.1008 52.7131C33.7369 53.2249 33.3419 53.637 33.0311 53.9039C32.7158 54.1666 32.4982 54.2981 32.4738 54.2681Z" fill="#292625"/>
<path d="M30.3767 53.8352C30.3111 53.7848 30.473 53.4629 30.7386 53.1163C31.0042 52.7696 31.2728 52.5295 31.3386 52.5799C31.4043 52.6305 31.2424 52.9524 30.9767 53.2989C30.7111 53.6455 30.4425 53.8856 30.3767 53.8352Z" fill="#292625"/>
<path d="M33.9726 47.7649C33.8934 47.7405 33.9124 47.4503 34.015 47.1165C34.1174 46.7825 34.2648 46.5316 34.344 46.556C34.4232 46.5803 34.4044 46.8708 34.3018 47.2046C34.1992 47.5384 34.052 47.7893 33.9726 47.7649" fill="#292625"/>
<path d="M36.0091 34.0039C36.0266 34.0357 35.8396 34.1884 35.4791 34.3282C35.2998 34.3994 35.0762 34.4578 34.823 34.4969C34.5695 34.5309 34.2862 34.5424 33.9914 34.5149C33.6967 34.484 33.4213 34.4171 33.1793 34.3338C32.9387 34.2458 32.7311 34.1445 32.5692 34.0394C32.2432 33.8313 32.0898 33.645 32.1132 33.6173C32.1419 33.581 32.3383 33.7037 32.6694 33.8521C32.8341 33.928 33.0363 34.0024 33.2638 34.0705C33.493 34.1335 33.7486 34.1874 34.0209 34.2163C34.2936 34.2414 34.5548 34.2389 34.7918 34.222C35.0284 34.2001 35.2412 34.1668 35.4176 34.1249C35.7714 34.0444 35.9881 33.9626 36.0091 34.0039" fill="#292625"/>
<path d="M35.0782 36.6049C35.0839 36.6438 34.9759 36.6969 34.7869 36.7291C34.5982 36.757 34.3287 36.7483 34.0462 36.667C33.7659 36.579 33.5361 36.4375 33.3941 36.3105C33.2541 36.1794 33.1934 36.0753 33.2196 36.0461C33.2484 36.0135 33.3562 36.058 33.512 36.1339C33.6711 36.2067 33.8858 36.3014 34.1326 36.3795C34.3817 36.4505 34.6129 36.49 34.7858 36.5169C34.9575 36.5394 35.0722 36.5617 35.0782 36.6049" fill="#292625"/>
<path d="M18.3596 33.6771C18.3683 33.7102 18.0555 33.8374 17.5159 33.8895C17.3813 33.9016 17.2331 33.912 17.074 33.9064C16.9142 33.9098 16.7449 33.8912 16.5662 33.8748C16.2106 33.8287 15.8231 33.743 15.4327 33.602C15.0442 33.4562 14.6937 33.2699 14.3931 33.0742C14.2464 32.9707 14.1055 32.8751 13.9862 32.7689C13.8613 32.6698 13.7553 32.5658 13.6607 32.4693C13.2838 32.0795 13.128 31.7798 13.1561 31.7602C13.1945 31.7309 13.4081 31.98 13.8048 32.3133C13.9044 32.396 14.0133 32.4862 14.1388 32.5723C14.2589 32.6653 14.3983 32.7484 14.5412 32.8407C14.8346 33.0136 15.169 33.1821 15.5364 33.3201C15.9058 33.4534 16.2695 33.5423 16.6049 33.6009C16.7735 33.6234 16.9335 33.6507 17.0852 33.6576C17.2365 33.6736 17.3778 33.6756 17.5073 33.6773C18.0254 33.681 18.3494 33.6299 18.3596 33.6771" fill="#292625"/>
<path d="M17.0467 34.9244C17.0534 34.9625 16.8669 35.0313 16.5511 35.0837C16.2355 35.1306 15.7892 35.1429 15.3044 35.0696C14.8209 34.9872 14.4009 34.8358 14.1159 34.6925C13.8324 34.5437 13.6769 34.4198 13.6953 34.3856C13.7155 34.3466 13.9033 34.402 14.1951 34.4953C14.4895 34.5839 14.8947 34.6949 15.352 34.7732C15.8106 34.8422 16.2303 34.8637 16.5376 34.8719C16.8439 34.8745 17.0396 34.8808 17.0467 34.9244" fill="#292625"/>
</g>
<defs>
<clipPath id="clip0_119_4262">
<rect width="52" height="65" fill="white"/>
</clipPath>
</defs>
</svg>
