<svg width="21" height="22" viewBox="0 0 21 22" fill="none" xmlns="http://www.w3.org/2000/svg">
<path d="M20.25 11.0005C20.25 16.5234 15.773 21.0005 10.2497 21.0005C4.72706 21.0005 0.25 16.5234 0.25 11.0005C0.25 5.47783 4.72706 1.00023 10.2497 1.00023C15.773 1.00023 20.25 5.47783 20.25 11.0005Z" fill="#FAB80A"/>
<path d="M18.1605 10.9999C18.1605 15.3682 14.619 18.9097 10.2504 18.9097C5.88179 18.9097 2.34033 15.3682 2.34033 10.9999C2.34033 6.63122 5.88179 3.08977 10.2504 3.08977C14.619 3.08977 18.1605 6.63122 18.1605 10.9999Z" fill="#F79011"/>
<path d="M9.4176 14.8139C9.27953 14.8139 9.16748 14.9259 9.16748 15.064V16.141C9.16748 16.2791 9.27953 16.3911 9.4176 16.3911C9.55566 16.3911 9.66771 16.2791 9.66771 16.141V15.064C9.66771 14.9259 9.55566 14.8139 9.4176 14.8139Z" fill="#F79011"/>
<path d="M11.0831 14.8139C10.9451 14.8139 10.833 14.9259 10.833 15.064V16.141C10.833 16.2791 10.9451 16.3911 11.0831 16.3911C11.2212 16.3911 11.3332 16.2791 11.3332 16.141V15.064C11.3332 14.9259 11.2212 14.8139 11.0831 14.8139Z" fill="#F79011"/>
<path d="M10.9027 13.6279H9.59814V13.0772C9.59814 12.717 9.89028 12.4249 10.2504 12.4249C10.6106 12.4249 10.9027 12.717 10.9027 13.0772V13.6279Z" fill="#F79011"/>
<path d="M3.36561 3.74821C3.24452 3.86276 3.12616 3.98058 3.01107 4.10112C3.01107 4.10167 3.01161 4.10221 3.01161 4.10221L3.68743 4.77748C3.73597 4.82657 3.79979 4.85111 3.86416 4.85111C3.92798 4.85111 3.99234 4.82657 4.04143 4.77748C4.13852 4.67984 4.13852 4.52166 4.04143 4.42403L3.36561 3.74821ZM3.68743 17.1958L3.01161 17.8711C3.00725 17.876 3.00343 17.8815 2.99907 17.8866C3.11252 18.0066 3.2298 18.1237 3.34925 18.2382C3.3547 18.2332 3.36016 18.2297 3.36561 18.2247L4.04143 17.5494C4.13852 17.4513 4.13852 17.2933 4.04143 17.1958C3.94325 17.0977 3.78507 17.0977 3.68743 17.1958ZM10.2497 19.7674C10.1117 19.7674 9.99993 19.8795 9.99993 20.0175V20.9724C9.99993 20.981 10.0016 20.989 10.0021 20.9975C10.0845 20.9994 10.1668 21.0005 10.2497 21.0005C10.3327 21.0005 10.415 20.9994 10.4974 20.9975C10.4985 20.989 10.5001 20.981 10.5001 20.9724V20.0175C10.5001 19.8795 10.3883 19.7674 10.2497 19.7674ZM16.8126 17.1958C16.715 17.0977 16.5562 17.0977 16.4586 17.1958C16.3615 17.2933 16.3615 17.4513 16.4586 17.5494L17.1339 18.2247C17.1399 18.2297 17.1453 18.2332 17.1508 18.2382C17.2702 18.1237 17.387 18.0066 17.501 17.8866C17.4961 17.8815 17.4928 17.876 17.4879 17.8711L16.8126 17.1958ZM20.2468 10.7376C20.2429 10.7376 20.2397 10.7365 20.2359 10.7365H19.2813C19.1428 10.7365 19.031 10.8483 19.031 10.9863C19.031 11.1249 19.1428 11.2367 19.2813 11.2367H20.2359C20.2402 11.2367 20.2435 11.2356 20.2468 11.2356C20.2489 11.1576 20.25 11.0791 20.25 11.0005C20.25 10.9127 20.2489 10.8249 20.2468 10.7376ZM1.21872 10.7365H0.264185C0.260367 10.7365 0.257094 10.7376 0.253276 10.7376C0.251094 10.8249 0.25 10.9127 0.25 11.0005C0.25 11.0791 0.251091 11.1576 0.252727 11.2356C0.256545 11.2356 0.259821 11.2367 0.264185 11.2367H1.21872C1.35672 11.2367 1.46908 11.1249 1.46908 10.9863C1.46908 10.8483 1.35672 10.7365 1.21872 10.7365ZM9.99993 1.0035V1.95586C9.99993 2.09386 10.1117 2.20568 10.2497 2.20568C10.3883 2.20568 10.5001 2.09386 10.5001 1.95586V1.0035C10.4172 1.00187 10.3337 1.00023 10.2497 1.00023C10.1663 1.00023 10.0828 1.00187 9.99993 1.0035ZM16.6359 4.85111C16.6997 4.85111 16.7641 4.82657 16.8126 4.77748L17.4879 4.10221C17.4884 4.10167 17.4884 4.10167 17.489 4.10112C17.3739 3.98058 17.2555 3.86276 17.1344 3.74821C17.1344 3.74821 17.1344 3.74821 17.1339 3.74821L16.4586 4.42403C16.3615 4.52166 16.3615 4.67984 16.4586 4.77748C16.5077 4.82657 16.5721 4.85111 16.6359 4.85111Z" fill="#F79011"/>
<path d="M19.7266 14.2737C19.5948 14.2274 19.4475 14.291 19.3988 14.4156C19.3512 14.5367 19.3002 14.6586 19.2476 14.7781C19.1928 14.9007 19.2542 15.0417 19.3838 15.093C19.4159 15.1058 19.4497 15.1118 19.4824 15.1118C19.5821 15.1118 19.6768 15.0562 19.7172 14.9641C19.7737 14.8384 19.8268 14.7102 19.8772 14.5829C19.926 14.4584 19.8584 14.3199 19.7266 14.2737Z" fill="#3A1F16"/>
<path d="M17.4932 3.7535C17.491 3.75186 17.4899 3.74967 17.4888 3.74803C17.4861 3.74584 17.4839 3.7442 17.4811 3.74201C15.6263 1.89375 13.0697 0.75 10.2505 0.75C7.43081 0.75 4.8742 1.89375 3.01936 3.74201C3.01718 3.7442 3.01444 3.74584 3.01225 3.74803C3.01061 3.74967 3.00898 3.75186 3.00733 3.7535C1.15086 5.60997 0 8.17315 0 11C0 16.6519 4.59797 21.25 10.2505 21.25C13.696 21.25 16.8915 19.5337 18.7983 16.6587C18.8749 16.5436 18.8431 16.3884 18.7283 16.3121C18.6134 16.2356 18.4575 16.2671 18.3815 16.3822C18.0653 16.859 17.7114 17.3011 17.3258 17.7078L16.8127 17.1951C16.7154 17.0971 16.5573 17.0971 16.4594 17.1951C16.3615 17.2927 16.3615 17.4507 16.4594 17.5488L16.973 18.0625C15.2385 19.7153 12.9428 20.6837 10.5005 20.7457V20.0169C10.5005 19.8789 10.3884 19.7668 10.2505 19.7668C10.1121 19.7668 10 19.8789 10 20.0169V20.7467C7.49699 20.6832 5.22482 19.6718 3.53135 18.0585L4.04168 17.5488C4.13905 17.4507 4.13905 17.2927 4.04168 17.1951C3.94323 17.0971 3.78515 17.0971 3.68778 17.1951L3.17799 17.7044C1.56985 16.0089 0.562849 13.7377 0.503227 11.2363H1.21923C1.35708 11.2363 1.46921 11.1241 1.46921 10.9858C1.46921 10.8479 1.35708 10.7358 1.21923 10.7358H0.503778C0.571057 8.23824 1.58134 5.97153 3.19166 4.28079L3.68778 4.77691C3.73646 4.82559 3.80046 4.85021 3.86446 4.85021C3.92846 4.85021 3.99246 4.82559 4.04168 4.77691C4.13905 4.67954 4.13905 4.52092 4.04168 4.42301L3.54557 3.92744C5.23794 2.32258 7.50411 1.31613 10 1.25323V1.95501C10 2.09285 10.1121 2.20498 10.2505 2.20498C10.3884 2.20498 10.5005 2.09285 10.5005 1.95501V1.25323C12.9964 1.31613 15.2626 2.32258 16.9549 3.92744L16.4594 4.42301C16.3615 4.52092 16.3615 4.67954 16.4594 4.77691C16.508 4.82559 16.572 4.85021 16.636 4.85021C16.7 4.85021 16.764 4.82559 16.8127 4.77691L17.3088 4.28079C18.9192 5.97153 19.93 8.23824 19.9967 10.7358H19.2813C19.1429 10.7358 19.0313 10.8479 19.0313 10.9858C19.0313 11.1241 19.1429 11.2363 19.2813 11.2363H19.9973C19.9847 11.7712 19.9284 12.3056 19.8293 12.8272C19.8036 12.9628 19.8928 13.0938 20.0285 13.1194C20.1641 13.1451 20.2948 13.056 20.3211 12.9203C20.4398 12.2915 20.5005 11.6454 20.5005 11C20.5005 8.17315 19.3502 5.60997 17.4932 3.7535Z" fill="#3A1F16"/>
<path d="M10.2498 18.66C6.02611 18.66 2.58982 15.2237 2.58982 10.9998C2.58982 6.77618 6.02611 3.34042 10.2498 3.34042C14.4734 3.34042 17.9102 6.77618 17.9102 10.9998C17.9102 15.2237 14.4734 18.66 10.2498 18.66ZM10.2498 2.83991C5.75048 2.83991 2.08984 6.50055 2.08984 10.9998C2.08984 15.4996 5.75048 19.1602 10.2498 19.1602C14.7496 19.1602 18.4102 15.4996 18.4102 10.9998C18.4102 6.50055 14.7496 2.83991 10.2498 2.83991Z" fill="#3A1F16"/>
<path d="M20.2463 11.0656C20.2463 16.5483 15.7688 20.9958 10.2419 20.9958C4.71498 20.9958 0.237493 16.5483 0.237493 11.0656C0.237493 5.58295 4.71498 1.13544 10.2419 1.13544C15.7688 1.13544 20.2463 5.58295 20.2463 11.0656Z" stroke="#3A1F16" stroke-width="0.474986"/>
<path d="M8.32294 9.60291C8.52475 9.60291 8.7183 9.52274 8.861 9.38004C9.0037 9.23734 9.08387 9.04379 9.08387 8.84198C9.08387 8.64017 9.0037 8.44663 8.861 8.30393C8.7183 8.16122 8.52475 8.08105 8.32294 8.08105C8.12113 8.08105 7.92758 8.16122 7.78488 8.30393C7.64218 8.44663 7.56201 8.64017 7.56201 8.84198C7.56201 9.04379 7.64218 9.23734 7.78488 9.38004C7.92758 9.52274 8.12113 9.60291 8.32294 9.60291ZM13.0844 8.84198C13.0844 9.04379 13.0042 9.23734 12.8615 9.38004C12.7188 9.52274 12.5253 9.60291 12.3235 9.60291C12.1217 9.60291 11.9281 9.52274 11.7854 9.38004C11.6427 9.23734 11.5625 9.04379 11.5625 8.84198C11.5625 8.64017 11.6427 8.44663 11.7854 8.30393C11.9281 8.16122 12.1217 8.08105 12.3235 8.08105C12.5253 8.08105 12.7188 8.16122 12.8615 8.30393C13.0042 8.44663 13.0844 8.64017 13.0844 8.84198Z" fill="#F79011"/>
<path d="M14.5634 5.74819V5.9458C14.5634 6.38039 14.4208 6.77625 14.1826 7.09832C14.4887 7.5041 14.6726 8.00794 14.6726 8.55255C14.6726 9.12394 14.5581 9.59142 14.3398 9.96893C14.5375 10.4682 14.6462 11.0122 14.6462 11.5812C14.6462 13.1237 13.8485 14.4797 12.6444 15.2593C12.7892 15.5358 12.8871 15.841 12.927 16.1639C12.927 16.1639 12.927 16.1639 12.927 16.1639L12.7309 16.1882C12.7659 16.4711 12.5316 16.6817 12.2788 16.6817H8.31222C8.05946 16.6817 7.82515 16.4711 7.86018 16.1882L14.5634 5.74819ZM14.5634 5.74819H14.3658M14.5634 5.74819H14.3658M8.24931 16.2797C8.24343 16.2739 8.239 16.2668 8.23638 16.2589C8.23376 16.2511 8.23303 16.2427 8.23424 16.2345L8.24931 16.2797ZM8.24931 16.2797C8.25756 16.288 8.26739 16.2944 8.2782 16.2988L8.24931 16.2797ZM14.3658 5.74819H12.2374C11.8055 5.74819 11.4071 5.89055 11.0854 6.12865H9.50188C9.18017 5.89055 8.78183 5.74819 8.34989 5.74819H6.22532H6.02754M14.3658 5.74819H6.02754M6.02754 5.74819L6.0277 5.94596M6.02754 5.74819L6.0277 5.94596M6.0277 5.94596C6.02804 6.36241 6.16231 6.76613 6.4083 7.09852C6.10226 7.50427 5.91846 8.00803 5.91846 8.55255C5.91846 9.09428 6.02136 9.54278 6.2187 9.90986M6.0277 5.94596L6.2187 9.90986M7.1088 10.7893C7.16718 10.8223 7.22726 10.8534 7.28893 10.8826L7.1088 10.7893ZM7.1088 10.7893C7.12605 10.7239 7.14561 10.6591 7.16744 10.595L7.1088 10.7893ZM6.2187 9.90986C6.00558 10.4252 5.88834 10.9897 5.88833 11.5811L6.2187 9.90986ZM6.48136 13.7832C6.8372 14.3953 7.33569 14.911 7.93317 15.2873L5.88833 11.5812C5.88799 12.3547 6.09261 13.1145 6.48136 13.7832ZM12.1361 16.1074H8.45524C8.48935 15.9427 8.5452 15.7858 8.61979 15.6396C8.86248 15.7383 9.11572 15.8156 9.37747 15.8699C9.65855 15.9785 9.9559 16.0393 10.2635 16.0393L10.2643 16.0393C10.5645 16.0381 10.8618 15.9817 11.1415 15.873C11.4257 15.8153 11.7003 15.7301 11.9619 15.6202C12.0422 15.7737 12.1008 15.9377 12.1361 16.1074ZM9.05747 9.57655C8.86281 9.7712 8.5988 9.88056 8.32352 9.88056C8.04824 9.88056 7.78423 9.7712 7.58958 9.57655C7.39492 9.3819 7.28557 9.11789 7.28557 8.8426C7.28557 8.56732 7.39492 8.30331 7.58958 8.10866C7.78423 7.914 8.04824 7.80465 8.32352 7.80465C8.5988 7.80465 8.86281 7.914 9.05747 8.10866C9.25212 8.30331 9.36148 8.56732 9.36148 8.8426C9.36148 9.11789 9.25212 9.3819 9.05747 9.57655ZM13.058 9.57655C12.8633 9.7712 12.5993 9.88056 12.324 9.88056C12.0488 9.88056 11.7848 9.7712 11.5901 9.57655C11.3954 9.3819 11.2861 9.11789 11.2861 8.8426C11.2861 8.56732 11.3954 8.30331 11.5901 8.10866C11.7848 7.914 12.0488 7.80465 12.324 7.80465C12.5993 7.80465 12.8633 7.914 13.058 8.10866C13.2527 8.30331 13.362 8.56732 13.362 8.8426C13.362 9.11789 13.2527 9.3819 13.058 9.57655ZM10.3264 9.52616C10.4699 9.52823 10.5933 9.60485 10.6603 9.71858H9.9915C10.0593 9.60388 10.1841 9.52657 10.3264 9.52616Z" fill="#FCF3C5" stroke="#3A1F16" stroke-width="0.395224"/>
<path d="M11.726 15.9644L11.9486 15.8159L8.83154 15.9644L8.68311 15.8159" stroke="#3A1F16" stroke-width="0.148433"/>
</svg>
