<svg width="375" height="285" viewBox="0 0 375 285" fill="none" xmlns="http://www.w3.org/2000/svg">
<ellipse cx="187.5" cy="54" rx="215.5" ry="191" fill="#FF8619"/>
<ellipse cx="186" cy="217.5" rx="66" ry="67.5" fill="white"/>
<g clip-path="url(#clip0_2_4)">
<path d="M222.809 260.579C222.809 262.62 209.874 264.274 193.918 264.274C177.962 264.274 165.028 262.62 165.028 260.579C165.028 258.539 177.962 256.885 193.918 256.885C209.874 256.885 222.809 258.539 222.809 260.579Z" fill="#60827F"/>
<path d="M217.557 184.787C216.021 180.81 214.478 176.815 212.405 173.139C210.332 169.464 207.691 166.091 204.34 163.796C202.653 162.641 200.84 161.79 198.952 161.142C196.071 160.153 193.039 159.708 190.001 159.708H185.855C182.817 159.708 179.785 160.153 176.904 161.142C175.016 161.79 173.203 162.641 171.516 163.796C168.165 166.091 165.524 169.464 163.451 173.139C161.378 176.815 159.835 180.81 158.299 184.787C157.485 186.895 156.698 189.431 157.848 191.345C162.313 187.942 168.097 187.615 173.541 187.407C178.083 187.233 182.686 187.069 187.141 187.967C187.135 188.088 187.13 188.21 187.124 188.332C187.392 188.261 187.66 188.197 187.928 188.135C188.196 188.197 188.464 188.261 188.732 188.332C188.726 188.21 188.721 188.088 188.715 187.967C193.17 187.069 197.773 187.233 202.316 187.407C207.759 187.615 213.543 187.942 218.008 191.345C219.158 189.431 218.371 186.895 217.557 184.787" fill="#D34B20"/>
<path d="M196.883 186.957C198.748 186.957 200.649 187.03 202.327 187.094C207.207 187.281 213.257 187.513 217.908 190.884C218.717 189.188 218.088 187.012 217.273 184.902C215.766 180.998 214.208 176.96 212.141 173.296C209.836 169.208 207.154 166.099 204.171 164.057C202.608 162.986 200.869 162.13 198.855 161.439C196.114 160.498 193.135 160.02 190.001 160.02H185.855C182.721 160.02 179.742 160.498 177 161.439C174.987 162.13 173.248 162.986 171.685 164.057C168.702 166.099 166.02 169.208 163.715 173.296C161.648 176.96 160.09 180.998 158.583 184.902C157.768 187.012 157.139 189.188 157.948 190.884C162.599 187.513 168.649 187.281 173.529 187.094C175.207 187.03 177.108 186.957 178.973 186.957C182.209 186.957 184.823 187.18 187.2 187.659C187.331 187.686 187.429 187.796 187.444 187.929C187.583 187.895 187.722 187.862 187.861 187.83C187.905 187.819 187.951 187.819 187.995 187.83C188.134 187.862 188.273 187.895 188.412 187.929C188.428 187.796 188.525 187.686 188.656 187.659C191.033 187.18 193.647 186.957 196.883 186.957V186.957ZM218.008 191.657C217.943 191.657 217.879 191.636 217.826 191.596C213.292 188.14 207.2 187.907 202.304 187.72C200.632 187.656 198.736 187.583 196.883 187.583C193.805 187.583 191.301 187.787 189.031 188.223L189.033 188.257C189.039 188.281 189.042 188.306 189.042 188.332C189.042 188.505 188.905 188.64 188.734 188.645C188.71 188.652 188.682 188.642 188.656 188.635C188.414 188.571 188.171 188.513 187.928 188.456C187.685 188.513 187.442 188.571 187.2 188.635C187.106 188.66 187.007 188.637 186.932 188.574C186.857 188.511 186.815 188.416 186.82 188.316L186.825 188.223C184.555 187.787 182.051 187.583 178.973 187.583C177.119 187.583 175.224 187.656 173.552 187.72C168.656 187.907 162.564 188.14 158.029 191.596C157.961 191.648 157.874 191.669 157.791 191.652C157.707 191.635 157.634 191.583 157.589 191.509C156.405 189.539 157.095 187.058 158.016 184.671C159.532 180.746 161.099 176.687 163.187 172.982C165.54 168.81 168.285 165.632 171.347 163.536C172.956 162.434 174.742 161.554 176.807 160.845C179.612 159.883 182.656 159.395 185.855 159.395H190.001C193.2 159.395 196.244 159.883 199.049 160.845C201.114 161.554 202.901 162.434 204.509 163.536C207.57 165.632 210.316 168.81 212.669 172.982C214.757 176.687 216.325 180.746 217.84 184.671C218.761 187.059 219.451 189.54 218.267 191.509C218.222 191.583 218.149 191.635 218.065 191.652C218.046 191.656 218.027 191.657 218.008 191.657" fill="#292625"/>
<path d="M204.973 177.722C195.986 174.77 186.518 173.679 177.185 174.518C171.08 175.068 164.597 176.7 160.447 181.762C158.73 183.856 157.488 186.955 158.587 189.522C159.393 191.402 161.274 192.455 163.12 192.678C164.966 192.901 166.815 192.434 168.634 192.015C180.036 189.388 191.693 188.539 203.308 187.695C206.512 187.463 209.801 187.24 212.87 188.302C213.991 188.689 215.384 189.175 216.195 188.223C217.04 187.232 216.451 185.578 215.685 184.51C213.07 180.867 208.971 179.035 204.973 177.722Z" fill="#D83E30"/>
<path d="M218.4 200.407C219.554 200.744 220.625 199.695 220.378 198.488C219.834 195.835 220.168 192.837 219.377 190.192C218.41 186.956 215.818 184.491 213.019 182.707C205.507 177.921 196.308 177.101 187.472 176.666C187.471 176.661 187.471 176.656 187.47 176.652C187.423 176.654 187.374 176.656 187.327 176.659C187.278 176.656 187.23 176.654 187.182 176.652C187.182 176.656 187.182 176.661 187.181 176.666C178.345 177.101 169.145 177.921 161.634 182.707C158.834 184.491 156.243 186.956 155.276 190.192C154.485 192.837 154.818 195.835 154.275 198.488C154.028 199.695 155.099 200.744 156.253 200.407C165.727 197.643 175.591 196.299 185.438 196.42C185.435 196.458 185.431 196.495 185.428 196.533C186.061 196.501 186.693 196.479 187.327 196.459C187.959 196.479 188.592 196.501 189.225 196.533C189.221 196.495 189.218 196.458 189.215 196.42C199.062 196.299 208.926 197.643 218.4 200.407" fill="#F68A14"/>
<path d="M190.436 196.099C199.934 196.099 209.37 197.447 218.483 200.106C218.979 200.251 219.5 200.077 219.821 199.67C220.067 199.359 220.161 198.951 220.08 198.552C219.836 197.364 219.765 196.096 219.696 194.869C219.608 193.326 219.518 191.731 219.086 190.284C218.267 187.544 216.171 185.084 212.858 182.973C205.412 178.228 196.227 177.41 187.457 176.978C187.436 176.977 187.415 176.974 187.394 176.969L187.341 176.971L187.257 176.968C187.237 176.974 187.216 176.977 187.196 176.978C178.426 177.41 169.241 178.228 161.795 182.973C158.481 185.084 156.386 187.544 155.567 190.284C155.135 191.731 155.045 193.326 154.957 194.869C154.888 196.095 154.816 197.364 154.573 198.552C154.491 198.951 154.586 199.359 154.832 199.67C155.153 200.077 155.674 200.251 156.17 200.106C165.675 197.333 175.539 195.98 185.442 196.107C185.526 196.108 185.606 196.145 185.663 196.208C186.214 196.183 186.766 196.163 187.317 196.146C187.885 196.163 188.439 196.183 188.99 196.208C189.047 196.145 189.127 196.108 189.211 196.107C189.619 196.102 190.028 196.099 190.436 196.099ZM218.839 200.783C218.665 200.783 218.489 200.758 218.316 200.708C208.946 197.974 199.229 196.635 189.462 196.73C189.456 196.737 189.451 196.743 189.445 196.749C189.384 196.815 189.3 196.85 189.21 196.845C188.579 196.814 187.948 196.792 187.317 196.772C186.705 196.792 186.074 196.814 185.443 196.845C185.354 196.849 185.269 196.815 185.208 196.749C185.202 196.743 185.197 196.737 185.191 196.73C184.867 196.727 184.542 196.725 184.217 196.725C174.775 196.725 165.395 198.065 156.337 200.708C155.609 200.92 154.832 200.663 154.359 200.065C153.997 199.606 153.857 199.008 153.977 198.424C154.211 197.281 154.281 196.036 154.349 194.833C154.438 193.253 154.531 191.619 154.985 190.1C155.848 187.211 158.031 184.634 161.474 182.441C169.02 177.633 178.259 176.794 187.084 176.357C187.119 176.344 187.158 176.337 187.196 176.339L187.341 176.346L187.456 176.339C187.498 176.337 187.539 176.344 187.576 176.358C196.398 176.795 205.635 177.634 213.179 182.441C216.622 184.634 218.805 187.211 219.668 190.1C220.122 191.62 220.215 193.253 220.304 194.833C220.372 196.036 220.442 197.281 220.676 198.424C220.796 199.008 220.656 199.606 220.294 200.065C219.933 200.522 219.403 200.783 218.839 200.783" fill="#292625"/>
<path d="M206.466 188.42C196.63 185.468 186.268 184.377 176.053 185.216C169.373 185.766 162.277 187.398 157.735 192.46C155.856 194.554 154.497 197.653 155.7 200.22C156.581 202.1 158.64 203.153 160.661 203.376C162.681 203.599 164.705 203.132 166.695 202.713C179.173 200.086 191.932 199.237 204.643 198.393C208.15 198.161 211.749 197.938 215.108 199C216.335 199.387 217.859 199.873 218.747 198.921C219.672 197.93 219.028 196.276 218.189 195.208C215.326 191.565 210.841 189.733 206.466 188.42" fill="#D83E30"/>
<path d="M221.126 211.231C219.509 206.637 217.181 202.225 214.222 198.144C212.287 195.476 210.023 192.9 206.985 191.129C204.688 189.791 202.032 188.964 199.341 188.362C195.864 187.584 192.276 187.166 188.682 187.111C188.509 187.107 188.337 187.104 188.165 187.102C188.148 187.102 188.132 187.101 188.116 187.101C188.053 187.101 187.991 187.101 187.928 187.101C187.865 187.101 187.803 187.101 187.74 187.101C187.724 187.101 187.708 187.102 187.691 187.102C187.519 187.104 187.347 187.107 187.174 187.111C183.58 187.166 179.993 187.584 176.515 188.362C173.824 188.964 171.168 189.791 168.871 191.129C165.833 192.9 163.569 195.476 161.634 198.144C158.675 202.225 156.347 206.637 154.73 211.231C153.613 214.403 152.902 218.043 154.949 220.858C156.962 223.626 160.997 224.718 164.732 225.41C170.9 226.553 177.178 227.179 183.462 227.722C184.807 228.174 186.397 228.187 187.928 228.091C189.459 228.187 191.049 228.174 192.394 227.722C198.678 227.179 204.956 226.553 211.125 225.41C214.859 224.718 218.895 223.626 220.907 220.858C222.954 218.043 222.243 214.403 221.126 211.231Z" fill="#2E2227"/>
<path d="M187.928 227.779C187.934 227.779 187.94 227.779 187.946 227.779C188.457 227.811 188.907 227.826 189.323 227.826C190.523 227.826 191.496 227.695 192.299 227.425C192.322 227.417 192.345 227.412 192.368 227.41C198.036 226.92 204.622 226.297 211.07 225.103C214.711 224.428 218.697 223.374 220.663 220.671C222.754 217.794 221.766 213.967 220.84 211.337C219.231 206.767 216.922 202.391 213.978 198.331C212.359 196.1 210.085 193.296 206.834 191.402C204.851 190.246 202.45 189.377 199.276 188.667C195.834 187.897 192.268 187.479 188.677 187.424C188.503 187.419 188.332 187.416 188.162 187.415C188.162 187.415 188.134 187.414 188.132 187.414L187.742 187.414L187.691 187.415C187.524 187.416 187.353 187.419 187.183 187.424C183.588 187.479 180.022 187.897 176.58 188.667C173.406 189.377 171.005 190.246 169.022 191.402C165.771 193.296 163.497 196.1 161.879 198.331C158.934 202.391 156.625 206.767 155.016 211.337C154.09 213.967 153.102 217.794 155.193 220.671C157.159 223.374 161.145 224.428 164.786 225.103C171.234 226.297 177.82 226.92 183.488 227.41C183.511 227.412 183.534 227.417 183.557 227.425C184.36 227.695 185.333 227.826 186.533 227.826C186.949 227.826 187.4 227.811 187.91 227.779C187.916 227.779 187.922 227.779 187.928 227.779ZM189.323 228.452C188.899 228.452 188.443 228.437 187.928 228.405C187.413 228.437 186.956 228.452 186.533 228.452C185.285 228.452 184.26 228.314 183.401 228.031C177.728 227.54 171.138 226.916 164.678 225.718C160.92 225.022 156.797 223.923 154.705 221.045C152.438 217.927 153.47 213.89 154.443 211.124C156.072 206.497 158.41 202.067 161.39 197.958C163.044 195.677 165.372 192.809 168.721 190.857C170.759 189.67 173.215 188.78 176.45 188.056C179.932 187.277 183.539 186.854 187.17 186.799C187.341 186.794 187.515 186.791 187.689 186.789L188.053 186.788L188.117 186.788C188.119 186.788 188.146 186.789 188.148 186.789C188.341 186.791 188.515 186.794 188.69 186.799C192.317 186.854 195.924 187.277 199.406 188.056C202.641 188.78 205.097 189.67 207.135 190.857C210.484 192.809 212.812 195.677 214.466 197.958C217.446 202.067 219.784 206.497 221.413 211.124C222.386 213.89 223.418 217.927 221.151 221.045C219.059 223.923 214.936 225.022 211.178 225.718C204.718 226.916 198.128 227.54 192.455 228.031C191.596 228.314 190.572 228.452 189.323 228.452Z" fill="#292625"/>
<path d="M218.361 221.383C218.384 214.63 216.647 207.878 213.378 202.018C213.97 202.432 214.561 202.846 215.152 203.26C214.616 201.36 213.596 199.606 212.22 198.222C213.06 198.795 213.9 199.368 214.739 199.941C210.785 193.996 204.026 190.119 197.022 189.78C194.048 189.635 190.999 190.121 188.335 191.461C185.671 190.121 182.622 189.635 179.648 189.78C172.644 190.119 165.886 193.996 161.931 199.941C162.771 199.368 163.61 198.795 164.45 198.222C163.074 199.606 162.054 201.36 161.519 203.26C162.11 202.846 162.701 202.432 163.292 202.018C160.023 207.878 158.286 214.63 158.309 221.383C159.06 219.942 159.812 218.5 160.563 217.058C158.996 227.56 161.826 238.676 168.197 247.046C170.36 249.89 173.02 252.494 176.335 253.691C178.396 254.435 180.597 254.595 182.791 254.649C182.788 254.7 182.784 254.75 182.781 254.801C184.633 254.777 186.484 254.752 188.335 254.728C190.186 254.752 192.038 254.777 193.889 254.801C193.886 254.75 193.883 254.7 193.879 254.649C196.073 254.595 198.274 254.435 200.335 253.691C203.65 252.494 206.31 249.89 208.474 247.046C214.844 238.676 217.674 227.56 216.107 217.058C216.859 218.5 217.61 219.942 218.361 221.383" fill="#F2591D"/>
<path d="M188.331 254.415L193.62 254.485C193.63 254.468 193.642 254.452 193.654 254.438C193.711 254.375 193.789 254.338 193.872 254.336C195.963 254.285 198.182 254.136 200.234 253.396C203.036 252.384 205.653 250.245 208.234 246.854C214.522 238.592 217.352 227.471 215.806 217.106C215.784 216.955 215.87 216.809 216.011 216.761C216.152 216.714 216.306 216.776 216.376 216.91L218.04 220.104C217.856 213.815 216.164 207.641 213.114 202.173C213.043 202.047 213.067 201.887 213.172 201.788C213.276 201.689 213.433 201.677 213.55 201.759L214.576 202.478C214.015 200.963 213.137 199.583 212.007 198.445C211.895 198.332 211.885 198.15 211.984 198.025C212.082 197.899 212.258 197.872 212.389 197.961L213.445 198.683C209.466 193.645 203.318 190.398 197.008 190.092C193.891 189.942 190.903 190.517 188.469 191.742C188.385 191.785 188.286 191.785 188.201 191.742C185.767 190.517 182.78 189.943 179.662 190.092C173.352 190.398 167.204 193.645 163.225 198.682L164.281 197.961C164.412 197.872 164.587 197.899 164.686 198.025C164.785 198.15 164.775 198.332 164.663 198.445C163.533 199.583 162.655 200.964 162.094 202.478L163.12 201.759C163.237 201.677 163.394 201.689 163.499 201.788C163.603 201.887 163.627 202.047 163.556 202.173C160.506 207.642 158.814 213.815 158.63 220.104L160.294 216.91C160.364 216.776 160.519 216.714 160.659 216.761C160.8 216.809 160.886 216.955 160.864 217.106C159.318 227.471 162.149 238.592 168.437 246.854C171.017 250.245 173.634 252.384 176.436 253.396C178.489 254.136 180.707 254.285 182.798 254.336C182.881 254.338 182.96 254.375 183.016 254.438C183.029 254.452 183.04 254.468 183.05 254.485L188.331 254.415ZM193.895 255.114C193.893 255.114 193.891 255.114 193.889 255.114C193.888 255.114 193.886 255.114 193.885 255.114L188.331 255.041L182.785 255.114C182.702 255.128 182.619 255.08 182.56 255.017C182.543 254.998 182.528 254.977 182.516 254.955C180.453 254.896 178.278 254.724 176.234 253.986C173.319 252.934 170.611 250.727 167.957 247.239C161.91 239.294 159.009 228.747 160.047 218.711L158.578 221.531C158.512 221.657 158.372 221.722 158.236 221.687C158.1 221.653 158.005 221.528 158.005 221.385C157.983 214.986 159.502 208.663 162.41 203.015L161.69 203.519C161.584 203.593 161.444 203.591 161.34 203.514C161.236 203.436 161.19 203.3 161.226 203.174C161.576 201.93 162.124 200.754 162.84 199.697L162.1 200.202C161.978 200.285 161.817 200.267 161.714 200.161C161.612 200.055 161.597 199.889 161.68 199.765C165.676 193.756 172.556 189.81 179.633 189.467C182.796 189.314 185.835 189.889 188.335 191.114C190.835 189.889 193.873 189.314 197.037 189.467C204.098 189.809 210.961 193.737 214.962 199.722C215.016 199.778 215.049 199.856 215.049 199.941C215.049 200.114 214.913 200.254 214.745 200.254C214.743 200.254 214.741 200.254 214.739 200.254C214.681 200.254 214.622 200.237 214.57 200.202L213.83 199.697C214.536 200.739 215.078 201.895 215.428 203.117C215.45 203.16 215.462 203.209 215.462 203.26C215.462 203.433 215.325 203.574 215.157 203.574C215.156 203.574 215.153 203.574 215.151 203.574C215.092 203.574 215.032 203.555 214.98 203.519L214.261 203.015C217.168 208.663 218.688 214.985 218.666 221.385C218.665 221.528 218.57 221.653 218.434 221.687C218.299 221.722 218.158 221.657 218.092 221.532L216.623 218.711C217.661 228.747 214.76 239.294 208.713 247.239C206.059 250.727 203.351 252.934 200.436 253.986C198.394 254.723 196.221 254.895 194.16 254.955C194.108 255.05 194.009 255.114 193.895 255.114" fill="#292625"/>
<path d="M212.743 228.396C212.404 227.458 211.589 226.818 210.656 226.769C210.656 226.784 211.414 226.53 211.501 226.482C211.822 226.305 212.1 226.047 212.315 225.735C212.705 225.171 212.854 224.454 212.773 223.76C212.617 222.422 211.524 221.379 210.266 221.448C210.265 221.441 210.264 221.435 210.263 221.428C211.589 221.135 212.349 219.689 212.024 218.292C211.878 217.663 211.555 217.109 211.061 216.732C210.779 216.516 210.452 216.377 210.11 216.322C210.004 216.304 209.101 216.346 209.112 216.376C210.334 215.766 210.785 214.164 210.164 212.887C209.546 211.615 208.135 211.036 206.936 211.758C206.943 211.769 207.455 211.122 207.505 211.03C207.671 210.728 207.769 210.392 207.803 210.043C207.872 209.34 207.643 208.619 207.219 208.086C206.353 206.998 204.862 206.776 203.842 207.76C203.846 207.764 204.198 207.07 204.228 206.975C204.341 206.626 204.375 206.257 204.336 205.891C204.263 205.193 203.903 204.558 203.393 204.131C202.342 203.241 200.81 203.393 200.012 204.584C200.021 204.59 200.228 203.773 200.237 203.667C200.27 203.288 200.216 202.907 200.089 202.554C199.865 201.931 199.405 201.432 198.85 201.148C197.646 200.522 196.182 201.026 195.639 202.372C195.642 202.373 195.691 201.588 195.682 201.487C195.649 201.122 195.537 200.775 195.362 200.462C195.044 199.894 194.513 199.491 193.925 199.317C192.597 198.923 191.197 199.744 190.929 201.237C190.939 201.238 190.807 200.404 190.774 200.303C190.666 199.974 190.492 199.679 190.265 199.431C189.808 198.929 189.155 198.641 188.502 198.657C187.838 198.672 187.211 198.922 186.742 199.44C186.517 199.688 186.344 199.988 186.238 200.317C186.205 200.418 186.077 201.251 186.087 201.25C185.819 199.801 184.513 199.017 183.214 199.309C182.611 199.445 182.061 199.843 181.715 200.393C181.525 200.696 181.397 201.038 181.349 201.402C181.334 201.514 181.367 202.417 181.382 202.412C180.832 201.065 179.398 200.599 178.189 201.19C177.598 201.48 177.126 202.031 176.909 202.691C176.806 203.005 176.762 203.336 176.785 203.668C176.793 203.78 177.005 204.657 177.019 204.647C176.214 203.458 174.719 203.336 173.657 204.193C173.137 204.613 172.785 205.261 172.704 205.957C172.666 206.288 172.689 206.622 172.778 206.941C172.808 207.049 173.192 207.857 173.204 207.844C172.179 206.865 170.693 207.098 169.827 208.186C168.959 209.279 169.084 210.954 170.141 211.84C170.144 211.835 169.449 211.586 169.357 211.57C169.014 211.511 168.658 211.538 168.328 211.656C167.695 211.881 167.212 212.373 166.905 213.004C166.285 214.283 166.758 215.888 167.977 216.489C167.988 216.459 167.084 216.421 166.977 216.439C166.635 216.496 166.308 216.637 166.028 216.855C165.536 217.236 165.219 217.792 165.072 218.421C164.903 219.147 165.019 219.939 165.421 220.553C165.595 220.823 165.821 221.052 166.081 221.225C166.16 221.277 166.846 221.578 166.847 221.57C165.665 221.508 164.609 222.431 164.377 223.677C164.095 225.191 165.017 226.714 166.471 226.87C166.471 226.854 165.705 227.069 165.616 227.112C165.32 227.255 165.051 227.466 164.833 227.727C164.398 228.248 164.196 228.954 164.229 229.649C164.261 230.32 164.501 230.952 164.943 231.431C165.172 231.68 165.455 231.868 165.76 231.988C165.858 232.026 166.756 232.185 166.751 232.147C165.39 232.458 164.685 233.906 165 235.326C165.145 235.978 165.549 236.571 166.077 236.918C166.378 237.115 166.712 237.236 167.065 237.259C167.162 237.265 168.045 237.152 168.029 237.111C166.729 237.799 166.441 239.467 167.184 240.744C167.513 241.309 168.066 241.745 168.673 241.879C169.004 241.952 169.346 241.949 169.672 241.854C169.769 241.826 170.622 241.382 170.582 241.335C169.591 242.432 169.808 244.155 170.927 245.044C172.033 245.922 173.575 245.704 174.307 244.4C174.29 244.39 174.115 245.193 174.108 245.289C174.082 245.667 174.138 246.055 174.282 246.402C174.549 247.046 175.049 247.547 175.661 247.788C176.916 248.312 178.34 247.679 178.783 246.278C178.775 246.276 178.778 247.073 178.793 247.171C178.85 247.537 178.985 247.881 179.178 248.187C179.522 248.732 180.07 249.081 180.657 249.23C181.981 249.565 183.336 248.67 183.592 247.212C183.592 247.212 183.704 247.985 183.734 248.083C183.841 248.431 184.02 248.749 184.249 249.02C184.68 249.528 185.297 249.802 185.927 249.843C187.226 249.938 188.414 248.904 188.51 247.481C188.514 247.481 188.685 248.186 188.722 248.275C188.852 248.589 189.042 248.873 189.278 249.104C189.783 249.599 190.459 249.838 191.136 249.781C191.739 249.73 192.328 249.474 192.753 249C192.985 248.74 193.168 248.428 193.283 248.089C193.319 247.982 193.46 247.099 193.447 247.1C193.716 248.48 195 249.381 196.281 249.096C196.873 248.965 197.437 248.636 197.805 248.107C198.011 247.813 198.157 247.468 198.228 247.107C198.249 246.998 198.273 246.088 198.254 246.094C198.71 247.483 200.132 248.106 201.382 247.578C201.964 247.355 202.448 246.874 202.718 246.275C202.87 245.938 202.945 245.571 202.938 245.196C202.936 245.09 202.766 244.185 202.74 244.2C203.464 245.489 205.006 245.733 206.11 244.86C207.228 243.977 207.474 242.279 206.498 241.162C206.477 241.186 207.159 241.604 207.24 241.637C207.571 241.77 207.928 241.801 208.277 241.751C208.943 241.656 209.527 241.206 209.902 240.616C210.678 239.358 210.373 237.667 209.094 236.973C209.084 236.997 209.841 237.133 209.928 237.133C210.287 237.136 210.637 237.037 210.952 236.853C211.532 236.513 211.971 235.901 212.131 235.206C212.46 233.787 211.744 232.333 210.386 232.023C210.378 232.078 211.374 231.868 211.48 231.82C211.875 231.641 212.21 231.344 212.457 230.966C212.938 230.231 213.044 229.234 212.743 228.396C212.863 228.732 212.622 228.061 212.743 228.396Z" fill="#F7A80E"/>
<path d="M208.821 223.571C208.537 222.785 207.854 222.249 207.072 222.208C207.073 222.221 207.707 222.007 207.781 221.967C208.049 221.819 208.282 221.603 208.463 221.342C208.789 220.869 208.914 220.269 208.846 219.687C208.715 218.566 207.799 217.693 206.746 217.75C206.745 217.745 206.744 217.739 206.744 217.734C207.854 217.488 208.49 216.276 208.218 215.107C208.096 214.579 207.826 214.115 207.412 213.799C207.176 213.619 206.902 213.502 206.615 213.456C206.526 213.441 205.77 213.476 205.779 213.501C206.803 212.99 207.18 211.648 206.66 210.578C206.143 209.512 204.961 209.028 203.956 209.632C203.962 209.642 204.391 209.099 204.433 209.023C204.572 208.769 204.654 208.488 204.682 208.196C204.74 207.607 204.549 207.003 204.193 206.556C203.468 205.645 202.219 205.459 201.364 206.283C201.367 206.286 201.662 205.705 201.688 205.625C201.782 205.333 201.81 205.024 201.778 204.717C201.717 204.132 201.415 203.601 200.988 203.243C200.107 202.498 198.824 202.625 198.156 203.622C198.163 203.627 198.336 202.943 198.344 202.854C198.371 202.537 198.326 202.217 198.22 201.921C198.032 201.4 197.647 200.982 197.182 200.744C196.173 200.22 194.946 200.642 194.492 201.769C194.494 201.77 194.536 201.112 194.528 201.027C194.5 200.722 194.406 200.431 194.26 200.169C193.993 199.693 193.548 199.356 193.055 199.21C191.944 198.88 190.771 199.567 190.546 200.818C190.554 200.819 190.444 200.12 190.416 200.036C190.325 199.761 190.18 199.513 189.99 199.305C189.607 198.885 189.06 198.644 188.513 198.657C187.957 198.67 187.431 198.879 187.038 199.312C186.849 199.521 186.705 199.772 186.616 200.047C186.588 200.132 186.482 200.83 186.489 200.83C186.265 199.616 185.171 198.958 184.082 199.203C183.578 199.317 183.116 199.651 182.827 200.111C182.667 200.365 182.56 200.652 182.52 200.956C182.508 201.05 182.535 201.807 182.548 201.802C182.087 200.674 180.885 200.284 179.873 200.779C179.377 201.021 178.982 201.484 178.801 202.037C178.714 202.3 178.678 202.577 178.697 202.855C178.703 202.949 178.881 203.683 178.893 203.675C178.219 202.679 176.966 202.577 176.076 203.295C175.64 203.647 175.346 204.19 175.278 204.772C175.246 205.05 175.265 205.329 175.34 205.597C175.365 205.687 175.686 206.364 175.697 206.353C174.838 205.533 173.593 205.728 172.868 206.64C172.14 207.555 172.245 208.959 173.131 209.701C173.133 209.697 172.551 209.488 172.474 209.475C172.186 209.426 171.888 209.448 171.612 209.547C171.081 209.735 170.677 210.147 170.42 210.676C169.9 211.747 170.296 213.092 171.318 213.596C171.327 213.57 170.569 213.539 170.48 213.554C170.193 213.602 169.92 213.72 169.685 213.902C169.273 214.221 169.007 214.687 168.884 215.214C168.743 215.822 168.84 216.486 169.176 217C169.323 217.227 169.511 217.419 169.729 217.563C169.796 217.607 170.37 217.859 170.371 217.852C169.381 217.8 168.497 218.574 168.302 219.618C168.065 220.886 168.838 222.162 170.056 222.293C170.056 222.279 169.414 222.459 169.34 222.495C169.092 222.615 168.866 222.792 168.684 223.01C168.319 223.447 168.15 224.038 168.178 224.62C168.205 225.183 168.406 225.712 168.776 226.114C168.968 226.322 169.204 226.48 169.46 226.58C169.543 226.612 170.295 226.745 170.29 226.714C169.15 226.974 168.56 228.187 168.824 229.377C168.945 229.923 169.283 230.42 169.726 230.71C169.978 230.876 170.258 230.977 170.553 230.996C170.635 231.001 171.375 230.906 171.361 230.873C170.272 231.449 170.031 232.846 170.654 233.916C170.929 234.389 171.393 234.755 171.901 234.867C172.178 234.928 172.464 234.925 172.738 234.846C172.819 234.822 173.534 234.45 173.5 234.411C172.67 235.33 172.852 236.773 173.789 237.518C174.715 238.254 176.007 238.071 176.621 236.978C176.606 236.97 176.46 237.643 176.454 237.723C176.433 238.04 176.479 238.365 176.6 238.656C176.823 239.195 177.242 239.615 177.755 239.817C178.806 240.256 180 239.726 180.37 238.552C180.364 238.55 180.366 239.217 180.379 239.3C180.427 239.606 180.54 239.895 180.702 240.151C180.99 240.607 181.449 240.9 181.941 241.025C183.05 241.305 184.185 240.556 184.399 239.335C184.398 239.335 184.493 239.982 184.518 240.063C184.608 240.356 184.758 240.622 184.95 240.849C185.31 241.274 185.828 241.504 186.356 241.538C187.443 241.618 188.439 240.752 188.519 239.559C188.523 239.559 188.666 240.15 188.697 240.225C188.806 240.488 188.965 240.725 189.163 240.919C189.586 241.334 190.153 241.534 190.72 241.486C191.224 241.444 191.718 241.23 192.074 240.832C192.268 240.615 192.421 240.353 192.518 240.069C192.548 239.98 192.667 239.239 192.656 239.241C192.88 240.397 193.957 241.151 195.029 240.913C195.526 240.803 195.998 240.527 196.307 240.084C196.479 239.837 196.601 239.549 196.66 239.246C196.678 239.155 196.698 238.393 196.682 238.398C197.065 239.561 198.256 240.083 199.303 239.641C199.791 239.454 200.196 239.051 200.422 238.549C200.549 238.267 200.613 237.96 200.606 237.646C200.604 237.557 200.463 236.798 200.441 236.811C201.047 237.891 202.339 238.095 203.264 237.364C204.201 236.624 204.407 235.202 203.589 234.266C203.572 234.286 204.143 234.636 204.211 234.664C204.488 234.775 204.787 234.801 205.08 234.759C205.637 234.68 206.127 234.303 206.44 233.808C207.091 232.755 206.835 231.338 205.764 230.757C205.755 230.776 206.39 230.89 206.463 230.89C206.763 230.893 207.057 230.81 207.32 230.656C207.806 230.371 208.174 229.858 208.309 229.276C208.584 228.087 207.984 226.87 206.846 226.609C206.84 226.655 207.674 226.48 207.762 226.44C208.094 226.29 208.374 226.041 208.581 225.725C208.984 225.108 209.073 224.273 208.821 223.571C208.719 223.29 208.922 223.852 208.821 223.571" fill="#F2CC46"/>
<path d="M204.899 218.746C204.67 218.112 204.119 217.68 203.489 217.647C203.489 217.657 204.001 217.485 204.06 217.453C204.277 217.334 204.464 217.159 204.61 216.949C204.873 216.567 204.973 216.083 204.919 215.614C204.813 214.71 204.075 214.006 203.225 214.052C203.225 214.048 203.224 214.044 203.224 214.039C204.119 213.841 204.633 212.864 204.413 211.921C204.314 211.496 204.096 211.122 203.763 210.867C203.572 210.721 203.351 210.627 203.12 210.59C203.048 210.578 202.439 210.606 202.446 210.626C203.271 210.214 203.576 209.132 203.156 208.269C202.739 207.41 201.786 207.019 200.976 207.506C200.98 207.514 201.327 207.077 201.361 207.015C201.472 206.811 201.538 206.584 201.561 206.349C201.608 205.874 201.454 205.386 201.167 205.026C200.583 204.291 199.575 204.142 198.886 204.806C198.888 204.808 199.126 204.34 199.147 204.275C199.223 204.04 199.246 203.791 199.22 203.543C199.17 203.072 198.927 202.643 198.583 202.355C197.872 201.753 196.838 201.856 196.299 202.661C196.305 202.664 196.445 202.113 196.451 202.041C196.473 201.785 196.437 201.528 196.351 201.289C196.199 200.869 195.889 200.531 195.514 200.339C194.701 199.917 193.711 200.257 193.345 201.166C193.347 201.167 193.38 200.636 193.374 200.568C193.351 200.321 193.276 200.087 193.157 199.876C192.943 199.492 192.584 199.221 192.186 199.103C191.29 198.837 190.344 199.391 190.163 200.399C190.169 200.4 190.081 199.837 190.058 199.769C189.985 199.547 189.868 199.347 189.715 199.18C189.406 198.841 188.965 198.646 188.523 198.657C188.075 198.667 187.652 198.836 187.335 199.185C187.182 199.353 187.066 199.556 186.994 199.778C186.972 199.846 186.886 200.409 186.892 200.409C186.711 199.43 185.829 198.899 184.951 199.097C184.544 199.189 184.172 199.458 183.939 199.829C183.81 200.034 183.724 200.265 183.691 200.511C183.681 200.586 183.704 201.197 183.714 201.193C183.342 200.283 182.373 199.968 181.557 200.368C181.157 200.563 180.839 200.936 180.692 201.382C180.622 201.594 180.593 201.817 180.608 202.042C180.614 202.118 180.757 202.71 180.767 202.703C180.223 201.899 179.213 201.817 178.495 202.396C178.144 202.68 177.906 203.118 177.852 203.588C177.826 203.812 177.842 204.037 177.902 204.253C177.922 204.326 178.181 204.872 178.19 204.862C177.497 204.201 176.493 204.359 175.908 205.094C175.322 205.832 175.406 206.964 176.12 207.562C176.123 207.558 175.653 207.39 175.591 207.38C175.359 207.34 175.119 207.358 174.896 207.437C174.468 207.59 174.141 207.922 173.935 208.348C173.515 209.212 173.835 210.296 174.659 210.702C174.666 210.682 174.055 210.657 173.983 210.669C173.752 210.707 173.531 210.803 173.341 210.95C173.009 211.207 172.795 211.583 172.696 212.008C172.582 212.498 172.66 213.033 172.932 213.448C173.05 213.63 173.202 213.785 173.377 213.902C173.431 213.937 173.894 214.14 173.895 214.135C173.097 214.093 172.384 214.717 172.227 215.558C172.036 216.581 172.659 217.61 173.641 217.715C173.641 217.704 173.124 217.849 173.063 217.878C172.863 217.975 172.682 218.118 172.535 218.294C172.241 218.646 172.104 219.123 172.127 219.592C172.149 220.046 172.31 220.472 172.609 220.796C172.764 220.964 172.955 221.091 173.161 221.172C173.227 221.198 173.834 221.305 173.83 221.28C172.911 221.49 172.434 222.468 172.647 223.427C172.745 223.868 173.018 224.268 173.375 224.502C173.578 224.636 173.804 224.718 174.042 224.733C174.108 224.737 174.705 224.661 174.693 224.633C173.816 225.098 173.621 226.225 174.123 227.087C174.345 227.469 174.719 227.764 175.129 227.854C175.352 227.903 175.583 227.901 175.803 227.837C175.869 227.818 176.445 227.518 176.418 227.487C175.749 228.228 175.896 229.391 176.651 229.992C177.398 230.585 178.44 230.438 178.935 229.557C178.923 229.55 178.805 230.093 178.8 230.157C178.783 230.413 178.821 230.675 178.918 230.909C179.098 231.345 179.436 231.683 179.849 231.846C180.697 232.2 181.659 231.772 181.958 230.826C181.952 230.824 181.955 231.362 181.965 231.429C182.004 231.676 182.095 231.909 182.225 232.115C182.457 232.483 182.828 232.719 183.224 232.82C184.118 233.046 185.034 232.441 185.207 231.457C185.206 231.457 185.282 231.979 185.303 232.045C185.375 232.28 185.496 232.495 185.65 232.678C185.942 233.021 186.358 233.206 186.784 233.233C187.661 233.298 188.464 232.6 188.529 231.638C188.532 231.638 188.648 232.114 188.672 232.175C188.76 232.387 188.889 232.578 189.048 232.735C189.389 233.069 189.846 233.23 190.303 233.192C190.71 233.158 191.108 232.985 191.395 232.664C191.552 232.489 191.675 232.278 191.753 232.049C191.777 231.977 191.873 231.38 191.864 231.381C192.045 232.313 192.913 232.922 193.778 232.729C194.178 232.64 194.559 232.418 194.808 232.061C194.947 231.862 195.045 231.63 195.093 231.386C195.108 231.312 195.124 230.697 195.111 230.701C195.419 231.64 196.38 232.06 197.224 231.704C197.617 231.553 197.944 231.228 198.127 230.823C198.229 230.596 198.28 230.348 198.275 230.095C198.274 230.023 198.159 229.412 198.141 229.422C198.63 230.293 199.672 230.457 200.418 229.868C201.173 229.271 201.34 228.124 200.68 227.37C200.666 227.386 201.127 227.668 201.181 227.691C201.405 227.781 201.646 227.801 201.882 227.768C202.331 227.703 202.726 227.399 202.979 227.001C203.504 226.151 203.297 225.009 202.434 224.54C202.427 224.556 202.938 224.648 202.998 224.648C203.24 224.65 203.476 224.584 203.689 224.459C204.081 224.229 204.377 223.816 204.486 223.346C204.707 222.388 204.224 221.406 203.307 221.196C203.302 221.233 203.974 221.091 204.045 221.059C204.312 220.938 204.539 220.738 204.705 220.482C205.03 219.986 205.102 219.312 204.899 218.746C204.817 218.52 204.98 218.973 204.899 218.746" fill="#F8E298"/>
<path d="M187.069 215.124C184.119 218.875 178.622 220.52 174.009 219.032C176.901 219.736 180.084 219.228 182.591 217.661C180.153 218.668 177.369 218.765 174.795 218.154C172.221 217.543 169.851 216.252 167.806 214.616C169.598 215.534 171.39 216.452 173.182 217.37C172.263 216.809 171.366 216.213 170.51 215.566C168.846 214.308 167.318 212.837 166.268 211.062C165.218 209.286 164.675 207.18 165.036 205.162C165.509 202.519 167.419 200.366 169.254 198.36C169.866 197.691 170.487 197.014 171.251 196.515C172.107 195.957 173.104 195.647 174.087 195.343C175.571 194.885 177.08 194.422 178.638 194.397C180.53 194.366 182.364 194.983 184.144 195.608C182.97 194.718 181.676 193.976 180.305 193.409C181.383 193.235 182.494 193.515 183.476 193.98C185.489 194.932 187.055 196.645 188.072 198.583C189.089 200.521 189.591 202.68 189.849 204.841C190.008 206.181 190.076 207.554 189.748 208.865C189.49 209.899 188.993 210.864 188.442 211.784C187.485 213.381 186.351 214.877 185.066 216.238L187.069 215.124" fill="#F7A80E"/>
<path d="M190.667 215.124C193.618 218.875 199.115 220.52 203.727 219.032C200.836 219.736 197.653 219.228 195.146 217.661C197.584 218.668 200.368 218.765 202.942 218.154C205.515 217.543 207.886 216.252 209.931 214.616C208.139 215.534 206.347 216.452 204.555 217.37C205.474 216.809 206.37 216.213 207.227 215.566C208.891 214.308 210.419 212.837 211.468 211.062C212.518 209.286 213.062 207.18 212.701 205.162C212.228 202.519 210.318 200.366 208.483 198.36C207.871 197.691 207.25 197.014 206.485 196.515C205.629 195.957 204.632 195.647 203.65 195.343C202.166 194.885 200.656 194.422 199.099 194.397C197.206 194.366 195.373 194.983 193.592 195.608C194.767 194.718 196.061 193.976 197.431 193.409C196.354 193.235 195.243 193.515 194.261 193.98C192.248 194.932 190.681 196.645 189.664 198.583C188.647 200.521 188.145 202.68 187.888 204.841C187.728 206.181 187.661 207.554 187.988 208.865C188.247 209.899 188.743 210.864 189.295 211.784C190.251 213.381 191.386 214.877 192.671 216.238L190.667 215.124" fill="#F7A80E"/>
<path d="M209.822 205.679C209.822 211.649 205.11 216.488 199.297 216.488C193.485 216.488 188.773 211.649 188.773 205.679C188.773 199.71 193.485 194.871 199.297 194.871C205.11 194.871 209.822 199.71 209.822 205.679Z" fill="#523B1A"/>
<path d="M208.413 206.031C208.413 211.439 204.145 215.823 198.878 215.823C193.613 215.823 189.344 211.439 189.344 206.031C189.344 200.623 193.613 196.239 198.878 196.239C204.145 196.239 208.413 200.623 208.413 206.031Z" fill="#D1B86C"/>
<path d="M208.413 206.031C208.413 211.439 204.145 215.823 198.878 215.823C193.613 215.823 189.344 211.439 189.344 206.031C189.344 200.623 193.613 196.239 198.878 196.239C204.145 196.239 208.413 200.623 208.413 206.031Z" fill="#D1B86C"/>
<path d="M207.5 206.031C207.5 210.921 203.64 214.885 198.878 214.885C194.117 214.885 190.257 210.921 190.257 206.031C190.257 201.141 194.117 197.177 198.878 197.177C203.64 197.177 207.5 201.141 207.5 206.031Z" fill="#F3ED99"/>
<path d="M199.929 207.166C199.929 209.508 198.08 211.407 195.8 211.407C193.519 211.407 191.67 209.508 191.67 207.166C191.67 204.823 193.519 202.924 195.8 202.924C198.08 202.924 199.929 204.823 199.929 207.166Z" fill="#D4C18D"/>
<path d="M198.788 207.166C198.788 208.861 197.45 210.234 195.8 210.234C194.149 210.234 192.812 208.861 192.812 207.166C192.812 205.471 194.149 204.097 195.8 204.097C197.45 204.097 198.788 205.471 198.788 207.166Z" fill="#2E2227"/>
<path d="M195.8 206.267C195.8 206.763 195.408 207.166 194.924 207.166C194.441 207.166 194.049 206.763 194.049 206.267C194.049 205.77 194.441 205.368 194.924 205.368C195.408 205.368 195.8 205.77 195.8 206.267Z" fill="white"/>
<path d="M196.401 199.446C197.111 200.144 196.708 201.759 195.501 203.054C194.295 204.348 192.741 204.831 192.031 204.133C191.321 203.435 191.724 201.82 192.931 200.526C194.137 199.232 195.691 198.748 196.401 199.446Z" fill="white"/>
<path d="M200.802 213.284C196.256 213.284 192.343 210.5 190.591 206.501C190.695 209.701 192.594 212.692 195.67 213.969C198.395 215.1 201.367 214.605 203.567 212.93C202.682 213.161 201.756 213.284 200.802 213.284" fill="#D4C18D"/>
<path d="M166.849 205.679C166.849 211.649 171.56 216.488 177.373 216.488C183.185 216.488 187.897 211.649 187.897 205.679C187.897 199.71 183.185 194.871 177.373 194.871C171.56 194.871 166.849 199.71 166.849 205.679" fill="#523B1A"/>
<path d="M168.257 206.031C168.257 211.439 172.526 215.823 177.792 215.823C183.058 215.823 187.327 211.439 187.327 206.031C187.327 200.623 183.058 196.239 177.792 196.239C172.526 196.239 168.257 200.623 168.257 206.031" fill="#D1B86C"/>
<path d="M168.257 206.031C168.257 211.439 172.526 215.823 177.792 215.823C183.058 215.823 187.327 211.439 187.327 206.031C187.327 200.623 183.058 196.239 177.792 196.239C172.526 196.239 168.257 200.623 168.257 206.031" fill="#D1B86C"/>
<path d="M169.17 206.031C169.17 210.921 173.03 214.885 177.792 214.885C182.553 214.885 186.413 210.921 186.413 206.031C186.413 201.141 182.553 197.177 177.792 197.177C173.03 197.177 169.17 201.141 169.17 206.031Z" fill="#F3ED99"/>
<path d="M176.65 206.031C176.65 208.374 178.499 210.272 180.78 210.272C183.06 210.272 184.909 208.374 184.909 206.031C184.909 203.689 183.06 201.79 180.78 201.79C178.499 201.79 176.65 203.689 176.65 206.031Z" fill="#D4C18D"/>
<path d="M177.792 206.031C177.792 207.726 179.129 209.1 180.78 209.1C182.43 209.1 183.768 207.726 183.768 206.031C183.768 204.336 182.43 202.962 180.78 202.962C179.129 202.962 177.792 204.336 177.792 206.031Z" fill="#2E2227"/>
<path d="M180.78 205.132C180.78 205.629 181.172 206.031 181.655 206.031C182.139 206.031 182.53 205.629 182.53 205.132C182.53 204.636 182.139 204.233 181.655 204.233C181.172 204.233 180.78 204.636 180.78 205.132Z" fill="white"/>
<path d="M175.288 199.446C175.998 200.144 175.595 201.759 174.389 203.054C173.182 204.348 171.629 204.831 170.919 204.133C170.209 203.435 170.611 201.82 171.818 200.526C173.025 199.232 174.579 198.748 175.288 199.446Z" fill="white"/>
<path d="M175.868 213.284C180.415 213.284 184.328 210.5 186.08 206.501C185.975 209.701 184.077 212.692 181 213.969C178.275 215.1 175.303 214.605 173.104 212.93C173.988 213.161 174.914 213.284 175.868 213.284" fill="#D4C18D"/>
<path d="M190.045 207.07C189.782 206.773 189.475 206.506 189.116 206.414C188.767 206.325 188.364 206.437 188.148 206.762C187.932 206.436 187.529 206.323 187.18 206.412C186.821 206.503 186.513 206.769 186.249 207.065C184.844 208.64 184.458 211.129 184.778 213.358C185.099 215.587 186.026 217.629 186.94 219.627C187.008 219.775 187.579 220.689 188.142 220.69C188.704 220.69 189.258 219.777 189.325 219.63C190.244 217.634 191.177 215.594 191.502 213.366C191.827 211.138 191.447 208.648 190.045 207.07" fill="#2D1615"/>
<path d="M187.071 206.803C186.808 206.851 186.613 207.083 186.453 207.311C185.324 208.933 184.959 211.047 185.098 213.06C185.253 215.291 185.995 217.472 187.218 219.29C187.43 219.605 187.738 219.944 188.094 219.865C188.503 219.773 188.625 219.225 188.662 218.783C188.974 215.123 189.204 211.343 188.11 207.858C188.027 207.594 187.933 207.326 187.762 207.114C187.592 206.902 187.329 206.754 187.071 206.803" fill="#EE8B40"/>
<path d="M188.894 206.8C188.536 206.888 188.368 207.301 188.262 207.663C187.174 211.371 187.011 215.362 187.792 219.15C187.848 219.418 187.943 219.728 188.197 219.813C188.514 219.92 188.803 219.598 188.982 219.309C190.606 216.675 191.341 213.474 191.035 210.373C190.914 209.148 190.582 207.847 189.655 207.067C189.439 206.887 189.164 206.733 188.894 206.8" fill="#F2591D"/>
<path d="M188.982 213.872C188.982 216.874 188.569 219.309 188.059 219.309C187.549 219.309 187.136 216.874 187.136 213.872C187.136 210.869 187.549 208.435 188.059 208.435C188.569 208.435 188.982 210.869 188.982 213.872Z" fill="#F3DE3E"/>
<path d="M188.182 212.063C188.387 211.998 188.469 211.747 188.5 211.529C188.598 210.839 188.481 210.119 188.171 209.499C187.674 209.992 187.475 210.758 187.59 211.458C187.616 211.618 187.66 211.781 187.76 211.907C187.861 212.032 188.03 212.112 188.182 212.063" fill="white"/>
<path d="M188.35 213.798C188.243 213.38 188.137 212.962 188.03 212.544C187.803 212.968 187.7 213.462 187.738 213.945C187.748 214.078 187.771 214.216 187.845 214.326C187.919 214.437 188.056 214.513 188.181 214.476C188.304 214.441 188.382 214.312 188.398 214.183C188.415 214.054 188.382 213.924 188.35 213.798" fill="white"/>
<path d="M160.936 216.372C156.258 223.297 153.911 231.849 154.378 240.263C155.043 238.919 155.709 237.575 156.375 236.231C156.197 236.772 156.016 237.328 156.038 237.899C156.059 238.469 156.326 239.067 156.829 239.31C157.343 239.558 157.978 239.375 158.415 239.003C158.853 238.631 159.133 238.103 159.386 237.581C160.473 235.343 161.275 232.958 161.765 230.508C162.021 231.455 161.645 232.448 161.586 233.429C161.527 234.41 162.063 235.624 163.02 235.584C163.899 235.548 164.359 234.516 164.601 233.647C166.458 226.974 167.206 219.977 166.803 213.049C166.777 212.584 166.711 212.056 166.339 211.79C165.984 211.534 165.472 211.64 165.132 211.916C164.791 212.192 164.582 212.6 164.383 212.995L160.936 216.372Z" fill="#F2591D"/>
<path d="M154.378 240.576C154.357 240.576 154.336 240.574 154.315 240.569C154.181 240.54 154.082 240.422 154.074 240.281C153.601 231.761 155.949 223.206 160.685 216.194C160.781 216.052 160.971 216.016 161.109 216.115C161.248 216.213 161.282 216.408 161.186 216.55C156.747 223.122 154.441 231.07 154.635 239.054L156.103 236.089C156.175 235.943 156.346 235.879 156.493 235.942C156.64 236.006 156.714 236.176 156.663 236.331C156.496 236.84 156.323 237.367 156.342 237.886C156.357 238.282 156.528 238.818 156.959 239.027C157.378 239.23 157.894 239.039 158.222 238.762C158.616 238.427 158.878 237.926 159.113 237.442C160.19 235.225 160.982 232.871 161.467 230.444C161.495 230.303 161.614 230.2 161.755 230.195C161.894 230.192 162.021 230.284 162.059 230.424C162.247 231.121 162.13 231.818 162.017 232.493C161.961 232.823 161.909 233.136 161.89 233.448C161.855 234.029 162.053 234.652 162.382 234.997C162.566 235.189 162.776 235.283 163.007 235.271C163.697 235.243 164.095 234.326 164.308 233.561C166.165 226.889 166.902 219.994 166.499 213.068C166.475 212.644 166.417 212.227 166.165 212.046C165.923 211.873 165.55 211.977 165.32 212.162C165.026 212.4 164.836 212.776 164.653 213.139C164.576 213.292 164.392 213.351 164.243 213.273C164.093 213.193 164.035 213.004 164.112 212.851C164.315 212.449 164.545 211.993 164.943 211.67C165.342 211.348 166.004 211.167 166.514 211.533C166.979 211.867 167.074 212.45 167.108 213.03C167.514 220.028 166.769 226.993 164.894 233.733C164.504 235.134 163.878 235.862 163.032 235.897C162.627 235.907 162.251 235.754 161.947 235.435C161.543 235.012 161.291 234.327 161.277 233.643C160.839 235.041 160.298 236.405 159.659 237.721C159.395 238.265 159.096 238.831 158.61 239.244C158.029 239.736 157.28 239.873 156.7 239.593C156.206 239.354 155.852 238.811 155.757 238.168L154.649 240.405C154.597 240.511 154.491 240.576 154.378 240.576" fill="#292625"/>
<path d="M215.887 216.162C220.451 223.148 222.741 231.775 222.285 240.263C221.636 238.907 220.986 237.551 220.337 236.195C220.511 236.741 220.687 237.302 220.666 237.878C220.645 238.454 220.384 239.056 219.893 239.302C219.392 239.552 218.773 239.367 218.346 238.992C217.919 238.617 217.646 238.084 217.399 237.558C216.338 235.3 215.555 232.894 215.077 230.422C214.828 231.377 215.194 232.379 215.252 233.369C215.309 234.359 214.786 235.583 213.853 235.543C212.995 235.506 212.546 234.465 212.31 233.589C210.498 226.857 209.768 219.799 210.161 212.81C210.187 212.341 210.251 211.808 210.614 211.539C210.961 211.282 211.46 211.389 211.792 211.667C212.124 211.945 212.328 212.357 212.523 212.756L215.887 216.162" fill="#F2591D"/>
<path d="M222.285 240.576C222.171 240.576 222.064 240.509 222.012 240.401L220.944 238.171C220.847 238.807 220.504 239.345 220.027 239.583C219.455 239.869 218.718 239.73 218.148 239.23C217.673 238.813 217.382 238.243 217.124 237.694C216.508 236.381 215.984 235.021 215.56 233.627C215.536 234.316 215.285 234.994 214.886 235.41C214.591 235.719 214.232 235.868 213.84 235.856C213.011 235.82 212.397 235.086 212.017 233.672C210.187 226.875 209.46 219.85 209.857 212.792C209.889 212.209 209.982 211.622 210.436 211.286C210.867 210.966 211.504 211.023 211.984 211.424C212.373 211.749 212.597 212.21 212.796 212.616C212.871 212.77 212.81 212.958 212.659 213.035C212.509 213.113 212.326 213.05 212.25 212.896C212.072 212.529 211.887 212.15 211.599 211.91C211.38 211.726 211.023 211.623 210.792 211.793C210.546 211.976 210.489 212.399 210.465 212.828C210.072 219.817 210.792 226.774 212.604 233.505C212.812 234.277 213.199 235.202 213.866 235.231C214.078 235.243 214.278 235.153 214.452 234.972C214.778 234.631 214.982 233.979 214.948 233.388C214.93 233.072 214.878 232.757 214.824 232.423C214.714 231.743 214.6 231.041 214.783 230.341C214.82 230.2 214.95 230.108 215.087 230.109C215.229 230.114 215.348 230.218 215.376 230.361C215.849 232.809 216.622 235.185 217.673 237.422C217.903 237.911 218.159 238.416 218.544 238.754C218.86 239.032 219.358 239.222 219.76 239.02C220.106 238.847 220.343 238.394 220.362 237.866C220.381 237.339 220.211 236.807 220.048 236.292C219.998 236.136 220.074 235.967 220.222 235.906C220.371 235.843 220.54 235.91 220.611 236.057L222.028 239.017C222.212 230.969 219.961 222.96 215.634 216.336C215.54 216.193 215.577 215.999 215.717 215.902C215.856 215.806 216.046 215.844 216.14 215.988C220.76 223.06 223.051 231.688 222.59 240.28C222.582 240.422 222.482 240.541 222.346 240.569C222.326 240.574 222.305 240.576 222.285 240.576" fill="#292625"/>
<path d="M179.817 253.883C179.292 253.499 178.552 253.76 178.024 254.141C176.825 255.006 176.061 256.403 175.693 257.86C175.326 259.317 175.32 260.844 175.387 262.348C175.397 262.573 175.436 262.841 175.635 262.935C175.903 263.062 176.167 262.762 176.319 262.503C177.122 261.132 177.925 259.76 178.729 258.389C179.158 257.656 179.588 256.921 179.939 256.145C180.107 255.772 180.259 255.38 180.274 254.97C180.288 254.559 180.143 254.122 179.817 253.883" fill="#EDA263"/>
<path d="M179.212 254.007C178.911 254.007 178.543 254.149 178.199 254.397C177.16 255.146 176.375 256.404 175.988 257.938C175.62 259.398 175.628 260.914 175.692 262.333C175.704 262.62 175.762 262.651 175.763 262.651L175.765 262.652C175.803 262.652 175.931 262.559 176.058 262.342L178.468 258.228C178.886 257.513 179.319 256.775 179.663 256.013C179.814 255.677 179.956 255.317 179.969 254.958C179.979 254.686 179.897 254.327 179.64 254.138C179.52 254.05 179.38 254.007 179.212 254.007ZM175.765 263.278C175.677 263.278 175.59 263.259 175.508 263.22C175.113 263.033 175.091 262.546 175.083 262.362C175.02 260.964 175.009 259.326 175.398 257.781C175.822 256.103 176.692 254.72 177.849 253.885C178.11 253.697 178.633 253.382 179.212 253.382C179.507 253.382 179.77 253.465 179.994 253.629C180.374 253.907 180.598 254.426 180.578 254.981C180.562 255.451 180.394 255.881 180.216 256.277C179.858 257.068 179.417 257.822 178.99 258.55L176.58 262.664C176.446 262.893 176.162 263.278 175.765 263.278" fill="#292625"/>
<path d="M178.898 256.485C178.964 256.139 179.015 255.78 178.943 255.435C178.815 256.075 178.398 256.648 177.837 256.955C177.954 257.429 177.966 257.943 177.787 258.395C177.607 258.848 177.214 259.226 176.743 259.298C176.809 260.136 176.645 260.991 176.274 261.741C176.958 260.504 177.642 259.267 178.325 258.03C178.452 257.801 178.578 257.572 178.673 257.328C178.778 257.057 178.843 256.772 178.898 256.485Z" fill="#DC7029"/>
<path d="M181.742 253.883C182.267 253.499 183.007 253.76 183.535 254.141C184.735 255.006 185.498 256.403 185.866 257.86C186.234 259.317 186.24 260.844 186.172 262.348C186.162 262.573 186.123 262.841 185.924 262.935C185.656 263.062 185.392 262.762 185.24 262.503C184.437 261.132 183.634 259.76 182.83 258.389C182.401 257.656 181.971 256.921 181.62 256.145C181.452 255.772 181.3 255.38 181.286 254.97C181.271 254.559 181.416 254.122 181.742 253.883" fill="#EDA263"/>
<path d="M182.348 254.007C182.179 254.007 182.039 254.05 181.919 254.138C181.662 254.327 181.58 254.686 181.59 254.958C181.603 255.317 181.745 255.677 181.897 256.013C182.241 256.776 182.673 257.514 183.091 258.228L185.501 262.342C185.628 262.558 185.756 262.652 185.794 262.652C185.799 262.65 185.855 262.617 185.868 262.333C185.932 260.914 185.94 259.399 185.571 257.938C185.184 256.404 184.399 255.146 183.36 254.397C183.017 254.149 182.648 254.007 182.348 254.007V254.007ZM185.794 262.652V262.965V262.652ZM185.794 263.278C185.398 263.278 185.114 262.894 184.979 262.664L182.57 258.55C182.143 257.822 181.702 257.069 181.344 256.277C181.165 255.881 180.998 255.45 180.981 254.981C180.962 254.426 181.185 253.907 181.565 253.629C181.789 253.465 182.052 253.382 182.348 253.382C182.926 253.382 183.449 253.697 183.71 253.885C184.867 254.72 185.738 256.103 186.161 257.781C186.551 259.326 186.539 260.964 186.476 262.362C186.469 262.528 186.446 263.033 186.051 263.22C185.969 263.259 185.883 263.278 185.794 263.278" fill="#292625"/>
<path d="M183.835 256.715C183.783 257.26 183.874 257.819 184.094 258.318C184.172 258.494 184.269 258.667 184.412 258.794C184.554 258.921 184.749 258.998 184.934 258.96C184.846 259.465 184.998 259.98 185.183 260.456C185.303 260.765 185.439 261.068 185.588 261.364C185.491 261.319 185.421 261.23 185.355 261.144C185.012 260.697 184.683 260.239 184.353 259.782C184.205 259.575 184.056 259.368 183.907 259.161C183.815 259.033 183.723 258.905 183.635 258.775C183.019 257.865 182.585 256.826 182.367 255.74C182.302 255.417 182.262 255.059 182.429 254.777C182.77 255.517 183.148 256.301 183.835 256.715" fill="#DC7029"/>
<path d="M182.627 257.166C182.627 259.402 181.778 263.554 180.731 263.554C179.684 263.554 178.835 259.402 178.835 257.166C178.835 254.93 179.684 253.118 180.731 253.118C181.778 253.118 182.627 254.93 182.627 257.166Z" fill="#EDA263"/>
<path d="M180.731 253.431C179.978 253.431 179.14 254.965 179.14 257.166C179.14 259.664 180.076 263.241 180.731 263.241C181.385 263.241 182.322 259.664 182.322 257.166C182.322 254.965 181.484 253.431 180.731 253.431ZM180.731 263.867C179.279 263.867 178.53 259.17 178.53 257.166C178.53 254.721 179.497 252.805 180.731 252.805C181.965 252.805 182.932 254.721 182.932 257.166C182.932 259.17 182.183 263.867 180.731 263.867Z" fill="#292625"/>
<path d="M177.293 255.878C177.304 256.023 177.396 256.146 177.492 256.252C177.575 256.343 177.677 256.433 177.799 256.435C177.99 256.438 178.112 256.231 178.193 256.053C178.297 255.822 178.402 255.587 178.43 255.334C178.457 255.081 178.393 254.804 178.205 254.639C177.952 254.878 177.715 255.136 177.498 255.41C177.389 255.546 177.281 255.703 177.293 255.878" fill="#F3ED99"/>
<path d="M176.958 256.568C176.876 256.584 176.824 256.664 176.784 256.74C176.421 257.415 176.257 258.201 176.319 258.97C176.326 259.053 176.348 259.151 176.424 259.178C176.518 259.209 176.598 259.107 176.646 259.018C176.835 258.668 177.024 258.318 177.213 257.968C177.318 257.774 177.426 257.568 177.416 257.347C177.407 257.127 177.17 256.526 176.958 256.568" fill="#F3ED99"/>
<path d="M176.08 261.441C176.232 261.08 176.323 260.692 176.347 260.299C176.356 260.162 176.356 260.02 176.303 259.894C176.251 259.767 176.136 259.66 176.002 259.658C175.89 260.021 175.826 260.399 175.814 260.779C175.806 261.021 175.824 261.28 175.972 261.468C175.984 261.484 175.999 261.499 176.018 261.501C176.048 261.503 176.068 261.469 176.08 261.441" fill="#F3ED99"/>
<path d="M179.616 257.178C179.665 257.347 179.758 257.527 179.924 257.575C180.087 257.621 180.262 257.517 180.353 257.371C180.445 257.225 180.471 257.048 180.492 256.876C180.604 255.955 180.628 255.023 180.563 254.097C180.556 253.998 180.516 253.869 180.419 253.876C180.37 253.879 180.332 253.921 180.301 253.96C179.856 254.531 179.662 255.267 179.573 255.992C179.525 256.387 179.505 256.796 179.616 257.178Z" fill="#F3ED99"/>
<path d="M180.035 257.939C179.967 257.954 179.901 257.993 179.864 258.053C179.842 258.09 179.83 258.131 179.821 258.173C179.693 258.711 179.798 259.278 179.948 259.809C179.985 259.942 180.028 260.078 180.12 260.179C180.172 260.236 180.246 260.28 180.321 260.266C180.433 260.244 180.483 260.11 180.508 259.996C180.597 259.59 180.634 259.173 180.623 258.758C180.618 258.563 180.6 258.361 180.505 258.193C180.411 258.024 180.22 257.898 180.035 257.939" fill="#F3ED99"/>
<path d="M184.023 255.347C183.774 255.059 183.505 254.775 183.167 254.609C183.12 254.586 183.066 254.566 183.018 254.584C182.981 254.801 183.044 255.025 183.151 255.216C183.258 255.407 183.406 255.57 183.552 255.731C183.674 255.865 183.797 255.999 183.919 256.133C184.027 256.251 184.162 256.38 184.318 256.353C184.415 256.193 184.405 255.983 184.336 255.808C184.267 255.634 184.145 255.487 184.023 255.347" fill="#F3ED99"/>
<path d="M185.013 257.718C185.085 257.389 184.922 257.056 184.735 256.779C184.682 256.701 184.592 256.614 184.51 256.659C184.365 256.984 184.371 257.375 184.525 257.695C184.56 257.769 184.605 257.841 184.67 257.888C184.736 257.935 184.828 257.951 184.898 257.911C184.963 257.872 184.997 257.794 185.013 257.718Z" fill="#F3ED99"/>
<path d="M180.667 262.78C181.009 262.774 181.212 262.393 181.327 262.063C181.965 260.239 182.173 258.257 181.928 256.335C181.808 255.394 181.533 254.39 180.791 253.825C181.002 255.846 181.082 257.882 181.031 259.914C181.021 260.287 181.008 260.659 180.988 261.031C180.957 261.627 180.908 262.237 180.667 262.78" fill="#DC7029"/>
<path d="M194.928 253.883C194.403 253.499 193.663 253.76 193.135 254.141C191.936 255.006 191.172 256.403 190.804 257.86C190.437 259.317 190.431 260.844 190.498 262.348C190.508 262.573 190.547 262.841 190.746 262.935C191.014 263.062 191.278 262.762 191.43 262.503C192.233 261.132 193.037 259.76 193.84 258.389C194.269 257.656 194.7 256.921 195.05 256.145C195.218 255.772 195.37 255.38 195.385 254.97C195.399 254.559 195.254 254.122 194.928 253.883" fill="#EDA263"/>
<path d="M194.322 254.007C194.022 254.007 193.653 254.149 193.31 254.397C192.272 255.146 191.486 256.404 191.099 257.938C190.731 259.399 190.739 260.914 190.803 262.333C190.815 262.62 190.873 262.651 190.874 262.651L190.876 262.652C190.914 262.652 191.042 262.559 191.169 262.342L193.579 258.228C193.997 257.513 194.43 256.775 194.773 256.013C194.925 255.677 195.068 255.317 195.08 254.958C195.09 254.686 195.008 254.327 194.751 254.138C194.631 254.05 194.491 254.007 194.322 254.007ZM190.876 263.278C190.788 263.278 190.701 263.259 190.619 263.22C190.224 263.033 190.202 262.546 190.194 262.362C190.131 260.964 190.119 259.326 190.509 257.781C190.933 256.103 191.803 254.72 192.96 253.885C193.221 253.697 193.744 253.382 194.322 253.382C194.618 253.382 194.881 253.465 195.105 253.629C195.485 253.907 195.709 254.426 195.689 254.981C195.673 255.45 195.505 255.881 195.326 256.277C194.969 257.068 194.528 257.822 194.101 258.55L191.691 262.664C191.557 262.893 191.272 263.278 190.876 263.278" fill="#292625"/>
<path d="M194.009 256.485C194.075 256.139 194.126 255.78 194.054 255.435C193.925 256.075 193.509 256.648 192.947 256.955C193.065 257.429 193.078 257.943 192.898 258.395C192.718 258.848 192.325 259.226 191.854 259.298C191.92 260.136 191.756 260.991 191.385 261.741C192.069 260.504 192.753 259.267 193.436 258.03C193.563 257.801 193.689 257.572 193.784 257.328C193.889 257.057 193.954 256.772 194.009 256.485" fill="#DC7029"/>
<path d="M196.853 253.883C197.378 253.499 198.119 253.76 198.646 254.141C199.845 255.006 200.609 256.403 200.977 257.86C201.345 259.317 201.351 260.844 201.283 262.348C201.273 262.573 201.234 262.841 201.035 262.935C200.767 263.062 200.503 262.762 200.351 262.503C199.548 261.132 198.745 259.76 197.941 258.389C197.512 257.656 197.082 256.921 196.731 256.145C196.563 255.772 196.411 255.38 196.397 254.97C196.382 254.559 196.527 254.122 196.853 253.883" fill="#EDA263"/>
<path d="M197.459 254.007C197.29 254.007 197.15 254.05 197.03 254.138C196.773 254.327 196.692 254.686 196.701 254.958C196.714 255.317 196.856 255.677 197.008 256.013C197.351 256.775 197.784 257.513 198.203 258.228L200.612 262.342C200.739 262.558 200.867 262.652 200.905 262.652C200.909 262.65 200.966 262.617 200.979 262.333C201.042 260.914 201.05 259.399 200.682 257.938C200.295 256.404 199.51 255.146 198.471 254.397C198.128 254.149 197.759 254.007 197.459 254.007ZM200.905 262.652V262.965V262.652ZM200.905 263.278C200.509 263.278 200.224 262.893 200.09 262.664L197.68 258.55C197.254 257.822 196.812 257.068 196.455 256.277C196.276 255.881 196.109 255.45 196.092 254.981C196.072 254.426 196.296 253.907 196.676 253.629C196.9 253.465 197.163 253.382 197.459 253.382C198.037 253.382 198.561 253.697 198.821 253.885C199.978 254.72 200.849 256.103 201.272 257.781C201.662 259.326 201.65 260.964 201.588 262.362C201.58 262.528 201.557 263.033 201.163 263.22C201.08 263.259 200.993 263.278 200.905 263.278" fill="#292625"/>
<path d="M198.946 256.715C198.895 257.26 198.985 257.819 199.205 258.318C199.283 258.494 199.38 258.667 199.522 258.794C199.665 258.921 199.86 258.998 200.045 258.96C199.957 259.465 200.109 259.98 200.294 260.456C200.414 260.765 200.549 261.068 200.699 261.364C200.602 261.319 200.532 261.23 200.466 261.144C200.123 260.697 199.794 260.239 199.464 259.782C199.316 259.575 199.167 259.368 199.018 259.161C198.926 259.033 198.834 258.905 198.746 258.775C198.13 257.865 197.696 256.826 197.478 255.74C197.413 255.417 197.373 255.059 197.54 254.777C197.88 255.517 198.259 256.301 198.946 256.715" fill="#DC7029"/>
<path d="M197.738 257.166C197.738 259.402 196.889 263.554 195.842 263.554C194.795 263.554 193.946 259.402 193.946 257.166C193.946 254.93 194.795 253.118 195.842 253.118C196.889 253.118 197.738 254.93 197.738 257.166Z" fill="#EDA263"/>
<path d="M195.842 253.431C195.089 253.431 194.25 254.965 194.25 257.166C194.25 259.664 195.187 263.241 195.842 263.241C196.496 263.241 197.433 259.664 197.433 257.166C197.433 254.965 196.594 253.431 195.842 253.431ZM195.842 263.867C194.39 263.867 193.641 259.17 193.641 257.166C193.641 254.721 194.608 252.805 195.842 252.805C197.076 252.805 198.042 254.721 198.042 257.166C198.042 259.17 197.294 263.867 195.842 263.867Z" fill="#292625"/>
<path d="M192.404 255.878C192.415 256.023 192.507 256.146 192.603 256.252C192.687 256.343 192.788 256.433 192.91 256.435C193.102 256.438 193.223 256.231 193.303 256.053C193.408 255.822 193.513 255.587 193.541 255.334C193.568 255.081 193.504 254.804 193.316 254.639C193.063 254.878 192.826 255.136 192.608 255.41C192.5 255.546 192.391 255.703 192.404 255.878" fill="#F3ED99"/>
<path d="M192.069 256.568C191.987 256.584 191.935 256.664 191.895 256.74C191.532 257.415 191.368 258.201 191.43 258.97C191.437 259.053 191.458 259.151 191.535 259.178C191.628 259.209 191.709 259.107 191.757 259.018C191.946 258.668 192.135 258.318 192.325 257.968C192.429 257.774 192.536 257.568 192.527 257.347C192.518 257.127 192.281 256.526 192.069 256.568" fill="#F3ED99"/>
<path d="M191.191 261.441C191.343 261.08 191.434 260.692 191.458 260.299C191.467 260.162 191.466 260.02 191.414 259.894C191.362 259.767 191.247 259.66 191.113 259.658C191.001 260.021 190.937 260.399 190.924 260.779C190.916 261.021 190.935 261.28 191.083 261.468C191.095 261.484 191.11 261.499 191.129 261.501C191.159 261.503 191.179 261.469 191.191 261.441" fill="#F3ED99"/>
<path d="M194.726 257.178C194.775 257.347 194.869 257.527 195.035 257.575C195.198 257.621 195.373 257.517 195.464 257.371C195.555 257.225 195.582 257.048 195.603 256.876C195.715 255.955 195.739 255.023 195.674 254.097C195.667 253.998 195.626 253.869 195.53 253.876C195.481 253.879 195.443 253.921 195.412 253.96C194.967 254.531 194.773 255.267 194.684 255.992C194.636 256.387 194.616 256.796 194.726 257.178" fill="#F3ED99"/>
<path d="M195.146 257.939C195.078 257.954 195.012 257.993 194.975 258.053C194.953 258.09 194.941 258.131 194.931 258.173C194.804 258.711 194.908 259.278 195.059 259.809C195.096 259.942 195.139 260.078 195.231 260.179C195.283 260.236 195.357 260.28 195.432 260.266C195.544 260.244 195.593 260.11 195.619 259.996C195.708 259.59 195.745 259.173 195.734 258.758C195.728 258.563 195.711 258.361 195.616 258.193C195.522 258.024 195.331 257.898 195.146 257.939" fill="#F3ED99"/>
<path d="M199.134 255.347C198.885 255.059 198.616 254.775 198.277 254.609C198.231 254.586 198.177 254.566 198.129 254.584C198.092 254.801 198.155 255.025 198.262 255.216C198.369 255.407 198.516 255.57 198.663 255.731C198.785 255.865 198.908 255.999 199.03 256.133C199.138 256.251 199.273 256.38 199.428 256.353C199.526 256.193 199.516 255.983 199.447 255.808C199.378 255.634 199.256 255.487 199.134 255.347" fill="#F3ED99"/>
<path d="M200.124 257.718C200.196 257.389 200.034 257.056 199.846 256.779C199.793 256.701 199.702 256.614 199.62 256.659C199.477 256.984 199.482 257.375 199.635 257.695C199.671 257.769 199.715 257.841 199.781 257.888C199.848 257.935 199.939 257.951 200.009 257.911C200.075 257.872 200.108 257.794 200.124 257.718Z" fill="#F3ED99"/>
<path d="M195.778 262.78C196.12 262.774 196.323 262.393 196.438 262.063C197.076 260.239 197.284 258.257 197.039 256.335C196.919 255.394 196.644 254.39 195.902 253.825C196.113 255.846 196.193 257.882 196.142 259.914C196.132 260.287 196.119 260.659 196.099 261.031C196.068 261.627 196.019 262.237 195.778 262.78" fill="#DC7029"/>
<path d="M169.069 196.591C166.103 203.74 164.408 211.511 161.762 218.828C159.116 226.145 155.267 233.278 149.347 237.186C148.157 237.972 146.839 238.63 145.473 238.549C145.46 238.548 145.446 238.547 145.432 238.546C143.616 238.413 142.792 236.145 144.019 234.764C145.234 233.397 145.891 231.21 146.347 229.221C147.752 223.088 148.837 216.84 150.674 210.865C152.511 204.889 155.173 199.11 159.226 194.88C163.279 190.65 168.88 188.144 174.225 189.289C171.793 190.784 170.267 193.702 169.069 196.591Z" fill="#D34B20"/>
<path d="M171.584 189.325C167.384 189.325 162.959 191.43 159.443 195.099C155.873 198.825 153.1 204.012 150.964 210.959C149.68 215.135 148.748 219.525 147.847 223.77C147.462 225.583 147.064 227.458 146.643 229.293C146.214 231.164 145.554 233.501 144.244 234.975C143.743 235.539 143.604 236.332 143.881 237.044C144.151 237.737 144.739 238.181 145.454 238.234L145.492 238.237C146.879 238.315 148.279 237.52 149.183 236.923C154.231 233.59 158.252 227.636 161.477 218.72C162.605 215.601 163.576 212.342 164.516 209.19C165.779 204.956 167.084 200.577 168.788 196.469C169.785 194.065 171.197 191.164 173.428 189.462C172.821 189.371 172.204 189.325 171.584 189.325V189.325ZM145.703 238.868C145.621 238.868 145.538 238.866 145.456 238.861L145.407 238.858C144.471 238.789 143.668 238.183 143.316 237.277C142.951 236.339 143.134 235.295 143.794 234.553C145.009 233.185 145.638 230.947 146.05 229.15C146.469 227.32 146.867 225.447 147.251 223.637C148.156 219.378 149.091 214.974 150.383 210.77C152.548 203.727 155.37 198.458 159.009 194.661C162.639 190.872 167.222 188.699 171.584 188.699C172.499 188.699 173.408 188.795 174.288 188.983C174.41 189.009 174.505 189.11 174.526 189.237C174.547 189.364 174.489 189.492 174.382 189.558C171.926 191.067 170.402 194.175 169.349 196.714C167.657 200.792 166.357 205.154 165.098 209.373C164.156 212.534 163.182 215.802 162.048 218.937C158.775 227.985 154.675 234.041 149.512 237.45C148.59 238.059 147.191 238.868 145.703 238.868" fill="#292625"/>
<path d="M205.441 196.591C208.406 203.74 210.101 211.511 212.747 218.828C215.393 226.145 219.242 233.278 225.162 237.186C226.352 237.972 227.67 238.63 229.036 238.549C229.05 238.548 229.063 238.547 229.077 238.546C230.893 238.413 231.717 236.145 230.49 234.764C229.276 233.397 228.619 231.21 228.163 229.221C226.757 223.088 225.672 216.84 223.835 210.865C221.998 204.889 219.336 199.11 215.283 194.88C211.231 190.65 205.629 188.144 200.284 189.289C202.716 190.784 204.242 193.702 205.441 196.591" fill="#D34B20"/>
<path d="M201.082 189.462C203.312 191.164 204.724 194.065 205.721 196.469C207.425 200.577 208.73 204.956 209.993 209.19C210.933 212.342 211.905 215.601 213.033 218.72C216.257 227.636 220.279 233.59 225.326 236.923C226.23 237.52 227.615 238.321 229.018 238.236L229.052 238.234C229.771 238.181 230.358 237.737 230.628 237.044C230.905 236.332 230.766 235.539 230.265 234.975C228.955 233.5 228.295 231.164 227.866 229.293C227.445 227.457 227.047 225.582 226.662 223.768C225.76 219.523 224.829 215.135 223.545 210.959C221.409 204.013 218.636 198.825 215.066 195.099C211.031 190.888 205.793 188.755 201.082 189.462ZM228.805 238.868C227.318 238.868 225.92 238.059 224.997 237.45C219.834 234.041 215.734 227.985 212.461 218.937C211.327 215.802 210.353 212.533 209.411 209.373C208.153 205.154 206.852 200.792 205.16 196.714C204.107 194.175 202.583 191.067 200.127 189.558C200.02 189.492 199.962 189.364 199.983 189.237C200.004 189.11 200.099 189.009 200.222 188.983C201.101 188.795 202.011 188.699 202.925 188.699C207.287 188.699 211.871 190.872 215.501 194.661C219.139 198.458 221.961 203.728 224.126 210.77C225.418 214.973 226.353 219.376 227.257 223.634C227.642 225.446 228.04 227.319 228.459 229.15C228.871 230.947 229.5 233.185 230.715 234.553C231.375 235.295 231.558 236.339 231.194 237.277C230.841 238.183 230.038 238.789 229.099 238.858L229.056 238.861C228.971 238.866 228.888 238.868 228.805 238.868" fill="#292625"/>
<path d="M148.11 255.749C147.942 255.749 147.805 255.608 147.805 255.435V237.909C147.805 237.737 147.942 237.596 148.11 237.596C148.278 237.596 148.415 237.737 148.415 237.909V255.435C148.415 255.608 148.278 255.749 148.11 255.749" fill="#292625"/>
<path d="M225.162 250.162C224.993 250.162 224.857 250.021 224.857 249.849V237.186C224.857 237.013 224.993 236.873 225.162 236.873C225.33 236.873 225.466 237.013 225.466 237.186V249.849C225.466 250.021 225.33 250.162 225.162 250.162" fill="#292625"/>
<path d="M154.945 253.694C154.945 257.572 151.885 260.715 148.11 260.715C144.335 260.715 141.274 257.572 141.274 253.694C141.274 249.818 144.335 246.674 148.11 246.674C151.885 246.674 154.945 249.818 154.945 253.694" fill="#F68A14"/>
<path d="M148.11 246.988C144.509 246.988 141.579 249.996 141.579 253.694C141.579 257.393 144.509 260.401 148.11 260.401C151.711 260.401 154.641 257.393 154.641 253.694C154.641 249.996 151.711 246.988 148.11 246.988V246.988ZM148.11 261.027C144.173 261.027 140.97 257.738 140.97 253.694C140.97 249.651 144.173 246.362 148.11 246.362C152.047 246.362 155.25 249.651 155.25 253.694C155.25 257.738 152.047 261.027 148.11 261.027" fill="#292625"/>
<path d="M232.026 254.555C232.026 257.73 229.519 260.304 226.427 260.304C223.336 260.304 220.829 257.73 220.829 254.555C220.829 251.38 223.336 248.805 226.427 248.805C229.519 248.805 232.026 251.38 232.026 254.555Z" fill="#F68A14"/>
<path d="M226.427 249.118C223.508 249.118 221.134 251.557 221.134 254.555C221.134 257.553 223.508 259.992 226.427 259.992C229.346 259.992 231.721 257.553 231.721 254.555C231.721 251.557 229.346 249.118 226.427 249.118ZM226.427 260.618C223.173 260.618 220.524 257.898 220.524 254.555C220.524 251.212 223.173 248.493 226.427 248.493C229.683 248.493 232.331 251.212 232.331 254.555C232.331 257.898 229.683 260.618 226.427 260.618Z" fill="#292625"/>
<path d="M221.848 254.253C221.78 255.047 222.003 255.863 222.461 256.506C222.92 257.148 223.612 257.612 224.369 257.784C223.105 256.614 222.364 254.868 222.39 253.12C222.032 253.354 221.885 253.818 221.848 254.253Z" fill="#F3ED99"/>
<path d="M224.784 251.312C224.501 251.497 224.215 251.684 223.983 251.933C223.452 252.503 223.269 253.318 223.107 254.089C222.978 253.543 222.921 252.966 223.041 252.417C223.161 251.867 223.475 251.346 223.954 251.072C224.161 250.954 224.391 250.884 224.622 250.83C225.086 250.721 225.563 250.668 226.039 250.675C225.827 250.639 225.624 250.762 225.443 250.881C225.223 251.025 225.003 251.168 224.784 251.312" fill="#F3ED99"/>
<path d="M229.187 251.628C229.489 252.157 229.533 252.794 229.57 253.406C229.384 252.642 228.867 251.971 228.186 251.61C227.506 251.25 226.673 251.205 225.96 251.491C226.327 250.953 226.971 250.627 227.61 250.654C228.249 250.681 228.865 251.061 229.187 251.628" fill="#F3ED99"/>
<path d="M223.573 255.683C223.622 255.911 223.697 256.137 223.831 256.326C224.172 256.804 224.814 256.951 225.214 257.379C224.759 256.841 224.464 256.15 224.446 255.438C224.426 254.644 224.75 253.865 225.251 253.261C225.751 252.656 226.418 252.214 227.124 251.894C226.132 251.709 225.059 252.065 224.36 252.811C223.66 253.557 223.355 254.672 223.573 255.683" fill="#F3ED99"/>
<path d="M228.553 253.043C228.324 252.857 228.084 252.665 227.799 252.604C228.191 253.096 228.425 253.734 228.377 254.368C228.329 255.002 227.977 255.619 227.429 255.914C227.938 255.921 228.446 255.675 228.764 255.266C229.082 254.857 229.204 254.294 229.083 253.785C229.057 253.673 229.019 253.564 228.961 253.465C228.861 253.294 228.705 253.167 228.553 253.043" fill="#D56B1C"/>
<path d="M230.601 255.071C230.646 254.571 230.452 254.068 230.137 253.685C230.245 254.404 230.101 255.16 229.737 255.784C229.374 256.408 228.793 256.895 228.126 257.137C228.767 257.197 229.501 257.169 229.931 256.676C230.079 256.507 230.175 256.297 230.269 256.091C230.417 255.764 230.568 255.429 230.601 255.071" fill="#D56B1C"/>
<path d="M228.734 256.063C228.163 256.278 227.559 256.496 226.96 256.388C226.356 256.279 225.85 255.848 225.468 255.357C225.433 255.755 225.447 256.158 225.51 256.552C225.53 256.679 225.556 256.807 225.614 256.921C225.754 257.194 226.06 257.337 226.358 257.38C226.826 257.447 227.308 257.312 227.714 257.062C228.119 256.812 228.453 256.454 228.734 256.063" fill="#D56B1C"/>
<path d="M224.896 258.159C225.125 258.576 225.543 258.867 225.996 258.977C226.45 259.088 226.933 259.029 227.369 258.86C227.911 258.65 228.423 258.209 228.497 257.619C227.167 258.062 225.663 257.927 224.427 257.252C224.662 257.497 224.732 257.859 224.896 258.159" fill="#D56B1C"/>
<path d="M142.166 253.663C142.075 254.735 142.375 255.837 142.995 256.705C143.614 257.572 144.548 258.198 145.571 258.431C143.863 256.851 142.863 254.494 142.899 252.134C142.415 252.45 142.216 253.077 142.166 253.663Z" fill="#F3ED99"/>
<path d="M146.131 249.692C145.749 249.942 145.363 250.195 145.05 250.531C144.333 251.302 144.086 252.401 143.867 253.443C143.693 252.704 143.615 251.926 143.777 251.184C143.939 250.442 144.364 249.739 145.01 249.369C145.29 249.209 145.601 249.115 145.912 249.042C146.539 248.894 147.182 248.824 147.825 248.832C147.539 248.784 147.265 248.951 147.02 249.111C146.724 249.305 146.427 249.499 146.131 249.692" fill="#F3ED99"/>
<path d="M152.076 250.119C152.482 250.834 152.542 251.694 152.593 252.519C152.342 251.489 151.643 250.583 150.724 250.095C149.806 249.608 148.682 249.548 147.718 249.935C148.214 249.208 149.083 248.767 149.946 248.804C150.81 248.841 151.64 249.353 152.076 250.119Z" fill="#F3ED99"/>
<path d="M144.495 255.595C144.562 255.902 144.664 256.208 144.845 256.462C145.305 257.108 146.171 257.306 146.711 257.884C146.097 257.157 145.699 256.224 145.674 255.263C145.647 254.192 146.085 253.14 146.76 252.324C147.436 251.508 148.336 250.911 149.291 250.479C147.951 250.229 146.502 250.709 145.558 251.717C144.613 252.724 144.201 254.229 144.495 255.595Z" fill="#F3ED99"/>
<path d="M151.219 252.029C150.91 251.778 150.587 251.52 150.202 251.437C150.73 252.102 151.047 252.963 150.982 253.819C150.917 254.674 150.442 255.508 149.701 255.906C150.39 255.916 151.075 255.584 151.505 255.031C151.934 254.479 152.098 253.719 151.935 253.031C151.9 252.881 151.849 252.733 151.771 252.6C151.635 252.369 151.425 252.197 151.219 252.029" fill="#D56B1C"/>
<path d="M153.984 254.767C154.045 254.093 153.783 253.414 153.358 252.897C153.503 253.867 153.309 254.888 152.818 255.73C152.327 256.573 151.544 257.231 150.642 257.558C151.509 257.638 152.5 257.6 153.08 256.935C153.28 256.706 153.409 256.423 153.536 256.145C153.736 255.704 153.94 255.252 153.984 254.767" fill="#D56B1C"/>
<path d="M151.463 256.108C150.692 256.397 149.877 256.692 149.069 256.546C148.253 256.398 147.57 255.818 147.054 255.154C147.007 255.692 147.026 256.235 147.11 256.768C147.138 256.939 147.172 257.112 147.251 257.265C147.44 257.634 147.854 257.827 148.256 257.885C148.888 257.976 149.539 257.793 150.087 257.456C150.634 257.119 151.084 256.635 151.463 256.108" fill="#D56B1C"/>
<path d="M146.282 258.937C146.591 259.5 147.156 259.892 147.768 260.042C148.38 260.191 149.032 260.112 149.621 259.884C150.352 259.6 151.045 259.005 151.144 258.208C149.347 258.806 147.317 258.623 145.65 257.713C145.967 258.044 146.06 258.532 146.282 258.937" fill="#D56B1C"/>
<path d="M163.306 207.865C164.878 202.116 167.257 196.601 170.346 191.543C170.533 191.236 170.729 190.914 170.751 190.553C170.773 190.192 170.552 189.787 170.202 189.748C166.798 193.617 164.335 198.352 163.095 203.408C162.73 204.893 162.499 206.577 163.306 207.865" fill="#F68A14"/>
<path d="M145.32 236.742C145.568 236.978 145.963 236.893 146.284 236.78C147.646 236.302 148.93 235.598 150.108 234.748C153.356 232.402 155.753 228.98 157.485 225.312C159.219 221.643 160.335 217.706 161.444 213.791C161.947 212.013 162.439 210.042 161.669 208.368C160.528 213.665 159.368 219.02 157.041 223.89C154.714 228.759 151.068 233.172 146.2 235.278C145.891 235.412 145.565 235.546 145.348 235.808C145.132 236.071 145.074 236.508 145.32 236.742" fill="#F68A14"/>
<path d="M212.566 210.159C213.123 211.406 213.732 212.717 214.843 213.48C214.256 206.429 210.747 200.032 207.232 193.945C206.317 192.362 205.269 190.67 203.582 190.047C206.576 196.751 209.571 203.455 212.566 210.159" fill="#F68A14"/>
<path d="M213.277 214.648C214.614 219.065 216.42 223.363 218.995 227.157C221.569 230.952 224.941 234.233 228.973 236.294C229.237 235.769 229.057 235.103 228.696 234.643C228.336 234.182 227.826 233.875 227.342 233.555C222.083 230.074 218.951 224.13 216.122 218.399C215.413 216.964 214.638 215.446 213.277 214.648" fill="#F68A14"/>
<path d="M170.246 169.466C169.062 169.73 167.853 170.024 166.841 170.708C165.829 171.392 165.038 172.554 165.109 173.796C176.656 169.093 189.559 168.782 201.805 170.925C205.568 171.584 209.443 172.538 212.404 175.012C211.87 173.339 210.615 171.982 209.159 171.053C207.703 170.124 206.046 169.583 204.388 169.135C193.278 166.133 181.473 166.967 170.246 169.466" fill="#F3ED99"/>
<path d="M157.612 190.714C157.604 190.905 157.624 191.143 157.795 191.217C157.976 191.295 158.162 191.121 158.276 190.957C158.884 190.08 159.156 188.964 159.021 187.896C158.978 187.561 158.89 187.215 158.667 186.966C158.443 186.718 158.055 186.6 157.774 186.777C157.72 188.089 157.666 189.401 157.612 190.714Z" fill="#F3ED99"/>
<path d="M160.792 187.215C160.808 187.531 160.846 187.857 160.997 188.134C161.147 188.41 161.434 188.629 161.743 188.609C162.229 188.577 162.5 188.021 162.615 187.534C162.726 187.061 162.785 186.575 162.789 186.089C162.792 185.703 162.757 185.302 162.565 184.971C162.373 184.64 161.989 184.401 161.624 184.492C161.142 184.612 160.939 185.194 160.865 185.697C160.791 186.199 160.767 186.708 160.792 187.215" fill="#F3ED99"/>
<path d="M166.628 186.378C166.843 186.262 166.957 186.016 167.043 185.782C167.405 184.808 167.56 183.752 167.492 182.711C167.466 182.302 167.348 181.819 166.971 181.685C166.572 181.544 166.176 181.892 165.915 182.231C165.458 182.824 165.08 183.511 165.001 184.263C164.923 185.015 165.193 185.837 165.806 186.256C166.048 186.421 166.37 186.516 166.628 186.378" fill="#F3ED99"/>
<path d="M171.107 181.486C171.024 182.019 170.979 182.558 170.972 183.098C170.965 183.618 171 184.161 171.257 184.609C171.514 185.057 172.053 185.372 172.534 185.209C173.066 185.028 173.293 184.382 173.35 183.81C173.425 183.061 173.334 182.296 173.085 181.588C172.963 181.242 172.795 180.897 172.51 180.673C172.225 180.45 171.801 180.381 171.51 180.596C171.244 180.792 171.158 181.154 171.107 181.486" fill="#F3ED99"/>
<path d="M177.923 179.943C177.461 180.822 177.349 181.889 177.619 182.848C177.792 183.461 178.219 184.098 178.839 184.128C179.511 184.161 180.004 183.471 180.202 182.81C180.416 182.093 180.44 181.317 180.271 180.587C180.18 180.191 180.026 179.798 179.744 179.512C179.463 179.227 179.034 179.07 178.658 179.199C178.324 179.314 178.091 179.625 177.923 179.943" fill="#F3ED99"/>
<path d="M187.309 181.857C187.562 180.974 187.632 179.905 187.011 179.24C186.68 178.887 186.206 178.714 185.737 178.63C185.299 178.551 184.799 178.559 184.473 178.869C184.167 179.16 184.107 179.631 184.107 180.059C184.109 180.842 184.252 181.624 184.527 182.354C184.709 182.837 184.997 183.341 185.481 183.489C185.912 183.621 186.392 183.417 186.702 183.082C187.012 182.747 187.182 182.301 187.309 181.857" fill="#F3ED99"/>
<path d="M215.615 191.251C215.554 190.507 215.529 189.759 215.541 189.012C215.546 188.677 215.563 188.327 215.724 188.036C215.885 187.745 216.236 187.536 216.541 187.652C216.729 187.723 216.86 187.895 216.973 188.065C217.421 188.737 217.746 189.496 217.927 190.29C218.068 190.913 218.112 191.602 217.811 192.162C217.509 192.722 216.761 193.06 216.231 192.723C215.772 192.431 215.661 191.804 215.615 191.251" fill="#F3ED99"/>
<path d="M213.216 185.684C213.12 185.242 212.97 184.785 212.636 184.489C212.302 184.193 211.737 184.132 211.442 184.469C211.294 184.639 211.238 184.872 211.199 185.097C211.059 185.891 211.052 186.71 211.178 187.506C211.245 187.928 211.356 188.36 211.626 188.686C211.895 189.012 212.358 189.201 212.741 189.033C213.215 188.825 213.358 188.211 213.383 187.682C213.415 187.012 213.358 186.338 213.216 185.684" fill="#F3ED99"/>
<path d="M209.1 183.77C209.004 183.327 208.854 182.871 208.52 182.574C208.186 182.278 207.621 182.217 207.326 182.555C207.178 182.724 207.122 182.957 207.083 183.182C206.943 183.976 206.936 184.795 207.062 185.592C207.128 186.014 207.24 186.446 207.509 186.772C207.779 187.098 208.243 187.286 208.625 187.118C209.099 186.911 209.242 186.296 209.267 185.767C209.299 185.098 209.242 184.424 209.1 183.77" fill="#F3ED99"/>
<path d="M203.798 181.971C203.701 181.529 203.551 181.072 203.217 180.776C202.884 180.48 202.318 180.419 202.024 180.756C201.875 180.926 201.82 181.159 201.78 181.384C201.641 182.178 201.634 182.997 201.76 183.794C201.826 184.216 201.938 184.648 202.207 184.973C202.476 185.299 202.94 185.488 203.323 185.32C203.797 185.112 203.939 184.498 203.965 183.969C203.996 183.299 203.94 182.626 203.798 181.971" fill="#F3ED99"/>
<path d="M196.885 181.145C196.788 180.703 196.638 180.246 196.304 179.949C195.97 179.653 195.405 179.592 195.11 179.93C194.962 180.099 194.907 180.333 194.868 180.557C194.728 181.351 194.721 182.17 194.847 182.967C194.913 183.389 195.025 183.821 195.294 184.146C195.563 184.472 196.027 184.661 196.41 184.494C196.884 184.285 197.026 183.671 197.051 183.142C197.083 182.473 197.027 181.799 196.885 181.145" fill="#F3ED99"/>
<path d="M154.128 209.072C153.096 209.879 152.097 210.803 151.543 212.008C150.754 213.724 150.973 215.759 150.366 217.552C152.845 214.44 156.174 212.05 159.872 210.73C160.11 208.811 160.599 206.924 161.32 205.137C158.737 206.04 156.298 207.375 154.128 209.072Z" fill="#F68A14"/>
<path d="M217.144 215.256C217.833 215.879 218.763 216.119 219.646 216.378C221.568 216.94 223.442 217.68 225.236 218.585C223.698 216.726 224.274 213.545 222.464 211.965C222.007 211.566 221.443 211.322 220.885 211.093C218.843 210.255 216.753 209.544 214.724 208.673C216.064 210.619 215.402 213.681 217.144 215.256" fill="#F68A14"/>
<path d="M225.786 207.624C225.755 207.772 224.634 207.636 223.254 207.644C221.874 207.693 220.759 207.875 220.723 207.729C220.692 207.622 221.803 207.22 223.244 207.169C224.687 207.16 225.813 207.517 225.786 207.624" fill="#292625"/>
<path d="M223.206 203.605C223.189 203.754 222.304 203.754 221.238 203.913C220.178 204.107 219.338 204.394 219.276 204.258C219.224 204.159 220.03 203.652 221.164 203.443C222.304 203.274 223.224 203.494 223.206 203.605Z" fill="#292625"/>
<path d="M229.986 223.431C229.959 223.495 229.626 223.415 229.104 223.275C228.579 223.142 227.856 222.97 227.047 222.843C226.236 222.729 225.496 222.682 224.955 222.657C224.416 222.639 224.074 222.618 224.067 222.549C224.06 222.488 224.392 222.39 224.944 222.321C225.496 222.26 226.27 222.254 227.114 222.372C227.955 222.505 228.695 222.737 229.208 222.956C229.718 223.183 230.009 223.374 229.986 223.431" fill="#292625"/>
<path d="M230.481 227.216C230.421 227.354 229.329 226.97 227.949 226.675C226.561 226.419 225.409 226.356 225.404 226.205C225.395 226.094 226.588 225.941 228.037 226.208C229.478 226.517 230.528 227.117 230.481 227.216" fill="#292625"/>
<path d="M150.014 202.349C149.998 202.232 151.51 201.93 153.403 201.892C155.298 201.882 156.816 202.146 156.803 202.264C156.789 202.408 155.273 202.357 153.409 202.368C151.546 202.404 150.032 202.493 150.014 202.349" fill="#292625"/>
<path d="M150.414 205.676C150.379 205.627 150.545 205.43 150.871 205.182C151.201 204.94 151.704 204.669 152.301 204.487C152.901 204.318 153.467 204.275 153.871 204.302C154.276 204.335 154.518 204.412 154.514 204.474C154.509 204.542 154.264 204.586 153.884 204.638C153.503 204.697 152.986 204.788 152.428 204.945C151.873 205.114 151.387 205.318 151.033 205.474C150.684 205.636 150.454 205.733 150.414 205.676Z" fill="#292625"/>
<path d="M144.366 223.962C144.318 223.862 145.552 223.177 147.223 222.747C148.903 222.357 150.306 222.399 150.307 222.51C150.315 222.661 148.961 222.831 147.33 223.21C145.709 223.626 144.425 224.1 144.366 223.962" fill="#292625"/>
<path d="M143.783 228.401C143.737 228.365 143.901 228.058 144.258 227.628C144.623 227.207 145.209 226.693 145.951 226.278C146.702 225.882 147.447 225.675 147.991 225.603C148.538 225.543 148.877 225.576 148.88 225.636C148.886 225.707 148.562 225.793 148.057 225.932C147.552 226.084 146.873 226.327 146.167 226.699C145.47 227.088 144.892 227.527 144.485 227.87C144.089 228.219 143.837 228.446 143.783 228.401" fill="#292625"/>
<path d="M221.868 208.313C221.996 208.313 222.1 208.335 222.1 208.361C222.1 208.388 221.996 208.41 221.868 208.41C221.741 208.41 221.637 208.388 221.637 208.361C221.637 208.335 221.741 208.313 221.868 208.313Z" fill="#292625"/>
<path d="M167.024 240.002C166.919 239.956 167.219 239.025 167.889 238.042C168.582 237.076 169.345 236.486 169.421 236.574C169.517 236.679 168.927 237.396 168.265 238.319C167.625 239.258 167.153 240.062 167.024 240.002" fill="#292625"/>
<path d="M169.027 244.811C168.915 244.806 168.886 243.818 169.23 242.661C169.605 241.516 170.189 240.729 170.282 240.792C170.406 240.868 170.026 241.722 169.67 242.807C169.345 243.901 169.17 244.823 169.027 244.811Z" fill="#292625"/>
<path d="M203.852 245.454C203.743 245.523 203.036 244.543 202.272 243.266C201.508 241.988 200.977 240.897 201.086 240.828C201.195 240.76 201.902 241.739 202.666 243.017C203.43 244.294 203.961 245.385 203.852 245.454" fill="#292625"/>
<path d="M206.779 242.312C206.681 242.397 206.061 241.803 205.393 240.986C204.725 240.169 204.263 239.438 204.361 239.353C204.459 239.269 205.079 239.863 205.747 240.68C206.415 241.497 206.877 242.228 206.779 242.312Z" fill="#292625"/>
<path d="M172.043 231.32C171.983 231.307 171.98 231.04 172.059 230.619C172.143 230.2 172.33 229.634 172.636 229.058C172.952 228.487 173.322 228.026 173.624 227.732C173.931 227.442 174.154 227.303 174.196 227.349C174.243 227.398 174.103 227.619 173.871 227.952C173.644 228.289 173.338 228.752 173.04 229.289C172.753 229.832 172.53 230.343 172.371 230.719C172.218 231.097 172.108 231.335 172.043 231.32" fill="#292625"/>
<path d="M174.924 232.793C174.808 232.792 174.734 232.004 174.956 231.067C175.201 230.136 175.636 229.483 175.739 229.539C175.863 229.604 175.634 230.311 175.404 231.185C175.195 232.065 175.064 232.798 174.924 232.793" fill="#292625"/>
<path d="M205.291 231.468C205.224 231.488 205.055 231.092 204.786 230.465C204.507 229.841 204.097 228.996 203.558 228.114C203.003 227.243 202.428 226.507 201.993 225.986C201.55 225.473 201.271 225.149 201.316 225.095C201.354 225.049 201.712 225.285 202.227 225.751C202.734 226.224 203.373 226.954 203.948 227.858C204.507 228.772 204.885 229.674 205.091 230.344C205.288 231.02 205.347 231.452 205.291 231.468" fill="#292625"/>
<path d="M207.148 228.527C207.087 228.555 206.949 228.38 206.755 228.096C206.556 227.813 206.286 227.429 205.963 227.026C205.632 226.629 205.31 226.29 205.074 226.04C204.835 225.795 204.691 225.625 204.727 225.568C204.761 225.515 204.973 225.589 205.278 225.778C205.58 225.971 205.963 226.295 206.317 226.72C206.664 227.152 206.908 227.596 207.042 227.934C207.17 228.276 207.204 228.503 207.148 228.527Z" fill="#292625"/>
<path d="M201.322 234.839C201.2 234.878 200.92 234.313 200.697 233.577C200.474 232.841 200.392 232.212 200.514 232.174C200.636 232.134 200.916 232.7 201.139 233.435C201.362 234.172 201.444 234.8 201.322 234.839Z" fill="#292625"/>
<path d="M199.311 249.723C199.168 249.7 199.219 248.682 199.144 247.441C199.036 246.202 198.837 245.203 198.975 245.159C199.079 245.12 199.492 246.102 199.606 247.405C199.684 248.71 199.42 249.745 199.311 249.723" fill="#292625"/>
<path d="M204.288 216.748C204.316 216.798 203.92 217.089 203.214 217.449C202.503 217.794 201.462 218.159 200.268 218.343C199.069 218.5 197.971 218.439 197.195 218.306C196.421 218.156 195.963 217.987 195.976 217.931C195.992 217.859 196.472 217.911 197.233 217.972C197.998 218.017 199.051 218.022 200.204 217.872C201.353 217.695 202.366 217.395 203.09 217.139C203.806 216.867 204.254 216.683 204.288 216.748" fill="#292625"/>
<path d="M207.171 217.654C207.208 217.702 207.036 217.914 206.697 218.187C206.355 218.454 205.83 218.759 205.204 218.974C204.573 219.177 203.974 219.246 203.545 219.237C203.114 219.219 202.854 219.151 202.856 219.09C202.858 219.02 203.117 218.969 203.52 218.901C203.924 218.826 204.472 218.711 205.061 218.522C205.646 218.32 206.155 218.083 206.525 217.901C206.89 217.713 207.129 217.599 207.171 217.654" fill="#292625"/>
<path d="M175.631 217.649C175.646 217.705 175.266 217.864 174.617 217.999C173.967 218.118 173.04 218.163 172.036 217.999C171.036 217.809 170.178 217.448 169.604 217.112C169.036 216.761 168.73 216.481 168.763 216.434C168.801 216.373 169.167 216.549 169.748 216.81C170.338 217.058 171.166 217.349 172.115 217.53C173.068 217.686 173.943 217.696 174.579 217.665C175.212 217.619 175.614 217.578 175.631 217.649" fill="#292625"/>
<path d="M173.621 219.988C173.621 220.119 172.915 220.225 172.044 220.225C171.174 220.225 170.468 220.119 170.468 219.988C170.468 219.857 171.174 219.75 172.044 219.75C172.915 219.75 173.621 219.857 173.621 219.988Z" fill="#292625"/>
<path d="M207.441 163.764C207.471 163.827 207.278 163.989 206.975 164.23C206.675 164.48 206.276 164.83 205.882 165.266C205.498 165.711 205.197 166.152 204.984 166.483C204.78 166.816 204.641 167.029 204.578 167.005C204.521 166.984 204.553 166.725 204.693 166.33C204.84 165.94 205.123 165.428 205.539 164.947C205.966 164.474 206.435 164.136 206.798 163.947C207.167 163.766 207.415 163.708 207.441 163.764" fill="#292625"/>
<path d="M210.878 167.026C210.866 167.098 210.595 167.113 210.185 167.154C209.772 167.211 209.219 167.341 208.651 167.608C208.093 167.899 207.651 168.263 207.351 168.56C207.065 168.864 206.885 169.074 206.823 169.038C206.773 169.012 206.853 168.735 207.1 168.344C207.359 167.963 207.824 167.504 208.45 167.18C209.085 166.878 209.724 166.789 210.176 166.818C210.628 166.863 210.889 166.97 210.878 167.026" fill="#292625"/>
<path d="M167.602 169.359C167.552 169.48 166.612 169.182 165.504 168.694C164.396 168.206 163.539 167.713 163.589 167.593C163.639 167.472 164.578 167.77 165.686 168.257C166.795 168.745 167.652 169.238 167.602 169.359Z" fill="#292625"/>
<path d="M169.321 167.594C169.264 167.712 168.704 167.544 168.071 167.218C167.437 166.893 166.971 166.535 167.028 166.417C167.085 166.3 167.644 166.468 168.278 166.793C168.911 167.119 169.378 167.477 169.321 167.594Z" fill="#292625"/>
<path d="M165.57 176.804C165.56 176.835 165.45 176.841 165.261 176.824C165.167 176.816 165.053 176.802 164.923 176.783C164.791 176.768 164.646 176.731 164.479 176.733C163.819 176.68 162.909 176.682 161.923 176.87C160.944 177.09 160.104 177.451 159.516 177.763C159.361 177.828 159.241 177.92 159.126 177.987C159.013 178.057 158.913 178.115 158.829 178.16C158.662 178.25 158.558 178.289 158.537 178.264C158.517 178.239 158.582 178.151 158.719 178.013C158.788 177.944 158.875 177.862 158.978 177.769C159.083 177.678 159.196 177.563 159.346 177.476C159.915 177.074 160.791 176.636 161.831 176.404C162.878 176.203 163.85 176.257 164.526 176.4C164.698 176.421 164.845 176.482 164.976 176.524C165.107 176.568 165.218 176.609 165.307 176.645C165.486 176.718 165.579 176.773 165.57 176.804Z" fill="#292625"/>
<path d="M185.945 171.714C185.924 171.843 185.137 171.816 184.188 171.654C183.238 171.491 182.485 171.255 182.506 171.125C182.527 170.995 183.314 171.022 184.264 171.185C185.214 171.348 185.967 171.584 185.945 171.714Z" fill="#292625"/>
<path d="M188.225 170.58C188.189 170.706 187.517 170.609 186.726 170.364C185.935 170.119 185.324 169.819 185.361 169.693C185.397 169.567 186.069 169.664 186.86 169.909C187.651 170.154 188.262 170.455 188.225 170.58" fill="#292625"/>
<path d="M207.196 176.642C207.134 176.757 206.253 176.384 205.228 175.808C204.202 175.233 203.421 174.673 203.482 174.558C203.543 174.443 204.424 174.816 205.45 175.391C206.475 175.967 207.257 176.526 207.196 176.642" fill="#292625"/>
<path d="M210.308 175.835C210.268 175.959 209.657 175.862 208.945 175.619C208.233 175.375 207.688 175.076 207.728 174.952C207.769 174.827 208.379 174.924 209.092 175.168C209.804 175.411 210.348 175.71 210.308 175.835Z" fill="#292625"/>
<path d="M195.332 161.882C195.4 161.994 194.625 162.618 193.601 163.276C192.577 163.935 191.692 164.378 191.624 164.267C191.557 164.156 192.331 163.532 193.356 162.873C194.379 162.215 195.264 161.771 195.332 161.882" fill="#292625"/>
</g>
<defs>
<clipPath id="clip0_2_4">
<rect width="98" height="109" fill="white" transform="translate(138 157)"/>
</clipPath>
</defs>
</svg>
