<svg width="135" height="141" viewBox="0 0 135 141" fill="none" xmlns="http://www.w3.org/2000/svg">
<g clip-path="url(#clip0_114_878)">
<rect width="135" height="141" />
<path d="M110.271 131.508C110.271 134.612 89.7587 137.128 64.4558 137.128C39.1528 137.128 18.6405 134.612 18.6405 131.508C18.6405 128.405 39.1528 125.888 64.4558 125.888C89.7587 125.888 110.271 128.405 110.271 131.508Z" fill="#AFAFAF" fill-opacity="0.5"/>
<path d="M55.8835 14.8775H73.3142C88.2996 15.8195 98.3763 24.8253 104.176 32.36H110.28C110.312 31.4574 99.0399 6.07083 73.3142 4.45366H64.7421H64.4557H55.8835C30.1579 6.07083 18.8904 31.4574 18.9177 32.36H25.0219C30.8215 24.8253 40.8981 15.8195 55.8835 14.8775Z" fill="#F3ED99"/>
<path d="M104.29 32.1361H109.998C109.567 30.8113 106.703 24.7756 101.19 18.7158C95.7765 12.7709 86.5453 5.50984 73.3007 4.67708L55.8836 4.67754C42.6526 5.50985 33.4214 12.7709 28.0126 18.7158C22.4948 24.7756 19.6314 30.8113 19.1996 32.1361H24.9083C30.6852 24.6651 40.7255 15.6059 55.87 14.6541L73.3143 14.6536C88.4724 15.6059 98.5172 24.6651 104.29 32.1361ZM110.28 32.5839H104.176C104.108 32.5839 104.04 32.5512 103.994 32.4957C98.29 25.0814 88.3315 16.046 73.3007 15.1009L55.8836 15.1013C40.8664 16.046 30.9125 25.0814 25.2037 32.4957C25.1628 32.5512 25.0946 32.5839 25.0219 32.5839H18.9178C18.795 32.5839 18.6951 32.4876 18.6905 32.3667C18.6723 31.7332 21.704 25.012 27.5763 18.5259C33.0532 12.471 42.4117 5.076 55.87 4.23026L73.3143 4.22982C86.7907 5.07601 96.1447 12.471 101.626 18.5259C107.499 25.012 110.53 31.7332 110.507 32.3667C110.507 32.4876 110.407 32.5839 110.28 32.5839Z" fill="#292625"/>
<path d="M55.8835 14.8774H73.3142C90.6495 15.9671 101.422 27.8496 106.594 35.7612H110.28C110.312 34.8582 99.0399 9.47161 73.3142 7.85445H64.7421H64.4557H55.8835C30.1579 9.47161 18.8904 34.8582 18.9177 35.7612H22.6084C27.7808 27.8496 38.5483 15.9671 55.8835 14.8774Z" fill="#2E2227"/>
<path d="M34.3305 47.7192C29.658 59.0246 20.3586 65.9799 13.5591 63.2542C6.76405 60.5285 5.03688 49.1542 9.70931 37.8488C14.3817 26.5435 23.6812 19.5886 30.4762 22.3143C37.2758 25.04 38.9984 36.4143 34.3305 47.7192Z" fill="#F2591D"/>
<path d="M27.3444 22.199C21.0766 22.199 14.0089 28.7084 10.1592 38.0285C5.59583 49.0724 7.20026 60.1911 13.7408 62.8134C14.6634 63.1827 15.6543 63.3699 16.6906 63.3699C22.9629 63.3699 30.0307 56.8605 33.8804 47.5403C36.1075 42.1502 36.9393 36.5851 36.2257 31.8702C35.5257 27.2443 33.4168 24.0078 30.2943 22.755C29.3761 22.3861 28.3807 22.199 27.3444 22.199ZM16.6906 64.3213C15.5316 64.3213 14.4134 64.1109 13.3771 63.6949C6.34577 60.8748 4.49589 49.2 9.26377 37.6695C13.259 28.0001 20.6949 21.2471 27.3444 21.2471C28.508 21.2471 29.6216 21.458 30.6579 21.8735C34.1122 23.2578 36.4302 26.7581 37.1802 31.7296C37.921 36.611 37.0665 42.3535 34.7758 47.899C30.7806 57.5683 23.3447 64.3213 16.6906 64.3213Z" fill="#292625"/>
<path d="M35.3166 48.9488C30.1988 61.3358 32.7032 79.8177 16.8405 68.0798C12.5726 64.6695 11.7818 53.9516 16.8996 41.565C22.0175 29.1784 30.0851 21.3858 35.3757 22.8288C54.0745 27.9288 40.4345 36.5622 35.3166 48.9488Z" fill="#F3ED99"/>
<path d="M34.0577 22.8814C28.7307 22.8814 21.6039 30.7747 17.1088 41.6493C11.7909 54.5212 13.0726 64.7843 16.9815 67.9062C20.3449 70.3924 22.9811 71.6031 25.0401 71.6031C29.4262 71.6031 30.6942 65.9023 32.1578 59.3011C32.9396 55.7843 33.7486 52.1474 35.1076 48.8647C36.4803 45.5351 38.4983 42.4328 40.2754 39.6959C43.1162 35.3257 45.566 31.5514 44.3979 28.5396C43.5116 26.2679 40.5436 24.4708 35.3122 23.0448C34.9167 22.9364 34.494 22.8814 34.0577 22.8814ZM25.0401 72.0508C22.8766 72.0508 20.1495 70.8106 16.7042 68.2591C12.6636 65.031 11.2864 54.5521 16.6906 41.4805C21.2494 30.4442 28.5535 22.4336 34.0577 22.4336C34.5349 22.4336 34.9985 22.4941 35.4348 22.6132C40.8845 24.1001 43.8707 25.9321 44.8206 28.3794C46.0751 31.6025 43.5616 35.465 40.6572 39.9372C38.8892 42.658 36.8847 45.7415 35.5257 49.0335C34.1849 52.2804 33.3804 55.8984 32.6032 59.3969C31.0942 66.187 29.7898 72.0508 25.0401 72.0508Z" fill="#292625"/>
<path d="M41.189 51.6839C36.0712 64.0705 27.799 72.4589 22.7129 70.42C17.6314 68.3811 17.6542 56.6867 22.772 44.3001C27.8944 31.9135 36.1621 23.525 41.2481 25.5639C46.3342 27.6028 46.3069 39.2973 41.189 51.6839Z" fill="#2E2227"/>
<path d="M99.1263 47.7192C103.799 59.0246 113.098 65.9799 119.898 63.2542C126.693 60.5285 128.42 49.1542 123.747 37.8488C119.075 26.5435 109.776 19.5886 102.981 22.3143C96.181 25.04 94.4584 36.4143 99.1263 47.7192Z" fill="#F2591D"/>
<path d="M106.108 22.199C105.076 22.199 104.08 22.3861 103.162 22.755C96.6218 25.3778 95.0128 36.496 99.5762 47.5403C103.426 56.86 110.494 63.3694 116.766 63.3699C117.802 63.3699 118.793 63.1827 119.711 62.8134C122.838 61.5611 124.943 58.3241 125.643 53.6987C126.361 48.9833 125.525 43.4182 123.297 38.0285C119.448 28.7084 112.38 22.199 106.108 22.199ZM116.766 64.3213C110.112 64.3213 102.676 57.5679 98.6808 47.899C93.9174 36.3688 95.7628 24.6937 102.799 21.8735C103.835 21.458 104.949 21.2471 106.108 21.2471C112.762 21.2471 120.198 28.0001 124.193 37.6695C126.484 43.2149 127.338 48.9578 126.602 53.8393C125.847 58.8108 123.529 62.311 120.079 63.6949C119.039 64.1109 117.925 64.3213 116.766 64.3213Z" fill="#292625"/>
<path d="M98.14 48.9488C103.258 61.3358 100.753 79.8177 116.616 68.0798C120.884 64.6695 121.675 53.9516 116.557 41.565C111.439 29.1784 103.372 21.3858 98.0809 22.8288C79.3821 27.9288 93.0222 36.5622 98.14 48.9488Z" fill="#F3ED99"/>
<path d="M99.3991 22.8814C98.9627 22.8814 98.54 22.9364 98.1446 23.0448C92.9131 24.4708 89.9451 26.2679 89.0588 28.5396C87.8907 31.5514 90.3405 35.3257 93.1812 39.6964C94.9584 42.4328 96.9765 45.5351 98.3491 48.8647C99.7081 52.1474 100.517 55.7838 101.299 59.3011C102.762 65.9023 104.031 71.6031 108.417 71.6031C110.476 71.6031 113.112 70.3924 116.48 67.9009C120.38 64.7843 121.666 54.5212 116.348 41.6493C111.853 30.7747 104.726 22.8814 99.3991 22.8814ZM108.417 72.0508C103.667 72.0508 102.363 66.187 100.854 59.3964C100.076 55.8984 99.2718 52.2804 97.9309 49.0335C96.5674 45.7415 94.5675 42.658 92.7995 39.9372C89.8951 35.465 87.3816 31.6025 88.6361 28.3798C89.586 25.9321 92.5676 24.1001 98.0218 22.6132C98.4582 22.4941 98.9218 22.4336 99.3991 22.4336C104.903 22.4336 112.207 30.4442 116.766 41.4805C122.17 54.5521 120.793 65.031 116.757 68.2537C113.303 70.8106 110.576 72.0508 108.417 72.0508Z" fill="#292625"/>
<path d="M92.2676 51.6839C97.3855 64.0705 105.658 72.4589 110.739 70.42C115.825 68.3811 115.802 56.6867 110.68 44.3001C105.562 31.9135 97.29 23.525 92.2085 25.5639C87.1225 27.6028 87.1452 39.2973 92.2676 51.6839Z" fill="#2E2227"/>
<path d="M105.839 55.9189C109.244 52.9894 111.971 49.1583 113.716 44.8602C107.503 46.3784 100.594 43.9142 96.4583 38.7059C98.9945 38.4932 101.585 39.1898 103.731 40.6597C102.149 36.0966 98.9672 32.1969 94.9675 29.9109C97.6037 29.7474 100.276 30.4016 102.585 31.7738C92.1222 24.7124 79.0639 22.2468 66.9874 25.054C66.8738 25.08 66.7601 25.1082 66.6465 25.1359C66.5329 25.1082 66.4193 25.08 66.3056 25.054C54.2337 22.2468 41.1754 24.7124 30.7125 31.7738C33.0214 30.4016 35.6939 29.7474 38.3301 29.9109C34.3258 32.1969 31.1488 36.0966 29.5671 40.6597C31.7078 39.1898 34.3031 38.4932 36.8393 38.7059C32.7032 43.9142 25.7946 46.3784 19.5813 44.8602C21.3267 49.1583 24.0538 52.9894 27.4581 55.9189C25.1764 55.9959 24.3083 59.1192 24.1083 61.5633C23.3766 70.4317 23.0811 79.4281 24.5674 88.1869C26.0537 96.9456 29.4398 105.519 35.2621 111.855C41.08 118.191 49.5203 122.035 57.7244 120.828C60.7469 120.384 63.6967 119.289 66.6465 118.35C69.5963 119.289 72.5507 120.384 75.5687 120.828C83.7772 122.035 92.2176 118.191 98.0355 111.855C103.853 105.519 107.244 96.9456 108.73 88.1869C110.216 79.4281 109.921 70.4317 109.189 61.5633C108.985 59.1192 108.117 55.9959 105.839 55.9189Z" fill="#F2591D"/>
<path d="M66.6465 117.874C66.6965 117.874 66.7465 117.882 66.7965 117.897C67.3465 118.073 67.901 118.254 68.4555 118.436C70.8008 119.206 73.2279 120.002 75.6414 120.358C76.6141 120.501 77.614 120.573 78.6139 120.573C85.3544 120.574 92.4812 117.195 97.6764 111.536C102.971 105.77 106.63 97.6686 108.253 88.108C109.821 78.8823 109.362 69.5317 108.707 61.6013C108.503 59.1245 107.639 56.4556 105.821 56.3948C105.621 56.388 105.449 56.2627 105.38 56.0787C105.317 55.8946 105.371 55.6892 105.521 55.5607C108.648 52.8676 111.194 49.4099 112.912 45.5174C111.957 45.6916 110.98 45.7793 109.994 45.7793C104.649 45.7793 99.449 43.2448 96.0765 38.9991C95.9674 38.8616 95.9447 38.6758 96.0128 38.5155C96.0856 38.3553 96.2401 38.2465 96.4173 38.2317C98.5717 38.0495 100.822 38.516 102.781 39.5336C101.117 35.6398 98.2354 32.3294 94.7265 30.3223C94.5402 30.2175 94.4493 30.0058 94.4993 29.8016C94.5447 29.5974 94.7266 29.4492 94.9356 29.4358C95.9583 29.3727 96.981 29.4273 97.99 29.5934C91.5177 26.2194 84.2091 24.3958 76.9459 24.3958C73.6143 24.3958 70.3008 24.7728 67.101 25.5169L66.7647 25.598C66.6874 25.6168 66.6101 25.6168 66.5329 25.598L66.1966 25.5169C62.9968 24.7728 59.6833 24.3958 56.3517 24.3958C49.0885 24.3958 41.7754 26.2194 35.3076 29.5934C36.3121 29.4273 37.3393 29.3722 38.3574 29.4358C38.5711 29.4492 38.7483 29.5974 38.7983 29.8016C38.8483 30.0058 38.7528 30.2175 38.571 30.3223C35.0576 32.3294 32.1805 35.6398 30.517 39.5336C32.476 38.516 34.7213 38.0495 36.8802 38.2317C37.0575 38.2465 37.212 38.3553 37.2847 38.5155C37.3529 38.6758 37.3302 38.8616 37.2211 38.9991C33.8486 43.2443 28.6444 45.7789 23.2993 45.7793C22.3175 45.7793 21.3403 45.6916 20.3858 45.5174C22.1039 49.4103 24.6492 52.8681 27.7762 55.5607C27.9262 55.6892 27.9808 55.8946 27.9126 56.0787C27.849 56.2627 27.6717 56.388 27.4763 56.3948C25.6582 56.4556 24.7946 59.1245 24.5901 61.6013C23.9356 69.5317 23.4765 78.8828 25.0446 88.108C26.6672 97.6686 30.3261 105.77 35.6212 111.536C40.8164 117.195 47.9431 120.573 54.6836 120.573C55.6836 120.573 56.679 120.501 57.6562 120.358C60.0697 120.002 62.4968 119.206 64.8421 118.436C65.3966 118.254 65.9465 118.073 66.5011 117.897C66.5465 117.882 66.5965 117.874 66.6465 117.874ZM78.6139 121.525C77.5685 121.525 76.5186 121.449 75.5005 121.299C73.0006 120.931 70.5326 120.122 68.1464 119.339C67.6464 119.174 67.1465 119.01 66.6465 118.85C66.1465 119.011 65.6466 119.175 65.1466 119.339C62.7604 120.122 60.2969 120.931 57.7971 121.299C56.7744 121.449 55.729 121.525 54.6836 121.525C47.675 121.525 40.28 118.03 34.9031 112.174C29.4853 106.273 25.7446 98.0058 24.0901 88.2652C22.5084 78.937 22.9675 69.5129 23.6265 61.5243C23.8811 58.4153 24.9128 56.3195 26.4491 55.6623C23.3084 52.7691 20.7858 49.1139 19.1314 45.0366C19.0677 44.8709 19.0995 44.682 19.2177 44.5472C19.3359 44.4129 19.5223 44.3551 19.6995 44.3981C20.8631 44.6833 22.0766 44.8275 23.2993 44.8275C28.0353 44.827 32.6578 42.7187 35.8439 39.1446C33.735 39.1647 31.6078 39.8399 29.8398 41.0501C29.6716 41.1678 29.4398 41.1634 29.2762 41.0398C29.108 40.9158 29.0398 40.7004 29.108 40.5056C30.5352 36.3956 33.2486 32.7883 36.6802 30.3912C34.6758 30.5273 32.7169 31.1394 30.9624 32.1812C30.7397 32.3142 30.4488 32.2484 30.3079 32.0312C30.167 31.815 30.2261 31.5266 30.4397 31.3811C38.0211 26.2628 47.225 23.444 56.3517 23.444C59.7606 23.444 63.1467 23.8299 66.4193 24.5906L66.6465 24.6457L66.8783 24.5906C70.1509 23.8299 73.537 23.444 76.9459 23.444C86.0498 23.444 95.231 26.2498 102.803 31.3458C102.962 31.4232 103.076 31.5857 103.076 31.7738C103.076 32.0366 102.858 32.2497 102.594 32.2497C102.59 32.2493 102.585 32.2502 102.585 32.2497C102.499 32.2497 102.412 32.2278 102.335 32.1812C100.581 31.1394 98.6218 30.5273 96.6173 30.3912C100.022 32.7722 102.726 36.3472 104.158 40.4228C104.199 40.4922 104.226 40.5733 104.226 40.6597C104.226 40.9225 104.008 41.1356 103.74 41.1356C103.74 41.1356 103.735 41.136 103.731 41.1356C103.635 41.1356 103.54 41.1069 103.458 41.0501C101.69 39.8399 99.5626 39.1647 97.4536 39.1446C100.64 42.7192 105.262 44.8275 109.994 44.8275C111.221 44.8275 112.435 44.6829 113.598 44.3981C113.775 44.3551 113.957 44.4133 114.08 44.5472C114.198 44.682 114.23 44.8709 114.162 45.0366C112.512 49.1139 109.989 52.7691 106.848 55.6623C108.385 56.3195 109.412 58.4153 109.671 61.5243C110.33 69.5129 110.789 78.937 109.207 88.2652C107.553 98.0053 103.812 106.273 98.3945 112.174C93.0176 118.03 85.6226 121.525 78.6139 121.525Z" fill="#292625"/>
<path d="M57.238 30.0699C59.9651 29.8263 62.7695 30.5498 65.0239 32.0783C64.4057 29.4005 61.8377 27.5058 59.1424 26.8029C56.4472 26.1004 53.6064 26.3601 50.8248 26.5629C52.0247 26.917 53.1701 27.4458 54.2155 28.1272C49.6567 27.7377 44.9888 28.7433 41.0163 30.9698C42.2117 31.0432 43.4116 31.1167 44.6115 31.1905C41.189 32.3027 37.8802 33.7564 34.7576 35.5218C41.8345 33.6481 49.543 34.171 56.2971 36.9827C56.4017 34.4235 53.97 32.5552 51.7929 31.1516C54.8745 31.0508 57.9789 31.7721 60.6878 33.2187C59.6288 32.0775 58.4743 31.0226 57.238 30.0699Z" fill="#D34B20"/>
<path d="M75.4277 30.0699C72.7006 29.8263 69.8963 30.5498 67.6419 32.0783C68.26 29.4005 70.828 27.5058 73.5188 26.8029C76.214 26.1004 79.0593 26.3601 81.8409 26.5629C80.641 26.917 79.4957 27.4458 78.4503 28.1272C83.0091 27.7377 87.677 28.7433 91.6494 30.9698C90.4541 31.0432 89.2541 31.1167 88.0542 31.1905C91.4767 32.3027 94.7856 33.7564 97.9081 35.5218C90.8313 33.6481 83.1227 34.171 76.3686 36.9827C76.2641 34.4235 78.6957 32.5552 80.8728 31.1516C77.7912 31.0508 74.6869 31.7721 71.9779 33.2187C73.037 32.0775 74.1915 31.0226 75.4277 30.0699Z" fill="#D34B20"/>
<path d="M95.7583 49.32C95.7537 48.3892 95.8037 47.4038 96.3264 46.627C96.69 46.0825 97.2718 45.6854 97.9172 45.5412C98.0627 45.5086 98.2172 45.4884 98.3626 45.5036C98.6308 45.5314 98.8672 45.6675 99.1035 45.7938C101.685 47.1875 104.758 47.6849 107.662 47.1794C107.976 47.5273 107.957 48.0829 107.726 48.4899C107.494 48.8964 107.089 49.179 106.671 49.4037C105.93 49.8067 105.108 50.0695 104.262 50.1738C104.971 50.6766 105.062 51.8326 104.44 52.437C104.058 52.8064 103.512 52.9487 102.994 53.0763C102.317 53.2438 101.64 53.4108 100.962 53.5778C99.8444 53.8536 98.6126 54.1191 97.5809 53.6109C96.84 53.2452 96.3309 52.5194 96.0673 51.7435C95.8037 50.9676 95.7673 50.138 95.7583 49.32Z" fill="#F7A80E"/>
<path d="M31.4988 54.0663C32.0033 54.1236 32.5214 54.1195 33.0078 53.9888C34.6804 53.5433 35.644 51.6983 35.6212 49.992C35.594 48.2862 34.8076 46.6905 34.0259 45.1701C31.426 47.1808 27.8172 47.8506 24.6583 46.9086C25.3401 48.2311 26.7127 49.0818 28.1171 49.6177C28.4217 49.7341 28.8035 50.0377 28.6035 50.2929C28.0944 50.0721 27.4263 50.3855 27.2809 50.9112C27.1263 51.4851 27.5309 52.0578 27.9717 52.4634C28.9353 53.3463 30.1898 53.9167 31.4988 54.0663Z" fill="#F7A80E"/>
<path d="M107.112 79.7027C106.544 78.2758 105.185 77.3025 103.626 77.2272C103.626 77.251 104.89 76.8637 105.035 76.7907C105.571 76.5221 106.035 76.1294 106.399 75.6553C107.049 74.7975 107.294 73.7068 107.162 72.6511C106.899 70.6158 105.076 69.0299 102.976 69.1343C102.971 69.1244 102.972 69.1141 102.972 69.1043C105.185 68.6583 106.453 66.4582 105.912 64.3347C105.667 63.3775 105.126 62.5349 104.303 61.9609C103.831 61.6332 103.285 61.4214 102.717 61.3372C102.535 61.3108 101.031 61.3731 101.049 61.4205C103.09 60.4919 103.84 58.0559 102.803 56.1124C101.772 54.1778 99.4172 53.2976 97.4128 54.3949C97.4264 54.4128 98.2809 53.4278 98.3673 53.289C98.64 52.8292 98.8036 52.3184 98.8627 51.7878C98.9763 50.7187 98.5945 49.6218 97.89 48.8101C96.4447 47.1562 93.9539 46.8186 92.2494 48.3149C92.254 48.3203 92.8449 47.2659 92.8949 47.1204C93.0812 46.5903 93.1403 46.0293 93.0767 45.4719C92.954 44.4103 92.3494 43.445 91.4995 42.7954C89.7451 41.4419 87.1862 41.6725 85.8544 43.484C85.8726 43.4929 86.218 42.2505 86.2317 42.0889C86.2862 41.5131 86.1953 40.9333 85.9817 40.3956C85.609 39.4491 84.8409 38.6903 83.9136 38.2573C81.9047 37.3059 79.4594 38.0729 78.5549 40.1194C78.5594 40.1212 78.6413 38.9267 78.6276 38.7726C78.5685 38.2175 78.3821 37.6901 78.0913 37.2137C77.5595 36.35 76.6732 35.738 75.6914 35.4725C73.4779 34.8739 71.1372 36.1217 70.6917 38.3925C70.7054 38.3943 70.4872 37.1264 70.4327 36.9724C70.2508 36.4727 69.96 36.0237 69.5827 35.6462C68.8192 34.8833 67.7283 34.445 66.6374 34.4687C65.5284 34.4924 64.483 34.8721 63.7013 35.6592C63.324 36.0375 63.0377 36.4933 62.8604 36.9934C62.8013 37.1474 62.5923 38.4149 62.6059 38.4131C62.1605 36.2095 59.9788 35.0158 57.8108 35.4609C56.8017 35.6673 55.8836 36.2735 55.3063 37.1089C54.9882 37.5705 54.7746 38.0908 54.6973 38.6442C54.6701 38.8139 54.7246 40.1883 54.7518 40.1798C53.8337 38.132 51.4384 37.4223 49.4204 38.3222C48.4341 38.7623 47.6477 39.6014 47.2841 40.6052C47.1114 41.0824 47.0387 41.5857 47.0751 42.0911C47.0887 42.2617 47.4432 43.5946 47.4659 43.5803C46.1251 41.7706 43.6253 41.5852 41.8527 42.8894C40.9845 43.5283 40.3982 44.5142 40.2619 45.5722C40.1982 46.0754 40.2391 46.5831 40.3846 47.0693C40.4346 47.2327 41.0755 48.4622 41.0982 48.442C39.3847 46.9534 36.903 47.3075 35.4622 48.9627C34.0077 50.6247 34.2213 53.1735 35.9849 54.5212C35.9894 54.5127 34.8304 54.1334 34.6759 54.1097C34.1032 54.0206 33.5077 54.0614 32.9578 54.24C31.8987 54.5825 31.0943 55.3306 30.5807 56.291C29.5444 58.2359 30.3352 60.6769 32.3715 61.5916C32.3896 61.5454 30.8807 61.489 30.6989 61.5163C30.1307 61.6027 29.5853 61.8172 29.1171 62.1481C28.2944 62.7279 27.7672 63.5736 27.5218 64.5299C27.24 65.634 27.4309 66.8388 28.1035 67.7727C28.3944 68.1833 28.7717 68.5325 29.2035 68.7949C29.3398 68.875 30.4807 69.3326 30.4852 69.3196C28.5126 69.2252 26.7491 70.6301 26.3582 72.5248C25.8901 74.8275 27.4309 77.1449 29.858 77.3817C29.858 77.3571 28.5762 77.6835 28.4308 77.7488C27.9354 77.9673 27.4854 78.2883 27.1218 78.6846C26.3946 79.4779 26.0582 80.5507 26.1128 81.6073C26.1673 82.6294 26.5673 83.5893 27.3036 84.3187C27.6899 84.697 28.1581 84.9835 28.6672 85.1653C28.8353 85.224 30.3307 85.4657 30.3216 85.408C28.049 85.8812 26.8718 88.0831 27.399 90.2433C27.6399 91.2355 28.3172 92.1372 29.1989 92.6641C29.6989 92.9646 30.258 93.1481 30.8488 93.1826C31.0125 93.192 32.4851 93.0205 32.4578 92.9587C30.2898 94.0051 29.808 96.5418 31.0488 98.484C31.5942 99.3428 32.5214 100.007 33.535 100.211C34.085 100.321 34.6577 100.317 35.1986 100.172C35.3622 100.13 36.7894 99.4538 36.7212 99.3831C35.0668 101.052 35.4304 103.672 37.2939 105.024C39.1438 106.36 41.7163 106.029 42.939 104.045C42.9117 104.029 42.6163 105.251 42.6072 105.396C42.5663 105.972 42.6572 106.562 42.8981 107.09C43.3435 108.07 44.1798 108.831 45.1979 109.198C47.2933 109.996 49.6749 109.032 50.4112 106.902C50.3976 106.898 50.4021 108.11 50.4294 108.26C50.5248 108.816 50.7475 109.34 51.0702 109.805C51.6475 110.633 52.5611 111.165 53.5428 111.391C55.7518 111.9 58.0153 110.539 58.4425 108.323C58.438 108.323 58.6289 109.498 58.6789 109.646C58.8561 110.176 59.1561 110.66 59.5379 111.072C60.2561 111.844 61.2878 112.261 62.3377 112.323C64.5058 112.468 66.492 110.896 66.6511 108.731C66.6602 108.731 66.9465 109.803 67.0056 109.939C67.2238 110.417 67.5419 110.848 67.9328 111.2C68.7782 111.953 69.9054 112.316 71.0372 112.229C72.0417 112.152 73.028 111.763 73.737 111.042C74.1233 110.647 74.4279 110.171 74.6188 109.656C74.6824 109.493 74.9187 108.149 74.896 108.152C75.3414 110.251 77.4868 111.621 79.6276 111.188C80.6139 110.988 81.5547 110.487 82.1729 109.684C82.5137 109.236 82.7592 108.711 82.8773 108.162C82.9137 107.997 82.95 106.613 82.9182 106.621C83.6818 108.734 86.0544 109.682 88.1406 108.879C89.1133 108.54 89.9223 107.808 90.3723 106.897C90.6268 106.384 90.7541 105.827 90.7405 105.256C90.7359 105.095 90.4541 103.718 90.4087 103.741C91.6177 105.702 94.1948 106.072 96.0356 104.745C97.9037 103.401 98.3127 100.819 96.6856 99.1198C96.6492 99.1556 97.7855 99.7923 97.9218 99.8424C98.4764 100.045 99.0718 100.092 99.6535 100.016C100.767 99.872 101.74 99.187 102.367 98.2888C103.662 96.3762 103.153 93.8036 101.017 92.7483C101.003 92.7846 102.267 92.991 102.412 92.9914C103.012 92.9959 103.594 92.8464 104.121 92.5661C105.09 92.0485 105.821 91.1173 106.089 90.0611C106.639 87.9022 105.444 85.6914 103.176 85.219C103.162 85.3023 104.826 84.9831 105.003 84.9106C105.662 84.6388 106.221 84.187 106.635 83.6122C107.435 82.4938 107.612 80.9778 107.112 79.7027C107.312 80.2131 106.908 79.1927 107.112 79.7027Z" fill="#F7A80E"/>
<path d="M100.563 72.3637C100.09 71.1683 98.949 70.353 97.6446 70.2899C97.6446 70.31 98.7036 69.9854 98.8263 69.9241C99.2763 69.6993 99.6626 69.3702 99.9626 68.9731C100.508 68.2545 100.717 67.3403 100.604 66.4565C100.385 64.7511 98.8581 63.4223 97.0992 63.51C97.0946 63.5015 97.0946 63.493 97.0946 63.485C98.9491 63.1111 100.013 61.2683 99.5581 59.4891C99.3536 58.6872 98.8991 57.9811 98.2082 57.5003C97.8173 57.2258 97.3582 57.0481 96.881 56.9778C96.731 56.9559 95.4674 57.0083 95.4856 57.0477C97.1946 56.2695 97.8218 54.2288 96.9537 52.6009C96.0901 50.9797 94.1175 50.2423 92.4404 51.1619C92.4495 51.1772 93.1676 50.3516 93.2358 50.2352C93.4676 49.8501 93.6039 49.4221 93.6539 48.978C93.7494 48.0821 93.4312 47.1629 92.8358 46.4833C91.6268 45.0976 89.5405 44.8146 88.1134 46.0682C88.1179 46.0727 88.6088 45.1894 88.6542 45.0676C88.8088 44.6235 88.8588 44.1533 88.8042 43.6864C88.6997 42.7972 88.1997 41.9886 87.4861 41.4442C86.0135 40.3101 83.8727 40.5035 82.7546 42.0213C82.7683 42.0289 83.0592 40.988 83.0728 40.8523C83.1182 40.3701 83.041 39.8843 82.8637 39.4335C82.5501 38.641 81.9047 38.0048 81.132 37.6426C79.4457 36.8457 77.3959 37.4877 76.6414 39.2025C76.6414 39.2038 76.7141 38.2032 76.7005 38.0742C76.655 37.609 76.4959 37.1676 76.2505 36.7682C75.805 36.0447 75.0642 35.5321 74.2415 35.3096C72.3826 34.8081 70.4281 35.8531 70.0509 37.7559C70.0645 37.7572 69.8827 36.6948 69.8327 36.5663C69.6827 36.1477 69.4418 35.7712 69.1237 35.4551C68.4828 34.8162 67.5692 34.4486 66.6556 34.4683C65.7284 34.4884 64.8512 34.8063 64.1967 35.4658C63.8786 35.7828 63.6376 36.1647 63.4877 36.5838C63.4422 36.7127 63.265 37.7747 63.2786 37.7734C62.9059 35.927 61.0787 34.9268 59.2607 35.2997C58.4153 35.473 57.6471 35.9807 57.1653 36.6805C56.8972 37.0668 56.7199 37.5029 56.6518 37.9663C56.629 38.1087 56.679 39.2602 56.6972 39.2531C55.9291 37.5374 53.9246 36.9428 52.2338 37.6968C51.4066 38.0653 50.743 38.7686 50.443 39.6094C50.2976 40.0093 50.234 40.4306 50.2703 40.8541C50.2794 40.9969 50.5749 42.114 50.5976 42.1014C49.4704 40.5855 47.3796 40.4301 45.8933 41.523C45.1661 42.0585 44.6752 42.8841 44.5616 43.7706C44.5071 44.1923 44.5389 44.6176 44.6616 45.0251C44.707 45.1621 45.2434 46.1918 45.2615 46.1748C43.8253 44.9275 41.7481 45.2243 40.5346 46.6109C39.321 48.0033 39.4983 50.1385 40.9755 51.2676C40.98 51.2604 40.0074 50.943 39.8801 50.9229C39.3983 50.8485 38.9029 50.8826 38.4393 51.0321C37.553 51.3191 36.8757 51.9459 36.4485 52.7505C35.5804 54.3797 36.244 56.4244 37.9484 57.1909C37.962 57.152 36.6984 57.105 36.5485 57.1278C36.0712 57.2003 35.6167 57.3799 35.2213 57.6575C34.535 58.1428 34.0895 58.8515 33.885 59.6529C33.6487 60.5775 33.8123 61.5866 34.3713 62.3697C34.6168 62.7136 34.9349 63.0059 35.294 63.2257C35.4076 63.2929 36.3666 63.6761 36.3666 63.6654C34.7168 63.5862 33.2396 64.7632 32.9123 66.3504C32.5169 68.2796 33.8077 70.2209 35.8394 70.4192C35.844 70.3987 34.7713 70.6722 34.6441 70.7268C34.2304 70.9099 33.8577 71.1786 33.5532 71.5108C32.9442 72.1756 32.6578 73.0742 32.7078 73.9594C32.7532 74.8158 33.0851 75.62 33.7032 76.2311C34.0259 76.5476 34.4213 76.788 34.8486 76.9403C34.9849 76.9895 36.2394 77.1914 36.2349 77.1435C34.3304 77.5402 33.3441 79.3844 33.785 81.194C33.985 82.0255 34.5532 82.7808 35.2895 83.2222C35.7122 83.4738 36.1803 83.6278 36.6712 83.6565C36.8075 83.6646 38.0438 83.5209 38.0211 83.4694C36.203 84.3456 35.8031 86.4709 36.8394 88.0979C37.2984 88.8174 38.0711 89.3743 38.921 89.5445C39.3846 89.6376 39.8619 89.6331 40.3209 89.5127C40.4528 89.4769 41.6481 88.91 41.5936 88.8514C40.2073 90.2492 40.5119 92.4439 42.0754 93.5766C43.6208 94.6964 45.7797 94.4183 46.8024 92.7564C46.7796 92.7434 46.5342 93.7674 46.5251 93.8891C46.4887 94.3713 46.566 94.8656 46.766 95.308C47.1387 96.1286 47.8387 96.7662 48.6931 97.0738C50.4521 97.7422 52.4429 96.935 53.0611 95.1504C53.052 95.1472 53.0565 96.1622 53.0792 96.288C53.1565 96.7536 53.3474 97.1928 53.6155 97.5824C54.0973 98.2759 54.8655 98.7218 55.6836 98.9112C57.5335 99.3379 59.4334 98.1975 59.7879 96.3404C59.7879 96.3404 59.947 97.3254 59.9879 97.4489C60.1379 97.8931 60.3878 98.2987 60.706 98.6435C61.3105 99.2909 62.1741 99.6401 63.0559 99.692C64.8694 99.8129 66.5329 98.4962 66.6693 96.682C66.6738 96.682 66.9147 97.5806 66.9647 97.6943C67.1465 98.095 67.4147 98.4559 67.742 98.7509C68.4465 99.3822 69.3964 99.6858 70.3418 99.6132C71.1826 99.5483 72.0098 99.2228 72.6007 98.6184C72.928 98.2875 73.1825 97.8891 73.3416 97.457C73.3916 97.3213 73.5916 96.1953 73.5734 96.1976C73.9506 97.9558 75.746 99.1037 77.5368 98.7411C78.364 98.5732 79.1548 98.1536 79.6684 97.4807C79.9548 97.1051 80.1593 96.6659 80.2593 96.2061C80.2911 96.0673 80.3229 94.9081 80.2957 94.9153C80.9365 96.6851 82.9228 97.4785 84.6727 96.8069C85.4863 96.5226 86.1635 95.9092 86.5407 95.1454C86.7544 94.7161 86.8589 94.2491 86.8498 93.7714C86.8453 93.6362 86.6089 92.4828 86.5726 92.5021C87.5816 94.1443 89.7406 94.455 91.2859 93.3434C92.8495 92.2173 93.1949 90.0544 91.8268 88.6307C91.7995 88.6607 92.754 89.1939 92.8676 89.236C93.3267 89.4057 93.8266 89.4451 94.3175 89.3815C95.2447 89.2606 96.0629 88.6871 96.5901 87.9345C97.6718 86.3321 97.2492 84.1768 95.4584 83.293C95.4447 83.323 96.5038 83.4962 96.6265 83.4962C97.1264 83.5003 97.6173 83.3749 98.0582 83.1398C98.8672 82.7064 99.4808 81.9265 99.7081 81.0414C100.167 79.233 99.1627 77.3808 97.2673 76.985C97.2537 77.0549 98.649 76.7876 98.7945 76.7267C99.349 76.4988 99.8172 76.1205 100.163 75.6392C100.835 74.7021 100.981 73.4319 100.563 72.3637C100.731 72.7913 100.394 71.9366 100.563 72.3637Z" fill="#F2CC46"/>
<path d="M94.013 65.0247C93.6312 64.0608 92.713 63.4035 91.6585 63.3529C91.6585 63.3686 92.513 63.1071 92.613 63.0579C92.9766 62.8761 93.2903 62.611 93.5312 62.2909C93.972 61.7111 94.1402 60.9742 94.0493 60.2614C93.8721 58.8865 92.6403 57.8151 91.2222 57.8858C91.2177 57.8787 91.2177 57.8719 91.2177 57.8652C92.713 57.5639 93.5675 56.0779 93.2039 54.6434C93.0357 53.9969 92.6767 53.4279 92.1176 53.0402C91.7995 52.8186 91.4313 52.6753 91.0449 52.6184C90.9222 52.6009 89.9087 52.643 89.9177 52.6748C91.2995 52.0476 91.804 50.4018 91.1041 49.0891C90.4086 47.7822 88.8178 47.1876 87.4634 47.929C87.4724 47.9411 88.0497 47.2758 88.1088 47.1818C88.2951 46.8715 88.4042 46.5263 88.4406 46.1681C88.5224 45.4455 88.2633 44.7045 87.7861 44.1565C86.8089 43.039 85.1271 42.8111 83.9772 43.8216C83.9818 43.8252 84.3772 43.1129 84.4136 43.0148C84.5408 42.6567 84.5772 42.2779 84.5317 41.9014C84.4499 41.1841 84.0454 40.5322 83.4682 40.0935C82.2819 39.1788 80.5547 39.3346 79.6548 40.5582C79.6684 40.5645 79.9002 39.725 79.9093 39.6162C79.9456 39.2271 79.8866 38.8354 79.7411 38.4718C79.4912 37.8329 78.973 37.3198 78.3458 37.0275C76.9868 36.385 75.3369 36.903 74.7233 38.2856C74.7278 38.2869 74.7823 37.4797 74.7732 37.3758C74.7369 37.0006 74.6096 36.6447 74.4096 36.3228C74.0506 35.739 73.4552 35.3257 72.7916 35.1466C71.2917 34.7423 69.7145 35.5849 69.4145 37.1188C69.4236 37.1202 69.2736 36.2637 69.2372 36.1598C69.1145 35.8222 68.9191 35.5187 68.6646 35.2639C68.1464 34.7486 67.4101 34.4522 66.6738 34.4683C65.9284 34.4845 65.2193 34.741 64.6875 35.2724C64.4376 35.5281 64.2421 35.8361 64.1194 36.1741C64.083 36.278 63.9421 37.1341 63.9512 37.1332C63.6467 35.6445 62.1741 34.8377 60.7105 35.1386C60.0288 35.2782 59.4106 35.6875 59.0197 36.2516C58.8061 36.5636 58.6607 36.9151 58.6061 37.289C58.5879 37.4036 58.6288 38.3321 58.647 38.3263C58.0243 36.9429 56.4062 36.4638 55.0427 37.0714C54.3746 37.3686 53.8428 37.9355 53.6019 38.6138C53.4837 38.9361 53.4337 39.2759 53.461 39.6175C53.4701 39.7326 53.7064 40.6334 53.7246 40.6231C52.8156 39.4008 51.1293 39.2755 49.9339 40.1566C49.343 40.5886 48.9476 41.2544 48.8567 41.969C48.8158 42.3092 48.8386 42.6517 48.9385 42.9804C48.9749 43.0909 49.4067 43.9215 49.4203 43.9076C48.2658 42.902 46.5887 43.1411 45.6115 44.2595C44.6343 45.3819 44.7752 47.1039 45.966 48.0141C45.9705 48.0082 45.1843 47.7521 45.0843 47.7365C44.6934 47.676 44.2934 47.7038 43.9207 47.8242C43.2071 48.0557 42.6617 48.5607 42.3162 49.2099C41.6163 50.5235 42.1526 52.1725 43.5252 52.7903C43.5389 52.759 42.5162 52.7214 42.398 52.7393C42.0117 52.7979 41.6436 52.9426 41.3254 53.1664C40.7709 53.5582 40.4164 54.1295 40.2482 54.7755C40.0618 55.521 40.1891 56.3349 40.6436 56.9662C40.8391 57.2434 41.0936 57.4793 41.389 57.6561C41.4754 57.7108 42.248 58.0197 42.2526 58.0107C40.9208 57.9467 39.73 58.8959 39.4664 60.1759C39.1482 61.7313 40.1891 63.297 41.8254 63.4568C41.8254 63.4402 40.9618 63.6605 40.8618 63.7048C40.53 63.8526 40.2254 64.0693 39.98 64.337C39.4891 64.8729 39.2619 65.5973 39.2982 66.3115C39.3346 67.0018 39.6073 67.6506 40.1027 68.1431C40.3618 68.3983 40.68 68.5921 41.0254 68.7148C41.1345 68.7546 42.1481 68.9176 42.1435 68.8787C40.6073 69.1988 39.8119 70.6861 40.1664 72.1452C40.33 72.8155 40.7891 73.4244 41.3845 73.7803C41.7208 73.9836 42.0981 74.1076 42.498 74.1309C42.6071 74.1371 43.6025 74.0212 43.5844 73.9795C42.1208 74.6865 41.7936 76.3999 42.6299 77.7122C43.0026 78.292 43.6253 78.741 44.3116 78.8785C44.6843 78.9533 45.0706 78.9497 45.4388 78.8525C45.5479 78.8234 46.5114 78.3667 46.466 78.3193C45.3479 79.4466 45.5933 81.2165 46.8523 82.1298C48.0977 83.0324 49.8385 82.8081 50.6657 81.4681C50.6475 81.4578 50.4475 82.2834 50.443 82.3814C50.4112 82.7705 50.4748 83.169 50.6384 83.5254C50.9384 84.1875 51.502 84.7015 52.1929 84.9496C53.6064 85.4882 55.2154 84.8376 55.7108 83.3987C55.7018 83.396 55.7063 84.2144 55.7245 84.3156C55.7881 84.6912 55.9426 85.0454 56.1608 85.3597C56.5471 85.9189 57.1653 86.2784 57.8289 86.4311C59.3197 86.7749 60.8469 85.8553 61.1377 84.3581C61.1377 84.3581 61.265 85.1524 61.2968 85.2522C61.4195 85.6104 61.6196 85.9372 61.8786 86.2153C62.365 86.7369 63.0604 87.0189 63.7694 87.0606C65.233 87.1582 66.5738 86.0966 66.6828 84.6335C66.6874 84.6335 66.8829 85.3583 66.9238 85.4501C67.0692 85.7729 67.2828 86.0639 67.551 86.3017C68.1191 86.8107 68.8827 87.0556 69.6463 86.997C70.3235 86.945 70.9917 86.6822 71.4689 86.1946C71.728 85.9283 71.9371 85.6068 72.0643 85.2585C72.1052 85.1492 72.2689 84.2413 72.2507 84.243C72.5552 85.6605 74.0051 86.5864 75.446 86.2936C76.1141 86.1584 76.7504 85.8204 77.1686 85.2773C77.4004 84.9746 77.564 84.6209 77.6413 84.2498C77.6685 84.1378 77.6958 83.203 77.6731 83.2088C78.1867 84.6361 79.7911 85.2759 81.2001 84.7342C81.8592 84.505 82.4046 84.0102 82.7091 83.3946C82.8773 83.0485 82.9636 82.672 82.9545 82.2865C82.9545 82.1777 82.7637 81.2474 82.7319 81.263C83.55 82.5874 85.2862 82.8376 86.5316 81.9413C87.7952 81.0338 88.0724 79.2895 86.9725 78.1415C86.9452 78.1657 87.7179 78.5955 87.8088 78.6295C88.1815 78.7666 88.586 78.7979 88.9769 78.7469C89.7268 78.6493 90.3859 78.1868 90.8086 77.5801C91.6858 76.288 91.3404 74.5504 89.8996 73.8376C89.886 73.8618 90.7404 74.001 90.8404 74.0015C91.2449 74.0046 91.6404 73.9039 91.9949 73.714C92.6494 73.3648 93.1448 72.7358 93.3266 72.0221C93.6948 70.5639 92.8858 69.0703 91.354 68.7511C91.3495 68.8075 92.4721 68.5917 92.5903 68.5429C93.0357 68.3589 93.413 68.054 93.6902 67.6658C94.2357 66.9101 94.3539 65.8861 94.013 65.0247C94.1493 65.3694 93.8766 64.6804 94.013 65.0247Z" fill="#F8E298"/>
<path d="M56.3699 50.4357C58.1971 50.8436 60.0151 51.439 61.5287 52.527C63.0422 53.6149 64.2239 55.2549 64.4057 57.0915C64.6694 59.7478 62.874 62.161 60.9605 64.0508C57.338 67.6277 52.6656 70.4984 47.5432 70.7209C49.6158 70.0615 51.5475 68.986 53.1928 67.5793C49.4476 69.5905 44.7888 69.8636 40.8254 68.3042C43.2753 69.0187 45.9887 68.8168 48.3022 67.7472C45.1297 68.4089 41.6754 67.4177 39.2755 65.2659C36.8802 63.1142 35.5667 59.8776 35.6712 56.685C35.7121 55.3646 36.0257 53.9798 36.9438 53.0186C37.6211 52.3116 38.5528 51.9069 39.4755 51.5662C44.8388 49.5877 50.7884 49.1897 56.3699 50.4357Z" fill="#F7A80E"/>
<path d="M77.1186 50.4357C75.2914 50.8436 73.4688 51.439 71.9552 52.527C70.4462 53.6149 69.2645 55.2549 69.0827 57.0915C68.8191 59.7478 70.6099 62.161 72.5234 64.0508C76.1459 67.6277 80.8183 70.4984 85.9453 70.7209C83.8727 70.0615 81.9364 68.986 80.2956 67.5793C84.0408 69.5905 88.6996 69.8636 92.6585 68.3042C90.2086 69.0187 87.4997 68.8168 85.1862 67.7472C88.3588 68.4089 91.8131 67.4177 94.2084 65.2659C96.6082 63.1142 97.9218 59.8776 97.8172 56.685C97.7718 55.3646 97.4627 53.9798 96.5446 53.0186C95.8674 52.3116 94.9311 51.9069 94.0084 51.5662C88.6496 49.5877 82.7 49.1897 77.1186 50.4357Z" fill="#F7A80E"/>
<path d="M100.126 47.4571C100.126 56.5364 92.6585 63.8969 83.4409 63.8969C74.2233 63.8969 66.751 56.5364 66.751 47.4571C66.751 38.3773 74.2233 31.0173 83.4409 31.0173C92.6585 31.0173 100.126 38.3773 100.126 47.4571Z" fill="#523B1A"/>
<path d="M97.8946 47.9921C97.8946 56.2176 91.1268 62.8859 82.7728 62.8859C74.4233 62.8859 67.6556 56.2176 67.6556 47.9921C67.6556 39.7666 74.4233 33.0982 82.7728 33.0982C91.1268 33.0982 97.8946 39.7666 97.8946 47.9921Z" fill="#D1B86C"/>
<path d="M97.8946 47.9921C97.8946 56.2176 91.1268 62.8859 82.7728 62.8859C74.4233 62.8859 67.6556 56.2176 67.6556 47.9921C67.6556 39.7666 74.4233 33.0982 82.7728 33.0982C91.1268 33.0982 97.8946 39.7666 97.8946 47.9921Z" fill="#D1B86C"/>
<path d="M96.4446 47.9921C96.4446 55.4296 90.3268 61.459 82.7727 61.459C75.2232 61.459 69.1055 55.4296 69.1055 47.9921C69.1055 40.5546 75.2232 34.5251 82.7727 34.5251C90.3268 34.5251 96.4446 40.5546 96.4446 47.9921Z" fill="#F3ED99"/>
<path d="M89.3224 41.5409C89.3224 45.1038 86.3907 47.9921 82.7728 47.9921C79.1594 47.9921 76.2277 45.1038 76.2277 41.5409C76.2277 37.9784 79.1594 35.0901 82.7728 35.0901C86.3907 35.0901 89.3224 37.9784 89.3224 41.5409Z" fill="#D4C18D"/>
<path d="M87.5134 41.5409C87.5134 44.1189 85.3908 46.2084 82.7727 46.2084C80.1593 46.2084 78.0367 44.1189 78.0367 41.5409C78.0367 38.9634 80.1593 36.8739 82.7727 36.8739C85.3908 36.8739 87.5134 38.9634 87.5134 41.5409Z" fill="#2E2227"/>
<path d="M82.7728 40.1736C82.7728 40.9289 82.1547 41.5409 81.3865 41.5409C80.6184 41.5409 80.0002 40.9289 80.0002 40.1736C80.0002 39.4183 80.6184 38.8062 81.3865 38.8062C82.1547 38.8062 82.7728 39.4183 82.7728 40.1736Z" fill="white"/>
<path d="M74.0687 40.7802C75.5868 41.1209 76.3232 43.5515 75.7096 46.2088C75.0914 48.8664 73.3642 50.7442 71.8416 50.4034C70.3235 50.0623 69.5918 47.6316 70.2054 44.9744C70.8189 42.3167 72.5507 40.439 74.0687 40.7802Z" fill="white"/>
<path d="M85.8271 59.024C78.6139 59.024 72.4098 54.7894 69.6327 48.7076C69.7963 53.5743 72.8098 58.1231 77.6867 60.0653C82.0092 61.7859 86.7225 61.0338 90.2087 58.4858C88.8088 58.8368 87.3361 59.024 85.8271 59.024Z" fill="#D4C18D"/>
<path d="M31.9805 47.4571C31.9805 56.5364 39.4528 63.8969 48.6704 63.8969C57.888 63.8969 65.3602 56.5364 65.3602 47.4571C65.3602 38.3773 57.888 31.0173 48.6704 31.0173C39.4528 31.0173 31.9805 38.3773 31.9805 47.4571Z" fill="#523B1A"/>
<path d="M34.2168 47.9921C34.2168 56.2176 40.9846 62.8859 49.334 62.8859C57.6881 62.8859 64.4558 56.2176 64.4558 47.9921C64.4558 39.7666 57.6881 33.0982 49.334 33.0982C40.9846 33.0982 34.2168 39.7666 34.2168 47.9921Z" fill="#D1B86C"/>
<path d="M34.2168 47.9921C34.2168 56.2176 40.9846 62.8859 49.334 62.8859C57.6881 62.8859 64.4558 56.2176 64.4558 47.9921C64.4558 39.7666 57.6881 33.0982 49.334 33.0982C40.9846 33.0982 34.2168 39.7666 34.2168 47.9921Z" fill="#D1B86C"/>
<path d="M35.6667 47.9921C35.6667 55.4296 41.7845 61.459 49.334 61.459C56.8881 61.459 63.0059 55.4296 63.0059 47.9921C63.0059 40.5546 56.8881 34.5251 49.334 34.5251C41.7845 34.5251 35.6667 40.5546 35.6667 47.9921Z" fill="#F3ED99"/>
<path d="M42.7889 41.5409C42.7889 45.1038 45.7206 47.9921 49.334 47.9921C52.9519 47.9921 55.8835 45.1038 55.8835 41.5409C55.8835 37.9784 52.9519 35.0901 49.334 35.0901C45.7206 35.0901 42.7889 37.9784 42.7889 41.5409Z" fill="#D4C18D"/>
<path d="M44.5979 41.5409C44.5979 44.1189 46.7205 46.2084 49.334 46.2084C51.952 46.2084 54.0746 44.1189 54.0746 41.5409C54.0746 38.9634 51.952 36.8739 49.334 36.8739C46.7205 36.8739 44.5979 38.9634 44.5979 41.5409Z" fill="#2E2227"/>
<path d="M49.334 40.1736C49.334 40.9289 49.9567 41.5409 50.7248 41.5409C51.493 41.5409 52.1111 40.9289 52.1111 40.1736C52.1111 39.4183 51.493 38.8062 50.7248 38.8062C49.9567 38.8062 49.334 39.4183 49.334 40.1736Z" fill="white"/>
<path d="M39.871 41.7223C41.4164 41.8987 42.4163 44.2362 42.0981 46.9436C41.78 49.651 40.2664 51.7033 38.7211 51.5269C37.1712 51.351 36.1758 49.0134 36.4939 46.3056C36.8076 43.5982 38.3211 41.5464 39.871 41.7223Z" fill="white"/>
<path d="M46.2842 59.024C53.4973 59.024 59.7015 54.7894 62.4786 48.7076C62.315 53.5743 59.3015 58.1231 54.4246 60.0653C50.1021 61.7859 45.3888 61.0338 41.9026 58.4858C43.3026 58.8368 44.7706 59.024 46.2842 59.024Z" fill="#D4C18D"/>
<path d="M68.7691 49.5716C68.351 49.1203 67.8647 48.7146 67.292 48.5745C66.742 48.4389 66.1011 48.6094 65.7602 49.1042C65.4148 48.6085 64.7785 48.4366 64.224 48.5714C63.6558 48.7097 63.1649 49.1145 62.7468 49.5644C60.5197 51.9602 59.9061 55.7461 60.4151 59.1367C60.9242 62.5272 62.3923 65.6331 63.8422 68.6722C63.9512 68.8965 64.8557 70.2871 65.7511 70.2885C66.642 70.2893 67.5192 68.9005 67.6237 68.6762C69.0827 65.6407 70.5599 62.538 71.0781 59.1487C71.5917 55.7595 70.9917 51.9718 68.7691 49.5716Z" fill="#2D1615"/>
<path d="M64.0512 49.1656C63.633 49.24 63.3239 49.5923 63.0694 49.9393C61.2831 52.4053 60.7014 55.6222 60.9241 58.6837C61.165 62.0765 62.3422 65.3941 64.283 68.1592C64.6193 68.6383 65.1102 69.1541 65.6738 69.0332C66.3192 68.8944 66.5147 68.0607 66.5737 67.3878C67.0692 61.8218 67.4328 56.0713 65.6965 50.7712C65.5647 50.3691 65.4193 49.9612 65.1465 49.6389C64.8784 49.3165 64.4602 49.0922 64.0512 49.1656Z" fill="#EE8B40"/>
<path d="M66.942 49.1615C66.3738 49.2958 66.1057 49.9235 65.9375 50.4738C64.2149 56.1146 63.9558 62.1839 65.1966 67.9469C65.283 68.3543 65.433 68.8253 65.8375 68.9552C66.3375 69.1181 66.7965 68.6279 67.0829 68.1873C69.6554 64.1811 70.8235 59.3135 70.3372 54.5955C70.1463 52.733 69.6191 50.7545 68.1464 49.5685C67.8055 49.2936 67.3692 49.0603 66.942 49.1615Z" fill="#EE5747"/>
<path d="M67.0829 59.918C67.0829 64.4852 66.4238 68.1874 65.6193 68.1874C64.8103 68.1874 64.1558 64.4852 64.1558 59.918C64.1558 55.3508 64.8103 51.6486 65.6193 51.6486C66.4238 51.6486 67.0829 55.3508 67.0829 59.918Z" fill="#F3DE3E"/>
<path d="M65.8102 57.1672C66.1375 57.0678 66.2693 56.6868 66.3147 56.3546C66.4738 55.3051 66.2875 54.21 65.7966 53.2666C65.0057 54.0175 64.6921 55.1811 64.8739 56.2462C64.9148 56.4902 64.983 56.7383 65.1421 56.9294C65.3057 57.1202 65.5739 57.2406 65.8102 57.1672Z" fill="white"/>
<path d="M66.0784 59.806C65.9102 59.1698 65.742 58.5336 65.5693 57.8978C65.2102 58.5434 65.0466 59.2943 65.1103 60.0285C65.1239 60.2318 65.1603 60.4413 65.2784 60.6092C65.3966 60.7775 65.6148 60.8926 65.8102 60.8375C66.0057 60.7843 66.1284 60.5873 66.1556 60.3907C66.1829 60.1946 66.1284 59.9972 66.0784 59.806Z" fill="white"/>
<path d="M53.6792 119.557C52.8474 118.972 51.6748 119.37 50.8385 119.948C48.9341 121.264 47.7251 123.388 47.1433 125.605C46.5569 127.822 46.5478 130.144 46.6569 132.431C46.6706 132.773 46.7342 133.182 47.0478 133.325C47.475 133.517 47.8932 133.062 48.1341 132.667C49.4068 130.582 50.6794 128.496 51.9566 126.41C52.6338 125.295 53.3201 124.177 53.8746 122.997C54.1428 122.43 54.3837 121.834 54.4064 121.209C54.4292 120.585 54.1974 119.92 53.6792 119.557Z" fill="#EDA263"/>
<path d="M52.7202 119.745C52.243 119.745 51.6612 119.962 51.1157 120.338C49.4704 121.477 48.2251 123.39 47.6069 125.725C47.0251 127.944 47.0387 130.25 47.1387 132.41C47.1569 132.839 47.2478 132.892 47.2524 132.893L47.2569 132.894C47.316 132.894 47.516 132.752 47.7205 132.422L51.543 126.165C52.2066 125.074 52.8929 123.952 53.4338 122.796C53.6747 122.286 53.9019 121.737 53.9201 121.192C53.9383 120.777 53.8065 120.231 53.402 119.945C53.2111 119.811 52.9884 119.745 52.7202 119.745ZM47.2569 133.846C47.116 133.846 46.9797 133.816 46.8479 133.757C46.2206 133.474 46.1888 132.733 46.1752 132.453C46.0706 130.219 46.057 127.828 46.6751 125.486C47.3433 122.933 48.725 120.828 50.5613 119.559C50.9749 119.273 51.8021 118.794 52.7202 118.794C53.1884 118.794 53.6065 118.92 53.961 119.17C54.5655 119.593 54.92 120.381 54.8882 121.227C54.861 121.94 54.5974 122.595 54.311 123.197C53.7474 124.399 53.0474 125.543 52.3748 126.649L48.5477 132.913C48.3341 133.261 47.8842 133.846 47.2569 133.846Z" fill="#292625"/>
<path d="M52.2247 123.514C52.3293 122.988 52.4111 122.442 52.2929 121.918C52.0929 122.891 51.4293 123.761 50.5385 124.229C50.7248 124.949 50.7476 125.731 50.4612 126.42C50.1749 127.108 49.5522 127.682 48.8068 127.793C48.9113 129.067 48.6522 130.369 48.0614 131.508C49.1477 129.627 50.2294 127.745 51.3157 125.863C51.5157 125.516 51.7156 125.168 51.8656 124.797C52.0338 124.385 52.1384 123.95 52.2247 123.514Z" fill="#DC7029"/>
<path d="M56.7335 119.557C57.5653 118.972 58.7424 119.37 59.5787 119.948C61.4786 121.264 62.6922 123.388 63.274 125.605C63.8557 127.822 63.8648 130.144 63.7603 132.431C63.7421 132.773 63.683 133.182 63.3649 133.325C62.9422 133.517 62.5195 133.062 62.2786 132.667C61.0059 130.582 59.7333 128.496 58.4607 126.41C57.7789 125.295 57.0971 124.177 56.5381 122.997C56.2744 122.43 56.0335 121.834 56.0108 121.209C55.9881 120.585 56.2153 119.92 56.7335 119.557Z" fill="#EDA263"/>
<path d="M57.6926 119.745C57.429 119.745 57.2063 119.811 57.0154 119.945C56.6064 120.231 56.4791 120.777 56.4927 121.192C56.5109 121.738 56.7381 122.286 56.979 122.796C57.5244 123.955 58.2108 125.078 58.8744 126.165L62.6969 132.422C62.8969 132.751 63.0968 132.893 63.1559 132.894C63.165 132.891 63.2559 132.833 63.2741 132.41C63.3786 130.25 63.3877 127.946 62.8059 125.725C62.1923 123.391 60.947 121.478 59.2971 120.338C58.7562 119.962 58.1699 119.745 57.6926 119.745ZM63.1604 132.894V133.37V132.894ZM63.1604 133.846C62.5287 133.846 62.0787 133.261 61.8651 132.913L58.0471 126.655C57.3699 125.547 56.67 124.402 56.1018 123.197C55.82 122.596 55.5518 121.941 55.5246 121.227C55.4973 120.381 55.8518 119.593 56.4518 119.17C56.8063 118.92 57.2245 118.794 57.6926 118.794C58.6107 118.794 59.4425 119.273 59.8561 119.559C61.6878 120.828 63.0696 122.933 63.7423 125.486C64.3604 127.836 64.3422 130.327 64.2422 132.453C64.2286 132.706 64.1922 133.474 63.565 133.757C63.4377 133.816 63.3013 133.846 63.1604 133.846Z" fill="#292625"/>
<path d="M60.0515 123.864C59.9697 124.693 60.1151 125.543 60.4651 126.302C60.5878 126.57 60.7424 126.833 60.9651 127.026C61.1923 127.22 61.5014 127.337 61.7968 127.279C61.6559 128.046 61.8968 128.83 62.1877 129.554C62.3786 130.024 62.5968 130.486 62.8332 130.935C62.6786 130.867 62.565 130.731 62.4604 130.601C61.9196 129.921 61.3969 129.224 60.8742 128.528C60.6378 128.213 60.4015 127.899 60.1651 127.584C60.0197 127.39 59.8742 127.195 59.7333 126.997C58.7607 125.613 58.0698 124.032 57.7244 122.381C57.6198 121.89 57.5562 121.345 57.8244 120.916C58.3607 122.042 58.9607 123.234 60.0515 123.864Z" fill="#DC7029"/>
<path d="M58.1379 124.55C58.1379 127.951 56.7926 134.266 55.129 134.266C53.4701 134.266 52.1247 127.951 52.1247 124.55C52.1247 121.149 53.4701 118.393 55.129 118.393C56.7926 118.393 58.1379 121.149 58.1379 124.55Z" fill="#EDA263"/>
<path d="M55.1291 118.869C53.9382 118.869 52.6065 121.202 52.6065 124.55C52.6065 128.35 54.0928 133.79 55.1291 133.79C56.1699 133.79 57.6516 128.35 57.6516 124.55C57.6516 121.202 56.3244 118.869 55.1291 118.869ZM55.1291 134.742C52.8292 134.742 51.6383 127.598 51.6383 124.55C51.6383 120.831 53.1746 117.917 55.1291 117.917C57.088 117.917 58.6197 120.831 58.6197 124.55C58.6197 127.598 57.4335 134.742 55.1291 134.742Z" fill="#292625"/>
<path d="M49.6794 122.592C49.693 122.811 49.843 122.999 49.993 123.159C50.1248 123.298 50.2884 123.435 50.4793 123.438C50.7838 123.442 50.9748 123.128 51.1066 122.857C51.2702 122.506 51.4384 122.148 51.4793 121.764C51.5247 121.38 51.4202 120.958 51.1247 120.706C50.7248 121.07 50.3475 121.463 50.0021 121.879C49.8294 122.086 49.6567 122.325 49.6794 122.592Z" fill="#F3ED99"/>
<path d="M49.1476 123.64C49.0158 123.664 48.934 123.787 48.8704 123.901C48.2931 124.928 48.034 126.124 48.134 127.293C48.1431 127.419 48.1795 127.57 48.3022 127.61C48.4477 127.658 48.5749 127.502 48.6522 127.367C48.9522 126.835 49.2522 126.302 49.5521 125.769C49.7158 125.475 49.8885 125.162 49.8748 124.826C49.8566 124.49 49.4839 123.577 49.1476 123.64Z" fill="#F3ED99"/>
<path d="M47.7523 131.053C47.9977 130.503 48.1386 129.913 48.1796 129.315C48.1932 129.107 48.1932 128.891 48.1069 128.699C48.025 128.507 47.8432 128.344 47.6296 128.34C47.4523 128.892 47.3524 129.468 47.3342 130.046C47.3205 130.413 47.3478 130.808 47.5842 131.094C47.6023 131.117 47.625 131.141 47.6569 131.143C47.7023 131.146 47.7341 131.096 47.7523 131.053Z" fill="#F3ED99"/>
<path d="M53.361 124.568C53.4383 124.826 53.5883 125.1 53.8519 125.172C54.1064 125.242 54.3837 125.083 54.5292 124.861C54.6746 124.64 54.7155 124.37 54.7518 124.108C54.9291 122.708 54.9655 121.29 54.8655 119.882C54.8518 119.732 54.7882 119.535 54.6382 119.546C54.5564 119.551 54.4974 119.614 54.4474 119.674C53.7429 120.541 53.4338 121.661 53.2929 122.764C53.2156 123.366 53.1883 123.987 53.361 124.568Z" fill="#F3ED99"/>
<path d="M54.0246 125.725C53.92 125.748 53.8155 125.807 53.7564 125.9C53.7201 125.955 53.7019 126.018 53.6882 126.081C53.4837 126.9 53.6518 127.762 53.8882 128.57C53.9473 128.772 54.0155 128.98 54.1609 129.132C54.2427 129.219 54.3609 129.287 54.4791 129.265C54.6563 129.232 54.7381 129.028 54.7745 128.854C54.9154 128.237 54.9745 127.603 54.9563 126.971C54.9518 126.675 54.92 126.368 54.77 126.111C54.6245 125.855 54.32 125.663 54.0246 125.725Z" fill="#F3ED99"/>
<path d="M60.3514 121.782C59.956 121.345 59.5288 120.912 58.9924 120.661C58.9197 120.626 58.8333 120.595 58.7561 120.622C58.697 120.952 58.797 121.294 58.9697 121.584C59.1379 121.875 59.3697 122.122 59.6015 122.367C59.7969 122.571 59.9923 122.775 60.1832 122.979C60.3559 123.159 60.5696 123.354 60.8196 123.313C60.9695 123.07 60.9559 122.751 60.8468 122.485C60.7378 122.219 60.5423 121.996 60.3514 121.782Z" fill="#F3ED99"/>
<path d="M61.9196 125.39C62.0332 124.89 61.7787 124.383 61.4787 123.961C61.3969 123.842 61.2514 123.71 61.1242 123.779C60.8924 124.273 60.9014 124.868 61.1469 125.354C61.2014 125.467 61.2742 125.577 61.3787 125.648C61.4833 125.719 61.6287 125.744 61.7378 125.682C61.8423 125.624 61.8923 125.505 61.9196 125.39Z" fill="#F3ED99"/>
<path d="M55.0291 133.089C55.5699 133.08 55.8926 132.501 56.0744 131.998C57.088 129.224 57.4153 126.21 57.0289 123.286C56.838 121.855 56.4017 120.327 55.2245 119.468C55.5608 122.543 55.6881 125.639 55.6063 128.73C55.5927 129.296 55.5699 129.863 55.5381 130.429C55.4881 131.335 55.4108 132.262 55.0291 133.089Z" fill="#DC7029"/>
<path d="M77.6458 119.557C76.8095 118.972 75.6369 119.37 74.8006 119.948C72.8962 121.264 71.6871 123.388 71.1054 125.605C70.519 127.822 70.5099 130.144 70.619 132.431C70.6327 132.773 70.6963 133.182 71.0099 133.325C71.4371 133.517 71.8553 133.062 72.0962 132.667C73.3688 130.582 74.646 128.496 75.9187 126.41C76.6004 125.295 77.2822 124.177 77.8367 122.997C78.1049 122.43 78.3458 121.834 78.3685 121.209C78.3913 120.585 78.1594 119.92 77.6458 119.557Z" fill="#EDA263"/>
<path d="M76.6822 119.745C76.2049 119.745 75.6232 119.962 75.0777 120.338C73.4324 121.477 72.187 123.391 71.5734 125.725C70.9871 127.946 71.0007 130.25 71.1007 132.41C71.1189 132.839 71.2143 132.892 71.2143 132.893L71.2189 132.894C71.278 132.894 71.4825 132.752 71.6825 132.422L75.505 126.165C76.1686 125.078 76.8549 123.955 77.3958 122.796C77.6412 122.286 77.8639 121.738 77.8866 121.192C77.9003 120.777 77.773 120.231 77.3639 119.945C77.173 119.811 76.9503 119.745 76.6822 119.745ZM71.2189 133.846C71.078 133.846 70.9417 133.816 70.8099 133.757C70.1826 133.474 70.1462 132.706 70.1371 132.453C70.0371 130.327 70.019 127.836 70.6371 125.486C71.3052 122.933 72.687 120.828 74.5232 119.559C74.9368 119.273 75.764 118.794 76.6822 118.794C77.1503 118.794 77.5685 118.92 77.923 119.17C78.5275 119.593 78.882 120.381 78.8502 121.227C78.823 121.941 78.5593 122.596 78.273 123.197C77.7094 124.402 77.0095 125.547 76.3322 126.655L72.5097 132.913C72.2961 133.261 71.8462 133.846 71.2189 133.846Z" fill="#292625"/>
<path d="M76.1869 123.514C76.2915 122.988 76.3733 122.442 76.2596 121.918C76.0551 122.891 75.3915 123.761 74.5052 124.229C74.687 124.949 74.7098 125.731 74.4234 126.42C74.1371 127.108 73.5144 127.682 72.769 127.793C72.8735 129.067 72.6144 130.369 72.0235 131.508C73.1098 129.627 74.1916 127.745 75.2779 125.863C75.4779 125.516 75.6779 125.168 75.8278 124.797C75.996 124.385 76.1006 123.95 76.1869 123.514Z" fill="#DC7029"/>
<path d="M80.6957 119.557C81.5274 118.972 82.7046 119.37 83.5409 119.948C85.4408 121.264 86.6544 123.388 87.2361 125.605C87.8179 127.822 87.827 130.144 87.7225 132.431C87.7043 132.773 87.6452 133.182 87.3271 133.325C86.9044 133.517 86.4862 133.062 86.2453 132.667C84.9681 130.582 83.6955 128.496 82.4228 126.41C81.7411 125.295 81.0593 124.177 80.5048 122.997C80.2366 122.43 79.9957 121.834 79.973 121.209C79.9503 120.585 80.1775 119.92 80.6957 119.557Z" fill="#EDA263"/>
<path d="M81.6592 119.745C81.391 119.745 81.1683 119.811 80.9774 119.945C80.5683 120.231 80.4411 120.777 80.4547 121.192C80.4729 121.736 80.7002 122.285 80.9411 122.797C81.4865 123.952 82.1683 125.074 82.8319 126.159L86.6589 132.422C86.8589 132.751 87.0588 132.893 87.1225 132.894C87.1316 132.891 87.218 132.833 87.2407 132.41C87.3407 130.251 87.3543 127.946 86.768 125.725C86.1544 123.391 84.909 121.477 83.2637 120.338C82.7182 119.962 82.1319 119.745 81.6592 119.745ZM87.1225 132.894V133.37V132.894ZM87.1225 133.846C86.4952 133.846 86.0407 133.261 85.8271 132.913L82.0092 126.655C81.3274 125.543 80.632 124.399 80.0638 123.197C79.782 122.595 79.5139 121.939 79.4912 121.226C79.4594 120.381 79.8139 119.593 80.4138 119.17C80.7684 118.92 81.1865 118.794 81.6592 118.794C82.5728 118.794 83.4045 119.273 83.8181 119.559C85.6498 120.828 87.0316 122.933 87.7043 125.486C88.3224 127.836 88.3042 130.327 88.2042 132.453C88.1906 132.733 88.1542 133.474 87.5315 133.757C87.3997 133.816 87.2634 133.846 87.1225 133.846Z" fill="#292625"/>
<path d="M84.0136 123.864C83.9318 124.693 84.0772 125.543 84.4272 126.302C84.5499 126.57 84.7044 126.833 84.9271 127.026C85.1544 127.22 85.4634 127.337 85.7589 127.279C85.618 128.046 85.8589 128.83 86.1543 129.554C86.3452 130.024 86.5588 130.486 86.7952 130.935C86.6406 130.867 86.5316 130.731 86.427 130.601C85.8816 129.921 85.3589 129.224 84.8362 128.528C84.5999 128.213 84.3635 127.899 84.1272 127.584C83.9818 127.39 83.8363 127.195 83.6954 126.997C82.7227 125.613 82.0319 124.032 81.6864 122.381C81.5864 121.89 81.5183 121.345 81.7864 120.916C82.3273 122.042 82.9273 123.234 84.0136 123.864Z" fill="#DC7029"/>
<path d="M82.1001 124.55C82.1001 127.951 80.7547 134.266 79.0912 134.266C77.4322 134.266 76.0868 127.951 76.0868 124.55C76.0868 121.149 77.4322 118.393 79.0912 118.393C80.7547 118.393 82.1001 121.149 82.1001 124.55Z" fill="#EDA263"/>
<path d="M79.0911 118.869C77.9003 118.869 76.5685 121.202 76.5685 124.55C76.5685 128.35 78.0548 133.79 79.0911 133.79C80.132 133.79 81.6137 128.35 81.6137 124.55C81.6137 121.202 80.2865 118.869 79.0911 118.869ZM79.0911 134.742C76.7913 134.742 75.6004 127.598 75.6004 124.55C75.6004 120.831 77.1367 117.917 79.0911 117.917C81.0501 117.917 82.5818 120.831 82.5818 124.55C82.5818 127.598 81.3955 134.742 79.0911 134.742Z" fill="#292625"/>
<path d="M73.6415 122.592C73.6597 122.811 73.8051 122.999 73.9551 123.159C74.0869 123.298 74.2506 123.435 74.4414 123.438C74.746 123.442 74.9414 123.128 75.0687 122.857C75.2323 122.506 75.4005 122.148 75.4414 121.764C75.4868 121.38 75.3869 120.958 75.0869 120.706C74.6869 121.07 74.3096 121.463 73.9642 121.879C73.796 122.086 73.6233 122.325 73.6415 122.592Z" fill="#F3ED99"/>
<path d="M73.1098 123.64C72.978 123.664 72.8962 123.787 72.8325 123.901C72.2598 124.928 71.9962 126.124 72.0962 127.293C72.1053 127.419 72.1417 127.57 72.2644 127.61C72.4098 127.658 72.5416 127.502 72.6143 127.367C72.9143 126.835 73.2143 126.302 73.5143 125.769C73.6825 125.475 73.8506 125.162 73.837 124.826C73.8234 124.49 73.4461 123.577 73.1098 123.64Z" fill="#F3ED99"/>
<path d="M71.7188 131.053C71.9597 130.503 72.1006 129.913 72.1415 129.315C72.1552 129.107 72.1552 128.891 72.0733 128.699C71.987 128.507 71.8052 128.344 71.5961 128.34C71.4143 128.892 71.3143 129.468 71.2961 130.046C71.2825 130.413 71.3097 130.808 71.5461 131.094C71.5643 131.117 71.587 131.141 71.6188 131.143C71.6688 131.146 71.6961 131.096 71.7188 131.053Z" fill="#F3ED99"/>
<path d="M77.3231 124.568C77.4004 124.826 77.5503 125.1 77.814 125.172C78.073 125.242 78.3503 125.083 78.4957 124.861C78.6366 124.64 78.6821 124.37 78.7139 124.108C78.8911 122.708 78.9275 121.29 78.8275 119.882C78.8139 119.732 78.7502 119.535 78.6003 119.546C78.5184 119.551 78.4593 119.614 78.4094 119.674C77.7049 120.541 77.3958 121.661 77.2549 122.764C77.1822 123.366 77.1504 123.987 77.3231 124.568Z" fill="#F3ED99"/>
<path d="M77.9913 125.725C77.8822 125.748 77.7776 125.807 77.7185 125.9C77.6822 125.955 77.664 126.018 77.6504 126.081C77.4458 126.9 77.614 127.762 77.8503 128.57C77.9094 128.772 77.9776 128.98 78.123 129.132C78.2048 129.219 78.323 129.287 78.4412 129.265C78.6185 129.232 78.7003 129.028 78.7366 128.854C78.8775 128.237 78.9366 127.603 78.923 126.971C78.9139 126.675 78.8866 126.368 78.7366 126.111C78.5866 125.855 78.2821 125.663 77.9913 125.725Z" fill="#F3ED99"/>
<path d="M84.3135 121.782C83.9181 121.345 83.4908 120.912 82.9545 120.661C82.8818 120.626 82.7955 120.595 82.7182 120.622C82.6591 120.952 82.7591 121.294 82.9318 121.584C83.1 121.875 83.3318 122.122 83.5681 122.367C83.759 122.571 83.9545 122.775 84.1499 122.979C84.3181 123.159 84.5362 123.354 84.7817 123.313C84.9362 123.07 84.9181 122.751 84.809 122.485C84.6999 122.219 84.509 121.996 84.3135 121.782Z" fill="#F3ED99"/>
<path d="M85.8816 125.39C85.9953 124.89 85.7407 124.383 85.4407 123.961C85.3589 123.842 85.2135 123.71 85.0862 123.779C84.8544 124.273 84.8635 124.868 85.109 125.354C85.1635 125.467 85.2362 125.577 85.3407 125.648C85.4453 125.719 85.5907 125.744 85.6998 125.682C85.8044 125.624 85.8589 125.505 85.8816 125.39Z" fill="#F3ED99"/>
<path d="M78.9912 133.089C79.5321 133.08 79.8548 132.501 80.0366 131.998C81.0502 129.224 81.382 126.21 80.9911 123.286C80.8002 121.855 80.3639 120.327 79.1867 119.468C79.523 122.543 79.6503 125.639 79.5684 128.73C79.5548 129.296 79.5321 129.863 79.5003 130.429C79.4503 131.335 79.373 132.262 78.9912 133.089Z" fill="#DC7029"/>
<path d="M108.653 59.1752C114.33 69.6527 117.298 81.5365 117.216 93.4114C115.648 89.8784 114.08 86.3459 112.512 82.8129C112.966 87.3125 112.903 91.8622 112.334 96.3488C112.153 97.7766 111.666 99.4896 110.248 99.8343C108.517 100.255 107.208 98.2252 106.976 96.4845C106.744 94.7442 106.889 92.7492 105.63 91.5059C105.544 96.4321 103.14 101.272 99.2399 104.363C98.8854 100.336 98.5263 96.3103 98.1718 92.284C97.79 93.474 97.3946 94.6976 96.581 95.6535C95.7674 96.6089 94.422 97.2393 93.2176 96.8619C91.9767 96.4742 91.2676 95.1933 90.8949 93.9674C89.0996 88.1117 92.0585 81.9444 95.2129 76.6752C98.3672 71.406 101.931 65.8032 101.422 59.7075L108.653 59.1752Z" fill="#F2591D"/>
<path d="M99.2399 104.839C99.1763 104.839 99.1126 104.826 99.0535 104.801C98.8899 104.732 98.7763 104.579 98.7626 104.404L97.8809 94.4712C97.6354 94.9964 97.3354 95.5046 96.9491 95.9594C96.0901 96.9695 94.5583 97.7803 93.0675 97.3156C91.5585 96.8419 90.7995 95.308 90.4313 94.1046C88.5769 88.0568 91.5994 81.778 94.7947 76.4335L95.2401 75.6952C98.2763 70.6374 101.412 65.408 100.94 59.7466C100.917 59.4847 101.112 59.255 101.381 59.2331C101.653 59.2084 101.881 59.4063 101.903 59.6682C102.403 65.6314 99.1853 70.9937 96.0719 76.1797L95.6265 76.9171C92.5358 82.0837 89.6087 88.1338 91.354 93.8297C91.6586 94.8137 92.2494 96.0602 93.363 96.4081C94.4174 96.7394 95.5765 96.0897 96.2083 95.3474C96.9718 94.4506 97.3491 93.2767 97.7127 92.1413C97.7809 91.9246 97.9945 91.7867 98.2218 91.8109C98.4536 91.836 98.6308 92.0164 98.6535 92.2429L99.6399 103.401C103.026 100.385 105.067 96.0015 105.149 91.4975C105.149 91.3063 105.271 91.1362 105.449 91.0645C105.63 90.9933 105.835 91.0345 105.971 91.1697C107.089 92.2734 107.217 93.8198 107.344 95.3156C107.376 95.6895 107.408 96.0624 107.453 96.4233C107.603 97.5305 108.212 98.6449 108.935 99.1329C109.317 99.3921 109.721 99.4718 110.135 99.3724C111.044 99.1503 111.625 98.1134 111.857 96.2899C112.421 91.8413 112.48 87.323 112.03 82.8596C112.007 82.6268 112.162 82.4115 112.389 82.3524C112.621 82.2928 112.857 82.4079 112.953 82.6224L116.711 91.0842C116.421 80.052 113.507 69.1451 108.23 59.3992C108.103 59.1672 108.189 58.8789 108.426 58.7553C108.662 58.6318 108.957 58.7195 109.08 58.951C114.803 69.5203 117.784 81.4377 117.698 93.4146C117.698 93.6394 117.534 93.8328 117.311 93.878C117.089 93.9241 116.861 93.8077 116.771 93.6022L113.207 85.571C113.403 89.1859 113.271 92.8191 112.816 96.4081C112.53 98.6623 111.703 99.9706 110.366 100.297C109.685 100.461 109.003 100.331 108.389 99.9186C107.426 99.269 106.68 97.9451 106.498 96.5464C106.448 96.1708 106.412 95.7835 106.38 95.3944C106.312 94.5617 106.244 93.7571 106.012 93.0614C105.508 97.5887 103.158 101.867 99.5444 104.733C99.458 104.803 99.349 104.839 99.2399 104.839Z" fill="#292625"/>
<path d="M24.6219 59.1752C18.9496 69.6527 15.977 81.5365 16.0634 93.4114C17.6315 89.8784 19.1995 86.3459 20.7631 82.8129C20.3131 87.3125 20.3722 91.8622 20.9403 96.3488C21.1221 97.7766 21.6084 99.4896 23.0265 99.8343C24.7582 100.255 26.0718 98.2252 26.2991 96.4845C26.5309 94.7442 26.39 92.7492 27.649 91.5059C27.7353 96.4321 30.1397 101.272 34.0349 104.363C34.394 100.336 34.7486 96.3103 35.1076 92.284C35.4849 93.474 35.8849 94.6976 36.6984 95.6535C37.512 96.6089 38.8528 97.2393 40.0619 96.8619C41.2981 96.4742 42.0072 95.1933 42.3844 93.9674C44.1798 88.1117 41.2163 81.9444 38.0665 76.6752C34.9122 71.406 31.3442 65.8032 31.8578 59.7075L24.6219 59.1752Z" fill="#F2591D"/>
<path d="M34.0349 104.839C33.9258 104.839 33.8213 104.803 33.7304 104.733C30.117 101.868 27.7717 97.5887 27.2626 93.0614C27.0354 93.7567 26.9672 94.5612 26.8945 95.3935C26.8627 95.7831 26.8308 96.1703 26.7808 96.5464C26.5945 97.9451 25.8536 99.269 24.8855 99.9186C24.2764 100.331 23.5947 100.461 22.9129 100.297C21.5721 99.9706 20.7494 98.6623 20.4631 96.4081C20.0085 92.8178 19.8767 89.1846 20.0676 85.571L16.5042 93.6022C16.4133 93.8077 16.1906 93.9241 15.9634 93.878C15.7406 93.8328 15.5815 93.6394 15.5815 93.4146C15.4952 81.4377 18.4723 69.5207 24.1946 58.951C24.3219 58.7195 24.6128 58.6322 24.8491 58.7553C25.0855 58.8789 25.1718 59.1672 25.0491 59.3992C19.7722 69.1451 16.8587 80.0524 16.5678 91.0842L20.3221 82.6224C20.4176 82.4079 20.6585 82.2928 20.8858 82.3524C21.1176 82.4115 21.2676 82.6268 21.2448 82.8596C20.7994 87.3212 20.8539 91.8395 21.4221 96.2899C21.6539 98.1134 22.2311 99.1503 23.1447 99.3724C23.5538 99.4718 23.9583 99.3921 24.3446 99.1329C25.0673 98.6449 25.6763 97.5305 25.8218 96.4233C25.8718 96.062 25.9036 95.6895 25.9309 95.3147C26.0582 93.8194 26.19 92.2734 27.3035 91.1697C27.4399 91.0345 27.649 90.9933 27.8262 91.0645C28.008 91.1362 28.1262 91.3063 28.1308 91.4975C28.208 96.002 30.2533 100.386 33.6349 103.401L34.6258 92.2425C34.644 92.0164 34.8258 91.8355 35.053 91.8109C35.2803 91.7858 35.4985 91.9246 35.5666 92.1413C35.9303 93.2763 36.303 94.4497 37.0665 95.3474C37.6983 96.0897 38.8619 96.7376 39.9164 96.4081C41.0254 96.0606 41.6208 94.8142 41.9208 93.8297C43.6661 88.1342 40.739 82.0837 37.6483 76.9171L37.2074 76.1783C34.094 70.9928 30.876 65.6309 31.376 59.6682C31.3987 59.4063 31.6214 59.2093 31.8987 59.2331C32.1623 59.255 32.3623 59.4847 32.3396 59.747C31.8623 65.4075 35.0031 70.6365 38.0392 75.6934L38.4801 76.4335C41.6799 81.7784 44.6979 88.0572 42.8434 94.1046C42.4753 95.308 41.7208 96.8419 40.2072 97.3156C38.721 97.7808 37.1893 96.9695 36.3257 95.9594C35.9394 95.5046 35.6394 94.9968 35.3985 94.4717L34.5167 104.404C34.4985 104.579 34.3894 104.732 34.2258 104.801C34.1622 104.826 34.0985 104.839 34.0349 104.839Z" fill="#292625"/>
<path d="M31.1805 64.6115C30.4124 71.4979 32.0941 78.626 35.8621 84.4746C36.2484 85.0718 36.8711 85.7371 37.5529 85.5137C38.1937 85.3033 38.3301 84.467 38.271 83.8008C38.0392 81.0352 36.5348 78.5607 35.2894 76.0713C33.8213 73.1374 31.9759 67.7863 31.1805 64.6115Z" fill="#F2CC46"/>
<path d="M41.0663 93.1391C41.2572 91.8877 41.1527 90.5929 40.7572 89.389C40.5982 88.9144 40.3936 88.4412 40.03 88.0915C39.6709 87.7418 39.1255 87.5381 38.6437 87.6863C38.2665 89.693 38.7073 91.8371 39.8436 93.5425C39.98 93.7462 40.1573 93.9633 40.4072 93.9781C40.8027 94.0023 41.0072 93.525 41.0663 93.1391Z" fill="#F2CC46"/>
<path d="M102.794 64.6115C103.562 71.4979 101.881 78.626 98.1126 84.4746C97.7263 85.0718 97.1036 85.7371 96.4219 85.5137C95.7764 85.3033 95.6446 84.467 95.6992 83.8008C95.9355 81.0352 97.44 78.5607 98.6853 76.0713C100.153 73.1374 101.999 67.7863 102.794 64.6115Z" fill="#F2CC46"/>
<path d="M92.9084 93.1391C92.7175 91.8877 92.8221 90.5929 93.2175 89.389C93.372 88.9144 93.5811 88.4412 93.9447 88.0915C94.3038 87.7418 94.8447 87.5381 95.331 87.6863C95.7082 89.693 95.2673 91.8371 94.1311 93.5425C93.9947 93.7462 93.8129 93.9633 93.5674 93.9781C93.172 94.0023 92.9675 93.525 92.9084 93.1391Z" fill="#F2CC46"/>
<path d="M22.0085 27.2605C21.9312 26.5114 21.0267 26.0713 20.2722 26.2012C19.5223 26.331 18.9086 26.8526 18.345 27.3648C16.5679 28.9896 14.8862 30.7469 13.6363 32.7921C12.3818 34.8368 11.5773 37.1958 11.6546 39.5826C11.6682 39.8897 11.7 40.2215 11.9136 40.4485C12.1954 40.7547 12.7091 40.7494 13.0772 40.5465C13.4454 40.3433 13.6954 39.9909 13.9317 39.6462C16.3679 36.0568 18.1905 32.0273 21.163 28.8561C21.5903 28.4008 22.0721 27.877 22.0085 27.2605Z" fill="white"/>
<path d="M18.3451 42.2438C18.4451 42.413 18.6405 42.4999 18.8223 42.5756C19.7223 42.9498 20.6177 43.3237 21.5176 43.698C23.5902 39.0874 26.5446 34.92 29.4717 30.7844C28.399 30.1979 27.3627 29.5443 26.3719 28.8288C24.7356 30.5507 23.3948 32.518 22.063 34.4754C20.5404 36.7051 18.9951 38.9938 18.336 41.5995C18.2815 41.8135 18.236 42.0526 18.3451 42.2438Z" fill="white"/>
<path d="M106.699 27.6271C106.185 26.6936 105.399 25.9092 104.458 25.3966C103.858 25.0715 103.194 24.8468 102.685 24.3968C101.676 25.1185 100.549 25.6804 99.3581 26.0543C100.644 27.0491 101.762 28.2597 102.644 29.619C103.994 28.9551 105.344 28.2911 106.699 27.6271Z" fill="white"/>
<path d="M113.757 30.8185C113.584 28.0193 111.485 25.6639 109.103 24.1331C108.608 23.8166 108.094 23.522 107.53 23.3523C106.912 23.1674 106.262 23.1365 105.621 23.1472C105.403 23.1513 105.103 23.2556 105.153 23.4651C105.171 23.5462 105.244 23.603 105.312 23.6536C108.158 25.8107 110.662 28.4039 112.707 31.3119C112.839 31.4999 113.003 31.7085 113.234 31.7197C113.634 31.7399 113.78 31.2102 113.757 30.8185Z" fill="white"/>
<path d="M45.4161 114.164C45.5479 114.012 47.1297 115.145 48.9477 116.692C50.7658 118.24 52.1293 119.617 51.9975 119.769C51.8657 119.919 50.284 118.787 48.4659 117.239C46.6478 115.692 45.2843 114.315 45.4161 114.164Z" fill="#292625"/>
<path d="M49.7703 109.182C49.8793 109.193 49.9248 109.624 49.9975 110.285C50.0839 110.95 50.2566 111.847 50.5884 112.799C50.952 113.74 51.402 114.537 51.7656 115.104C52.1429 115.657 52.3883 116.016 52.311 116.093C52.2474 116.16 51.8656 115.927 51.3565 115.419C50.8657 114.901 50.2929 114.071 49.8975 113.045C49.5339 112.009 49.4339 111.01 49.4794 110.301C49.5384 109.59 49.6794 109.17 49.7703 109.182Z" fill="#292625"/>
<path d="M65.233 114.554C65.3103 114.61 65.1057 115.027 64.6558 115.627C64.1967 116.218 63.4604 116.965 62.5286 117.641C61.5832 118.301 60.6333 118.751 59.9197 118.994C59.197 119.225 58.7334 119.285 58.7016 119.196C58.6652 119.097 59.0697 118.866 59.7061 118.526C60.3424 118.175 61.2014 117.68 62.1014 117.055C62.9831 116.413 63.7331 115.766 64.2694 115.282C64.8012 114.793 65.1467 114.49 65.233 114.554Z" fill="#292625"/>
<path d="M73.4415 114.101C73.546 114.069 73.7597 114.453 74.096 115.043C74.446 115.628 74.9687 116.398 75.6686 117.154C76.3913 117.888 77.1367 118.451 77.7094 118.833C78.2867 119.199 78.6594 119.434 78.623 119.535C78.5912 119.621 78.1412 119.554 77.4595 119.282C76.7913 118.995 75.9186 118.449 75.1323 117.648C74.3733 116.828 73.8733 115.937 73.6233 115.259C73.3915 114.572 73.3506 114.125 73.4415 114.101Z" fill="#292625"/>
<path d="M86.1635 114.797C86.3044 114.901 85.3726 116.297 83.7682 117.589C82.1228 118.839 80.532 119.415 80.4638 119.257C80.3593 119.053 81.741 118.216 83.3091 117.023C84.8454 115.79 85.9862 114.655 86.1635 114.797Z" fill="#292625"/>
<path d="M86.1135 102.241C86.318 102.258 86.4271 102.874 86.3634 103.615C86.2953 104.356 86.0817 104.944 85.8771 104.927C85.6772 104.909 85.5681 104.294 85.6317 103.553C85.6953 102.811 85.9135 102.224 86.1135 102.241Z" fill="#292625"/>
<path d="M89.3224 96.1993C89.4905 96.1312 90.1541 97.4009 90.4405 99.1251C90.6768 100.856 90.4132 102.261 90.2359 102.243C90.0132 102.228 89.9405 100.872 89.7132 99.2312C89.4451 97.5966 89.1133 96.2781 89.3224 96.1993Z" fill="#292625"/>
<path d="M43.8934 97.7753C43.9934 97.8174 43.948 98.1483 43.8571 98.6461C43.7844 99.1498 43.7025 99.833 43.7071 100.593C43.7389 101.352 43.848 102.031 43.948 102.531C44.0616 103.024 44.1207 103.352 44.0252 103.399C43.9389 103.442 43.7071 103.186 43.4571 102.694C43.2207 102.199 43.0071 101.454 42.9753 100.609C42.9662 99.7645 43.1435 99.0106 43.3616 98.5056C43.5889 98.0028 43.8071 97.7364 43.8934 97.7753Z" fill="#292625"/>
<path d="M48.384 97.9843C48.584 98.0183 48.525 99.2957 48.2568 100.838C47.9841 102.38 47.6023 103.602 47.4023 103.568C47.2023 103.534 47.2614 102.257 47.5296 100.715C47.8023 99.1726 48.1841 97.9503 48.384 97.9843Z" fill="#292625"/>
<path d="M54.3654 89.9361C54.5654 89.9643 54.6064 90.836 54.4518 91.8832C54.3018 92.9309 54.02 93.7569 53.8155 93.7292C53.6155 93.701 53.5746 92.8293 53.7291 91.7816C53.8791 90.7344 54.1609 89.9084 54.3654 89.9361Z" fill="#292625"/>
<path d="M49.9566 85.4393C50.152 85.4931 49.9975 86.6374 49.6157 87.9954C49.2294 89.3533 48.7612 90.4104 48.5658 90.3571C48.3704 90.3034 48.5249 89.159 48.9067 87.8011C49.293 86.4431 49.7612 85.3861 49.9566 85.4393Z" fill="#292625"/>
<path d="M79.7911 91.9446C79.5911 91.9688 79.3275 91.1867 79.2002 90.1976C79.0775 89.2082 79.1411 88.3866 79.3411 88.362C79.5411 88.3378 79.8047 89.1195 79.9319 90.109C80.0547 91.098 79.9911 91.92 79.7911 91.9446Z" fill="#292625"/>
<path d="M84.3636 90.1528C84.159 90.1645 83.9454 89.372 83.8863 88.383C83.8273 87.3935 83.9454 86.5823 84.1454 86.5702C84.35 86.5585 84.559 87.351 84.6227 88.34C84.6818 89.3295 84.5636 90.1412 84.3636 90.1528Z" fill="#292625"/>
<path d="M53.6473 106.497C53.4792 106.557 52.8428 105.169 52.6247 103.32C52.452 101.466 52.7883 99.9799 52.9656 100.005C53.1883 100.03 53.1928 101.481 53.3519 103.246C53.561 105.006 53.861 106.428 53.6473 106.497Z" fill="#292625"/>
<path d="M56.3654 114.557C56.1654 114.595 55.9427 114.327 55.8745 113.957C55.8018 113.588 55.9018 113.258 56.1018 113.221C56.3017 113.183 56.5199 113.452 56.5926 113.821C56.6653 114.19 56.5608 114.519 56.3654 114.557Z" fill="#292625"/>
<path d="M81.8229 72.2615C81.8183 72.3112 81.6729 72.3323 81.4047 72.3264C81.2729 72.3238 81.1138 72.3144 80.9229 72.2987C80.7366 72.279 80.5184 72.2745 80.2911 72.2029C79.3639 72.0045 78.1185 71.5148 76.9413 70.6542C75.7914 69.7588 74.9869 68.6995 74.5506 67.869C74.4188 67.6733 74.3597 67.4651 74.2915 67.2923C74.2279 67.1177 74.1733 66.9659 74.137 66.841C74.0643 66.5907 74.0461 66.4461 74.0915 66.4277C74.1415 66.4094 74.2461 66.5177 74.3961 66.725C74.4733 66.8285 74.5597 66.957 74.6551 67.107C74.7551 67.2547 74.8415 67.4356 74.9915 67.6039C75.5187 68.3243 76.3232 69.2479 77.3868 70.0807C78.4776 70.8767 79.5957 71.4006 80.4366 71.7122C80.6411 71.8116 80.8411 71.8478 81.0138 71.9038C81.182 71.9553 81.332 72.0041 81.4547 72.0489C81.6956 72.1384 81.8274 72.2118 81.8229 72.2615Z" fill="#292625"/>
<path d="M85.8953 70.3918C85.9271 70.4787 85.609 70.6748 85.0317 70.8409C84.4499 70.9909 83.6046 71.0535 82.6955 70.8789C81.791 70.6788 81.0365 70.2853 80.5684 69.919C80.1093 69.5376 79.8957 69.2327 79.9593 69.1651C80.0321 69.0845 80.3548 69.2439 80.8456 69.4861C81.3456 69.7166 82.041 69.9911 82.8455 70.1715C83.6546 70.3246 84.3999 70.3479 84.9544 70.3354C85.4999 70.3067 85.8635 70.2897 85.8953 70.3918Z" fill="#292625"/>
<path d="M52.2838 72.6941C52.1884 72.4801 53.861 71.6147 55.7381 70.2966C57.5789 68.927 58.9197 67.6184 59.1016 67.7692C59.1743 67.8351 58.9061 68.2304 58.4061 68.824C57.938 69.4509 57.0972 70.1296 56.1745 70.8795C55.17 71.522 54.2609 72.1063 53.511 72.3597C52.7838 72.6529 52.3247 72.7855 52.2838 72.6941Z" fill="#292625"/>
<path d="M42.7435 72.3072C42.7208 72.1088 44.4298 71.7748 46.5523 71.5622C48.6749 71.3491 50.4157 71.3374 50.4385 71.5362C50.4566 71.7345 48.7522 72.0681 46.6251 72.2812C44.5025 72.4943 42.7617 72.506 42.7435 72.3072Z" fill="#292625"/>
</g>
<defs>
<clipPath id="clip0_114_878">
<rect width="135" height="141" fill="white"/>
</clipPath>
</defs>
</svg>
