<svg width="26" height="24" viewBox="0 0 26 24" fill="none" xmlns="http://www.w3.org/2000/svg">
<path d="M24.9289 8.69067H1.07114C0.654693 8.69067 0.317139 8.35493 0.317139 7.94109V7.04347C0.317139 6.62963 0.654693 6.29451 1.07114 6.29451H24.9289C25.3453 6.29451 25.6829 6.62963 25.6829 7.04347V7.94109C25.6829 8.35493 25.3453 8.69067 24.9289 8.69067Z" fill="#FAB80A"/>
<path d="M1.07114 8.69002H10.6378V11.0862H1.07114C0.654503 11.0862 0.317139 10.7511 0.317139 10.3372V9.43898C0.317139 9.02576 0.654503 8.69002 1.07114 8.69002Z" fill="#FAB80A"/>
<path d="M25.683 9.43898V10.3372C25.683 10.7511 25.3456 11.0862 24.929 11.0862H15.3623V8.69002H24.929C25.3456 8.69002 25.683 9.02576 25.683 9.43898Z" fill="#FAB80A"/>
<path d="M25.0313 21.2887V11.0861H22.6189L22.6191 21.2887H3.38101L3.38114 11.0861H0.968786V21.2887C0.608909 21.2887 0.317139 21.5784 0.317139 21.9356V23.0373C0.317139 23.3944 0.608909 23.6848 0.968786 23.6848H25.0313C25.3912 23.6848 25.6829 23.3944 25.6829 23.0373V21.9356C25.6829 21.5784 25.3912 21.2887 25.0313 21.2887Z" fill="#FAB80A"/>
<path d="M4.52771 6.29492V0.867664C4.52771 0.56279 4.7768 0.315237 5.08411 0.315237H6.38353C6.69084 0.315237 6.93993 0.56279 6.93993 0.867664V6.29492H4.52771Z" fill="#FAB80A"/>
<path d="M6.93994 6.29492V1.0686H19.0599V6.29492H6.93994Z" fill="#C8671D"/>
<path d="M1.26953 6.29492V3.89687C1.26953 2.33471 2.54429 1.0686 4.11678 1.0686H4.52777V6.29492H1.26953Z" fill="#C8671D"/>
<path d="M21.4723 6.29492V0.867664C21.4723 0.56279 21.2232 0.315237 20.9159 0.315237H19.6165C19.3091 0.315237 19.0601 0.56279 19.0601 0.867664V6.29492H21.4723Z" fill="#FAB80A"/>
<path d="M24.7306 6.29492V3.89687C24.7306 2.33471 23.4558 1.0686 21.8833 1.0686H21.4723V6.29492H24.7306Z" fill="#C8671D"/>
<path d="M22.6189 11.0861V21.2881H3.3811V11.0861H10.6378V12.2905C10.6378 12.894 11.1299 13.3834 11.7381 13.3834H14.2626C14.8701 13.3834 15.3622 12.894 15.3622 12.2905V11.0861H22.6189Z" fill="#C8671D"/>
<path d="M15.3621 8.69012V12.2907C15.3621 12.8941 14.87 13.3835 14.2625 13.3835H11.7379C11.1298 13.3835 10.6377 12.8941 10.6377 12.2907V8.69012H15.3621Z" fill="#F59510"/>
<path d="M13.7703 10.5756C13.7703 10.1529 13.4255 9.81027 13 9.81027C12.5746 9.81027 12.2297 10.1529 12.2297 10.5756C12.2297 10.815 12.3412 11.0291 12.5152 11.1696V11.9935C12.5152 12.0956 12.5984 12.1787 12.7012 12.1787H13.2989C13.4016 12.1787 13.485 12.0956 13.485 11.9935V11.1696C13.659 11.0291 13.7703 10.815 13.7703 10.5756Z" fill="#FCD28F"/>
<path d="M11.7915 21.2881H14.2086V13.3834H11.7915V21.2881Z" fill="#FAB80A"/>
<path d="M25.3658 10.3374C25.3658 10.5767 25.1698 10.7714 24.9289 10.7714H22.6189H15.6792V9.00575H24.9289C24.9294 9.00575 24.9301 9.00512 24.9307 9.00512C25.1708 9.00638 25.3658 9.20039 25.3658 9.43912V10.3374ZM0.634145 9.43912C0.634145 9.20039 0.829209 9.00638 1.0693 9.00512C1.06993 9.00512 1.0705 9.00575 1.07113 9.00575H10.3207V10.7714H3.38107H1.07107C0.830158 10.7714 0.634145 10.5767 0.634145 10.3374V9.43912ZM15.0451 11.0863V12.2907C15.0451 12.7197 14.6941 13.0686 14.2626 13.0686H14.2086H11.7915H11.738C11.3062 13.0686 10.9549 12.7197 10.9549 12.2907V11.0863V9.00575H15.0451V11.0863ZM22.3018 20.9733H14.5257V13.674C15.1815 13.5511 15.6792 12.9779 15.6792 12.2907V11.4013H22.3018V20.9733ZM13.8915 20.9733H12.1086V13.6985H13.8915V20.9733ZM11.4744 13.674V20.9733H3.69814V11.4013H10.3207V12.2907C10.3207 12.9779 10.8185 13.5505 11.4744 13.674V13.674ZM0.634208 7.0436C0.634208 6.80423 0.830222 6.60959 1.07113 6.60959H1.26949H4.52779H6.94002H19.06H21.4722H24.7305H24.9289C25.1698 6.60959 25.3659 6.80423 25.3659 7.0436V7.94121C25.3659 8.17995 25.1708 8.37458 24.9307 8.37521C24.9301 8.37521 24.9295 8.37521 24.9289 8.37521H15.3622H10.6378H1.07107C1.0705 8.37521 1.06993 8.37521 1.0693 8.37521C0.829209 8.37458 0.634208 8.17995 0.634208 7.94121V7.0436ZM1.58657 3.89659C1.58657 2.5108 2.72169 1.38327 4.11687 1.38327H4.21072V5.97969H1.58657V3.89659ZM4.84487 0.867381C4.84487 0.736361 4.95223 0.629905 5.08419 0.629905H6.38362C6.51558 0.629905 6.62294 0.736361 6.62294 0.867381V1.06832V5.97969H4.84487V1.06832V0.867381ZM18.7429 5.97969H7.25709V1.38327H18.7429V5.97969ZM19.3771 0.867381C19.3771 0.736361 19.4844 0.629905 19.6164 0.629905H20.9158C21.0478 0.629905 21.1551 0.736361 21.1551 0.867381V1.06832V5.97969H19.3771V1.06832V0.867381ZM24.4134 3.89659V5.97969H21.7893V1.38327H21.8832C23.2784 1.38327 24.4134 2.5108 24.4134 3.89659ZM26 7.0436C26 6.49684 25.5825 6.04519 25.0476 5.98661V3.89659C25.0476 2.16309 23.628 0.753364 21.8832 0.753364H21.7808C21.7242 0.328809 21.3583 7.01204e-07 20.9158 7.01204e-07H19.6164C19.1739 7.01204e-07 18.8081 0.328809 18.7514 0.753364H7.24859C7.19196 0.328809 6.82612 7.01204e-07 6.38362 7.01204e-07H5.08419C4.64169 7.01204e-07 4.27585 0.328809 4.21922 0.753364H4.11687C2.37202 0.753364 0.952422 2.16309 0.952422 3.89659V5.98661C0.417584 6.04519 6.34764e-05 6.49684 6.34764e-05 7.0436V7.94121C6.34764e-05 8.23349 0.119093 8.49804 0.311302 8.69016C0.119093 8.88292 0 9.14748 0 9.43912V10.3374C0 10.7764 0.268941 11.1537 0.651647 11.3162V21.0268C0.272746 21.1572 0 21.5157 0 21.9358V23.0375C0 23.5679 0.43458 24 0.96872 24H15.1119C15.2869 24 15.4289 23.8589 15.4289 23.685C15.4289 23.5106 15.2869 23.3701 15.1119 23.3701H0.96872C0.784247 23.3701 0.634145 23.2208 0.634145 23.0375V21.9358C0.634145 21.7525 0.784247 21.6038 0.96872 21.6038C1.14381 21.6038 1.28579 21.4627 1.28579 21.2889V11.4013H3.064L3.06387 21.2889C3.06387 21.3097 3.06615 21.3311 3.0704 21.3513C3.07142 21.3569 3.07364 21.3613 3.07497 21.3664C3.07877 21.3815 3.08271 21.396 3.08867 21.4105C3.0912 21.4161 3.09488 21.4218 3.09773 21.4275C3.10401 21.4401 3.1101 21.4527 3.11809 21.4646C3.11866 21.4653 3.11942 21.4659 3.11999 21.4665C3.1309 21.4823 3.14295 21.4974 3.15677 21.5112C3.18315 21.5377 3.21423 21.5579 3.24752 21.573C3.25113 21.5749 3.2543 21.5774 3.25805 21.5786C3.27593 21.5862 3.29457 21.5919 3.3136 21.5957C3.31487 21.5963 3.31601 21.5969 3.31728 21.5969C3.33808 21.6013 3.35938 21.6038 3.38094 21.6038H22.619C22.6406 21.6038 22.6619 21.6013 22.6827 21.5969C22.6835 21.5969 22.6841 21.5963 22.6849 21.5963C22.7045 21.5925 22.7236 21.5862 22.742 21.5786C22.745 21.5774 22.7476 21.5755 22.7506 21.5742C22.7846 21.5585 22.8163 21.5383 22.8432 21.5112C22.869 21.4861 22.8888 21.4558 22.9041 21.4237C22.9063 21.4193 22.9092 21.4155 22.9112 21.4105C22.9179 21.3947 22.9224 21.3783 22.9265 21.362C22.9273 21.3582 22.9288 21.355 22.9295 21.3519C22.9338 21.3311 22.9361 21.3097 22.9361 21.2889L22.9359 11.4013H24.7142V21.2889C24.7142 21.4627 24.8562 21.6038 25.0313 21.6038C25.2158 21.6038 25.3658 21.7525 25.3658 21.9358V23.0375C25.3658 23.2208 25.2158 23.3701 25.0313 23.3701H19.9846C19.8095 23.3701 19.6675 23.5106 19.6675 23.685C19.6675 23.8589 19.8095 24 19.9846 24H25.0313C25.5654 24 25.9999 23.5679 25.9999 23.0375V21.9358C25.9999 21.5157 25.7273 21.1572 25.3484 21.0268V11.3162C25.7311 11.1537 25.9999 10.7764 25.9999 10.3374V9.43912C25.9999 9.14748 25.8809 8.88292 25.6887 8.69016C25.881 8.49804 26 8.23349 26 7.94121V7.0436" fill="#3A1F16"/>
<path d="M17.7365 23.3701H17.2997C17.1246 23.3701 16.9827 23.5106 16.9827 23.685C16.9827 23.8589 17.1246 24 17.2997 24H17.7365C17.9116 24 18.0536 23.8589 18.0536 23.685C18.0536 23.5106 17.9116 23.3701 17.7365 23.3701Z" fill="#3A1F16"/>
<path d="M13 10.125C13.2499 10.125 13.4532 10.3265 13.4532 10.5753C13.4532 10.7108 13.3919 10.8386 13.2851 10.9249C13.2109 10.9848 13.1678 11.0742 13.1678 11.1694V11.8635H12.8322V11.1694C12.8322 11.0742 12.7891 10.9848 12.7149 10.9249C12.608 10.8386 12.5467 10.7108 12.5467 10.5753C12.5467 10.3265 12.75 10.125 13 10.125ZM12.198 11.9933C12.198 12.2692 12.4237 12.4934 12.7011 12.4934H13.2988C13.5763 12.4934 13.802 12.2692 13.802 11.9933V11.3041C13.9849 11.1064 14.0873 10.8481 14.0873 10.5753C14.0873 9.97946 13.5995 9.49506 13 9.49506C12.4004 9.49506 11.9126 9.97946 11.9126 10.5753C11.9126 10.8481 12.0151 11.1064 12.198 11.3041V11.9933Z" fill="#3A1F16"/>
</svg>
