<svg width="343" height="51" viewBox="0 0 343 51" fill="none" xmlns="http://www.w3.org/2000/svg">
<path d="M157.55 38.8467H147.03C145.901 38.8467 144.92 39.6233 144.661 40.7225L142.9 48.2129C142.677 49.1621 143.397 50.0703 144.371 50.0703H160.209C161.184 50.0703 161.903 49.1621 161.68 48.2129L159.919 40.7225C159.661 39.6233 158.68 38.8467 157.55 38.8467Z" fill="#FAB80A"/>
<path d="M176.412 38.8467H165.892C164.762 38.8467 163.781 39.6233 163.523 40.7225L161.762 48.2129C161.539 49.1621 162.259 50.0703 163.233 50.0703H179.071C180.045 50.0703 180.765 49.1621 180.542 48.2129L178.781 40.7225C178.523 39.6233 177.542 38.8467 176.412 38.8467Z" fill="#FAB80A"/>
<path d="M195.274 38.8467H184.754C183.624 38.8467 182.643 39.6233 182.385 40.7225L180.624 48.2129C180.401 49.1621 181.12 50.0703 182.095 50.0703H197.933C198.907 50.0703 199.627 49.1621 199.404 48.2129L197.643 40.7225C197.384 39.6233 196.403 38.8467 195.274 38.8467Z" fill="#FAB80A"/>
<path d="M166.981 27.6239H156.461C155.331 27.6239 154.35 28.4013 154.092 29.5004L152.331 36.9903C152.108 37.9395 152.827 38.8479 153.802 38.8479H169.64C170.614 38.8479 171.334 37.9395 171.111 36.9903L169.35 29.5004C169.092 28.4013 168.111 27.6239 166.981 27.6239Z" fill="#F89E0E"/>
<path d="M185.842 27.6239H175.322C174.193 27.6239 173.212 28.4013 172.953 29.5004L171.192 36.9903C170.969 37.9395 171.689 38.8479 172.663 38.8479H188.501C189.476 38.8479 190.196 37.9395 189.972 36.9903L188.212 29.5004C187.953 28.4013 186.972 27.6239 185.842 27.6239Z" fill="#F89E0E"/>
<path d="M176.412 16.3989H165.892C164.762 16.3989 163.781 17.1764 163.523 18.2757L161.762 25.7663C161.539 26.7146 162.259 27.6233 163.233 27.6233H179.071C180.045 27.6233 180.765 26.7146 180.542 25.7663L178.781 18.2757C178.523 17.1764 177.542 16.3989 176.412 16.3989Z" fill="#FAB80A"/>
<path d="M171 6.97314C170.609 6.97314 170.292 6.65641 170.292 6.26659V0.706706C170.292 0.31688 170.609 0.000147343 171 0.000147343C171.39 0.000147343 171.707 0.31688 171.707 0.706706V6.26659C171.707 6.65641 171.39 6.97314 171 6.97314Z" fill="#F8A92C"/>
<path d="M164.812 7.9812C164.58 7.9812 164.353 7.86692 164.218 7.65766L161.572 3.56909C161.36 3.24233 161.454 2.80449 161.781 2.59202C162.11 2.37954 162.547 2.4729 162.76 2.80127L165.405 6.88985C165.617 7.21661 165.524 7.65444 165.196 7.86692C165.077 7.94418 164.944 7.9812 164.812 7.9812Z" fill="#F8A92C"/>
<path d="M177.188 7.9812C177.056 7.9812 176.923 7.94418 176.805 7.86692C176.477 7.65605 176.383 7.21661 176.595 6.88985L179.241 2.80127C179.453 2.4729 179.891 2.37954 180.219 2.59202C180.547 2.80449 180.641 3.24232 180.428 3.5707L177.783 7.65766C177.647 7.86692 177.42 7.9812 177.188 7.9812Z" fill="#F8A92C"/>
<path d="M182.572 11.1895C182.316 11.1895 182.068 11.0506 181.943 10.806C181.764 10.4589 181.9 10.0329 182.247 9.85298L186.347 7.73701C186.694 7.55871 187.12 7.6944 187.299 8.04154C187.479 8.38868 187.343 8.8163 186.995 8.9946L182.896 11.1106C182.792 11.1642 182.681 11.1895 182.572 11.1895Z" fill="#F8A92C"/>
<path d="M159.428 11.1895C159.318 11.1895 159.207 11.1642 159.104 11.1106L155.004 8.9946C154.657 8.8163 154.521 8.38868 154.7 8.04154C154.879 7.6944 155.306 7.55872 155.653 7.7386L159.753 9.85456C160.1 10.0329 160.236 10.4605 160.057 10.8076C159.931 11.0506 159.684 11.1895 159.428 11.1895Z" fill="#F8A92C"/>
<path d="M191.662 49.2045H190.322C189.932 49.2045 189.615 49.5214 189.615 49.9118C189.615 50.3023 189.932 50.6191 190.322 50.6191H191.662C192.052 50.6191 192.369 50.3023 192.369 49.9118C192.369 49.5214 192.052 49.2045 191.662 49.2045Z" fill="#3A1F16"/>
<path d="M184.602 37.9806H176.26H172.512C172.265 37.9806 172.035 37.869 171.882 37.6748C171.728 37.4822 171.673 37.2329 171.729 36.9929L173.49 29.5024C173.675 28.718 174.366 28.1707 175.171 28.1707H178.919H185.691C186.496 28.1707 187.187 28.718 187.371 29.5024L189.132 36.9929C189.189 37.2329 189.133 37.4822 188.98 37.6748C188.827 37.869 188.597 37.9806 188.35 37.9806H184.602ZM181.544 40.4025L180.431 45.1378L179.318 40.4025C179.231 40.034 179.083 39.6961 178.885 39.3949H181.976C181.779 39.6961 181.63 40.034 181.544 40.4025ZM179.549 48.8991C179.396 49.0933 179.166 49.2034 178.919 49.2034H163.081C162.834 49.2034 162.604 49.0933 162.451 48.8991C162.297 48.7049 162.242 48.4572 162.298 48.2156L164.059 40.7252C164.244 39.9423 164.935 39.3949 165.74 39.3949H169.488H172.512H176.26C177.065 39.3949 177.756 39.9423 177.941 40.7252L179.702 48.2156C179.758 48.4572 179.703 48.7049 179.549 48.8991ZM160.687 48.8991C160.534 49.0933 160.304 49.2034 160.057 49.2034H144.219C143.972 49.2034 143.743 49.0933 143.589 48.8991C143.436 48.7049 143.38 48.4572 143.437 48.2156L145.198 40.7267C145.382 39.9423 146.073 39.3949 146.878 39.3949H153.65H157.398C158.203 39.3949 158.895 39.9423 159.079 40.7252L160.84 48.2156C160.896 48.4572 160.841 48.7049 160.687 48.8991ZM161.569 45.1378L160.456 40.4025C160.369 40.034 160.221 39.6961 160.024 39.3949H163.115C162.918 39.6961 162.769 40.034 162.682 40.4025L161.569 45.1378ZM153.02 37.6748C152.867 37.4822 152.811 37.2329 152.868 36.9929L154.628 29.5024C154.813 28.718 155.504 28.1707 156.309 28.1707H163.081H166.829C167.634 28.1707 168.326 28.718 168.51 29.5024L170.271 36.9929C170.327 37.2329 170.272 37.4822 170.118 37.6748C169.965 37.869 169.735 37.9806 169.488 37.9806H165.74H157.398H153.65C153.403 37.9806 153.173 37.869 153.02 37.6748ZM171 33.9135L169.887 29.1783C169.8 28.8098 169.652 28.4719 169.455 28.1707H172.546C172.349 28.4719 172.2 28.8098 172.113 29.1783L171 33.9135ZM162.451 26.4521C162.297 26.2579 162.242 26.0087 162.298 25.7686L164.059 18.2781C164.244 17.4938 164.935 16.9464 165.74 16.9464H176.26C177.065 16.9464 177.756 17.4938 177.941 18.2781L179.702 25.7686C179.758 26.0087 179.703 26.2579 179.549 26.4521C179.396 26.6447 179.166 26.7564 178.919 26.7564H175.171H166.829H163.081C162.834 26.7564 162.604 26.6447 162.451 26.4521ZM199.94 47.893L198.18 40.4025C197.844 38.976 196.587 37.9806 195.122 37.9806H190.415C190.577 37.5678 190.614 37.1137 190.509 36.6688L188.749 29.1783C188.413 27.7517 187.156 26.7564 185.691 26.7564H180.984C181.146 26.3435 181.183 25.8894 181.079 25.4445L179.318 17.954C178.983 16.5275 177.725 15.5321 176.26 15.5321H165.74C164.275 15.5321 163.017 16.5275 162.682 17.954L160.921 25.4445C160.817 25.8894 160.854 26.3435 161.016 26.7564H156.309C154.844 26.7564 153.587 27.7517 153.251 29.1783L151.49 36.6688C151.386 37.1137 151.423 37.5678 151.585 37.9806H146.878C145.413 37.9806 144.156 38.976 143.821 40.4025L142.06 47.893C141.904 48.5566 142.057 49.2431 142.48 49.7767C142.904 50.3119 143.537 50.6177 144.219 50.6177H160.057C160.627 50.6177 161.161 50.4021 161.569 50.0198C161.977 50.4021 162.511 50.6177 163.081 50.6177H178.919C179.489 50.6177 180.023 50.4021 180.431 50.0198C180.839 50.4021 181.373 50.6177 181.943 50.6177H186.168C186.559 50.6177 186.875 50.3012 186.875 49.9113C186.875 49.5199 186.559 49.2034 186.168 49.2034H181.943C181.696 49.2034 181.466 49.0933 181.313 48.8991C181.159 48.7049 181.104 48.4572 181.16 48.2156L182.921 40.7267C183.105 39.9423 183.796 39.3949 184.602 39.3949H188.35H195.122C195.927 39.3949 196.618 39.9423 196.802 40.7252L198.563 48.2156C198.62 48.4572 198.564 48.7049 198.411 48.8991C198.257 49.0933 198.028 49.2034 197.781 49.2034H195.794C195.404 49.2034 195.087 49.5199 195.087 49.9113C195.087 50.3012 195.404 50.6177 195.794 50.6177H197.781C198.463 50.6177 199.096 50.3119 199.52 49.7767C199.943 49.2431 200.096 48.5566 199.94 47.893Z" fill="#3A1F16"/>
<path d="M171.152 7.13184C171.542 7.13184 171.859 6.8151 171.859 6.42528V0.865397C171.859 0.475572 171.542 0.158839 171.152 0.158839C170.761 0.158839 170.444 0.475572 170.444 0.865397V6.42528C170.444 6.8151 170.761 7.13184 171.152 7.13184Z" fill="#3A1F16"/>
<path d="M164.37 7.8166C164.505 8.02586 164.732 8.14014 164.964 8.14014C165.096 8.14014 165.229 8.10312 165.348 8.02586C165.676 7.81338 165.769 7.37554 165.557 7.04878L162.912 2.96021C162.699 2.63184 162.261 2.53848 161.933 2.75095C161.606 2.96343 161.512 3.40126 161.724 3.72803L164.37 7.8166Z" fill="#3A1F16"/>
<path d="M176.957 8.02586C177.075 8.10312 177.208 8.14014 177.34 8.14014C177.572 8.14014 177.799 8.02586 177.935 7.8166L180.58 3.72963C180.793 3.40126 180.699 2.96343 180.371 2.75095C180.043 2.53848 179.605 2.63184 179.393 2.96021L176.747 7.04878C176.535 7.37554 176.629 7.81499 176.957 8.02586Z" fill="#3A1F16"/>
<path d="M182.724 11.3481C182.833 11.3481 182.944 11.3229 183.048 11.2692L187.147 9.15329C187.495 8.97499 187.631 8.54737 187.452 8.20023C187.273 7.85309 186.846 7.7174 186.499 7.8957L182.399 10.0117C182.052 10.1916 181.916 10.6176 182.095 10.9647C182.22 11.2093 182.468 11.3481 182.724 11.3481Z" fill="#3A1F16"/>
<path d="M155.156 9.15329L159.256 11.2692C159.359 11.3229 159.47 11.3481 159.58 11.3481C159.836 11.3481 160.083 11.2093 160.209 10.9663C160.388 10.6192 160.252 10.1915 159.905 10.0132L155.805 7.89729C155.458 7.71741 155.031 7.85309 154.852 8.20023C154.673 8.54737 154.809 8.97499 155.156 9.15329Z" fill="#3A1F16"/>
<path d="M106.561 31.0001C106.561 40.699 98.6989 48.561 88.9999 48.561C79.3013 48.561 71.439 40.699 71.439 31.0001C71.439 21.302 79.3013 13.4391 88.9999 13.4391C98.6989 13.4391 106.561 21.302 106.561 31.0001Z" fill="#FAB80A"/>
<path d="M102.749 31C102.749 38.5934 96.5934 44.7485 89 44.7485C81.4071 44.7485 75.2517 38.5934 75.2517 31C75.2517 23.4076 81.4071 17.2516 89 17.2516C96.5934 17.2516 102.749 23.4076 102.749 31Z" fill="#FCF3C5"/>
<path d="M82.7911 37.2085L86.9365 28.9364L91.0633 33.0632L82.7911 37.2085Z" fill="#3BA6DB"/>
<path d="M95.2086 24.7914L86.9365 28.9366L91.0634 33.0635L95.2086 24.7914Z" fill="#EF3547"/>
<path d="M89.0001 18.7563C88.7575 18.7563 88.561 18.953 88.561 19.1953V20.8303C88.561 21.0726 88.7575 21.2693 89.0001 21.2693C89.2424 21.2693 89.4391 21.0726 89.4391 20.8303V19.1953C89.4391 18.953 89.2424 18.7563 89.0001 18.7563Z" fill="#3BA6DB"/>
<path d="M89.0001 40.7307C88.7575 40.7307 88.561 40.9274 88.561 41.1697V42.8046C88.561 43.047 88.7575 43.2437 89.0001 43.2437C89.2424 43.2437 89.4391 43.047 89.4391 42.8046V41.1697C89.4391 40.9274 89.2424 40.7307 89.0001 40.7307Z" fill="#3BA6DB"/>
<path d="M100.804 30.5609H99.1695C98.9272 30.5609 98.7305 30.7576 98.7305 30.9999C98.7305 31.2423 98.9272 31.439 99.1695 31.439H100.804C101.047 31.439 101.243 31.2423 101.243 30.9999C101.243 30.7576 101.047 30.5609 100.804 30.5609Z" fill="#3BA6DB"/>
<path d="M78.8304 30.5609H77.1956C76.9531 30.5609 76.7566 30.7576 76.7566 30.9999C76.7566 31.2423 76.9531 31.439 77.1956 31.439H78.8304C79.0729 31.439 79.2694 31.2423 79.2694 30.9999C79.2694 30.7576 79.0729 30.5609 78.8304 30.5609Z" fill="#3BA6DB"/>
<path d="M104.216 39.7847C104.009 39.6574 103.739 39.7224 103.612 39.9296C103.493 40.1245 103.367 40.3195 103.24 40.51C103.105 40.7119 103.159 40.9841 103.361 41.1194C103.436 41.1694 103.521 41.1931 103.604 41.1931C103.746 41.1931 103.885 41.1246 103.97 40.9982C104.104 40.798 104.236 40.5925 104.361 40.388C104.487 40.1816 104.423 39.9112 104.216 39.7847Z" fill="#3A1F16"/>
<path d="M89 13C79.0747 13 71 21.0745 71 31C71 40.9255 79.0747 49 89 49C93.5088 49 97.8226 47.3256 101.147 44.284C101.326 44.1207 101.338 43.8423 101.174 43.6641C101.011 43.485 100.733 43.4727 100.554 43.636C97.3924 46.5292 93.2893 48.122 89 48.122C79.559 48.122 71.878 40.4417 71.878 31C71.878 21.5592 79.559 13.878 89 13.878C98.4408 13.878 106.122 21.5592 106.122 31C106.122 33.1846 105.716 35.313 104.916 37.3246C104.827 37.5494 104.937 37.8049 105.162 37.8944C105.387 37.984 105.643 37.8742 105.732 37.6486C106.573 35.5334 107 33.2961 107 31C107 21.0745 98.9255 13 89 13Z" fill="#3A1F16"/>
<path d="M89 44.3095C81.6612 44.3095 75.6907 38.3387 75.6907 31C75.6907 23.6613 81.6612 17.6905 89 17.6905C96.3387 17.6905 102.309 23.6613 102.309 31C102.309 38.3387 96.3387 44.3095 89 44.3095ZM89 16.8125C81.1771 16.8125 74.8126 23.1775 74.8126 31C74.8126 38.8234 81.1771 45.1875 89 45.1875C96.8225 45.1875 103.187 38.8234 103.187 31C103.187 23.1775 96.8225 16.8125 89 16.8125Z" fill="#3A1F16"/>
<path d="M90.9431 32.3232L87.6774 29.0569L94.2244 25.7756L90.9431 32.3232ZM87.0565 29.6777L90.3223 32.944L83.7756 36.2244L87.0565 29.6777ZM95.012 24.3988L86.7399 28.5441C86.7365 28.5459 86.7335 28.5485 86.7301 28.5502C86.7223 28.5538 86.7148 28.5581 86.7073 28.5634C86.6999 28.5678 86.6928 28.5722 86.6858 28.5775C86.6787 28.5819 86.6718 28.5871 86.665 28.5924C86.6583 28.5977 86.6516 28.6029 86.6452 28.6091C86.6388 28.6152 86.6327 28.6205 86.6266 28.6266C86.6206 28.6328 86.6146 28.6389 86.6088 28.6459C86.6032 28.6521 86.5978 28.6582 86.5925 28.6653C86.5871 28.6723 86.5818 28.6784 86.5769 28.6863C86.572 28.6934 86.5674 28.7004 86.563 28.7074C86.5584 28.7153 86.5539 28.7223 86.5497 28.7302C86.5479 28.7338 86.5458 28.7364 86.5441 28.7399L82.3987 37.012C82.314 37.1815 82.347 37.386 82.4807 37.5195C82.5651 37.6038 82.6774 37.6477 82.7914 37.6477C82.8581 37.6477 82.9254 37.6328 82.9879 37.6012L91.2601 33.4559C91.2636 33.4541 91.2662 33.4524 91.2697 33.4506C91.2776 33.4462 91.2855 33.4419 91.2926 33.4375C91.2996 33.4331 91.3075 33.4278 91.3145 33.4234C91.3215 33.4181 91.3286 33.4129 91.3347 33.4076C91.3417 33.4023 91.3479 33.3971 91.3549 33.3918C91.3611 33.3857 91.3672 33.3795 91.3733 33.3734C91.3795 33.3672 91.3856 33.3611 91.3909 33.3549C91.3971 33.3488 91.4023 33.3418 91.4076 33.3347C91.4129 33.3286 91.4181 33.3216 91.4234 33.3145C91.4278 33.3075 91.4322 33.3005 91.4366 33.2926C91.4418 33.2856 91.4462 33.2777 91.4506 33.2698C91.4524 33.2671 91.4541 33.2636 91.4559 33.2601L95.6012 24.988C95.6863 24.8194 95.653 24.6148 95.5195 24.4814C95.3852 24.347 95.1814 24.3145 95.012 24.3988Z" fill="#3A1F16"/>
<path d="M89.0001 21.2693C89.2424 21.2693 89.4391 21.0726 89.4391 20.8303V19.1953C89.4391 18.953 89.2424 18.7563 89.0001 18.7563C88.7576 18.7563 88.561 18.953 88.561 19.1953V20.8303C88.561 21.0726 88.7576 21.2693 89.0001 21.2693Z" fill="#3A1F16"/>
<path d="M89.0001 40.7307C88.7576 40.7307 88.561 40.9274 88.561 41.1697V42.8046C88.561 43.047 88.7576 43.2437 89.0001 43.2437C89.2424 43.2437 89.4391 43.047 89.4391 42.8046V41.1697C89.4391 40.9274 89.2424 40.7307 89.0001 40.7307Z" fill="#3A1F16"/>
<path d="M99.1695 31.439H100.804C101.047 31.439 101.243 31.2423 101.243 30.9999C101.243 30.7576 101.047 30.5609 100.804 30.5609H99.1695C98.9272 30.5609 98.7305 30.7576 98.7305 30.9999C98.7305 31.2423 98.9272 31.439 99.1695 31.439Z" fill="#3A1F16"/>
<path d="M78.8304 30.5609H77.1956C76.9531 30.5609 76.7566 30.7576 76.7566 30.9999C76.7566 31.2423 76.9531 31.439 77.1956 31.439H78.8304C79.0728 31.439 79.2694 31.2423 79.2694 30.9999C79.2694 30.7576 79.0728 30.5609 78.8304 30.5609Z" fill="#3A1F16"/>
<path d="M257.935 21.03C257.098 19.9747 257.288 18.4312 258.357 17.589C259.425 16.7479 260.974 16.921 261.81 17.9774C262.592 18.965 262.475 20.3797 261.582 21.2474C261.512 21.2974 261.443 21.3484 261.375 21.4017C261.307 21.4549 261.241 21.5104 261.176 21.567C260.123 22.2339 258.717 22.0175 257.935 21.03ZM269.155 16.8223C269.99 17.8775 269.801 19.421 268.733 20.2632C267.664 21.1043 266.116 20.9312 265.28 19.8748C264.445 18.8196 264.634 17.2761 265.702 16.435C266.77 15.5928 268.319 15.7671 269.155 16.8223ZM266.327 23.683C267.162 24.7383 266.973 26.2818 265.904 27.124C264.836 27.965 263.287 27.7908 262.451 26.7356C261.669 25.748 261.785 24.3322 262.679 23.4656C262.749 23.4156 262.818 23.3646 262.886 23.3113C262.955 23.2569 263.02 23.2026 263.085 23.146C264.138 22.4791 265.545 22.6944 266.327 23.683ZM260.07 27.5367C260.242 27.8585 260.455 28.1659 260.708 28.4522C262.334 30.2875 265.136 30.6093 267.168 29.1912C269.231 27.7509 269.832 25.0656 268.749 22.9596C269.381 22.7465 269.983 22.4014 270.512 21.9176C272.255 20.3253 272.571 17.3827 271.204 15.4874C269.577 13.2338 266.386 12.8221 264.203 14.5409C263.745 14.9027 263.369 15.3276 263.076 15.7948C261.273 14.2535 258.513 14.2158 256.63 15.8869C254.782 17.5269 254.444 20.3131 255.85 22.3138C256.069 22.6245 256.317 22.9019 256.587 23.1438C257.061 23.5665 257.036 24.3133 256.533 24.7105L233.979 42.4888C233.417 42.9315 233.318 43.7404 233.757 44.2952L234.157 44.8012C234.597 45.356 235.409 45.447 235.97 45.0043L236.617 44.495L239.444 48.0657C239.856 48.5861 240.616 48.6716 241.142 48.2566L241.511 47.9669C242.037 47.5519 242.13 46.7941 241.718 46.2748L240.07 44.1931C239.738 43.7726 239.813 43.159 240.239 42.8239L240.971 42.2469C241.396 41.9118 242.012 41.9806 242.345 42.4011L243.992 44.4828C244.404 45.0032 245.164 45.0886 245.691 44.6736L246.059 44.3829C246.585 43.969 246.678 43.2111 246.267 42.6907L243.439 39.12L258.528 27.2238C259.032 26.8255 259.769 26.9775 260.07 27.5367Z" fill="#FAB80A"/>
<path d="M271.594 15.207C270.738 14.0221 269.465 13.2565 268.01 13.0535C266.533 12.8471 265.075 13.2421 263.904 14.1652C263.553 14.4414 263.24 14.7565 262.969 15.1071C260.962 13.7147 258.186 13.8623 256.308 15.5287C254.267 17.3416 253.899 20.377 255.454 22.5904C255.69 22.9266 255.963 23.2328 256.265 23.5035C256.385 23.61 256.449 23.7587 256.444 23.9195C256.439 24.0815 256.362 24.2324 256.233 24.3334L249.516 29.6288C249.307 29.793 249.271 30.0959 249.436 30.3045C249.601 30.5131 249.905 30.5486 250.114 30.3833L256.831 25.0889C257.184 24.8104 257.394 24.3955 257.407 23.9484C257.421 23.5057 257.24 23.0819 256.908 22.7868C256.66 22.5649 256.437 22.3142 256.244 22.039C254.97 20.225 255.273 17.7354 256.949 16.2476C258.603 14.7798 261.102 14.7432 262.762 16.1611C262.869 16.2521 263.01 16.292 263.149 16.2709C263.288 16.2498 263.41 16.17 263.484 16.0513C263.756 15.6186 264.098 15.238 264.502 14.9207C265.464 14.1618 266.663 13.8368 267.875 14.0065C269.068 14.1729 270.111 14.7987 270.811 15.7695C272.043 17.4758 271.757 20.1296 270.186 21.5642C269.72 21.9891 269.185 22.3053 268.595 22.5039C268.461 22.5494 268.354 22.6492 268.301 22.779C268.249 22.9088 268.254 23.0553 268.319 23.1795C269.316 25.1178 268.703 27.5342 266.89 28.7978C265.046 30.0859 262.543 29.7997 261.069 28.1344C260.845 27.8814 260.651 27.6052 260.494 27.3112C260.284 26.9195 259.913 26.6422 259.476 26.5523C259.037 26.4602 258.582 26.5678 258.228 26.8474L243.14 38.7442C242.931 38.9084 242.896 39.2112 243.061 39.4198L245.888 42.9901C246.006 43.1398 246.059 43.3284 246.035 43.5193C246.012 43.7123 245.914 43.8854 245.76 44.0063L245.391 44.297C245.074 44.5466 244.616 44.4967 244.37 44.1861L242.722 42.1047C242.225 41.4756 241.305 41.3714 240.671 41.8706L239.939 42.4475C239.633 42.6883 239.438 43.0333 239.391 43.4194C239.343 43.8055 239.45 44.1872 239.692 44.4923L241.339 46.5736C241.458 46.7234 241.511 46.9109 241.487 47.1028C241.463 47.2948 241.366 47.4689 241.211 47.5899L240.843 47.8794C240.526 48.1291 240.068 48.0791 239.822 47.7685L236.995 44.1983C236.83 43.9897 236.527 43.9542 236.318 44.1184L235.671 44.6276C235.319 44.905 234.809 44.8495 234.535 44.5034L234.135 43.9986C234.003 43.831 233.944 43.6225 233.971 43.4094C233.997 43.1942 234.106 43.0023 234.277 42.8669L244.201 35.0441C244.41 34.8799 244.446 34.577 244.281 34.3684C244.116 34.1599 243.812 34.1244 243.604 34.2897L233.679 42.1125C233.307 42.4054 233.071 42.8247 233.013 43.2918C232.956 43.7622 233.085 44.2249 233.378 44.5943L233.778 45.1002C234.382 45.8624 235.499 45.9889 236.269 45.3832L236.537 45.1713L239.065 48.3654C239.396 48.7826 239.889 49 240.387 49C240.756 49 241.128 48.8813 241.441 48.635L241.809 48.3454C242.164 48.0658 242.389 47.6653 242.444 47.2193C242.499 46.7711 242.376 46.3306 242.096 45.9767L240.448 43.8954C240.368 43.7933 240.332 43.6657 240.348 43.5359C240.364 43.4039 240.431 43.2852 240.537 43.202L241.269 42.625C241.485 42.4553 241.798 42.4886 241.966 42.7005L243.613 44.7818C244.189 45.5096 245.255 45.6306 245.989 45.0514L246.357 44.7619C246.712 44.4823 246.938 44.0829 246.992 43.6358C247.047 43.1886 246.924 42.7471 246.644 42.3943L244.116 39.2001L258.826 27.6018C258.955 27.4998 259.12 27.4609 259.279 27.4942C259.438 27.5264 259.567 27.6229 259.644 27.766C259.836 28.1244 260.073 28.4628 260.347 28.7712C261.391 29.9517 262.858 30.5641 264.344 30.5641C265.417 30.5641 266.502 30.2446 267.444 29.5867C269.501 28.151 270.286 25.4928 269.395 23.2228C269.921 22.9876 270.404 22.6692 270.838 22.2742C272.75 20.5257 273.097 17.2905 271.594 15.207Z" fill="#3A1F16"/>
<path d="M246.466 33.1274C246.57 33.1274 246.676 33.0936 246.764 33.024L247.533 32.417C247.742 32.2528 247.778 31.9503 247.613 31.7414C247.448 31.5334 247.144 31.4976 246.935 31.6627L246.166 32.2687C245.957 32.4329 245.922 32.7354 246.087 32.9444C246.182 33.0648 246.323 33.1274 246.466 33.1274Z" fill="#3A1F16"/>
<path d="M263.185 23.6878C263.248 23.6393 263.31 23.5877 263.373 23.5339C264.228 23.0113 265.331 23.2009 265.949 23.9807C266.272 24.3896 266.415 24.9027 266.351 25.4243C266.287 25.9491 266.023 26.418 265.605 26.7457C264.747 27.4233 263.5 27.2852 262.83 26.437C262.212 25.6572 262.284 24.5445 262.991 23.8342C263.058 23.7858 263.123 23.7373 263.185 23.6878ZM262.766 22.7837C262.707 22.8364 262.647 22.8869 262.587 22.9333C262.529 22.9797 262.465 23.0271 262.4 23.0724C262.38 23.0871 262.361 23.1029 262.343 23.1209C261.258 24.1735 261.141 25.8564 262.074 27.0334C262.647 27.7594 263.503 28.1377 264.37 28.1377C265.012 28.1377 265.659 27.9291 266.203 27.5012C266.821 27.0144 267.213 26.319 267.309 25.5413C267.404 24.7626 267.19 23.9965 266.705 23.3843C265.773 22.2073 264.106 21.9301 262.827 22.7394C262.806 22.7531 262.786 22.7679 262.766 22.7837Z" fill="#3A1F16"/>
<path d="M261.27 20.8785C261.202 20.9275 261.138 20.9765 261.076 21.0244C261.013 21.0734 260.951 21.1257 260.889 21.179C260.031 21.7017 258.93 21.5122 258.312 20.7326C257.988 20.3232 257.845 19.8103 257.91 19.2888C257.974 18.765 258.239 18.2957 258.655 17.968C259.022 17.6784 259.46 17.5379 259.893 17.5379C260.474 17.5379 261.047 17.7905 261.431 18.2761C262.049 19.0557 261.977 20.1686 261.27 20.8785ZM258.058 17.2123C257.44 17.699 257.048 18.3948 256.953 19.1712C256.857 19.9508 257.071 20.7163 257.555 21.3282C258.129 22.0523 258.98 22.4355 259.847 22.4355C260.391 22.4355 260.942 22.2853 261.435 21.9739C261.455 21.9608 261.475 21.9456 261.493 21.9292C261.553 21.877 261.614 21.8269 261.674 21.7801C261.733 21.7332 261.795 21.6864 261.861 21.6407C261.881 21.6265 261.899 21.6102 261.918 21.5928C263.003 20.5388 263.119 18.8565 262.188 17.6794C261.187 16.4164 259.334 16.2062 258.058 17.2123Z" fill="#3A1F16"/>
<path d="M265.255 18.1336C265.319 17.6097 265.584 17.1407 266 16.813C266.368 16.5237 266.804 16.3834 267.238 16.3834C267.819 16.3834 268.391 16.6355 268.777 17.121C269.1 17.5308 269.243 18.0426 269.179 18.5654C269.115 19.0893 268.849 19.5583 268.433 19.886C267.574 20.5633 266.328 20.4252 265.658 19.578C265.334 19.1693 265.191 18.6564 265.255 18.1336ZM267.197 21.2778C267.839 21.2778 268.487 21.0696 269.031 20.6411C269.648 20.1556 270.04 19.4597 270.136 18.6827C270.231 17.9035 270.017 17.1374 269.533 16.5248C268.532 15.2612 266.679 15.0518 265.402 16.0579C264.785 16.5445 264.393 17.2404 264.297 18.0174C264.202 18.7966 264.416 19.5627 264.901 20.1742C265.475 20.8997 266.33 21.2778 267.197 21.2778Z" fill="#3A1F16"/>
<path d="M15.7188 48.561H1.29668C0.823057 48.561 0.439087 48.1773 0.439087 47.7041V45.1726C0.439087 44.6994 0.823057 44.3157 1.29668 44.3157H15.7188C16.1924 44.3157 16.5764 44.6994 16.5764 45.1726V47.7041C16.5764 48.1773 16.1924 48.561 15.7188 48.561Z" fill="#F79011"/>
<path d="M20.2813 48.561H34.7034C35.177 48.561 35.5609 48.1773 35.5609 47.7041V45.1726C35.5609 44.6994 35.177 44.3157 34.7034 44.3157H20.2813C19.8077 44.3157 19.4237 44.6994 19.4237 45.1726V47.7041C19.4237 48.1773 19.8077 48.561 20.2813 48.561Z" fill="#F79011"/>
<path d="M14.9664 37.0136V44.3154H2.04944V31.762C2.04944 30.0779 3.35685 28.7134 4.97071 28.7134H14.0717C13.2138 28.7134 12.5184 29.4088 12.5184 30.2667V35.4594C12.5184 36.3173 13.2138 37.0136 14.0717 37.0136H14.9664Z" fill="#FAB80A"/>
<path d="M33.9505 31.517V44.3154H21.0336V37.0136H21.9283C22.7862 37.0136 23.4824 36.3173 23.4824 35.4594V30.2667C23.4824 29.4088 22.7862 28.7134 21.9283 28.7134H31.1469C32.6958 28.7134 33.9505 29.9681 33.9505 31.517Z" fill="#FAB80A"/>
<path d="M28.5323 21.7955H21.612C21.0143 21.7955 20.5298 22.2802 20.5298 22.8781V28.7136H30.633V23.8967C30.633 22.7367 29.6925 21.7955 28.5323 21.7955Z" fill="#F79011"/>
<path d="M14.4303 21.7955H7.50995C6.34978 21.7955 5.4093 22.7367 5.4093 23.8967V28.7136H15.5125V22.8781C15.5125 22.2802 15.028 21.7955 14.4303 21.7955Z" fill="#F79011"/>
<path d="M27.3934 21.7954H22.0942V16.2339H27.3934V21.7954Z" fill="#FAB80A"/>
<path d="M27.9586 13.4391H21.529C21.195 13.4391 20.9242 13.7095 20.9242 14.044V15.6289C20.9242 15.9626 21.195 16.2339 21.529 16.2339H27.9586C28.2926 16.2339 28.5633 15.9626 28.5633 15.6289V14.044C28.5633 13.7095 28.2926 13.4391 27.9586 13.4391Z" fill="#F79011"/>
<path d="M8.60681 21.7954H13.906V16.2339H8.60681V21.7954Z" fill="#FAB80A"/>
<path d="M8.04157 13.4391H14.4712C14.8052 13.4391 15.076 13.7095 15.076 14.044V15.6289C15.076 15.9626 14.8052 16.2339 14.4712 16.2339H8.04157C7.70756 16.2339 7.43677 15.9626 7.43677 15.6289V14.044C7.43677 13.7095 7.70756 13.4391 8.04157 13.4391Z" fill="#F79011"/>
<path d="M23.4825 30.2667V35.4595C23.4825 36.3174 22.7862 37.0137 21.9284 37.0137H14.0716C13.2137 37.0137 12.5183 36.3174 12.5183 35.4595V30.2667C12.5183 29.4089 13.2137 28.7135 14.0716 28.7135H21.9284C22.7862 28.7135 23.4825 29.4089 23.4825 30.2667Z" fill="#F79011"/>
<path d="M20.2709 34.3718H15.7292C15.3079 34.3718 14.9664 34.0303 14.9664 33.6088V32.1188C14.9664 31.6973 15.3079 31.3557 15.7292 31.3557H20.2709C20.6922 31.3557 21.0337 31.6973 21.0337 32.1188V33.6088C21.0337 34.0303 20.6922 34.3718 20.2709 34.3718Z" fill="#FCF3C5"/>
<path d="M35.122 47.704C35.122 47.9341 34.9342 48.122 34.7035 48.122H20.2813C20.0505 48.122 19.8628 47.9341 19.8628 47.704V45.1726C19.8628 44.9417 20.0505 44.7546 20.2813 44.7546H21.0302C21.0315 44.7546 21.0325 44.7546 21.0337 44.7546H33.9506C33.9518 44.7546 33.9528 44.7546 33.9541 44.7546H34.7035C34.9342 44.7546 35.122 44.9417 35.122 45.1726V47.704ZM14.5273 43.8766H2.48839V31.7621C2.48839 30.323 3.60193 29.1526 4.97063 29.1526H12.4208C12.4206 29.1526 12.4205 29.1535 12.4204 29.1535C12.3966 29.1886 12.3743 29.2246 12.3528 29.2615C12.3473 29.2702 12.3419 29.2799 12.3364 29.2896C12.316 29.3256 12.2963 29.3624 12.278 29.4002C12.2775 29.4011 12.2768 29.4028 12.2763 29.4037C12.2576 29.4423 12.2407 29.4819 12.2246 29.5214C12.2205 29.531 12.2165 29.5416 12.2125 29.5521C12.1972 29.5916 12.1827 29.632 12.1699 29.6724C12.1697 29.6733 12.1694 29.6741 12.1691 29.675C12.1562 29.7163 12.1452 29.7584 12.1349 29.8006C12.1323 29.812 12.1298 29.8225 12.1273 29.8331C12.1179 29.8761 12.1093 29.9191 12.1025 29.963C12.1025 29.963 12.1024 29.963 12.1023 29.9639C12.0956 30.0078 12.0909 30.0517 12.087 30.0965C12.0862 30.1079 12.0853 30.1193 12.0845 30.1307C12.0814 30.1755 12.0793 30.2212 12.0793 30.2668V35.4596C12.0793 36.5589 12.9731 37.4528 14.0716 37.4528H14.5273V43.8766ZM16.1372 45.1726V47.704C16.1372 47.9341 15.9495 48.122 15.7187 48.122H1.29661C1.06577 48.122 0.878049 47.9341 0.878049 47.704V45.1726C0.878049 44.9417 1.06577 44.7546 1.29661 44.7546H2.04594C2.04717 44.7546 2.04822 44.7546 2.04937 44.7546H14.9663C14.9675 44.7546 14.9686 44.7546 14.9698 44.7546H15.7187C15.9495 44.7546 16.1372 44.9417 16.1372 45.1726ZM5.84833 23.8966C5.84833 22.9799 6.59371 22.2344 7.50995 22.2344H14.4304C14.7849 22.2344 15.0735 22.5233 15.0735 22.8781V28.2745H5.84833V23.8966ZM20.9688 22.8781C20.9688 22.5233 21.2573 22.2344 21.6119 22.2344H28.5323C29.4485 22.2344 30.1939 22.9799 30.1939 23.8966V28.2745H20.9688V22.8781ZM23.0435 35.4596C23.0435 36.0742 22.5433 36.5747 21.9284 36.5747H21.0337H14.9663H14.0716C13.4572 36.5747 12.9574 36.0742 12.9574 35.4596V30.2668C12.9574 29.6522 13.4572 29.1526 14.0716 29.1526H21.9284C22.5433 29.1526 23.0435 29.6522 23.0435 30.2668V35.4596ZM13.4669 16.6729V21.3564H9.04575V16.6729H13.4669ZM7.87583 15.6289V14.044C7.87583 13.9527 7.95012 13.8781 8.04152 13.8781H14.4711C14.5625 13.8781 14.6369 13.9527 14.6369 14.044V15.6289C14.6369 15.7202 14.5625 15.7948 14.4711 15.7948H13.9059H8.60672H8.04152C7.95012 15.7948 7.87583 15.7202 7.87583 15.6289ZM26.9543 16.6729V21.3564H22.5332V16.6729H26.9543ZM21.3632 15.6289V14.044C21.3632 13.9527 21.4376 13.8781 21.529 13.8781H27.9586C28.05 13.8781 28.1243 13.9527 28.1243 14.044V15.6289C28.1243 15.7202 28.05 15.7948 27.9586 15.7948H27.3934H22.0942H21.529C21.4376 15.7948 21.3632 15.7202 21.3632 15.6289ZM34.7035 43.8766H34.3897V38.8673C34.3897 38.625 34.1931 38.4283 33.9506 38.4283C33.7082 38.4283 33.5116 38.625 33.5116 38.8673V43.8766H21.4727V37.4528H21.9284C23.0274 37.4528 23.9216 36.5589 23.9216 35.4596V30.2668C23.9216 30.2212 23.9195 30.1755 23.9164 30.1307C23.9156 30.1193 23.9148 30.1079 23.9138 30.0965C23.91 30.0517 23.9053 30.0078 23.8986 29.9639C23.8985 29.963 23.8984 29.963 23.8983 29.9621C23.8916 29.9191 23.883 29.8761 23.8735 29.8331C23.8711 29.8225 23.8686 29.812 23.866 29.8006C23.8558 29.7584 23.8446 29.7163 23.8317 29.675C23.8315 29.6741 23.8311 29.6733 23.8309 29.6724C23.818 29.6311 23.8036 29.5916 23.7884 29.5521C23.7844 29.5416 23.7804 29.531 23.7762 29.5214C23.7601 29.481 23.7431 29.4423 23.7245 29.4037C23.724 29.4028 23.7235 29.4011 23.7229 29.4002C23.7046 29.3624 23.6847 29.3256 23.6642 29.2896C23.6589 29.2799 23.6536 29.2711 23.6481 29.2615C23.6264 29.2246 23.6041 29.1886 23.5802 29.1526C23.5801 29.1526 23.5801 29.1526 23.58 29.1526H31.147C32.4508 29.1526 33.5116 30.2133 33.5116 31.5172V34.11C33.5116 34.3533 33.7082 34.5491 33.9506 34.5491C34.1931 34.5491 34.3897 34.3533 34.3897 34.11V31.5172C34.3897 29.7295 32.9351 28.2745 31.147 28.2745H31.072V23.8966C31.072 22.4961 29.9327 21.3564 28.5323 21.3564H27.8324V16.6729H27.9586C28.534 16.6729 29.0023 16.204 29.0023 15.6289V14.044C29.0023 13.468 28.534 13 27.9586 13H21.529C20.9534 13 20.4851 13.468 20.4851 14.044V15.6289C20.4851 16.204 20.9534 16.6729 21.529 16.6729H21.6551V21.3564H21.6119C20.7731 21.3564 20.0907 22.0395 20.0907 22.8781V28.2745H15.9515V22.8781C15.9515 22.0395 15.2691 21.3564 14.4304 21.3564H14.3449V16.6729H14.4711C15.0467 16.6729 15.5149 16.204 15.5149 15.6289V14.044C15.5149 13.468 15.0467 13 14.4711 13H8.04152C7.46605 13 6.99779 13.468 6.99779 14.044V15.6289C6.99779 16.204 7.46605 16.6729 8.04152 16.6729H8.1677V21.3564H7.50995C6.10955 21.3564 4.97028 22.4961 4.97028 23.8966V28.2745C3.1176 28.2745 1.61034 29.8392 1.61034 31.7621V43.8766H1.29661C0.581619 43.8766 0 44.4579 0 45.1726V47.704C0 48.4187 0.581619 49 1.29661 49H15.7187C16.4336 49 17.0153 48.4187 17.0153 47.704V45.1726C17.0153 44.4579 16.4336 43.8766 15.7187 43.8766H15.4054V37.4528H20.5946V43.8766H20.2813C19.5663 43.8766 18.9847 44.4579 18.9847 45.1726V47.704C18.9847 48.4187 19.5663 49 20.2813 49H34.7035C35.4184 49 36 48.4187 36 47.704V45.1726C36 44.4579 35.4184 43.8766 34.7035 43.8766Z" fill="#3A1F16"/>
<path d="M33.9506 35.8073C33.7082 35.8073 33.5116 36.004 33.5116 36.2464V36.6801C33.5116 36.9225 33.7082 37.1191 33.9506 37.1191C34.1931 37.1191 34.3896 36.9225 34.3896 36.6801V36.2464C34.3896 36.004 34.1931 35.8073 33.9506 35.8073Z" fill="#3A1F16"/>
<path d="M20.5946 33.6087C20.5946 33.787 20.4493 33.9327 20.2708 33.9327H15.7291C15.5506 33.9327 15.4054 33.787 15.4054 33.6087V32.1187C15.4054 31.9404 15.5506 31.7947 15.7291 31.7947H20.2708C20.4493 31.7947 20.5946 31.9404 20.5946 32.1187V33.6087ZM20.2708 30.9166H15.7291C15.0665 30.9166 14.5273 31.4558 14.5273 32.1187V33.6087C14.5273 34.2717 15.0665 34.8108 15.7291 34.8108H20.2708C20.9335 34.8108 21.4726 34.2717 21.4726 33.6087V32.1187C21.4726 31.4558 20.9335 30.9166 20.2708 30.9166Z" fill="#3A1F16"/>
<path d="M342.549 22.0635V45.6648C342.549 44.0779 341.244 42.7904 339.627 42.7696C339.614 42.7686 339.6 42.7686 339.587 42.7686H338.628L337.633 39.7637L336.637 42.7686H334.721V19.1683H336.675L337.633 22.0635L338.591 19.1683H339.587C339.6 19.1683 339.614 19.1683 339.627 19.1693C341.244 19.1891 342.549 20.4776 342.549 22.0635Z" fill="#F8CD72"/>
<path d="M342.548 45.6643C342.548 46.4638 342.218 47.1877 341.682 47.7117C341.145 48.2357 340.405 48.5598 339.586 48.5598H331.191L330.175 46.3717L329.159 48.5598H315.016L314 46.3717L312.983 48.5598H306.489C306.465 48.4259 306.451 48.2774 306.451 48.1037C306.451 46.8248 307.213 46.8248 307.213 45.5459C307.213 44.266 306.451 44.266 306.451 42.987C306.451 41.7081 307.213 41.7081 307.213 40.4292C307.213 39.1502 306.451 39.1502 306.451 37.8703C306.451 36.5914 307.213 36.5914 307.213 35.3115C307.213 34.0335 306.451 34.0335 306.451 32.7536C306.451 31.4747 307.213 31.4747 307.213 30.1958C307.213 28.9158 306.451 28.9159 306.451 27.6379C306.451 26.358 307.213 26.358 307.213 25.079C307.213 23.7991 306.451 23.7991 306.451 22.5202C306.451 22.3465 306.465 22.1961 306.489 22.0632H312.164C313.593 26.1843 318.097 29.4874 318.097 29.4874C318.097 29.4874 322.62 26.2299 324.04 22.0632H329.217L330.175 24.0767L331.133 22.0632H334.721V42.7687H336.638L337.633 39.7635L338.629 42.7687H339.586C339.6 42.7687 339.613 42.7687 339.627 42.7697C341.244 42.7901 342.548 44.0787 342.548 45.6643Z" fill="#FCF3C5"/>
<path d="M324.459 19.6617C324.459 20.4834 324.303 21.2897 324.039 22.0633C323.233 24.4332 321.42 26.5093 320.008 27.859C318.938 28.8823 318.096 29.488 318.096 29.488C318.096 29.488 317.264 28.8772 316.203 27.8539C314.793 26.4971 312.979 24.4127 312.164 22.0633C311.894 21.2856 311.735 20.4803 311.735 19.6617C311.735 16.2267 314.583 13.4414 318.096 13.4414C321.611 13.4414 324.459 16.2267 324.459 19.6617Z" fill="#EF3547"/>
<path d="M321.976 19.4913C321.976 21.5859 320.239 23.2837 318.097 23.2837C315.955 23.2837 314.217 21.5859 314.217 19.4913C314.217 17.3958 315.955 15.698 318.097 15.698C320.239 15.698 321.976 17.3958 321.976 19.4913Z" fill="#FDE252"/>
<path d="M321.977 29.4871C321.977 30.5211 320.24 31.3596 318.098 31.3596C315.955 31.3596 314.218 30.5211 314.218 29.4871C314.218 28.7851 315.018 28.1737 316.204 27.853C317.265 28.8767 318.098 29.4871 318.098 29.4871C318.098 29.4871 318.938 28.8814 320.009 27.8586C321.183 28.1793 321.977 28.7879 321.977 29.4871Z" fill="#3BA6DB"/>
<path d="M318.096 32.2429C318.345 32.2429 318.548 32.0451 318.548 31.8014V31.3608C318.548 31.1171 318.345 30.9193 318.096 30.9193C317.847 30.9193 317.646 31.1171 317.646 31.3608V31.8014C317.646 32.0451 317.847 32.2429 318.096 32.2429Z" fill="#CE8633"/>
<path d="M318.548 34.7637V33.9173C318.548 33.6734 318.346 33.4762 318.097 33.4762C317.848 33.4762 317.646 33.6734 317.646 33.9173V34.7637C317.646 35.0077 317.848 35.2048 318.097 35.2048C318.346 35.2048 318.548 35.0077 318.548 34.7637Z" fill="#CE8633"/>
<path d="M318.704 36.7368C318.631 36.5038 318.38 36.3714 318.142 36.442C317.903 36.5117 317.768 36.758 317.84 36.991C317.932 37.291 318.057 37.5814 318.212 37.8559C318.294 38.0015 318.447 38.0845 318.607 38.0845C318.68 38.0845 318.755 38.0668 318.825 38.0298C319.042 37.9115 319.122 37.6432 319.002 37.4305C318.878 37.2098 318.778 36.9768 318.704 36.7368Z" fill="#CE8633"/>
<path d="M321.018 39.0959C320.776 39.0138 320.542 38.9062 320.322 38.7756C320.108 38.6494 319.831 38.7156 319.702 38.9238C319.573 39.132 319.641 39.4038 319.854 39.53C320.127 39.6923 320.42 39.8264 320.721 39.9296C320.771 39.9464 320.82 39.9543 320.87 39.9543C321.056 39.9543 321.231 39.8396 321.296 39.6579C321.378 39.4276 321.254 39.1762 321.018 39.0959Z" fill="#CE8633"/>
<path d="M323.874 39.2954H323.009C322.759 39.2954 322.557 39.4931 322.557 39.7366C322.557 39.9801 322.759 40.1777 323.009 40.1777H323.874C324.123 40.1777 324.325 39.9801 324.325 39.7366C324.325 39.4931 324.123 39.2954 323.874 39.2954Z" fill="#CE8633"/>
<path d="M326.905 39.2954H326.039C325.79 39.2954 325.588 39.4931 325.588 39.7366C325.588 39.9801 325.79 40.1777 326.039 40.1777H326.905C327.155 40.1777 327.357 39.9801 327.357 39.7366C327.357 39.4931 327.155 39.2954 326.905 39.2954Z" fill="#CE8633"/>
<path d="M329.524 39.2962H329.073C328.824 39.2962 328.622 39.4939 328.622 39.7378C328.622 39.9807 328.824 40.1785 329.073 40.1785H329.524C329.775 40.1785 329.976 39.9807 329.976 39.7378C329.976 39.4939 329.775 39.2962 329.524 39.2962Z" fill="#CE8633"/>
<path d="M330.165 39.7368L331.254 38.6704C331.431 38.4984 331.431 38.2191 331.254 38.0471C331.078 37.8743 330.791 37.8743 330.616 38.0471L329.526 39.1127L328.437 38.0471C328.26 37.8743 327.974 37.8743 327.798 38.0471C327.622 38.2191 327.622 38.4984 327.798 38.6704L328.887 39.7368L327.798 40.8024C327.622 40.9743 327.622 41.2537 327.798 41.4256C327.886 41.5124 328.002 41.5554 328.117 41.5554C328.232 41.5554 328.348 41.5124 328.437 41.4256L329.526 40.36L330.616 41.4256C330.704 41.5124 330.82 41.5554 330.935 41.5554C331.051 41.5554 331.166 41.5124 331.254 41.4256C331.431 41.2537 331.431 40.9743 331.254 40.8024L330.165 39.7368Z" fill="#EF3547"/>
<path d="M336.638 43.2095C336.834 43.2095 337.007 43.0863 337.067 42.9048L337.632 41.1955L338.199 42.9048C338.259 43.0863 338.432 43.2095 338.628 43.2095H339.586H339.598C339.605 43.2105 339.614 43.2105 339.622 43.2105C340.986 43.2279 342.098 44.3288 342.098 45.6646C342.098 46.3202 341.836 46.9358 341.362 47.3995C340.888 47.8632 340.257 48.1177 339.586 48.1177H331.482L330.586 46.1889C330.512 46.0309 330.352 45.9303 330.176 45.9303C329.998 45.9303 329.838 46.0309 329.764 46.1889L328.868 48.1177H315.307L314.411 46.1889C314.337 46.0309 314.177 45.9303 314 45.9303C313.823 45.9303 313.663 46.0309 313.589 46.1889L312.693 48.1177H306.902C306.902 48.1136 306.902 48.1084 306.902 48.1043C306.902 47.5831 307.043 47.3461 307.221 47.0466C307.429 46.6988 307.664 46.3038 307.664 45.5456C307.664 44.7864 307.429 44.3924 307.221 44.0446C307.043 43.744 306.902 43.507 306.902 42.9868C306.902 42.4667 307.043 42.2297 307.221 41.9301C307.429 41.5823 307.664 41.1873 307.664 40.4291C307.664 39.6699 307.429 39.2759 307.221 38.9281C307.043 38.6275 306.902 38.3905 306.902 37.8704C306.902 37.3492 307.043 37.1132 307.221 36.8126C307.429 36.4648 307.664 36.0698 307.664 35.3116C307.664 34.5534 307.429 34.1594 307.221 33.8116C307.043 33.511 306.902 33.274 306.902 32.7539C306.902 32.2327 307.043 31.9967 307.221 31.6961C307.429 31.3483 307.664 30.9533 307.664 30.1951C307.664 29.4359 307.429 29.042 307.221 28.6941C307.043 28.3946 306.902 28.1576 306.902 27.6374C306.902 27.1162 307.043 26.8802 307.221 26.5796C307.429 26.2318 307.664 25.8379 307.664 25.0787C307.664 24.3205 307.429 23.9255 307.221 23.5777C307.043 23.2771 306.902 23.0411 306.902 22.5199C306.902 22.5148 306.902 22.5096 306.902 22.5045H311.848C312.632 24.5462 314.107 26.3632 315.381 27.6661C314.358 28.0929 313.766 28.7465 313.766 29.4872C313.766 30.7245 315.406 31.6766 317.646 31.7895V31.8008C317.646 32.0449 317.847 32.2419 318.097 32.2419C318.346 32.2419 318.548 32.0449 318.548 31.8008V31.7895C320.789 31.6766 322.428 30.7245 322.428 29.4872C322.428 28.7516 321.842 28.1011 320.831 27.6743C322.107 26.3765 323.58 24.5616 324.358 22.5045H328.929L329.766 24.263C329.841 24.4179 330 24.5175 330.176 24.5175C330.351 24.5175 330.51 24.4179 330.584 24.262L331.421 22.5045H334.27V42.7683C334.27 43.0125 334.473 43.2095 334.721 43.2095H336.638ZM318.097 30.9184C317.129 30.9184 316.225 30.7399 315.554 30.4157C314.991 30.1449 314.669 29.8063 314.669 29.4872C314.669 29.0707 315.225 28.6285 316.078 28.3515C316.08 28.3525 316.081 28.3535 316.082 28.3556C316.089 28.3617 316.095 28.3669 316.101 28.373C316.159 28.4264 316.215 28.4777 316.269 28.529C316.289 28.5474 316.308 28.5649 316.328 28.5833C316.369 28.6203 316.409 28.6572 316.449 28.6921C316.472 28.7136 316.495 28.7342 316.519 28.7557C316.553 28.7865 316.586 28.8162 316.619 28.846C316.644 28.8675 316.668 28.8891 316.693 28.9106C316.723 28.9373 316.753 28.964 316.783 28.9896C316.808 29.0112 316.831 29.0307 316.855 29.0512C316.882 29.0758 316.91 29.0994 316.938 29.123C316.961 29.1425 316.984 29.162 317.006 29.1815C317.031 29.203 317.057 29.2246 317.081 29.2461C317.105 29.2646 317.125 29.283 317.148 29.3005C317.171 29.32 317.194 29.3384 317.216 29.3569C317.236 29.3744 317.257 29.3908 317.277 29.4072C317.299 29.4257 317.32 29.4421 317.339 29.4585C317.358 29.4739 317.376 29.4893 317.394 29.5036C317.414 29.519 317.432 29.5334 317.45 29.5478C317.468 29.5621 317.483 29.5754 317.499 29.5878C317.517 29.6011 317.532 29.6144 317.548 29.6267C317.563 29.638 317.578 29.6503 317.591 29.6606C317.606 29.6719 317.619 29.6821 317.632 29.6924C317.645 29.7027 317.658 29.7119 317.669 29.7211C317.682 29.7314 317.693 29.7396 317.706 29.7488C317.714 29.756 317.724 29.7632 317.732 29.7694C317.743 29.7776 317.751 29.7847 317.761 29.7919C317.768 29.796 317.774 29.8012 317.779 29.8053C317.79 29.8124 317.796 29.8176 317.802 29.8227C317.806 29.8248 317.809 29.8278 317.811 29.8289C317.819 29.835 317.824 29.8391 317.826 29.8402C317.846 29.8545 317.867 29.8678 317.888 29.8791C317.897 29.8832 317.906 29.8853 317.915 29.8894C317.928 29.8956 317.942 29.9017 317.956 29.9068C317.965 29.9099 317.975 29.9109 317.985 29.913C317.999 29.9171 318.011 29.9212 318.025 29.9233C318.035 29.9243 318.047 29.9243 318.056 29.9253C318.07 29.9263 318.083 29.9284 318.096 29.9284H318.097C318.111 29.9284 318.125 29.9263 318.138 29.9253C318.147 29.9243 318.157 29.9253 318.166 29.9233C318.18 29.9212 318.194 29.9171 318.207 29.914C318.217 29.912 318.226 29.9099 318.236 29.9068C318.25 29.9027 318.265 29.8956 318.28 29.8894C318.287 29.8863 318.295 29.8843 318.302 29.8802C318.324 29.8699 318.344 29.8576 318.364 29.8432C318.367 29.8412 318.371 29.8371 318.38 29.8319C318.383 29.8299 318.386 29.8268 318.389 29.8248C318.395 29.8196 318.402 29.8155 318.412 29.8083C318.416 29.8042 318.423 29.8001 318.429 29.796C318.439 29.7878 318.448 29.7806 318.46 29.7714C318.468 29.7663 318.477 29.7601 318.485 29.7529C318.498 29.7437 318.511 29.7345 318.524 29.7232C318.535 29.716 318.545 29.7078 318.557 29.6996C318.572 29.6873 318.587 29.676 318.604 29.6627C318.616 29.6534 318.628 29.6432 318.641 29.6339C318.66 29.6196 318.679 29.6052 318.699 29.5898C318.711 29.5785 318.726 29.5672 318.742 29.5549C318.761 29.5395 318.782 29.5231 318.803 29.5057C318.82 29.4923 318.837 29.479 318.854 29.4657C318.877 29.4472 318.899 29.4287 318.923 29.4103C318.942 29.3949 318.96 29.3805 318.979 29.3651C319.003 29.3446 319.028 29.3241 319.054 29.3025C319.074 29.2861 319.094 29.2697 319.115 29.2533C319.142 29.2307 319.17 29.2071 319.198 29.1835C319.219 29.1661 319.24 29.1487 319.26 29.1302C319.29 29.1056 319.321 29.0789 319.351 29.0532C319.374 29.0348 319.394 29.0163 319.417 28.9968C319.45 28.9691 319.482 28.9404 319.516 28.9117C319.538 28.8922 319.56 28.8737 319.582 28.8532C319.619 28.8214 319.655 28.7896 319.691 28.7567C319.713 28.7372 319.734 28.7188 319.756 28.6993C319.798 28.6623 319.841 28.6234 319.884 28.5833C319.902 28.568 319.919 28.5526 319.937 28.5361C319.993 28.4838 320.052 28.4294 320.111 28.3751C320.116 28.371 320.12 28.3669 320.125 28.3617C320.127 28.3607 320.129 28.3587 320.131 28.3566C320.975 28.6336 321.526 29.0738 321.526 29.4872C321.526 29.8063 321.203 30.1449 320.64 30.4157C319.968 30.7399 319.066 30.9184 318.097 30.9184ZM318.097 13.8823C321.357 13.8823 324.008 16.4749 324.008 19.6616C324.008 20.39 323.874 21.1513 323.612 21.9238C322.829 24.2199 321.05 26.2472 319.693 27.543C319.693 27.543 319.693 27.543 319.692 27.543C319.014 28.1925 318.425 28.6726 318.099 28.927C317.777 28.6716 317.194 28.1883 316.52 27.5389C315.164 26.2339 313.381 24.2004 312.591 21.9207C312.322 21.1461 312.186 20.3859 312.186 19.6616C312.186 16.4749 314.838 13.8823 318.097 13.8823ZM339.643 18.7279C339.641 18.7279 339.639 18.7279 339.637 18.7279C339.634 18.7279 339.63 18.7269 339.627 18.7269H339.586H338.592C338.395 18.7269 338.222 18.85 338.161 19.0327L337.632 20.6301L337.105 19.0327C337.044 18.85 336.871 18.7269 336.674 18.7269H334.721C334.473 18.7269 334.27 18.9249 334.27 19.1681V21.6222H331.134C330.958 21.6222 330.799 21.7217 330.724 21.8766L330.176 23.0308L329.626 21.8766C329.551 21.7217 329.392 21.6222 329.216 21.6222H324.642C324.821 20.9574 324.911 20.2997 324.911 19.6616C324.911 15.9886 321.854 13 318.097 13C314.34 13 311.284 15.9886 311.284 19.6616C311.284 20.2977 311.377 20.9553 311.557 21.6222H306.49C306.272 21.6222 306.084 21.7751 306.046 21.9854C306.015 22.1536 306 22.3291 306 22.5199C306 23.2791 306.234 23.6731 306.442 24.0209C306.621 24.3215 306.762 24.5585 306.762 25.0787C306.762 25.5998 306.621 25.8358 306.442 26.1364C306.234 26.4842 306 26.8782 306 27.6374C306 28.3956 306.234 28.7896 306.442 29.1374C306.621 29.438 306.762 29.6739 306.762 30.1951C306.762 30.7153 306.621 30.9523 306.442 31.2529C306.234 31.6007 306 31.9947 306 32.7539C306 33.5131 306.234 33.9071 306.442 34.2549C306.621 34.5544 306.762 34.7914 306.762 35.3116C306.762 35.8318 306.621 36.0688 306.442 36.3694C306.234 36.7172 306 37.1111 306 37.8704C306 38.6285 306.234 39.0235 306.442 39.3713C306.621 39.6709 306.762 39.9079 306.762 40.4291C306.762 40.9493 306.621 41.1863 306.442 41.4869C306.234 41.8336 306 42.2286 306 42.9868C306 43.745 306.234 44.14 306.442 44.4878C306.621 44.7884 306.762 45.0244 306.762 45.5456C306.762 46.0657 306.621 46.3027 306.442 46.6023C306.234 46.9512 306 47.3451 306 48.1043C306 48.2941 306.015 48.4685 306.046 48.6368C306.084 48.8471 306.272 49 306.49 49H312.984C313.161 49 313.322 48.8995 313.395 48.7415L314 47.4385L314.606 48.7415C314.678 48.8995 314.839 49 315.016 49H329.159C329.336 49 329.497 48.8995 329.57 48.7415L330.176 47.4385L330.781 48.7415C330.853 48.8995 331.014 49 331.191 49H339.586C340.499 49 341.356 48.6532 342.001 48.0233C342.645 47.3933 343 46.5551 343 45.6646V35.8564C343 35.6132 342.797 35.4152 342.549 35.4152C342.299 35.4152 342.098 35.6132 342.098 35.8564V43.4116C341.485 42.7591 340.611 42.3436 339.643 42.3292C339.624 42.3282 339.605 42.3271 339.586 42.3271H338.957L338.063 39.6278C338.002 39.4462 337.829 39.3221 337.632 39.3221C337.437 39.3221 337.264 39.4462 337.203 39.6278L336.309 42.3271H335.173V19.6093H336.346L337.203 22.1988C337.264 22.3804 337.437 22.5045 337.632 22.5045C337.829 22.5045 338.002 22.3804 338.063 22.1988L338.92 19.6093H339.586H339.599C339.601 19.6093 339.603 19.6093 339.605 19.6093C339.611 19.6103 339.616 19.6103 339.622 19.6103C340.986 19.6277 342.098 20.7276 342.098 22.0634V28.4561C342.098 28.6993 342.299 28.8973 342.549 28.8973C342.797 28.8973 343 28.6993 343 28.4561V22.0634C343 20.2505 341.494 18.7567 339.643 18.7279Z" fill="#3A1F16"/>
<path d="M342.549 31.5938C342.299 31.5938 342.098 31.7916 342.098 32.0347V32.822C342.098 33.0661 342.299 33.2639 342.549 33.2639C342.798 33.2639 343 33.0661 343 32.822V32.0347C343 31.7916 342.798 31.5938 342.549 31.5938Z" fill="#3A1F16"/>
<path d="M318.096 16.139C319.988 16.139 321.525 17.642 321.525 19.4901C321.525 21.3393 319.988 22.8423 318.096 22.8423C316.206 22.8423 314.669 21.3393 314.669 19.4901C314.669 17.642 316.206 16.139 318.096 16.139ZM318.096 23.7249C320.484 23.7249 322.428 21.8251 322.428 19.4901C322.428 17.1562 320.484 15.2565 318.096 15.2565C315.709 15.2565 313.766 17.1562 313.766 19.4901C313.766 21.8251 315.709 23.7249 318.096 23.7249Z" fill="#3A1F16"/>
<path d="M331.254 38.0471C331.078 37.8743 330.792 37.8743 330.616 38.0471L329.526 39.1127L328.437 38.0471C328.26 37.8743 327.974 37.8743 327.798 38.0471C327.622 38.2191 327.622 38.4984 327.798 38.6704L328.678 39.5309C328.644 39.5926 328.624 39.6616 328.624 39.7368C328.624 39.8111 328.644 39.8801 328.678 39.9419L327.798 40.8024C327.622 40.9743 327.622 41.2537 327.798 41.4256C327.886 41.5124 328.002 41.5554 328.117 41.5554C328.232 41.5554 328.348 41.5124 328.437 41.4256L329.526 40.36L330.616 41.4256C330.704 41.5124 330.82 41.5554 330.935 41.5554C331.051 41.5554 331.166 41.5124 331.254 41.4256C331.431 41.2537 331.431 40.9743 331.254 40.8024L330.165 39.7368L331.254 38.6704C331.431 38.4984 331.431 38.2191 331.254 38.0471Z" fill="#3A1F16"/>
<path d="M318.704 36.7368C318.631 36.5038 318.38 36.3714 318.142 36.442C317.903 36.5117 317.768 36.758 317.84 36.991C317.932 37.291 318.057 37.5814 318.212 37.8559C318.294 38.0015 318.447 38.0845 318.607 38.0845C318.68 38.0845 318.755 38.0668 318.824 38.0298C319.042 37.9115 319.122 37.6432 319.002 37.4305C318.878 37.2098 318.778 36.9768 318.704 36.7368Z" fill="#3A1F16"/>
<path d="M323.874 39.2954H323.009C322.759 39.2954 322.557 39.4931 322.557 39.7366C322.557 39.9801 322.759 40.1777 323.009 40.1777H323.874C324.123 40.1777 324.325 39.9801 324.325 39.7366C324.325 39.4931 324.123 39.2954 323.874 39.2954Z" fill="#3A1F16"/>
<path d="M318.548 34.7637V33.9173C318.548 33.6734 318.346 33.4762 318.097 33.4762C317.848 33.4762 317.646 33.6734 317.646 33.9173V34.7637C317.646 35.0077 317.848 35.2048 318.097 35.2048C318.346 35.2048 318.548 35.0077 318.548 34.7637Z" fill="#3A1F16"/>
<path d="M326.905 39.2954H326.039C325.79 39.2954 325.588 39.4931 325.588 39.7366C325.588 39.9801 325.79 40.1777 326.039 40.1777H326.905C327.155 40.1777 327.357 39.9801 327.357 39.7366C327.357 39.4931 327.155 39.2954 326.905 39.2954Z" fill="#3A1F16"/>
<path d="M321.018 39.0959C320.776 39.0138 320.542 38.9062 320.322 38.7756C320.109 38.6494 319.831 38.7156 319.702 38.9238C319.573 39.132 319.641 39.4038 319.854 39.53C320.127 39.6923 320.42 39.8264 320.721 39.9296C320.771 39.9464 320.82 39.9543 320.87 39.9543C321.056 39.9543 321.231 39.8396 321.296 39.6579C321.378 39.4276 321.254 39.1762 321.018 39.0959Z" fill="#3A1F16"/>
</svg>
